<svg width="18" height="18" viewBox="0 0 18 18" fill="none" xmlns="http://www.w3.org/2000/svg">
<path d="M8.60172 4.53986H5.11539C4.74697 4.53975 4.38744 4.65302 4.08562 4.86429C3.7838 5.07557 3.55431 5.37461 3.42831 5.72081L0.0541531 15.0015C-0.0651987 15.3291 0.0164629 15.6961 0.262346 15.9429L0.525279 16.2058L6.28827 10.4428C6.28737 10.4195 6.28109 10.3962 6.28109 10.3728C6.28109 10.1066 6.36003 9.84636 6.50794 9.625C6.65585 9.40364 6.86608 9.23111 7.11204 9.12923C7.358 9.02735 7.62865 9.00069 7.88977 9.05263C8.15088 9.10457 8.39073 9.23277 8.57898 9.42102C8.76723 9.60927 8.89543 9.84912 8.94737 10.1102C8.99931 10.3713 8.97265 10.642 8.87077 10.888C8.76889 11.1339 8.59636 11.3441 8.375 11.4921C8.15364 11.64 7.89339 11.7189 7.62716 11.7189C7.60383 11.7189 7.5805 11.7126 7.55716 11.7117L1.79418 17.4747L2.05711 17.7377C2.17776 17.8586 2.33053 17.9425 2.49735 17.9794C2.66416 18.0163 2.83805 18.0046 2.99846 17.9458L12.2792 14.5708C12.6254 14.4448 12.9244 14.2153 13.1357 13.9135C13.347 13.6117 13.4603 13.2521 13.4601 12.8837V9.39739L15.254 7.60441L10.3956 2.74599L8.60172 4.53986ZM16.0976 6.39026L11.6106 1.90335L13.5131 0L18 4.48691L16.0976 6.39026Z" fill="black"/>
</svg>
