<svg width="53" height="62" viewBox="0 0 53 62" fill="none" xmlns="http://www.w3.org/2000/svg">
<g filter="url(#filter0_d_3512_27914)">
<path d="M45.8924 17.3456C44.9777 9.16374 46.4083 9.03123 37.4299 4.6922C32.8248 2.46617 26.2063 0.15914 21.2639 2.73119C18.4165 4.21265 17.136 7.42828 15.97 10.0803C14.5427 13.3264 13.5756 16.7092 13.0147 20.1727C12.8754 21.0339 13.754 21.5721 14.445 21.4775C14.5524 21.557 14.6792 21.6247 14.8343 21.6695C16.9914 22.2939 19.178 22.8262 21.3854 23.2663C22.4917 23.9078 24.1104 24.067 25.7621 24.0099C28.9177 24.4548 32.1052 24.7096 35.3027 24.7588C36.9522 24.7844 38.603 24.756 40.2506 24.6737C41.4729 24.6124 43.1823 24.7319 44.262 24.0557C46.2086 22.8362 46.0988 19.1897 45.8924 17.3456Z" fill="#D04849"/>
<path d="M33.7484 3.41702C30.639 1.95184 24.4024 0.338182 20.8743 0.0138804C16.3311 -0.403892 9.50235 8.72967 7.83908 11.1157C5.99473 13.7616 4.38253 16.6113 4.075 19.8708C3.71586 23.6784 4.73594 27.7494 5.24312 31.5172C5.72571 35.1038 5.97616 38.819 6.72613 42.3612C7.1877 44.5413 9.00583 47.0171 11.5775 46.1693C14.3037 45.2709 13.6821 41.7692 13.6551 39.6034C13.5507 31.1485 15.5185 22.7589 19.2742 15.1767C19.6805 14.356 19.0303 13.601 18.3442 13.5034C18.2912 13.3135 18.1839 13.145 18.0413 13.0076C19.219 11.4604 20.6832 10.0881 22.5256 8.95616C23.1707 8.56006 23.1895 7.56169 22.6875 7.11005C22.776 7.03771 22.8678 6.96971 22.9571 6.89819C23.275 6.98976 23.5951 7.12035 23.9177 7.29483C25.183 7.98082 26.3145 6.06291 25.0481 5.37665C25.0281 5.36608 25.0085 5.35714 24.9885 5.34685C25.6254 4.57578 25.0535 3.09245 23.9032 3.52512C23.6533 3.61913 23.4031 3.7061 23.1527 3.78955C23.2097 3.56738 23.1871 3.3268 23.106 3.10464C25.3816 3.46552 27.6088 4.50697 29.6383 5.46335C30.9334 6.07348 35.0512 4.03067 33.7484 3.41702Z" fill="#D04849"/>
<path d="M14.2475 28.734C14.2627 28.6139 14.2746 28.4933 14.2904 28.373C14.4075 27.4752 13.5944 27.065 12.8494 27.1769C12.8112 27.0164 12.7766 26.8564 12.7337 26.6951C12.6523 26.3885 12.4093 26.2496 12.1571 26.2469C12.1582 26.2392 12.159 26.2318 12.1598 26.2244C12.2623 25.456 11.4968 24.9605 10.7864 24.9704C10.9487 23.1535 11.2532 21.3864 11.4805 19.9704C11.5655 19.4424 11.1358 19.1339 10.7455 19.1982C10.8053 18.9379 10.8712 18.6783 10.9362 18.4186C10.9844 19.2072 12.2393 19.2031 12.2177 18.3934C12.1427 15.5787 13.6534 13.3339 15.0334 10.9944C15.7739 9.73872 17.2791 7.56008 16.9549 5.99453C16.208 2.38789 11.9284 7.96452 11.3113 8.92053C8.83723 12.752 6.53229 16.7939 6.11953 21.3965C5.87591 24.1133 5.82054 26.8115 5.41719 29.5169C5.26964 30.5054 5.10132 31.4762 5 32.4448C5.4064 35.7315 5.68157 39.0988 6.36757 42.3248C6.46114 42.7654 6.61257 43.2174 6.8119 43.653C7.29941 43.4307 7.67729 42.9494 7.58842 42.3024C7.86554 42.2349 8.12604 42.0831 8.31983 41.8518C8.36163 43.1955 8.46489 44.5322 8.64622 45.8571C8.64622 45.8607 8.64594 45.8642 8.64566 45.8675C9.38897 46.3264 10.2793 46.4989 11.285 46.1686C14.0484 45.2618 13.4183 41.7273 13.3909 39.5413C13.3463 35.9431 13.6797 32.3573 14.3601 28.8384C14.3228 28.8037 14.2854 28.7679 14.2475 28.734Z" fill="#B33B3D"/>
<path d="M13.9032 28.4916C13.9165 28.3656 13.9267 28.2393 13.94 28.1136C14.0394 27.1816 13.3559 26.753 12.7215 26.8598C12.6667 27.0124 12.6104 27.1639 12.5622 27.3208C12.5447 27.3297 12.5271 27.3385 12.5105 27.3494C12.3849 27.2741 12.2392 27.2578 12.1056 27.3007C12.0645 27.1527 12.027 27.003 11.9784 26.8578C11.8251 26.3985 11.3836 26.1938 11.058 26.5646C10.8454 26.8068 10.6811 27.1098 10.5487 27.4482C10.5354 27.3016 10.5221 27.155 10.5088 27.0081C10.4554 26.4163 9.91216 26.2262 9.60932 26.4827C9.27112 26.229 8.75706 26.3822 8.76797 27.0018C8.8648 32.4555 6.35808 38.3398 7.15766 43.6961C7.22981 44.1774 10.9811 43.7456 11.2783 43.5383C11.2835 43.5643 11.2882 43.5907 11.2934 43.6167C11.3953 44.1101 11.8642 44.1977 12.1502 43.9669C12.1989 44.0064 12.2508 44.0368 12.3054 44.0577C12.3109 44.0923 12.3147 44.1264 12.3202 44.1611C12.3617 44.4165 12.5048 44.5602 12.6733 44.612C12.7623 44.693 12.8698 44.7363 12.9804 44.742C13.4003 43.2245 13.1836 41.2397 13.1691 39.8075C13.1309 36.04 13.4164 32.2854 14 28.6007C13.9677 28.5646 13.9357 28.5268 13.9032 28.4916Z" fill="#993637"/>
<path d="M7.50445 52.6569C8.49924 52.2666 9.71921 51.7695 10.9497 51.4929C11.1176 51.4234 11.2841 51.3492 11.4498 51.2736C11.4625 51.26 11.4736 51.2476 11.4863 51.234C12.1346 49.3132 13.1761 47.474 13.8995 45.6161C13.9206 45.5616 13.9489 45.5123 13.9804 45.4656C14.0211 45.1766 14.9672 44.3918 15 44.1015C14.9175 44.1134 14.2161 43.6946 12.8225 41.8897C12.721 41.7581 12.5075 41.8054 12.374 41.8763C12.2212 41.4356 11.9369 41.0592 11.4318 40.8222C11.1612 40.6952 10.8342 40.7078 10.7312 41.0301C10.7116 41.0913 10.7098 41.1544 10.7151 41.2176C9.58495 40.6868 8.27248 40.5358 7.21611 41.2714C6.44782 41.8069 6.16212 42.5543 6.16185 43.3457C6.16159 43.8701 5.81272 44.3165 5.3 44.5039C5.25164 44.5216 5.20591 44.5405 5.16363 44.5612C4.69795 44.7858 4.21271 45.1976 4.26768 45.748C4.2875 45.943 4.38661 46.044 4.52801 46.0809C4.17676 46.6003 3.97881 47.2161 4.0018 47.9307C4.04964 49.419 5.07112 50.7401 6.5826 51.1446C6.61405 51.1531 6.64735 51.1592 6.67933 51.1673C6.68251 51.3469 6.70576 51.5285 6.75545 51.7106C6.86302 52.1049 7.07603 52.4482 7.35565 52.7317C7.40138 52.7039 7.45027 52.6781 7.50445 52.6569Z" fill="#DAECF7"/>
<path d="M17.6334 46.3912C17.3156 45.4216 16.6179 44.8799 15.75 44.6313C14.6466 42.9359 12.4117 44.9338 12.019 44.717C11.1647 44.2453 10.1659 44.1692 9.12211 44.9018C7.58732 45.9788 7.5131 47.8561 8.03524 49.4592C7.14933 49.6098 6.37684 49.9918 6 50.7555C6.02117 50.7615 6.04129 50.7687 6.06246 50.7742C6.09356 50.7824 6.12648 50.7882 6.1581 50.7954C6.16124 50.967 6.18424 51.1402 6.23337 51.3136C6.59113 52.5783 8.10841 53.3111 9.45583 53.0591C9.47282 53.0557 9.49007 53.0521 9.50732 53.0485C9.9845 52.9478 10.4763 53.0502 10.8694 53.3195C11.6996 53.888 12.7361 54.1564 13.8219 53.9061C15.1518 53.5999 16.1271 52.6404 16.2734 51.4711C16.4357 51.4574 16.598 51.3526 16.6876 51.1852C17.1465 50.331 16.3479 49.3094 15.4231 49.1268C15.4233 49.1208 15.4233 49.1237 15.4236 49.1174C17.0054 48.8823 18.2135 48.1594 17.6334 46.3912Z" fill="#ECF3FE"/>
<path d="M45.8959 18.6605C45.5373 15.0373 45.5425 12.833 45.1253 11.1855C42.0294 13.2129 39.8775 16.3286 39.021 20.0684C38.9052 20.5743 39.2895 20.9076 39.676 20.8839C39.8115 21.3029 40.307 21.5568 40.7023 21.159C40.895 20.9653 41.0663 20.7559 41.2273 20.5386C41.3948 20.8313 41.8355 20.9979 42.1523 20.8533C42.2656 20.8016 42.3704 20.7376 42.4709 20.6682C42.3105 21.2584 43.066 21.7819 43.536 21.3041C43.6786 21.159 43.8349 20.9867 43.9997 20.8016C44.0739 20.879 44.1637 20.9373 44.262 20.9707C44.2617 20.9776 44.2611 20.9844 44.2603 20.991C44.1133 21.2249 44.0005 21.426 43.9576 21.5606C43.7432 22.2349 44.574 22.6065 45.0194 22.2055C45.116 22.1184 45.6244 21.632 45.9898 21.3409C46.024 20.3369 45.9668 19.376 45.8959 18.6605ZM45.931 22.2595C45.9433 22.1327 45.9534 22.0059 45.9622 21.879C45.9011 22.0133 45.8959 22.1432 45.931 22.2595Z" fill="#B33B3D"/>
<path d="M47.6453 23.3848C46.1966 24.2329 44.595 24.7368 42.9485 25.0062C39.6058 25.5534 36.1944 25.1208 32.8561 24.7802C31.8909 24.6814 30.9367 24.6084 29.9867 24.5593C29.5278 24.2192 29.0327 23.932 28.4659 23.8174C28.1053 23.7444 27.5173 23.6629 27.2822 23.997C26.7099 23.7548 26.08 23.6643 25.4503 23.7814C25.162 23.8349 24.7767 23.9389 24.7429 24.2979C24.7312 24.4219 24.7727 24.5196 24.8409 24.601C24.1465 24.6551 23.4502 24.725 22.7479 24.8254C20.6987 25.1178 18.5561 25.5328 16.4858 25.1757C15.7263 25.0449 14.1977 24.3635 14.1494 24.3056C13.6493 23.7041 13.4745 23.28 13.4404 22.4966C13.4268 22.1842 13.4184 21.9055 13.3686 21.5966C13.3466 21.4597 13.167 21.4054 13.0608 21.4696C13.0356 21.4852 13.0166 21.5028 12.9933 21.5187C13.0475 21.353 13.1058 21.1838 13.1635 21.0014C13.2277 20.7978 13.3572 20.5759 13.3372 20.3546C13.3195 20.1606 13.326 20.0816 13.1662 19.9741C12.3864 19.4496 11.9957 20.9685 12 21.3879C12.0019 21.5675 12.1829 21.6268 12.3062 21.5697C12.2889 22.0111 12.3219 22.4596 12.3477 22.8905C12.3525 22.9689 12.3921 23.0219 12.4438 23.0553C12.449 23.0798 12.4512 23.1039 12.4571 23.1289C12.4875 23.2528 12.6124 23.2945 12.717 23.269C12.9733 24.4669 13.0013 24.7476 14 25.458C16.2394 25.6851 19.7747 24.8757 22 25.458C25 25.458 27.2822 25.458 30.5 25.458C33.9624 24.9991 38.0162 26.0454 41.5 25.8575C43.6077 25.7434 46.1302 26.7971 47.6453 25.0062C48.3436 24.1816 47.9464 24.1394 48 23.1662C47.8827 23.2408 47.7648 23.3146 47.6453 23.3848Z" fill="#DAECF7"/>
<path d="M16.9555 5.99479C16.6229 4.3667 15.5808 4.60984 14.4809 5.45319C14.0232 6.43481 13.657 7.47914 13.3174 8.50649C12.9069 9.24989 12.5183 10.0097 12.1442 10.7816C10.7283 13.704 9.41484 16.6086 9.00465 19.8604C8.92425 20.4962 9.91007 20.7106 10.1871 20.1811C10.2314 20.0965 10.2688 20.0091 10.3115 19.9237C10.3301 19.9785 10.3602 20.0267 10.3957 20.0707C10.3925 20.0998 10.3878 20.1285 10.3848 20.1575C10.3219 20.744 11.0714 20.9385 11.4466 20.623C11.4814 20.4056 11.5155 20.1929 11.5478 19.9889C11.6318 19.4601 11.2074 19.1513 10.8218 19.2156C10.8808 18.9549 10.9459 18.6951 11.0102 18.435C11.043 18.981 11.6452 19.1469 12.007 18.93C12.0529 18.7627 12.0956 18.5941 12.1426 18.427C12.1721 18.4856 12.2118 18.5363 12.2577 18.5804C12.2697 18.5278 12.2777 18.4719 12.276 18.4098C12.2019 15.5914 13.6942 13.3437 15.0574 11.0012C15.7889 9.74385 17.2757 7.56238 16.9555 5.99479Z" fill="#993637"/>
<path d="M47.7477 22.2233C47.3393 21.6049 47.0606 19.0676 46.8551 18.6185C46.5124 17.8693 45.844 17.5893 44.9481 17.4001C42.5978 16.9036 40.1691 17.5031 37.9146 18.0558C36.5663 18.3862 35.1956 18.7617 33.7879 18.8494C32.0646 18.9567 30.8179 18.2947 29.1843 18.0704C27.8233 17.8834 26.9801 18.2857 25.8535 18.8741C24.0294 19.827 22.7079 18.8028 20.9839 18.2433C19.6329 17.8049 18.2729 17.8291 17.0702 18.2307C15.5852 17.499 14.096 16.7946 12.2782 17.0756C11.6134 17.1787 11.0702 17.3728 10.6341 17.6344C10.496 17.5164 10.2681 17.5222 10.0781 17.5963C9.46086 17.8369 9.3595 18.2939 9.33851 18.7852C9.30896 18.7801 9.28051 18.7723 9.24682 18.7789C8.43761 18.9344 9.10955 20.2804 9.29156 20.7096C9.33022 20.971 9.39236 21.2367 9.47991 21.5041C9.48323 21.5361 9.48544 21.5676 9.4893 21.6C9.66026 22.9831 8.48395 23.8571 8.37651 25.4764C8.26687 27.1329 8.43429 25.707 10.6341 25.8759C14.2976 26.1576 17.1763 25.4764 20.9839 25.4764C24.4839 25.4764 27.8828 25.5513 30.875 25.4764C34.4043 25.0711 37.9491 26.1325 41.5 25.9663C43.6481 25.8658 47.5836 26.6378 47.875 25.4764C48.3616 23.534 48.745 23.7328 47.7477 22.2233Z" fill="#DAECF7"/>
<path d="M48.6193 22.4457C48.3242 22.1748 48.1046 22.2423 47.9436 22.45C47.9247 21.871 47.7613 21.2619 47.2353 21.1873C47.1602 21.1767 47.098 21.1783 47.0412 21.1854C46.9895 20.9069 46.937 20.6301 46.8463 20.3759C46.6829 19.9204 46.7863 19.3967 46.586 18.9589C46.2519 18.2292 45.6004 17.9564 44.7271 17.772C43.1409 17.4367 41.5184 17.6142 39.9406 17.9335C39.9373 17.9262 39.9376 17.9177 39.9336 17.911C39.7015 17.5261 39.1887 17.5426 38.7404 17.6257C38.3382 17.7003 37.9848 17.8638 37.6418 18.0442C37.6211 17.9231 37.518 17.8053 37.2878 17.7081C36.9254 17.5549 36.3779 17.8131 36.0847 17.9708C35.3675 18.3564 34.9002 18.8865 34.1356 19.1591C34.0401 19.1678 33.9448 19.1779 33.8487 19.1838C32.1688 19.2884 30.9536 18.6436 29.3612 18.4248C28.0346 18.2426 27.2127 18.6347 26.1146 19.2082C24.3364 20.1364 23.0483 19.1385 21.3679 18.5936C20.0509 18.1664 18.7254 18.1898 17.553 18.5811C16.3628 17.9951 15.3908 17.8173 14.0194 17.7857C14.0889 18.2358 14.0683 18.3165 14.3534 18.7954C14.6253 19.2518 15.1045 19.5402 14.8445 20.0752C14.7338 20.3032 14.2212 20.5775 14.0166 20.8109C13.4739 21.4295 13.1651 22.1533 13.0628 22.9276C12.7907 24.9901 13.3952 24.9553 15.0223 25.9578C17.1956 25.9578 19.8016 25.457 22.0129 25.9578C25.0093 25.5687 27.5098 25.5687 30.5082 25.9578C33.9485 25.5632 38.0387 26.1197 41.5 25.9578C43.5939 25.8599 46.1424 25.9578 47.5 25.9578C48.2158 25.2248 48.139 25.8195 48.1748 24.9545C48.9542 24.423 49.3378 23.1056 48.6193 22.4457Z" fill="#ECF3FE"/>
</g>
<defs>
<filter id="filter0_d_3512_27914" x="0" y="0" width="53" height="62" filterUnits="userSpaceOnUse" color-interpolation-filters="sRGB">
<feFlood flood-opacity="0" result="BackgroundImageFix"/>
<feColorMatrix in="SourceAlpha" type="matrix" values="0 0 0 0 0 0 0 0 0 0 0 0 0 0 0 0 0 0 127 0" result="hardAlpha"/>
<feOffset dy="4"/>
<feGaussianBlur stdDeviation="2"/>
<feComposite in2="hardAlpha" operator="out"/>
<feColorMatrix type="matrix" values="0 0 0 0 0 0 0 0 0 0 0 0 0 0 0 0 0 0 0.25 0"/>
<feBlend mode="normal" in2="BackgroundImageFix" result="effect1_dropShadow_3512_27914"/>
<feBlend mode="normal" in="SourceGraphic" in2="effect1_dropShadow_3512_27914" result="shape"/>
</filter>
</defs>
</svg>
