<svg width="24" height="24" viewBox="0 0 24 24" fill="none" xmlns="http://www.w3.org/2000/svg">
<path d="M22.1421 13.4222C22.2409 13.5932 22.2928 13.7873 22.2928 13.9848C22.2928 14.1824 22.2407 14.3764 22.1419 14.5475C22.0431 14.7185 21.901 14.8605 21.7298 14.9592C21.5587 15.0579 21.3646 15.1098 21.1671 15.1097C20.9691 15.1117 20.7742 15.0606 20.6027 14.9617C20.4312 14.8627 20.2894 14.7196 20.1921 14.5472L18.664 11.9034C17.8034 12.442 16.877 12.8674 15.9077 13.169L16.3952 15.9253C16.4222 16.0707 16.42 16.22 16.3887 16.3645C16.3575 16.509 16.2978 16.6459 16.2132 16.7671C16.1286 16.8884 16.0207 16.9916 15.8958 17.0708C15.771 17.15 15.6316 17.2036 15.4858 17.2284L15.289 17.2472C15.025 17.2468 14.7695 17.1537 14.5673 16.984C14.365 16.8143 14.2289 16.579 14.1827 16.319L13.7046 13.6284C13.1947 13.6938 12.6811 13.7251 12.1671 13.7222C11.6501 13.7201 11.1337 13.6888 10.6202 13.6284L10.1421 16.319C10.0959 16.579 9.95977 16.8143 9.75753 16.984C9.55529 17.1537 9.29983 17.2468 9.03584 17.2472L8.83897 17.2284C8.69322 17.2036 8.55386 17.15 8.42899 17.0708C8.30413 16.9916 8.19626 16.8884 8.11164 16.7671C8.02703 16.6459 7.96736 16.509 7.93611 16.3645C7.90485 16.22 7.90264 16.0707 7.92959 15.9253L8.41709 13.169C7.45076 12.8673 6.52748 12.4419 5.67022 11.9034L4.13272 14.5659C4.0332 14.7364 3.89091 14.878 3.71991 14.9766C3.54891 15.0753 3.35513 15.1276 3.15772 15.1284C2.96013 15.13 2.76579 15.0782 2.59522 14.9784C2.46712 14.9046 2.35482 14.8063 2.26475 14.689C2.17468 14.5718 2.1086 14.438 2.07029 14.2952C2.03198 14.1524 2.02219 14.0034 2.04148 13.8568C2.06077 13.7103 2.10877 13.5689 2.18272 13.4409L3.86084 10.5347C3.29298 10.0302 2.7692 9.4782 2.29522 8.88466C2.19166 8.77155 2.11232 8.63845 2.06208 8.49355C2.01184 8.34865 1.99176 8.19501 2.00306 8.04207C2.01437 7.88912 2.05682 7.7401 2.12783 7.60417C2.19883 7.46823 2.29687 7.34825 2.41594 7.25158C2.535 7.15492 2.67257 7.08363 2.8202 7.04208C2.96783 7.00053 3.12239 6.9896 3.27439 7.00996C3.4264 7.03033 3.57263 7.08156 3.70411 7.1605C3.8356 7.23945 3.94955 7.34444 4.03897 7.46904C5.52022 9.29716 8.12647 11.4722 12.1671 11.4722C16.2077 11.4722 18.814 9.29716 20.2952 7.46904C20.3846 7.34444 20.4986 7.23945 20.6301 7.1605C20.7616 7.08156 20.9078 7.03033 21.0598 7.00996C21.2118 6.9896 21.3664 7.00053 21.514 7.04208C21.6616 7.08363 21.7992 7.15492 21.9183 7.25158C22.0373 7.34825 22.1354 7.46823 22.2064 7.60417C22.2774 7.7401 22.3198 7.88912 22.3311 8.04207C22.3424 8.19501 22.3223 8.34865 22.2721 8.49355C22.2219 8.63845 22.1425 8.77155 22.039 8.88466C21.5628 9.4792 21.0392 10.0341 20.4733 10.544L22.1421 13.4222Z" fill="black"/>
</svg>
