<svg width="24" height="24" viewBox="0 0 24 24" fill="none" xmlns="http://www.w3.org/2000/svg">
<path d="M12.334 2.50076C12.2355 2.43523 12.1198 2.40027 12.0016 2.40027C11.8833 2.40027 11.7676 2.43523 11.6692 2.50076C9.40372 4.02799 6.8213 5.02133 4.11636 5.40596C3.97344 5.42646 3.84271 5.49781 3.74815 5.60692C3.65359 5.71603 3.60154 5.85558 3.60156 5.99996V11.4C3.60156 16.0692 6.36996 19.476 11.7856 21.5604C11.9246 21.614 12.0786 21.614 12.2176 21.5604C17.6332 19.476 20.4016 16.068 20.4016 11.4V5.99996C20.4015 5.8554 20.3493 5.7157 20.2545 5.60657C20.1597 5.49743 20.0287 5.4262 19.8856 5.40596C17.181 5.02115 14.599 4.02782 12.334 2.50076ZM13.8016 10.8C13.8018 11.1723 13.6864 11.5356 13.4715 11.8397C13.2566 12.1439 12.9527 12.3738 12.6016 12.498V15C12.6016 15.1591 12.5383 15.3117 12.4258 15.4242C12.3133 15.5367 12.1607 15.6 12.0016 15.6C11.8424 15.6 11.6898 15.5367 11.5773 15.4242C11.4648 15.3117 11.4016 15.1591 11.4016 15V12.498C11.0905 12.388 10.8156 12.1946 10.607 11.939C10.3984 11.6833 10.264 11.3753 10.2187 11.0484C10.1733 10.7216 10.2186 10.3886 10.3497 10.0858C10.4808 9.783 10.6926 9.52205 10.9619 9.33148C11.2313 9.14091 11.5479 9.02804 11.877 9.00522C12.2062 8.98239 12.5353 9.05048 12.8284 9.20204C13.1215 9.35361 13.3673 9.58282 13.5389 9.86463C13.7105 10.1464 13.8014 10.47 13.8016 10.8Z" fill="black"/>
</svg>
