<svg width="24" height="24" viewBox="0 0 24 24" fill="none" xmlns="http://www.w3.org/2000/svg">
<path d="M12 4.5C6.7665 4.5 2.229 7.548 0 12C2.229 16.452 6.7665 19.5 12 19.5C17.2335 19.5 21.771 16.452 24 12C21.771 7.548 17.2335 4.5 12 4.5ZM17.9175 8.478C19.3275 9.378 20.523 10.5825 21.42 12C20.5258 13.4174 19.3299 14.6199 17.9175 15.522C16.1506 16.651 14.0975 17.2509 12.0007 17.2509C9.90395 17.2509 7.85092 16.651 6.084 15.522C4.67229 14.6191 3.47652 13.4167 2.5815 12C3.53459 10.4897 4.82943 9.22467 6.3615 8.307C6.03178 9.21337 5.92542 10.1859 6.05143 11.1421C6.17744 12.0983 6.53211 13.01 7.08538 13.8C7.63865 14.5901 8.37421 15.235 9.22973 15.6804C10.0853 16.1257 11.0355 16.3582 12 16.3582C12.9645 16.3582 13.9147 16.1257 14.7703 15.6804C15.6258 15.235 16.3614 14.5901 16.9146 13.8C17.4679 13.01 17.8226 12.0983 17.9486 11.1421C18.0746 10.1859 17.9682 9.21337 17.6385 8.307C17.7315 8.3625 17.826 8.4195 17.9175 8.478ZM12 9.75C11.9998 10.3469 11.7625 10.9193 11.3402 11.3413C10.918 11.7633 10.3454 12.0002 9.7485 12C9.15156 11.9998 8.57916 11.7625 8.1572 11.3402C7.73524 10.918 7.4983 10.3454 7.4985 9.7485C7.4987 9.15156 7.73602 8.57916 8.15826 8.1572C8.5805 7.73524 9.15306 7.4983 9.75 7.4985C10.3469 7.4987 10.9193 7.73602 11.3413 8.15826C11.7633 8.5805 12.0002 9.15306 12 9.75Z" fill="black"/>
</svg>
