<svg width="296" height="312" viewBox="0 0 296 312" fill="none" xmlns="http://www.w3.org/2000/svg">
<path d="M137.898 133.951C140.416 132.456 143.549 132.456 146.067 133.951L251.064 196.293C252.374 197.071 252.368 198.97 251.053 199.739L146.021 261.164C143.526 262.623 140.439 262.623 137.944 261.164L32.9122 199.739C31.5968 198.97 31.5905 197.071 32.9008 196.293L137.898 133.951Z" fill="url(#paint0_radial_3907_23911)" fill-opacity="0.05"/>
<path d="M139.438 88.8643C141.089 88.3098 142.877 88.3098 144.529 88.8643L252.039 124.952V155.299C252.039 156.014 251.658 156.674 251.039 157.031L145.984 217.699C143.508 219.129 140.458 219.129 137.983 217.699L32.9295 157.033C32.3108 156.676 31.9297 156.016 31.9297 155.301V124.952L139.438 88.8643Z" fill="url(#paint1_linear_3907_23911)"/>
<path d="M137.898 60.9506C140.416 59.4557 143.549 59.4557 146.067 60.9506L251.064 123.293C252.374 124.071 252.368 125.97 251.053 126.739L146.021 188.164C143.526 189.623 140.439 189.623 137.944 188.164L32.9122 126.739C31.5968 125.97 31.5905 124.071 32.9008 123.293L137.898 60.9506Z" fill="url(#paint2_linear_3907_23911)"/>
<path d="M138.126 65.0534C140.644 63.558 143.778 63.558 146.296 65.0534L244.31 123.262C245.62 124.04 245.613 125.938 244.298 126.708L146.25 184.061C143.755 185.52 140.667 185.52 138.171 184.061L40.123 126.708C38.8078 125.938 38.8015 124.04 40.1116 123.262L138.126 65.0534Z" fill="url(#paint3_linear_3907_23911)"/>
<path d="M138.127 89.8486C140.644 88.3538 143.778 88.3538 146.295 89.8486L226.211 137.299L146.25 184.062C143.755 185.521 140.667 185.521 138.172 184.062L58.2109 137.299L138.127 89.8486Z" fill="url(#paint4_linear_3907_23911)"/>
<path d="M137.874 22.0029C140.407 20.4847 143.57 20.4849 146.102 22.0034L252.047 85.5327V90.3261C252.047 91.0333 251.674 91.688 251.065 92.0478L146.028 154.138C143.534 155.613 140.437 155.623 137.933 154.165L32.9236 93.0461C32.3082 92.6879 31.9297 92.0296 31.9297 91.3175V85.5155L137.874 22.0029Z" fill="url(#paint5_linear_3907_23911)"/>
<path d="M137.898 21.4263C140.416 19.9314 143.549 19.9314 146.067 21.4263L251.064 83.7685C252.374 84.5464 252.368 86.4453 251.053 87.2146L146.021 148.639C143.526 150.098 140.439 150.098 137.944 148.639L32.9122 87.2146C31.5968 86.4453 31.5905 84.5464 32.9008 83.7685L137.898 21.4263Z" fill="url(#paint6_linear_3907_23911)"/>
<path d="M109.962 64.5238C109.962 64.5238 68.2881 84.759 113.901 106.818" stroke="white" stroke-width="3"/>
<path d="M109.852 104.466C144.847 130.731 179.352 104.776 179.352 104.776" stroke="white" stroke-width="3"/>
<path d="M145.484 84.2774L110.283 105.058" stroke="white" stroke-width="3"/>
<path d="M172.301 46.3162L141.025 27.8341C140.55 27.5532 139.779 27.5532 139.303 27.8341L92.3135 55.6022C91.8381 55.8831 91.8381 56.3387 92.3135 56.6197L123.589 75.1017C124.065 75.3827 124.836 75.3827 125.311 75.1017L172.301 47.3337C172.776 47.0527 172.776 46.5972 172.301 46.3162Z" fill="#333D5E"/>
<path d="M206.48 66.4184L175.205 47.9363C174.729 47.6554 173.958 47.6554 173.483 47.9363L126.493 75.7044C126.018 75.9853 126.018 76.4409 126.493 76.7219L157.769 95.2039C158.244 95.4849 159.015 95.4849 159.491 95.2039L206.48 67.4359C206.956 67.1549 206.956 66.6994 206.48 66.4184Z" fill="#333D5E"/>
<path d="M240.691 86.5743L209.416 68.0922C208.94 67.8113 208.169 67.8113 207.694 68.0922L160.704 95.8603C160.229 96.1412 160.229 96.5968 160.704 96.8778L191.98 115.36C192.455 115.641 193.226 115.641 193.702 115.36L240.691 87.5918C241.167 87.3109 241.167 86.8553 240.691 86.5743Z" fill="#333D5E"/>
<path d="M139.351 29.5533C139.777 29.3472 140.385 29.3361 140.832 29.5263L168.641 41.3486L169.118 46.0636C169.139 46.269 169.01 46.4698 168.764 46.6153L125.399 72.241C124.924 72.522 124.153 72.522 123.678 72.241L95.8488 55.7957C95.6028 55.6503 95.4738 55.4497 95.4943 55.2445L95.9678 50.5118L139.351 29.5533Z" fill="url(#paint7_linear_3907_23911)"/>
<path d="M139.351 29.5533C139.777 29.3472 140.385 29.3361 140.832 29.5263L168.641 41.3486L169.118 46.0636C169.139 46.269 169.01 46.4698 168.764 46.6153L125.399 72.241C124.924 72.522 124.153 72.522 123.678 72.241L95.8488 55.7957C95.6028 55.6503 95.4738 55.4497 95.4943 55.2445L95.9678 50.5118L139.351 29.5533Z" fill="url(#paint8_linear_3907_23911)"/>
<path d="M173.507 49.7374C173.934 49.5313 174.541 49.5201 174.989 49.7101L202.792 61.5157L203.274 66.2476C203.295 66.4531 203.166 66.654 202.92 66.7996L159.556 92.4252C159.08 92.7062 158.309 92.7062 157.834 92.4252L130.005 75.9803C129.759 75.8347 129.63 75.6336 129.651 75.428L130.137 70.6976L173.507 49.7374Z" fill="url(#paint9_linear_3907_23911)"/>
<path d="M173.507 49.7374C173.934 49.5313 174.541 49.5201 174.989 49.7101L202.792 61.5157L203.274 66.2476C203.295 66.4531 203.166 66.654 202.92 66.7996L159.556 92.4252C159.08 92.7062 158.309 92.7062 157.834 92.4252L130.005 75.9803C129.759 75.8347 129.63 75.6336 129.651 75.428L130.137 70.6976L173.507 49.7374Z" fill="url(#paint10_linear_3907_23911)"/>
<path d="M207.673 69.9213C208.099 69.7153 208.706 69.704 209.153 69.8935L236.951 81.6744L237.439 86.4316C237.46 86.6372 237.331 86.8382 237.084 86.9839L193.72 112.609C193.245 112.89 192.474 112.89 191.998 112.609L164.169 96.1639C163.923 96.0186 163.794 95.8181 163.815 95.6129L164.285 90.8917L207.673 69.9213Z" fill="url(#paint11_linear_3907_23911)"/>
<path d="M207.673 69.9213C208.099 69.7153 208.706 69.704 209.153 69.8935L236.951 81.6744L237.439 86.4316C237.46 86.6372 237.331 86.8382 237.084 86.9839L193.72 112.609C193.245 112.89 192.474 112.89 191.998 112.609L164.169 96.1639C163.923 96.0186 163.794 95.8181 163.815 95.6129L164.285 90.8917L207.673 69.9213Z" fill="url(#paint12_linear_3907_23911)"/>
<path d="M168.294 40.7117L140.939 24.5465C140.464 24.2656 139.693 24.2656 139.217 24.5465L96.3268 49.8922C95.8513 50.1732 95.8513 50.6287 96.3268 50.9097L123.682 67.0748C124.157 67.3558 124.928 67.3558 125.404 67.0748L168.294 41.7292C168.769 41.4482 168.769 40.9926 168.294 40.7117Z" fill="#4AA7F0"/>
<path d="M202.45 60.8955L175.095 44.7303C174.62 44.4494 173.849 44.4494 173.373 44.7303L130.483 70.076C130.008 70.357 130.008 70.8125 130.483 71.0935L157.838 87.2587C158.313 87.5396 159.084 87.5396 159.56 87.2587L202.45 61.913C202.926 61.632 202.926 61.1765 202.45 60.8955Z" fill="#4AA7F0"/>
<path d="M236.607 81.1935L209.252 65.0283C208.776 64.7474 208.005 64.7474 207.53 65.0283L164.639 90.374C164.164 90.655 164.164 91.1105 164.639 91.3915L191.994 107.557C192.47 107.838 193.241 107.838 193.716 107.557L236.607 82.211C237.082 81.93 237.082 81.4745 236.607 81.1935Z" fill="#4AA7F0"/>
<path d="M161.921 40.9316L140.47 28.2555C139.995 27.9745 139.224 27.9745 138.748 28.2555L134.377 30.8387C133.902 31.1196 133.902 31.5752 134.377 31.8562L155.828 44.5323C156.303 44.8133 157.074 44.8133 157.55 44.5323L161.921 41.9491C162.397 41.6681 162.397 41.2126 161.921 40.9316Z" fill="white"/>
<path d="M196.077 61.1158L174.627 48.4396C174.151 48.1587 173.38 48.1587 172.905 48.4396L168.533 51.0228C168.058 51.3038 168.058 51.7594 168.533 52.0403L189.984 64.7165C190.46 64.9975 191.231 64.9975 191.706 64.7165L196.077 62.1333C196.553 61.8523 196.553 61.3967 196.077 61.1158Z" fill="white"/>
<path d="M230.234 81.2999L208.783 68.6237C208.307 68.3428 207.536 68.3428 207.061 68.6237L202.69 71.2069C202.214 71.4879 202.214 71.9435 202.69 72.2244L224.14 84.9006C224.616 85.1816 225.387 85.1816 225.862 84.9006L230.234 82.3174C230.709 82.0364 230.709 81.5809 230.234 81.2999Z" fill="white"/>
<path d="M154.015 45.6049L132.564 32.9287C132.089 32.6478 131.318 32.6478 130.842 32.9287L126.471 35.5119C125.995 35.7929 125.995 36.2485 126.471 36.5294L147.922 49.2056C148.397 49.4866 149.168 49.4866 149.644 49.2056L154.015 46.6224C154.49 46.3414 154.49 45.8858 154.015 45.6049Z" fill="white"/>
<path d="M188.171 65.7891L166.72 53.1129C166.245 52.832 165.474 52.832 164.998 53.1129L160.627 55.6961C160.152 55.9771 160.152 56.4327 160.627 56.7136L182.078 69.3898C182.553 69.6708 183.324 69.6708 183.8 69.3898L188.171 66.8066C188.647 66.5256 188.647 66.0701 188.171 65.7891Z" fill="white"/>
<path d="M222.327 85.9732L200.877 73.297C200.401 73.016 199.63 73.016 199.155 73.297L194.783 75.8802C194.308 76.1612 194.308 76.6168 194.783 76.8977L216.234 89.5739C216.71 89.8548 217.481 89.8548 217.956 89.5739L222.327 86.9907C222.803 86.7097 222.803 86.2541 222.327 85.9732Z" fill="white"/>
<path d="M146.109 50.2783L124.658 37.6021C124.182 37.3212 123.411 37.3212 122.936 37.6021L118.565 40.1853C118.089 40.4663 118.089 40.9219 118.565 41.2028L140.015 53.879C140.491 54.16 141.262 54.16 141.737 53.879L146.109 51.2958C146.584 51.0148 146.584 50.5592 146.109 50.2783Z" fill="white"/>
<path d="M180.265 70.4623L158.814 57.7861C158.339 57.5051 157.568 57.5051 157.092 57.7861L152.721 60.3693C152.245 60.6503 152.245 61.1059 152.721 61.3868L174.172 74.063C174.647 74.3439 175.418 74.3439 175.894 74.063L180.265 71.4798C180.74 71.1988 180.74 70.7432 180.265 70.4623Z" fill="white"/>
<path d="M214.421 90.6465L192.97 77.9703C192.495 77.6894 191.724 77.6894 191.248 77.9703L186.877 80.5535C186.402 80.8345 186.402 81.2901 186.877 81.571L208.328 94.2472C208.803 94.5282 209.574 94.5282 210.05 94.2472L214.421 91.664C214.897 91.383 214.897 90.9274 214.421 90.6465Z" fill="white"/>
<path d="M138.195 54.9516L116.744 42.2754C116.268 41.9944 115.497 41.9944 115.022 42.2754L110.651 44.8586C110.175 45.1396 110.175 45.5951 110.651 45.8761L132.101 58.5523C132.577 58.8332 133.348 58.8332 133.823 58.5523L138.195 55.9691C138.67 55.6881 138.67 55.2325 138.195 54.9516Z" fill="white"/>
<path d="M172.351 75.1357L150.9 62.4595C150.425 62.1785 149.654 62.1785 149.178 62.4595L144.807 65.0427C144.331 65.3237 144.331 65.7793 144.807 66.0602L166.258 78.7364C166.733 79.0173 167.504 79.0173 167.979 78.7364L172.351 76.1532C172.826 75.8722 172.826 75.4166 172.351 75.1357Z" fill="white"/>
<path d="M206.507 95.3199L185.056 82.6437C184.581 82.3628 183.81 82.3628 183.334 82.6437L178.963 85.2269C178.488 85.5079 178.488 85.9635 178.963 86.2444L200.414 98.9206C200.889 99.2016 201.66 99.2016 202.136 98.9206L206.507 96.3374C206.983 96.0564 206.983 95.6008 206.507 95.3199Z" fill="white"/>
<path d="M130.288 59.6249L108.837 46.9487C108.362 46.6677 107.591 46.6677 107.116 46.9487L102.744 49.5319C102.269 49.8129 102.269 50.2685 102.744 50.5494L124.195 63.2256C124.671 63.5065 125.441 63.5065 125.917 63.2256L130.288 60.6424C130.764 60.3614 130.764 59.9058 130.288 59.6249Z" fill="white"/>
<path d="M164.445 79.809L142.994 67.1328C142.518 66.8519 141.747 66.8519 141.272 67.1328L136.901 69.716C136.425 69.997 136.425 70.4526 136.901 70.7335L158.351 83.4097C158.827 83.6907 159.598 83.6907 160.073 83.4097L164.445 80.8265C164.92 80.5455 164.92 80.09 164.445 79.809Z" fill="white"/>
<path d="M198.601 99.9932L177.15 87.317C176.675 87.0361 175.904 87.0361 175.428 87.317L171.057 89.9002C170.581 90.1812 170.581 90.6368 171.057 90.9177L192.508 103.594C192.983 103.875 193.754 103.875 194.229 103.594L198.601 101.011C199.076 100.73 199.076 100.274 198.601 99.9932Z" fill="white"/>
<path d="M95.7338 114.538C104.207 119.546 117.783 119.641 126.056 114.752C134.33 109.863 134.167 101.841 125.694 96.8336C117.221 91.8264 103.645 91.7305 95.3715 96.6195C87.0982 101.509 87.2604 109.531 95.7338 114.538Z" fill="#333D5E"/>
<path d="M124.656 112.417C117.087 116.891 104.814 116.891 97.2444 112.417C89.2403 108.155 88.8492 93.9864 97.2443 96.2183C104.814 91.7451 117.087 91.7451 124.656 96.2183C130.866 90.7618 134.775 108.155 124.656 112.417Z" fill="url(#paint13_linear_3907_23911)"/>
<path d="M97.2392 107.365C104.809 111.838 117.082 111.838 124.651 107.365C132.221 102.892 132.221 95.6391 124.651 91.1659C117.082 86.6927 104.809 86.6927 97.2392 91.1659C89.6695 95.6391 89.6695 102.892 97.2392 107.365Z" fill="#4AA7F0"/>
<path d="M100.128 105.658C106.102 109.188 115.788 109.188 121.763 105.658C127.737 102.127 127.737 96.4034 121.763 92.8729C115.788 89.3424 106.102 89.3424 100.128 92.8729C94.1535 96.4034 94.1535 102.127 100.128 105.658Z" fill="white"/>
<path d="M49.5469 142.315L49.1918 160.655" stroke="#9098B0" stroke-opacity="0.9" stroke-width="2" stroke-linecap="round"/>
<path d="M57.1562 146.669L56.8012 165.009" stroke="#9098B0" stroke-opacity="0.9" stroke-width="2" stroke-linecap="round"/>
<path d="M64.7734 151.024L64.4184 169.364" stroke="#9098B0" stroke-opacity="0.9" stroke-width="2" stroke-linecap="round"/>
<path d="M72.3828 155.379L72.0277 173.719" stroke="#9098B0" stroke-opacity="0.9" stroke-width="2" stroke-linecap="round"/>
<path d="M50.4739 149.942L48.3158 148.677C47.8393 148.397 47.4445 148.619 47.4338 149.171L47.3927 151.292C47.382 151.844 47.7596 152.518 48.236 152.797L50.3941 154.063C50.8705 154.342 51.2654 154.121 51.2761 153.569L51.3172 151.448C51.3279 150.896 50.9503 150.222 50.4739 149.942Z" fill="#737B96"/>
<path d="M58.0911 154.297L55.9329 153.032C55.4565 152.752 55.0616 152.974 55.051 153.526L55.0099 155.647C54.9992 156.199 55.3768 156.873 55.8532 157.152L58.0113 158.418C58.4877 158.697 58.8826 158.476 58.8933 157.924L58.9343 155.803C58.945 155.251 58.5675 154.577 58.0911 154.297Z" fill="#737B96"/>
<path d="M65.7004 158.651L63.5423 157.386C63.0659 157.106 62.671 157.328 62.6603 157.88L62.6193 160.001C62.6086 160.553 62.9861 161.227 63.4625 161.506L65.6207 162.772C66.0971 163.051 66.492 162.83 66.5027 162.278L66.5437 160.157C66.5544 159.605 66.1769 158.931 65.7004 158.651Z" fill="#737B96"/>
<path d="M73.3176 163.006L71.1595 161.741C70.6831 161.461 70.2882 161.683 70.2775 162.235L70.2365 164.356C70.2258 164.908 70.6033 165.582 71.0797 165.861L73.2379 167.127C73.7143 167.406 74.1092 167.185 74.1198 166.633L74.1609 164.512C74.1716 163.96 73.7941 163.286 73.3176 163.006Z" fill="#737B96"/>
<path d="M48.3828 150.719L50.3431 151.868" stroke="white" stroke-linecap="round"/>
<path d="M56 155.074L57.9603 156.223" stroke="white" stroke-linecap="round"/>
<path d="M63.6094 159.428L65.5696 160.577" stroke="white" stroke-linecap="round"/>
<path d="M71.2188 163.783L73.179 164.932" stroke="white" stroke-linecap="round"/>
<path d="M126.825 188.547L80.3125 161.274L80.0233 176.21L126.535 203.483L126.825 188.547Z" fill="#9098B0"/>
<path d="M229.785 165.738C235.099 162.663 239.505 155.192 239.626 149.054C239.747 142.915 235.538 140.432 230.223 143.508C224.909 146.584 220.503 154.054 220.382 160.193C220.261 166.331 224.471 168.814 229.785 165.738Z" fill="#9098B0"/>
<path d="M155.891 202.244L211.212 170.222" stroke="#9098B0" stroke-width="2" stroke-linecap="round"/>
<path d="M155.984 197.491L211.305 165.469" stroke="#9098B0" stroke-width="2" stroke-linecap="round"/>
<path d="M156.078 192.738L211.399 160.716" stroke="#9098B0" stroke-width="2" stroke-linecap="round"/>
<path d="M229.796 145.216C228.767 145.812 227.743 146.636 226.784 147.641C225.824 148.646 224.947 149.813 224.203 151.075C223.459 152.337 222.862 153.669 222.446 154.995C222.031 156.321 221.805 157.616 221.781 158.804L224.381 157.3C224.397 156.505 224.548 155.64 224.825 154.754C225.103 153.868 225.502 152.978 225.999 152.134C226.496 151.291 227.082 150.511 227.724 149.84C228.365 149.168 229.049 148.617 229.737 148.219L229.796 145.216Z" fill="#DBDFEA"/>
<path d="M238.529 149.107C238.553 147.919 238.373 146.859 238.001 145.989C237.629 145.118 237.072 144.454 236.361 144.035C235.65 143.616 234.799 143.449 233.857 143.544C232.915 143.64 231.901 143.995 230.872 144.591L230.812 147.594C231.499 147.196 232.178 146.958 232.808 146.894C233.437 146.831 234.004 146.942 234.48 147.222C234.955 147.503 235.328 147.946 235.577 148.528C235.826 149.11 235.946 149.818 235.93 150.612L238.529 149.107Z" fill="#DBDFEA"/>
<path d="M234.799 151.264C234.812 150.629 234.716 150.063 234.517 149.598C234.318 149.133 234.02 148.779 233.641 148.555C233.261 148.331 232.806 148.242 232.303 148.292C231.8 148.343 231.259 148.533 230.709 148.852L230.664 151.122C230.956 150.954 231.243 150.853 231.51 150.826C231.777 150.799 232.018 150.846 232.219 150.965C232.42 151.084 232.578 151.272 232.684 151.518C232.789 151.765 232.84 152.065 232.833 152.402L234.799 151.264Z" fill="#DBDFEA"/>
<path d="M229.703 149.433C229.153 149.752 228.607 150.192 228.094 150.729C227.581 151.266 227.113 151.889 226.715 152.563C226.318 153.237 225.999 153.948 225.777 154.656C225.555 155.365 225.435 156.056 225.422 156.691L227.388 155.553C227.395 155.217 227.458 154.85 227.576 154.474C227.694 154.099 227.863 153.721 228.074 153.364C228.285 153.006 228.533 152.676 228.805 152.391C229.077 152.106 229.367 151.873 229.658 151.704L229.703 149.433Z" fill="#DBDFEA"/>
<path d="M225.407 157.901C225.394 158.536 225.49 159.102 225.689 159.567C225.888 160.032 226.185 160.387 226.565 160.611C226.945 160.835 227.399 160.924 227.902 160.873C228.406 160.822 228.947 160.632 229.497 160.314L229.542 158.043C229.25 158.212 228.963 158.312 228.696 158.339C228.429 158.366 228.188 158.319 227.987 158.2C227.786 158.081 227.628 157.893 227.522 157.647C227.417 157.4 227.366 157.1 227.373 156.763L225.407 157.901Z" fill="#DBDFEA"/>
<path d="M230.578 159.688C231.128 159.37 231.675 158.93 232.187 158.393C232.7 157.856 233.168 157.233 233.566 156.559C233.963 155.885 234.282 155.174 234.504 154.465C234.726 153.757 234.846 153.066 234.859 152.431L232.893 153.568C232.887 153.905 232.823 154.272 232.705 154.648C232.587 155.023 232.418 155.401 232.207 155.758C231.997 156.115 231.748 156.446 231.476 156.731C231.204 157.015 230.914 157.249 230.623 157.418L230.578 159.688Z" fill="#DBDFEA"/>
<path d="M230.492 163.906C231.521 163.31 232.545 162.486 233.504 161.481C234.464 160.475 235.341 159.309 236.085 158.047C236.829 156.785 237.426 155.453 237.842 154.127C238.257 152.801 238.483 151.506 238.507 150.318L235.907 151.822C235.891 152.617 235.74 153.482 235.463 154.368C235.185 155.254 234.786 156.144 234.289 156.987C233.792 157.831 233.206 158.61 232.564 159.282C231.923 159.954 231.239 160.505 230.551 160.903L230.492 163.906Z" fill="#DBDFEA"/>
<path d="M221.752 160.014C221.728 161.203 221.908 162.263 222.28 163.133C222.652 164.004 223.209 164.667 223.92 165.087C224.632 165.506 225.482 165.673 226.424 165.578C227.366 165.482 228.38 165.127 229.409 164.531L229.468 161.528C228.781 161.926 228.103 162.164 227.473 162.227C226.844 162.291 226.276 162.18 225.8 161.899C225.325 161.619 224.953 161.176 224.704 160.594C224.455 160.012 224.335 159.304 224.351 158.51L221.752 160.014Z" fill="#DBDFEA"/>
<defs>
<radialGradient id="paint0_radial_3907_23911" cx="0" cy="0" r="1" gradientUnits="userSpaceOnUse" gradientTransform="translate(141.982 115.026) rotate(90) scale(148.5 270.1)">
<stop stop-opacity="0"/>
<stop offset="0.449103" stop-opacity="0"/>
<stop offset="0.654251" stop-opacity="0"/>
<stop offset="1"/>
</radialGradient>
<linearGradient id="paint1_linear_3907_23911" x1="29.9834" y1="154.01" x2="253.983" y2="154.01" gradientUnits="userSpaceOnUse">
<stop stop-color="#C9D1DF"/>
<stop offset="0.504088" stop-color="#CCD2E0"/>
<stop offset="1" stop-color="#E3E6EF"/>
</linearGradient>
<linearGradient id="paint2_linear_3907_23911" x1="29.9825" y1="124.526" x2="252.32" y2="124.526" gradientUnits="userSpaceOnUse">
<stop stop-color="#EAEDF6"/>
<stop offset="1" stop-color="#F5F7FD"/>
</linearGradient>
<linearGradient id="paint3_linear_3907_23911" x1="37.194" y1="124.526" x2="245.668" y2="124.526" gradientUnits="userSpaceOnUse">
<stop stop-color="#C9D0DE"/>
<stop offset="1" stop-color="#E2E5EE"/>
</linearGradient>
<linearGradient id="paint4_linear_3907_23911" x1="58.2109" y1="136.924" x2="224.964" y2="136.924" gradientUnits="userSpaceOnUse">
<stop stop-color="#333D5E"/>
<stop offset="1" stop-color="#333D5E"/>
</linearGradient>
<linearGradient id="paint5_linear_3907_23911" x1="31.9297" y1="88.0313" x2="252.047" y2="88.0313" gradientUnits="userSpaceOnUse">
<stop stop-color="#38406C"/>
<stop offset="1" stop-color="#565E8B"/>
</linearGradient>
<linearGradient id="paint6_linear_3907_23911" x1="29.9825" y1="85.0012" x2="252.32" y2="85.0012" gradientUnits="userSpaceOnUse">
<stop stop-color="#424D74"/>
<stop offset="1" stop-color="#636F97"/>
</linearGradient>
<linearGradient id="paint7_linear_3907_23911" x1="117.768" y1="42.3854" x2="132.819" y2="67.8561" gradientUnits="userSpaceOnUse">
<stop stop-color="#285DDC"/>
<stop offset="1" stop-color="#4075F5"/>
</linearGradient>
<linearGradient id="paint8_linear_3907_23911" x1="103.268" y1="51.6766" x2="133.993" y2="76.4642" gradientUnits="userSpaceOnUse">
<stop stop-color="#333D5E"/>
<stop offset="1" stop-color="#2D5F87"/>
</linearGradient>
<linearGradient id="paint9_linear_3907_23911" x1="151.924" y1="62.5691" x2="166.976" y2="88.0398" gradientUnits="userSpaceOnUse">
<stop stop-color="#285DDC"/>
<stop offset="1" stop-color="#4075F5"/>
</linearGradient>
<linearGradient id="paint10_linear_3907_23911" x1="137.433" y1="71.8638" x2="168.145" y2="96.6505" gradientUnits="userSpaceOnUse">
<stop stop-color="#333D5E"/>
<stop offset="1" stop-color="#2D5F87"/>
</linearGradient>
<linearGradient id="paint11_linear_3907_23911" x1="186.089" y1="82.7538" x2="201.14" y2="108.224" gradientUnits="userSpaceOnUse">
<stop stop-color="#285DDC"/>
<stop offset="1" stop-color="#4075F5"/>
</linearGradient>
<linearGradient id="paint12_linear_3907_23911" x1="171.601" y1="92.0464" x2="202.308" y2="116.837" gradientUnits="userSpaceOnUse">
<stop stop-color="#333D5E"/>
<stop offset="1" stop-color="#2D5F87"/>
</linearGradient>
<linearGradient id="paint13_linear_3907_23911" x1="90.3746" y1="103.156" x2="121.136" y2="120.095" gradientUnits="userSpaceOnUse">
<stop stop-color="#333D5E"/>
<stop offset="1" stop-color="#2D5F87"/>
</linearGradient>
</defs>
</svg>
