<svg width="65" height="57" viewBox="0 0 65 57" fill="none" xmlns="http://www.w3.org/2000/svg">
<g clip-path="url(#clip0_3990_23912)">
<path fill-rule="evenodd" clip-rule="evenodd" d="M-2.19531 46.4497H66.2185V49.9283H-2.19531V46.4497Z" fill="url(#paint0_linear_3990_23912)"/>
<path fill-rule="evenodd" clip-rule="evenodd" d="M65.4148 47.5698C65.4147 47.3677 65.3371 47.1738 65.1992 47.0309C65.0612 46.888 64.8741 46.8076 64.6789 46.8075H-0.365706C-0.560836 46.8076 -0.747945 46.888 -0.885923 47.0309C-1.0239 47.1738 -1.10146 47.3677 -1.10156 47.5698V47.5716C-1.10146 47.7737 -1.0239 47.9676 -0.885923 48.1105C-0.747945 48.2534 -0.560836 48.3338 -0.365706 48.3339H64.6789C64.8741 48.3338 65.0612 48.2534 65.1992 48.1105C65.3371 47.9676 65.4147 47.7737 65.4148 47.5716V47.5698Z" fill="url(#paint1_linear_3990_23912)"/>
<path fill-rule="evenodd" clip-rule="evenodd" d="M34.5662 46.6263C34.5662 45.9063 34.0019 45.3219 33.307 45.3219H30.0717C29.3766 45.3219 28.8125 45.9063 28.8125 46.6263V49.969C28.8125 50.689 29.3766 51.2735 30.0717 51.2735H33.307C34.0019 51.2735 34.5662 50.689 34.5662 49.969V46.6263Z" fill="url(#paint2_linear_3990_23912)"/>
<path fill-rule="evenodd" clip-rule="evenodd" d="M48.1287 46.6263C48.1287 45.9063 47.5644 45.3219 46.8695 45.3219H43.6342C42.9391 45.3219 42.375 45.9063 42.375 46.6263V49.969C42.375 50.689 42.9391 51.2735 43.6342 51.2735H46.8695C47.5644 51.2735 48.1287 50.689 48.1287 49.969V46.6263Z" fill="url(#paint3_linear_3990_23912)"/>
<path fill-rule="evenodd" clip-rule="evenodd" d="M20.8318 46.6263C20.8318 45.9063 20.2675 45.3219 19.5726 45.3219H16.3373C15.6424 45.3219 15.0781 45.9063 15.0781 46.6263V49.969C15.0781 50.689 15.6424 51.2735 16.3373 51.2735H19.5726C20.2675 51.2735 20.8318 50.689 20.8318 49.969V46.6263Z" fill="url(#paint4_linear_3990_23912)"/>
<path fill-rule="evenodd" clip-rule="evenodd" d="M48.8537 29.5675C48.8537 28.9315 48.3553 28.4152 47.7414 28.4152H16.0576C15.4437 28.4152 14.9453 28.9315 14.9453 29.5675V39.0708C14.9453 39.7069 15.4437 40.2232 16.0576 40.2232H47.7414C48.3553 40.2232 48.8537 39.7069 48.8537 39.0708V29.5675Z" fill="url(#paint5_linear_3990_23912)"/>
<path fill-rule="evenodd" clip-rule="evenodd" d="M46.9104 40.2232V30.5073H15.9428C15.7363 30.5073 15.5383 30.4223 15.3923 30.271C15.2462 30.1198 15.1642 29.9146 15.1641 29.7007V29.2218C15.1642 29.0079 15.2462 28.8027 15.3923 28.6515C15.5383 28.5002 15.7363 28.4152 15.9428 28.4152H47.7412C48.3072 28.4152 48.7749 28.8539 48.8446 29.4207L48.8462 29.4352L48.8478 29.4498L48.8492 29.4642L48.8503 29.4788L48.8512 29.4935L48.8521 29.5082L48.8527 29.5229L48.8531 29.5378L48.8534 29.5526L48.8535 29.5675V39.0708C48.8535 39.7069 48.3551 40.2232 47.7412 40.2232H46.9104Z" fill="url(#paint6_linear_3990_23912)"/>
<path d="M19.3448 35.7398C19.8631 35.7398 20.2833 35.3045 20.2833 34.7675C20.2833 34.2305 19.8631 33.7952 19.3448 33.7952C18.8264 33.7952 18.4062 34.2305 18.4062 34.7675C18.4062 35.3045 18.8264 35.7398 19.3448 35.7398Z" fill="#53BA2F"/>
<path fill-rule="evenodd" clip-rule="evenodd" d="M43.9455 34.555C43.9454 34.4328 43.8985 34.3156 43.8151 34.2292C43.7317 34.1428 43.6186 34.0942 43.5006 34.0941H23.4685C23.3505 34.0942 23.2373 34.1427 23.1539 34.2291C23.0704 34.3156 23.0235 34.4328 23.0234 34.555V34.8288C23.0235 34.951 23.0704 35.0682 23.1539 35.1546C23.2373 35.2411 23.3505 35.2896 23.4685 35.2897H43.5006C43.6186 35.2896 43.7317 35.241 43.8151 35.1546C43.8985 35.0682 43.9454 34.951 43.9455 34.8288V34.555Z" fill="white"/>
<path fill-rule="evenodd" clip-rule="evenodd" d="M16.0576 28.4152H16.9648V38.2785H47.9291C48.1356 38.2787 48.3335 38.3637 48.4795 38.5149C48.6255 38.6662 48.7076 38.8713 48.7077 39.0852V39.5678C48.7077 39.595 48.7064 39.6219 48.7039 39.6484C48.6061 39.8232 48.4658 39.9683 48.2969 40.0692C48.1279 40.1701 47.9364 40.2232 47.7414 40.2232H16.0576C15.4437 40.2232 14.9453 39.7069 14.9453 39.0708V29.5675C14.9453 28.9315 15.4437 28.4152 16.0576 28.4152Z" fill="url(#paint7_radial_3990_23912)"/>
<path fill-rule="evenodd" clip-rule="evenodd" d="M48.8537 17.7112C48.8537 17.0752 48.3553 16.5589 47.7414 16.5589H16.0576C15.4437 16.5589 14.9453 17.0752 14.9453 17.7112V27.2146C14.9453 27.8506 15.4437 28.3669 16.0576 28.3669H47.7414C48.3553 28.3669 48.8537 27.8506 48.8537 27.2146V17.7112Z" fill="url(#paint8_linear_3990_23912)"/>
<path fill-rule="evenodd" clip-rule="evenodd" d="M46.9104 28.3669V18.6511H15.9428C15.7363 18.651 15.5383 18.5659 15.3923 18.4147C15.2463 18.2635 15.1642 18.0584 15.1641 17.8444V17.3655C15.1642 17.1516 15.2462 16.9465 15.3923 16.7952C15.5383 16.644 15.7363 16.559 15.9428 16.5589H47.7412C48.3072 16.5589 48.7749 16.9977 48.8446 17.5645L48.8462 17.5789L48.8478 17.5934L48.8492 17.608L48.8503 17.6225L48.8512 17.6373L48.8521 17.652L48.8527 17.6667L48.8531 17.6815L48.8534 17.6962L48.8535 17.7112V27.2146C48.8535 27.8506 48.3551 28.3669 47.7412 28.3669H46.9104Z" fill="url(#paint9_linear_3990_23912)"/>
<path d="M19.3448 23.8835C19.8631 23.8835 20.2833 23.4482 20.2833 22.9112C20.2833 22.3742 19.8631 21.9389 19.3448 21.9389C18.8264 21.9389 18.4062 22.3742 18.4062 22.9112C18.4062 23.4482 18.8264 23.8835 19.3448 23.8835Z" fill="#53BA2F"/>
<path fill-rule="evenodd" clip-rule="evenodd" d="M43.9455 22.6988C43.9454 22.5765 43.8985 22.4593 43.8151 22.3729C43.7317 22.2865 43.6186 22.2379 43.5006 22.2379H23.4685C23.3505 22.2379 23.2373 22.2865 23.1539 22.3729C23.0704 22.4593 23.0235 22.5765 23.0234 22.6988V22.9725C23.0235 23.0947 23.0704 23.2119 23.1539 23.2984C23.2373 23.3848 23.3505 23.4334 23.4685 23.4334H43.5006C43.6186 23.4333 43.7317 23.3847 43.8151 23.2983C43.8985 23.2119 43.9454 23.0947 43.9455 22.9725V22.6988Z" fill="white"/>
<path fill-rule="evenodd" clip-rule="evenodd" d="M16.0576 16.5589H16.9648V26.4223H47.9291C48.1356 26.4224 48.3335 26.5074 48.4795 26.6587C48.6255 26.8099 48.7076 27.015 48.7077 27.2289V27.7115C48.7077 27.7387 48.7064 27.7656 48.7039 27.7921C48.6061 27.9669 48.4658 28.1121 48.2969 28.2129C48.1279 28.3138 47.9364 28.3669 47.7414 28.3669H16.0576C15.4437 28.3669 14.9453 27.8506 14.9453 27.2146V17.7112C14.9453 17.0752 15.4437 16.5589 16.0576 16.5589Z" fill="url(#paint10_radial_3990_23912)"/>
<path fill-rule="evenodd" clip-rule="evenodd" d="M48.8537 5.9821C48.8537 5.34609 48.3553 4.82977 47.7414 4.82977H16.0576C15.4437 4.82977 14.9453 5.34609 14.9453 5.9821V15.4855C14.9453 16.1215 15.4437 16.6378 16.0576 16.6378H47.7414C48.3553 16.6378 48.8537 16.1215 48.8537 15.4855V5.9821Z" fill="url(#paint11_linear_3990_23912)"/>
<path fill-rule="evenodd" clip-rule="evenodd" d="M46.9104 16.6378V6.92194H15.9428C15.7363 6.92187 15.5383 6.83687 15.3923 6.68562C15.2462 6.53437 15.1642 6.32924 15.1641 6.11532V5.63639C15.1642 5.42248 15.2463 5.21738 15.3923 5.06613C15.5383 4.91489 15.7363 4.82988 15.9428 4.82977H47.7412C48.3072 4.82977 48.7749 5.26854 48.8446 5.83536L48.8462 5.84981L48.8478 5.86439L48.8492 5.87884L48.8503 5.89355L48.8512 5.90813L48.8521 5.92285L48.8527 5.93756L48.8531 5.95241L48.8534 5.96725L48.8535 5.9821V15.4855C48.8535 16.1215 48.3551 16.6378 47.7412 16.6378H46.9104Z" fill="url(#paint12_linear_3990_23912)"/>
<path d="M19.3448 12.1544C19.8631 12.1544 20.2833 11.7191 20.2833 11.1821C20.2833 10.6451 19.8631 10.2098 19.3448 10.2098C18.8264 10.2098 18.4062 10.6451 18.4062 11.1821C18.4062 11.7191 18.8264 12.1544 19.3448 12.1544Z" fill="#53BA2F"/>
<path fill-rule="evenodd" clip-rule="evenodd" d="M43.9455 10.9696C43.9454 10.8474 43.8985 10.7302 43.8151 10.6437C43.7317 10.5573 43.6186 10.5087 43.5006 10.5087H23.4685C23.3505 10.5087 23.2373 10.5573 23.1539 10.6437C23.0704 10.7301 23.0235 10.8473 23.0234 10.9696V11.2433C23.0235 11.3655 23.0704 11.4828 23.1539 11.5692C23.2373 11.6556 23.3505 11.7042 23.4685 11.7042H43.5006C43.6186 11.7041 43.7317 11.6556 43.8151 11.5691C43.8985 11.4827 43.9454 11.3655 43.9455 11.2433V10.9696Z" fill="white"/>
<path fill-rule="evenodd" clip-rule="evenodd" d="M16.0576 4.82977H16.9648V14.6932H47.9291C48.1356 14.6933 48.3336 14.7783 48.4795 14.9296C48.6255 15.0809 48.7076 15.286 48.7077 15.4999V15.9824C48.7077 16.0096 48.7064 16.0365 48.7039 16.063C48.6061 16.2378 48.4658 16.3829 48.2969 16.4838C48.1279 16.5847 47.9364 16.6378 47.7414 16.6378H16.0576C15.4437 16.6378 14.9453 16.1215 14.9453 15.4855V5.9821C14.9453 5.34609 15.4437 4.82977 16.0576 4.82977Z" fill="url(#paint13_radial_3990_23912)"/>
</g>
<defs>
<linearGradient id="paint0_linear_3990_23912" x1="-0.796533" y1="48.6988" x2="65.2114" y2="48.6988" gradientUnits="userSpaceOnUse">
<stop stop-color="white" stop-opacity="0"/>
<stop offset="0.15" stop-color="#7AD5FF"/>
<stop offset="0.87" stop-color="#7AD5FF"/>
<stop offset="1" stop-color="white" stop-opacity="0"/>
</linearGradient>
<linearGradient id="paint1_linear_3990_23912" x1="-1.10156" y1="47.5708" x2="65.4148" y2="47.5708" gradientUnits="userSpaceOnUse">
<stop stop-color="white" stop-opacity="0"/>
<stop offset="0.11" stop-color="white" stop-opacity="0.651"/>
<stop offset="0.91" stop-color="white" stop-opacity="0.651"/>
<stop offset="1" stop-color="white" stop-opacity="0"/>
</linearGradient>
<linearGradient id="paint2_linear_3990_23912" x1="31.818" y1="42.4561" x2="31.7194" y2="53.0406" gradientUnits="userSpaceOnUse">
<stop stop-color="#7AD6FF"/>
<stop offset="1" stop-color="#2684FB"/>
</linearGradient>
<linearGradient id="paint3_linear_3990_23912" x1="44.6526" y1="41.8312" x2="44.6526" y2="53.1045" gradientUnits="userSpaceOnUse">
<stop stop-color="#7AD6FF"/>
<stop offset="1" stop-color="#2684FB"/>
</linearGradient>
<linearGradient id="paint4_linear_3990_23912" x1="17.9842" y1="38.7221" x2="17.9842" y2="50.988" gradientUnits="userSpaceOnUse">
<stop stop-color="#7AD6FF"/>
<stop offset="0.25" stop-color="#7AD6FF"/>
<stop offset="0.5" stop-color="#7AD6FF"/>
<stop offset="1" stop-color="#2684FB"/>
</linearGradient>
<linearGradient id="paint5_linear_3990_23912" x1="36.1893" y1="34.9475" x2="34.4092" y2="48.7991" gradientUnits="userSpaceOnUse">
<stop stop-color="#CCE6FF"/>
<stop offset="0.47" stop-color="#9CD1FF"/>
<stop offset="1" stop-color="#1D98FF"/>
</linearGradient>
<linearGradient id="paint6_linear_3990_23912" x1="32.3461" y1="35.2183" x2="37.6844" y2="18.1147" gradientUnits="userSpaceOnUse">
<stop stop-color="#CCE6FF" stop-opacity="0.62"/>
<stop offset="0.18" stop-color="#E2F1FF" stop-opacity="0.62"/>
<stop offset="0.39" stop-color="#F6FBFF" stop-opacity="0.62"/>
<stop offset="1" stop-color="white" stop-opacity="0.62"/>
</linearGradient>
<radialGradient id="paint7_radial_3990_23912" cx="0" cy="0" r="1" gradientUnits="userSpaceOnUse" gradientTransform="translate(25.5366 53.2184) scale(29.3888 30.4466)">
<stop stop-color="#2884FB" stop-opacity="0.639"/>
<stop offset="0.52" stop-color="#4F9AFB" stop-opacity="0.489"/>
<stop offset="1" stop-color="#D0E4FC" stop-opacity="0"/>
</radialGradient>
<linearGradient id="paint8_linear_3990_23912" x1="36.1874" y1="23.0961" x2="34.4074" y2="36.9477" gradientUnits="userSpaceOnUse">
<stop stop-color="#CCE6FF"/>
<stop offset="0.47" stop-color="#9CD1FF"/>
<stop offset="1" stop-color="#1D98FF"/>
</linearGradient>
<linearGradient id="paint9_linear_3990_23912" x1="32.347" y1="23.3582" x2="37.6852" y2="6.25458" gradientUnits="userSpaceOnUse">
<stop stop-color="#CCE6FF" stop-opacity="0.62"/>
<stop offset="0.18" stop-color="#E2F1FF" stop-opacity="0.62"/>
<stop offset="0.39" stop-color="#F6FBFF" stop-opacity="0.62"/>
<stop offset="1" stop-color="white" stop-opacity="0.62"/>
</linearGradient>
<radialGradient id="paint10_radial_3990_23912" cx="0" cy="0" r="1" gradientUnits="userSpaceOnUse" gradientTransform="translate(25.5366 41.3621) scale(29.3888 30.4466)">
<stop stop-color="#2884FB" stop-opacity="0.639"/>
<stop offset="0.52" stop-color="#4F9AFB" stop-opacity="0.489"/>
<stop offset="1" stop-color="#D0E4FC" stop-opacity="0"/>
</radialGradient>
<linearGradient id="paint11_linear_3990_23912" x1="36.1912" y1="11.3628" x2="34.4111" y2="25.2145" gradientUnits="userSpaceOnUse">
<stop stop-color="#CCE6FF"/>
<stop offset="0.47" stop-color="#9CD1FF"/>
<stop offset="1" stop-color="#1D98FF"/>
</linearGradient>
<linearGradient id="paint12_linear_3990_23912" x1="32.3431" y1="11.6352" x2="37.6814" y2="-5.46837" gradientUnits="userSpaceOnUse">
<stop stop-color="#CCE6FF" stop-opacity="0.62"/>
<stop offset="0.18" stop-color="#E2F1FF" stop-opacity="0.62"/>
<stop offset="0.39" stop-color="#F6FBFF" stop-opacity="0.62"/>
<stop offset="1" stop-color="white" stop-opacity="0.62"/>
</linearGradient>
<radialGradient id="paint13_radial_3990_23912" cx="0" cy="0" r="1" gradientUnits="userSpaceOnUse" gradientTransform="translate(25.5366 29.633) scale(29.3888 30.4466)">
<stop stop-color="#2884FB" stop-opacity="0.639"/>
<stop offset="0.52" stop-color="#4F9AFB" stop-opacity="0.489"/>
<stop offset="1" stop-color="#D0E4FC" stop-opacity="0"/>
</radialGradient>
<clipPath id="clip0_3990_23912">
<rect width="65" height="57" fill="white"/>
</clipPath>
</defs>
</svg>
