<svg width="65" height="57" viewBox="0 0 65 57" fill="none" xmlns="http://www.w3.org/2000/svg">
<path fill-rule="evenodd" clip-rule="evenodd" d="M49.553 25.837C49.5529 25.5607 49.4423 25.2958 49.2455 25.1004C49.0487 24.9051 48.7819 24.7953 48.5036 24.7952H18.6119C18.3337 24.7953 18.0668 24.9051 17.87 25.1004C17.6732 25.2958 17.5626 25.5607 17.5625 25.837V34.4285C17.5626 34.7047 17.6732 34.9697 17.87 35.165C18.0668 35.3604 18.3337 35.4702 18.6119 35.4703H48.5036C48.7819 35.4702 49.0487 35.3604 49.2455 35.165C49.4423 34.9697 49.5529 34.7047 49.553 34.4285V25.837V25.837Z" fill="url(#paint0_linear_3990_23914)"/>
<path fill-rule="evenodd" clip-rule="evenodd" d="M47.7164 35.4703V26.6866H18.5003C18.3055 26.6865 18.1187 26.6097 17.9809 26.473C17.8432 26.3362 17.7657 26.1508 17.7656 25.9574V25.5243C17.7657 25.331 17.8432 25.1455 17.9809 25.0088C18.1187 24.8721 18.3055 24.7952 18.5003 24.7952H48.5001C48.7552 24.7953 49.0016 24.8876 49.1932 25.0549C49.3847 25.2222 49.5084 25.453 49.541 25.7042L49.5427 25.7173L49.5441 25.7305L49.5454 25.7436L49.5464 25.7568L49.5474 25.77L49.5481 25.7834L49.5488 25.7967L49.5492 25.8101L49.5494 25.8235L49.5495 25.837V34.4285C49.5494 34.7047 49.4388 34.9697 49.242 35.165C49.0452 35.3604 48.7784 35.4702 48.5001 35.4703H47.7164V35.4703Z" fill="url(#paint1_linear_3990_23914)"/>
<path d="M21.7135 31.417C22.2025 31.417 22.5989 31.0235 22.5989 30.538C22.5989 30.0526 22.2025 29.6591 21.7135 29.6591C21.2245 29.6591 20.8281 30.0526 20.8281 30.538C20.8281 31.0235 21.2245 31.417 21.7135 31.417Z" fill="#53BA2F"/>
<path fill-rule="evenodd" clip-rule="evenodd" d="M44.9183 30.346C44.9182 30.2354 44.874 30.1295 44.7953 30.0513C44.7165 29.9732 44.6098 29.9292 44.4985 29.9291H25.5994C25.4881 29.9292 25.3814 29.9732 25.3027 30.0513C25.224 30.1295 25.1797 30.2355 25.1797 30.346V30.5933C25.1797 30.7038 25.224 30.8098 25.3027 30.8879C25.3814 30.966 25.4881 31.0099 25.5994 31.01H44.4985C44.6098 31.0099 44.7165 30.966 44.7953 30.8879C44.874 30.8098 44.9182 30.7038 44.9183 30.5933V30.346Z" fill="white"/>
<path fill-rule="evenodd" clip-rule="evenodd" d="M18.6119 24.7952H19.4678V33.7122H48.6806C48.8754 33.7123 49.0622 33.7891 49.2 33.9259C49.3377 34.0626 49.4152 34.248 49.4153 34.4414V34.8777C49.4153 34.9023 49.414 34.9266 49.4116 34.9507C49.3194 35.1087 49.187 35.2399 49.0276 35.3311C48.8682 35.4223 48.6875 35.4703 48.5036 35.4703H18.6119C18.3337 35.4702 18.0668 35.3604 17.87 35.165C17.6732 34.9697 17.5626 34.7047 17.5625 34.4285V25.837C17.5626 25.5607 17.6732 25.2958 17.87 25.1004C18.0668 24.9051 18.3337 24.7953 18.6119 24.7952V24.7952Z" fill="url(#paint2_radial_3990_23914)"/>
<path fill-rule="evenodd" clip-rule="evenodd" d="M49.553 15.1182C49.5529 14.842 49.4423 14.577 49.2455 14.3817C49.0487 14.1863 48.7819 14.0765 48.5036 14.0764H18.6119C18.3337 14.0765 18.0668 14.1863 17.87 14.3817C17.6732 14.577 17.5626 14.842 17.5625 15.1182V23.7097C17.5626 23.986 17.6732 24.2509 17.87 24.4463C18.0668 24.6416 18.3337 24.7514 18.6119 24.7515H48.5036C48.7819 24.7514 49.0487 24.6416 49.2455 24.4463C49.4423 24.2509 49.5529 23.986 49.553 23.7097V15.1182Z" fill="url(#paint3_linear_3990_23914)"/>
<path fill-rule="evenodd" clip-rule="evenodd" d="M47.7164 24.7515V15.968H18.5003C18.3055 15.9679 18.1187 15.891 17.9809 15.7543C17.8432 15.6175 17.7657 15.4321 17.7656 15.2387V14.8057C17.7657 14.6123 17.8432 14.4269 17.9809 14.2902C18.1187 14.1534 18.3055 14.0765 18.5003 14.0764H48.5001C48.7553 14.0766 49.0016 14.1689 49.1932 14.3363C49.3847 14.5036 49.5084 14.7344 49.541 14.9857L49.5427 14.9987L49.5441 15.0118L49.5454 15.025L49.5464 15.0382L49.5474 15.0514L49.5481 15.0646L49.5488 15.078L49.5492 15.0914L49.5494 15.1047L49.5495 15.1182V23.7097C49.5494 23.986 49.4388 24.2509 49.242 24.4463C49.0452 24.6416 48.7784 24.7514 48.5001 24.7515H47.7164V24.7515Z" fill="url(#paint4_linear_3990_23914)"/>
<path d="M21.7135 20.6982C22.2025 20.6982 22.5989 20.3047 22.5989 19.8193C22.5989 19.3338 22.2025 18.9403 21.7135 18.9403C21.2245 18.9403 20.8281 19.3338 20.8281 19.8193C20.8281 20.3047 21.2245 20.6982 21.7135 20.6982Z" fill="#53BA2F"/>
<path fill-rule="evenodd" clip-rule="evenodd" d="M44.9183 19.6272C44.9182 19.5167 44.874 19.4107 44.7953 19.3326C44.7165 19.2545 44.6098 19.2106 44.4985 19.2105H25.5994C25.4881 19.2106 25.3814 19.2545 25.3027 19.3326C25.224 19.4107 25.1797 19.5167 25.1797 19.6272V19.8745C25.1797 19.985 25.224 20.091 25.3027 20.1692C25.3814 20.2473 25.4881 20.2913 25.5994 20.2914H44.4985C44.6098 20.2913 44.7165 20.2473 44.7953 20.1692C44.874 20.091 44.9182 19.9851 44.9183 19.8745V19.6272V19.6272Z" fill="white"/>
<path fill-rule="evenodd" clip-rule="evenodd" d="M18.6119 14.0764H19.4678V22.9935H48.6806C48.8754 22.9936 49.0622 23.0705 49.2 23.2072C49.3377 23.344 49.4152 23.5294 49.4153 23.7228V24.159C49.4153 24.1837 49.414 24.208 49.4116 24.2319C49.3194 24.39 49.187 24.5212 49.0276 24.6124C48.8682 24.7036 48.6875 24.7516 48.5036 24.7515H18.6119C18.3337 24.7514 18.0668 24.6416 17.87 24.4463C17.6732 24.2509 17.5626 23.986 17.5625 23.7097V15.1182C17.5627 14.842 17.6733 14.5771 17.8701 14.3817C18.0668 14.1864 18.3337 14.0766 18.6119 14.0764V14.0764Z" fill="url(#paint5_radial_3990_23914)"/>
<path fill-rule="evenodd" clip-rule="evenodd" d="M49.553 4.51454C49.5529 4.23827 49.4423 3.97335 49.2455 3.778C49.0487 3.58264 48.7819 3.47284 48.5036 3.47272H18.6119C18.3337 3.47284 18.0668 3.58264 17.87 3.778C17.6732 3.97335 17.5626 4.23827 17.5625 4.51454V13.106C17.5626 13.3823 17.6732 13.6472 17.87 13.8426C18.0668 14.0379 18.3337 14.1477 18.6119 14.1478H48.5036C48.7819 14.1477 49.0487 14.0379 49.2455 13.8426C49.4423 13.6472 49.5529 13.3823 49.553 13.106V4.51454Z" fill="url(#paint6_linear_3990_23914)"/>
<path fill-rule="evenodd" clip-rule="evenodd" d="M47.7164 14.1478V5.36416H18.5003C18.3055 5.36408 18.1187 5.28724 17.9809 5.15051C17.8432 5.01379 17.7657 4.82837 17.7656 4.63499V4.20189C17.7657 4.00851 17.8432 3.82309 17.9809 3.68637C18.1187 3.54964 18.3055 3.4728 18.5003 3.47272H48.5001C48.7553 3.47284 49.0017 3.5652 49.1932 3.73253C49.3848 3.89986 49.5084 4.13072 49.541 4.38195L49.5427 4.39501L49.5441 4.40807L49.5454 4.42113L49.5464 4.43434L49.5474 4.44771L49.5481 4.46092L49.5488 4.47429L49.5492 4.48766L49.5494 4.50102L49.5495 4.51454V13.106C49.5494 13.3823 49.4388 13.6472 49.242 13.8426C49.0452 14.0379 48.7784 14.1477 48.5001 14.1478H47.7164V14.1478Z" fill="url(#paint7_linear_3990_23914)"/>
<path d="M21.7135 10.0945C22.2025 10.0945 22.5989 9.70102 22.5989 9.21558C22.5989 8.73014 22.2025 8.33661 21.7135 8.33661C21.2245 8.33661 20.8281 8.73014 20.8281 9.21558C20.8281 9.70102 21.2245 10.0945 21.7135 10.0945Z" fill="#53BA2F"/>
<path fill-rule="evenodd" clip-rule="evenodd" d="M44.9183 9.02351C44.9182 8.91299 44.874 8.80702 44.7953 8.72886C44.7165 8.65071 44.6098 8.60677 44.4985 8.60669H25.5994C25.4881 8.60677 25.3814 8.65072 25.3027 8.72887C25.224 8.80703 25.1797 8.913 25.1797 9.02351V9.27087C25.1797 9.38136 25.224 9.48732 25.3027 9.56545C25.3814 9.64359 25.4881 9.6875 25.5994 9.68754H44.4985C44.6098 9.6875 44.7165 9.64359 44.7953 9.56546C44.874 9.48734 44.9182 9.38138 44.9183 9.27087V9.02351Z" fill="white"/>
<path fill-rule="evenodd" clip-rule="evenodd" d="M18.6119 3.47272H19.4678V12.3898H48.6806C48.8754 12.3899 49.0622 12.4668 49.2 12.6035C49.3377 12.7403 49.4152 12.9257 49.4153 13.1191V13.5553C49.4153 13.5798 49.414 13.6043 49.4116 13.6282C49.3194 13.7863 49.187 13.9174 49.0276 14.0086C48.8682 14.0998 48.6875 14.1478 48.5036 14.1478H18.6119C18.3337 14.1477 18.0668 14.0379 17.87 13.8426C17.6732 13.6472 17.5626 13.3823 17.5625 13.106V4.51454C17.5626 4.23827 17.6732 3.97335 17.87 3.778C18.0668 3.58264 18.3337 3.47284 18.6119 3.47272V3.47272Z" fill="url(#paint8_radial_3990_23914)"/>
<path fill-rule="evenodd" clip-rule="evenodd" d="M59.5316 32.3864C59.5316 31.1145 58.4915 30.0818 57.2102 30.0818H39.1417C37.8605 30.0818 36.8203 31.1145 36.8203 32.3864V42.6947C36.8203 43.9665 37.8605 44.9993 39.1417 44.9993H57.2102C58.4915 44.9993 59.5316 43.9665 59.5316 42.6947V32.3864Z" fill="url(#paint9_linear_3990_23914)"/>
<path fill-rule="evenodd" clip-rule="evenodd" d="M57.261 28.3922L57.3125 28.3931L57.3639 28.3948L57.4153 28.3969L57.4662 28.3998L57.5173 28.4034L57.5682 28.4075L57.6186 28.4123L57.6694 28.4178L57.72 28.4238L57.7702 28.4306L57.8201 28.4378L57.8703 28.4458L57.9198 28.4542L57.9692 28.4633L58.0189 28.473L58.0679 28.4834L58.1168 28.4943L58.1656 28.5057L58.2139 28.5178L58.262 28.5304L58.3101 28.5436L58.3579 28.5575L58.4054 28.5719L58.4527 28.5868L58.5 28.6023L58.5466 28.6183L58.5929 28.6349L58.6393 28.652L58.6854 28.6698L58.7311 28.6881L58.7764 28.7067L58.8213 28.726L58.866 28.7457L58.9109 28.7661L58.9549 28.7869L58.9988 28.8082L59.0424 28.8302L59.0853 28.8523L59.1288 28.8753L59.1714 28.8987L59.2135 28.9224L59.2556 28.9468L59.297 28.9714L59.3385 28.9969L59.3795 29.0225L59.4196 29.0485L59.4603 29.0754L59.5005 29.1029L59.5395 29.1299L59.5785 29.1579L59.618 29.1868L59.6567 29.2158L59.6943 29.2448L59.7321 29.2747L59.7692 29.3048L59.8062 29.3353L59.8432 29.3668L59.8796 29.3985L59.915 29.4301L59.9506 29.4627L59.9857 29.4954L60.0198 29.5282L60.0544 29.5621L60.0886 29.5965L60.1213 29.6302L60.1546 29.6652L60.1874 29.7005L60.2191 29.7356L60.2515 29.7723L60.2827 29.8085L60.313 29.8445L60.3438 29.882L60.3742 29.9198L60.4034 29.9573L60.4327 29.9957L60.4615 30.0344L60.4893 30.0727L60.5175 30.1124L60.5447 30.1519L60.5715 30.1917L60.5981 30.2324L60.6237 30.2727L60.6493 30.3139L60.6743 30.3552L60.6987 30.397L60.7227 30.4388L60.7465 30.4818L60.7694 30.524L60.7917 30.5666L60.8139 30.6102L60.8351 30.6531L60.8561 30.697L60.877 30.7421L60.8968 30.7865L60.9162 30.831L60.9352 30.8766L60.9533 30.9214L60.9709 30.9664L60.9883 31.0125L61.005 31.0587L61.0215 31.106L61.037 31.1526L61.0519 31.1991L61.0663 31.246L61.08 31.2929L61.0938 31.3417L61.1065 31.3898L61.1184 31.437L61.13 31.4852L61.1412 31.5347L61.1514 31.5831L61.1611 31.6315L61.1704 31.6811L61.1791 31.7307L61.187 31.7803L61.1944 31.8301L61.2011 31.8799L61.2071 31.9297L61.2125 31.9796L61.2175 32.0305L61.2217 32.0813L61.2251 32.1311L61.2282 32.1821L61.2303 32.233L61.232 32.2838L61.233 32.3356L61.2333 32.3814V42.6996L61.233 42.7454L61.232 42.7973L61.2303 42.8482L61.2282 42.899L61.2251 42.9499L61.2217 42.9997L61.2175 43.0507L61.2125 43.1015L61.2071 43.1513L61.2011 43.2011L61.1944 43.2509L61.187 43.3007L61.1791 43.3503L61.1704 43.3999L61.1611 43.4495L61.1514 43.4979L61.1412 43.5465L61.13 43.5958L61.1184 43.644L61.1065 43.6912L61.0938 43.7393L61.08 43.7883L61.0663 43.8352L61.0519 43.8819L61.037 43.9284L61.0215 43.975L61.005 44.0223L60.9883 44.0685L60.9709 44.1146L60.9533 44.1596L60.9352 44.2045L60.9162 44.25L60.8968 44.2945L60.877 44.3389L60.8561 44.384L60.8351 44.4279L60.8139 44.4709L60.7917 44.5144L60.7694 44.557L60.7465 44.5992L60.7227 44.6422L60.6987 44.6842L60.6743 44.7258L60.6493 44.7673L60.6237 44.8085L60.5981 44.8486L60.5715 44.8894L60.5447 44.9291L60.5175 44.9686L60.4893 45.0085L60.4615 45.0468L60.4327 45.0855L60.4034 45.1237L60.3742 45.1612L60.3438 45.199L60.313 45.2365L60.2827 45.2724L60.2515 45.3089L60.2191 45.3454L60.1874 45.3805L60.1546 45.4158L60.1213 45.451L60.0886 45.4845L60.0544 45.5189L60.0198 45.553L59.9857 45.5856L59.9506 45.6184L59.915 45.6509L59.8796 45.6825L59.8432 45.7142L59.8062 45.7457L59.7694 45.7762L59.7321 45.8063L59.6943 45.8361L59.6567 45.8652L59.618 45.8942L59.5785 45.9233L59.5395 45.9511L59.5005 45.9783L59.4603 46.0056L59.4196 46.0327L59.3795 46.0585L59.3385 46.0843L59.297 46.1096L59.2557 46.1342L59.2135 46.1586L59.1712 46.1825L59.1287 46.2058L59.0853 46.2289L59.0424 46.251L58.9988 46.2728L58.9549 46.2941L58.9109 46.3149L58.866 46.3353L58.8213 46.3551L58.7764 46.3743L58.7311 46.3931L58.6853 46.4114L58.6393 46.429L58.5929 46.4463L58.5466 46.4627L58.5 46.4787L58.4527 46.4943L58.4054 46.5092L58.3579 46.5235L58.3101 46.5374L58.262 46.5507L58.2139 46.5633L58.1656 46.5753L58.1168 46.5868L58.0679 46.5977L58.0189 46.608L57.9692 46.6177L57.9198 46.6269L57.8703 46.6354L57.8201 46.6432L57.7702 46.6506L57.72 46.6572L57.6694 46.6633L57.6186 46.6687L57.5682 46.6735L57.5173 46.6776L57.4662 46.6812L57.4153 46.6841L57.3639 46.6864L57.3125 46.6879L57.261 46.689L57.2149 46.6893H39.1356L39.0895 46.689L39.0379 46.6879L38.9865 46.6864L38.9352 46.6841L38.8842 46.6812L38.8332 46.6776L38.7823 46.6735L38.7318 46.6687L38.681 46.6633L38.6304 46.6572L38.5801 46.6506L38.5302 46.6432L38.4805 46.6354L38.4308 46.6269L38.3813 46.6177L38.3316 46.608L38.2825 46.5977L38.2336 46.5868L38.1849 46.5753L38.1366 46.5633L38.0885 46.5507L38.0403 46.5374L37.9925 46.5235L37.945 46.5092L37.8975 46.4942L37.8506 46.4787L37.8042 46.4628L37.7576 46.4463L37.7112 46.429L37.6652 46.4114L37.6194 46.3931L37.574 46.3743L37.5292 46.3551L37.4844 46.3353L37.4395 46.3149L37.3956 46.2941L37.3516 46.2728L37.308 46.251L37.2651 46.2289L37.2218 46.2058L37.1792 46.1825L37.137 46.1586L37.0947 46.1342L37.0534 46.1096L37.0119 46.0843L36.9709 46.0585L36.9304 46.0323L36.8901 46.0056L36.8504 45.9786L36.8109 45.9511L36.7714 45.9228L36.7324 45.8942L36.6944 45.8656L36.6561 45.8361L36.6184 45.8063L36.5811 45.7762L36.5442 45.7457L36.5073 45.7142L36.4709 45.6825L36.4355 45.6509L36.3999 45.6184L36.3647 45.5856L36.3307 45.553L36.296 45.5189L36.2618 45.4845L36.2292 45.451L36.1957 45.4158L36.1631 45.3805L36.1313 45.3454L36.099 45.3089L36.0677 45.2724L36.0374 45.2365L36.0066 45.199L35.9763 45.1612L35.947 45.1237L35.9178 45.0855L35.889 45.0468L35.8607 45.0077L35.833 44.9686L35.8062 44.9298L35.7789 44.8894L35.7523 44.8486L35.7268 44.8085L35.7011 44.7673L35.6762 44.7258L35.6517 44.6842L35.6277 44.6422L35.6039 44.5992L35.581 44.557L35.5587 44.5144L35.5366 44.4709L35.5149 44.427L35.494 44.383L35.4739 44.3399L35.4541 44.2955L35.4343 44.25L35.4153 44.2045L35.3972 44.1596L35.3795 44.1146L35.3622 44.0685L35.3452 44.0214L35.3291 43.975L35.3137 43.9295L35.2984 43.8819L35.2842 43.8352L35.2701 43.7872L35.2568 43.7393L35.2442 43.6923L35.232 43.644L35.2204 43.5958L35.2093 43.5465L35.1991 43.4979L35.1892 43.4484L35.1799 43.399L35.1717 43.3513L35.1636 43.3016L35.156 43.2509L35.1494 43.2011L35.1433 43.1513L35.1379 43.1015L35.133 43.0507L35.1288 42.9997L35.1252 42.9499L35.1223 42.899L35.1201 42.8482L35.1184 42.7973L35.1175 42.7454L35.1172 42.6996V32.3814L35.1175 32.3356L35.1184 32.2838L35.1201 32.233L35.1223 32.1821L35.1252 32.1311L35.1288 32.0813L35.133 32.0305L35.1379 31.9796L35.1433 31.9297L35.1494 31.8799L35.156 31.8301L35.1636 31.7794L35.1717 31.7298L35.1799 31.6822L35.1892 31.6325L35.1991 31.5831L35.2093 31.5347L35.2204 31.4852L35.232 31.437L35.2442 31.3889L35.2568 31.3417L35.2701 31.2938L35.2842 31.246L35.2984 31.1991L35.3137 31.1517L35.3291 31.106L35.3452 31.0596L35.3622 31.0125L35.3795 30.9664L35.3972 30.9214L35.4153 30.8766L35.4343 30.831L35.4541 30.7855L35.4739 30.7413L35.494 30.698L35.5149 30.654L35.5366 30.6102L35.5587 30.5666L35.581 30.524L35.6039 30.4818L35.6277 30.4388L35.6517 30.397L35.6762 30.3552L35.7011 30.3139L35.7268 30.2727L35.7523 30.2324L35.7789 30.1917L35.8062 30.1512L35.833 30.1124L35.8607 30.0733L35.889 30.0344L35.9178 29.9957L35.947 29.9573L35.9763 29.9198L36.0066 29.882L36.0374 29.8445L36.0677 29.8085L36.099 29.7723L36.1313 29.7356L36.1631 29.7005L36.1957 29.6652L36.2292 29.6302L36.2618 29.5965L36.296 29.5621L36.3307 29.5282L36.3647 29.4954L36.3999 29.4627L36.4355 29.4301L36.4709 29.3985L36.5073 29.3668L36.5442 29.3353L36.5812 29.3048L36.6184 29.2747L36.6561 29.2448L36.6944 29.2155L36.7324 29.1868L36.7714 29.1582L36.8109 29.1299L36.8504 29.1024L36.8901 29.0754L36.9304 29.0488L36.9709 29.0225L37.0119 28.9969L37.0534 28.9714L37.0949 28.9468L37.137 28.9224L37.1791 28.8987L37.2216 28.8753L37.2651 28.8523L37.308 28.8302L37.3516 28.8082L37.3956 28.7869L37.4395 28.7661L37.4844 28.7457L37.5292 28.726L37.574 28.7067L37.6194 28.6881L37.665 28.6698L37.7112 28.652L37.7576 28.6349L37.8042 28.6183L37.8506 28.6023L37.8975 28.5868L37.945 28.5719L37.9925 28.5575L38.0403 28.5436L38.0885 28.5304L38.1366 28.5178L38.1849 28.5057L38.2336 28.4943L38.2825 28.4834L38.3316 28.473L38.3813 28.4633L38.4308 28.4542L38.4805 28.4456L38.5302 28.4378L38.5801 28.4306L38.6304 28.4238L38.681 28.4178L38.7318 28.4123L38.7823 28.4075L38.8332 28.4034L38.8842 28.3998L38.9352 28.3969L38.9865 28.3948L39.0379 28.3931L39.0895 28.3922L39.1356 28.3918H57.2149L57.261 28.3922V28.3922ZM39.141 30.0819L39.111 30.082L39.0811 30.0826L39.0514 30.0836L39.0217 30.0848L38.992 30.0865L38.9626 30.0886L38.9332 30.0909L38.9037 30.0937L38.8747 30.0969L38.8456 30.1003L38.8165 30.1041L38.7877 30.1085L38.7589 30.1129L38.7303 30.1178L38.7018 30.123L38.6735 30.1287L38.6451 30.1346L38.617 30.1409L38.589 30.1475L38.5611 30.1544L38.5334 30.1618L38.5059 30.1693L38.4783 30.1773L38.4511 30.1856L38.4238 30.1942L38.3967 30.2029L38.3698 30.2123L38.3432 30.2218L38.3166 30.2317L38.2901 30.2418L38.2638 30.2523L38.2378 30.263L38.2118 30.2742L38.186 30.2856L38.1604 30.2973L38.1349 30.3093L38.1097 30.3215L38.0846 30.3341L38.0597 30.3471L38.0349 30.3601L38.0103 30.3736L37.9859 30.3873L37.9617 30.4014L37.9376 30.4157L37.9137 30.4303L37.8902 30.4451L37.8667 30.4603L37.8435 30.4756L37.8204 30.4913L37.7975 30.5073L37.7749 30.5234L37.7525 30.5399L37.7302 30.5566L37.7082 30.5737L37.6864 30.5909L37.6647 30.6084L37.6434 30.6261L37.6222 30.644L37.6011 30.6623L37.5805 30.6808L37.5599 30.6995L37.5397 30.7186L37.5197 30.7378L37.4997 30.7571L37.4802 30.7768L37.4609 30.7968L37.4419 30.8169L37.423 30.8372L37.4043 30.8577L37.386 30.8786L37.3679 30.8997L37.3499 30.9209L37.3323 30.9422L37.315 30.9639L37.2978 30.9859L37.2811 31.0079L37.2644 31.0303L37.2481 31.0527L37.232 31.0755L37.2162 31.0983L37.2007 31.1214L37.1854 31.1446L37.1706 31.1681L37.1559 31.1918L37.1415 31.2156L37.1274 31.2397L37.1135 31.264L37.1 31.2882L37.0867 31.3128L37.0737 31.3376L37.061 31.3626L37.0486 31.3876L37.0365 31.413L37.0248 31.4383L37.0133 31.464L37.0022 31.4897L36.9912 31.5156L36.9807 31.5417L36.9705 31.568L36.9606 31.5944L36.951 31.6209L36.9417 31.6476L36.9327 31.6745L36.924 31.7014L36.9157 31.7286L36.9076 31.7558L36.9 31.7833L36.8928 31.8108L36.8857 31.8384L36.879 31.8662L36.8728 31.8942L36.8668 31.9222L36.8612 31.9504L36.8558 31.9787L36.851 32.0071L36.8463 32.0357L36.8422 32.0643L36.8383 32.093L36.8347 32.1219L36.8316 32.1509L36.8287 32.18L36.8264 32.2092L36.8242 32.2385L36.8227 32.2678L36.8213 32.2973L36.8203 32.327L36.8197 32.3566L36.8196 32.3865V42.6947L36.8197 42.7243L36.8203 42.754L36.8213 42.7837L36.8227 42.8132L36.8242 42.8425L36.8264 42.8718L36.8287 42.901L36.8316 42.9301L36.8347 42.9591L36.8383 42.988L36.8422 43.0167L36.8463 43.0455L36.851 43.0739L36.8558 43.1023L36.8612 43.1307L36.8668 43.1588L36.8728 43.187L36.879 43.2148L36.8857 43.2426L36.8928 43.2702L36.9 43.2979L36.9076 43.3252L36.9157 43.3526L36.924 43.3796L36.9327 43.4067L36.9417 43.4334L36.951 43.4601L36.9606 43.4867L36.9705 43.5131L36.9807 43.5392L36.9912 43.5654L37.0022 43.5913L37.0133 43.6171L37.0248 43.6426L37.0365 43.6682L37.0486 43.6934L37.061 43.7185L37.0737 43.7434L37.0867 43.7682L37.1 43.7928L37.1135 43.8172L37.1274 43.8413L37.1415 43.8654L37.1559 43.8892L37.1706 43.9129L37.1854 43.9364L37.2007 43.9598L37.2162 43.9828L37.232 44.0057L37.2481 44.0283L37.2644 44.0509L37.2811 44.0731L37.2978 44.0953L37.315 44.1171L37.3323 44.1387L37.3499 44.1603L37.3679 44.1815L37.386 44.2025L37.4043 44.2232L37.423 44.2438L37.4419 44.2643L37.4609 44.2844L37.4802 44.3042L37.4997 44.3239L37.5197 44.3434L37.5397 44.3626L37.5599 44.3815L37.5805 44.4002L37.6011 44.4187L37.6222 44.437L37.6434 44.4549L37.6647 44.4728L37.6864 44.4901L37.7082 44.5075L37.7302 44.5244L37.7525 44.5411L37.7749 44.5576L37.7975 44.5739L37.8204 44.5897L37.8435 44.6053L37.8667 44.6209L37.8902 44.6359L37.9137 44.6508L37.9376 44.6654L37.9617 44.6797L37.9859 44.6937L38.0103 44.7074L38.0349 44.7209L38.0597 44.7341L38.0846 44.747L38.1097 44.7594L38.1349 44.7717L38.1604 44.7839L38.186 44.7956L38.2118 44.8069L38.2378 44.818L38.2638 44.8287L38.2901 44.8392L38.3166 44.8495L38.3432 44.8593L38.3698 44.8688L38.3967 44.8781L38.4238 44.887L38.4511 44.8956L38.4783 44.9037L38.5059 44.9117L38.5334 44.9194L38.5611 44.9266L38.589 44.9335L38.617 44.9401L38.6451 44.9464L38.6735 44.9524L38.7018 44.9579L38.7303 44.9632L38.7589 44.9681L38.7877 44.9727L38.8165 44.9768L38.8456 44.9807L38.8747 44.9842L38.9037 44.9873L38.9332 44.9901L38.9626 44.9925L38.992 44.9945L39.0217 44.9962L39.0514 44.9976L39.0811 44.9985L39.111 44.999L39.141 44.9993H57.2095L57.2395 44.999L57.2693 44.9985L57.2991 44.9976L57.3288 44.9962L57.3585 44.9945L57.3879 44.9925L57.4173 44.9901L57.4467 44.9873L57.4758 44.9842L57.5049 44.9807L57.534 44.9768L57.5628 44.9727L57.5916 44.9681L57.6202 44.9632L57.6487 44.9579L57.677 44.9524L57.7053 44.9464L57.7335 44.9401L57.7615 44.9335L57.7893 44.9266L57.817 44.9194L57.8446 44.9117L57.8721 44.9037L57.8994 44.8956L57.9266 44.887L57.9537 44.8781L57.9806 44.8688L58.0072 44.8593L58.0339 44.8495L58.0603 44.8392L58.0866 44.8287L58.1126 44.818L58.1386 44.8069L58.1645 44.7956L58.19 44.7839L58.2156 44.7717L58.2408 44.7594L58.2659 44.747L58.2908 44.7341L58.3155 44.7209L58.3401 44.7074L58.3646 44.6937L58.3887 44.6797L58.4129 44.6654L58.4367 44.6508L58.4602 44.6359L58.4838 44.6209L58.507 44.6053L58.53 44.5897L58.5529 44.5739L58.5755 44.5576L58.598 44.5411L58.6203 44.5244L58.6422 44.5075L58.6641 44.4901L58.6857 44.4728L58.7071 44.4549L58.7283 44.437L58.7493 44.4187L58.7699 44.4002L58.7905 44.3815L58.8108 44.3626L58.8307 44.3434L58.8507 44.3239L58.8702 44.3042L58.8895 44.2844L58.9086 44.2643L58.9275 44.2438L58.9462 44.2232L58.9644 44.2025L58.9826 44.1815L59.0005 44.1603L59.0182 44.1387L59.0355 44.1171L59.0527 44.0953L59.0694 44.0731L59.0861 44.0509L59.1023 44.0283L59.1184 44.0057L59.1342 43.9828L59.1497 43.9598L59.165 43.9364L59.1799 43.9129L59.1946 43.8892L59.209 43.8654L59.2231 43.8413L59.237 43.8172L59.2505 43.7928L59.2638 43.7682L59.2768 43.7434L59.2895 43.7185L59.3018 43.6934L59.3139 43.6682L59.3257 43.6426L59.3371 43.6171L59.3483 43.5913L59.3592 43.5654L59.3698 43.5392L59.38 43.5131L59.3899 43.4867L59.3995 43.4601L59.4088 43.4334L59.4177 43.4067L59.4264 43.3796L59.4348 43.3526L59.4428 43.3252L59.4504 43.2979L59.4577 43.2702L59.4648 43.2426L59.4714 43.2148L59.4776 43.187L59.4837 43.1588L59.4893 43.1307L59.4947 43.1023L59.4995 43.0739L59.5041 43.0455L59.5083 43.0167L59.5122 42.988L59.5157 42.9591L59.5188 42.9301L59.5217 42.901L59.5241 42.8718L59.5262 42.8425L59.5278 42.8132L59.5292 42.7837L59.5301 42.754L59.5307 42.7243L59.5309 42.6947V32.3865L59.5307 32.3566L59.5301 32.327L59.5292 32.2973L59.5278 32.2678L59.5262 32.2385L59.5241 32.2092L59.5217 32.18L59.5188 32.1509L59.5157 32.1219L59.5122 32.093L59.5083 32.0643L59.5041 32.0357L59.4995 32.0071L59.4947 31.9787L59.4893 31.9504L59.4837 31.9222L59.4776 31.8942L59.4714 31.8662L59.4648 31.8384L59.4577 31.8108L59.4504 31.7833L59.4428 31.7558L59.4348 31.7286L59.4264 31.7014L59.4177 31.6745L59.4088 31.6476L59.3995 31.6209L59.3899 31.5944L59.38 31.568L59.3698 31.5417L59.3592 31.5156L59.3483 31.4897L59.3371 31.464L59.3257 31.4383L59.3139 31.413L59.3018 31.3876L59.2895 31.3626L59.2768 31.3376L59.2638 31.3128L59.2505 31.2882L59.237 31.264L59.2231 31.2397L59.209 31.2156L59.1946 31.1918L59.1799 31.1681L59.165 31.1446L59.1497 31.1214L59.1342 31.0983L59.1184 31.0755L59.1023 31.0527L59.0861 31.0303L59.0694 31.0079L59.0527 30.9859L59.0355 30.9639L59.0182 30.9422L59.0005 30.9209L58.9826 30.8997L58.9644 30.8786L58.9462 30.8577L58.9275 30.8372L58.9086 30.8169L58.8895 30.7968L58.8702 30.7768L58.8507 30.7571L58.8307 30.7378L58.8108 30.7186L58.7905 30.6995L58.7699 30.6808L58.7493 30.6623L58.7283 30.644L58.7071 30.6261L58.6857 30.6084L58.6641 30.5909L58.6422 30.5737L58.6203 30.5566L58.598 30.5399L58.5755 30.5234L58.5529 30.5073L58.53 30.4913L58.507 30.4756L58.4838 30.4603L58.4602 30.4451L58.4367 30.4303L58.4129 30.4157L58.3887 30.4014L58.3646 30.3873L58.3401 30.3736L58.3155 30.3601L58.2908 30.3471L58.2659 30.3341L58.2408 30.3215L58.2156 30.3093L58.19 30.2973L58.1645 30.2856L58.1386 30.2742L58.1126 30.263L58.0866 30.2523L58.0603 30.2418L58.0339 30.2317L58.0072 30.2218L57.9806 30.2123L57.9537 30.2029L57.9266 30.1942L57.8994 30.1856L57.8721 30.1773L57.8446 30.1693L57.817 30.1618L57.7893 30.1544L57.7615 30.1475L57.7335 30.1409L57.7053 30.1346L57.677 30.1287L57.6487 30.123L57.6202 30.1178L57.5916 30.1129L57.5628 30.1085L57.534 30.1041L57.5049 30.1003L57.4758 30.0969L57.4467 30.0937L57.4173 30.0909L57.3879 30.0886L57.3585 30.0865L57.3288 30.0848L57.2991 30.0836L57.2693 30.0826L57.2395 30.082L57.2095 30.0819H39.141V30.0819Z" fill="white"/>
<path fill-rule="evenodd" clip-rule="evenodd" d="M57.5227 33.241C57.5227 32.3083 56.7599 31.551 55.8204 31.551H40.0975C39.414 31.551 38.8594 32.1018 38.8594 32.7801V41.8352H57.5227V33.241Z" fill="url(#paint10_linear_3990_23914)"/>
<path fill-rule="evenodd" clip-rule="evenodd" d="M49.9068 43.6477C49.9067 43.5185 49.855 43.3945 49.7629 43.3032C49.6709 43.2118 49.5461 43.1604 49.4159 43.1603H47.0412C46.9132 43.1635 46.7914 43.2163 46.702 43.3073C46.6126 43.3984 46.5625 43.5205 46.5625 43.6477C46.5625 43.7749 46.6126 43.897 46.702 43.988C46.7914 44.0791 46.9132 44.1318 47.0412 44.135H49.4159C49.5461 44.1349 49.6709 44.0836 49.7629 43.9922C49.855 43.9008 49.9067 43.7769 49.9068 43.6477V43.6477Z" fill="#E5F1FF"/>
<path fill-rule="evenodd" clip-rule="evenodd" d="M45.7307 44.9453H50.5569V47.5578C50.5569 47.5578 50.5483 48.3562 51.8658 48.9456C51.2593 49.0823 47.285 48.9456 47.285 48.9456V48.9255C47.2375 48.9284 45.022 49.0602 44.4219 48.9255C45.7394 48.3392 45.7307 47.5446 45.7307 47.5446V44.9453V44.9453Z" fill="url(#paint11_linear_3990_23914)"/>
<path fill-rule="evenodd" clip-rule="evenodd" d="M51.9512 49.2878C51.9512 49.1258 51.8864 48.9705 51.771 48.856C51.6557 48.7414 51.4992 48.677 51.336 48.6769H44.9591C44.7959 48.677 44.6394 48.7414 44.524 48.8559C44.4086 48.9705 44.3438 49.1258 44.3438 49.2878V49.2904C44.3438 49.4524 44.4087 49.6077 44.5241 49.7223C44.6394 49.8368 44.7959 49.9012 44.9591 49.9013H51.336C51.4992 49.9012 51.6556 49.8368 51.771 49.7222C51.8863 49.6077 51.9511 49.4524 51.9512 49.2904V49.2878Z" fill="#CCE6FF"/>
<path fill-rule="evenodd" clip-rule="evenodd" d="M28.4802 33.2268C28.4802 31.9548 27.44 30.9222 26.1588 30.9222H8.08705C6.80578 30.9222 5.76562 31.9548 5.76562 33.2268V43.5346C5.76562 44.8066 6.80578 45.8392 8.08705 45.8392H26.1588C27.44 45.8392 28.4802 44.8066 28.4802 43.5346V33.2268V33.2268Z" fill="#CCE6FF" fill-opacity="0.259"/>
<path fill-rule="evenodd" clip-rule="evenodd" d="M27.8005 32.386C27.8005 31.114 26.7603 30.0814 25.4791 30.0814H7.40737C6.12625 30.0814 5.08594 31.114 5.08594 32.386V42.6938C5.08594 43.9658 6.12625 44.9984 7.40737 44.9984H25.4791C26.7603 44.9984 27.8005 43.9658 27.8005 42.6938V32.386Z" fill="url(#paint12_linear_3990_23914)"/>
<path fill-rule="evenodd" clip-rule="evenodd" d="M25.538 28.3917L25.5894 28.3926L25.6406 28.3943L25.6918 28.3966L25.743 28.3993L25.7941 28.4029L25.845 28.4072L25.8955 28.4119L25.9461 28.4173L25.9967 28.4235L26.047 28.4301L26.097 28.4373L26.1468 28.4453L26.1966 28.4537L26.2462 28.4628L26.2955 28.4726L26.3446 28.4829L26.3935 28.4938L26.4423 28.5054L26.4905 28.5173L26.539 28.5301L26.587 28.5433L26.6346 28.557L26.6821 28.5714L26.7293 28.5863L26.7765 28.6018L26.8233 28.6178L26.8696 28.6344L26.9163 28.6516L26.9619 28.6693L27.0076 28.6874L27.0531 28.7063L27.0981 28.7255L27.1432 28.7455L27.1874 28.7656L27.2314 28.7864L27.2755 28.8077L27.3191 28.8297L27.3625 28.8521L27.4053 28.8749L27.4479 28.8981L27.4906 28.9222L27.5322 28.9463L27.5736 28.9709L27.615 28.9962L27.6562 29.022L27.6968 29.0483L27.737 29.0749L27.7768 29.1019L27.8167 29.1297L27.8555 29.1576L27.8942 29.1858L27.9328 29.215L27.9715 29.2447L28.0092 29.2746L28.0461 29.3044L28.0829 29.3349L28.1197 29.3662L28.1562 29.398L28.1917 29.4296L28.2273 29.4621L28.2624 29.4949L28.2969 29.5281L28.3311 29.5616L28.3649 29.5954L28.3984 29.6301L28.4319 29.6652L28.4641 29.7001L28.4958 29.7351L28.5281 29.7716L28.5594 29.8079L28.5902 29.8446L28.6205 29.8815L28.6502 29.9187L28.6806 29.9574L28.7094 29.9952L28.7377 30.0331L28.7665 30.0728L28.7942 30.112L28.8214 30.1514L28.8486 30.192L28.8748 30.2318L28.9003 30.272L28.926 30.3132L28.9509 30.3547L28.9756 30.3963L28.9999 30.4391L29.0232 30.4813L29.0457 30.5228L29.0684 30.5661L29.0905 30.6096L29.1122 30.6535L29.1331 30.6975L29.1537 30.7416L29.1735 30.786L29.1928 30.8305L29.2116 30.8751L29.2301 30.9209L29.2479 30.9668L29.265 31.012L29.2817 31.0582L29.2982 31.1055L29.3137 31.1521L29.3287 31.1986L29.343 31.2455L29.3567 31.2924L29.3705 31.3412L29.3832 31.3893L29.3951 31.4365L29.4067 31.4847L29.4179 31.5342L29.4284 31.5835L29.4381 31.6321L29.4471 31.6806L29.4558 31.7302L29.4635 31.7789L29.4709 31.8287L29.4778 31.8794L29.4838 31.9292L29.4894 31.9801L29.4942 32.03L29.4983 32.0798L29.5019 32.1308L29.5048 32.1816L29.5072 32.2334L29.5087 32.2843L29.5096 32.3342L29.5101 32.38V42.6997L29.5096 42.7455L29.5087 42.7955L29.5072 42.8463L29.5048 42.8981L29.5019 42.9491L29.4983 43L29.4942 43.0497L29.4894 43.0997L29.4838 43.1505L29.4778 43.2003L29.4709 43.2511L29.4635 43.3008L29.4558 43.3495L29.4471 43.3991L29.4381 43.4477L29.4284 43.4962L29.4179 43.5457L29.4067 43.595L29.3951 43.6432L29.3832 43.6904L29.3705 43.7385L29.3567 43.7875L29.343 43.8344L29.3287 43.8811L29.3137 43.9278L29.2982 43.9742L29.2817 44.0215L29.265 44.0677L29.2479 44.1129L29.2301 44.1588L29.2116 44.2046L29.1928 44.2493L29.1735 44.2937L29.1537 44.3381L29.1331 44.3824L29.1122 44.4263L29.0905 44.47L29.0684 44.5136L29.0457 44.5571L29.0232 44.5986L28.9999 44.6407L28.9756 44.6834L28.9511 44.725L28.926 44.7665L28.9003 44.8077L28.8748 44.8479L28.8486 44.8879L28.8214 44.9283L28.7942 44.9678L28.7665 45.0069L28.7377 45.0466L28.7094 45.0847L28.6807 45.1223L28.6502 45.1612L28.6205 45.1984L28.5902 45.2351L28.5594 45.2717L28.5281 45.3081L28.4958 45.3446L28.4641 45.3798L28.4319 45.4145L28.3986 45.4496L28.3649 45.4843L28.3311 45.5181L28.2969 45.5516L28.2624 45.5848L28.2273 45.6176L28.1917 45.6501L28.1562 45.6817L28.1199 45.7134L28.0829 45.7449L28.0459 45.7754L28.0092 45.8051L27.9715 45.835L27.9328 45.8649L27.8942 45.8937L27.8555 45.9222L27.8165 45.95L27.7769 45.9778L27.737 46.0048L27.6968 46.0316L27.6562 46.0577L27.615 46.0835L27.5736 46.1088L27.5322 46.1334L27.4905 46.1577L27.4481 46.1817L27.4053 46.2049L27.3625 46.2277L27.3193 46.25L27.2755 46.272L27.2314 46.2933L27.1874 46.3141L27.1432 46.3344L27.0981 46.3542L27.0529 46.3735L27.0076 46.3923L26.9619 46.4104L26.9163 46.4281L26.8696 46.4453L26.8231 46.4619L26.7765 46.4779L26.7293 46.4934L26.6821 46.5083L26.6346 46.5227L26.587 46.5364L26.539 46.5498L26.4905 46.5624L26.4424 46.5745L26.3935 46.586L26.3446 46.5969L26.2955 46.6072L26.2462 46.6169L26.1966 46.626L26.1468 46.6346L26.097 46.6424L26.047 46.6496L25.9967 46.6564L25.9461 46.6624L25.8956 46.6678L25.845 46.6727L25.794 46.6768L25.743 46.6804L25.692 46.6833L25.6407 46.6854L25.5892 46.6871L25.5378 46.688L25.4917 46.6884H7.40902L7.3629 46.688L7.31152 46.6871L7.25998 46.6854L7.20876 46.6833L7.15784 46.6804L7.10677 46.6768L7.0557 46.6727L7.00509 46.6678L6.95433 46.6624L6.90403 46.6564L6.85389 46.6496L6.80374 46.6424L6.75376 46.6344L6.70408 46.626L6.65455 46.6169L6.60518 46.6072L6.55612 46.5969L6.50707 46.5859L6.45863 46.5745L6.41003 46.5624L6.36174 46.5498L6.31392 46.5366L6.2661 46.5227L6.21812 46.5083L6.17108 46.4934L6.12449 46.478L6.07745 46.4619L6.03086 46.4453L5.98474 46.4281L5.93878 46.4104L5.89312 46.3923L5.84762 46.3735L5.80259 46.3542L5.75786 46.3345L5.71314 46.3141L5.66887 46.2932L5.62523 46.272L5.58143 46.25L5.53826 46.2277L5.49539 46.2049L5.45267 46.1817L5.41058 46.1578L5.36848 46.1334L5.32701 46.1088L5.28553 46.0835L5.24452 46.0577L5.20397 46.0316L5.16358 46.0048L5.1238 45.9778L5.08403 45.95L5.04503 45.9222L5.00587 45.8934L4.96734 45.8644L4.92973 45.8354L4.89197 45.8055L4.85467 45.7754L4.81737 45.7444L4.78039 45.7129L4.7451 45.6822L4.70904 45.6501L4.67345 45.6176L4.63832 45.5848L4.6038 45.5516L4.5696 45.5181L4.5354 45.4837L4.50274 45.4502L4.46947 45.4151L4.43666 45.3798L4.40432 45.344L4.37259 45.3081L4.34117 45.2717L4.31053 45.2351L4.2802 45.1984L4.24986 45.1604L4.22061 45.1229L4.19136 45.0847L4.16258 45.046L4.13426 45.0069L4.10655 44.9678L4.07932 44.9283L4.05254 44.8885L4.02592 44.8479L3.99992 44.8069L3.9747 44.7665L3.94962 44.725L3.92517 44.6834L3.90134 44.6414L3.87782 44.5993L3.8546 44.5562L3.83185 44.5128L3.81018 44.47L3.78898 44.4273L3.76793 44.3832L3.74704 44.3381L3.72723 44.2937L3.70789 44.2493L3.6887 44.2037L3.67059 44.1588L3.6531 44.1138L3.6353 44.0668L3.61859 44.0206L3.6028 43.9751L3.58733 43.9287L3.57201 43.8811L3.5573 43.8333L3.54368 43.7864L3.53053 43.7394L3.51768 43.6915L3.5053 43.6423L3.4937 43.5939L3.48286 43.5457L3.47249 43.4971L3.46274 43.4487L3.45346 43.3991L3.44495 43.3495L3.4369 43.2999L3.42962 43.2501L3.42297 43.2003L3.41678 43.1505L3.41136 43.1006L3.40657 43.0497L3.40239 42.9989L3.39883 42.9491L3.39589 42.8981L3.39357 42.8472L3.39202 42.7964L3.39093 42.7446L3.39062 42.6988V32.3811L3.39093 32.3351L3.39202 32.2833L3.39357 32.2325L3.39589 32.1816L3.39883 32.1308L3.40239 32.0808L3.40657 32.03L3.41136 31.9791L3.41678 31.9292L3.42297 31.8794L3.42962 31.8296L3.4369 31.78L3.44495 31.7302L3.45346 31.6806L3.46274 31.631L3.47249 31.5826L3.48286 31.5342L3.4937 31.4858L3.5053 31.4376L3.51768 31.3884L3.53053 31.3403L3.54368 31.2933L3.5573 31.2464L3.57201 31.1986L3.58733 31.151L3.6028 31.1046L3.61859 31.0591L3.6353 31.0129L3.6531 30.9659L3.67059 30.9209L3.6887 30.876L3.70789 30.8305L3.72723 30.786L3.74704 30.7416L3.76793 30.6966L3.78898 30.6526L3.81018 30.6096L3.83185 30.5669L3.8546 30.5236L3.87782 30.4804L3.90134 30.4383L3.92517 30.3963L3.94962 30.3547L3.9747 30.3132L3.99977 30.2728L4.02592 30.2318L4.05254 30.1912L4.07932 30.1514L4.10655 30.112L4.13426 30.0728L4.16258 30.0338L4.19121 29.9952L4.22061 29.9568L4.24986 29.9193L4.2802 29.8815L4.31053 29.8446L4.34133 29.8079L4.37259 29.7716L4.40432 29.7357L4.43666 29.7001L4.46947 29.6646L4.50274 29.6295L4.5354 29.596L4.56945 29.5616L4.6038 29.5281L4.63832 29.4949L4.67345 29.4621L4.70904 29.4296L4.74495 29.3975L4.78039 29.3667L4.81737 29.3353L4.85467 29.3044L4.89197 29.2742L4.92973 29.2444L4.96734 29.2153L5.00603 29.1863L5.04503 29.1576L5.08403 29.1297L5.12396 29.1019L5.16373 29.0749L5.20382 29.0483L5.24452 29.022L5.28553 28.9962L5.32701 28.9709L5.36848 28.9463L5.41058 28.9219L5.45283 28.8981L5.49539 28.8749L5.53826 28.8521L5.58159 28.8297L5.62523 28.8077L5.66887 28.7865L5.71314 28.7656L5.75786 28.7452L5.80259 28.7255L5.84762 28.7063L5.89312 28.6874L5.93878 28.6693L5.9849 28.6515L6.03086 28.6346L6.07745 28.6178L6.12449 28.6017L6.17108 28.5863L6.21812 28.5714L6.2661 28.557L6.31392 28.5432L6.36174 28.5301L6.41003 28.5173L6.45878 28.5052L6.50707 28.4938L6.55597 28.4829L6.60518 28.4726L6.65455 28.4628L6.70408 28.4537L6.75376 28.4453L6.80374 28.4373L6.85389 28.4301L6.90403 28.4235L6.95433 28.4173L7.00524 28.4119L7.0557 28.4072L7.10661 28.4029L7.15784 28.3993L7.20891 28.3966L7.26014 28.3943L7.31136 28.3926L7.36274 28.3917L7.40902 28.3914H25.4917L25.538 28.3917V28.3917ZM7.41443 30.0814L7.38457 30.0815L7.35454 30.0822L7.32483 30.0831L7.29511 30.0845L7.26555 30.0861L7.23599 30.0881L7.20659 30.0906L7.17734 30.0934L7.14809 30.0964L7.11899 30.1L7.09005 30.1038L7.06111 30.108L7.03233 30.1126L7.0037 30.1175L6.97522 30.1227L6.9469 30.1282L6.91858 30.1342L6.89041 30.1404L6.86255 30.147L6.83454 30.1541L6.80684 30.1613L6.77929 30.169L6.75174 30.1768L6.72451 30.1851L6.69727 30.1937L6.67034 30.2026L6.64341 30.2118L6.61664 30.2213L6.59002 30.2312L6.56355 30.2413L6.5374 30.2518L6.51124 30.2627L6.48524 30.2737L6.45955 30.2851L6.43386 30.2968L6.40848 30.3088L6.3831 30.3211L6.35803 30.3337L6.33311 30.3466L6.30835 30.3598L6.28374 30.3731L6.25929 30.387L6.23515 30.401L6.21116 30.4152L6.18733 30.4298L6.16365 30.4447L6.14012 30.4598L6.11691 30.4752L6.09385 30.4908L6.07095 30.5068L6.04835 30.5231L6.02591 30.5395L6.00362 30.5563L5.98165 30.5732L5.95983 30.5904L5.93816 30.6079L5.9168 30.6257L5.8956 30.6437L5.87471 30.6618L5.85397 30.6804L5.83339 30.6992L5.81311 30.7181L5.79315 30.7373L5.77334 30.7568L5.75368 30.7764L5.73434 30.7963L5.7153 30.8164L5.69642 30.8368L5.67785 30.8574L5.65943 30.8782L5.64133 30.8992L5.62337 30.9204L5.60589 30.9419L5.5884 30.9636L5.57137 30.9854L5.55451 31.0075L5.53795 31.0298L5.52154 31.0522L5.5056 31.075L5.48982 31.0979L5.47418 31.1209L5.45902 31.1443L5.44401 31.1676L5.4293 31.1914L5.41491 31.2152L5.40083 31.2392L5.3869 31.2635L5.37343 31.2879L5.36012 31.3125L5.34712 31.3372L5.33443 31.3621L5.32205 31.3872L5.30998 31.4125L5.29822 31.4379L5.28677 31.4635L5.27562 31.4893L5.26479 31.5151L5.25411 31.5413L5.2439 31.5675L5.23399 31.594L5.2244 31.6205L5.21511 31.6471L5.20614 31.674L5.19747 31.701L5.18911 31.7281L5.18122 31.7554L5.17348 31.7828L5.16621 31.8103L5.15924 31.8379L5.15259 31.8657L5.14624 31.8937L5.14021 31.9218L5.13464 31.9499L5.12937 31.9782L5.12442 32.0066L5.11978 32.0352L5.1156 32.0639L5.11173 32.0927L5.10817 32.1216L5.10508 32.1504L5.10229 32.1796L5.09982 32.2088L5.0978 32.238L5.0961 32.2675L5.09471 32.297L5.09378 32.3265L5.09332 32.3562L5.09301 32.386V42.6937L5.09332 42.7236L5.09378 42.7532L5.09471 42.7829L5.0961 42.8124L5.0978 42.8417L5.09982 42.871L5.10229 42.9002L5.10508 42.9293L5.10817 42.9583L5.11173 42.987L5.1156 43.0159L5.11978 43.0445L5.12442 43.0731L5.12937 43.1015L5.13464 43.1298L5.14021 43.158L5.14624 43.186L5.15259 43.214L5.15924 43.2418L5.16621 43.2694L5.17348 43.2969L5.18122 43.3244L5.18911 43.3516L5.19747 43.3788L5.20614 43.4057L5.21511 43.4326L5.2244 43.4593L5.23399 43.4858L5.2439 43.5122L5.25411 43.5385L5.26479 43.5646L5.27562 43.5904L5.28677 43.6162L5.29822 43.6419L5.30998 43.6672L5.32205 43.6926L5.33443 43.7176L5.34712 43.7425L5.36012 43.7674L5.37343 43.792L5.3869 43.8162L5.40083 43.8405L5.41491 43.8645L5.4293 43.8884L5.44401 43.9121L5.45902 43.9356L5.47418 43.9588L5.48982 43.9819L5.5056 44.0047L5.52154 44.0275L5.53795 44.0499L5.55451 44.0722L5.57137 44.0943L5.5884 44.1163L5.60589 44.138L5.62337 44.1593L5.64133 44.1805L5.65943 44.2016L5.67785 44.2225L5.69642 44.243L5.7153 44.2633L5.73434 44.2834L5.75368 44.3034L5.77334 44.3231L5.79315 44.3424L5.81311 44.3616L5.83339 44.3807L5.85397 44.3993L5.87471 44.4179L5.8956 44.436L5.9168 44.4541L5.93816 44.4718L5.95983 44.4893L5.98165 44.5065L6.00362 44.5236L6.02591 44.5403L6.04835 44.5568L6.07095 44.5729L6.09385 44.5889L6.11691 44.6046L6.14012 44.6199L6.16365 44.6351L6.18733 44.6499L6.21116 44.6645L6.23515 44.6788L6.25929 44.6929L6.28374 44.7066L6.30835 44.7201L6.33311 44.7331L6.35803 44.7461L6.3831 44.7587L6.40848 44.7709L6.43386 44.7829L6.45955 44.7946L6.48524 44.806L6.51124 44.8172L6.5374 44.8279L6.56355 44.8384L6.59002 44.8485L6.61664 44.8584L6.64341 44.8679L6.67034 44.8771L6.69727 44.886L6.72451 44.8946L6.75174 44.9029L6.77929 44.9109L6.80684 44.9184L6.83454 44.9258L6.86255 44.9327L6.89041 44.9393L6.91858 44.9456L6.9469 44.9515L6.97522 44.9572L7.0037 44.9624L7.03233 44.9673L7.06111 44.9718L7.09005 44.9759L7.11899 44.9799L7.14809 44.9833L7.17734 44.9865L7.20659 44.9893L7.23599 44.9916L7.26555 44.9937L7.29511 44.9954L7.32483 44.9966L7.35454 44.9976L7.38457 44.9982L7.41443 44.9983H25.4861L25.5162 44.9982L25.546 44.9976L25.5759 44.9966L25.6056 44.9954L25.6352 44.9937L25.6647 44.9916L25.6941 44.9893L25.7234 44.9865L25.7526 44.9833L25.7817 44.9799L25.8107 44.9759L25.8396 44.9718L25.8682 44.9673L25.8969 44.9624L25.9253 44.9572L25.9538 44.9515L25.9821 44.9456L26.0102 44.9393L26.0382 44.9327L26.066 44.9258L26.0939 44.9184L26.1214 44.9109L26.1488 44.9029L26.1762 44.8946L26.2035 44.886L26.2304 44.8771L26.2573 44.8679L26.2841 44.8584L26.3107 44.8485L26.337 44.8384L26.3633 44.8279L26.3895 44.8172L26.4155 44.806L26.4412 44.7946L26.4669 44.7829L26.4922 44.7709L26.5176 44.7587L26.5427 44.7461L26.5676 44.7331L26.5924 44.7201L26.617 44.7066L26.6413 44.6929L26.6656 44.6788L26.6896 44.6645L26.7134 44.6499L26.7371 44.6351L26.7604 44.6199L26.7838 44.6046L26.8069 44.5889L26.8296 44.5729L26.8524 44.5568L26.8748 44.5403L26.8971 44.5236L26.9191 44.5065L26.9409 44.4893L26.9626 44.4718L26.9839 44.4541L27.0051 44.436L27.026 44.4179L27.0468 44.3993L27.0672 44.3807L27.0875 44.3616L27.1076 44.3424L27.1274 44.3231L27.147 44.3034L27.1662 44.2834L27.1854 44.2633L27.2043 44.243L27.2229 44.2225L27.2413 44.2016L27.2594 44.1805L27.2772 44.1593L27.2948 44.138L27.3122 44.1163L27.3293 44.0943L27.3462 44.0722L27.3628 44.0499L27.3792 44.0275L27.3951 44.0047L27.4109 43.9819L27.4264 43.9588L27.4417 43.9356L27.4567 43.9121L27.4714 43.8884L27.4858 43.8645L27.4999 43.8405L27.5137 43.8162L27.5273 43.792L27.5406 43.7674L27.5534 43.7425L27.5661 43.7176L27.5785 43.6926L27.5906 43.6672L27.6025 43.6419L27.614 43.6162L27.6251 43.5904L27.6359 43.5646L27.6465 43.5385L27.6568 43.5122L27.6667 43.4858L27.6763 43.4593L27.6856 43.4326L27.6946 43.4057L27.7033 43.3788L27.7115 43.3516L27.7195 43.3244L27.7272 43.2969L27.7345 43.2694L27.7415 43.2418L27.7481 43.214L27.7545 43.186L27.7604 43.158L27.7661 43.1298L27.7714 43.1015L27.7763 43.0731L27.7809 43.0445L27.7851 43.0159L27.789 42.987L27.7926 42.9583L27.7956 42.9293L27.7984 42.9002L27.8009 42.871L27.8029 42.8417L27.8046 42.8124L27.8059 42.7829L27.8069 42.7532L27.8074 42.7236L27.8076 42.6937V32.386L27.8074 32.3562L27.8069 32.3265L27.8059 32.297L27.8046 32.2675L27.8029 32.238L27.8009 32.2088L27.7984 32.1796L27.7956 32.1504L27.7926 32.1216L27.789 32.0927L27.7851 32.0639L27.7809 32.0352L27.7763 32.0066L27.7714 31.9782L27.7661 31.9499L27.7604 31.9218L27.7545 31.8937L27.7481 31.8657L27.7415 31.8379L27.7345 31.8103L27.7272 31.7828L27.7195 31.7554L27.7115 31.7281L27.7033 31.701L27.6946 31.674L27.6856 31.6471L27.6763 31.6205L27.6667 31.594L27.6568 31.5675L27.6465 31.5413L27.6359 31.5151L27.6251 31.4893L27.614 31.4635L27.6025 31.4379L27.5906 31.4125L27.5785 31.3872L27.5661 31.3621L27.5534 31.3372L27.5406 31.3125L27.5273 31.2879L27.5137 31.2635L27.4999 31.2392L27.4858 31.2152L27.4714 31.1914L27.4567 31.1676L27.4417 31.1443L27.4264 31.1209L27.4109 31.0979L27.3951 31.075L27.3792 31.0522L27.3628 31.0298L27.3462 31.0075L27.3293 30.9854L27.3122 30.9636L27.2948 30.9419L27.2772 30.9204L27.2594 30.8992L27.2413 30.8782L27.2229 30.8574L27.2043 30.8368L27.1854 30.8164L27.1662 30.7963L27.147 30.7764L27.1274 30.7568L27.1076 30.7373L27.0875 30.7181L27.0672 30.6992L27.0468 30.6804L27.026 30.6618L27.0051 30.6437L26.9839 30.6257L26.9626 30.6079L26.9409 30.5904L26.9191 30.5732L26.8971 30.5563L26.8748 30.5395L26.8524 30.5231L26.8296 30.5068L26.8069 30.4908L26.7838 30.4752L26.7604 30.4598L26.7371 30.4447L26.7134 30.4298L26.6896 30.4152L26.6656 30.401L26.6413 30.387L26.617 30.3731L26.5924 30.3598L26.5676 30.3466L26.5427 30.3337L26.5176 30.3211L26.4922 30.3088L26.4669 30.2968L26.4412 30.2851L26.4155 30.2737L26.3895 30.2627L26.3633 30.2518L26.337 30.2413L26.3107 30.2312L26.2841 30.2213L26.2573 30.2118L26.2304 30.2026L26.2035 30.1937L26.1762 30.1851L26.1488 30.1768L26.1214 30.169L26.0939 30.1613L26.066 30.1541L26.0382 30.147L26.0102 30.1404L25.9821 30.1342L25.9538 30.1282L25.9253 30.1227L25.8969 30.1175L25.8682 30.1126L25.8396 30.108L25.8107 30.1038L25.7817 30.1L25.7526 30.0964L25.7234 30.0934L25.6941 30.0906L25.6647 30.0881L25.6352 30.0861L25.6056 30.0845L25.5759 30.0831L25.546 30.0822L25.5162 30.0815L25.4861 30.0814H7.41443V30.0814Z" fill="white"/>
<path fill-rule="evenodd" clip-rule="evenodd" d="M25.8012 33.243C25.8012 32.3101 25.0384 31.553 24.0988 31.553H8.37872C7.69545 31.553 7.14062 32.1036 7.14062 32.7821V41.8334H25.8012V33.243V33.243Z" fill="url(#paint13_linear_3990_23914)"/>
<path fill-rule="evenodd" clip-rule="evenodd" d="M18.1754 43.6459C18.1753 43.5165 18.1235 43.3925 18.0313 43.301C17.9392 43.2095 17.8142 43.1581 17.6839 43.1581H15.3117C15.1814 43.1582 15.0565 43.2096 14.9643 43.301C14.8722 43.3925 14.8204 43.5165 14.8203 43.6459C14.8204 43.7752 14.8721 43.8993 14.9643 43.9908C15.0564 44.0822 15.1814 44.1336 15.3117 44.1337H17.6839C17.8142 44.1337 17.9392 44.0823 18.0314 43.9908C18.1236 43.8993 18.1754 43.7753 18.1754 43.6459Z" fill="#E5F1FF"/>
<path fill-rule="evenodd" clip-rule="evenodd" d="M14.0041 44.9453H18.8304V47.5578C18.8304 47.5578 18.8217 48.3562 20.1392 48.9456C19.5327 49.0823 15.5584 48.9456 15.5584 48.9456V48.9255C15.5109 48.9284 13.2955 49.0602 12.6953 48.9255C14.0128 48.3392 14.0041 47.5446 14.0041 47.5446V44.9453V44.9453Z" fill="url(#paint14_linear_3990_23914)"/>
<path fill-rule="evenodd" clip-rule="evenodd" d="M20.2251 49.2898C20.225 49.1278 20.1601 48.9725 20.0447 48.858C19.9293 48.7435 19.7729 48.6792 19.6098 48.6791H13.2314C13.0711 48.6834 12.9189 48.7497 12.8071 48.8638C12.6954 48.9779 12.6328 49.1307 12.6328 49.2899C12.6328 49.449 12.6954 49.6019 12.8071 49.716C12.9189 49.83 13.0711 49.8963 13.2314 49.9007H19.6098C19.7729 49.9006 19.9294 49.8362 20.0448 49.7216C20.1601 49.6071 20.225 49.4518 20.2251 49.2898V49.2898Z" fill="#CCE6FF"/>
<path fill-rule="evenodd" clip-rule="evenodd" d="M45.0472 37.6678C45.0472 36.3958 44.0071 35.3632 42.7258 35.3632H24.6574C23.3762 35.3632 22.3359 36.3958 22.3359 37.6678V47.976C22.3359 49.2479 23.3762 50.2806 24.6574 50.2806H42.7258C44.0071 50.2806 45.0472 49.2479 45.0472 47.976V37.6678Z" fill="#CCE6FF" fill-opacity="0.259"/>
<path fill-rule="evenodd" clip-rule="evenodd" d="M44.3645 36.8275C44.3645 35.5556 43.3244 34.5229 42.0431 34.5229H23.9699C22.6886 34.5229 21.6484 35.5556 21.6484 36.8275V47.1358C21.6484 48.4077 22.6886 49.4404 23.9699 49.4404H42.0431C43.3244 49.4404 44.3645 48.4077 44.3645 47.1358V36.8275Z" fill="url(#paint15_linear_3990_23914)"/>
<path fill-rule="evenodd" clip-rule="evenodd" d="M42.0959 32.7011L42.1491 32.7022L42.2022 32.7037L42.2551 32.7062L42.3079 32.7091L42.3605 32.7128L42.4133 32.7171L42.4656 32.722L42.5178 32.7277L42.5698 32.7338L42.6219 32.7408L42.6738 32.7483L42.7253 32.7564L42.7765 32.7652L42.8276 32.7747L42.8785 32.7847L42.9296 32.7954L42.9801 32.8067L43.03 32.8185L43.0803 32.8309L43.1303 32.844L43.18 32.8577L43.2292 32.872L43.2781 32.8867L43.327 32.9022L43.3758 32.9182L43.4242 32.935L43.4722 32.952L43.5197 32.9697L43.5674 32.988L43.6144 33.0067L43.6613 33.0261L43.7079 33.046L43.754 33.0663L43.8003 33.0875L43.8463 33.1092L43.8911 33.131L43.9363 33.1536L43.981 33.1768L44.0255 33.2003L44.0693 33.2244L44.1129 33.2488L44.1565 33.2742L44.1997 33.2998L44.2424 33.3261L44.2845 33.3524L44.3265 33.3794L44.3678 33.4069L44.4091 33.4349L44.4503 33.4638L44.4905 33.4925L44.5308 33.522L44.5707 33.552L44.6097 33.5821L44.6487 33.6128L44.6871 33.644L44.7258 33.676L44.764 33.7085L44.801 33.7408L44.8377 33.7734L44.8743 33.807L44.9107 33.841L44.9465 33.8752L44.9817 33.9098L45.0164 33.9447L45.0514 33.9805L45.0851 34.0161L45.119 34.0527L45.1523 34.0895L45.1851 34.1267L45.2174 34.1642L45.2493 34.202L45.2806 34.2401L45.3114 34.2785L45.3428 34.3186L45.3725 34.3575L45.4022 34.3974L45.4313 34.4377L45.4601 34.4783L45.4881 34.519L45.5157 34.56L45.5432 34.6021L45.5703 34.6443L45.5966 34.687L45.622 34.729L45.6474 34.772L45.672 34.8153L45.6963 34.8588L45.7203 34.9034L45.7438 34.9482L45.7662 34.9923L45.7885 35.0377L45.8102 35.0831L45.8309 35.1277L45.8515 35.1735L45.8719 35.2205L45.8916 35.2676L45.9103 35.3139L45.9289 35.3614L45.9468 35.409L45.9637 35.4559L45.9804 35.5038L45.9968 35.5528L46.0123 35.6009L46.027 35.6493L46.0415 35.6988L46.0555 35.7482L46.0686 35.798L46.0809 35.8467L46.0929 35.8965L46.1044 35.9475L46.1151 35.9976L46.1253 36.0487L46.1349 36.0999L46.1434 36.1491L46.1517 36.2004L46.1593 36.2529L46.1663 36.3044L46.1726 36.3559L46.1784 36.4084L46.1832 36.4599L46.1875 36.5114L46.1912 36.5639L46.1943 36.6164L46.1966 36.6701L46.1983 36.7226L46.1993 36.7741L46.1996 36.8211V47.1422L46.1993 47.1893L46.1983 47.2407L46.1966 47.2933L46.1943 47.3469L46.1912 47.3994L46.1875 47.452L46.1832 47.5034L46.1784 47.5549L46.1726 47.6075L46.1663 47.6589L46.1593 47.7104L46.1517 47.7629L46.1434 47.8143L46.1349 47.8633L46.1253 47.9146L46.1151 47.9657L46.1044 48.0158L46.0929 48.0668L46.081 48.1166L46.0686 48.1653L46.0555 48.2151L46.0415 48.2646L46.027 48.314L46.0123 48.3623L45.9968 48.4105L45.9804 48.4597L45.9637 48.5075L45.9468 48.5543L45.9289 48.602L45.9103 48.6493L45.8916 48.6957L45.8719 48.7429L45.8515 48.7897L45.8309 48.8355L45.8102 48.8802L45.7885 48.9257L45.7662 48.971L45.7438 49.0151L45.7203 49.0598L45.6963 49.1045L45.6721 49.148L45.6474 49.1913L45.622 49.2343L45.5966 49.2763L45.5703 49.3188L45.5432 49.3612L45.5157 49.4033L45.4881 49.4444L45.4601 49.4851L45.4313 49.5256L45.4022 49.5657L45.3725 49.6058L45.3426 49.6449L45.3114 49.6848L45.2806 49.7232L45.2493 49.7613L45.2174 49.7991L45.1853 49.8366L45.1523 49.8738L45.119 49.9107L45.0851 49.9471L45.0514 49.9827L45.0164 50.0187L44.9817 50.0535L44.9463 50.0883L44.9106 50.1225L44.8743 50.1563L44.8377 50.1898L44.801 50.2225L44.7638 50.255L44.7258 50.2872L44.6871 50.3193L44.6485 50.3505L44.6097 50.3813L44.5707 50.4114L44.5309 50.4413L44.4905 50.4708L44.4503 50.4997L44.4091 50.5283L44.368 50.5562L44.3265 50.5839L44.2844 50.6109L44.2426 50.6372L44.1997 50.6633L44.1564 50.6891L44.1129 50.7145L44.0693 50.7389L44.0255 50.763L43.981 50.7866L43.9363 50.8098L43.8911 50.8323L43.8461 50.8543L43.8003 50.8758L43.7542 50.8969L43.7079 50.9173L43.6613 50.9373L43.6144 50.9565L43.5672 50.9754L43.5197 50.9937L43.4722 51.0113L43.4242 51.0284L43.3758 51.045L43.327 51.0611L43.2781 51.0765L43.2294 51.0912L43.18 51.1055L43.1302 51.1193L43.0803 51.1324L43.0302 51.1448L42.9801 51.1567L42.9294 51.168L42.8787 51.1786L42.8278 51.1886L42.7765 51.198L42.7253 51.2069L42.6736 51.2151L42.6218 51.2226L42.5698 51.2295L42.5178 51.2356L42.4656 51.2413L42.4133 51.2462L42.3605 51.2505L42.3081 51.2542L42.2551 51.2572L42.2021 51.2595L42.1491 51.2611L42.0959 51.2622L42.0485 51.2625H23.9635L23.9162 51.2622L23.8629 51.2611L23.81 51.2595L23.7569 51.2572L23.7041 51.2542L23.6515 51.2505L23.5989 51.2462L23.5466 51.2413L23.4943 51.2356L23.4421 51.2295L23.3904 51.2226L23.3384 51.2151L23.2869 51.2069L23.2357 51.198L23.1845 51.1886L23.1334 51.1786L23.0828 51.168L23.0323 51.1567L22.9817 51.1448L22.9319 51.1324L22.8819 51.1193L22.8321 51.1055L22.783 51.0914L22.7339 51.0765L22.6847 51.061L22.6363 51.045L22.5882 51.0285L22.5399 51.0113L22.4925 50.9937L22.4448 50.9754L22.3976 50.9565L22.3508 50.9373L22.3039 50.9171L22.2576 50.8967L22.2118 50.8758L22.1666 50.8545L22.1209 50.8323L22.0757 50.8098L22.031 50.7866L21.9868 50.763L21.9428 50.7389L21.8987 50.7142L21.8557 50.6891L21.8128 50.6638L21.7699 50.6375L21.7277 50.6109L21.6857 50.5839L21.6441 50.5562L21.6029 50.5283L21.5618 50.4997L21.5211 50.4705L21.4813 50.4413L21.442 50.4117L21.4025 50.3813L21.3629 50.3501L21.3244 50.3189L21.2869 50.2877L21.2488 50.2554L21.2111 50.2225L21.1744 50.1898L21.1377 50.1563L21.1015 50.1225L21.0658 50.0883L21.0305 50.0535L20.9957 50.0187L20.9607 49.9827L20.9263 49.9465L20.8932 49.9107L20.8598 49.8738L20.827 49.8366L20.7952 49.7997L20.7627 49.7613L20.7309 49.7225L20.7002 49.684L20.67 49.6455L20.6397 49.6058L20.61 49.5657L20.5807 49.5256L20.5521 49.4851L20.5239 49.4444L20.4964 49.4033L20.4688 49.3612L20.4419 49.3188L20.4159 49.2772L20.3901 49.2343L20.3648 49.1913L20.3401 49.148L20.3153 49.1036L20.2918 49.0598L20.2687 49.016L20.2458 48.971L20.2235 48.9257L20.2019 48.8802L20.1807 48.8346L20.1603 48.7888L20.1403 48.7429L20.1209 48.6966L20.1018 48.6494L20.0832 48.602L20.0657 48.5553L20.0484 48.5075L20.0313 48.4586L20.0152 48.4105L19.9998 48.3623L19.9848 48.313L19.9705 48.2646L19.957 48.216L19.9437 48.1664L19.9309 48.1155L19.919 48.0658L19.908 48.0168L19.897 47.9657L19.8868 47.9146L19.8775 47.8643L19.8685 47.8132L19.8603 47.7617L19.8527 47.7104L19.8458 47.6589L19.8396 47.6075L19.834 47.556L19.8289 47.5034L19.8246 47.452L19.8209 47.3994L19.8178 47.3458L19.8156 47.2943L19.8139 47.2418L19.8128 47.1882L19.8125 47.1412V36.8222L19.8128 36.7752L19.8139 36.7215L19.8156 36.669L19.8178 36.6175L19.8209 36.5639L19.8246 36.5114L19.8289 36.4599L19.834 36.4073L19.8396 36.3559L19.8458 36.3044L19.8527 36.2529L19.8603 36.2016L19.8685 36.1502L19.8775 36.0988L19.8868 36.0487L19.897 35.9976L19.908 35.9464L19.919 35.8976L19.9309 35.8478L19.9437 35.7969L19.957 35.7473L19.9705 35.6988L19.9848 35.6502L19.9999 35.6009L20.0152 35.5528L20.0313 35.5047L20.0484 35.4559L20.0657 35.4081L20.0832 35.3614L20.1018 35.3139L20.1209 35.2666L20.1403 35.2205L20.1603 35.1745L20.1807 35.1286L20.2019 35.0831L20.2235 35.0377L20.2458 34.9923L20.2687 34.9473L20.2918 34.9034L20.3153 34.8597L20.3401 34.8153L20.3648 34.772L20.3901 34.729L20.4159 34.6861L20.4419 34.6443L20.4688 34.6021L20.4964 34.56L20.5239 34.519L20.5521 34.4783L20.5807 34.4377L20.61 34.3974L20.6397 34.3575L20.6699 34.3179L20.7002 34.2791L20.7309 34.2409L20.7627 34.202L20.7952 34.1636L20.827 34.1267L20.8598 34.0895L20.893 34.0527L20.9265 34.0167L20.9608 33.9805L20.9957 33.9447L21.0305 33.9098L21.0656 33.8752L21.1014 33.841L21.1377 33.807L21.1746 33.7734L21.2111 33.7408L21.2487 33.7079L21.2869 33.6755L21.3244 33.6445L21.3629 33.6133L21.4025 33.5821L21.442 33.5517L21.4813 33.522L21.5211 33.4928L21.5618 33.4638L21.6029 33.4349L21.6443 33.4069L21.6857 33.3794L21.7275 33.3524L21.7701 33.3257L21.813 33.2995L21.8555 33.2742L21.8987 33.2491L21.9428 33.2244L21.9868 33.2003L22.031 33.1768L22.0757 33.1536L22.1209 33.131L22.1664 33.1089L22.2119 33.0875L22.2577 33.0666L22.3037 33.0462L22.3508 33.0261L22.3978 33.0067L22.4448 32.988L22.4924 32.9697L22.5399 32.952L22.5882 32.9348L22.6363 32.9182L22.6847 32.9024L22.7339 32.8867L22.7832 32.872L22.8322 32.8577L22.8817 32.844L22.9319 32.8309L22.9819 32.8185L23.0322 32.8067L23.0826 32.7954L23.1335 32.7847L23.1845 32.7747L23.2357 32.7652L23.2869 32.7564L23.3384 32.7483L23.3903 32.7408L23.4421 32.7338L23.4943 32.7277L23.5466 32.722L23.5989 32.7171L23.6515 32.7128L23.7043 32.7091L23.7569 32.7062L23.8098 32.7037L23.8629 32.7022L23.9162 32.7011L23.9635 32.7008H42.0485L42.0959 32.7011V32.7011ZM23.9694 34.523L23.9394 34.5231L23.9095 34.5237L23.8798 34.5247L23.8501 34.526L23.8204 34.5277L23.791 34.5297L23.7616 34.5322L23.7322 34.5349L23.7031 34.538L23.674 34.5416L23.6449 34.5454L23.6161 34.5495L23.5873 34.5542L23.5587 34.5591L23.5302 34.5643L23.5019 34.5698L23.4735 34.5758L23.4454 34.582L23.4174 34.5886L23.3895 34.5956L23.3618 34.6029L23.3343 34.6105L23.3067 34.6184L23.2795 34.6267L23.2522 34.6353L23.2252 34.6442L23.1982 34.6534L23.1716 34.6629L23.145 34.6728L23.1185 34.6829L23.0922 34.6933L23.0662 34.7043L23.0402 34.7153L23.0144 34.7267L22.9888 34.7384L22.9633 34.7503L22.9381 34.7626L22.913 34.7752L22.8881 34.7881L22.8633 34.8014L22.8387 34.8147L22.8143 34.8285L22.7901 34.8425L22.766 34.8568L22.7421 34.8714L22.7186 34.8863L22.6951 34.9014L22.6719 34.9167L22.6488 34.9324L22.6259 34.9484L22.6033 34.9645L22.5809 34.9811L22.5586 34.9979L22.5366 35.0148L22.5148 35.032L22.4931 35.0495L22.4718 35.0673L22.4506 35.0853L22.4295 35.1034L22.4089 35.122L22.3884 35.1407L22.3681 35.1596L22.3481 35.1788L22.3282 35.1984L22.3087 35.218L22.2893 35.2378L22.2703 35.258L22.2514 35.2784L22.2327 35.299L22.2144 35.3197L22.1963 35.3408L22.1783 35.362L22.1607 35.3835L22.1434 35.4052L22.1262 35.427L22.1095 35.4491L22.0928 35.4714L22.0765 35.4938L22.0604 35.5165L22.0446 35.5394L22.0292 35.5625L22.0138 35.5858L21.999 35.6092L21.9843 35.6328L21.9699 35.6568L21.9558 35.6808L21.9419 35.7051L21.9284 35.7295L21.9151 35.7541L21.9021 35.7788L21.8894 35.8037L21.877 35.8287L21.865 35.8541L21.8532 35.8794L21.8417 35.9051L21.8306 35.9309L21.8196 35.9567L21.8091 35.9828L21.7989 36.0091L21.789 36.0355L21.7794 36.0621L21.7701 36.0887L21.7611 36.1156L21.7524 36.1426L21.7441 36.1697L21.736 36.197L21.7285 36.2244L21.7212 36.2519L21.7141 36.2795L21.7074 36.3073L21.7012 36.3353L21.6952 36.3634L21.6896 36.3915L21.6842 36.4198L21.6794 36.4482L21.6748 36.4768L21.6706 36.5054L21.6667 36.5342L21.6631 36.5631L21.66 36.592L21.6571 36.6212L21.6548 36.6504L21.6526 36.6796L21.6511 36.7091L21.6497 36.7386L21.6488 36.7681L21.6481 36.7977L21.648 36.8275V47.1358L21.6481 47.1656L21.6488 47.1952L21.6497 47.2247L21.6511 47.2542L21.6526 47.2837L21.6548 47.3129L21.6571 47.3421L21.66 47.3713L21.6631 47.4002L21.6667 47.4291L21.6706 47.4578L21.6748 47.4865L21.6794 47.5151L21.6842 47.5435L21.6896 47.5718L21.6952 47.5999L21.7012 47.628L21.7074 47.656L21.7141 47.6838L21.7212 47.7115L21.7285 47.739L21.736 47.7663L21.7441 47.7937L21.7524 47.8207L21.7611 47.8477L21.7701 47.8746L21.7794 47.9012L21.789 47.9278L21.7989 47.9542L21.8091 47.9805L21.8196 48.0065L21.8306 48.0324L21.8417 48.0582L21.8532 48.0837L21.865 48.1092L21.877 48.1346L21.8894 48.1596L21.9021 48.1845L21.9151 48.2093L21.9284 48.2338L21.9419 48.2583L21.9558 48.2826L21.9699 48.3065L21.9843 48.3303L21.999 48.354L22.0138 48.3775L22.0292 48.4009L22.0446 48.4239L22.0604 48.4468L22.0765 48.4695L22.0928 48.492L22.1095 48.5142L22.1262 48.5364L22.1434 48.5582L22.1607 48.5798L22.1783 48.6013L22.1963 48.6226L22.2144 48.6436L22.2327 48.6643L22.2514 48.6849L22.2703 48.7054L22.2893 48.7255L22.3087 48.7453L22.3282 48.765L22.3481 48.7845L22.3681 48.8037L22.3884 48.8226L22.4089 48.8413L22.4295 48.8598L22.4506 48.8781L22.4718 48.896L22.4931 48.9138L22.5148 48.9314L22.5366 48.9486L22.5586 48.9655L22.5809 48.9822L22.6033 48.9987L22.6259 49.0149L22.6488 49.0309L22.6719 49.0466L22.6951 49.062L22.7186 49.077L22.7421 49.0919L22.766 49.1065L22.7901 49.1208L22.8143 49.1348L22.8387 49.1486L22.8633 49.162L22.8881 49.1752L22.913 49.1881L22.9381 49.2007L22.9633 49.213L22.9888 49.225L23.0144 49.2366L23.0402 49.248L23.0662 49.2591L23.0922 49.2698L23.1185 49.2804L23.145 49.2906L23.1716 49.3004L23.1982 49.3099L23.2252 49.3191L23.2522 49.3281L23.2795 49.3367L23.3067 49.345L23.3343 49.3528L23.3618 49.3605L23.3895 49.3677L23.4174 49.3746L23.4454 49.3812L23.4735 49.3875L23.5019 49.3935L23.5302 49.399L23.5587 49.4043L23.5873 49.4092L23.6161 49.4138L23.6449 49.4179L23.674 49.4218L23.7031 49.4253L23.7322 49.4284L23.7616 49.4312L23.791 49.4336L23.8204 49.4356L23.8501 49.4373L23.8798 49.4387L23.9095 49.4396L23.9394 49.4402L23.9694 49.4404H42.0427L42.0727 49.4402L42.1025 49.4396L42.1324 49.4387L42.1621 49.4373L42.1917 49.4356L42.2213 49.4336L42.2507 49.4312L42.2799 49.4284L42.3092 49.4253L42.3383 49.4218L42.3672 49.4179L42.396 49.4138L42.4248 49.4092L42.4534 49.4043L42.4819 49.399L42.5103 49.3935L42.5385 49.3875L42.5667 49.3812L42.5947 49.3746L42.6226 49.3677L42.6503 49.3605L42.678 49.3528L42.7053 49.345L42.7327 49.3367L42.7598 49.3281L42.7869 49.3191L42.8138 49.3099L42.8406 49.3004L42.8671 49.2906L42.8935 49.2804L42.9198 49.2698L42.946 49.2591L42.9718 49.248L42.9977 49.2366L43.0232 49.225L43.0488 49.213L43.074 49.2007L43.0992 49.1881L43.1241 49.1752L43.1489 49.162L43.1735 49.1486L43.1978 49.1348L43.2221 49.1208L43.2461 49.1065L43.2699 49.0919L43.2936 49.077L43.317 49.062L43.3402 49.0466L43.3632 49.0309L43.3861 49.0149L43.4089 48.9987L43.4313 48.9822L43.4535 48.9655L43.4756 48.9486L43.4974 48.9314L43.5189 48.9138L43.5404 48.896L43.5615 48.8781L43.5825 48.8598L43.6033 48.8413L43.6237 48.8226L43.644 48.8037L43.6641 48.7845L43.6839 48.765L43.7034 48.7453L43.7227 48.7255L43.7419 48.7054L43.7608 48.6849L43.7794 48.6643L43.7978 48.6436L43.8159 48.6226L43.8337 48.6013L43.8514 48.5798L43.8687 48.5582L43.8859 48.5364L43.9027 48.5142L43.9193 48.492L43.9355 48.4695L43.9516 48.4468L43.9674 48.4239L43.9829 48.4009L43.9982 48.3775L44.0131 48.354L44.0278 48.3303L44.0422 48.3065L44.0564 48.2826L44.0702 48.2583L44.0838 48.2338L44.097 48.2093L44.11 48.1845L44.1227 48.1596L44.135 48.1346L44.1471 48.1092L44.1589 48.0837L44.1705 48.0582L44.1816 48.0324L44.1925 48.0065L44.203 47.9805L44.2132 47.9542L44.2231 47.9278L44.2328 47.9012L44.2421 47.8746L44.2511 47.8477L44.2596 47.8207L44.268 47.7937L44.276 47.7663L44.2836 47.739L44.291 47.7115L44.298 47.6838L44.3047 47.656L44.311 47.628L44.3169 47.5999L44.3226 47.5718L44.3279 47.5435L44.3328 47.5151L44.3373 47.4865L44.3416 47.4578L44.3455 47.4291L44.3489 47.4002L44.3522 47.3713L44.355 47.3421L44.3573 47.3129L44.3594 47.2837L44.3611 47.2542L44.3624 47.2247L44.3633 47.1952L44.3639 47.1656L44.3641 47.1358V36.8275L44.3639 36.7977L44.3633 36.7681L44.3624 36.7386L44.3611 36.7091L44.3594 36.6796L44.3573 36.6504L44.355 36.6212L44.3522 36.592L44.3489 36.5631L44.3455 36.5342L44.3416 36.5054L44.3373 36.4768L44.3328 36.4482L44.3279 36.4198L44.3226 36.3915L44.3169 36.3634L44.311 36.3353L44.3047 36.3073L44.298 36.2795L44.291 36.2519L44.2836 36.2244L44.276 36.197L44.268 36.1697L44.2596 36.1426L44.2511 36.1156L44.2421 36.0887L44.2328 36.0621L44.2231 36.0355L44.2132 36.0091L44.203 35.9828L44.1925 35.9567L44.1816 35.9309L44.1705 35.9051L44.1589 35.8794L44.1471 35.8541L44.135 35.8287L44.1227 35.8037L44.11 35.7788L44.097 35.7541L44.0838 35.7295L44.0702 35.7051L44.0564 35.6808L44.0422 35.6568L44.0278 35.6328L44.0131 35.6092L43.9982 35.5858L43.9829 35.5625L43.9674 35.5394L43.9516 35.5165L43.9355 35.4938L43.9193 35.4714L43.9027 35.4491L43.8859 35.427L43.8687 35.4052L43.8514 35.3835L43.8337 35.362L43.8159 35.3408L43.7978 35.3197L43.7794 35.299L43.7608 35.2784L43.7419 35.258L43.7227 35.2378L43.7034 35.218L43.6839 35.1984L43.6641 35.1788L43.644 35.1596L43.6237 35.1407L43.6033 35.122L43.5825 35.1034L43.5615 35.0853L43.5404 35.0673L43.5189 35.0495L43.4974 35.032L43.4756 35.0148L43.4535 34.9979L43.4313 34.9811L43.4089 34.9645L43.3861 34.9484L43.3632 34.9324L43.3402 34.9167L43.317 34.9014L43.2936 34.8863L43.2699 34.8714L43.2461 34.8568L43.2221 34.8425L43.1978 34.8285L43.1735 34.8147L43.1489 34.8014L43.1241 34.7881L43.0992 34.7752L43.074 34.7626L43.0488 34.7503L43.0232 34.7384L42.9977 34.7267L42.9718 34.7153L42.946 34.7043L42.9198 34.6933L42.8935 34.6829L42.8671 34.6728L42.8406 34.6629L42.8138 34.6534L42.7869 34.6442L42.7598 34.6353L42.7327 34.6267L42.7053 34.6184L42.678 34.6105L42.6503 34.6029L42.6226 34.5956L42.5947 34.5886L42.5667 34.582L42.5385 34.5758L42.5103 34.5698L42.4819 34.5643L42.4534 34.5591L42.4248 34.5542L42.396 34.5495L42.3672 34.5454L42.3383 34.5416L42.3092 34.538L42.2799 34.5349L42.2507 34.5322L42.2213 34.5297L42.1917 34.5277L42.1621 34.526L42.1324 34.5247L42.1025 34.5237L42.0727 34.5231L42.0427 34.523H23.9694V34.523Z" fill="white"/>
<path fill-rule="evenodd" clip-rule="evenodd" d="M42.3617 37.687C42.3617 36.7542 41.5989 35.9969 40.6593 35.9969H24.9412C24.2579 35.9969 23.7031 36.5476 23.7031 37.2261V46.2763H42.3617V37.687Z" fill="url(#paint16_linear_3990_23914)"/>
<path fill-rule="evenodd" clip-rule="evenodd" d="M34.7393 48.0888C34.7392 47.9596 34.6875 47.8356 34.5954 47.7443C34.5034 47.6529 34.3786 47.6015 34.2484 47.6014H31.8737C31.7435 47.6015 31.6187 47.6529 31.5267 47.7443C31.4346 47.8356 31.3829 47.9596 31.3828 48.0888C31.3829 48.218 31.4346 48.3419 31.5267 48.4333C31.6187 48.5247 31.7435 48.576 31.8737 48.5761H34.2484C34.3786 48.576 34.5034 48.5247 34.5954 48.4333C34.6875 48.3419 34.7392 48.218 34.7393 48.0888V48.0888Z" fill="#E5F1FF"/>
<path fill-rule="evenodd" clip-rule="evenodd" d="M30.5666 49.3875H35.3929V52C35.3929 52 35.3842 52.7985 36.7015 53.3878C36.0952 53.5245 32.1208 53.3878 32.1208 53.3878V53.3677C32.0734 53.3706 29.858 53.5024 29.2578 53.3677C30.5753 52.7814 30.5666 51.9869 30.5666 51.9869V49.3875V49.3875Z" fill="url(#paint17_linear_3990_23914)"/>
<path fill-rule="evenodd" clip-rule="evenodd" d="M36.7872 53.7326C36.7871 53.5709 36.7224 53.4159 36.6072 53.3016C36.4921 53.1873 36.3359 53.123 36.1731 53.1229H29.7939C29.6311 53.123 29.4749 53.1872 29.3597 53.3015C29.2445 53.4158 29.1798 53.5709 29.1797 53.7326C29.1797 53.8943 29.2445 54.0494 29.3596 54.1637C29.4748 54.2781 29.631 54.3423 29.7939 54.3424H36.1731C36.3359 54.3423 36.4921 54.278 36.6073 54.1636C36.7224 54.0493 36.7871 53.8942 36.7872 53.7326V53.7326Z" fill="#CCE6FF"/>
<defs>
<linearGradient id="paint0_linear_3990_23914" x1="37.6069" y1="30.7044" x2="36.0628" y2="43.2437" gradientUnits="userSpaceOnUse">
<stop stop-color="#CCE6FF"/>
<stop offset="0.47" stop-color="#9CD1FF"/>
<stop offset="1" stop-color="#1D98FF"/>
</linearGradient>
<linearGradient id="paint1_linear_3990_23914" x1="33.9713" y1="30.9588" x2="38.6297" y2="15.3833" gradientUnits="userSpaceOnUse">
<stop stop-color="#CCE6FF" stop-opacity="0.62"/>
<stop offset="0.18" stop-color="#E2F1FF" stop-opacity="0.62"/>
<stop offset="0.39" stop-color="#F6FBFF" stop-opacity="0.62"/>
<stop offset="1" stop-color="white" stop-opacity="0.62"/>
</linearGradient>
<radialGradient id="paint2_radial_3990_23914" cx="0" cy="0" r="1" gradientUnits="userSpaceOnUse" gradientTransform="translate(27.5549 47.2186) scale(27.7265 27.5253)">
<stop stop-color="#2884FB" stop-opacity="0.639"/>
<stop offset="0.52" stop-color="#4F9AFB" stop-opacity="0.489"/>
<stop offset="1" stop-color="#D0E4FC" stop-opacity="0"/>
</radialGradient>
<linearGradient id="paint3_linear_3990_23914" x1="37.5926" y1="20.001" x2="36.0485" y2="32.5403" gradientUnits="userSpaceOnUse">
<stop stop-color="#CCE6FF"/>
<stop offset="0.47" stop-color="#9CD1FF"/>
<stop offset="1" stop-color="#1D98FF"/>
</linearGradient>
<linearGradient id="paint4_linear_3990_23914" x1="33.9722" y1="20.2367" x2="38.6306" y2="4.66113" gradientUnits="userSpaceOnUse">
<stop stop-color="#CCE6FF" stop-opacity="0.62"/>
<stop offset="0.18" stop-color="#E2F1FF" stop-opacity="0.62"/>
<stop offset="0.39" stop-color="#F6FBFF" stop-opacity="0.62"/>
<stop offset="1" stop-color="white" stop-opacity="0.62"/>
</linearGradient>
<radialGradient id="paint5_radial_3990_23914" cx="0" cy="0" r="1" gradientUnits="userSpaceOnUse" gradientTransform="translate(27.5549 36.4998) scale(27.7265 27.5253)">
<stop stop-color="#2884FB" stop-opacity="0.639"/>
<stop offset="0.52" stop-color="#4F9AFB" stop-opacity="0.489"/>
<stop offset="1" stop-color="#D0E4FC" stop-opacity="0"/>
</radialGradient>
<linearGradient id="paint6_linear_3990_23914" x1="37.596" y1="9.39355" x2="36.0518" y2="21.9329" gradientUnits="userSpaceOnUse">
<stop stop-color="#CCE6FF"/>
<stop offset="0.47" stop-color="#9CD1FF"/>
<stop offset="1" stop-color="#1D98FF"/>
</linearGradient>
<linearGradient id="paint7_linear_3990_23914" x1="33.9686" y1="9.63839" x2="38.627" y2="-5.93714" gradientUnits="userSpaceOnUse">
<stop stop-color="#CCE6FF" stop-opacity="0.62"/>
<stop offset="0.18" stop-color="#E2F1FF" stop-opacity="0.62"/>
<stop offset="0.39" stop-color="#F6FBFF" stop-opacity="0.62"/>
<stop offset="1" stop-color="white" stop-opacity="0.62"/>
</linearGradient>
<radialGradient id="paint8_radial_3990_23914" cx="0" cy="0" r="1" gradientUnits="userSpaceOnUse" gradientTransform="translate(27.5549 25.8961) scale(27.7265 27.5253)">
<stop stop-color="#2884FB" stop-opacity="0.639"/>
<stop offset="0.52" stop-color="#4F9AFB" stop-opacity="0.489"/>
<stop offset="1" stop-color="#D0E4FC" stop-opacity="0"/>
</radialGradient>
<linearGradient id="paint9_linear_3990_23914" x1="58.6051" y1="39.2678" x2="58.6051" y2="51.1389" gradientUnits="userSpaceOnUse">
<stop stop-color="#CCE6FF"/>
<stop offset="1" stop-color="#1D98FF"/>
</linearGradient>
<linearGradient id="paint10_linear_3990_23914" x1="50.7392" y1="34.2988" x2="50.7392" y2="45.1306" gradientUnits="userSpaceOnUse">
<stop stop-color="white"/>
<stop offset="1" stop-color="#D0E4FC"/>
</linearGradient>
<linearGradient id="paint11_linear_3990_23914" x1="49.5135" y1="49.4317" x2="49.5135" y2="45.0453" gradientUnits="userSpaceOnUse">
<stop stop-color="#CCE6FF"/>
<stop offset="1" stop-color="#1D98FF"/>
</linearGradient>
<linearGradient id="paint12_linear_3990_23914" x1="6.56314" y1="38.5008" x2="6.56314" y2="51.1855" gradientUnits="userSpaceOnUse">
<stop stop-color="#CCE6FF"/>
<stop offset="1" stop-color="#1D98FF"/>
</linearGradient>
<linearGradient id="paint13_linear_3990_23914" x1="14.4468" y1="36.3646" x2="14.4468" y2="50.1322" gradientUnits="userSpaceOnUse">
<stop stop-color="white"/>
<stop offset="1" stop-color="#D0E4FC"/>
</linearGradient>
<linearGradient id="paint14_linear_3990_23914" x1="16.3067" y1="49.509" x2="16.3067" y2="44.5584" gradientUnits="userSpaceOnUse">
<stop stop-color="#CCE6FF"/>
<stop offset="1" stop-color="#1D98FF"/>
</linearGradient>
<linearGradient id="paint15_linear_3990_23914" x1="41.3451" y1="43.0568" x2="41.3451" y2="55.291" gradientUnits="userSpaceOnUse">
<stop stop-color="#CCE6FF"/>
<stop offset="1" stop-color="#1D98FF"/>
</linearGradient>
<linearGradient id="paint16_linear_3990_23914" x1="33.0459" y1="41.0285" x2="33.0459" y2="48.5142" gradientUnits="userSpaceOnUse">
<stop stop-color="white"/>
<stop offset="1" stop-color="#D0E4FC"/>
</linearGradient>
<linearGradient id="paint17_linear_3990_23914" x1="34.4768" y1="54.8495" x2="34.4768" y2="48.7072" gradientUnits="userSpaceOnUse">
<stop stop-color="#CCE6FF"/>
<stop offset="1" stop-color="#1D98FF"/>
</linearGradient>
</defs>
</svg>
