<svg width="50" height="44" viewBox="0 0 50 44" fill="none" xmlns="http://www.w3.org/2000/svg">
<path d="M19.4281 38.2283C27.582 38.2283 34.192 36.5377 34.192 34.4522C34.192 32.3667 27.582 30.6761 19.4281 30.6761C11.2741 30.6761 4.66406 32.3667 4.66406 34.4522C4.66406 36.5377 11.2741 38.2283 19.4281 38.2283Z" fill="#2F94FB" fill-opacity="0.329"/>
<path fill-rule="evenodd" clip-rule="evenodd" d="M35.189 32.3179H35.1731L35.189 32.4821C35.189 34.7488 30.9476 37.1338 19.4773 37.1338C8.80693 37.1338 3.76562 34.7488 3.76562 32.4821L3.78159 32.3179H3.76562V25.7507H35.189V32.3179Z" fill="url(#paint0_linear_3990_23913)"/>
<path fill-rule="evenodd" clip-rule="evenodd" d="M19.4773 21.5916C28.1546 21.5916 35.189 23.4292 35.189 25.696C35.189 27.9628 31.0684 30.3478 19.4773 30.3478C7.72417 30.3478 3.76562 27.9628 3.76562 25.696C3.76562 23.4292 10.8001 21.5916 19.4773 21.5916Z" fill="#F0F7FF"/>
<path d="M19.4281 29.5816C27.582 29.5816 34.192 27.8664 34.192 25.7507C34.192 23.635 27.582 21.9199 19.4281 21.9199C11.2741 21.9199 4.66406 23.635 4.66406 25.7507C4.66406 27.8664 11.2741 29.5816 19.4281 29.5816Z" fill="#91D4FF"/>
<path d="M19.4281 28.4871C27.582 28.4871 34.192 26.7719 34.192 24.6562C34.192 22.5405 27.582 20.8254 19.4281 20.8254C11.2741 20.8254 4.66406 22.5405 4.66406 24.6562C4.66406 26.7719 11.2741 28.4871 19.4281 28.4871Z" fill="#2F94FB" fill-opacity="0.988"/>
<path fill-rule="evenodd" clip-rule="evenodd" d="M35.189 22.6861H35.1731L35.189 22.8502C35.189 25.117 30.9476 27.502 19.4773 27.502C8.80693 27.502 3.76562 25.117 3.76562 22.8502L3.78159 22.6861H3.76562V16.1189H35.189V22.6861Z" fill="url(#paint1_linear_3990_23913)"/>
<path fill-rule="evenodd" clip-rule="evenodd" d="M19.4773 12.0692C28.1546 12.0692 35.189 13.9068 35.189 16.1736C35.189 18.4404 31.0684 20.8254 19.4773 20.8254C7.72417 20.8254 3.76562 18.4404 3.76562 16.1736C3.76562 13.9068 10.8001 12.0692 19.4773 12.0692Z" fill="#F0F7FF"/>
<path d="M19.4281 19.9497C27.582 19.9497 34.192 18.2346 34.192 16.1189C34.192 14.0032 27.582 12.288 19.4281 12.288C11.2741 12.288 4.66406 14.0032 4.66406 16.1189C4.66406 18.2346 11.2741 19.9497 19.4281 19.9497Z" fill="url(#paint2_radial_3990_23913)"/>
<path d="M19.4281 18.5269C27.582 18.5269 34.192 16.8117 34.192 14.696C34.192 12.5803 27.582 10.8652 19.4281 10.8652C11.2741 10.8652 4.66406 12.5803 4.66406 14.696C4.66406 16.8117 11.2741 18.5269 19.4281 18.5269Z" fill="#2F94FB" fill-opacity="0.812"/>
<path fill-rule="evenodd" clip-rule="evenodd" d="M35.189 12.7259H35.1731L35.189 12.89C35.189 15.1568 30.9476 17.5418 19.4773 17.5418C8.80693 17.5418 3.76562 15.1568 3.76562 12.89L3.78159 12.7259H3.76562V6.15869H35.189V12.7259Z" fill="url(#paint3_linear_3990_23913)"/>
<path fill-rule="evenodd" clip-rule="evenodd" d="M19.4773 2.10895C28.1546 2.10895 35.189 3.94655 35.189 6.21343C35.189 8.48019 31.0684 10.8652 19.4773 10.8652C7.72417 10.8652 3.76562 8.48019 3.76562 6.21343C3.76562 3.94655 10.8001 2.10895 19.4773 2.10895Z" fill="#F0F7FF"/>
<path d="M19.4233 9.55169C27.2466 9.55169 33.5887 8.03258 33.5887 6.15866C33.5887 4.28474 27.2466 2.76562 19.4233 2.76562C11.5999 2.76562 5.25781 4.28474 5.25781 6.15866C5.25781 8.03258 11.5999 9.55169 19.4233 9.55169Z" fill="url(#paint4_linear_3990_23913)"/>
<path fill-rule="evenodd" clip-rule="evenodd" d="M50 34.8427C50 34.3325 49.5738 33.9184 49.0487 33.9184H21.9513C21.4262 33.9184 21 34.3325 21 34.8427V42.4655C21 42.9757 21.4262 43.3899 21.9513 43.3899H49.0487C49.5738 43.3899 50 42.9757 50 42.4655V34.8427Z" fill="url(#paint5_linear_3990_23913)"/>
<path fill-rule="evenodd" clip-rule="evenodd" d="M48.3384 43.3899V35.5966H21.8535C21.6769 35.5965 21.5076 35.5283 21.3827 35.407C21.2578 35.2857 21.1876 35.1212 21.1875 34.9496V34.5654C21.1876 34.3938 21.2578 34.2293 21.3827 34.108C21.5076 33.9866 21.6769 33.9185 21.8535 33.9184H49.049C49.533 33.9184 49.9331 34.2703 49.9926 34.725L49.994 34.7366L49.9953 34.7483L49.9965 34.7599L49.9975 34.7716L49.9983 34.7834L49.9991 34.7952L49.9996 34.807L49.9999 34.8189L50.0002 34.8308L50.0003 34.8427V42.4655C50.0003 42.9757 49.574 43.3899 49.049 43.3899H48.3384Z" fill="url(#paint6_linear_3990_23913)"/>
<path d="M24.7636 39.7936C25.2069 39.7936 25.5663 39.4444 25.5663 39.0137C25.5663 38.5829 25.2069 38.2338 24.7636 38.2338C24.3203 38.2338 23.9609 38.5829 23.9609 39.0137C23.9609 39.4444 24.3203 39.7936 24.7636 39.7936Z" fill="#53BA2F"/>
<path fill-rule="evenodd" clip-rule="evenodd" d="M45.7998 38.8433C45.7997 38.7452 45.7596 38.6512 45.6883 38.5819C45.6169 38.5126 45.5202 38.4736 45.4193 38.4736H28.2869C28.1859 38.4736 28.0892 38.5126 28.0178 38.5819C27.9464 38.6512 27.9063 38.7452 27.9062 38.8433V39.0628C27.9063 39.1609 27.9464 39.2549 28.0178 39.3242C28.0892 39.3936 28.1859 39.4325 28.2869 39.4325H45.4193C45.5202 39.4325 45.6169 39.3935 45.6883 39.3242C45.7596 39.2549 45.7997 39.1609 45.7998 39.0628V38.8433Z" fill="white"/>
<path fill-rule="evenodd" clip-rule="evenodd" d="M21.9513 33.9184H22.7272V41.83H49.2093C49.3858 41.8301 49.5552 41.8983 49.68 42.0196C49.8049 42.1409 49.8751 42.3055 49.8751 42.477V42.8642C49.8751 42.886 49.874 42.9075 49.8719 42.9288C49.7883 43.069 49.6682 43.1854 49.5238 43.2663C49.3793 43.3473 49.2155 43.3899 49.0487 43.3899H21.9513C21.4262 43.3899 21 42.9757 21 42.4655V34.8427C21 34.3325 21.4262 33.9184 21.9513 33.9184Z" fill="url(#paint7_radial_3990_23913)"/>
<path fill-rule="evenodd" clip-rule="evenodd" d="M50 25.3325C50 24.8223 49.5738 24.4082 49.0487 24.4082H21.9513C21.4262 24.4082 21 24.8223 21 25.3325V32.9554C21 33.4655 21.4262 33.8797 21.9513 33.8797H49.0487C49.5738 33.8797 50 33.4655 50 32.9554V25.3325Z" fill="url(#paint8_linear_3990_23913)"/>
<path fill-rule="evenodd" clip-rule="evenodd" d="M48.3384 33.8797V26.0864H21.8535C21.6769 26.0863 21.5076 26.0181 21.3827 25.8968C21.2578 25.7755 21.1876 25.6109 21.1875 25.4394V25.0552C21.1876 24.8836 21.2578 24.7191 21.3827 24.5978C21.5076 24.4764 21.6769 24.4083 21.8535 24.4082H49.049C49.533 24.4082 49.9331 24.7601 49.9926 25.2148L49.994 25.2264L49.9953 25.238L49.9965 25.2497L49.9975 25.2614L49.9983 25.2732L49.9991 25.285L49.9996 25.2968L49.9999 25.3087L50.0002 25.3205L50.0003 25.3325V32.9554C50.0003 33.4655 49.574 33.8797 49.049 33.8797H48.3384Z" fill="url(#paint9_linear_3990_23913)"/>
<path d="M24.7636 30.2835C25.2069 30.2835 25.5663 29.9343 25.5663 29.5035C25.5663 29.0728 25.2069 28.7236 24.7636 28.7236C24.3203 28.7236 23.9609 29.0728 23.9609 29.5035C23.9609 29.9343 24.3203 30.2835 24.7636 30.2835Z" fill="#53BA2F"/>
<path fill-rule="evenodd" clip-rule="evenodd" d="M45.7998 29.3331C45.7997 29.235 45.7596 29.141 45.6883 29.0717C45.6169 29.0024 45.5202 28.9634 45.4193 28.9634H28.2869C28.1859 28.9634 28.0892 29.0024 28.0178 29.0717C27.9464 29.141 27.9063 29.235 27.9062 29.3331V29.5526C27.9063 29.6507 27.9464 29.7447 28.0178 29.814C28.0892 29.8834 28.1859 29.9223 28.2869 29.9223H45.4193C45.5202 29.9223 45.6169 29.8833 45.6883 29.814C45.7596 29.7447 45.7997 29.6507 45.7998 29.5526V29.3331Z" fill="white"/>
<path fill-rule="evenodd" clip-rule="evenodd" d="M21.9513 24.4082H22.7272V32.3198H49.2093C49.3858 32.3199 49.5552 32.3881 49.68 32.5094C49.8049 32.6307 49.8751 32.7953 49.8751 32.9668V33.354C49.8751 33.3758 49.874 33.3974 49.8719 33.4186C49.7883 33.5588 49.6682 33.6752 49.5238 33.7562C49.3793 33.8371 49.2155 33.8797 49.0487 33.8797H21.9513C21.4262 33.8797 21 33.4655 21 32.9554V25.3325C21 24.8223 21.4262 24.4082 21.9513 24.4082Z" fill="url(#paint10_radial_3990_23913)"/>
<path fill-rule="evenodd" clip-rule="evenodd" d="M50 15.9243C50 15.4141 49.5738 15 49.0487 15H21.9513C21.4262 15 21 15.4141 21 15.9243V23.5472C21 24.0573 21.4262 24.4715 21.9513 24.4715H49.0487C49.5738 24.4715 50 24.0573 50 23.5472V15.9243Z" fill="url(#paint11_linear_3990_23913)"/>
<path fill-rule="evenodd" clip-rule="evenodd" d="M48.3384 24.4715V16.6782H21.8535C21.6769 16.6781 21.5076 16.6099 21.3827 16.4886C21.2578 16.3673 21.1876 16.2028 21.1875 16.0312V15.647C21.1876 15.4754 21.2578 15.3109 21.3827 15.1896C21.5076 15.0683 21.6769 15.0001 21.8535 15H49.049C49.533 15 49.9331 15.3519 49.9926 15.8066L49.994 15.8182L49.9953 15.8299L49.9965 15.8415L49.9975 15.8533L49.9983 15.865L49.9991 15.8768L49.9996 15.8886L49.9999 15.9005L50.0002 15.9124L50.0003 15.9243V23.5472C50.0003 24.0573 49.574 24.4715 49.049 24.4715H48.3384Z" fill="url(#paint12_linear_3990_23913)"/>
<path d="M24.7636 20.8753C25.2069 20.8753 25.5663 20.5261 25.5663 20.0953C25.5663 19.6646 25.2069 19.3154 24.7636 19.3154C24.3203 19.3154 23.9609 19.6646 23.9609 20.0953C23.9609 20.5261 24.3203 20.8753 24.7636 20.8753Z" fill="#53BA2F"/>
<path fill-rule="evenodd" clip-rule="evenodd" d="M45.7998 19.9249C45.7997 19.8268 45.7596 19.7328 45.6883 19.6635C45.6169 19.5942 45.5202 19.5552 45.4193 19.5552H28.2869C28.1859 19.5552 28.0892 19.5942 28.0178 19.6635C27.9464 19.7328 27.9063 19.8268 27.9062 19.9249V20.1444C27.9063 20.2425 27.9464 20.3365 28.0178 20.4058C28.0892 20.4752 28.1859 20.5141 28.2869 20.5141H45.4193C45.5202 20.5141 45.6169 20.4751 45.6883 20.4058C45.7596 20.3365 45.7997 20.2425 45.7998 20.1444V19.9249Z" fill="white"/>
<path fill-rule="evenodd" clip-rule="evenodd" d="M21.9513 15H22.7272V22.9116H49.2093C49.3858 22.9117 49.5552 22.98 49.68 23.1013C49.8049 23.2226 49.8751 23.3872 49.8751 23.5587V23.9458C49.8751 23.9676 49.874 23.9892 49.8719 24.0104C49.7883 24.1506 49.6682 24.267 49.5238 24.348C49.3793 24.4289 49.2155 24.4715 49.0487 24.4715H21.9513C21.4262 24.4715 21 24.0573 21 23.5472V15.9243C21 15.4141 21.4262 15 21.9513 15Z" fill="url(#paint13_radial_3990_23913)"/>
<defs>
<linearGradient id="paint0_linear_3990_23913" x1="3.94499" y1="30.4625" x2="35.1535" y2="30.4625" gradientUnits="userSpaceOnUse">
<stop stop-color="#98D7FF"/>
<stop offset="0.11" stop-color="#D2E9FF"/>
<stop offset="0.37" stop-color="#E8F4FF"/>
<stop offset="0.44" stop-color="#D4E9FF"/>
<stop offset="0.68" stop-color="#CCE6FF"/>
<stop offset="0.84" stop-color="#A5D5FF"/>
<stop offset="1" stop-color="#4CB9FF"/>
</linearGradient>
<linearGradient id="paint1_linear_3990_23913" x1="3.94499" y1="20.8306" x2="35.1535" y2="20.8306" gradientUnits="userSpaceOnUse">
<stop stop-color="#98D7FF"/>
<stop offset="0.11" stop-color="#D2E9FF"/>
<stop offset="0.37" stop-color="#E8F4FF"/>
<stop offset="0.44" stop-color="#D4E9FF"/>
<stop offset="0.68" stop-color="#CCE6FF"/>
<stop offset="0.84" stop-color="#A5D5FF"/>
<stop offset="1" stop-color="#4CB9FF"/>
</linearGradient>
<radialGradient id="paint2_radial_3990_23913" cx="0" cy="0" r="1" gradientUnits="userSpaceOnUse" gradientTransform="translate(18.0405 23.8465) scale(28.6413 31.4252)">
<stop stop-color="#97D7FF" stop-opacity="0.988"/>
<stop offset="0.47" stop-color="#6EC6FF" stop-opacity="0.988"/>
<stop offset="1" stop-color="#0097FF" stop-opacity="0.988"/>
</radialGradient>
<linearGradient id="paint3_linear_3990_23913" x1="3.94499" y1="10.8704" x2="35.1535" y2="10.8704" gradientUnits="userSpaceOnUse">
<stop stop-color="#98D7FF"/>
<stop offset="0.11" stop-color="#D2E9FF"/>
<stop offset="0.37" stop-color="#E8F4FF"/>
<stop offset="0.44" stop-color="#D4E9FF"/>
<stop offset="0.68" stop-color="#CCE6FF"/>
<stop offset="0.84" stop-color="#A5D5FF"/>
<stop offset="1" stop-color="#4CB9FF"/>
</linearGradient>
<linearGradient id="paint4_linear_3990_23913" x1="20.9359" y1="3.09486" x2="20.9359" y2="9.46402" gradientUnits="userSpaceOnUse">
<stop stop-color="#CAE5FF"/>
<stop offset="1" stop-color="#AADDFF"/>
</linearGradient>
<linearGradient id="paint5_linear_3990_23913" x1="39.1688" y1="39.1581" x2="37.8271" y2="50.2906" gradientUnits="userSpaceOnUse">
<stop stop-color="#CCE6FF"/>
<stop offset="0.47" stop-color="#9CD1FF"/>
<stop offset="1" stop-color="#1D98FF"/>
</linearGradient>
<linearGradient id="paint6_linear_3990_23913" x1="35.8824" y1="39.3753" x2="39.9417" y2="25.508" gradientUnits="userSpaceOnUse">
<stop stop-color="#CCE6FF" stop-opacity="0.62"/>
<stop offset="0.18" stop-color="#E2F1FF" stop-opacity="0.62"/>
<stop offset="0.39" stop-color="#F6FBFF" stop-opacity="0.62"/>
<stop offset="1" stop-color="white" stop-opacity="0.62"/>
</linearGradient>
<radialGradient id="paint7_radial_3990_23913" cx="0" cy="0" r="1" gradientUnits="userSpaceOnUse" gradientTransform="translate(30.0582 53.8136) scale(25.1347 24.4219)">
<stop stop-color="#2884FB" stop-opacity="0.639"/>
<stop offset="0.52" stop-color="#4F9AFB" stop-opacity="0.489"/>
<stop offset="1" stop-color="#D0E4FC" stop-opacity="0"/>
</radialGradient>
<linearGradient id="paint8_linear_3990_23913" x1="39.1672" y1="29.6518" x2="37.8255" y2="40.7843" gradientUnits="userSpaceOnUse">
<stop stop-color="#CCE6FF"/>
<stop offset="0.47" stop-color="#9CD1FF"/>
<stop offset="1" stop-color="#1D98FF"/>
</linearGradient>
<linearGradient id="paint9_linear_3990_23913" x1="35.8831" y1="29.862" x2="39.9425" y2="15.9947" gradientUnits="userSpaceOnUse">
<stop stop-color="#CCE6FF" stop-opacity="0.62"/>
<stop offset="0.18" stop-color="#E2F1FF" stop-opacity="0.62"/>
<stop offset="0.39" stop-color="#F6FBFF" stop-opacity="0.62"/>
<stop offset="1" stop-color="white" stop-opacity="0.62"/>
</linearGradient>
<radialGradient id="paint10_radial_3990_23913" cx="0" cy="0" r="1" gradientUnits="userSpaceOnUse" gradientTransform="translate(30.0582 44.3034) scale(25.1347 24.4219)">
<stop stop-color="#2884FB" stop-opacity="0.639"/>
<stop offset="0.52" stop-color="#4F9AFB" stop-opacity="0.489"/>
<stop offset="1" stop-color="#D0E4FC" stop-opacity="0"/>
</radialGradient>
<linearGradient id="paint11_linear_3990_23913" x1="39.1704" y1="20.2403" x2="37.8287" y2="31.3728" gradientUnits="userSpaceOnUse">
<stop stop-color="#CCE6FF"/>
<stop offset="0.47" stop-color="#9CD1FF"/>
<stop offset="1" stop-color="#1D98FF"/>
</linearGradient>
<linearGradient id="paint12_linear_3990_23913" x1="35.8798" y1="20.4588" x2="39.9392" y2="6.59146" gradientUnits="userSpaceOnUse">
<stop stop-color="#CCE6FF" stop-opacity="0.62"/>
<stop offset="0.18" stop-color="#E2F1FF" stop-opacity="0.62"/>
<stop offset="0.39" stop-color="#F6FBFF" stop-opacity="0.62"/>
<stop offset="1" stop-color="white" stop-opacity="0.62"/>
</linearGradient>
<radialGradient id="paint13_radial_3990_23913" cx="0" cy="0" r="1" gradientUnits="userSpaceOnUse" gradientTransform="translate(30.0582 34.8952) scale(25.1347 24.4219)">
<stop stop-color="#2884FB" stop-opacity="0.639"/>
<stop offset="0.52" stop-color="#4F9AFB" stop-opacity="0.489"/>
<stop offset="1" stop-color="#D0E4FC" stop-opacity="0"/>
</radialGradient>
</defs>
</svg>
