<svg width="59" height="63" viewBox="0 0 59 63" fill="none" xmlns="http://www.w3.org/2000/svg">
<path fill-rule="evenodd" clip-rule="evenodd" d="M47.7684 49.6452H10.019C5.25367 49.6452 1.39062 45.5254 1.39062 40.4435C1.39062 35.7538 4.68117 31.8864 8.93376 31.3169C8.63189 30.3949 8.47789 29.4251 8.47825 28.4484C8.47825 23.6388 12.1343 19.7398 16.6445 19.7398C18.6191 19.7398 20.4299 20.4872 21.842 21.7313C22.6635 15.0445 28.0233 9.88092 34.5177 9.88092C41.5806 9.88092 47.3062 15.9869 47.3062 23.519C47.3062 24.4766 47.2128 25.4105 47.0367 26.3124H47.7684C53.8102 26.3124 58.7081 31.5356 58.7081 37.9788C58.7081 44.4219 53.8102 49.6452 47.7684 49.6452Z" fill="#CCE6FF"/>
<path d="M34.3774 35.5991C40.7516 35.5991 45.9188 30.0815 45.9188 23.2752C45.9188 16.4688 40.7516 10.9512 34.3774 10.9512C28.0032 10.9512 22.8359 16.4688 22.8359 23.2752C22.8359 30.0815 28.0032 35.5991 34.3774 35.5991Z" fill="url(#paint0_linear_3990_23918)"/>
<path d="M47.576 49.0078C53.2271 49.0078 57.8082 44.1161 57.8082 38.0818C57.8082 32.0476 53.2271 27.1559 47.576 27.1559C41.9249 27.1559 37.3438 32.0476 37.3438 38.0818C37.3438 44.1161 41.9249 49.0078 47.576 49.0078Z" fill="url(#paint1_linear_3990_23918)"/>
<path d="M16.8444 36.4853C20.935 36.4853 24.2512 32.9443 24.2512 28.5763C24.2512 24.2082 20.935 20.6672 16.8444 20.6672C12.7537 20.6672 9.4375 24.2082 9.4375 28.5763C9.4375 32.9443 12.7537 36.4853 16.8444 36.4853Z" fill="url(#paint2_linear_3990_23918)"/>
<path d="M10.5054 48.914C14.8965 48.914 18.4562 45.113 18.4562 40.4242C18.4562 35.7354 14.8965 31.9344 10.5054 31.9344C6.11436 31.9344 2.55469 35.7354 2.55469 40.4242C2.55469 45.113 6.11436 48.914 10.5054 48.914Z" fill="url(#paint3_linear_3990_23918)"/>
<path fill-rule="evenodd" clip-rule="evenodd" d="M43.2265 31.0805C43.2265 30.4194 42.7239 29.8828 42.1048 29.8828H17.9889C17.3698 29.8828 16.8672 30.4194 16.8672 31.0805V38.1471C16.8672 38.8081 17.3698 39.3448 17.9889 39.3448H42.1048C42.7239 39.3448 43.2265 38.8081 43.2265 38.1471V31.0805Z" fill="white"/>
<path fill-rule="evenodd" clip-rule="evenodd" d="M43.0073 30.4817V38.6262L35.8286 47.0102H9.13281L16.9845 38.6262" fill="url(#paint4_linear_3990_23918)"/>
<path fill-rule="evenodd" clip-rule="evenodd" d="M47.7684 49.6452H10.019C5.25367 49.6452 1.39062 45.5254 1.39062 40.4435C1.39062 35.7538 4.68117 31.8864 8.93376 31.3169C8.63189 30.3949 8.47789 29.4251 8.47825 28.4484C8.47825 23.6388 12.1343 19.7398 16.6445 19.7398C18.6191 19.7398 20.4299 20.4872 21.842 21.7313C22.6635 15.0445 28.0233 9.88092 34.5177 9.88092C41.5806 9.88092 47.3062 15.9869 47.3062 23.519C47.3062 24.4766 47.2128 25.4105 47.0367 26.3124H47.7684C53.8102 26.3124 58.7081 31.5356 58.7081 37.9788C58.7081 44.4219 53.8102 49.6452 47.7684 49.6452Z" fill="url(#paint5_linear_3990_23918)"/>
<path fill-rule="evenodd" clip-rule="evenodd" d="M43.2265 31.0805C43.2265 30.4194 42.7239 29.8828 42.1048 29.8828H17.9889C17.3698 29.8828 16.8672 30.4194 16.8672 31.0805V38.1471C16.8672 38.8081 17.3698 39.3448 17.9889 39.3448H42.1048C42.7239 39.3448 43.2265 38.8081 43.2265 38.1471V31.0805Z" fill="#F3F3F3"/>
<path fill-rule="evenodd" clip-rule="evenodd" d="M42.1289 39.3664L17.9985 39.3434C17.2251 39.3475 16.8777 38.6336 16.8741 38.2239L16.8672 31.1142C16.8672 30.8936 16.9493 30.682 17.0954 30.526C17.2414 30.37 17.4396 30.2824 17.6462 30.2824C17.8528 30.2824 18.0509 30.37 18.197 30.526C18.3431 30.682 18.4252 30.8936 18.4252 31.1142V37.7028H42.1289C42.3355 37.7028 42.5337 37.7904 42.6798 37.9464C42.8258 38.1024 42.9079 38.314 42.9079 38.5346C42.9079 38.9854 42.5721 39.3524 42.1289 39.3664Z" fill="url(#paint6_linear_3990_23918)"/>
<path fill-rule="evenodd" clip-rule="evenodd" d="M42.2921 30.0548L42.3477 30.0428C42.7469 30.0821 43.0724 30.4841 43.1267 30.8747V38.295C43.1267 38.5156 43.0446 38.7272 42.8985 38.8832C42.7524 39.0392 42.5543 39.1268 42.3477 39.1268C42.1411 39.1268 41.943 39.0392 41.7969 38.8832C41.6508 38.7272 41.5687 38.5156 41.5687 38.295V31.7065H17.8649C17.6583 31.7065 17.4602 31.6188 17.3141 31.4628C17.168 31.3068 17.0859 31.0953 17.0859 30.8747C17.0859 30.4238 17.4218 30.0569 17.8649 30.0428H42.2364L42.2921 30.0548Z" fill="url(#paint7_linear_3990_23918)"/>
<path d="M20.2916 35.7517C20.6943 35.7517 21.0207 35.4031 21.0207 34.9732C21.0207 34.5432 20.6943 34.1946 20.2916 34.1946C19.8889 34.1946 19.5625 34.5432 19.5625 34.9732C19.5625 35.4031 19.8889 35.7517 20.2916 35.7517Z" fill="#53BA2F"/>
<path fill-rule="evenodd" clip-rule="evenodd" d="M39.4127 35.5121C39.4127 35.2477 39.2116 35.033 38.964 35.033H23.5971C23.3494 35.033 23.1484 35.2477 23.1484 35.5121C23.1484 35.7764 23.3494 35.9912 23.5971 35.9912H38.964C39.2116 35.9912 39.4127 35.7764 39.4127 35.5121Z" fill="white"/>
<path fill-rule="evenodd" clip-rule="evenodd" d="M39.4127 34.9132C39.4127 34.6488 39.2116 34.4341 38.964 34.4341H23.5971C23.3494 34.4341 23.1484 34.6488 23.1484 34.9132C23.1484 35.1776 23.3494 35.3923 23.5971 35.3923H38.964C39.2116 35.3923 39.4127 35.1776 39.4127 34.9132Z" fill="#B1B1B1"/>
<defs>
<linearGradient id="paint0_linear_3990_23918" x1="43.3126" y1="5.64418" x2="33.7113" y2="25.2242" gradientUnits="userSpaceOnUse">
<stop stop-color="white"/>
<stop offset="1" stop-color="#CCE6FF"/>
</linearGradient>
<linearGradient id="paint1_linear_3990_23918" x1="55.5082" y1="22.47" x2="46.996" y2="39.829" gradientUnits="userSpaceOnUse">
<stop stop-color="white"/>
<stop offset="1" stop-color="#CCE6FF"/>
</linearGradient>
<linearGradient id="paint2_linear_3990_23918" x1="13.6861" y1="16.667" x2="17.4869" y2="30.0126" gradientUnits="userSpaceOnUse">
<stop stop-color="white"/>
<stop offset="1" stop-color="#CCE6FF"/>
</linearGradient>
<linearGradient id="paint3_linear_3990_23918" x1="2.87141" y1="27.2538" x2="11.5284" y2="41.6138" gradientUnits="userSpaceOnUse">
<stop stop-color="white"/>
<stop offset="1" stop-color="#CCE6FF"/>
</linearGradient>
<linearGradient id="paint4_linear_3990_23918" x1="25.0196" y1="47.5733" x2="25.9337" y2="37.0732" gradientUnits="userSpaceOnUse">
<stop stop-color="#5287C3" stop-opacity="0"/>
<stop offset="1" stop-color="#295281" stop-opacity="0.392"/>
</linearGradient>
<linearGradient id="paint5_linear_3990_23918" x1="31.2028" y1="26.8647" x2="31.2028" y2="51.7169" gradientUnits="userSpaceOnUse">
<stop stop-color="#CCE6FF" stop-opacity="0"/>
<stop offset="1" stop-color="#1D98FF"/>
</linearGradient>
<linearGradient id="paint6_linear_3990_23918" x1="24.8923" y1="30.8916" x2="20.1086" y2="46.2888" gradientUnits="userSpaceOnUse">
<stop stop-color="#D9D9D9" stop-opacity="0"/>
<stop offset="1" stop-color="#595959" stop-opacity="0.639"/>
</linearGradient>
<linearGradient id="paint7_linear_3990_23918" x1="34.1169" y1="34.7057" x2="34.9237" y2="31.0506" gradientUnits="userSpaceOnUse">
<stop stop-color="#F3F3F3" stop-opacity="0"/>
<stop offset="1" stop-color="white" stop-opacity="0.639"/>
</linearGradient>
</defs>
</svg>
