<svg width="92" height="19" viewBox="0 0 92 19" fill="none" xmlns="http://www.w3.org/2000/svg">
<path d="M79.3958 14.2042L82.1958 12.0458L84.9958 14.2042L83.9458 10.6458L86.5708 8.77917H83.3042L82.1958 5.1625L81.0875 8.77917H77.8208L80.4458 10.6458L79.3958 14.2042ZM82.1958 14.9625L77.8792 18.2583C77.6653 18.4333 77.4319 18.5158 77.1792 18.5057C76.9264 18.4963 76.7028 18.4236 76.5083 18.2875C76.3139 18.1514 76.1634 17.9667 76.0568 17.7333C75.9495 17.5 75.9444 17.2472 76.0417 16.975L77.7042 11.5792L73.475 8.575C73.2417 8.41944 73.0958 8.21528 73.0375 7.9625C72.9792 7.70972 72.9889 7.47639 73.0667 7.2625C73.1444 7.04861 73.2806 6.85883 73.475 6.69317C73.6694 6.52828 73.9028 6.44583 74.175 6.44583H79.3958L81.0875 0.845833C81.1847 0.573611 81.3356 0.364389 81.5402 0.218167C81.7439 0.0727225 81.9625 0 82.1958 0C82.4292 0 82.6477 0.0727225 82.8515 0.218167C83.0561 0.364389 83.2069 0.573611 83.3042 0.845833L84.9958 6.44583H90.2167C90.4889 6.44583 90.7222 6.52828 90.9167 6.69317C91.1111 6.85883 91.2472 7.04861 91.325 7.2625C91.4028 7.47639 91.4125 7.70972 91.3542 7.9625C91.2958 8.21528 91.15 8.41944 90.9167 8.575L86.6875 11.5792L88.35 16.975C88.4472 17.2472 88.4426 17.5 88.336 17.7333C88.2287 17.9667 88.0778 18.1514 87.8833 18.2875C87.6889 18.4236 87.4653 18.4963 87.2125 18.5057C86.9597 18.5158 86.7264 18.4333 86.5125 18.2583L82.1958 14.9625Z" fill="#FFBB54"/>
<path d="M10.0005 14.9625L5.68385 18.2583C5.46996 18.4333 5.23663 18.5158 4.98385 18.5057C4.73108 18.4963 4.50747 18.4236 4.31302 18.2875C4.11858 18.1514 3.96808 17.9667 3.86152 17.7333C3.75419 17.5 3.74913 17.2472 3.84635 16.975L5.50885 11.5792L1.27969 8.575C1.04635 8.41944 0.900521 8.21528 0.842187 7.9625C0.783854 7.70972 0.793576 7.47639 0.871354 7.2625C0.949132 7.04861 1.08524 6.85883 1.27969 6.69317C1.47413 6.52828 1.70747 6.44583 1.97969 6.44583H7.20052L8.89219 0.845833C8.98941 0.573611 9.1403 0.364389 9.34485 0.218167C9.54863 0.0727225 9.76719 0 10.0005 0C10.2339 0 10.4524 0.0727225 10.6562 0.218167C10.8607 0.364389 11.0116 0.573611 11.1089 0.845833L12.8005 6.44583H18.0214C18.2936 6.44583 18.5269 6.52828 18.7214 6.69317C18.9158 6.85883 19.0519 7.04861 19.1297 7.2625C19.2075 7.47639 19.2172 7.70972 19.1589 7.9625C19.1005 8.21528 18.9547 8.41944 18.7214 8.575L14.4922 11.5792L16.1547 16.975C16.2519 17.2472 16.2472 17.5 16.1407 17.7333C16.0334 17.9667 15.8825 18.1514 15.688 18.2875C15.4936 18.4236 15.27 18.4963 15.0172 18.5057C14.7644 18.5158 14.5311 18.4333 14.3172 18.2583L10.0005 14.9625Z" fill="#FFBB54"/>
<path d="M28.0005 14.9625L23.6839 18.2583C23.47 18.4333 23.2366 18.5158 22.9839 18.5057C22.7311 18.4963 22.5075 18.4236 22.313 18.2875C22.1186 18.1514 21.9681 17.9667 21.8615 17.7333C21.7542 17.5 21.7491 17.2472 21.8464 16.975L23.5089 11.5792L19.2797 8.575C19.0464 8.41944 18.9005 8.21528 18.8422 7.9625C18.7839 7.70972 18.7936 7.47639 18.8714 7.2625C18.9491 7.04861 19.0852 6.85883 19.2797 6.69317C19.4741 6.52828 19.7075 6.44583 19.9797 6.44583H25.2005L26.8922 0.845833C26.9894 0.573611 27.1403 0.364389 27.3449 0.218167C27.5486 0.0727225 27.7672 0 28.0005 0C28.2339 0 28.4524 0.0727225 28.6562 0.218167C28.8607 0.364389 29.0116 0.573611 29.1089 0.845833L30.8005 6.44583H36.0214C36.2936 6.44583 36.5269 6.52828 36.7214 6.69317C36.9158 6.85883 37.0519 7.04861 37.1297 7.2625C37.2075 7.47639 37.2172 7.70972 37.1589 7.9625C37.1005 8.21528 36.9547 8.41944 36.7214 8.575L32.4922 11.5792L34.1547 16.975C34.2519 17.2472 34.2472 17.5 34.1407 17.7333C34.0334 17.9667 33.8825 18.1514 33.688 18.2875C33.4936 18.4236 33.27 18.4963 33.0172 18.5057C32.7644 18.5158 32.5311 18.4333 32.3172 18.2583L28.0005 14.9625Z" fill="#FFBB54"/>
<path d="M46.0005 14.9625L41.6839 18.2583C41.47 18.4333 41.2366 18.5158 40.9839 18.5057C40.7311 18.4963 40.5075 18.4236 40.313 18.2875C40.1186 18.1514 39.9681 17.9667 39.8615 17.7333C39.7542 17.5 39.7491 17.2472 39.8464 16.975L41.5089 11.5792L37.2797 8.575C37.0464 8.41944 36.9005 8.21528 36.8422 7.9625C36.7839 7.70972 36.7936 7.47639 36.8714 7.2625C36.9491 7.04861 37.0852 6.85883 37.2797 6.69317C37.4741 6.52828 37.7075 6.44583 37.9797 6.44583H43.2005L44.8922 0.845833C44.9894 0.573611 45.1403 0.364389 45.3449 0.218167C45.5486 0.0727225 45.7672 0 46.0005 0C46.2339 0 46.4524 0.0727225 46.6562 0.218167C46.8607 0.364389 47.0116 0.573611 47.1089 0.845833L48.8005 6.44583H54.0214C54.2936 6.44583 54.5269 6.52828 54.7214 6.69317C54.9158 6.85883 55.0519 7.04861 55.1297 7.2625C55.2075 7.47639 55.2172 7.70972 55.1589 7.9625C55.1005 8.21528 54.9547 8.41944 54.7214 8.575L50.4922 11.5792L52.1547 16.975C52.2519 17.2472 52.2472 17.5 52.1407 17.7333C52.0334 17.9667 51.8825 18.1514 51.688 18.2875C51.4936 18.4236 51.27 18.4963 51.0172 18.5057C50.7644 18.5158 50.5311 18.4333 50.3172 18.2583L46.0005 14.9625Z" fill="#FFBB54"/>
<path d="M64.0005 14.9625L59.6839 18.2583C59.47 18.4333 59.2366 18.5158 58.9839 18.5057C58.7311 18.4963 58.5075 18.4236 58.313 18.2875C58.1186 18.1514 57.9681 17.9667 57.8615 17.7333C57.7542 17.5 57.7491 17.2472 57.8464 16.975L59.5089 11.5792L55.2797 8.575C55.0464 8.41944 54.9005 8.21528 54.8422 7.9625C54.7839 7.70972 54.7936 7.47639 54.8714 7.2625C54.9491 7.04861 55.0852 6.85883 55.2797 6.69317C55.4741 6.52828 55.7075 6.44583 55.9797 6.44583H61.2005L62.8922 0.845833C62.9894 0.573611 63.1403 0.364389 63.3449 0.218167C63.5486 0.0727225 63.7672 0 64.0005 0C64.2339 0 64.4524 0.0727225 64.6562 0.218167C64.8607 0.364389 65.0116 0.573611 65.1089 0.845833L66.8005 6.44583H72.0214C72.2936 6.44583 72.5269 6.52828 72.7214 6.69317C72.9158 6.85883 73.0519 7.04861 73.1297 7.2625C73.2075 7.47639 73.2172 7.70972 73.1589 7.9625C73.1005 8.21528 72.9547 8.41944 72.7214 8.575L68.4922 11.5792L70.1547 16.975C70.2519 17.2472 70.2472 17.5 70.1407 17.7333C70.0334 17.9667 69.8825 18.1514 69.688 18.2875C69.4936 18.4236 69.27 18.4963 69.0172 18.5057C68.7644 18.5158 68.5311 18.4333 68.3172 18.2583L64.0005 14.9625Z" fill="#FFBB54"/>
</svg>
