<svg width="92" height="19" viewBox="0 0 92 19" fill="none" xmlns="http://www.w3.org/2000/svg">
<path d="M10.0005 15.1832L5.68385 18.479C5.46996 18.654 5.23663 18.7365 4.98385 18.7264C4.73108 18.717 4.50747 18.6443 4.31302 18.5082C4.11858 18.3721 3.96808 18.1874 3.86152 17.954C3.75419 17.7207 3.74913 17.4679 3.84635 17.1957L5.50885 11.7999L1.27969 8.7957C1.04635 8.64015 0.900521 8.43598 0.842187 8.1832C0.783854 7.93043 0.793576 7.69709 0.871354 7.4832C0.949132 7.26931 1.08524 7.07954 1.27969 6.91387C1.47413 6.74898 1.70747 6.66654 1.97969 6.66654H7.20052L8.89219 1.06654C8.98941 0.794314 9.1403 0.585092 9.34485 0.43887C9.54863 0.293426 9.76719 0.220703 10.0005 0.220703C10.2339 0.220703 10.4524 0.293426 10.6562 0.43887C10.8607 0.585092 11.0116 0.794314 11.1089 1.06654L12.8005 6.66654H18.0214C18.2936 6.66654 18.5269 6.74898 18.7214 6.91387C18.9158 7.07954 19.0519 7.26931 19.1297 7.4832C19.2075 7.69709 19.2172 7.93043 19.1589 8.1832C19.1005 8.43598 18.9547 8.64015 18.7214 8.7957L14.4922 11.7999L16.1547 17.1957C16.2519 17.4679 16.2472 17.7207 16.1407 17.954C16.0334 18.1874 15.8825 18.3721 15.688 18.5082C15.4936 18.6443 15.27 18.717 15.0172 18.7264C14.7644 18.7365 14.5311 18.654 14.3172 18.479L10.0005 15.1832Z" fill="#FFBB54"/>
<path d="M28.0005 15.1832L23.6839 18.479C23.47 18.654 23.2366 18.7365 22.9839 18.7264C22.7311 18.717 22.5075 18.6443 22.313 18.5082C22.1186 18.3721 21.9681 18.1874 21.8615 17.954C21.7542 17.7207 21.7491 17.4679 21.8464 17.1957L23.5089 11.7999L19.2797 8.7957C19.0464 8.64015 18.9005 8.43598 18.8422 8.1832C18.7839 7.93043 18.7936 7.69709 18.8714 7.4832C18.9491 7.26931 19.0852 7.07954 19.2797 6.91387C19.4741 6.74898 19.7075 6.66654 19.9797 6.66654H25.2005L26.8922 1.06654C26.9894 0.794314 27.1403 0.585092 27.3449 0.43887C27.5486 0.293426 27.7672 0.220703 28.0005 0.220703C28.2339 0.220703 28.4524 0.293426 28.6562 0.43887C28.8607 0.585092 29.0116 0.794314 29.1089 1.06654L30.8005 6.66654H36.0214C36.2936 6.66654 36.5269 6.74898 36.7214 6.91387C36.9158 7.07954 37.0519 7.26931 37.1297 7.4832C37.2075 7.69709 37.2172 7.93043 37.1589 8.1832C37.1005 8.43598 36.9547 8.64015 36.7214 8.7957L32.4922 11.7999L34.1547 17.1957C34.2519 17.4679 34.2472 17.7207 34.1407 17.954C34.0334 18.1874 33.8825 18.3721 33.688 18.5082C33.4936 18.6443 33.27 18.717 33.0172 18.7264C32.7644 18.7365 32.5311 18.654 32.3172 18.479L28.0005 15.1832Z" fill="#FFBB54"/>
<path d="M46.0005 15.1832L41.6839 18.479C41.47 18.654 41.2366 18.7365 40.9839 18.7264C40.7311 18.717 40.5075 18.6443 40.313 18.5082C40.1186 18.3721 39.9681 18.1874 39.8615 17.954C39.7542 17.7207 39.7491 17.4679 39.8464 17.1957L41.5089 11.7999L37.2797 8.7957C37.0464 8.64015 36.9005 8.43598 36.8422 8.1832C36.7839 7.93043 36.7936 7.69709 36.8714 7.4832C36.9491 7.26931 37.0852 7.07954 37.2797 6.91387C37.4741 6.74898 37.7075 6.66654 37.9797 6.66654H43.2005L44.8922 1.06654C44.9894 0.794314 45.1403 0.585092 45.3449 0.43887C45.5486 0.293426 45.7672 0.220703 46.0005 0.220703C46.2339 0.220703 46.4524 0.293426 46.6562 0.43887C46.8607 0.585092 47.0116 0.794314 47.1089 1.06654L48.8005 6.66654H54.0214C54.2936 6.66654 54.5269 6.74898 54.7214 6.91387C54.9158 7.07954 55.0519 7.26931 55.1297 7.4832C55.2075 7.69709 55.2172 7.93043 55.1589 8.1832C55.1005 8.43598 54.9547 8.64015 54.7214 8.7957L50.4922 11.7999L52.1547 17.1957C52.2519 17.4679 52.2472 17.7207 52.1407 17.954C52.0334 18.1874 51.8825 18.3721 51.688 18.5082C51.4936 18.6443 51.27 18.717 51.0172 18.7264C50.7644 18.7365 50.5311 18.654 50.3172 18.479L46.0005 15.1832Z" fill="#FFBB54"/>
<path d="M64.0005 15.1832L59.6839 18.479C59.47 18.654 59.2366 18.7365 58.9839 18.7264C58.7311 18.717 58.5075 18.6443 58.313 18.5082C58.1186 18.3721 57.9681 18.1874 57.8615 17.954C57.7542 17.7207 57.7491 17.4679 57.8464 17.1957L59.5089 11.7999L55.2797 8.7957C55.0464 8.64015 54.9005 8.43598 54.8422 8.1832C54.7839 7.93043 54.7936 7.69709 54.8714 7.4832C54.9491 7.26931 55.0852 7.07954 55.2797 6.91387C55.4741 6.74898 55.7075 6.66654 55.9797 6.66654H61.2005L62.8922 1.06654C62.9894 0.794314 63.1403 0.585092 63.3449 0.43887C63.5486 0.293426 63.7672 0.220703 64.0005 0.220703C64.2339 0.220703 64.4524 0.293426 64.6562 0.43887C64.8607 0.585092 65.0116 0.794314 65.1089 1.06654L66.8005 6.66654H72.0214C72.2936 6.66654 72.5269 6.74898 72.7214 6.91387C72.9158 7.07954 73.0519 7.26931 73.1297 7.4832C73.2075 7.69709 73.2172 7.93043 73.1589 8.1832C73.1005 8.43598 72.9547 8.64015 72.7214 8.7957L68.4922 11.7999L70.1547 17.1957C70.2519 17.4679 70.2472 17.7207 70.1407 17.954C70.0334 18.1874 69.8825 18.3721 69.688 18.5082C69.4936 18.6443 69.27 18.717 69.0172 18.7264C68.7644 18.7365 68.5311 18.654 68.3172 18.479L64.0005 15.1832Z" fill="#FFBB54"/>
<path d="M82.0005 15.1832L77.6839 18.479C77.47 18.654 77.2366 18.7365 76.9839 18.7264C76.7311 18.717 76.5075 18.6443 76.313 18.5082C76.1186 18.3721 75.9681 18.1874 75.8615 17.954C75.7542 17.7207 75.7491 17.4679 75.8464 17.1957L77.5089 11.7999L73.2797 8.7957C73.0464 8.64015 72.9005 8.43598 72.8422 8.1832C72.7839 7.93043 72.7936 7.69709 72.8714 7.4832C72.9491 7.26931 73.0852 7.07954 73.2797 6.91387C73.4741 6.74898 73.7075 6.66654 73.9797 6.66654H79.2005L80.8922 1.06654C80.9894 0.794314 81.1403 0.585092 81.3449 0.43887C81.5486 0.293426 81.7672 0.220703 82.0005 0.220703C82.2339 0.220703 82.4524 0.293426 82.6562 0.43887C82.8607 0.585092 83.0116 0.794314 83.1089 1.06654L84.8005 6.66654H90.0214C90.2936 6.66654 90.5269 6.74898 90.7214 6.91387C90.9158 7.07954 91.0519 7.26931 91.1297 7.4832C91.2075 7.69709 91.2172 7.93043 91.1589 8.1832C91.1005 8.43598 90.9547 8.64015 90.7214 8.7957L86.4922 11.7999L88.1547 17.1957C88.2519 17.4679 88.2472 17.7207 88.1407 17.954C88.0334 18.1874 87.8825 18.3721 87.688 18.5082C87.4936 18.6443 87.27 18.717 87.0172 18.7264C86.7644 18.7365 86.5311 18.654 86.3172 18.479L82.0005 15.1832Z" fill="#FFBB54"/>
</svg>
