<svg width="90" height="90" viewBox="0 0 90 90" fill="none" xmlns="http://www.w3.org/2000/svg">
<path d="M54.3753 16.875V73.8938C54.3853 74.6249 54.1764 75.3423 53.7754 75.9537C53.3745 76.5651 52.7998 77.0427 52.1253 77.325C50.679 77.9027 49.1942 78.3789 47.6816 78.75C41.8805 80.0583 35.9468 80.6876 30.0003 80.625C24.0538 80.6876 18.1202 80.0583 12.3191 78.75C10.8065 78.3789 9.32167 77.9027 7.87534 77.325C7.20086 77.0427 6.62621 76.5651 6.22527 75.9537C5.82432 75.3423 5.61539 74.6249 5.62534 73.8938V16.875C5.62534 12.7313 16.5378 9.375 30.0003 9.375C43.4628 9.375 54.3753 12.7313 54.3753 16.875Z" fill="#4AA7F0"/>
<path d="M30 24.375C43.4619 24.375 54.375 21.0171 54.375 16.875C54.375 12.7329 43.4619 9.375 30 9.375C16.5381 9.375 5.625 12.7329 5.625 16.875C5.625 21.0171 16.5381 24.375 30 24.375Z" fill="#B3D9FF"/>
<path d="M30.0024 21.5625C18.6118 21.5625 11.708 19.2281 9.32866 17.6419C9.20337 17.557 9.10078 17.4427 9.02987 17.309C8.95895 17.1754 8.92188 17.0263 8.92188 16.875C8.92188 16.7237 8.95895 16.5746 9.02987 16.441C9.10078 16.3073 9.20337 16.193 9.32866 16.1081C11.708 14.5219 18.6118 12.1875 30.0024 12.1875C41.393 12.1875 48.2968 14.5219 50.6762 16.1081C50.8015 16.193 50.904 16.3073 50.975 16.441C51.0459 16.5746 51.0829 16.7237 51.0829 16.875C51.0829 17.0263 51.0459 17.1754 50.975 17.309C50.904 17.4427 50.8015 17.557 50.6762 17.6419C48.2968 19.2281 41.393 21.5625 30.0024 21.5625Z" fill="#4AA7F0"/>
<path d="M54.375 28.125V33.1125C52.3094 34.2258 50.1015 35.0522 47.8125 35.5687C41.9714 36.9098 35.9927 37.558 30 37.5C24.0011 37.5568 18.0163 36.9087 12.1687 35.5687C9.88561 35.0525 7.68392 34.2261 5.625 33.1125V28.125C5.625 28.7625 7.44375 30.5063 13.0875 31.9313C18.633 33.2056 24.3103 33.8162 30 33.75C35.6897 33.8162 41.367 33.2056 46.9125 31.9313C52.5563 30.5063 54.375 28.7625 54.375 28.125ZM54.375 39.375V44.3625C52.3094 45.4758 50.1015 46.3022 47.8125 46.8187C41.9714 48.1598 35.9927 48.808 30 48.75C24.0011 48.8068 18.0163 48.1587 12.1687 46.8187C9.88561 46.3025 7.68392 45.4761 5.625 44.3625V39.375C5.625 40.0125 7.44375 41.7563 13.0875 43.1813C18.633 44.4556 24.3103 45.0662 30 45C35.6897 45.0662 41.367 44.4556 46.9125 43.1813C52.5563 41.7563 54.375 40.0125 54.375 39.375ZM54.375 50.625V55.6125C52.3161 56.7261 50.1144 57.5525 47.8313 58.0687C41.9837 59.4087 35.9989 60.0568 30 60C24.0011 60.0568 18.0163 59.4087 12.1687 58.0687C9.88561 57.5525 7.68392 56.7261 5.625 55.6125V50.625C5.625 51.2625 7.44375 53.0062 13.0875 54.4312C18.633 55.7056 24.3103 56.3162 30 56.25C35.6897 56.3162 41.367 55.7056 46.9125 54.4312C52.5563 53.0062 54.375 51.2625 54.375 50.625ZM54.375 61.875V66.8625C52.3161 67.9761 50.1144 68.8025 47.8313 69.3187C41.9837 70.6587 35.9989 71.3068 30 71.25C24.0011 71.3068 18.0163 70.6587 12.1687 69.3187C9.88561 68.8025 7.68392 67.9761 5.625 66.8625V61.875C5.625 62.5125 7.44375 64.2562 13.0875 65.6812C18.633 66.9556 24.3103 67.5662 30 67.5C35.6897 67.5662 41.367 66.9556 46.9125 65.6812C52.5563 64.2562 54.375 62.5125 54.375 61.875Z" fill="#B3D9FF"/>
<path d="M54.3753 71.25V73.8937C54.3853 74.6249 54.1764 75.3422 53.7754 75.9537C53.3745 76.5651 52.7998 77.0427 52.1253 77.325C50.679 77.9027 49.1942 78.3789 47.6816 78.75C41.8805 80.0583 35.9468 80.6876 30.0003 80.625C24.0538 80.6876 18.1202 80.0583 12.3191 78.75C10.8065 78.3789 9.32167 77.9027 7.87534 77.325C7.20086 77.0427 6.62621 76.5651 6.22527 75.9537C5.82432 75.3422 5.61539 74.6249 5.62534 73.8937V71.25C5.62534 72.9375 13.9128 76.875 30.0003 76.875C46.0878 76.875 54.3753 72.9375 54.3753 71.25Z" fill="#B3D9FF"/>
<path d="M28.125 15.4688V17.8125H24.375V15.4688C24.375 15.21 23.5369 15 22.5 15C21.4631 15 20.625 15.21 20.625 15.4688V16.4063H18.75C17.715 16.4063 16.875 16.6163 16.875 16.875C16.875 17.1338 17.715 17.3438 18.75 17.3438H20.625V18.2813C20.625 18.54 21.4631 18.75 22.5 18.75H30C31.0369 18.75 31.875 18.54 31.875 18.2813V15.9375H35.625V18.2813C35.625 18.54 36.4631 18.75 37.5 18.75C38.5369 18.75 39.375 18.54 39.375 18.2813V17.3438H41.25C42.2869 17.3438 43.125 17.1338 43.125 16.875C43.125 16.6163 42.2869 16.4063 41.25 16.4063H39.375V15.4688C39.375 15.21 38.5369 15 37.5 15H30C28.9631 15 28.125 15.21 28.125 15.4688Z" fill="#E9F5FF"/>
<path d="M60 80.625C73.4619 80.625 84.375 69.7119 84.375 56.25C84.375 42.7881 73.4619 31.875 60 31.875C46.5381 31.875 35.625 42.7881 35.625 56.25C35.625 69.7119 46.5381 80.625 60 80.625Z" fill="#B3D9FF"/>
<path d="M60 76.875C71.3909 76.875 80.625 67.6409 80.625 56.25C80.625 44.8591 71.3909 35.625 60 35.625C48.6091 35.625 39.375 44.8591 39.375 56.25C39.375 67.6409 48.6091 76.875 60 76.875Z" fill="#4AA7F0"/>
<path d="M65.625 54.375H56.25V50.625H65.625C66.1223 50.625 66.5992 50.4275 66.9508 50.0758C67.3025 49.7242 67.5 49.2473 67.5 48.75C67.5 48.2527 67.3025 47.7758 66.9508 47.4242C66.5992 47.0725 66.1223 46.875 65.625 46.875H61.875V45C61.875 44.5027 61.6775 44.0258 61.3258 43.6742C60.9742 43.3225 60.4973 43.125 60 43.125C59.5027 43.125 59.0258 43.3225 58.6742 43.6742C58.3225 44.0258 58.125 44.5027 58.125 45V46.875H54.375C53.8777 46.875 53.4008 47.0725 53.0492 47.4242C52.6975 47.7758 52.5 48.2527 52.5 48.75V56.25C52.5 56.7473 52.6975 57.2242 53.0492 57.5758C53.4008 57.9275 53.8777 58.125 54.375 58.125H63.75V61.875H54.375C53.8777 61.875 53.4008 62.0725 53.0492 62.4242C52.6975 62.7758 52.5 63.2527 52.5 63.75C52.5 64.2473 52.6975 64.7242 53.0492 65.0758C53.4008 65.4275 53.8777 65.625 54.375 65.625H58.125V67.5C58.125 67.9973 58.3225 68.4742 58.6742 68.8258C59.0258 69.1775 59.5027 69.375 60 69.375C60.4973 69.375 60.9742 69.1775 61.3258 68.8258C61.6775 68.4742 61.875 67.9973 61.875 67.5V65.625H65.625C66.1223 65.625 66.5992 65.4275 66.9508 65.0758C67.3025 64.7242 67.5 64.2473 67.5 63.75V56.25C67.5 55.7527 67.3025 55.2758 66.9508 54.9242C66.5992 54.5725 66.1223 54.375 65.625 54.375Z" fill="white"/>
</svg>
