<svg width="90" height="90" viewBox="0 0 90 90" fill="none" xmlns="http://www.w3.org/2000/svg">
<path d="M45 69.375C58.4619 69.375 69.375 58.4619 69.375 45C69.375 31.5381 58.4619 20.625 45 20.625C31.5381 20.625 20.625 31.5381 20.625 45C20.625 58.4619 31.5381 69.375 45 69.375Z" fill="#4AA7F0"/>
<path d="M60.0031 45C60.0033 42.4932 59.853 39.9887 59.5531 37.5H68.1781C67.7716 36.2063 67.2508 34.9514 66.6219 33.75H59.0094C58.3811 30.2329 57.4719 26.7718 56.2906 23.4C54.7906 22.6051 53.2056 21.9824 51.5656 21.5437C53.1865 25.4795 54.4052 29.569 55.2031 33.75H46.8781V20.7188C45.6312 20.5938 44.375 20.5938 43.1281 20.7188V33.75H34.8031C35.601 29.569 36.8197 25.4795 38.4406 21.5437C36.8007 21.9824 35.2156 22.6051 33.7156 23.4C32.5343 26.7718 31.6252 30.2329 30.9969 33.75H23.3844C22.7554 34.9514 22.2346 36.2063 21.8281 37.5H30.4531C29.8531 42.482 29.8531 47.518 30.4531 52.5H21.8281C22.2346 53.7937 22.7554 55.0486 23.3844 56.25H30.9969C31.6252 59.7671 32.5343 63.2282 33.7156 66.6C35.2156 67.3949 36.8007 68.0176 38.4406 68.4562C36.8197 64.5205 35.601 60.431 34.8031 56.25H43.1281V69.3C43.7469 69.3562 44.3656 69.375 45.0031 69.375C45.6406 69.375 46.2594 69.3562 46.8781 69.3V56.25H55.2031C54.4052 60.431 53.1865 64.5205 51.5656 68.4562C53.2056 68.0176 54.7906 67.3949 56.2906 66.6C57.4719 63.2282 58.3811 59.7671 59.0094 56.25H66.6219C67.2508 55.0486 67.7716 53.7937 68.1781 52.5H59.5531C59.853 50.0113 60.0033 47.5068 60.0031 45ZM34.2219 52.5C33.5969 47.5195 33.5969 42.4805 34.2219 37.5H43.1281V52.5H34.2219ZM46.8781 52.5V37.5H55.7844C56.0998 39.9875 56.2564 42.4926 56.2531 45C56.2564 47.5074 56.0998 50.0125 55.7844 52.5H46.8781Z" fill="#B3D9FF"/>
<path d="M86.8431 22.5957C86.3715 22.4383 85.8566 22.4748 85.4118 22.697C84.967 22.9192 84.6287 23.309 84.4713 23.7807L82.5194 29.6382C79.4371 21.5614 73.8351 14.6924 66.5433 10.0487C59.2515 5.40505 50.6578 3.23375 42.0353 3.85651C33.4129 4.47926 25.2204 7.86294 18.6716 13.5063C12.1227 19.1496 7.56595 26.7523 5.67627 35.1882C5.56065 35.672 5.64198 36.182 5.90236 36.6059C6.16275 37.0298 6.58085 37.3329 7.06471 37.4485C7.54856 37.5641 8.05853 37.4828 8.48242 37.2224C8.90631 36.962 9.2094 36.5439 9.32502 36.06C11.031 28.3941 15.1651 21.4833 21.1128 16.3548C27.0605 11.2263 34.5044 8.15392 42.3379 7.59431C50.1714 7.0347 57.9763 9.01774 64.5927 13.2487C71.209 17.4796 76.2835 23.7326 79.0619 31.0782L72.2894 26.5632C71.8756 26.2977 71.3741 26.2054 70.893 26.3061C70.4118 26.4068 69.9894 26.6924 69.7168 27.1015C69.4441 27.5106 69.343 28.0104 69.4353 28.4932C69.5276 28.9761 69.8058 29.4034 70.21 29.6832L81.46 37.1832C81.6996 37.3419 81.9725 37.4433 82.2576 37.4798C82.5427 37.5162 82.8324 37.4866 83.1042 37.3933C83.376 37.3 83.6227 37.1454 83.8253 36.9415C84.0279 36.7377 84.1809 36.4899 84.2725 36.2175L88.0225 24.9675C88.1801 24.4966 88.1445 23.9824 87.9233 23.5377C87.7022 23.093 87.3138 22.7542 86.8431 22.5957ZM82.9356 52.5507C82.4531 52.4379 81.9456 52.5208 81.524 52.7812C81.1024 53.0415 80.801 53.4581 80.6856 53.94C78.983 61.6106 74.8495 68.5266 68.9002 73.659C62.9508 78.7915 55.5034 81.8661 47.666 82.4254C39.8287 82.9848 32.0201 80.999 25.4022 76.7635C18.7842 72.5281 13.7104 66.2692 10.9356 58.9182L17.71 63.435C17.9149 63.5717 18.1447 63.6667 18.3862 63.7145C18.6278 63.7624 18.8764 63.7622 19.1179 63.714C19.3594 63.6657 19.589 63.5704 19.7937 63.4334C19.9983 63.2965 20.174 63.1205 20.3106 62.9157C20.4473 62.7108 20.5423 62.481 20.5901 62.2395C20.638 61.9979 20.6378 61.7493 20.5896 61.5078C20.5413 61.2663 20.446 61.0367 20.309 60.832C20.1721 60.6274 19.9961 60.4517 19.7913 60.315L8.54127 52.815C8.30153 52.6564 8.02851 52.555 7.74333 52.5187C7.45814 52.4823 7.16842 52.5121 6.89657 52.6056C6.62472 52.6991 6.37801 52.8539 6.17552 53.058C5.97302 53.2621 5.82017 53.51 5.72877 53.7825L1.97877 65.0325C1.82163 65.5049 1.85859 66.0204 2.08153 66.4656C2.30446 66.9108 2.6951 67.2491 3.16752 67.4063C3.63994 67.5634 4.15543 67.5265 4.60059 67.3035C5.04576 67.0806 5.38413 66.69 5.54127 66.2175L7.47065 60.3938C10.5606 68.4664 16.1677 75.3295 23.4619 79.9674C30.756 84.6052 39.3497 86.7713 47.9707 86.1449C56.5917 85.5185 64.782 82.133 71.3292 76.4896C77.8764 70.8461 82.4325 63.2445 84.3231 54.81C84.4387 54.3264 84.3575 53.8167 84.0973 53.393C83.8371 52.9693 83.4192 52.6663 82.9356 52.5507Z" fill="#B3D9FF"/>
</svg>
