<svg width="174" height="136" viewBox="0 0 174 136" fill="none" xmlns="http://www.w3.org/2000/svg">
<path fill-rule="evenodd" clip-rule="evenodd" d="M173.436 38.7246C173.436 34.84 170.05 31.6865 165.88 31.6865H40.9707C36.8 31.6865 33.4141 34.84 33.4141 38.7246V128.446C33.4141 132.33 36.8 135.484 40.9707 135.484H165.88C170.05 135.484 173.436 132.33 173.436 128.446V38.7246Z" fill="url(#paint0_linear_4045_25059)"/>
<path fill-rule="evenodd" clip-rule="evenodd" d="M40.0547 51.6077H165.271V124.97C165.271 127.21 163.322 129.026 160.917 129.026H46.0421C42.7353 129.026 40.0547 126.529 40.0547 123.449V51.6077Z" fill="white"/>
<mask id="mask0_4045_25059" style="mask-type:luminance" maskUnits="userSpaceOnUse" x="40" y="51" width="126" height="79">
<path d="M40.0547 51.6077H165.271V124.97C165.271 127.21 163.322 129.026 160.917 129.026H46.0421C42.7353 129.026 40.0547 126.529 40.0547 123.449V51.6077Z" fill="white"/>
</mask>
<g mask="url(#mask0_4045_25059)">
<path d="M151.034 57.2241H50.4062V76.6623H151.034V57.2241Z" fill="#DCF0FF"/>
<path d="M83.3679 80.6863H51.2031V96.8612H83.3679V80.6863Z" fill="#DCF0FF"/>
<path d="M119.054 103.42H51.2031V123.127H119.054V103.42Z" fill="#DCF0FF"/>
<path d="M150.781 103.42H123.141V123.127H150.781V103.42Z" fill="#DCF0FF"/>
<path d="M115.911 80.7969H88.0156V86.5953H115.911V80.7969Z" fill="#DCF0FF"/>
<path d="M151.1 90.73H87.7734V96.9399H151.1V90.73Z" fill="#DCF0FF"/>
</g>
<path d="M56.5872 44.5502C58.5554 44.5502 60.1509 43.0641 60.1509 41.231C60.1509 39.3979 58.5554 37.9119 56.5872 37.9119C54.619 37.9119 53.0234 39.3979 53.0234 41.231C53.0234 43.0641 54.619 44.5502 56.5872 44.5502Z" fill="#005BBB"/>
<path d="M46.3294 44.5502C48.2975 44.5502 49.8931 43.0641 49.8931 41.231C49.8931 39.3979 48.2975 37.9119 46.3294 37.9119C44.3612 37.9119 42.7656 39.3979 42.7656 41.231C42.7656 43.0641 44.3612 44.5502 46.3294 44.5502Z" fill="#4AA7F0"/>
<path d="M66.8293 44.5502C68.7975 44.5502 70.3931 43.0641 70.3931 41.231C70.3931 39.3979 68.7975 37.9119 66.8293 37.9119C64.8612 37.9119 63.2656 39.3979 63.2656 41.231C63.2656 43.0641 64.8612 44.5502 66.8293 44.5502Z" fill="#4AA7F0"/>
<path fill-rule="evenodd" clip-rule="evenodd" d="M143.479 41.0095C143.479 39.3265 142.011 37.9597 140.204 37.9597H105.931C104.123 37.9597 102.656 39.3265 102.656 41.0095V41.5003C102.656 43.1834 104.123 44.5502 105.931 44.5502H140.204C142.011 44.5502 143.479 43.1834 143.479 41.5003V41.0095Z" fill="#DCF0FF"/>
<path fill-rule="evenodd" clip-rule="evenodd" d="M166.157 47.9842C166.157 46.2885 164.679 44.9124 162.859 44.9124H158.314C156.494 44.9124 155.016 46.2885 155.016 47.9842V48.4783C155.016 50.1735 156.494 51.5502 158.314 51.5502H162.859C164.679 51.5502 166.157 50.1735 166.157 48.4783V47.9842Z" fill="#DCF0FF"/>
<path fill-rule="evenodd" clip-rule="evenodd" d="M165.8 28.2678C165.8 24.3837 162.414 21.2297 158.243 21.2297H31.8379C27.6671 21.2297 24.2812 24.3837 24.2812 28.2678V119.13C24.2812 123.015 27.6671 126.168 31.8379 126.168H158.243C162.414 126.168 165.8 123.015 165.8 119.13V28.2678Z" fill="#DCF0FF" fill-opacity="0.161"/>
<path fill-rule="evenodd" clip-rule="evenodd" d="M158.741 21.9946C158.741 18.1101 155.355 14.9565 151.184 14.9565H26.2754C22.1046 14.9565 18.7188 18.1101 18.7188 21.9946V111.716C18.7188 115.601 22.1046 118.754 26.2754 118.754H151.184C155.355 118.754 158.741 115.601 158.741 111.716V21.9946Z" fill="url(#paint1_linear_4045_25059)"/>
<path fill-rule="evenodd" clip-rule="evenodd" d="M25.3594 34.8777H150.575V108.241C150.575 110.48 148.626 112.296 146.221 112.296H31.3463C28.04 112.296 25.3594 109.799 25.3594 106.72V34.8777Z" fill="white"/>
<mask id="mask1_4045_25059" style="mask-type:luminance" maskUnits="userSpaceOnUse" x="25" y="34" width="126" height="79">
<path d="M25.3594 34.8777H150.575V108.241C150.575 110.48 148.626 112.296 146.221 112.296H31.3463C28.04 112.296 25.3594 109.799 25.3594 106.72V34.8777Z" fill="white"/>
</mask>
<g mask="url(#mask1_4045_25059)">
<path d="M136.339 40.4941H35.7109V59.9324H136.339V40.4941Z" fill="#DCF0FF"/>
<path d="M68.6726 63.9563H36.5078V80.1312H68.6726V63.9563Z" fill="#DCF0FF"/>
<path d="M104.359 86.6897H36.5078V106.397H104.359V86.6897Z" fill="#DCF0FF"/>
<path d="M136.086 86.6897H108.445V106.397H136.086V86.6897Z" fill="#DCF0FF"/>
<path d="M101.216 64.0674H73.3203V69.8658H101.216V64.0674Z" fill="#DCF0FF"/>
<path d="M136.405 74.0005H73.0781V80.2104H136.405V74.0005Z" fill="#DCF0FF"/>
</g>
<path d="M41.8919 27.8207C43.86 27.8207 45.4556 26.3346 45.4556 24.5015C45.4556 22.6684 43.86 21.1824 41.8919 21.1824C39.9237 21.1824 38.3281 22.6684 38.3281 24.5015C38.3281 26.3346 39.9237 27.8207 41.8919 27.8207Z" fill="#005BBB"/>
<path d="M31.634 27.8207C33.6022 27.8207 35.1978 26.3346 35.1978 24.5015C35.1978 22.6684 33.6022 21.1824 31.634 21.1824C29.6659 21.1824 28.0703 22.6684 28.0703 24.5015C28.0703 26.3346 29.6659 27.8207 31.634 27.8207Z" fill="#4AA7F0"/>
<path d="M52.134 27.8207C54.1022 27.8207 55.6978 26.3346 55.6978 24.5015C55.6978 22.6684 54.1022 21.1824 52.134 21.1824C50.1658 21.1824 48.5703 22.6684 48.5703 24.5015C48.5703 26.3346 50.1658 27.8207 52.134 27.8207Z" fill="#4AA7F0"/>
<path fill-rule="evenodd" clip-rule="evenodd" d="M128.784 24.2796C128.784 22.5965 127.316 21.2297 125.509 21.2297H91.2355C89.4279 21.2297 87.9609 22.5965 87.9609 24.2796V24.7704C87.9609 26.4539 89.4279 27.8202 91.2355 27.8202H125.509C127.316 27.8202 128.784 26.4539 128.784 24.7704V24.2796Z" fill="#DCF0FF"/>
<path fill-rule="evenodd" clip-rule="evenodd" d="M151.461 24.2543C151.461 22.559 149.983 21.1824 148.163 21.1824H143.618C141.798 21.1824 140.32 22.559 140.32 24.2543V24.7483C140.32 26.444 141.798 27.8202 143.618 27.8202H148.163C149.983 27.8202 151.461 26.444 151.461 24.7483V24.2543Z" fill="#DCF0FF"/>
<path fill-rule="evenodd" clip-rule="evenodd" d="M147.292 14.0737C147.292 10.1892 143.906 7.03564 139.736 7.03564H13.3301C9.15933 7.03564 5.77344 10.1892 5.77344 14.0737V104.936C5.77344 108.82 9.15933 111.974 13.3301 111.974H139.736C143.906 111.974 147.292 108.82 147.292 104.936V14.0737Z" fill="#DCF0FF" fill-opacity="0.161"/>
<path fill-rule="evenodd" clip-rule="evenodd" d="M140.233 7.80028C140.233 3.91573 136.847 0.762207 132.676 0.762207H7.76761C3.59683 0.762207 0.210938 3.91573 0.210938 7.80028V97.5216C0.210938 101.406 3.59683 104.56 7.76761 104.56H132.676C136.847 104.56 140.233 101.406 140.233 97.5216V7.80028Z" fill="url(#paint2_linear_4045_25059)"/>
<path fill-rule="evenodd" clip-rule="evenodd" d="M6.85156 20.6836H132.068V94.0461C132.068 96.2861 130.118 98.1019 127.713 98.1019H12.8385C9.53217 98.1019 6.85156 95.6053 6.85156 92.5254V20.6836Z" fill="white"/>
<mask id="mask2_4045_25059" style="mask-type:luminance" maskUnits="userSpaceOnUse" x="6" y="20" width="127" height="79">
<path d="M6.85156 20.6836H132.068V94.0461C132.068 96.2861 130.118 98.1019 127.713 98.1019H12.8385C9.53217 98.1019 6.85156 95.6053 6.85156 92.5254V20.6836Z" fill="white"/>
</mask>
<g mask="url(#mask2_4045_25059)">
<path d="M128.463 26.3H12.4922V45.7383H128.463V26.3Z" fill="#DCF0FF"/>
<path d="M50.4836 49.7622H13.4141V65.9371H50.4836V49.7622Z" fill="#DCF0FF"/>
<path d="M91.6105 72.4956H13.4141V92.2031H91.6105V72.4956Z" fill="#DCF0FF"/>
<path d="M128.167 72.4956H96.3125V92.2031H128.167V72.4956Z" fill="#DCF0FF"/>
<path d="M87.9851 49.8728H55.8359V55.6712H87.9851V49.8728Z" fill="#DCF0FF"/>
<path d="M128.544 59.8059H55.5625V66.0158H128.544V59.8059Z" fill="#DCF0FF"/>
</g>
<path d="M23.384 13.6261C25.3522 13.6261 26.9478 12.1401 26.9478 10.3069C26.9478 8.47383 25.3522 6.98779 23.384 6.98779C21.4158 6.98779 19.8203 8.47383 19.8203 10.3069C19.8203 12.1401 21.4158 13.6261 23.384 13.6261Z" fill="#4AA7F0"/>
<path d="M13.1262 13.6261C15.0944 13.6261 16.69 12.1401 16.69 10.3069C16.69 8.47383 15.0944 6.98779 13.1262 6.98779C11.158 6.98779 9.5625 8.47383 9.5625 10.3069C9.5625 12.1401 11.158 13.6261 13.1262 13.6261Z" fill="white"/>
<path d="M33.6262 13.6261C35.5944 13.6261 37.19 12.1401 37.19 10.3069C37.19 8.47383 35.5944 6.98779 33.6262 6.98779C31.658 6.98779 30.0625 8.47383 30.0625 10.3069C30.0625 12.1401 31.658 13.6261 33.6262 13.6261Z" fill="#005BBB"/>
<path fill-rule="evenodd" clip-rule="evenodd" d="M110.276 10.0855C110.276 8.40244 108.808 7.03564 107.001 7.03564H72.7277C70.9201 7.03564 69.4531 8.40244 69.4531 10.0855V10.5763C69.4531 12.2593 70.9201 13.6261 72.7277 13.6261H107.001C108.808 13.6261 110.276 12.2593 110.276 10.5763V10.0855Z" fill="white"/>
<path fill-rule="evenodd" clip-rule="evenodd" d="M132.954 10.0606C132.954 8.36493 131.475 6.98828 129.654 6.98828H125.111C123.291 6.98828 121.812 8.36493 121.812 10.0606V10.5533C121.812 12.249 123.291 13.6261 125.111 13.6261H129.654C131.475 13.6261 132.954 12.249 132.954 10.5533V10.0606Z" fill="white"/>
<path fill-rule="evenodd" clip-rule="evenodd" d="M84.3038 95.2887C82.9839 95.2887 81.7139 95.8653 81.2156 96.6883C80.8806 97.2434 80.9355 97.8669 81.3834 98.5937C83.0549 101.301 84.4101 104.32 85.8459 107.518C87.461 111.114 89.13 114.835 91.464 118.645C94.4056 123.45 95.8857 126.131 96.5879 127.481L117.899 127.477C118.544 126.379 119.763 124.385 122.106 120.602C126.84 112.956 126.647 105.149 126.644 105.071L126.626 97.5704C126.626 97.5136 126.629 97.4597 126.634 97.4043C126.645 97.2565 126.913 93.5883 124.151 93.005C123.924 92.9572 123.712 92.9337 123.522 92.9337C123.206 92.9337 122.25 92.9337 121.737 94.8246C121.644 95.4444 121.544 95.8325 121.544 95.8325C121.3 96.7695 120.334 97.371 119.336 97.2223C118.329 97.0674 117.618 96.2135 117.698 95.2539C117.704 95.169 117.746 94.7359 117.892 94.1396C118.128 92.3472 117.876 90.8204 117.21 90.0467C116.949 89.7417 116.466 89.3321 115.292 89.2533C113.723 89.1524 112.65 89.4119 112.439 91.299L112.515 93.0876C112.557 94.0533 111.807 94.8884 110.791 94.9992C109.78 95.131 108.843 94.469 108.647 93.5184C108.624 93.4076 108.432 92.4321 108.524 91.2117L108.475 90.0542C108.467 89.8754 108.488 89.6972 108.533 89.525C108.533 89.525 108.855 88.1126 108.166 87.2775C107.588 86.5812 106.346 86.424 105.405 86.4141H105.403C104.157 86.4141 103.008 86.7046 102.624 88.7625L102.732 92.4345C102.76 93.3926 102.014 94.2118 101.011 94.3254C100.002 94.4544 99.0776 93.8074 98.8675 92.8699C98.8489 92.7803 98.3975 90.7186 98.7088 88.5312L98.3275 75.4718C98.3244 75.4127 98.326 75.3545 98.33 75.2968C98.3557 74.8402 98.2635 73.4617 97.5275 72.7133C97.1461 72.3272 96.5879 72.1329 95.8192 72.124C93.0403 72.124 92.8791 75.126 92.8685 75.469L92.5859 97.9922C92.5738 98.8795 91.9003 99.6344 90.9789 99.7935C90.0625 99.9446 89.1471 99.4674 88.8096 98.6397C87.5763 95.6157 85.2479 95.2887 84.3038 95.2887Z" fill="#4AA7F0" fill-opacity="0.52"/>
<path fill-rule="evenodd" clip-rule="evenodd" d="M83.5602 91.532C82.4403 91.532 81.3637 92.0195 80.9406 92.7149C80.6569 93.1836 80.7028 93.7105 81.0826 94.3247C82.5008 96.6112 83.6504 99.1622 84.868 101.863C86.2378 104.902 87.6539 108.045 89.6338 111.263C92.129 115.323 93.3839 117.589 93.9799 118.729L112.056 118.726C112.603 117.798 113.637 116.113 115.625 112.917C119.64 106.458 119.476 99.8618 119.474 99.7961L119.458 93.46C119.458 93.4121 119.46 93.3666 119.465 93.3197C119.475 93.1949 119.702 90.0958 117.359 89.6031C117.167 89.5628 116.986 89.5431 116.826 89.5431C116.557 89.5431 115.747 89.5431 115.312 91.1402C115.233 91.6643 115.148 91.9914 115.148 91.9914C114.941 92.7834 114.121 93.2915 113.275 93.1658C112.421 93.0349 111.818 92.3137 111.885 91.5029C111.891 91.4316 111.926 91.0656 112.05 90.5617C112.251 89.0471 112.036 87.7573 111.471 87.1041C111.25 86.8461 110.84 86.4998 109.845 86.4336C108.514 86.3482 107.604 86.5678 107.425 88.1617L107.49 89.673C107.525 90.489 106.889 91.1942 106.028 91.288C105.17 91.3992 104.375 90.8399 104.209 90.0367C104.188 89.9433 104.026 89.1189 104.104 88.0881L104.062 87.1102C104.055 86.9596 104.073 86.8085 104.112 86.6631C104.112 86.6631 104.385 85.4704 103.8 84.7647C103.31 84.1763 102.256 84.0435 101.458 84.0351H101.457C100.4 84.0351 99.4257 84.2805 99.0998 86.0189L99.191 89.1212C99.2151 89.9306 98.5824 90.6227 97.731 90.7184C96.8756 90.8277 96.0912 90.2811 95.9134 89.4891C95.8978 89.4131 95.5144 87.6714 95.7789 85.8237L95.4549 74.7908C95.4529 74.7406 95.4539 74.6918 95.4575 74.643C95.4791 74.2573 95.401 73.0927 94.7769 72.4607C94.4529 72.1342 93.9799 71.9699 93.328 71.9629C90.9703 71.9629 90.8338 74.4989 90.8252 74.7884L90.5849 93.8166C90.5753 94.5659 90.0035 95.204 89.2217 95.3382C88.4444 95.4658 87.668 95.0628 87.3819 94.3632C86.336 91.8088 84.3607 91.532 83.5602 91.532Z" fill="white"/>
<path fill-rule="evenodd" clip-rule="evenodd" d="M92.9335 121.856C92.261 121.856 91.6555 121.472 91.4011 120.886C91.3824 120.844 90.5255 118.939 86.7733 112.834C84.6912 109.448 83.1673 106.068 81.8237 103.087C80.6489 100.48 79.5401 98.018 78.2278 95.9043C77.2519 94.3305 77.196 92.6015 78.0716 91.1587C79.0877 89.4855 81.2434 88.4045 83.5658 88.4045C84.9477 88.4045 86.2283 88.7663 87.3315 89.4349L87.5184 74.729C87.5759 72.6753 88.8529 68.8335 93.2807 68.8335C94.9497 68.856 96.2786 69.3801 97.2247 70.3486C98.799 71.9603 98.798 74.2373 98.7749 74.7652L98.9678 81.3523C99.6842 81.0582 100.503 80.9066 101.413 80.9066C103.735 80.9305 105.398 81.5884 106.438 82.8665C106.674 83.1546 106.86 83.4539 107.005 83.7551C107.868 83.3892 108.863 83.2292 110.082 83.3136C111.744 83.4234 113.114 84.0503 114.044 85.1257C114.476 85.6277 114.784 86.1889 114.999 86.7703C115.897 86.394 116.953 86.3118 118.084 86.5497C122.178 87.4102 122.944 91.4384 122.777 93.5169L122.791 99.7452C122.8 100.006 122.982 107.272 118.488 114.499C115.423 119.43 114.749 120.59 114.603 120.854C114.54 121.009 114.448 121.156 114.332 121.289C113.997 121.668 113.475 121.888 112.957 121.853L92.9335 121.856ZM83.5658 91.5317C82.4459 91.5317 81.3693 92.0192 80.9461 92.7146C80.6625 93.1833 80.7084 93.7103 81.0882 94.3244C82.5063 96.6109 83.656 99.1619 84.8736 101.863C86.2434 104.902 87.6595 108.045 89.6393 111.263C92.1346 115.323 93.3895 117.589 93.9854 118.728L112.062 118.725C112.609 117.797 113.642 116.112 115.63 112.917C119.645 106.458 119.482 99.8615 119.479 99.7958L119.464 93.4597C119.464 93.4118 119.466 93.3663 119.471 93.3194C119.481 93.1946 119.707 90.0955 117.364 89.6028C117.173 89.5625 116.992 89.5428 116.831 89.5428C116.563 89.5428 115.752 89.5428 115.317 91.14C115.238 91.6641 115.153 91.9911 115.153 91.9911C114.946 92.7831 114.127 93.2913 113.28 93.1655C112.427 93.0346 111.824 92.3134 111.891 91.5027C111.896 91.4313 111.932 91.0654 112.056 90.5614C112.256 89.0468 112.042 87.757 111.477 87.1039C111.255 86.8458 110.846 86.4995 109.85 86.4334C108.519 86.348 107.61 86.5676 107.43 88.1614L107.495 89.6728C107.531 90.4887 106.894 91.1939 106.033 91.2878C105.175 91.399 104.38 90.8397 104.214 90.0364C104.194 89.943 104.031 89.1186 104.109 88.0878L104.068 87.11C104.061 86.9593 104.079 86.8083 104.117 86.6628C104.117 86.6628 104.39 85.4701 103.806 84.7644C103.316 84.176 102.262 84.0432 101.464 84.0348H101.463C100.406 84.0348 99.4313 84.2802 99.1053 86.0186L99.1965 89.121C99.2207 89.9303 98.588 90.6224 97.7366 90.7181C96.8812 90.8275 96.0968 90.2808 95.9189 89.4888C95.9033 89.4128 95.52 87.6711 95.7844 85.8234L95.4605 74.7905C95.4585 74.7403 95.4595 74.6915 95.463 74.6427C95.4847 74.257 95.4066 73.0925 94.7824 72.4604C94.4585 72.1339 93.9854 71.9697 93.3336 71.9626C90.9759 71.9626 90.8393 74.4987 90.8308 74.7882L90.5905 93.8163C90.5809 94.5656 90.0091 95.2037 89.2273 95.3379C88.4499 95.4656 87.6736 95.0625 87.3875 94.3629C86.3416 91.8086 84.3663 91.5317 83.5658 91.5317Z" fill="#4AA7F0"/>
<defs>
<linearGradient id="paint0_linear_4045_25059" x1="170.358" y1="72.4004" x2="170.358" y2="186.558" gradientUnits="userSpaceOnUse">
<stop stop-color="#EFF6FF"/>
<stop offset="1" stop-color="#B6E0FF"/>
</linearGradient>
<linearGradient id="paint1_linear_4045_25059" x1="155.741" y1="39.777" x2="155.741" y2="161.211" gradientUnits="userSpaceOnUse">
<stop stop-color="#DBEDFF"/>
<stop offset="1" stop-color="#86CBFF"/>
</linearGradient>
<linearGradient id="paint2_linear_4045_25059" x1="118.529" y1="59.2767" x2="118.529" y2="150.221" gradientUnits="userSpaceOnUse">
<stop stop-color="#ADD7FF"/>
<stop offset="1" stop-color="#178DE6"/>
</linearGradient>
</defs>
</svg>
