<svg width="90" height="90" viewBox="0 0 90 90" fill="none" xmlns="http://www.w3.org/2000/svg">
<path d="M45 84C66.5391 84 84 66.5391 84 45C84 23.4609 66.5391 6 45 6C23.4609 6 6 23.4609 6 45C6 66.5391 23.4609 84 45 84Z" fill="#B3D9FF"/>
<path d="M44.8605 76.4363C62.2969 76.4363 76.4319 62.3013 76.4319 44.8649C76.4319 27.4285 62.2969 13.2935 44.8605 13.2935C27.4241 13.2935 13.2891 27.4285 13.2891 44.8649C13.2891 62.3013 27.4241 76.4363 44.8605 76.4363Z" fill="#4AA7F0"/>
<path d="M37.6256 59.2364V62.8208C37.6256 63.2165 37.9495 63.5377 38.3486 63.5377H41.2403C41.4321 63.5377 41.6159 63.4622 41.7515 63.3277C41.8871 63.1933 41.9633 63.0109 41.9633 62.8208V59.2364H43.4091V62.8208C43.4091 63.2165 43.733 63.5377 44.1321 63.5377H47.0238C47.2155 63.5377 47.3994 63.4622 47.535 63.3277C47.6706 63.1933 47.7467 63.0109 47.7467 62.8208V59.2364H47.9897C53.75 59.2364 57.8679 56.2742 57.8679 51.1499C57.8679 46.8429 54.9559 44.4887 51.5465 44.1532V43.9008C54.3515 43.2069 56.4133 41.1078 56.4133 37.6209C56.4133 33.2279 53.0878 30.5611 48.0128 30.5611H47.7467V26.9766C47.7467 26.7865 47.6706 26.6042 47.535 26.4697C47.3994 26.3353 47.2155 26.2598 47.0238 26.2598H44.1321C43.9403 26.2598 43.7565 26.3353 43.6209 26.4697C43.4853 26.6042 43.4091 26.7865 43.4091 26.9766V30.5611H41.7522V26.9766C41.7522 26.7865 41.676 26.6042 41.5404 26.4697C41.4048 26.3353 41.221 26.2598 41.0292 26.2598H38.3486C38.1568 26.2598 37.973 26.3353 37.8374 26.4697C37.7018 26.6042 37.6256 26.7865 37.6256 26.9766V30.5611L31.8479 30.5926C31.6562 30.5926 31.4723 30.6681 31.3367 30.8026C31.2012 30.937 31.125 31.1194 31.125 31.3095V34.1455C31.125 34.5383 31.4431 34.8624 31.8422 34.8624L34.0254 34.848C34.5981 34.8518 35.1461 35.0801 35.5497 35.483C35.9533 35.8859 36.1798 36.4308 36.1798 36.9987V52.7844C36.1798 53.3548 35.9513 53.9019 35.5445 54.3052C35.1378 54.7085 34.5862 54.9351 34.011 54.9351L31.8479 54.9666C31.6562 54.9666 31.4723 55.0422 31.3367 55.1766C31.2012 55.311 31.125 55.4934 31.125 55.6835V58.551C31.125 58.9468 31.4489 59.2679 31.8479 59.2679L37.6256 59.2364ZM41.7522 34.8251H46.7231C49.343 34.8251 50.8814 36.2531 50.8814 38.5873C50.8814 41.0849 49.2186 42.4929 45.4536 42.4929H41.7522V34.8251ZM41.7522 46.4415H47.073C50.3609 46.4415 52.1509 48.1046 52.1509 50.8116C52.1509 53.5443 50.3406 54.9695 45.9105 54.9695H41.7522V46.4415Z" fill="white"/>
</svg>
