<svg width="110" height="110" viewBox="0 0 110 110" fill="none" xmlns="http://www.w3.org/2000/svg">
<path d="M66.4588 20.6249V90.3145C66.4709 91.2081 66.2156 92.0849 65.7255 92.8322C65.2355 93.5795 64.5331 94.1632 63.7087 94.5083C61.941 95.2143 60.1262 95.7963 58.2775 96.2499C51.1872 97.849 43.935 98.618 36.6671 98.5416C29.3991 98.618 22.1469 97.849 15.0567 96.2499C13.208 95.7963 11.3932 95.2143 9.62541 94.5083C8.80105 94.1632 8.09871 93.5795 7.60866 92.8322C7.11861 92.0849 6.86326 91.2081 6.87541 90.3145V20.6249C6.87541 15.5603 20.2129 11.4583 36.6671 11.4583C53.1213 11.4583 66.4588 15.5603 66.4588 20.6249Z" fill="#4AA7F0"/>
<path d="M36.6667 29.7916C53.1201 29.7916 66.4583 25.6875 66.4583 20.6249C66.4583 15.5623 53.1201 11.4583 36.6667 11.4583C20.2132 11.4583 6.875 15.5623 6.875 20.6249C6.875 25.6875 20.2132 29.7916 36.6667 29.7916Z" fill="#B3D9FF"/>
<path d="M36.6635 26.3541C22.7417 26.3541 14.3037 23.501 11.3956 21.5622C11.2425 21.4585 11.1171 21.3188 11.0304 21.1554C10.9438 20.992 10.8984 20.8099 10.8984 20.6249C10.8984 20.44 10.9438 20.2578 11.0304 20.0944C11.1171 19.931 11.2425 19.7914 11.3956 19.6876C14.3037 17.7489 22.7417 14.8958 36.6635 14.8958C50.5854 14.8958 59.0233 17.7489 61.9314 19.6876C62.0846 19.7914 62.21 19.931 62.2966 20.0944C62.3833 20.2578 62.4286 20.44 62.4286 20.6249C62.4286 20.8099 62.3833 20.992 62.2966 21.1554C62.21 21.3188 62.0846 21.4585 61.9314 21.5622C59.0233 23.501 50.5854 26.3541 36.6635 26.3541Z" fill="#4AA7F0"/>
<path d="M66.4583 34.375V40.4708C63.9336 41.8315 61.2352 42.8416 58.4375 43.4729C51.2984 45.112 43.9911 45.9042 36.6667 45.8333C29.3347 45.9028 22.02 45.1106 14.8729 43.4729C12.0824 42.842 9.39145 41.8319 6.875 40.4708V34.375C6.875 35.1542 9.09792 37.2854 15.9958 39.0271C22.7737 40.5847 29.7126 41.3309 36.6667 41.25C43.6207 41.3309 50.5597 40.5847 57.3375 39.0271C64.2354 37.2854 66.4583 35.1542 66.4583 34.375ZM66.4583 48.125V54.2208C63.9336 55.5815 61.2352 56.5916 58.4375 57.2229C51.2984 58.862 43.9911 59.6542 36.6667 59.5833C29.3347 59.6528 22.02 58.8606 14.8729 57.2229C12.0824 56.592 9.39145 55.5819 6.875 54.2208V48.125C6.875 48.9042 9.09792 51.0354 15.9958 52.7771C22.7737 54.3347 29.7126 55.0809 36.6667 55C43.6207 55.0809 50.5597 54.3347 57.3375 52.7771C64.2354 51.0354 66.4583 48.9042 66.4583 48.125ZM66.4583 61.875V67.9708C63.9419 69.3319 61.2509 70.342 58.4604 70.9729C51.3134 72.6106 43.9986 73.4028 36.6667 73.3333C29.3347 73.4028 22.02 72.6106 14.8729 70.9729C12.0824 70.342 9.39145 69.3319 6.875 67.9708V61.875C6.875 62.6542 9.09792 64.7854 15.9958 66.5271C22.7737 68.0847 29.7126 68.8309 36.6667 68.75C43.6207 68.8309 50.5597 68.0847 57.3375 66.5271C64.2354 64.7854 66.4583 62.6542 66.4583 61.875ZM66.4583 75.625V81.7208C63.9419 83.0819 61.2509 84.092 58.4604 84.7229C51.3134 86.3606 43.9986 87.1528 36.6667 87.0833C29.3347 87.1528 22.02 86.3606 14.8729 84.7229C12.0824 84.092 9.39145 83.0819 6.875 81.7208V75.625C6.875 76.4042 9.09792 78.5354 15.9958 80.2771C22.7737 81.8347 29.7126 82.5809 36.6667 82.5C43.6207 82.5809 50.5597 81.8347 57.3375 80.2771C64.2354 78.5354 66.4583 76.4042 66.4583 75.625Z" fill="#B3D9FF"/>
<path d="M66.4588 87.0833V90.3145C66.4709 91.2081 66.2156 92.0849 65.7255 92.8322C65.2355 93.5795 64.5331 94.1632 63.7087 94.5083C61.941 95.2143 60.1262 95.7963 58.2775 96.2499C51.1872 97.849 43.935 98.618 36.6671 98.5416C29.3991 98.618 22.1469 97.849 15.0567 96.2499C13.208 95.7963 11.3932 95.2143 9.62541 94.5083C8.80105 94.1632 8.09871 93.5795 7.60866 92.8322C7.11861 92.0849 6.86326 91.2081 6.87541 90.3145V87.0833C6.87541 89.1458 17.0046 93.9583 36.6671 93.9583C56.3296 93.9583 66.4588 89.1458 66.4588 87.0833Z" fill="#B3D9FF"/>
<path d="M34.375 18.9062V21.7708H29.7917V18.9062C29.7917 18.5899 28.7673 18.3333 27.5 18.3333C26.2327 18.3333 25.2083 18.5899 25.2083 18.9062V20.052H22.9167C21.6517 20.052 20.625 20.3087 20.625 20.6249C20.625 20.9412 21.6517 21.1978 22.9167 21.1978H25.2083V22.3437C25.2083 22.6599 26.2327 22.9166 27.5 22.9166H36.6667C37.934 22.9166 38.9583 22.6599 38.9583 22.3437V19.4791H43.5417V22.3437C43.5417 22.6599 44.566 22.9166 45.8333 22.9166C47.1006 22.9166 48.125 22.6599 48.125 22.3437V21.1978H50.4167C51.684 21.1978 52.7083 20.9412 52.7083 20.6249C52.7083 20.3087 51.684 20.052 50.4167 20.052H48.125V18.9062C48.125 18.5899 47.1006 18.3333 45.8333 18.3333H36.6667C35.3994 18.3333 34.375 18.5899 34.375 18.9062Z" fill="#E9F5FF"/>
<path d="M73.3307 98.5416C89.7842 98.5416 103.122 85.2034 103.122 68.7499C103.122 52.2964 89.7842 38.9583 73.3307 38.9583C56.8772 38.9583 43.5391 52.2964 43.5391 68.7499C43.5391 85.2034 56.8772 98.5416 73.3307 98.5416Z" fill="#B3D9FF"/>
<path d="M73.3333 93.9584C87.2555 93.9584 98.5417 82.6723 98.5417 68.7501C98.5417 54.8279 87.2555 43.5417 73.3333 43.5417C59.4112 43.5417 48.125 54.8279 48.125 68.7501C48.125 82.6723 59.4112 93.9584 73.3333 93.9584Z" fill="#4AA7F0"/>
<path d="M80.2057 66.4583H68.7474V61.8749H80.2057C80.8135 61.8749 81.3964 61.6335 81.8262 61.2037C82.256 60.7739 82.4974 60.191 82.4974 59.5833C82.4974 58.9755 82.256 58.3926 81.8262 57.9628C81.3964 57.533 80.8135 57.2916 80.2057 57.2916H75.6224V54.9999C75.6224 54.3921 75.381 53.8092 74.9512 53.3795C74.5214 52.9497 73.9385 52.7083 73.3307 52.7083C72.7229 52.7083 72.14 52.9497 71.7103 53.3795C71.2805 53.8092 71.0391 54.3921 71.0391 54.9999V57.2916H66.4557C65.8479 57.2916 65.265 57.533 64.8353 57.9628C64.4055 58.3926 64.1641 58.9755 64.1641 59.5833V68.7499C64.1641 69.3577 64.4055 69.9406 64.8353 70.3704C65.265 70.8001 65.8479 71.0416 66.4557 71.0416H77.9141V75.6249H66.4557C65.8479 75.6249 65.265 75.8664 64.8353 76.2961C64.4055 76.7259 64.1641 77.3088 64.1641 77.9166C64.1641 78.5244 64.4055 79.1073 64.8353 79.537C65.265 79.9668 65.8479 80.2083 66.4557 80.2083H71.0391V82.4999C71.0391 83.1077 71.2805 83.6906 71.7103 84.1204C72.14 84.5501 72.7229 84.7916 73.3307 84.7916C73.9385 84.7916 74.5214 84.5501 74.9512 84.1204C75.381 83.6906 75.6224 83.1077 75.6224 82.4999V80.2083H80.2057C80.8135 80.2083 81.3964 79.9668 81.8262 79.537C82.256 79.1073 82.4974 78.5244 82.4974 77.9166V68.7499C82.4974 68.1421 82.256 67.5592 81.8262 67.1295C81.3964 66.6997 80.8135 66.4583 80.2057 66.4583Z" fill="#E9F5FF"/>
</svg>
