<svg width="90" height="90" viewBox="0 0 90 90" fill="none" xmlns="http://www.w3.org/2000/svg">
<path d="M62.3625 71.7375L66.1744 75.5494C66.526 75.9009 67.0028 76.0983 67.5 76.0983C67.9972 76.0983 68.474 75.9009 68.8256 75.5494L75.5494 68.8256C75.9009 68.474 76.0983 67.9972 76.0983 67.5C76.0983 67.0028 75.9009 66.526 75.5494 66.1744L71.7375 62.3625C73.7023 59.3386 75.1414 56.004 75.9937 52.5H82.5C82.9973 52.5 83.4742 52.3025 83.8258 51.9508C84.1775 51.5992 84.375 51.1223 84.375 50.625V39.375C84.375 38.8777 84.1775 38.4008 83.8258 38.0492C83.4742 37.6975 82.9973 37.5 82.5 37.5H75.9937C75.1414 33.996 73.7023 30.6614 71.7375 27.6375L75.5494 23.8256C75.9009 23.474 76.0983 22.9972 76.0983 22.5C76.0983 22.0028 75.9009 21.526 75.5494 21.1744L68.8256 14.4506C68.474 14.0991 67.9972 13.9017 67.5 13.9017C67.0028 13.9017 66.526 14.0991 66.1744 14.4506L62.3625 18.2625C59.3386 16.2977 56.004 14.8586 52.5 14.0062V7.5C52.5 7.00272 52.3025 6.52581 51.9508 6.17417C51.5992 5.82254 51.1223 5.625 50.625 5.625H39.375C38.8777 5.625 38.4008 5.82254 38.0492 6.17417C37.6975 6.52581 37.5 7.00272 37.5 7.5V14.0062C33.996 14.8586 30.6614 16.2977 27.6375 18.2625L23.8256 14.4506C23.474 14.0991 22.9972 13.9017 22.5 13.9017C22.0028 13.9017 21.526 14.0991 21.1744 14.4506L14.4506 21.1744C14.0991 21.526 13.9017 22.0028 13.9017 22.5C13.9017 22.9972 14.0991 23.474 14.4506 23.8256L18.2625 27.6375C16.2977 30.6614 14.8586 33.996 14.0062 37.5H7.5C7.00272 37.5 6.52581 37.6975 6.17417 38.0492C5.82254 38.4008 5.625 38.8777 5.625 39.375V50.625C5.625 51.1223 5.82254 51.5992 6.17417 51.9508C6.52581 52.3025 7.00272 52.5 7.5 52.5H14.0062C14.8586 56.004 16.2977 59.3386 18.2625 62.3625L14.4506 66.1744C14.0991 66.526 13.9017 67.0028 13.9017 67.5C13.9017 67.9972 14.0991 68.474 14.4506 68.8256L21.1744 75.5494C21.526 75.9009 22.0028 76.0983 22.5 76.0983C22.9972 76.0983 23.474 75.9009 23.8256 75.5494L27.6375 71.7375C30.6614 73.7023 33.996 75.1414 37.5 75.9937V82.5C37.5 82.9973 37.6975 83.4742 38.0492 83.8258C38.4008 84.1775 38.8777 84.375 39.375 84.375H50.625C51.1223 84.375 51.5992 84.1775 51.9508 83.8258C52.3025 83.4742 52.5 82.9973 52.5 82.5V75.9937C56.004 75.1414 59.3386 73.7023 62.3625 71.7375Z" fill="#4AA7F0"/>
<path d="M50.5234 31.2188C50.5234 28.8888 48.005 27 44.8984 27C41.7918 27 39.2734 28.8888 39.2734 31.2188V34.0312C39.2734 36.3612 41.7918 38.25 44.8984 38.25C48.005 38.25 50.5234 36.3612 50.5234 34.0312V31.2188Z" fill="white"/>
<path d="M45 43.6023C48.481 43.6023 51.8194 44.9851 54.2808 47.4465C56.7422 49.9079 58.125 53.2463 58.125 56.7273V62.3523H31.875V56.7273C31.875 53.2463 33.2578 49.9079 35.7192 47.4465C38.1806 44.9851 41.519 43.6023 45 43.6023Z" fill="white"/>
</svg>
