<svg width="90" height="90" viewBox="0 0 90 90" fill="none" xmlns="http://www.w3.org/2000/svg">
<path d="M44.9996 78.75C44.5023 78.75 44.0254 78.5525 43.6738 78.2008C43.3221 77.8492 43.1246 77.3723 43.1246 76.875V56.25C43.1246 55.7527 43.3221 55.2758 43.6738 54.9242C44.0254 54.5725 44.5023 54.375 44.9996 54.375C45.4969 54.375 45.9738 54.5725 46.3254 54.9242C46.6771 55.2758 46.8746 55.7527 46.8746 56.25V76.875C46.8746 77.3723 46.6771 77.8492 46.3254 78.2008C45.9738 78.5525 45.4969 78.75 44.9996 78.75ZM14.9996 78.75C14.6288 78.7499 14.2664 78.6399 13.9581 78.4339C13.6498 78.2278 13.4096 77.935 13.2677 77.5925C13.1258 77.2499 13.0887 76.873 13.161 76.5093C13.2333 76.1457 13.4118 75.8116 13.674 75.5494L22.4996 66.7237V56.25C22.4996 55.7527 22.6971 55.2758 23.0488 54.9242C23.4004 54.5725 23.8773 54.375 24.3746 54.375C24.8719 54.375 25.3488 54.5725 25.7004 54.9242C26.0521 55.2758 26.2496 55.7527 26.2496 56.25V67.5C26.2495 67.9972 26.0519 68.4741 25.7002 68.8256L16.3252 78.2006C15.9737 78.5523 15.4968 78.7499 14.9996 78.75ZM74.9996 78.75C74.5024 78.7499 74.0255 78.5523 73.674 78.2006L64.299 68.8256C63.9473 68.4741 63.7497 67.9972 63.7496 67.5V56.25C63.7496 55.7527 63.9471 55.2758 64.2988 54.9242C64.6504 54.5725 65.1273 54.375 65.6246 54.375C66.1219 54.375 66.5988 54.5725 66.9504 54.9242C67.3021 55.2758 67.4996 55.7527 67.4996 56.25V66.7237L76.3252 75.5494C76.5874 75.8116 76.7659 76.1457 76.8382 76.5093C76.9105 76.873 76.8734 77.2499 76.7315 77.5925C76.5896 77.935 76.3494 78.2278 76.0411 78.4339C75.7328 78.6399 75.3704 78.7499 74.9996 78.75Z" fill="#B3D9FF"/>
<path d="M65.3649 31.3874C65.5376 30.3085 65.6254 29.2176 65.6274 28.1249C65.594 22.7975 63.5005 17.6897 59.7854 13.8713C56.0702 10.0529 51.0216 7.82019 45.6971 7.64085C40.3726 7.46151 35.1853 9.34944 31.2216 12.9092C27.2579 16.4689 24.8254 21.4243 24.4337 26.7374C22.3722 26.1986 20.2196 26.1052 18.1192 26.4634C16.0188 26.8215 14.0187 27.6231 12.2523 28.8146C10.4859 30.0062 8.99362 31.5604 7.87482 33.3738C6.75602 35.1871 6.03639 37.218 5.76384 39.3313C5.4913 41.4445 5.6721 43.5915 6.2942 45.6294C6.9163 47.6673 7.96543 49.5493 9.37172 51.15C10.778 52.7508 12.5092 54.0335 14.45 54.9129C16.3908 55.7923 18.4967 56.2481 20.6274 56.2499H71.2524C73.232 56.2478 75.1855 55.7979 76.9665 54.9339C78.7476 54.07 80.3102 52.8143 81.5374 51.261C82.7645 49.7076 83.6243 47.8968 84.0525 45.9641C84.4808 44.0314 84.4662 42.0268 84.0101 40.1005C83.5539 38.1742 82.668 36.3761 81.4185 34.8406C80.169 33.3052 78.5884 32.0723 76.795 31.2342C75.0016 30.3961 73.0418 29.9746 71.0624 30.0011C69.083 30.0276 67.1352 30.5016 65.3649 31.3874Z" fill="#4AA7F0"/>
<path d="M45 82.5C47.0711 82.5 48.75 80.8211 48.75 78.75C48.75 76.6789 47.0711 75 45 75C42.9289 75 41.25 76.6789 41.25 78.75C41.25 80.8211 42.9289 82.5 45 82.5Z" fill="#144DA4"/>
<path d="M13.125 82.5C15.1961 82.5 16.875 80.8211 16.875 78.75C16.875 76.6789 15.1961 75 13.125 75C11.0539 75 9.375 76.6789 9.375 78.75C9.375 80.8211 11.0539 82.5 13.125 82.5Z" fill="#144DA4"/>
<path d="M76.875 82.5C78.9461 82.5 80.625 80.8211 80.625 78.75C80.625 76.6789 78.9461 75 76.875 75C74.8039 75 73.125 76.6789 73.125 78.75C73.125 80.8211 74.8039 82.5 76.875 82.5Z" fill="#144DA4"/>
</svg>
