<svg width="222" height="243" viewBox="0 0 222 243" fill="none" xmlns="http://www.w3.org/2000/svg">
<path d="M106.898 113.951C109.416 112.456 112.549 112.456 115.067 113.951L220.064 176.293C221.374 177.071 221.368 178.97 220.053 179.739L115.021 241.164C112.526 242.623 109.439 242.623 106.944 241.164L1.91222 179.739C0.596825 178.97 0.590523 177.071 1.90082 176.293L106.898 113.951Z" fill="url(#paint0_radial_3907_24048)" fill-opacity="0.05"/>
<path d="M108.438 68.8643C110.089 68.3098 111.877 68.3098 113.529 68.8643L221.039 104.952V135.299C221.039 136.014 220.658 136.674 220.039 137.031L114.984 197.699C112.508 199.129 109.458 199.129 106.983 197.699L1.92949 137.033C1.31079 136.676 0.929688 136.016 0.929688 135.301V104.952L108.438 68.8643Z" fill="url(#paint1_linear_3907_24048)"/>
<path d="M106.898 40.9506C109.416 39.4557 112.549 39.4557 115.067 40.9506L220.064 103.293C221.374 104.071 221.368 105.97 220.053 106.739L115.021 168.164C112.526 169.623 109.439 169.623 106.944 168.164L1.91222 106.739C0.596825 105.97 0.590523 104.071 1.90082 103.293L106.898 40.9506Z" fill="url(#paint2_linear_3907_24048)"/>
<path d="M107.126 45.0534C109.644 43.558 112.778 43.558 115.296 45.0534L213.31 103.262C214.62 104.04 214.613 105.938 213.298 106.708L115.25 164.061C112.755 165.52 109.667 165.52 107.171 164.061L9.12301 106.708C7.80781 105.938 7.80151 104.04 9.11161 103.262L107.126 45.0534Z" fill="url(#paint3_linear_3907_24048)"/>
<path d="M107.127 69.8486C109.644 68.3538 112.778 68.3538 115.295 69.8486L195.211 117.299L115.25 164.062C112.755 165.521 109.667 165.521 107.172 164.062L27.2109 117.299L107.127 69.8486Z" fill="url(#paint4_linear_3907_24048)"/>
<path d="M106.874 2.00289C109.407 0.484692 112.57 0.484893 115.102 2.00339L221.047 65.5327V70.3261C221.047 71.0333 220.674 71.688 220.065 72.0478L115.028 134.138C112.534 135.613 109.437 135.623 106.933 134.165L1.92359 73.0461C1.30819 72.6879 0.929688 72.0296 0.929688 71.3175V65.5155L106.874 2.00289Z" fill="url(#paint5_linear_3907_24048)"/>
<path d="M106.898 1.42629C109.416 -0.0686102 112.549 -0.0686102 115.067 1.42629L220.064 63.7685C221.374 64.5464 221.368 66.4453 220.053 67.2146L115.021 128.639C112.526 130.098 109.439 130.098 106.944 128.639L1.91222 67.2146C0.596825 66.4453 0.590523 64.5464 1.90082 63.7685L106.898 1.42629Z" fill="url(#paint6_linear_3907_24048)"/>
<path d="M78.9622 44.5238C78.9622 44.5238 37.2883 64.759 82.9012 86.818" stroke="white" stroke-width="3"/>
<path d="M78.8516 84.466C113.847 110.731 148.352 84.776 148.352 84.776" stroke="white" stroke-width="3"/>
<path d="M114.482 64.2774L79.2812 85.058" stroke="white" stroke-width="3"/>
<path d="M141.297 26.3162L110.021 7.83409C109.546 7.55319 108.775 7.55319 108.299 7.83409L61.3097 35.6022C60.8343 35.8831 60.8343 36.3387 61.3097 36.6197L92.5852 55.1017C93.0612 55.3827 93.8322 55.3827 94.3072 55.1017L141.297 27.3337C141.772 27.0527 141.772 26.5972 141.297 26.3162Z" fill="#333D5E"/>
<path d="M175.484 46.4184L144.209 27.9363C143.733 27.6554 142.962 27.6554 142.487 27.9363L95.4969 55.7044C95.0219 55.9853 95.0219 56.4409 95.4969 56.7219L126.773 75.2039C127.248 75.4849 128.019 75.4849 128.495 75.2039L175.484 47.4359C175.96 47.1549 175.96 46.6994 175.484 46.4184Z" fill="#333D5E"/>
<path d="M209.695 66.5743L178.42 48.0922C177.944 47.8113 177.173 47.8113 176.698 48.0922L129.708 75.8603C129.233 76.1412 129.233 76.5968 129.708 76.8778L160.984 95.36C161.459 95.641 162.23 95.641 162.706 95.36L209.695 67.5918C210.171 67.3109 210.171 66.8553 209.695 66.5743Z" fill="#333D5E"/>
<path d="M108.351 9.55329C108.777 9.34719 109.385 9.33609 109.832 9.52629L137.641 21.3486L138.118 26.0636C138.139 26.269 138.01 26.4698 137.764 26.6153L94.399 52.241C93.924 52.522 93.153 52.522 92.678 52.241L64.8488 35.7957C64.6028 35.6503 64.4738 35.4497 64.4943 35.2445L64.9678 30.5118L108.351 9.55329Z" fill="url(#paint7_linear_3907_24048)"/>
<path d="M108.351 9.55329C108.777 9.34719 109.385 9.33609 109.832 9.52629L137.641 21.3486L138.118 26.0636C138.139 26.269 138.01 26.4698 137.764 26.6153L94.399 52.241C93.924 52.522 93.153 52.522 92.678 52.241L64.8488 35.7957C64.6028 35.6503 64.4738 35.4497 64.4943 35.2445L64.9678 30.5118L108.351 9.55329Z" fill="url(#paint8_linear_3907_24048)"/>
<path d="M142.507 29.7374C142.934 29.5313 143.541 29.5201 143.989 29.7101L171.792 41.5157L172.274 46.2476C172.295 46.4531 172.166 46.654 171.92 46.7996L128.556 72.4252C128.08 72.7062 127.309 72.7062 126.834 72.4252L99.0047 55.9803C98.7587 55.8347 98.6297 55.6336 98.6507 55.428L99.1366 50.6976L142.507 29.7374Z" fill="url(#paint9_linear_3907_24048)"/>
<path d="M142.507 29.7374C142.934 29.5313 143.541 29.5201 143.989 29.7101L171.792 41.5157L172.274 46.2476C172.295 46.4531 172.166 46.654 171.92 46.7996L128.556 72.4252C128.08 72.7062 127.309 72.7062 126.834 72.4252L99.0047 55.9803C98.7587 55.8347 98.6297 55.6336 98.6507 55.428L99.1366 50.6976L142.507 29.7374Z" fill="url(#paint10_linear_3907_24048)"/>
<path d="M176.673 49.9213C177.099 49.7153 177.706 49.704 178.153 49.8935L205.951 61.6744L206.439 66.4316C206.46 66.6372 206.331 66.8382 206.084 66.9839L162.72 92.609C162.245 92.89 161.474 92.89 160.998 92.609L133.169 76.1639C132.923 76.0186 132.794 75.8181 132.815 75.6129L133.285 70.8917L176.673 49.9213Z" fill="url(#paint11_linear_3907_24048)"/>
<path d="M176.673 49.9213C177.099 49.7153 177.706 49.704 178.153 49.8935L205.951 61.6744L206.439 66.4316C206.46 66.6372 206.331 66.8382 206.084 66.9839L162.72 92.609C162.245 92.89 161.474 92.89 160.998 92.609L133.169 76.1639C132.923 76.0186 132.794 75.8181 132.815 75.6129L133.285 70.8917L176.673 49.9213Z" fill="url(#paint12_linear_3907_24048)"/>
<path d="M137.293 20.7117L109.938 4.54649C109.463 4.26559 108.692 4.26559 108.216 4.54649L65.3254 29.8922C64.8499 30.1732 64.8499 30.6287 65.3254 30.9097L92.6806 47.0748C93.1556 47.3558 93.9266 47.3558 94.4026 47.0748L137.293 21.7292C137.768 21.4482 137.768 20.9926 137.293 20.7117Z" fill="#4AA7F0"/>
<path d="M171.448 40.8955L144.093 24.7303C143.618 24.4494 142.847 24.4494 142.371 24.7303L99.4812 50.076C99.0062 50.357 99.0062 50.8125 99.4812 51.0935L126.836 67.2587C127.311 67.5396 128.082 67.5396 128.558 67.2587L171.448 41.913C171.924 41.632 171.924 41.1765 171.448 40.8955Z" fill="#4AA7F0"/>
<path d="M205.605 61.1935L178.25 45.0283C177.774 44.7474 177.003 44.7474 176.528 45.0283L133.637 70.374C133.162 70.655 133.162 71.1105 133.637 71.3915L160.992 87.557C161.468 87.838 162.239 87.838 162.714 87.557L205.605 62.211C206.08 61.93 206.08 61.4745 205.605 61.1935Z" fill="#4AA7F0"/>
<path d="M130.924 20.9316L109.473 8.25549C108.998 7.97449 108.227 7.97449 107.751 8.25549L103.38 10.8387C102.905 11.1196 102.905 11.5752 103.38 11.8562L124.831 24.5323C125.306 24.8133 126.077 24.8133 126.553 24.5323L130.924 21.9491C131.4 21.6681 131.4 21.2126 130.924 20.9316Z" fill="white"/>
<path d="M165.08 41.1158L143.63 28.4396C143.154 28.1587 142.383 28.1587 141.908 28.4396L137.536 31.0228C137.061 31.3038 137.061 31.7594 137.536 32.0403L158.987 44.7165C159.463 44.9975 160.234 44.9975 160.709 44.7165L165.08 42.1333C165.556 41.8523 165.556 41.3967 165.08 41.1158Z" fill="white"/>
<path d="M199.237 61.2999L177.786 48.6237C177.31 48.3428 176.539 48.3428 176.064 48.6237L171.693 51.2069C171.217 51.4879 171.217 51.9435 171.693 52.2244L193.143 64.9006C193.619 65.1816 194.39 65.1816 194.865 64.9006L199.237 62.3174C199.712 62.0364 199.712 61.5809 199.237 61.2999Z" fill="white"/>
<path d="M123.018 25.6049L101.567 12.9287C101.092 12.6478 100.321 12.6478 99.8452 12.9287L95.4742 15.5119C94.9982 15.7929 94.9982 16.2485 95.4742 16.5294L116.925 29.2056C117.4 29.4866 118.171 29.4866 118.647 29.2056L123.018 26.6224C123.493 26.3414 123.493 25.8858 123.018 25.6049Z" fill="white"/>
<path d="M157.174 45.7891L135.723 33.1129C135.248 32.832 134.477 32.832 134.001 33.1129L129.63 35.6961C129.155 35.9771 129.155 36.4327 129.63 36.7136L151.081 49.3898C151.556 49.6708 152.327 49.6708 152.803 49.3898L157.174 46.8066C157.65 46.5256 157.65 46.0701 157.174 45.7891Z" fill="white"/>
<path d="M191.33 65.9732L169.88 53.297C169.404 53.016 168.633 53.016 168.158 53.297L163.786 55.8802C163.311 56.1612 163.311 56.6168 163.786 56.8977L185.237 69.5739C185.713 69.8548 186.484 69.8548 186.959 69.5739L191.33 66.9907C191.806 66.7097 191.806 66.2541 191.33 65.9732Z" fill="white"/>
<path d="M115.112 30.2783L93.6609 17.6021C93.1849 17.3212 92.4139 17.3212 91.9389 17.6021L87.5679 20.1853C87.0919 20.4663 87.0919 20.9219 87.5679 21.2028L109.018 33.879C109.494 34.16 110.265 34.16 110.74 33.879L115.112 31.2958C115.587 31.0148 115.587 30.5592 115.112 30.2783Z" fill="white"/>
<path d="M149.268 50.4623L127.817 37.7861C127.342 37.5051 126.571 37.5051 126.095 37.7861L121.724 40.3693C121.248 40.6503 121.248 41.1059 121.724 41.3868L143.175 54.063C143.65 54.3439 144.421 54.3439 144.897 54.063L149.268 51.4798C149.743 51.1988 149.743 50.7432 149.268 50.4623Z" fill="white"/>
<path d="M183.424 70.6465L161.973 57.9703C161.498 57.6894 160.727 57.6894 160.251 57.9703L155.88 60.5535C155.405 60.8345 155.405 61.2901 155.88 61.571L177.331 74.2472C177.806 74.5282 178.577 74.5282 179.053 74.2472L183.424 71.664C183.9 71.383 183.9 70.9274 183.424 70.6465Z" fill="white"/>
<path d="M107.198 34.9516L85.7469 22.2754C85.2709 21.9944 84.4999 21.9944 84.0249 22.2754L79.6539 24.8586C79.1779 25.1396 79.1779 25.5951 79.6539 25.8761L101.104 38.5523C101.58 38.8332 102.351 38.8332 102.826 38.5523L107.198 35.9691C107.673 35.6881 107.673 35.2325 107.198 34.9516Z" fill="white"/>
<path d="M141.354 55.1357L119.903 42.4595C119.428 42.1785 118.657 42.1785 118.181 42.4595L113.81 45.0427C113.334 45.3237 113.334 45.7793 113.81 46.0602L135.261 58.7364C135.736 59.0173 136.507 59.0173 136.982 58.7364L141.354 56.1532C141.829 55.8722 141.829 55.4166 141.354 55.1357Z" fill="white"/>
<path d="M175.51 75.3199L154.059 62.6437C153.584 62.3628 152.813 62.3628 152.337 62.6437L147.966 65.2269C147.491 65.5079 147.491 65.9635 147.966 66.2444L169.417 78.9206C169.892 79.2016 170.663 79.2016 171.139 78.9206L175.51 76.3374C175.986 76.0564 175.986 75.6008 175.51 75.3199Z" fill="white"/>
<path d="M99.2909 39.6249L77.8399 26.9487C77.3649 26.6677 76.5939 26.6677 76.1189 26.9487L71.7469 29.5319C71.2719 29.8129 71.2719 30.2685 71.7469 30.5494L93.1979 43.2256C93.6739 43.5065 94.4439 43.5065 94.9199 43.2256L99.2909 40.6424C99.7669 40.3614 99.7669 39.9058 99.2909 39.6249Z" fill="white"/>
<path d="M133.448 59.809L111.997 47.1328C111.521 46.8519 110.75 46.8519 110.275 47.1328L105.904 49.716C105.428 49.997 105.428 50.4526 105.904 50.7335L127.354 63.4097C127.83 63.6907 128.601 63.6907 129.076 63.4097L133.448 60.8265C133.923 60.5455 133.923 60.09 133.448 59.809Z" fill="white"/>
<path d="M167.604 79.9932L146.153 67.317C145.678 67.0361 144.907 67.0361 144.431 67.317L140.06 69.9002C139.584 70.1812 139.584 70.6368 140.06 70.9177L161.511 83.594C161.986 83.875 162.757 83.875 163.232 83.594L167.604 81.011C168.079 80.73 168.079 80.274 167.604 79.9932Z" fill="white"/>
<path d="M64.7361 94.538C73.2093 99.546 86.7853 99.641 95.0583 94.752C103.332 89.863 103.169 81.841 94.6963 76.8336C86.2233 71.8264 72.6473 71.7305 64.3738 76.6195C56.1005 81.509 56.2627 89.531 64.7361 94.538Z" fill="#333D5E"/>
<path d="M93.656 92.417C86.087 96.891 73.814 96.891 66.2444 92.417C58.2403 88.155 57.8492 73.9864 66.2443 76.2183C73.814 71.7451 86.087 71.7451 93.656 76.2183C99.866 70.7618 103.775 88.155 93.656 92.417Z" fill="url(#paint13_linear_3907_24048)"/>
<path d="M66.2398 87.365C73.8096 91.838 86.0826 91.838 93.6516 87.365C101.222 82.892 101.222 75.6391 93.6516 71.1659C86.0826 66.6927 73.8096 66.6927 66.2398 71.1659C58.6701 75.6391 58.6701 82.892 66.2398 87.365Z" fill="#4AA7F0"/>
<path d="M69.1293 85.658C75.1033 89.188 84.7893 89.188 90.7643 85.658C96.7383 82.127 96.7383 76.4034 90.7643 72.8729C84.7893 69.3424 75.1033 69.3424 69.1293 72.8729C63.1548 76.4034 63.1548 82.127 69.1293 85.658Z" fill="white"/>
<path d="M18.5504 122.315L18.1953 140.655" stroke="#9098B0" stroke-opacity="0.9" stroke-width="2" stroke-linecap="round"/>
<path d="M26.1597 126.669L25.8047 145.009" stroke="#9098B0" stroke-opacity="0.9" stroke-width="2" stroke-linecap="round"/>
<path d="M33.7769 131.024L33.4219 149.364" stroke="#9098B0" stroke-opacity="0.9" stroke-width="2" stroke-linecap="round"/>
<path d="M41.3863 135.379L41.0312 153.719" stroke="#9098B0" stroke-opacity="0.9" stroke-width="2" stroke-linecap="round"/>
<path d="M19.472 129.942L17.3139 128.677C16.8374 128.397 16.4426 128.619 16.4319 129.171L16.3908 131.292C16.3801 131.844 16.7577 132.518 17.2341 132.797L19.3922 134.063C19.8686 134.342 20.2635 134.121 20.2742 133.569L20.3153 131.448C20.326 130.896 19.9484 130.222 19.472 129.942Z" fill="#737B96"/>
<path d="M27.0892 134.297L24.931 133.032C24.4546 132.752 24.0597 132.974 24.0491 133.526L24.008 135.647C23.9973 136.199 24.3749 136.873 24.8513 137.152L27.0094 138.418C27.4858 138.697 27.8807 138.476 27.8914 137.924L27.9324 135.803C27.9431 135.251 27.5656 134.577 27.0892 134.297Z" fill="#737B96"/>
<path d="M34.6985 138.651L32.5404 137.386C32.064 137.106 31.6691 137.328 31.6584 137.88L31.6174 140.001C31.6067 140.553 31.9842 141.227 32.4606 141.506L34.6188 142.772C35.0952 143.051 35.4901 142.83 35.5008 142.278L35.5418 140.157C35.5525 139.605 35.175 138.931 34.6985 138.651Z" fill="#737B96"/>
<path d="M42.3157 143.006L40.1576 141.741C39.6812 141.461 39.2863 141.683 39.2756 142.235L39.2346 144.356C39.2239 144.908 39.6014 145.582 40.0778 145.861L42.236 147.127C42.7124 147.406 43.1073 147.185 43.1179 146.633L43.159 144.512C43.1697 143.96 42.7922 143.286 42.3157 143.006Z" fill="#737B96"/>
<path d="M17.3828 130.719L19.3431 131.868" stroke="white" stroke-linecap="round"/>
<path d="M25 135.074L26.9603 136.223" stroke="white" stroke-linecap="round"/>
<path d="M32.6094 139.428L34.5696 140.577" stroke="white" stroke-linecap="round"/>
<path d="M40.2188 143.783L42.1789 144.932" stroke="white" stroke-linecap="round"/>
<path d="M95.8251 168.547L49.3126 141.274L49.0234 156.21L95.5351 183.483L95.8251 168.547Z" fill="#9098B0"/>
<path d="M198.788 145.738C204.102 142.663 208.508 135.192 208.629 129.054C208.75 122.915 204.541 120.432 199.226 123.508C193.912 126.584 189.506 134.054 189.385 140.193C189.264 146.331 193.474 148.814 198.788 145.738Z" fill="#9098B0"/>
<path d="M124.891 182.244L180.212 150.222" stroke="#9098B0" stroke-width="2" stroke-linecap="round"/>
<path d="M124.984 177.491L180.305 145.469" stroke="#9098B0" stroke-width="2" stroke-linecap="round"/>
<path d="M125.078 172.738L180.399 140.716" stroke="#9098B0" stroke-width="2" stroke-linecap="round"/>
<path d="M198.796 125.216C197.767 125.812 196.743 126.636 195.784 127.641C194.824 128.646 193.947 129.813 193.203 131.075C192.459 132.337 191.862 133.669 191.446 134.995C191.031 136.321 190.805 137.616 190.781 138.804L193.381 137.3C193.397 136.505 193.548 135.64 193.825 134.754C194.103 133.868 194.502 132.978 194.999 132.134C195.496 131.291 196.082 130.511 196.724 129.84C197.365 129.168 198.049 128.617 198.737 128.219L198.796 125.216Z" fill="#DBDFEA"/>
<path d="M207.53 129.107C207.554 127.919 207.374 126.859 207.002 125.989C206.63 125.118 206.072 124.454 205.361 124.035C204.65 123.616 203.799 123.449 202.857 123.544C201.915 123.64 200.901 123.995 199.872 124.591L199.812 127.594C200.499 127.196 201.179 126.958 201.809 126.894C202.438 126.831 203.004 126.942 203.48 127.222C203.955 127.503 204.328 127.946 204.577 128.528C204.826 129.11 204.946 129.818 204.93 130.612L207.53 129.107Z" fill="#DBDFEA"/>
<path d="M203.799 131.264C203.812 130.629 203.716 130.063 203.517 129.598C203.318 129.133 203.02 128.779 202.641 128.555C202.261 128.331 201.806 128.242 201.303 128.292C200.8 128.343 200.259 128.533 199.709 128.852L199.664 131.122C199.956 130.954 200.243 130.853 200.51 130.826C200.777 130.799 201.018 130.846 201.219 130.965C201.42 131.084 201.578 131.272 201.684 131.518C201.789 131.765 201.84 132.065 201.833 132.402L203.799 131.264Z" fill="#DBDFEA"/>
<path d="M198.703 129.433C198.153 129.752 197.607 130.192 197.094 130.729C196.581 131.266 196.113 131.889 195.715 132.563C195.318 133.237 194.999 133.948 194.777 134.656C194.555 135.365 194.435 136.056 194.422 136.691L196.388 135.553C196.395 135.217 196.458 134.85 196.576 134.474C196.694 134.099 196.863 133.721 197.074 133.364C197.285 133.006 197.533 132.676 197.805 132.391C198.077 132.106 198.367 131.873 198.658 131.704L198.703 129.433Z" fill="#DBDFEA"/>
<path d="M194.407 137.901C194.394 138.536 194.49 139.102 194.689 139.567C194.888 140.032 195.185 140.387 195.565 140.611C195.945 140.835 196.399 140.924 196.902 140.873C197.406 140.822 197.947 140.632 198.497 140.314L198.542 138.043C198.25 138.212 197.963 138.312 197.696 138.339C197.429 138.366 197.188 138.319 196.987 138.2C196.786 138.081 196.628 137.893 196.522 137.647C196.417 137.4 196.366 137.1 196.373 136.763L194.407 137.901Z" fill="#DBDFEA"/>
<path d="M199.578 139.688C200.128 139.37 200.675 138.93 201.187 138.393C201.7 137.856 202.168 137.233 202.566 136.559C202.963 135.885 203.282 135.174 203.504 134.465C203.726 133.757 203.846 133.066 203.859 132.431L201.893 133.568C201.887 133.905 201.823 134.272 201.705 134.648C201.587 135.023 201.418 135.401 201.207 135.758C200.997 136.115 200.748 136.446 200.476 136.731C200.204 137.015 199.914 137.249 199.623 137.418L199.578 139.688Z" fill="#DBDFEA"/>
<path d="M199.492 143.906C200.521 143.31 201.545 142.486 202.504 141.481C203.464 140.475 204.341 139.309 205.085 138.047C205.829 136.785 206.426 135.453 206.842 134.127C207.257 132.801 207.483 131.506 207.507 130.318L204.907 131.822C204.891 132.617 204.74 133.482 204.463 134.368C204.185 135.254 203.786 136.144 203.289 136.987C202.792 137.831 202.206 138.61 201.564 139.282C200.923 139.954 200.239 140.505 199.551 140.903L199.492 143.906Z" fill="#DBDFEA"/>
<path d="M190.752 140.014C190.728 141.203 190.908 142.263 191.28 143.133C191.652 144.004 192.209 144.667 192.92 145.087C193.632 145.506 194.482 145.673 195.424 145.578C196.366 145.482 197.38 145.127 198.409 144.531L198.468 141.528C197.781 141.926 197.103 142.164 196.473 142.227C195.844 142.291 195.276 142.18 194.8 141.899C194.325 141.619 193.953 141.176 193.704 140.594C193.455 140.012 193.335 139.304 193.351 138.51L190.752 140.014Z" fill="#DBDFEA"/>
<defs>
<radialGradient id="paint0_radial_3907_24048" cx="0" cy="0" r="1" gradientUnits="userSpaceOnUse" gradientTransform="translate(110.982 95.026) rotate(90) scale(148.5 270.1)">
<stop stop-opacity="0"/>
<stop offset="0.449103" stop-opacity="0"/>
<stop offset="0.654251" stop-opacity="0"/>
<stop offset="1"/>
</radialGradient>
<linearGradient id="paint1_linear_3907_24048" x1="-1.01661" y1="134.01" x2="222.983" y2="134.01" gradientUnits="userSpaceOnUse">
<stop stop-color="#C9D1DF"/>
<stop offset="0.504088" stop-color="#CCD2E0"/>
<stop offset="1" stop-color="#E3E6EF"/>
</linearGradient>
<linearGradient id="paint2_linear_3907_24048" x1="-1.01748" y1="104.526" x2="221.32" y2="104.526" gradientUnits="userSpaceOnUse">
<stop stop-color="#EAEDF6"/>
<stop offset="1" stop-color="#F5F7FD"/>
</linearGradient>
<linearGradient id="paint3_linear_3907_24048" x1="6.19401" y1="104.526" x2="214.668" y2="104.526" gradientUnits="userSpaceOnUse">
<stop stop-color="#C9D0DE"/>
<stop offset="1" stop-color="#E2E5EE"/>
</linearGradient>
<linearGradient id="paint4_linear_3907_24048" x1="27.2109" y1="116.924" x2="193.964" y2="116.924" gradientUnits="userSpaceOnUse">
<stop stop-color="#333D5E"/>
<stop offset="1" stop-color="#333D5E"/>
</linearGradient>
<linearGradient id="paint5_linear_3907_24048" x1="0.929688" y1="68.0313" x2="221.047" y2="68.0313" gradientUnits="userSpaceOnUse">
<stop stop-color="#38406C"/>
<stop offset="1" stop-color="#565E8B"/>
</linearGradient>
<linearGradient id="paint6_linear_3907_24048" x1="-1.01748" y1="65.0012" x2="221.32" y2="65.0012" gradientUnits="userSpaceOnUse">
<stop stop-color="#424D74"/>
<stop offset="1" stop-color="#636F97"/>
</linearGradient>
<linearGradient id="paint7_linear_3907_24048" x1="86.768" y1="22.3854" x2="101.819" y2="47.8561" gradientUnits="userSpaceOnUse">
<stop stop-color="#285DDC"/>
<stop offset="1" stop-color="#4075F5"/>
</linearGradient>
<linearGradient id="paint8_linear_3907_24048" x1="72.268" y1="31.6766" x2="102.993" y2="56.4642" gradientUnits="userSpaceOnUse">
<stop stop-color="#333D5E"/>
<stop offset="1" stop-color="#2D5F87"/>
</linearGradient>
<linearGradient id="paint9_linear_3907_24048" x1="120.924" y1="42.5691" x2="135.976" y2="68.0398" gradientUnits="userSpaceOnUse">
<stop stop-color="#285DDC"/>
<stop offset="1" stop-color="#4075F5"/>
</linearGradient>
<linearGradient id="paint10_linear_3907_24048" x1="106.433" y1="51.8638" x2="137.145" y2="76.6505" gradientUnits="userSpaceOnUse">
<stop stop-color="#333D5E"/>
<stop offset="1" stop-color="#2D5F87"/>
</linearGradient>
<linearGradient id="paint11_linear_3907_24048" x1="155.089" y1="62.7538" x2="170.14" y2="88.224" gradientUnits="userSpaceOnUse">
<stop stop-color="#285DDC"/>
<stop offset="1" stop-color="#4075F5"/>
</linearGradient>
<linearGradient id="paint12_linear_3907_24048" x1="140.601" y1="72.0464" x2="171.308" y2="96.837" gradientUnits="userSpaceOnUse">
<stop stop-color="#333D5E"/>
<stop offset="1" stop-color="#2D5F87"/>
</linearGradient>
<linearGradient id="paint13_linear_3907_24048" x1="59.3746" y1="83.156" x2="90.136" y2="100.095" gradientUnits="userSpaceOnUse">
<stop stop-color="#333D5E"/>
<stop offset="1" stop-color="#2D5F87"/>
</linearGradient>
</defs>
</svg>
