<svg width="100" height="74" viewBox="0 0 100 74" fill="none" xmlns="http://www.w3.org/2000/svg">
<path d="M54.421 29.1L55.321 25.4934L53.1244 24.9467L52.251 28.4567C51.6658 28.313 51.0791 28.1752 50.491 28.0434L51.371 24.51L49.181 23.9634L48.281 27.5667C47.8133 27.4624 47.3466 27.3535 46.881 27.24V27.2267L43.8544 26.47L43.271 28.8167C43.271 28.8167 44.8977 29.19 44.8644 29.2134C45.7544 29.4334 45.9144 30.0234 45.8877 30.4867L44.8644 34.5967C44.9414 34.6162 45.0172 34.6407 45.091 34.67L44.8577 34.61L43.4244 40.3667C43.3144 40.6334 43.041 41.04 42.4177 40.8867C42.441 40.92 40.8244 40.4867 40.8244 40.4867L39.7344 43L42.591 43.7134L44.1544 44.1134L43.2477 47.7634L45.4377 48.31L46.3377 44.7034C46.9377 44.8634 47.5177 45.0134 48.0877 45.1567L47.1877 48.7467L49.3877 49.2934L50.2944 45.6534C54.0344 46.3634 56.851 46.0767 58.0344 42.6934C58.9877 39.9667 57.9877 38.3934 56.0177 37.37C57.451 37.0367 58.531 36.0967 58.8177 34.1467C59.2177 31.4867 57.191 30.0534 54.4177 29.1H54.421ZM53.8044 41.1767C53.1277 43.9034 48.5377 42.43 47.051 42.06L48.2577 37.23C49.7444 37.6 54.5144 38.3367 53.8044 41.1767ZM54.4844 34.11C53.8644 36.5867 50.0477 35.3267 48.8077 35.0167L49.901 30.6367C51.1377 30.9467 55.1277 31.52 54.4844 34.1067V34.11Z" fill="#F0F2FA"/>
<path d="M93.3333 0.333496H6.66667C2.99 0.333496 0 3.3235 0 7.00016V67.0002C0 70.6768 2.99 73.6668 6.66667 73.6668H93.3333C97.01 73.6668 100 70.6768 100 67.0002V7.00016C100 3.3235 97.01 0.333496 93.3333 0.333496ZM69.4 41.8368C68.8148 44.4372 67.7158 46.8944 66.1675 49.064C64.6192 51.2336 62.6528 53.0718 60.3839 54.4706C58.1151 55.8694 55.5895 56.8006 52.9556 57.2094C50.3218 57.6183 47.6328 57.4965 45.0466 56.8513C42.4605 56.2061 40.0294 55.0505 37.8962 53.4523C35.7631 51.8542 33.9709 49.8458 32.625 47.5452C31.2791 45.2445 30.4066 42.6981 30.0589 40.0554C29.7111 37.4128 29.8951 34.7273 30.6 32.1568C31.9847 27.1226 35.2832 22.8295 39.7907 20.1946C44.2983 17.5597 49.6575 16.792 54.7235 18.0554C59.7895 19.3189 64.1606 22.5133 66.903 26.9563C69.6453 31.3994 70.5415 36.7386 69.4 41.8335V41.8368Z" fill="#F0F2FA"/>
</svg>
