<svg width="1440" height="139" viewBox="0 0 1440 139" fill="none" xmlns="http://www.w3.org/2000/svg">
<g opacity="0.5">
<path d="M0 86C0 86 60 60 160 71.1741C260 82.3483 254.331 106.13 375 97C495.669 87.8696 507.655 71.1741 575.587 71.1741C643.52 71.1741 677.258 93.8698 745.191 93.8698C813.123 93.8698 851.694 62.5654 919.626 62.5654C987.559 62.5654 1025.16 102.478 1093.1 102.478C1161.03 102.478 1199.12 71.1741 1267.05 71.1741C1334.98 71.1741 1440 94.5002 1440 94.5002V139H0V86Z" fill="url(#paint0_linear_3944_24764)"/>
<path d="M0 86C0 86 60 60 160 71.1741C260 82.3483 254.331 106.13 375 97C495.669 87.8696 507.655 71.1741 575.587 71.1741C643.52 71.1741 677.258 93.8698 745.191 93.8698C813.123 93.8698 851.694 62.5654 919.626 62.5654C987.559 62.5654 1025.16 102.478 1093.1 102.478C1161.03 102.478 1199.12 71.1741 1267.05 71.1741C1334.98 71.1741 1440 94.5002 1440 94.5002V139H0V86Z" fill="url(#paint1_linear_3944_24764)"/>
</g>
<g opacity="0.5">
<path d="M0 58.0005C0 58.0005 59.184 30.1574 103.092 25.1248C147 20.0922 229 51.9998 293 55.0001C357 58.0005 443 49.6302 553 20.0925C663 -9.4452 678.087 -1.81573 791.544 20.0922C905 42.0002 882.01 42.0001 949 42.0001C1015.99 42.0001 1029.03 20.0922 1096.02 20.0922C1163.01 20.0922 1193.42 41.547 1260.41 41.547C1327.4 41.547 1440 14.0002 1440 14.0002V139H0V58.0005Z" fill="url(#paint2_linear_3944_24764)"/>
<path d="M0 58.0005C0 58.0005 59.184 30.1574 103.092 25.1248C147 20.0922 229 51.9998 293 55.0001C357 58.0005 443 49.6302 553 20.0925C663 -9.4452 678.087 -1.81573 791.544 20.0922C905 42.0002 882.01 42.0001 949 42.0001C1015.99 42.0001 1029.03 20.0922 1096.02 20.0922C1163.01 20.0922 1193.42 41.547 1260.41 41.547C1327.4 41.547 1440 14.0002 1440 14.0002V139H0V58.0005Z" fill="url(#paint3_linear_3944_24764)"/>
</g>
<defs>
<linearGradient id="paint0_linear_3944_24764" x1="745.188" y1="47.6957" x2="748.992" y2="179.232" gradientUnits="userSpaceOnUse">
<stop stop-color="white"/>
<stop offset="1" stop-color="white"/>
</linearGradient>
<linearGradient id="paint1_linear_3944_24764" x1="745.188" y1="47.6957" x2="748.992" y2="179.232" gradientUnits="userSpaceOnUse">
<stop stop-color="#E8E8E8"/>
<stop offset="1" stop-color="white" stop-opacity="0"/>
</linearGradient>
<linearGradient id="paint2_linear_3944_24764" x1="588.095" y1="126.307" x2="589.863" y2="215.383" gradientUnits="userSpaceOnUse">
<stop stop-color="#4AA7F0"/>
<stop offset="1" stop-color="white" stop-opacity="0"/>
</linearGradient>
<linearGradient id="paint3_linear_3944_24764" x1="588.095" y1="126.307" x2="589.863" y2="215.383" gradientUnits="userSpaceOnUse">
<stop stop-color="#7AB4E1"/>
<stop offset="1" stop-color="white" stop-opacity="0"/>
</linearGradient>
</defs>
</svg>
