<svg width="1200" height="91" viewBox="0 0 1200 91" fill="none" xmlns="http://www.w3.org/2000/svg">
<g opacity="0.5">
<path d="M0 45C0 45 55.6107 10 115.678 10C175.744 10 199.394 37.5 259.461 37.5C319.528 37.5 356.472 7.5 416.539 7.5C476.606 7.5 535.48 28.7059 595.547 28.7059C655.614 28.7059 668.659 3.5 728.726 3.5C788.793 3.5 842.48 26.5 902.547 26.5C962.614 26.5 979.369 0 1039.44 0C1099.5 0 1199.96 27 1199.96 27V90.5H0V45Z" fill="url(#paint0_linear_4160_25094)"/>
<path d="M0 45C0 45 55.6107 10 115.678 10C175.744 10 199.394 37.5 259.461 37.5C319.528 37.5 356.472 7.5 416.539 7.5C476.606 7.5 535.48 28.7059 595.547 28.7059C655.614 28.7059 668.659 3.5 728.726 3.5C788.793 3.5 842.48 26.5 902.547 26.5C962.614 26.5 979.369 0 1039.44 0C1099.5 0 1199.96 27 1199.96 27V90.5H0V45Z" fill="url(#paint1_linear_4160_25094)"/>
</g>
<g opacity="0.5">
<path d="M0 45C0 45 11.8178 35.883 56.1346 20.8949C100.451 5.90679 159.626 49.3003 225.922 28.4937C292.217 7.68703 383.594 67.0974 440.706 44.6851C497.818 22.2728 587.936 2.09379 651.949 33.0697C715.962 64.0455 763.725 20.0808 835.617 12.3782C907.508 4.67559 928.78 38.232 987.771 38.232C1046.76 38.232 1094.62 2 1146.33 14C1198.03 26 1200 27 1200 27V90.5895H0V45Z" fill="url(#paint2_linear_4160_25094)"/>
<path d="M0 45C0 45 11.8178 35.883 56.1346 20.8949C100.451 5.90679 159.626 49.3003 225.922 28.4937C292.217 7.68703 383.594 67.0974 440.706 44.6851C497.818 22.2728 587.936 2.09379 651.949 33.0697C715.962 64.0455 763.725 20.0808 835.617 12.3782C907.508 4.67559 928.78 38.232 987.771 38.232C1046.76 38.232 1094.62 2 1146.33 14C1198.03 26 1200 27 1200 27V90.5895H0V45Z" fill="url(#paint3_linear_4160_25094)"/>
</g>
<defs>
<linearGradient id="paint0_linear_4160_25094" x1="595.563" y1="-4.65423" x2="600.594" y2="137.56" gradientUnits="userSpaceOnUse">
<stop stop-color="#B0D5F2"/>
<stop offset="1" stop-color="white"/>
</linearGradient>
<linearGradient id="paint1_linear_4160_25094" x1="595.563" y1="-4.65423" x2="600.594" y2="137.56" gradientUnits="userSpaceOnUse">
<stop stop-color="#37A3F8"/>
<stop offset="1" stop-color="white" stop-opacity="0"/>
</linearGradient>
<linearGradient id="paint2_linear_4160_25094" x1="454.506" y1="123.364" x2="457.728" y2="236.175" gradientUnits="userSpaceOnUse">
<stop stop-color="#90C6F0"/>
<stop offset="1" stop-color="white" stop-opacity="0"/>
</linearGradient>
<linearGradient id="paint3_linear_4160_25094" x1="454.506" y1="123.364" x2="457.728" y2="236.175" gradientUnits="userSpaceOnUse">
<stop stop-color="#7BBDF0"/>
<stop offset="1" stop-color="white" stop-opacity="0"/>
</linearGradient>
</defs>
</svg>
