<svg width="785" height="497" viewBox="0 0 785 497" fill="none" xmlns="http://www.w3.org/2000/svg">
<path opacity="0.5" fill-rule="evenodd" clip-rule="evenodd" d="M307.357 131.298C344.325 53.739 424.633 0 517.753 0C625.471 0 716.055 71.9246 742.223 169.447C749.378 168.47 756.686 167.964 764.115 167.964C850.879 167.964 921.226 236.899 921.226 321.931C921.226 341.683 917.43 360.565 910.515 377.918H917.652C951.172 377.918 978.349 404.553 978.349 437.411C978.349 470.261 951.172 496.897 917.652 496.897H60.7206C27.1931 496.897 0.0234375 470.261 0.0234375 437.411C0.0234375 404.553 27.1931 377.918 60.7206 377.918H98.7221C81.4538 351.7 71.4316 320.468 71.4316 286.939C71.4316 194.178 148.16 118.981 242.812 118.981C265.645 118.981 287.435 123.356 307.357 131.298Z" fill="url(#paint0_linear_3959_26350)"/>
<g opacity="0.2" clip-path="url(#clip0_3959_26350)">
<path d="M546.988 388.91C545.934 393.085 545.063 396.765 544.032 400.379C543.881 400.749 543.655 401.084 543.368 401.366C543.08 401.648 542.738 401.869 542.36 402.017C531.753 405.518 521.307 409.782 510.449 412.139C501.058 414.193 491.249 413.354 482.363 409.737C476.616 407.461 471.757 403.453 468.487 398.293C465.218 393.133 463.707 387.089 464.174 381.033C464.838 366.468 469.992 353.002 473.635 339.155C476.59 327.933 479.797 316.555 482.34 305.131C482.935 301.116 482.889 297.035 482.203 293.034C481.744 288.725 478.812 286.302 474.528 285.516C467.295 284.121 459.804 284.823 452.971 287.536C451.895 287.94 450.681 288.119 449.031 288.568C450.016 284.506 450.772 280.915 451.826 277.347C452.022 276.872 452.314 276.44 452.684 276.077C453.054 275.715 453.494 275.429 453.979 275.237C465.434 270.928 476.59 266.26 488.869 264.801C496.527 263.822 504.312 264.59 511.617 267.046C525.018 271.534 532.097 283.406 531.181 297.276C530.196 312.784 524.469 327.08 520.712 341.87C517.993 352.643 515.359 363.438 512.808 374.255C512.444 376.133 512.321 378.048 512.442 379.956C512.625 388.17 516.038 392.097 524.354 392.254C530.151 392.082 535.925 391.474 541.627 390.437C543.449 390.054 545.24 389.544 546.988 388.91Z" fill="#4AA7F0"/>
<path d="M521.949 188.809C537.274 189.101 548.637 199.11 549.966 213.496C550.928 223.551 544.605 233.47 534.182 238.318C519.91 244.939 501.904 239.036 495.237 225.57C486.807 208.289 501.148 188.45 521.949 188.809Z" fill="#4AA7F0"/>
</g>
<defs>
<linearGradient id="paint0_linear_3959_26350" x1="708.08" y1="-31.0897" x2="436.586" y2="498.594" gradientUnits="userSpaceOnUse">
<stop stop-color="white"/>
<stop offset="0.307292" stop-color="#E2F1FD"/>
<stop offset="1" stop-color="#4AA7F0"/>
</linearGradient>
<clipPath id="clip0_3959_26350">
<rect width="229.084" height="280.536" fill="white" transform="translate(385.023 188.81)"/>
</clipPath>
</defs>
</svg>
