<svg width="1440" height="205" viewBox="0 0 1440 205" fill="none" xmlns="http://www.w3.org/2000/svg">
<g opacity="0.5">
<path d="M-11 53.1294C-11 53.1294 -10.7944 0 59.5 0C129.794 0 214 53.1294 293 21.4561C372 -10.2172 442.206 35.7602 512.5 35.7602C582.794 35.7602 705.5 -12.2606 777.5 11.7498C849.5 35.7602 877.706 35.7602 948 35.7602C1018.29 35.7602 1026.71 11.7498 1097 11.7498C1167.29 11.7498 1199.21 53.1294 1269.5 53.1294C1339.79 53.1294 1459 0 1459 0V205H-1L-11 53.1294Z" fill="url(#paint0_linear_3936_25630)"/>
<path d="M-11 53.1294C-11 53.1294 -10.7944 0 59.5 0C129.794 0 214 53.1294 293 21.4561C372 -10.2172 442.206 35.7602 512.5 35.7602C582.794 35.7602 705.5 -12.2606 777.5 11.7498C849.5 35.7602 877.706 35.7602 948 35.7602C1018.29 35.7602 1026.71 11.7498 1097 11.7498C1167.29 11.7498 1199.21 53.1294 1269.5 53.1294C1339.79 53.1294 1459 0 1459 0V205H-1L-11 53.1294Z" fill="url(#paint1_linear_3936_25630)"/>
</g>
<g opacity="0.5">
<path d="M-53 102.432C-53 102.432 109.062 36.2711 180.158 36.2711C251.253 36.2711 293.137 91.1491 364.232 91.1491C435.328 91.1491 476.199 61.4021 547.295 61.4021C618.391 61.4021 653.7 91.1491 724.796 91.1491C795.891 91.1491 836.258 50.1188 907.353 50.1188C978.449 50.1188 1017.8 102.432 1088.9 102.432C1160 102.432 1199.86 61.4021 1270.95 61.4021C1342.05 61.4021 1453 91.1491 1453 91.1491V205H-5L-53 102.432Z" fill="url(#paint2_linear_3936_25630)"/>
<path d="M-53 102.432C-53 102.432 109.062 36.2711 180.158 36.2711C251.253 36.2711 293.137 91.1491 364.232 91.1491C435.328 91.1491 476.199 61.4021 547.295 61.4021C618.391 61.4021 653.7 91.1491 724.796 91.1491C795.891 91.1491 836.258 50.1188 907.353 50.1188C978.449 50.1188 1017.8 102.432 1088.9 102.432C1160 102.432 1199.86 61.4021 1270.95 61.4021C1342.05 61.4021 1453 91.1491 1453 91.1491V205H-5L-53 102.432Z" fill="url(#paint3_linear_3936_25630)"/>
</g>
<defs>
<linearGradient id="paint0_linear_3936_25630" x1="564" y1="216.605" x2="570.263" y2="388.244" gradientUnits="userSpaceOnUse">
<stop stop-color="#4AA7F0"/>
<stop offset="1" stop-color="white" stop-opacity="0"/>
</linearGradient>
<linearGradient id="paint1_linear_3936_25630" x1="564" y1="216.605" x2="570.263" y2="388.244" gradientUnits="userSpaceOnUse">
<stop stop-color="#7AB4E1"/>
<stop offset="1" stop-color="white" stop-opacity="0"/>
</linearGradient>
<linearGradient id="paint2_linear_3936_25630" x1="724.793" y1="30.6294" x2="731.034" y2="202.951" gradientUnits="userSpaceOnUse">
<stop stop-color="white"/>
<stop offset="1" stop-color="white"/>
</linearGradient>
<linearGradient id="paint3_linear_3936_25630" x1="724.793" y1="30.6294" x2="731.034" y2="202.951" gradientUnits="userSpaceOnUse">
<stop stop-color="#E8E8E8"/>
<stop offset="1" stop-color="white" stop-opacity="0"/>
</linearGradient>
</defs>
</svg>
