<svg width="1222" height="93" viewBox="0 0 1222 93" fill="none" xmlns="http://www.w3.org/2000/svg">
<g opacity="0.5">
<path d="M0.5 45C0.5 45 57.468 10 118.461 10C179.454 10 203.468 37.5 264.461 37.5C325.454 37.5 362.968 7.5 423.961 7.5C484.954 7.5 544.736 28.7059 605.729 28.7059C666.721 28.7059 679.968 3.5 740.961 3.5C801.954 3.5 856.468 26.5 917.461 26.5C978.454 26.5 995.468 0 1056.46 0C1117.45 0 1219.46 26.5 1219.46 26.5V92H0.5V45Z" fill="url(#paint0_linear_4082_25437)"/>
<path d="M0.5 45C0.5 45 57.468 10 118.461 10C179.454 10 203.468 37.5 264.461 37.5C325.454 37.5 362.968 7.5 423.961 7.5C484.954 7.5 544.736 28.7059 605.729 28.7059C666.721 28.7059 679.968 3.5 740.961 3.5C801.954 3.5 856.468 26.5 917.461 26.5C978.454 26.5 995.468 0 1056.46 0C1117.45 0 1219.46 26.5 1219.46 26.5V92H0.5V45Z" fill="url(#paint1_linear_4082_25437)"/>
</g>
<g opacity="0.5">
<path d="M1 41.5452C1 41.5452 11.5 36.3826 58 20.8949C104.5 5.40722 163.087 49.3003 230.405 28.4937C297.722 7.68707 390.508 67.0974 448.501 44.6852C506.493 22.2729 598 2.09383 663 33.0697C727.999 64.0456 776.499 20.0808 849.499 12.3782C922.499 4.67562 944.099 38.232 1004 38.232C1063.9 38.232 1110 1.66315 1166.5 13.2789C1223 24.8946 1221.01 24.8946 1221.01 24.8946V92.009L1 90.5895V41.5452Z" fill="url(#paint2_linear_4082_25437)"/>
<path d="M1 41.5452C1 41.5452 11.5 36.3826 58 20.8949C104.5 5.40722 163.087 49.3003 230.405 28.4937C297.722 7.68707 390.508 67.0974 448.501 44.6852C506.493 22.2729 598 2.09383 663 33.0697C727.999 64.0456 776.499 20.0808 849.499 12.3782C922.499 4.67562 944.099 38.232 1004 38.232C1063.9 38.232 1110 1.66315 1166.5 13.2789C1223 24.8946 1221.01 24.8946 1221.01 24.8946V92.009L1 90.5895V41.5452Z" fill="url(#paint3_linear_4082_25437)"/>
</g>
<defs>
<linearGradient id="paint0_linear_4082_25437" x1="605.745" y1="-4.65423" x2="610.7" y2="137.566" gradientUnits="userSpaceOnUse">
<stop stop-color="#B0D5F2"/>
<stop offset="1" stop-color="white"/>
</linearGradient>
<linearGradient id="paint1_linear_4082_25437" x1="605.745" y1="-4.65423" x2="610.7" y2="137.566" gradientUnits="userSpaceOnUse">
<stop stop-color="#37A3F8"/>
<stop offset="1" stop-color="white" stop-opacity="0"/>
</linearGradient>
<linearGradient id="paint2_linear_4082_25437" x1="462.513" y1="123.364" x2="465.686" y2="236.177" gradientUnits="userSpaceOnUse">
<stop stop-color="#90C6F0"/>
<stop offset="1" stop-color="white" stop-opacity="0"/>
</linearGradient>
<linearGradient id="paint3_linear_4082_25437" x1="462.513" y1="123.364" x2="465.686" y2="236.177" gradientUnits="userSpaceOnUse">
<stop stop-color="#7BBDF0"/>
<stop offset="1" stop-color="white" stop-opacity="0"/>
</linearGradient>
</defs>
</svg>
