<svg width="832" height="497" viewBox="0 0 832 497" fill="none" xmlns="http://www.w3.org/2000/svg">
<path opacity="0.5" fill-rule="evenodd" clip-rule="evenodd" d="M307.333 131.298C344.302 53.739 424.609 0 517.73 0C625.447 0 716.032 71.9246 742.2 169.447C749.354 168.47 756.662 167.964 764.091 167.964C850.855 167.964 921.202 236.899 921.202 321.931C921.202 341.683 917.407 360.565 910.491 377.918H917.629C951.148 377.918 978.326 404.553 978.326 437.411C978.326 470.261 951.148 496.897 917.629 496.897H60.6972C27.1697 496.897 0 470.261 0 437.411C0 404.553 27.1697 377.918 60.6972 377.918H98.6987C81.4304 351.7 71.4082 320.468 71.4082 286.939C71.4082 194.178 148.137 118.981 242.788 118.981C265.622 118.981 287.412 123.356 307.333 131.298Z" fill="url(#paint0_linear_4002_23911)"/>
<g opacity="0.2" clip-path="url(#clip0_4002_23911)">
<path d="M546.964 388.91C545.91 393.085 545.04 396.765 544.009 400.379C543.858 400.749 543.632 401.084 543.344 401.366C543.057 401.648 542.714 401.869 542.337 402.017C531.73 405.518 521.284 409.782 510.425 412.139C501.034 414.193 491.225 413.354 482.34 409.737C476.593 407.461 471.733 403.453 468.464 398.293C465.194 393.133 463.684 387.089 464.15 381.033C464.815 366.468 469.969 353.002 473.611 339.155C476.567 327.933 479.774 316.555 482.317 305.131C482.912 301.116 482.865 297.035 482.179 293.034C481.721 288.725 478.789 286.302 474.505 285.516C467.272 284.121 459.78 284.823 452.948 287.536C451.871 287.94 450.657 288.119 449.008 288.568C449.993 284.506 450.749 280.915 451.803 277.347C451.999 276.872 452.29 276.44 452.66 276.077C453.03 275.715 453.471 275.429 453.956 275.237C465.41 270.928 476.567 266.26 488.846 264.801C496.503 263.822 504.289 264.59 511.594 267.046C524.995 271.534 532.074 283.406 531.157 297.276C530.172 312.784 524.445 327.08 520.688 341.87C517.97 352.643 515.335 363.438 512.785 374.255C512.421 376.133 512.297 378.048 512.418 379.956C512.601 388.17 516.015 392.097 524.331 392.254C530.127 392.082 535.902 391.474 541.604 390.437C543.425 390.054 545.217 389.544 546.964 388.91V388.91Z" fill="#4AA7F0"/>
<path d="M521.925 188.809C537.251 189.101 548.613 199.11 549.942 213.496C550.904 223.551 544.582 233.47 534.158 238.318C519.886 244.939 501.88 239.036 495.214 225.57C486.784 208.289 501.124 188.45 521.925 188.809Z" fill="#4AA7F0"/>
</g>
<defs>
<linearGradient id="paint0_linear_4002_23911" x1="708.056" y1="-31.0897" x2="436.562" y2="498.594" gradientUnits="userSpaceOnUse">
<stop stop-color="#CCE6FF" stop-opacity="0.62"/>
<stop offset="1" stop-color="#EEECFE"/>
</linearGradient>
<clipPath id="clip0_4002_23911">
<rect width="229.084" height="280.536" fill="white" transform="translate(385 188.81)"/>
</clipPath>
</defs>
</svg>
