<?xml version="1.0" encoding="UTF-8"?> <svg xmlns="http://www.w3.org/2000/svg" viewBox="0 0 505 174"><defs><style>.cls-1{fill:#4a8af4;}.cls-1,.cls-2,.cls-3,.cls-4,.cls-6,.cls-7{fill-rule:evenodd;}.cls-2{fill:#80adf7;}.cls-3{fill:#4a5bb9;}.cls-4{fill:#4a7de2;}.cls-5{fill:#fff;}.cls-6{fill:#78a1e4;}.cls-7{fill:#4857ad;}.cls-8{fill:#606469;}.cls-9{fill:#547dbe;}.cls-10{fill:#e94434;}.cls-11{fill:#f8bb15;}.cls-12{fill:#32a852;}</style></defs><g id="Layer_1" data-name="Layer 1"><path class="cls-1" d="M326.73,64.8H485.9v89.31a11.69,11.69,0,0,1-11.66,11.66H338.39a11.69,11.69,0,0,1-11.66-11.66V64.8Z"></path><path class="cls-2" d="M316.85,54.84,314,64.8c0,.38,0,.75,0,1.13a23.21,23.21,0,0,0,46.4.8c0-.27,0-.53,0-.8s0-.53,0-.8c0-.11,0-.22,0-.33h-.07L368,6.23H338.39A11.7,11.7,0,0,0,327.09,15L316.85,54.84Z"></path><path class="cls-3" d="M406.29,64.8h0V6.23H368L360.32,64.8c0,.38,0,.75,0,1.13a23,23,0,0,0,46,.8c0-.27,0-.53,0-.8s0-.53,0-.8c0-.11,0-.22,0-.33Z"></path><path class="cls-4" d="M360.4,66.91a23.27,23.27,0,0,1-33.67,19.52v.06l79.58,79.28h67.93a11.69,11.69,0,0,0,11.66-11.66V86.19A23,23,0,0,0,498,66.73c0-.27,0-.53,0-.8s0-.53,0-.8V64.8H452.2c0,.11,0,.21,0,.32,0,.27,0,.53,0,.8s0,.53,0,.8c0,.11,0,.22,0,.32a23,23,0,0,1-45.9-.32,23,23,0,0,1-45.9.18Z"></path><path class="cls-2" d="M451.5,60.19l-7-54H406.31V64.8h0c0,.38,0,.75,0,1.13a23,23,0,0,0,45.93.8c0-.27,0-.53,0-.8s0-.53,0-.8c0-.11,0-.22,0-.33h-.1l-.6-4.61Z"></path><path class="cls-3" d="M452.2,64.8c0,.38,0,.75,0,1.13a22.92,22.92,0,0,0,45.83.8c0-.27,0-.53,0-.8s0-.53,0-.8c0-.11,0-.22,0-.33l-2.42-10L485.33,15A11.7,11.7,0,0,0,474,6.23H444.47L452.1,64.8Z"></path><path class="cls-5" d="M472.21,130.74v-.16a26.3,26.3,0,0,0-.41-4.59H450.13v8.9h12.38a10.56,10.56,0,0,1-4.59,6.94v5.77h7.43c4.34-4,6.85-9.88,6.86-16.86Z"></path><path class="cls-5" d="M450.13,153.17a22,22,0,0,0,15.22-5.57l-7.43-5.77a13.89,13.89,0,0,1-20.66-7.29h-7.69v6a23,23,0,0,0,20.56,12.67Z"></path><path class="cls-5" d="M437.26,134.54a13.62,13.62,0,0,1,0-8.74v-6h-7.69a23.09,23.09,0,0,0,0,20.66l7.69-6Z"></path><path class="cls-5" d="M450.13,116.32a12.4,12.4,0,0,1,8.79,3.44l6.6-6.6a22.11,22.11,0,0,0-15.39-6,23,23,0,0,0-20.56,12.67l7.69,6a13.7,13.7,0,0,1,12.87-9.48Z"></path><path class="cls-6" d="M360.39,64.8H314c0,.38,0,.75,0,1.13a23.21,23.21,0,0,0,46.4.8c0-.27,0-.53,0-.8s0-.53,0-.8c0-.11,0-.22,0-.33Z"></path><path class="cls-6" d="M452.2,64.8H406.34c0,.38,0,.75,0,1.13a23,23,0,0,0,45.9.8c0-.27,0-.53,0-.8s0-.53,0-.8c0-.11,0-.22,0-.33Z"></path><path class="cls-7" d="M406.2,64.8H360.41c0,.38,0,.75,0,1.13a22.92,22.92,0,0,0,45.83.8c0-.27,0-.53,0-.8s0-.53,0-.8c0-.11,0-.22,0-.33Z"></path><path class="cls-7" d="M498,64.8H452.2c0,.38,0,.75,0,1.13a22.92,22.92,0,0,0,45.83.8c0-.27,0-.53,0-.8s0-.53,0-.8c0-.11,0-.22,0-.33Z"></path></g><g id="Layer_2" data-name="Layer 2"><polygon class="cls-8" points="16.9 125.72 16.75 121.4 16.9 121.4 24.96 135.56 26.91 135.56 34.98 121.4 35.12 121.4 34.98 125.72 34.98 141.04 38.29 141.04 38.29 115.24 34.98 115.24 26.01 130.95 25.87 130.95 16.9 115.24 13.58 115.24 13.58 141.04 16.9 141.04 16.9 125.72"></polygon><polygon class="cls-8" points="54.72 123.38 49.61 136.06 49.53 136.06 44.27 123.38 40.67 123.38 47.95 139.92 43.84 148.82 47.26 148.82 58.32 123.38 54.72 123.38"></polygon><path class="cls-8" d="M78.82,129.4A4.3,4.3,0,0,1,82,130.66a4.05,4.05,0,0,1,1.26,3A4.25,4.25,0,0,1,79,137.87H72.3V129.4Zm-.36-11a3.83,3.83,0,0,1,2.85,1.19,3.94,3.94,0,0,1,1.15,2.74,3.88,3.88,0,0,1-1.19,2.77,4,4,0,0,1-3,1.19h-6v-7.89ZM78.82,141A7.77,7.77,0,0,0,84.33,139a6.81,6.81,0,0,0,2.31-5.26A6,6,0,0,0,85.45,130a6.23,6.23,0,0,0-3.17-2.25v-.15a5.43,5.43,0,0,0,3.49-5.36,6.46,6.46,0,0,0-2.19-5,7.54,7.54,0,0,0-5.26-2H69V141Z"></path><path class="cls-8" d="M105.3,123.38H102v9.77a5.78,5.78,0,0,1-1.33,3.83,4.14,4.14,0,0,1-3.31,1.61q-4.26,0-4.36-4.33V123.38H89.66v11.1a7.44,7.44,0,0,0,1.75,5.28,6.56,6.56,0,0,0,5,1.85,6.71,6.71,0,0,0,3.26-.86,5.87,5.87,0,0,0,2.32-2.16h.15V141h3.17Z"></path><path class="cls-8" d="M117.4,130.84l-2.66-.68c-1.9-.44-2.85-1.16-2.85-2.17a1.86,1.86,0,0,1,1-1.58,4.27,4.27,0,0,1,2.32-.65,5.14,5.14,0,0,1,2.54.63,3.7,3.7,0,0,1,1.64,1.75l3-1.23a6.1,6.1,0,0,0-2.64-3,8.23,8.23,0,0,0-4.24-1.11,8.14,8.14,0,0,0-5,1.46,4.59,4.59,0,0,0-2,3.87q0,3.68,5.16,5l3,.76c1.73.53,2.6,1.35,2.6,2.48a1.93,1.93,0,0,1-1.07,1.62,4.76,4.76,0,0,1-2.64.69,4.62,4.62,0,0,1-2.72-.88,5.6,5.6,0,0,1-1.9-2.47l-3,1.26a7.74,7.74,0,0,0,2.88,3.66,8.12,8.12,0,0,0,4.69,1.38,8,8,0,0,0,5.07-1.58,4.79,4.79,0,0,0,2-3.89C122.66,133.47,120.91,131.71,117.4,130.84Z"></path><path class="cls-8" d="M125.65,123.38V141H129V123.38Zm3.32-7.74a2.34,2.34,0,0,0-3.32,0,2.35,2.35,0,0,0,0,3.31,2.34,2.34,0,0,0,4-1.65A2.29,2.29,0,0,0,129,115.64Z"></path><path class="cls-8" d="M133.29,141h3.31v-9.77a5.79,5.79,0,0,1,1.34-3.83,4.13,4.13,0,0,1,3.31-1.61c2.83,0,4.29,1.44,4.36,4.33V141h3.31v-11.1a7.44,7.44,0,0,0-1.74-5.28,6.56,6.56,0,0,0-5-1.85,6.71,6.71,0,0,0-3.26.86,6,6,0,0,0-2.33,2.16h-.14v-2.45h-3.17Z"></path><path class="cls-8" d="M157.23,127a4.79,4.79,0,0,1,3.22-1.16,5.26,5.26,0,0,1,3.62,1.21,4.43,4.43,0,0,1,1.5,3H155.44A5.53,5.53,0,0,1,157.23,127Zm8.28,13.36a8.74,8.74,0,0,0,3.3-3.49l-2.95-1.44a5.59,5.59,0,0,1-8.94,1.58,5.79,5.79,0,0,1-1.73-4.18h13.87l0-.36a10.13,10.13,0,0,0-2.33-7.11,8.8,8.8,0,0,0-12.51.14,9.56,9.56,0,0,0-2.45,6.72,9.44,9.44,0,0,0,2.52,6.74,8.46,8.46,0,0,0,6.41,2.66A9.09,9.09,0,0,0,165.51,140.35Z"></path><path class="cls-8" d="M180.55,130.84l-2.66-.68C176,129.72,175,129,175,128a1.86,1.86,0,0,1,1-1.58,4.27,4.27,0,0,1,2.32-.65,5.14,5.14,0,0,1,2.54.63,3.7,3.7,0,0,1,1.64,1.75l3-1.23a6.1,6.1,0,0,0-2.64-3,8.23,8.23,0,0,0-4.24-1.11,8.14,8.14,0,0,0-5,1.46,4.59,4.59,0,0,0-2,3.87q0,3.68,5.16,5l3,.76c1.73.53,2.6,1.35,2.6,2.48a1.93,1.93,0,0,1-1.07,1.62,4.76,4.76,0,0,1-2.64.69,4.62,4.62,0,0,1-2.72-.88,5.6,5.6,0,0,1-1.9-2.47l-2.95,1.26a7.74,7.74,0,0,0,2.88,3.66,8.12,8.12,0,0,0,4.69,1.38A8,8,0,0,0,183.8,140a4.8,4.8,0,0,0,2-3.89C185.81,133.47,184.06,131.71,180.55,130.84Z"></path><path class="cls-8" d="M196.94,130.84l-2.66-.68c-1.9-.44-2.85-1.16-2.85-2.17a1.86,1.86,0,0,1,1-1.58,4.27,4.27,0,0,1,2.32-.65,5.12,5.12,0,0,1,2.54.63,3.7,3.7,0,0,1,1.64,1.75l3-1.23a6.17,6.17,0,0,0-2.65-3,9,9,0,0,0-9.26.35,4.58,4.58,0,0,0-2,3.87c0,2.45,1.71,4.11,5.15,5l3,.76c1.73.53,2.6,1.35,2.6,2.48a1.93,1.93,0,0,1-1.07,1.62,4.74,4.74,0,0,1-2.64.69,4.64,4.64,0,0,1-2.72-.88,5.51,5.51,0,0,1-1.89-2.47l-3,1.26a7.74,7.74,0,0,0,2.88,3.66,8.12,8.12,0,0,0,4.69,1.38,8,8,0,0,0,5.08-1.58,4.8,4.8,0,0,0,2-3.89C202.2,133.47,200.45,131.71,196.94,130.84Z"></path><path class="cls-9" d="M43.78,53.56v9.85H67.33C66.61,68.94,64.76,73,62,75.83,58.52,79.27,53.15,83,43.78,83a25.86,25.86,0,0,1-25.84-26.2,25.86,25.86,0,0,1,25.84-26.2,25.06,25.06,0,0,1,17.74,7l6.93-6.93a34.05,34.05,0,0,0-24.67-10C23.91,20.75,7.21,36.93,7.21,56.8s16.7,36.05,36.57,36.05c10.73,0,18.82-3.53,25.15-10.1,6.49-6.48,8.53-15.66,8.53-23a31.62,31.62,0,0,0-.52-6.16Z"></path><path class="cls-10" d="M106.9,82.92c-7.05,0-13.14-5.81-13.14-14.1s6.09-14.1,13.14-14.1S120,60.44,120,68.82,114,82.92,106.9,82.92Zm0-37.38a23.28,23.28,0,1,0,23.35,23.28A22.94,22.94,0,0,0,106.9,45.54Z"></path><path class="cls-9" d="M209.64,82.92c-7,0-12.42-6-12.42-14.1s5.37-14.1,12.42-14.1,12.42,6,12.42,14.18S216.61,82.92,209.64,82.92Zm11.73-32.17H221a16.12,16.12,0,0,0-12.25-5.21C197.14,45.54,187,55.68,187,68.82s10.13,23.27,21.75,23.27A15.88,15.88,0,0,0,221,86.8h.36V90c0,8.9-4.76,13.66-12.41,13.66-6.25,0-10.14-4.48-11.74-8.29l-8.89,3.69A22.17,22.17,0,0,0,209,112.84c12,0,22.11-7,22.11-24.24V46.75h-9.7Z"></path><path class="cls-11" d="M159,82.92c-7.05,0-13.14-5.81-13.14-14.1s6.09-14.1,13.14-14.1,13.14,5.72,13.14,14.1S166,82.92,159,82.92Zm0-37.38a23.28,23.28,0,1,0,23.35,23.28A22.94,22.94,0,0,0,159,45.54Z"></path><rect class="cls-12" x="239.08" y="21.71" width="10.05" height="70.37"></rect><path class="cls-10" d="M279.45,54.28c4.13,0,7.65,2.12,8.81,5.12l-21,8.7C267.24,58.32,274.17,54.28,279.45,54.28Zm.72,28.64c-5.2,0-8.89-2.37-11.29-7L300,63l-1-2.65c-1.92-5.2-7.85-14.82-19.91-14.82S257.1,55,257.1,68.82c0,13.05,9.86,23.27,23.07,23.27a23.2,23.2,0,0,0,19.39-10.3l-7.93-5.28C289,80.35,285.38,82.92,280.17,82.92Z"></path></g><g id="Layer_3" data-name="Layer 3"><path class="cls-8" d="M20.66,162.69a5.93,5.93,0,0,1-2.49.45,4.42,4.42,0,0,1-4.67-4.78,4.7,4.7,0,0,1,4.94-5,5.08,5.08,0,0,1,2.24.42l-.3,1a4.49,4.49,0,0,0-1.9-.39c-2.22,0-3.69,1.41-3.69,3.89,0,2.31,1.33,3.8,3.63,3.8a5,5,0,0,0,2-.39Z"></path><path class="cls-8" d="M22.67,159.83A2.18,2.18,0,0,0,25,162.19a4.61,4.61,0,0,0,1.88-.35l.21.88a5.47,5.47,0,0,1-2.26.42,3.14,3.14,0,0,1-3.33-3.42c0-2,1.2-3.65,3.18-3.65,2.21,0,2.8,1.94,2.8,3.19a5.55,5.55,0,0,1,0,.57Zm3.62-.88a1.76,1.76,0,0,0-1.71-2,2,2,0,0,0-1.89,2Z"></path><path class="cls-8" d="M29,158.34c0-.8,0-1.49-.05-2.12H30l.05,1.33h.05A2,2,0,0,1,32,156.07a1.25,1.25,0,0,1,.35,0v1.16a1.76,1.76,0,0,0-.42,0,1.73,1.73,0,0,0-1.65,1.58,3.34,3.34,0,0,0-.06.58V163H29Z"></path><path class="cls-8" d="M35.4,154.27v1.95h1.77v.94H35.4v3.65c0,.85.24,1.32.93,1.32a2.82,2.82,0,0,0,.71-.08l.06.92a3,3,0,0,1-1.1.17,1.71,1.71,0,0,1-1.33-.52,2.49,2.49,0,0,1-.47-1.76v-3.7H33.15v-.94H34.2V154.6Z"></path><path class="cls-8" d="M39.92,154.32a.76.76,0,0,1-1.52,0,.75.75,0,0,1,.77-.78A.73.73,0,0,1,39.92,154.32ZM38.55,163v-6.78h1.23V163Z"></path><path class="cls-8" d="M42,163v-5.84H41v-.94h1v-.36a2.72,2.72,0,0,1,3-3,3.4,3.4,0,0,1,1.72.45l-.35.94a2.59,2.59,0,0,0-1.43-.39c-1.3,0-1.68.91-1.68,2v.34h3.94V163H45.89v-5.84H43.17V163Z"></path><path class="cls-8" d="M49.83,159.83a2.18,2.18,0,0,0,2.33,2.36,4.61,4.61,0,0,0,1.88-.35l.21.88a5.47,5.47,0,0,1-2.26.42,3.14,3.14,0,0,1-3.33-3.42c0-2,1.2-3.65,3.18-3.65,2.21,0,2.8,1.94,2.8,3.19a5.55,5.55,0,0,1,0,.57Zm3.62-.88a1.76,1.76,0,0,0-1.71-2,2,2,0,0,0-1.89,2Z"></path><path class="cls-8" d="M62,153.05v8.2c0,.6,0,1.29,0,1.75H61l-.06-1.18h0a2.5,2.5,0,0,1-2.31,1.33c-1.64,0-2.9-1.38-2.9-3.44,0-2.26,1.39-3.64,3-3.64a2.28,2.28,0,0,1,2,1h0v-4ZM60.78,159a2.35,2.35,0,0,0-.05-.52A1.82,1.82,0,0,0,59,157c-1.28,0-2,1.12-2,2.62s.67,2.51,2,2.51a1.86,1.86,0,0,0,1.81-1.47,2.27,2.27,0,0,0,.05-.53Z"></path><path class="cls-8" d="M68.59,160l-1,3H66.35l3.21-9.44H71L74.25,163H73l-1-3Zm3.1-.95-.92-2.72c-.21-.62-.35-1.18-.49-1.72h0q-.21.84-.48,1.71l-.92,2.73Z"></path><path class="cls-8" d="M81.27,156.22c0,.49-.06,1-.06,1.86V162a3.91,3.91,0,0,1-1,3.1,3.6,3.6,0,0,1-2.46.81,4.45,4.45,0,0,1-2.26-.56l.31-.94a3.84,3.84,0,0,0,2,.53c1.26,0,2.19-.66,2.19-2.37v-.75h0A2.43,2.43,0,0,1,77.82,163a3,3,0,0,1-2.88-3.3c0-2.3,1.49-3.6,3-3.6a2.23,2.23,0,0,1,2.11,1.17h0l.06-1ZM80,158.9a1.62,1.62,0,0,0-.07-.56A1.77,1.77,0,0,0,78.2,157c-1.18,0-2,1-2,2.57,0,1.33.67,2.43,2,2.43a1.78,1.78,0,0,0,1.7-1.26,2.16,2.16,0,0,0,.1-.66Z"></path><path class="cls-8" d="M83.94,159.83a2.17,2.17,0,0,0,2.32,2.36,4.54,4.54,0,0,0,1.88-.35l.21.88a5.41,5.41,0,0,1-2.25.42,3.15,3.15,0,0,1-3.34-3.42c0-2,1.21-3.65,3.18-3.65,2.21,0,2.8,1.94,2.8,3.19a5.55,5.55,0,0,1,0,.57Zm3.61-.88a1.75,1.75,0,0,0-1.71-2A2,2,0,0,0,84,159Z"></path><path class="cls-8" d="M90.27,158.06c0-.71,0-1.28-.06-1.84H91.3l.07,1.12h0a2.5,2.5,0,0,1,2.24-1.27c.94,0,2.4.56,2.4,2.88V163H94.8v-3.91c0-1.09-.4-2-1.56-2a1.75,1.75,0,0,0-1.66,1.26,1.91,1.91,0,0,0-.08.57V163H90.27Z"></path><path class="cls-8" d="M102.87,162.75a4.53,4.53,0,0,1-2,.39,3.23,3.23,0,0,1-3.38-3.46,3.45,3.45,0,0,1,3.65-3.6,4.1,4.1,0,0,1,1.71.35l-.28.95a2.87,2.87,0,0,0-1.43-.32,2.56,2.56,0,0,0,0,5.1,3.4,3.4,0,0,0,1.51-.34Z"></path><path class="cls-8" d="M105,156.22l1.48,4c.16.44.32,1,.44,1.38h0c.13-.4.27-.92.44-1.41l1.34-4H110l-1.85,4.83c-.89,2.33-1.49,3.52-2.33,4.25a3.39,3.39,0,0,1-1.51.8l-.31-1a3.38,3.38,0,0,0,1.08-.6,3.77,3.77,0,0,0,1-1.38.92.92,0,0,0,.09-.29.9.9,0,0,0-.08-.32l-2.51-6.25Z"></path></g></svg> 