<svg width="1440" height="174" viewBox="0 0 1440 174" fill="none" xmlns="http://www.w3.org/2000/svg">
<g opacity="0.5">
<path d="M-0.5 87.5C-0.5 87.5 98.1353 46.9999 168.805 46.9999C239.476 46.9999 281.108 100.711 351.779 100.711C422.449 100.711 463.076 71.5968 533.746 71.5968C604.416 71.5968 639.514 100.711 710.184 100.711C780.854 100.711 820.979 60.5533 891.649 60.5533C962.319 60.5533 1001.44 111.755 1072.11 111.755C1142.78 111.755 1182.4 71.5968 1253.07 71.5968C1323.74 71.5968 1439.5 102 1439.5 102V174H-0.5V87.5Z" fill="url(#paint0_linear_3496_26227)"/>
<path d="M-0.5 87.5C-0.5 87.5 98.1353 46.9999 168.805 46.9999C239.476 46.9999 281.108 100.711 351.779 100.711C422.449 100.711 463.076 71.5968 533.746 71.5968C604.416 71.5968 639.514 100.711 710.184 100.711C780.854 100.711 820.979 60.5533 891.649 60.5533C962.319 60.5533 1001.44 111.755 1072.11 111.755C1142.78 111.755 1182.4 71.5968 1253.07 71.5968C1323.74 71.5968 1439.5 102 1439.5 102V174H-0.5V87.5Z" fill="url(#paint1_linear_3496_26227)"/>
</g>
<g opacity="0.5">
<path d="M0 22.1524C0 22.1524 2.84889 7.35183e-05 49.164 0C95.4791 -7.35181e-05 202.598 54.8537 281.052 22.1524C359.507 -10.5488 429.228 36.9207 499.037 36.9207C568.846 36.9207 690.703 -12.6585 762.206 12.1311C833.709 36.9207 861.72 36.9207 931.529 36.9207C1001.34 36.9207 1009.69 12.1311 1079.5 12.1311C1149.31 12.1311 1181 54.8537 1250.81 54.8537C1320.62 54.8537 1439 0 1439 0V173H0V22.1524Z" fill="url(#paint2_linear_3496_26227)"/>
<path d="M0 22.1524C0 22.1524 2.84889 7.35183e-05 49.164 0C95.4791 -7.35181e-05 202.598 54.8537 281.052 22.1524C359.507 -10.5488 429.228 36.9207 499.037 36.9207C568.846 36.9207 690.703 -12.6585 762.206 12.1311C833.709 36.9207 861.72 36.9207 931.529 36.9207C1001.34 36.9207 1009.69 12.1311 1079.5 12.1311C1149.31 12.1311 1181 54.8537 1250.81 54.8537C1320.62 54.8537 1439 0 1439 0V173H0V22.1524Z" fill="url(#paint3_linear_3496_26227)"/>
</g>
<defs>
<linearGradient id="paint0_linear_3496_26227" x1="710.181" y1="41.4782" x2="716.197" y2="210.143" gradientUnits="userSpaceOnUse">
<stop stop-color="white"/>
<stop offset="1" stop-color="white"/>
</linearGradient>
<linearGradient id="paint1_linear_3496_26227" x1="710.181" y1="41.4782" x2="716.197" y2="210.143" gradientUnits="userSpaceOnUse">
<stop stop-color="#E8E8E8"/>
<stop offset="1" stop-color="white" stop-opacity="0"/>
</linearGradient>
<linearGradient id="paint2_linear_3496_26227" x1="550.183" y1="223.634" x2="556.904" y2="400.825" gradientUnits="userSpaceOnUse">
<stop stop-color="#4AA7F0"/>
<stop offset="1" stop-color="white" stop-opacity="0"/>
</linearGradient>
<linearGradient id="paint3_linear_3496_26227" x1="550.183" y1="223.634" x2="556.904" y2="400.825" gradientUnits="userSpaceOnUse">
<stop stop-color="#7AB4E1"/>
<stop offset="1" stop-color="white" stop-opacity="0"/>
</linearGradient>
</defs>
</svg>
