<svg width="1439" height="210" viewBox="0 0 1439 210" fill="none" xmlns="http://www.w3.org/2000/svg">
<g opacity="0.5">
<path d="M-1 95.0001C-1 95.0001 90.0203 44.0001 158 44.0001C225.98 44.0001 310.02 95.0001 378 95.0001C445.98 95.0001 505.006 66.1312 572.986 66.1312C640.966 66.1312 674.727 95.8782 742.707 95.8782C810.687 95.8782 849.284 54.8479 917.264 54.8479C985.243 54.8479 1022.87 107.162 1090.85 107.162C1158.83 107.162 1196.95 66.1312 1264.93 66.1312C1332.91 66.1312 1439 95.8782 1439 95.8782V209.729H-1V95.0001Z" fill="url(#paint0_linear_4160_25096)"/>
<path d="M-1 95.0001C-1 95.0001 90.0203 44.0001 158 44.0001C225.98 44.0001 310.02 95.0001 378 95.0001C445.98 95.0001 505.006 66.1312 572.986 66.1312C640.966 66.1312 674.727 95.8782 742.707 95.8782C810.687 95.8782 849.284 54.8479 917.264 54.8479C985.243 54.8479 1022.87 107.162 1090.85 107.162C1158.83 107.162 1196.95 66.1312 1264.93 66.1312C1332.91 66.1312 1439 95.8782 1439 95.8782V209.729H-1V95.0001Z" fill="url(#paint1_linear_4160_25096)"/>
</g>
<g opacity="0.5">
<path d="M-1 40.7603C-1 40.7603 22 0.000120878 102 6.10352e-05C182 1.19209e-06 230.273 57.6735 309 26.0001C387.727 -5.67317 425.724 40.7603 495.775 40.7603C565.826 40.7603 688.107 -7.2605 759.858 16.7499C831.609 40.7603 859.717 40.7603 929.768 40.7603C999.819 40.7603 1008.2 16.7499 1078.25 16.7499C1148.3 16.7499 1180.1 58.1296 1250.16 58.1296C1320.21 58.1296 1439 5.00014 1439 5.00014V210H-1V40.7603Z" fill="url(#paint2_linear_4160_25096)"/>
<path d="M-1 40.7603C-1 40.7603 22 0.000120878 102 6.10352e-05C182 1.19209e-06 230.273 57.6735 309 26.0001C387.727 -5.67317 425.724 40.7603 495.775 40.7603C565.826 40.7603 688.107 -7.2605 759.858 16.7499C831.609 40.7603 859.717 40.7603 929.768 40.7603C999.819 40.7603 1008.2 16.7499 1078.25 16.7499C1148.3 16.7499 1180.1 58.1296 1250.16 58.1296C1320.21 58.1296 1439 5.00014 1439 5.00014V210H-1V40.7603Z" fill="url(#paint3_linear_4160_25096)"/>
</g>
<defs>
<linearGradient id="paint0_linear_4160_25096" x1="742.704" y1="35.3585" x2="749.231" y2="207.658" gradientUnits="userSpaceOnUse">
<stop stop-color="white"/>
<stop offset="1" stop-color="white"/>
</linearGradient>
<linearGradient id="paint1_linear_4160_25096" x1="742.704" y1="35.3585" x2="749.231" y2="207.658" gradientUnits="userSpaceOnUse">
<stop stop-color="#E8E8E8"/>
<stop offset="1" stop-color="white" stop-opacity="0"/>
</linearGradient>
<linearGradient id="paint2_linear_4160_25096" x1="547.105" y1="155.605" x2="553.39" y2="327.242" gradientUnits="userSpaceOnUse">
<stop stop-color="#4AA7F0"/>
<stop offset="1" stop-color="white" stop-opacity="0"/>
</linearGradient>
<linearGradient id="paint3_linear_4160_25096" x1="547.105" y1="155.605" x2="553.39" y2="327.242" gradientUnits="userSpaceOnUse">
<stop stop-color="#7AB4E1"/>
<stop offset="1" stop-color="white" stop-opacity="0"/>
</linearGradient>
</defs>
</svg>
