<svg width="1440" height="205" viewBox="0 0 1440 205" fill="none" xmlns="http://www.w3.org/2000/svg">
<g opacity="0.5">
<path d="M-68 102.432C-68 102.432 94.0618 36.2711 165.158 36.2711C236.253 36.2711 278.137 91.1491 349.232 91.1491C420.328 91.1491 461.199 61.4021 532.295 61.4021C603.391 61.4021 638.7 91.1491 709.796 91.1491C780.891 91.1491 821.258 50.1188 892.353 50.1188C963.449 50.1188 1002.8 102.432 1073.9 102.432C1145 102.432 1184.86 61.4021 1255.95 61.4021C1327.05 61.4021 1438 91.1491 1438 91.1491V205H-20L-68 102.432Z" fill="url(#paint0_linear_3936_25475)"/>
<path d="M-68 102.432C-68 102.432 94.0618 36.2711 165.158 36.2711C236.253 36.2711 278.137 91.1491 349.232 91.1491C420.328 91.1491 461.199 61.4021 532.295 61.4021C603.391 61.4021 638.7 91.1491 709.796 91.1491C780.891 91.1491 821.258 50.1188 892.353 50.1188C963.449 50.1188 1002.8 102.432 1073.9 102.432C1145 102.432 1184.86 61.4021 1255.95 61.4021C1327.05 61.4021 1438 91.1491 1438 91.1491V205H-20L-68 102.432Z" fill="url(#paint1_linear_3936_25475)"/>
</g>
<g opacity="0.5">
<path d="M-26 53.1294C-26 53.1294 -25.7944 0 44.5 0C114.794 0 199 53.1294 278 21.4561C357 -10.2172 427.206 35.7602 497.5 35.7602C567.794 35.7602 690.5 -12.2606 762.5 11.7498C834.5 35.7602 862.706 35.7602 933 35.7602C1003.29 35.7602 1011.71 11.7498 1082 11.7498C1152.29 11.7498 1184.21 53.1294 1254.5 53.1294C1324.79 53.1294 1444 0 1444 0V205H-16L-26 53.1294Z" fill="url(#paint2_linear_3936_25475)"/>
<path d="M-26 53.1294C-26 53.1294 -25.7944 0 44.5 0C114.794 0 199 53.1294 278 21.4561C357 -10.2172 427.206 35.7602 497.5 35.7602C567.794 35.7602 690.5 -12.2606 762.5 11.7498C834.5 35.7602 862.706 35.7602 933 35.7602C1003.29 35.7602 1011.71 11.7498 1082 11.7498C1152.29 11.7498 1184.21 53.1294 1254.5 53.1294C1324.79 53.1294 1444 0 1444 0V205H-16L-26 53.1294Z" fill="url(#paint3_linear_3936_25475)"/>
</g>
<defs>
<linearGradient id="paint0_linear_3936_25475" x1="709.793" y1="30.6294" x2="716.034" y2="202.951" gradientUnits="userSpaceOnUse">
<stop stop-color="white"/>
<stop offset="1" stop-color="white"/>
</linearGradient>
<linearGradient id="paint1_linear_3936_25475" x1="709.793" y1="30.6294" x2="716.034" y2="202.951" gradientUnits="userSpaceOnUse">
<stop stop-color="#E8E8E8"/>
<stop offset="1" stop-color="white" stop-opacity="0"/>
</linearGradient>
<linearGradient id="paint2_linear_3936_25475" x1="549" y1="216.605" x2="555.263" y2="388.244" gradientUnits="userSpaceOnUse">
<stop stop-color="#4AA7F0"/>
<stop offset="1" stop-color="white" stop-opacity="0"/>
</linearGradient>
<linearGradient id="paint3_linear_3936_25475" x1="549" y1="216.605" x2="555.263" y2="388.244" gradientUnits="userSpaceOnUse">
<stop stop-color="#7AB4E1"/>
<stop offset="1" stop-color="white" stop-opacity="0"/>
</linearGradient>
</defs>
</svg>
