<svg width="1440" height="127" viewBox="0 0 1440 127" fill="none" xmlns="http://www.w3.org/2000/svg">
<g opacity="0.5">
<path d="M-0.5 40.5C-0.5 40.5 98.2038 -6.10352e-05 168.923 -6.10352e-05C239.642 -6.10352e-05 281.304 53.7114 352.023 53.7114C422.743 53.7114 463.398 24.5968 534.117 24.5968C604.836 24.5968 639.958 53.7114 710.678 53.7114C781.397 53.7114 821.549 13.5533 892.269 13.5533C962.988 13.5533 1002.14 64.7549 1072.85 64.7549C1143.57 64.7549 1183.22 24.5968 1253.94 24.5968C1324.66 24.5968 1440.5 55 1440.5 55V127H-0.5V40.5Z" fill="url(#paint0_linear_3496_26228)"/>
<path d="M-0.5 40.5C-0.5 40.5 98.2038 -6.10352e-05 168.923 -6.10352e-05C239.642 -6.10352e-05 281.304 53.7114 352.023 53.7114C422.743 53.7114 463.398 24.5968 534.117 24.5968C604.836 24.5968 639.958 53.7114 710.678 53.7114C781.397 53.7114 821.549 13.5533 892.269 13.5533C962.988 13.5533 1002.14 64.7549 1072.85 64.7549C1143.57 64.7549 1183.22 24.5968 1253.94 24.5968C1324.66 24.5968 1440.5 55 1440.5 55V127H-0.5V40.5Z" fill="url(#paint1_linear_3496_26228)"/>
</g>
<defs>
<linearGradient id="paint0_linear_3496_26228" x1="710.675" y1="-5.52176" x2="716.686" y2="163.143" gradientUnits="userSpaceOnUse">
<stop stop-color="white"/>
<stop offset="1" stop-color="white"/>
</linearGradient>
<linearGradient id="paint1_linear_3496_26228" x1="710.675" y1="-5.52176" x2="716.686" y2="163.143" gradientUnits="userSpaceOnUse">
<stop stop-color="#E8E8E8"/>
<stop offset="1" stop-color="white" stop-opacity="0"/>
</linearGradient>
</defs>
</svg>
