<svg width="1440" height="174" viewBox="0 0 1440 174" fill="none" xmlns="http://www.w3.org/2000/svg">
<g opacity="0.5">
<path d="M0 87.5C0 87.5 98.6353 46.9999 169.305 46.9999C239.976 46.9999 281.608 100.711 352.279 100.711C422.949 100.711 463.576 71.5968 534.246 71.5968C604.916 71.5968 640.014 100.711 710.684 100.711C781.354 100.711 821.479 60.5533 892.149 60.5533C962.819 60.5533 1001.94 111.755 1072.61 111.755C1143.28 111.755 1182.9 71.5968 1253.57 71.5968C1324.24 71.5968 1440 102 1440 102V174H0V87.5Z" fill="url(#paint0_linear_3915_23911)"/>
<path d="M0 87.5C0 87.5 98.6353 46.9999 169.305 46.9999C239.976 46.9999 281.608 100.711 352.279 100.711C422.949 100.711 463.576 71.5968 534.246 71.5968C604.916 71.5968 640.014 100.711 710.684 100.711C781.354 100.711 821.479 60.5533 892.149 60.5533C962.819 60.5533 1001.94 111.755 1072.61 111.755C1143.28 111.755 1182.9 71.5968 1253.57 71.5968C1324.24 71.5968 1440 102 1440 102V174H0V87.5Z" fill="url(#paint1_linear_3915_23911)"/>
</g>
<g opacity="0.5">
<path d="M0.5 22.1524C0.5 22.1524 3.34889 7.35183e-05 49.664 0C95.9791 -7.35181e-05 203.098 54.8537 281.552 22.1524C360.007 -10.5488 429.728 36.9207 499.537 36.9207C569.346 36.9207 691.203 -12.6585 762.706 12.1311C834.209 36.9207 862.22 36.9207 932.029 36.9207C1001.84 36.9207 1010.19 12.1311 1080 12.1311C1149.81 12.1311 1181.5 54.8537 1251.31 54.8537C1321.12 54.8537 1439.5 0 1439.5 0V173H0.5V22.1524Z" fill="url(#paint2_linear_3915_23911)"/>
<path d="M0.5 22.1524C0.5 22.1524 3.34889 7.35183e-05 49.664 0C95.9791 -7.35181e-05 203.098 54.8537 281.552 22.1524C360.007 -10.5488 429.728 36.9207 499.537 36.9207C569.346 36.9207 691.203 -12.6585 762.706 12.1311C834.209 36.9207 862.22 36.9207 932.029 36.9207C1001.84 36.9207 1010.19 12.1311 1080 12.1311C1149.81 12.1311 1181.5 54.8537 1251.31 54.8537C1321.12 54.8537 1439.5 0 1439.5 0V173H0.5V22.1524Z" fill="url(#paint3_linear_3915_23911)"/>
</g>
<defs>
<linearGradient id="paint0_linear_3915_23911" x1="710.681" y1="41.4782" x2="716.697" y2="210.143" gradientUnits="userSpaceOnUse">
<stop stop-color="white"/>
<stop offset="1" stop-color="white"/>
</linearGradient>
<linearGradient id="paint1_linear_3915_23911" x1="710.681" y1="41.4782" x2="716.697" y2="210.143" gradientUnits="userSpaceOnUse">
<stop stop-color="#E8E8E8"/>
<stop offset="1" stop-color="white" stop-opacity="0"/>
</linearGradient>
<linearGradient id="paint2_linear_3915_23911" x1="550.683" y1="223.634" x2="557.404" y2="400.825" gradientUnits="userSpaceOnUse">
<stop stop-color="#4AA7F0"/>
<stop offset="1" stop-color="white" stop-opacity="0"/>
</linearGradient>
<linearGradient id="paint3_linear_3915_23911" x1="550.683" y1="223.634" x2="557.404" y2="400.825" gradientUnits="userSpaceOnUse">
<stop stop-color="#7AB4E1"/>
<stop offset="1" stop-color="white" stop-opacity="0"/>
</linearGradient>
</defs>
</svg>
