<svg width="1900" height="250" viewBox="0 0 1900 250" fill="none" xmlns="http://www.w3.org/2000/svg">
<path d="M1139 250L1142.2 239.7C1145.3 229.3 1151.7 208.7 1151.7 187.8C1151.7 167 1145.3 146 1151.7 125.2C1158 104.3 1177 83.7 1192.8 62.8C1208.7 42 1221.3 21 1227.7 10.5L1234 0H1330L1323.7 10.5C1317.3 21 1304.7 42 1295.2 62.8C1285.7 83.7 1279.3 104.3 1282.5 125.2C1285.7 146 1298.3 167 1298.3 187.8C1298.3 208.7 1285.7 229.3 1279.3 239.7L1273 250H1139Z" fill="white"/>
<path d="M740 250L746.3 239.7C752.7 229.3 765.3 208.7 771.7 187.8C778 167 778 146 784.3 125.2C790.7 104.3 803.3 83.7 819.2 62.8C835 42 854 21 863.5 10.5L873 0H1235L1228.7 10.5C1222.3 21 1209.7 42 1193.8 62.8C1178 83.7 1159 104.3 1152.7 125.2C1146.3 146 1152.7 167 1152.7 187.8C1152.7 208.7 1146.3 229.3 1143.2 239.7L1140 250H740Z" fill="white"/>
<path d="M436.001 250L432.801 239.7C429.701 229.3 423.301 208.7 410.701 187.8C398.001 167 379.001 146 382.201 125.2C385.301 104.3 410.701 83.7 426.501 62.8C442.301 42 448.701 21 451.801 10.5L455.001 0H874.001L864.501 10.5C855.001 21 836.001 42 820.201 62.8C804.301 83.7 791.701 104.3 785.301 125.2C779.001 146 779.001 167 772.701 187.8C766.301 208.7 753.701 229.3 747.301 239.7L741.001 250H436.001Z" fill="white"/>
<path d="M1823 250V239.7C1823 229.3 1823 208.7 1819.8 187.8C1816.7 167 1810.3 146 1807.2 125.2C1804 104.3 1804 83.7 1804 62.8C1804 42 1804 21 1804 10.5V0H1900V10.5C1900 21 1900 42 1900 62.8C1900 83.7 1900 104.3 1900 125.2C1900 146 1900 167 1900 187.8C1900 208.7 1900 229.3 1900 239.7V250H1823Z" fill="#FFC6D3"/>
<path d="M1747 250V239.7C1747 229.3 1747 208.7 1743.8 187.8C1740.7 167 1734.3 146 1731.2 125.2C1728 104.3 1728 83.7 1731.2 62.8C1734.3 42 1740.7 21 1743.8 10.5L1747 0H1805V10.5C1805 21 1805 42 1805 62.8C1805 83.7 1805 104.3 1808.2 125.2C1811.3 146 1817.7 167 1820.8 187.8C1824 208.7 1824 229.3 1824 239.7V250H1747Z" fill="#FFD3DD"/>
<path d="M1690 250V239.7C1690 229.3 1690 208.7 1683.7 187.8C1677.3 167 1664.7 146 1661.5 125.2C1658.3 104.3 1664.7 83.7 1671 62.8C1677.3 42 1683.7 21 1686.8 10.5L1690 0H1748L1744.8 10.5C1741.7 21 1735.3 42 1732.2 62.8C1729 83.7 1729 104.3 1732.2 125.2C1735.3 146 1741.7 167 1744.8 187.8C1748 208.7 1748 229.3 1748 239.7V250H1690Z" fill="#FFE0E7"/>
<path d="M1443 250L1452.5 239.7C1462 229.3 1481 208.7 1484.2 187.8C1487.3 167 1474.7 146 1474.7 125.2C1474.7 104.3 1487.3 83.7 1490.5 62.8C1493.7 42 1487.3 21 1484.2 10.5L1481 0H1691L1687.8 10.5C1684.7 21 1678.3 42 1672 62.8C1665.7 83.7 1659.3 104.3 1662.5 125.2C1665.7 146 1678.3 167 1684.7 187.8C1691 208.7 1691 229.3 1691 239.7V250H1443Z" fill="#FFEDF1"/>
<path d="M1272 250L1278.3 239.7C1284.7 229.3 1297.3 208.7 1297.3 187.8C1297.3 167 1284.7 146 1281.5 125.2C1278.3 104.3 1284.7 83.7 1294.2 62.8C1303.7 42 1316.3 21 1322.7 10.5L1329 0H1482L1485.2 10.5C1488.3 21 1494.7 42 1491.5 62.8C1488.3 83.7 1475.7 104.3 1475.7 125.2C1475.7 146 1488.3 167 1485.2 187.8C1482 208.7 1463 229.3 1453.5 239.7L1444 250H1272Z" fill="#FFFAFB"/>
<path d="M284 250L280.8 239.7C277.7 229.3 271.3 208.7 265 187.8C258.7 167 252.3 146 255.5 125.2C258.7 104.3 271.3 83.7 277.7 62.8C284 42 284 21 284 10.5V0H456L452.8 10.5C449.7 21 443.3 42 427.5 62.8C411.7 83.7 386.3 104.3 383.2 125.2C380 146 399 167 411.7 187.8C424.3 208.7 430.7 229.3 433.8 239.7L437 250H284Z" fill="white"/>
<path d="M151 250L154.2 239.7C157.3 229.3 163.7 208.7 163.7 187.8C163.7 167 157.3 146 160.5 125.2C163.7 104.3 176.3 83.7 179.5 62.8C182.7 42 176.3 21 173.2 10.5L170 0H285V10.5C285 21 285 42 278.7 62.8C272.3 83.7 259.7 104.3 256.5 125.2C253.3 146 259.7 167 266 187.8C272.3 208.7 278.7 229.3 281.8 239.7L285 250H151Z" fill="#FFEDF1"/>
<path d="M75 250V239.7C75 229.3 75 208.7 75 187.8C75 167 75 146 78.2 125.2C81.3 104.3 87.7 83.7 90.8 62.8C94 42 94 21 94 10.5V0H171L174.2 10.5C177.3 21 183.7 42 180.5 62.8C177.3 83.7 164.7 104.3 161.5 125.2C158.3 146 164.7 167 164.7 187.8C164.7 208.7 158.3 229.3 155.2 239.7L152 250H75Z" fill="#FFE0E7"/>
<path d="M0 250V239.7C0 229.3 0 208.7 0 187.8C0 167 0 146 0 125.2C0 104.3 0 83.7 0 62.8C0 42 0 21 0 10.5V0H95V10.5C95 21 95 42 91.8 62.8C88.7 83.7 82.3 104.3 79.2 125.2C76 146 76 167 76 187.8C76 208.7 76 229.3 76 239.7V250H0Z" fill="#FFD3DD"/>
</svg>
