<svg width="916" height="389" viewBox="0 0 916 389" fill="none" xmlns="http://www.w3.org/2000/svg">
<path d="M739.209 359.549V359.702L739.07 359.626L739.209 359.472V359.549Z" fill="#3EA0FE" fill-opacity="0.35" stroke="#636F97" stroke-width="0.2" stroke-linecap="round" stroke-linejoin="round"/>
<path d="M476.561 379.896H476.423L476.284 380.126H476.145L476.076 379.819L475.938 379.205V378.974L476.215 378.59L476.423 378.514L476.63 378.283L476.908 378.36L477.046 378.667L477.116 378.897L477.046 379.205L476.908 379.435L476.7 379.742L476.561 379.896Z" fill="#3EA0FE" fill-opacity="0.35" stroke="#636F97" stroke-width="0.2" stroke-linecap="round" stroke-linejoin="round"/>
<path d="M479.752 372.371L479.682 372.601L479.544 372.678L479.336 372.601V372.371L479.475 372.294V372.064L479.613 371.91L479.821 371.987L479.752 372.371Z" fill="#3EA0FE" fill-opacity="0.35" stroke="#636F97" stroke-width="0.2" stroke-linecap="round" stroke-linejoin="round"/>
<path d="M454.481 165.417L454.982 167.238L456.735 166.328L458.238 168.907L459.866 169.969L460.617 173.459L459.991 176.797L461.243 180.893L464.123 183.169L464.249 185.749L462.12 187.114L461.995 190.3L459.24 195.004L458.113 194.397L457.862 192.273L453.98 188.935L453.103 184.383L453.229 177.707L453.855 174.824L452.728 173.307L452.102 170.121L454.481 165.417V165.417Z" fill="#3EA0FE" fill-opacity="0.35" stroke="#636F97" stroke-width="0.2" stroke-linecap="round" stroke-linejoin="round"/>
<path d="M433.371 110.286L432.988 111.44L433.882 114.471L433.627 118.223H430.051L431.456 120.244L429.796 126.017L428.647 127.605L423.028 127.749L419.963 129.914L414.6 129.192L405.279 126.739L403.619 123.708L397.362 125.295L396.723 127.027L392.765 125.728L389.445 125.44L386.508 123.708L387.402 121.543L387.146 119.955L388.934 119.522L392.382 121.976L393.148 119.522L398.766 119.955L403.236 118.368L406.3 118.656L408.471 120.533L408.982 118.945L407.705 113.028L409.876 111.873L411.919 107.688L416.771 110.719L420.091 106.966L422.262 106.245L427.37 108.987L430.307 108.554L433.371 110.286V110.286Z" fill="#3EA0FE" fill-opacity="0.35" stroke="#636F97" stroke-width="0.2" stroke-linecap="round" stroke-linejoin="round"/>
<path d="M365.861 89.9206L365.345 96.0824L363.669 96.3758L363.153 101.511L357.48 97.256L354.257 97.9896L349.744 93.735L346.649 90.0673L343.813 89.9206L342.781 86.693L347.81 84.9325L352.452 85.666L358.254 83.7588L362.251 87.7199L365.861 89.9206V89.9206Z" fill="#3EA0FE" fill-opacity="0.35" stroke="#636F97" stroke-width="0.2" stroke-linecap="round" stroke-linejoin="round"/>
<path d="M510.414 156.272L507.506 160.138L505.862 166.83L508.517 172.183L502.7 170.994L496.378 173.968L496.757 178.726L490.94 179.619L486.008 176.198L480.95 178.875L476.145 178.578L475.133 172.332L471.593 169.209L472.478 168.02L471.719 166.83L472.478 163.856L474.754 160.882L471.213 156.867L470.328 153.298L471.719 151.216L473.995 155.082L476.398 154.487L481.456 155.826L491.067 156.421L493.975 154.041L501.436 151.811L506.494 155.231L510.414 156.272V156.272Z" fill="#3EA0FE" fill-opacity="0.35" stroke="#636F97" stroke-width="0.2" stroke-linecap="round" stroke-linejoin="round"/>
<path d="M448.858 145.212L451.281 145.067L449.878 149.109L453.322 152.717L452.684 156.902L451.281 157.335L450.133 158.201L448.092 160.366L447.582 165.417L441.46 161.953L438.781 158.057L436.103 156.036L432.914 152.572L431.256 149.83L427.812 145.5L428.833 141.748L431.384 143.913L432.659 141.892L435.593 141.748L441.332 143.336L445.796 143.191L448.858 145.212V145.212Z" fill="#3EA0FE" fill-opacity="0.35" stroke="#636F97" stroke-width="0.2" stroke-linecap="round" stroke-linejoin="round"/>
<path d="M521.78 68.3742L516.916 68.0784L515.918 68.9659L517.789 71.9246L520.283 77.8419L515.17 78.2856L513.548 80.3567L513.922 84.9426L511.303 84.055L505.94 84.4988L504.069 82.2798L501.949 83.907L499.579 82.5757L494.715 82.4277L487.605 80.2087L481.494 79.4691L476.754 79.7649L473.761 82.1319L470.892 82.5757L470.268 78.4336L467.898 74.2915L471.391 72.3684L470.892 68.818L468.771 65.4156L468.023 61.4214H473.885L479.872 58.019L480.496 52.9893L484.986 50.0307L483.739 46.0365L487.106 44.5572L492.844 41.1548L499.454 43.3738L500.577 45.5927L503.57 44.5572L509.557 46.6283L510.929 50.9183L510.056 53.2852L514.796 59.2024L517.415 60.8297V62.4569L521.655 64.0842L523.776 66.4511L521.78 68.3742Z" fill="#3EA0FE" fill-opacity="0.35" stroke="#636F97" stroke-width="0.2" stroke-linecap="round" stroke-linejoin="round"/>
<path d="M105.045 301.964H103.867L104.768 296.436L105.253 292.521L105.322 291.753L105.808 291.522L106.431 292.137L108.164 289.142L108.926 289.065L108.857 289.833H109.55L109.342 291.215L108.441 293.288L108.718 294.056L108.094 295.822L108.302 296.283L107.609 298.816L106.708 300.122L105.946 300.275L105.045 301.964V301.964Z" fill="#3EA0FE" fill-opacity="0.35" stroke="#636F97" stroke-width="0.2" stroke-linecap="round" stroke-linejoin="round"/>
<path d="M228.467 151.323L230.823 152.014L234.08 151.86L231.793 153.857L230.407 154.164L226.596 152.091L226.18 150.478L227.912 149.02L228.467 151.323Z" fill="#3EA0FE" fill-opacity="0.35" stroke="#636F97" stroke-width="0.2" stroke-linecap="round" stroke-linejoin="round"/>
<path d="M238.444 139.038L236.781 139.115L232.761 137.656L230.336 135.353L231.653 134.969L235.741 136.197L238.652 138.193L238.444 139.038Z" fill="#3EA0FE" fill-opacity="0.35" stroke="#636F97" stroke-width="0.2" stroke-linecap="round" stroke-linejoin="round"/>
<path d="M25.0771 141.879L22.9288 142.57L18.5629 140.42V138.731L16.5532 137.042L16.7611 135.66L13.7812 134.815L14.1971 132.205L15.2366 131.13L18.0778 132.128L19.7411 132.896L22.5823 133.356L22.7209 135.046L22.9981 137.272L25.2157 139.268L25.0771 141.879Z" fill="#3EA0FE" fill-opacity="0.35" stroke="#636F97" stroke-width="0.2" stroke-linecap="round" stroke-linejoin="round"/>
<path d="M260.069 131.514L256.604 135.66L259.307 134.047L261.317 135.122L259.654 136.735L262.287 138.04L264.227 136.888L267.207 138.347L265.267 141.879L267.9 141.034L267.692 143.568L268.039 146.563L265.544 150.862L263.881 151.016L261.871 150.094L263.604 146.179L262.772 145.564L257.713 149.71L255.634 149.557L258.683 147.254L255.634 146.102L251.823 146.409L245.17 146.255L245.031 144.873L247.665 143.107L246.487 141.879L250.229 138.961L255.911 131.36L258.822 128.673L262.287 127.061L263.742 127.214L262.703 128.519L260.069 131.514Z" fill="#3EA0FE" fill-opacity="0.35" stroke="#636F97" stroke-width="0.2" stroke-linecap="round" stroke-linejoin="round"/>
<path d="M10.5916 115.083L11.6311 115.697L15.0961 115.313L10.1065 120.611L10.3144 124.45H8.99769L8.51258 122.3L8.85908 120.074L8.30469 118.615L9.20558 116.542L10.5916 115.083Z" fill="#3EA0FE" fill-opacity="0.35" stroke="#636F97" stroke-width="0.2" stroke-linecap="round" stroke-linejoin="round"/>
<path d="M206.984 78.6129L204.49 80.9163L203.311 80.5324L203.242 79.2271L203.519 78.92L205.46 77.6147L206.638 77.6915L206.984 78.6129Z" fill="#3EA0FE" fill-opacity="0.35" stroke="#636F97" stroke-width="0.2" stroke-linecap="round" stroke-linejoin="round"/>
<path d="M200.264 76.1557L195.274 78.6127L193.195 78.4591V77.3074L196.66 75.2344L200.818 75.3112L200.264 76.1557Z" fill="#3EA0FE" fill-opacity="0.35" stroke="#636F97" stroke-width="0.2" stroke-linecap="round" stroke-linejoin="round"/>
<path d="M198.115 63.2568L197.491 65.1763L199.362 64.4853L200.402 65.637L202.827 67.1726L205.461 68.4778L204.49 70.5509L206.916 70.2438L208.233 71.7026L204.768 73.0846L200.679 72.0097L200.125 70.0134L195.759 72.3936L190.076 74.6202L190.561 72.0865L186.195 72.4704L190.145 70.3205L192.64 66.8655L196.174 62.9497L198.115 63.2568Z" fill="#3EA0FE" fill-opacity="0.35" stroke="#636F97" stroke-width="0.2" stroke-linecap="round" stroke-linejoin="round"/>
<path d="M177.6 48.6688L174.759 50.1276L171.848 48.8991L169.145 49.283L166.789 47.4403L170.254 46.1351L173.65 44.3691L175.729 45.5208L176.838 46.2886L177.115 47.0564L177.6 48.6688Z" fill="#3EA0FE" fill-opacity="0.35" stroke="#636F97" stroke-width="0.2" stroke-linecap="round" stroke-linejoin="round"/>
<path d="M214.334 158.156L212.81 155.392L214.819 148.866L213.71 147.484L211.146 148.252L210.384 147.023L206.573 150.632L204.355 154.394L202.415 156.621L200.682 157.389L199.504 157.619L198.742 158.771H192.297L186.891 158.847L185.02 159.692L180.308 163.07V162.993L179.684 162.686L178.298 163.377L176.981 164.375L175.734 163.531L172.477 164.145L169.774 164.836L168.458 165.45L166.864 167.063L168.111 167.6L169.289 167.293H169.497L169.289 168.752L165.963 169.289L164.022 169.904L162.844 170.671L161.042 170.211L159.934 170.441L157.924 171.823L154.736 173.359L152.865 173.052L154.251 171.362L156.815 168.675L159.656 167.063L160.419 165.681L161.042 163.377L163.676 160.69L164.3 157.619L165.062 160.613L167.695 161.304L169.358 159.692L168.388 156.006L167.765 154.471L164.993 153.55L162.359 153.012H159.656L157.3 152.398L157.023 151.323L156.053 152.014L155.221 151.86L156.538 150.248L155.291 149.634L156.607 147.791L155.776 146.409L156.954 145.027L153.35 144.336L153.281 141.572L152.726 140.958L150.44 140.804L147.598 139.883L146.559 140.497L145.311 141.649L143.024 142.417L140.876 144.336L137.134 143.031L134.085 143.645L131.382 142.186L128.194 141.418L125.907 141.111L125.214 140.343L125.838 137.733H124.66L123.759 139.576H116.69H104.909H93.2671H82.9414H72.685H62.4979H52.0336H48.7072H38.5201H28.7488H28.2637L24.5215 134.892L23.4127 132.819L18.5617 130.823L19.4626 126.6L21.9574 123.759L19.1161 121.686L21.2644 117.924L19.8091 114.546L21.5416 112.089L25.0759 109.862L27.2935 106.944L24.1057 104.027L25.0759 98.729L25.8382 95.5042L24.7294 93.4312L24.175 91.5885L24.5908 89.2083L20.0863 90.6671L14.8195 93.2009L14.6116 90.2832L14.2651 88.287L12.3247 87.0585L9.41406 86.9049L34.0849 61.7981L51.1327 46.1351L55.2907 47.1332L57.5776 49.1295L60.1417 49.5133L64.5076 47.8242L69.3586 46.5189L73.0315 46.9796L79.1992 45.2137L84.8818 44.2156L85.0204 45.9047L88.1389 44.9066L90.8416 42.9871L92.2969 43.4478L93.2671 47.1332L99.8506 44.2923L97.1479 47.4403L101.306 46.7493L103.523 45.5976L106.711 45.8279L109.414 47.5171L114.611 49.0527L117.869 49.7437L120.918 49.5133L122.927 51.6632L117.037 53.7362L121.472 54.5808L129.719 54.1201L132.768 53.3523L133.738 55.886L138.659 53.813L137.203 51.9703L140.322 50.5883L143.925 50.3579L146.628 49.974L148.083 50.9722L149.123 53.1988L152.588 52.8916L156.261 54.8111L161.25 54.1201L165.408 54.1969L167.072 51.5864L170.19 50.8954L173.586 52.2774L170.606 56.2699L174.902 52.8916L177.12 53.0452L181.555 48.8223L180.446 46.2886L178.437 44.5995L182.248 40.0695L187.931 37.1519L191.049 37.8429L192.435 39.6088L192.713 44.2156L188.693 46.2118L193.336 47.0564L190.287 51.2793L196.455 48.0545L197.979 50.7418L194.999 53.813L195.9 56.6538L200.959 53.6594L205.464 49.974L208.721 45.444L212.532 45.7512L216.275 46.3654L218.769 48.4384L217.591 50.5115L214.057 52.7381L214.681 54.9647L213.017 57.0377L205.464 60.0321L200.959 60.7231L198.742 59.4179L196.455 61.5677L191.327 65.1764L189.248 67.0958L183.911 70.0135L179.407 70.3206L175.873 72.1633L173.863 75.0809L169.913 75.6184L163.884 79.227L157.37 84.2177L153.905 87.7495L150.509 93.0473L154.667 93.8151L153.627 98.038L153.073 101.57L158.132 100.648L162.983 102.645L165.27 104.411L166.448 106.56L169.844 107.866L172.338 109.785L177.605 110.092L180.932 110.553L178.437 114.546L177.259 119.229L177.328 124.527L180.377 129.057L183.634 127.521L187.515 122.607L189.109 115.237L187.931 112.78L194.168 110.553L199.365 107.328L202.692 104.104L203.87 101.032L203.593 97.1166L201.375 93.6615L207.543 88.9012L208.236 84.8319L210.938 77.9218L213.572 76.8468L218.215 78.0753L221.126 78.536L224.244 77.3075L226.392 78.8431L228.887 81.4536L229.026 83.1428L234.362 83.5267L232.56 87.2888L230.966 92.9705L233.6 93.7383L234.708 96.4256L240.391 93.8919L245.588 88.8244L248.499 86.7514L249.261 90.8207L251.063 96.5792L252.449 102.107L250.093 105.025L253.419 107.635L255.429 110.246L260.211 111.474L261.874 112.933V116.926L264.23 117.54L264.992 119.306L263.606 124.604L260.627 126.37L257.716 128.059L251.618 129.748L246.143 133.587L240.183 134.431L233.184 133.357H228.125L224.452 133.664L220.502 137.119L215.374 139.269L208.374 145.564L202.9 150.018L206.157 149.25L213.71 142.877L222.234 138.885L227.501 138.424L229.788 140.804L225.561 144.029L225.145 149.173L225.214 152.859L229.095 155.239L235.055 154.548L240.044 149.096L239.351 152.628L241.084 154.394L235.956 157.542L227.363 160.46L223.343 162.379L218.354 165.911L215.789 165.527L216.829 161.458L224.036 157.389L218.423 157.542L214.334 158.156Z" fill="#3EA0FE" fill-opacity="0.35" stroke="#636F97" stroke-width="0.2" stroke-linecap="round" stroke-linejoin="round"/>
<path d="M388.236 119.859L388.488 121.574L387.603 123.914L390.511 125.785L393.798 126.097L393.419 129.996L390.764 131.712L385.96 130.464L384.696 134.363L381.662 134.675L380.524 133.115L377.111 136.546L373.95 137.014L371.169 134.831L368.893 130.62L365.859 132.179V127.657L370.41 122.198L370.158 119.703L373.065 120.639L374.709 118.923H380.018L381.283 116.896L388.236 119.859V119.859Z" fill="#3EA0FE" fill-opacity="0.35" stroke="#636F97" stroke-width="0.2" stroke-linecap="round" stroke-linejoin="round"/>
<path d="M123.619 326.38L124.451 329.067L125.837 331.064L127.569 333.137L126.045 333.597L125.976 335.594L126.738 336.285L126.114 336.899L126.253 337.743L125.837 338.742L125.629 339.74L123.55 338.665L122.788 337.59L123.273 336.745L123.204 335.67L122.164 334.519L120.639 333.521L119.392 332.906L119.184 331.448L118.214 330.603L118.353 331.985L117.521 333.213L116.689 331.831L115.511 331.294L115.026 330.373L115.095 328.837L115.719 327.301L114.68 326.61L115.65 325.612L116.274 324.998L118.768 326.303L119.669 325.689L120.917 326.073L121.471 327.071L122.649 327.455L123.619 326.38V326.38Z" fill="#3EA0FE" fill-opacity="0.35" stroke="#636F97" stroke-width="0.2" stroke-linecap="round" stroke-linejoin="round"/>
<path d="M144.547 268.104L145.864 269.87L149.467 269.333L150.715 270.485L153.625 273.556L155.843 275.782L157.09 275.706L159.308 276.704L158.892 278.086L161.664 278.316L164.367 280.312L163.812 281.464L161.179 282.078L158.545 282.309L155.981 281.925L150.368 282.385L153.279 279.698L151.823 278.393L149.329 278.086L148.15 276.627L147.596 273.863L145.378 274.016L141.913 272.711L140.874 271.636L135.954 270.868L134.706 269.947L136.3 268.719L132.558 268.488L129.509 271.022L127.915 271.099L127.222 272.327L125.281 272.865L123.688 272.327L125.905 270.868L126.945 269.026L128.816 267.951L130.895 267.029L133.875 266.569L134.845 265.955L138.102 266.338L141.151 266.415L144.547 268.104V268.104Z" fill="#3EA0FE" fill-opacity="0.35" stroke="#636F97" stroke-width="0.2" stroke-linecap="round" stroke-linejoin="round"/>
<path d="M418.817 87.4575L421.946 90.4161L426.577 91.1558L426.326 93.6706L429.831 95.5937L430.582 93.2268L434.837 94.2624L435.713 97.221L440.344 97.6648L443.597 102.251H441.72L440.844 103.878L439.467 104.322L439.217 106.393L438.091 106.837L437.966 107.724L435.963 108.612L433.21 108.464L432.459 110.535L429.455 108.76L426.577 109.203L421.571 106.393L419.443 107.132L416.189 110.979L411.433 107.872L407.679 104.026L404.424 101.807L403.548 97.8127L402.297 95.1499L406.552 93.2268L408.68 90.8599L413.06 89.0847L414.437 87.3096L416.064 88.3451L418.817 87.4575V87.4575Z" fill="#3EA0FE" fill-opacity="0.35" stroke="#636F97" stroke-width="0.2" stroke-linecap="round" stroke-linejoin="round"/>
<path d="M411.991 62.8912L413.757 67.5351L412.244 70.0818L414.64 73.2277L416.532 78.1712L416.28 81.4669L419.307 87.3093L416.532 88.2081L414.892 87.1595L413.505 88.9571L409.09 90.7548L406.946 93.1516L402.657 95.0991L403.919 97.7956L404.802 101.84L408.081 104.087L411.865 107.982L409.847 112.327L407.703 113.525L408.964 119.667L408.459 121.315L406.315 119.367L403.288 119.068L398.873 120.716L393.323 120.266L392.567 122.813L389.161 120.266L387.395 120.716L380.458 117.869L379.196 119.817H373.899L374.403 113.076L377.431 106.784L368.349 104.986L365.322 102.589L365.574 98.5446L364.313 96.4473L364.817 90.1556L363.43 80.4183H367.088L368.601 76.9728L369.736 68.5837L368.601 65.4379L369.61 63.4904L374.656 63.041L375.917 64.9884L379.827 60.4943L378.187 57.0488L377.683 51.9555L382.35 53.1539L386.008 51.8057L386.386 55.2512L392.567 57.3484L392.693 60.6441L398.621 58.8465L401.901 56.4496L408.964 60.0449L411.991 62.8912V62.8912Z" fill="#3EA0FE" fill-opacity="0.35" stroke="#636F97" stroke-width="0.2" stroke-linecap="round" stroke-linejoin="round"/>
<path d="M402.3 45.7407L399.213 52.9893L392.525 47.8117L391.367 44.1134L400.113 41.1548L402.3 45.7407Z" fill="#3EA0FE" fill-opacity="0.35" stroke="#636F97" stroke-width="0.2" stroke-linecap="round" stroke-linejoin="round"/>
<path d="M386.083 51.6501L382.347 52.9891L377.58 51.7989L374.875 46.7405L374.359 37.6651L375.133 35.1359L376.807 32.4579L381.961 32.0116L384.022 29.4824L388.66 26.9531V31.5652L387.114 34.5408L388.016 36.9212L391.366 38.2602L390.077 41.6821L388.273 40.7894L384.28 47.1868L386.083 51.6501Z" fill="#3EA0FE" fill-opacity="0.35" stroke="#636F97" stroke-width="0.2" stroke-linecap="round" stroke-linejoin="round"/>
<path d="M487.395 11.5775L488.548 13.0685L485.216 18.1378L488.292 26.4872L486.241 29.32L481.371 29.1709L475.732 25.8908L473.041 24.8471L468.171 26.3381L468.043 21.1197L466.12 22.3125L461.891 19.1814L460.609 14.1122L467.658 11.5775L474.835 10.3848L481.371 11.7266L487.395 11.5775V11.5775Z" fill="#3EA0FE" fill-opacity="0.35" stroke="#636F97" stroke-width="0.2" stroke-linecap="round" stroke-linejoin="round"/>
<path d="M290.629 61.2731L286.008 59.6553L282.047 59.7901L283.631 55.3409L282.443 51.0265L287.724 50.6221L294.194 55.7454L290.629 61.2731Z" fill="#3EA0FE" fill-opacity="0.35" stroke="#636F97" stroke-width="0.2" stroke-linecap="round" stroke-linejoin="round"/>
<path d="M310.447 18.6689L304.05 28.4302L309.946 27.2288H316.343L314.712 34.5873L309.318 42.6966L315.465 43.1472L315.841 44.1984L321.109 54.8607L325.123 56.3624L328.761 66.8745L330.517 70.4786L337.917 72.1306L337.165 78.1375L334.154 80.8406L336.538 85.6461L331.018 90.4517L322.865 90.3015L312.329 93.0046L309.569 91.0523L305.43 95.4074L299.786 94.3561L295.27 97.9603L292.134 96.1582L301.291 86.397L306.81 84.2946L297.277 82.7928L295.646 79.0385L302.043 76.1852L298.908 71.2295L300.162 65.2226L309.068 66.1236L310.071 60.7174L306.183 55.161L306.057 55.0108L298.908 53.3589L297.528 50.9561L299.786 46.9015L297.904 44.3485L294.643 48.7036L294.517 39.8434L291.758 35.3382L294.141 26.0274L298.908 18.8191L303.423 19.4198L310.447 18.6689Z" fill="#3EA0FE" fill-opacity="0.35" stroke="#636F97" stroke-width="0.2" stroke-linecap="round" stroke-linejoin="round"/>
<path d="M496.631 183.115L492.672 182.82L489.331 181.938L481.661 184.291L486.61 189.586L483.516 191.204H479.928L476.093 186.35L474.98 188.409L476.959 193.998L480.547 198.411L478.196 200.47L482.155 204.735L485.62 207.529L486.115 212.824L479.928 210.324L482.155 215.177L478.073 216.06L481.166 224.443L476.835 224.59L471.144 220.472L468.175 212.971L466.566 206.647L463.721 202.382L460.009 196.94L459.391 194.292L462.112 189.733L462.236 186.644L464.34 185.321L464.216 182.82L468.422 182.085L470.649 180.026L474.113 180.173L475.103 178.555L476.341 178.261L481.042 178.555L485.991 175.908L490.816 179.291L496.507 178.408L496.136 173.702L499.477 176.202L498.116 182.085L496.631 183.115Z" fill="#3EA0FE" fill-opacity="0.35" stroke="#636F97" stroke-width="0.2" stroke-linecap="round" stroke-linejoin="round"/>
<path d="M105.253 292.521L104.768 296.436L103.867 301.964H105.045L106.223 302.886L106.639 302.118L107.678 302.732L105.738 304.652L103.728 306.034L103.382 306.955L103.589 307.953L102.689 309.182L101.718 309.489L101.926 310.103L101.095 310.641L99.7087 311.869L99.5007 312.56L97.5604 311.715L95.1349 311.639L93.4717 310.641L91.5312 308.644L91.8085 307.186L92.3629 306.034L91.8777 305.112L94.1647 301.12H99.1542L99.4315 299.431L98.8771 299.124L98.5306 298.049L97.2139 296.897L95.9665 295.285L97.699 295.208L98.0455 292.444H101.649L105.253 292.521Z" fill="#3EA0FE" fill-opacity="0.35" stroke="#636F97" stroke-width="0.2" stroke-linecap="round" stroke-linejoin="round"/>
<path d="M127.081 306.341L125.764 306.264L125.141 306.955L123.755 307.569H122.785L121.884 308.183L121.121 308.03L120.498 307.262L120.082 307.416L119.458 308.567L119.112 308.49L118.973 309.565L117.518 310.871L116.686 311.485L116.27 312.099L115.231 311.101L114.261 312.406H113.429L112.528 312.483L112.389 314.94H111.835L111.281 316.092L110.033 316.322L109.479 314.786L108.301 314.326L108.786 312.329L108.301 311.792L107.469 311.485L105.737 312.022L105.667 311.408L104.559 310.564L103.796 309.642L102.688 309.181L103.588 307.953L103.38 306.955L103.727 306.034L105.737 304.651L107.677 302.732L108.093 302.962L108.994 302.118L110.103 302.041L110.449 302.425L111.073 302.195L112.875 302.655L114.676 302.502L115.924 301.964L116.478 301.427L117.656 301.657L118.557 301.964L119.597 301.887L120.428 301.427L122.161 302.118L122.715 302.271L123.824 303.193L124.864 304.268L126.18 305.035L127.081 306.341V306.341Z" fill="#3EA0FE" fill-opacity="0.35" stroke="#636F97" stroke-width="0.2" stroke-linecap="round" stroke-linejoin="round"/>
<path d="M446.866 135.43L448.751 139.158L450.887 141.841L448.751 145.42L445.735 143.332L441.337 143.481L435.682 141.841L432.792 141.99L431.535 144.078L429.022 141.841L428.017 145.718L431.41 150.191L433.043 153.024L436.185 156.602L438.824 158.689L441.462 162.715L447.494 166.293L446.866 167.784L440.583 164.355L436.562 160.926L430.53 158.093L424.624 151.234L425.881 150.489L422.739 146.463L422.362 143.332L418.215 141.841L416.456 145.867L414.445 142.736V139.456L414.571 139.307L419.095 139.605L420.1 138.114L422.362 139.605L424.875 139.754L424.75 137.219L426.886 136.176L427.263 132.448L432.164 129.914L434.174 131.106L439.201 135.132L444.604 136.921L446.866 135.43V135.43Z" fill="#3EA0FE" fill-opacity="0.35" stroke="#636F97" stroke-width="0.2" stroke-linecap="round" stroke-linejoin="round"/>
<path d="M464.711 111.761L468.481 114.331L469.109 116.902L465.465 118.868L463.078 125.219L459.811 131.722L454.91 133.536L450.888 133.083L446.239 135.502L443.977 137.014L438.574 135.2L433.547 131.117L431.537 129.907L430.029 126.731L429.023 126.58L430.657 120.531L429.275 118.414H432.793L433.045 114.483L436.437 117.053L438.825 117.961L443.977 116.902L444.354 114.936L446.742 114.634L449.632 113.273L450.386 113.878L453.276 112.668L454.533 110.4L456.543 109.795L463.455 112.668L464.711 111.761V111.761Z" fill="#3EA0FE" fill-opacity="0.35" stroke="#636F97" stroke-width="0.2" stroke-linecap="round" stroke-linejoin="round"/>
<path d="M290.891 61.705L291.763 68.1215L286.904 76.142L275.941 81.3919L267.469 80.0794L272.826 70.7464L270.21 61.705L278.557 54.7052L283.167 50.6221L284.288 55.2886L282.793 60.1009L286.531 59.9551L290.891 61.705V61.705Z" fill="#3EA0FE" fill-opacity="0.35" stroke="#636F97" stroke-width="0.2" stroke-linecap="round" stroke-linejoin="round"/>
<path d="M430.236 208.021L428.056 215.639L429.21 218.477L428.056 223.406L422.669 219.822L419.206 218.776L409.586 213.996L410.227 209.067L418.18 209.963L425.106 208.918L430.236 208.021Z" fill="#3EA0FE" fill-opacity="0.35" stroke="#636F97" stroke-width="0.2" stroke-linecap="round" stroke-linejoin="round"/>
<path d="M387.223 179.619L391.37 186.14L390.867 198.457L387.851 197.878L385.213 200.921L382.699 198.457L382.071 187.299L380.438 182.082L384.082 182.517L387.223 179.619Z" fill="#3EA0FE" fill-opacity="0.35" stroke="#636F97" stroke-width="0.2" stroke-linecap="round" stroke-linejoin="round"/>
<path d="M414.839 129.618L414.339 134.204L416.089 138.198L410.965 136.719L406.09 140.121L406.59 144.707L405.965 147.37L408.34 152.104L414.589 156.837L418.214 164.678L425.838 172.222L430.838 172.074L432.588 174.145L430.838 176.069L436.837 179.471L441.837 182.282L447.711 187.311L448.461 188.939L447.461 192.341L443.587 187.903L437.837 186.424L435.462 192.489L440.337 196.039L439.837 200.921L437.212 201.513L434.088 209.649L431.338 210.389L431.213 207.43L432.338 202.4L433.712 200.329L430.838 194.856L428.588 190.122L425.838 188.939L423.589 184.944L419.339 183.169L416.339 179.323L411.59 178.731L406.215 174.589L400.091 168.376L395.466 163.051L393.092 153.731L389.842 152.695L384.592 149.589L381.718 150.772L378.093 155.21L375.468 155.802L376.093 151.808L372.594 150.624L370.719 143.376L372.844 140.565L370.969 137.015L371.094 134.352L373.843 136.423L376.968 135.979L380.343 132.725L381.468 134.204L384.467 133.908L385.717 130.21L390.467 131.393L393.092 129.766L393.467 126.068L397.341 127.399L397.966 125.624L404.091 123.997L405.715 127.103L414.839 129.618Z" fill="#3EA0FE" fill-opacity="0.35" stroke="#636F97" stroke-width="0.2" stroke-linecap="round" stroke-linejoin="round"/>
<path d="M152.656 292.213L151.409 293.058L149.33 292.213L147.32 290.447L147.875 289.295L149.538 288.988L150.439 289.142L153.003 289.603L154.874 290.754L155.428 292.136L152.656 292.213V292.213Z" fill="#3EA0FE" fill-opacity="0.35" stroke="#636F97" stroke-width="0.2" stroke-linecap="round" stroke-linejoin="round"/>
<path d="M483.639 46.4047L484.903 50.2649L480.351 53.1242L479.719 57.9851L473.65 61.2733H467.707L465.937 58.557L462.776 57.5562L462.017 55.4117L462.27 52.9812L459.489 51.6945L453.04 50.1219L450.891 42.8305L457.339 40.2571L467.328 40.829L473.018 39.9712L474.156 41.6868L477.317 42.2587L483.639 46.4047Z" fill="#3EA0FE" fill-opacity="0.35" stroke="#636F97" stroke-width="0.2" stroke-linecap="round" stroke-linejoin="round"/>
<path d="M365.585 102.525L363.696 102.694L362.211 101.849L362.751 95.9319L364.505 95.5938L365.855 97.9606L365.585 102.525V102.525Z" fill="#3EA0FE" fill-opacity="0.35" stroke="#636F97" stroke-width="0.2" stroke-linecap="round" stroke-linejoin="round"/>
<path d="M485.328 29.1188L488.392 31.0828L489.618 35.4641L492.191 40.903L486.554 44.3778L483.245 45.8886L477.117 41.5073L474.053 40.903L472.95 39.09L467.435 39.9965L457.754 39.3922L451.503 42.1116L450.891 35.313L452.974 29.572L457.999 26.5505L463.391 33.349L467.926 33.0469L468.048 26.0972L472.705 24.5864L475.279 25.644L480.671 28.9677L485.328 29.1188V29.1188Z" fill="#3EA0FE" fill-opacity="0.35" stroke="#636F97" stroke-width="0.2" stroke-linecap="round" stroke-linejoin="round"/>
<path d="M506.366 139.381L504.761 134.977L505.008 130.876L504.267 126.775L500.071 121.003L497.603 117.054L495.381 114.32L493.406 113.257L494.764 111.89L498.713 110.979L503.65 113.864L506.119 114.32L509.328 116.902L509.204 120.092L511.673 121.611L513.03 125.56L515.499 127.99L515.252 129.509L516.486 130.42L514.882 131.179L511.179 130.876L510.438 129.509L509.204 130.268L509.945 131.939L508.587 135.129L507.847 138.318L506.366 139.381V139.381Z" fill="#3EA0FE" fill-opacity="0.35" stroke="#636F97" stroke-width="0.2" stroke-linecap="round" stroke-linejoin="round"/>
<path d="M78.3662 252.902L79.8909 252.749L77.6732 257.125L76.4259 260.657L75.1785 267.26L74.4162 269.64L74.6934 272.328L75.5942 274.784L75.8715 278.547L77.9505 282.232L78.5049 285.073L79.683 287.453L83.6331 288.758L84.9497 290.831L88.5534 289.449L91.5332 288.989L94.5825 288.067L97.0772 287.223L99.78 285.226L101.027 282.386L101.859 278.24L102.691 276.781L105.463 275.475L109.69 274.324L113.086 274.554L115.442 274.093L116.273 275.168L115.858 277.549L113.432 280.466L112.185 283.461L112.808 284.305L111.977 286.455L110.521 290.294L109.69 288.989L108.928 289.065L108.165 289.142L106.433 292.137L105.809 291.522L105.324 291.753L105.255 292.521L101.651 292.444H98.0475L97.701 295.208L95.9685 295.285L97.2159 296.897L98.5325 298.049L98.879 299.124L99.4335 299.431L99.1562 301.12H94.1667L91.8797 305.112L92.3649 306.034L91.8105 307.185L91.5332 308.644L87.6525 303.346L85.8507 301.734L82.8015 300.429L80.5839 300.813L77.2575 302.655L75.2477 303.116L72.6837 301.811L69.8424 300.889L66.516 298.663L63.6747 297.972L59.586 295.669L56.6061 293.288L55.8437 291.983L53.6955 291.676L49.9532 290.14L48.6366 287.914L44.8944 285.073L43.3697 282.002L42.8154 279.545L44.1321 279.084L43.9242 277.702L45.033 276.397L45.3102 274.708L44.2707 272.481V270.562L43.3697 268.028L40.7364 263.114L37.5486 259.275L36.2319 256.204L33.3906 254.208L32.9055 252.979L34.0836 249.985L32.4204 248.833L30.6879 246.376L30.5492 242.998L28.6089 242.537L27.015 240.003L25.8369 237.546L26.0447 236.011L25.0052 232.325L24.7974 228.563L25.3517 226.644L23.2035 224.647L21.8867 224.878L20.2236 223.573L18.9762 225.569L18.9069 227.872L18.2139 231.634L18.9069 233.631L20.8472 237.009L21.1245 238.237L21.6096 238.545L21.6789 240.234L22.3719 240.157V243.382L23.2727 244.61L23.6192 246.376L25.4904 248.833L25.7676 253.44L26.4606 255.59L27.0842 257.893L26.8764 260.503L28.6782 260.657L29.787 262.884L30.8265 265.11L30.6186 266.032L28.6782 267.798H27.9852L27.5001 264.803L25.4904 261.962L23.1342 259.582L21.4017 258.354L22.2332 254.745L22.164 252.058L20.7087 250.522L18.5604 248.372L17.9367 248.987L17.2437 247.681L15.1647 246.53L13.6401 243.612L13.9866 243.305L15.4419 243.535L17.313 241.693L18.006 239.466L15.9962 235.934L14.1945 234.629L13.6401 231.558L13.2242 228.256L12.6699 224.34L12.5312 219.887L16.8972 219.503L21.8175 218.966L21.1937 219.964L26.0447 222.344L33.5985 225.799H41.0829H44.0627L44.6172 223.726H51.1314L52.0322 225.492L53.4876 227.104L55.1507 229.254L55.7052 231.788L55.9824 234.552L57.5762 236.011L60.3482 237.47L63.6747 233.631L66.7932 233.477L69.0107 235.473L70.1196 238.852L70.7432 241.769L72.4065 244.533L72.5451 247.988L73.1687 250.292L75.8715 251.827L78.3662 252.902V252.902Z" fill="#3EA0FE" fill-opacity="0.35" stroke="#636F97" stroke-width="0.2" stroke-linecap="round" stroke-linejoin="round"/>
<path d="M476.401 178.486L475.195 178.788L474.231 180.45L470.856 180.299L468.686 182.414L464.587 183.169L461.815 180.903L460.609 176.824L461.212 173.5L462.056 173.651L462.176 171.687L465.672 170.176L467.119 169.723L469.168 169.27L472.061 168.968L475.436 172.14L476.401 178.486V178.486Z" fill="#3EA0FE" fill-opacity="0.35" stroke="#636F97" stroke-width="0.2" stroke-linecap="round" stroke-linejoin="round"/>
<path d="M457.667 164.234L456.644 166.443L454.854 167.39L454.343 165.496L451.913 170.388L452.552 173.702L451.146 172.913L448.972 169.599L446.031 167.548L446.671 165.97L447.182 160.447L449.228 158.08L450.379 157.133L452.169 158.869L453.32 160.289L455.493 161.394L458.178 163.445L457.667 164.234Z" fill="#3EA0FE" fill-opacity="0.35" stroke="#636F97" stroke-width="0.2" stroke-linecap="round" stroke-linejoin="round"/>
<path d="M127.082 306.341L126.736 306.878L126.389 307.953L126.666 309.719L125.627 311.408L125.073 313.405L124.726 315.554L124.865 316.86L124.795 319.086L124.172 319.547L123.687 321.697L123.825 323.002L122.994 324.231L123.063 325.536L123.617 326.38L122.647 327.455L121.469 327.071L120.915 326.073L119.667 325.689L118.766 326.304L116.271 324.998L115.648 325.613L114.4 324.077L112.668 322.081L111.906 320.468L110.381 318.856L108.648 316.629L109.134 315.862L109.688 316.629L110.034 316.322L111.282 316.092L111.836 314.94H112.391L112.529 312.483L113.43 312.407H114.262L115.232 311.101L116.271 312.099L116.687 311.485L117.519 310.871L118.974 309.566L119.113 308.491L119.459 308.568L120.083 307.416L120.499 307.262L121.122 308.03L121.885 308.184L122.786 307.569H123.756L125.142 306.955L125.766 306.264L127.082 306.341V306.341Z" fill="#3EA0FE" fill-opacity="0.35" stroke="#636F97" stroke-width="0.2" stroke-linecap="round" stroke-linejoin="round"/>
<path d="M147.662 337.59L147.177 338.281L147.94 341.198L147.177 342.657L145.93 342.273L145.306 344.653L144.059 343.271L143.366 340.584L144.336 339.279L143.366 338.972L142.742 337.359L140.802 335.977L139.139 336.285L138.238 337.974L136.574 339.202L135.743 339.356L135.327 340.431L137.06 343.118L135.951 343.732L135.396 344.423L133.525 344.73L132.971 341.736L132.416 342.58L131.169 342.273L130.476 340.354L128.882 339.97L127.843 339.433H126.179L126.041 340.507L125.625 339.74L125.833 338.741L126.249 337.743L126.11 336.899L126.734 336.285L125.972 335.594L126.041 333.597L127.565 333.137L128.882 334.903L128.744 335.977L130.268 336.208L130.684 335.747L131.723 336.976L133.664 336.592L135.396 335.363L137.822 334.365L139.208 332.906L141.356 333.213L141.218 333.674L143.366 333.828L145.029 334.749L146.276 336.208L147.662 337.59V337.59Z" fill="#3EA0FE" fill-opacity="0.35" stroke="#636F97" stroke-width="0.2" stroke-linecap="round" stroke-linejoin="round"/>
<path d="M444.796 56.7082L452.235 57.7495L463.33 57.6007L466.482 58.6421L468.247 61.4685L469.003 65.4849L471.147 68.9064L471.651 72.4766L468.121 74.4104L470.516 78.5756L471.147 82.7409L475.181 90.7738L474.803 93.3027L471.903 94.344L467.112 102.079L469.129 106.245L467.743 105.65L461.439 102.079L457.026 103.418L454 102.526L450.47 104.46L447.066 101.187L444.67 102.526L444.292 101.931L441.014 97.3192L436.349 96.8729L435.466 93.8977L431.18 92.8564L430.423 95.2365L426.893 93.3027L427.145 90.7738L422.48 90.03L419.328 87.0548L416.302 81.2533L416.554 77.9806L414.663 73.0716L412.268 69.9477L413.781 67.4188L412.016 62.8073L415.924 60.1297L424.876 55.9644L432.188 52.9893L438.24 54.4768L438.997 56.7082H444.796Z" fill="#3EA0FE" fill-opacity="0.35" stroke="#636F97" stroke-width="0.2" stroke-linecap="round" stroke-linejoin="round"/>
<path d="M493.945 113.345L495.949 114.388L498.203 117.069L500.707 120.942L504.965 126.603L505.717 130.625L505.466 134.647L507.094 138.967L510.1 140.755L512.98 139.116L515.985 140.755L516.486 143.287L513.606 145.224L511.602 144.33L511.101 155.801L507.219 154.758L502.21 151.332L494.821 153.566L491.941 155.95L482.424 155.354L477.415 154.013L475.035 154.609L472.781 150.736L471.529 149.097L472.781 147.458L471.153 146.416L469.275 148.501L465.393 145.671L464.516 141.798L460.509 139.712L459.507 136.584L455.75 133.009L460.634 131.221L463.89 124.816L466.269 118.559L469.901 116.622L472.405 114.537L476.413 115.58H480.42L483.551 117.963L485.554 116.473L490.063 115.58L491.315 113.345H493.945V113.345Z" fill="#3EA0FE" fill-opacity="0.35" stroke="#636F97" stroke-width="0.2" stroke-linecap="round" stroke-linejoin="round"/>
<path d="M108.301 314.326L107.816 315.478L105.529 315.401L104.143 314.94L102.619 313.942L100.54 313.635L99.5 312.56L99.7079 311.869L101.094 310.64L101.926 310.103L101.718 309.489L102.688 309.182L103.797 309.642L104.559 310.564L105.668 311.408L105.737 312.022L107.47 311.485L108.301 311.792L108.786 312.33L108.301 314.326V314.326Z" fill="#3EA0FE" fill-opacity="0.35" stroke="#636F97" stroke-width="0.2" stroke-linecap="round" stroke-linejoin="round"/>
<path d="M472.129 150.911L470.729 153.048L471.62 156.713L475.185 160.836L472.893 163.89L472.129 166.944L472.893 168.166L472.002 169.388L468.947 169.693L466.782 170.151L466.4 169.388L467.164 168.319L467.673 165.876L466.782 166.028L465.382 164.196L464.236 163.738L463.218 162.211L461.945 161.6L460.926 160.226L459.78 160.836L459.144 164.043L457.616 164.654L458.125 163.89L455.452 161.905L453.288 160.836L452.142 159.462L450.36 157.782L451.76 157.324L452.397 152.896L448.959 149.078L450.36 144.802L447.941 144.955L450.105 141.29L447.941 138.542L446.031 134.724L450.742 132.281L454.815 132.739L458.635 136.404L459.653 139.611L463.727 141.748L464.618 145.719L468.565 148.62L470.474 146.482L472.129 147.551L470.856 149.231L472.129 150.911V150.911Z" fill="#3EA0FE" fill-opacity="0.35" stroke="#636F97" stroke-width="0.2" stroke-linecap="round" stroke-linejoin="round"/>
<path d="M467.899 105.909L466.378 108.402L465.491 112.068L464.224 112.947L457.255 110.161L455.227 110.748L453.96 112.947L451.046 114.12L450.285 113.534L447.371 114.853L444.963 115.147L444.583 117.053L439.388 118.079L436.98 117.199L433.559 114.707L432.672 111.628L433.052 110.455L433.812 108.402L436.6 108.549L438.627 107.669L438.754 106.789L439.895 106.349L440.148 104.297L441.542 103.857L442.429 102.244H444.33L444.71 102.83L447.117 101.511L450.539 104.736L454.087 102.83L457.128 103.71L461.563 102.39L467.899 105.909V105.909Z" fill="#3EA0FE" fill-opacity="0.35" stroke="#636F97" stroke-width="0.2" stroke-linecap="round" stroke-linejoin="round"/>
<path d="M431.451 129.618L426.813 132.133L426.457 135.831L424.435 136.866L424.554 139.381L422.175 139.233L420.035 137.754L419.083 139.233L414.802 138.937L416.11 138.198L414.445 134.204L414.921 129.618L419.916 130.357L422.77 128.138L428.003 127.991L429.073 126.363L430.024 126.511L431.451 129.618V129.618Z" fill="#3EA0FE" fill-opacity="0.35" stroke="#636F97" stroke-width="0.2" stroke-linecap="round" stroke-linejoin="round"/>
<path d="M497.523 182.774L498.952 181.722L500.262 175.711L497.047 173.156L503.001 170.151L508.48 171.353L509.551 175.11L515.268 178.116L514.434 180.52L507.05 180.971L504.669 183.977L500.024 189.086L497.642 184.728L497.523 182.774Z" fill="#3EA0FE" fill-opacity="0.35" stroke="#636F97" stroke-width="0.2" stroke-linecap="round" stroke-linejoin="round"/>
<path d="M541.403 85.9546L544.266 89.9969L544.39 91.7934L552.731 95.0871L557.212 93.59L561.693 97.9317L565.303 97.782L574.888 100.776L575.386 103.621L573.768 108.412L576.009 113.652L575.635 116.796L569.66 117.395L566.921 120.089L567.419 124.132L562.565 124.88L558.83 128.024L553.104 128.473L548.125 132.066L549.369 137.905L552.855 140.151L559.204 139.552L558.457 142.996L551.735 144.642L543.892 150.032L540.033 148.086L540.905 143.744L533.56 140.9L534.432 139.103L540.158 135.959L538.042 133.863L527.959 131.468L526.963 127.875L521.361 129.072L519.743 134.312L515.635 141.199L512.647 139.552L509.784 141.199L506.797 139.402L508.291 138.354L509.037 135.21L510.407 132.066L509.66 130.42L510.905 129.671L511.652 131.018L515.386 131.318L517.004 130.569L515.759 129.671L516.008 128.174L513.519 125.779L512.149 121.886L509.66 120.389L509.784 117.245L506.548 114.7L504.058 114.251L499.079 111.406L495.095 112.304L493.726 113.652H491.112L489.867 115.897L485.386 116.796L483.394 118.293L480.282 115.897H476.299L472.315 114.849L469.826 116.945L469.203 114.4L465.469 111.855L466.34 108.112L467.834 105.567L469.203 106.166L467.212 101.974L471.942 94.1889L474.805 93.1408L475.178 90.5957L471.195 82.5112L474.058 82.062L477.046 79.6666L481.776 79.3672L487.875 80.1157L494.971 82.3614L499.826 82.5112L502.191 83.8586L504.307 82.2117L506.174 84.4574L511.527 84.0083L514.141 84.9066L513.768 80.2655L515.386 78.1694L520.49 77.7203L522.73 78.0197L523.975 75.9237L525.842 76.3729L531.942 75.4746L536.672 80.7146L535.552 82.6609L536.548 85.5054L541.403 85.9546V85.9546Z" fill="#4AA7F0" stroke="#636F97" stroke-width="0.2" stroke-linecap="round" stroke-linejoin="round"/>
<path d="M467.014 169.644L465.506 170.112L461.862 171.673L461.736 173.701L460.856 173.545L460.102 169.956L458.469 168.864L456.961 166.211L457.966 164.026L459.474 163.401L460.102 160.124L461.233 159.5L462.239 160.905L463.495 161.529L464.501 163.089L465.631 163.558L467.014 165.43L467.893 165.274L467.391 167.771L466.637 168.864L467.014 169.644V169.644Z" fill="#3EA0FE" fill-opacity="0.35" stroke="#636F97" stroke-width="0.2" stroke-linecap="round" stroke-linejoin="round"/>
<path d="M365.692 89.6762L362.082 87.444L358.084 83.4259L352.282 85.3605L347.641 84.6164L350.864 82.0866L356.022 68.693L364.402 64.8237L369.56 65.1214L370.72 68.2465L369.56 76.5803L368.013 80.0031H364.274L365.692 89.6762V89.6762Z" fill="#4AA7F0" stroke="#636F97" stroke-width="0.2" stroke-linecap="round" stroke-linejoin="round"/>
<path d="M277.991 218.639L275.303 221.04L271.882 219.689L268.583 220.74L269.682 213.236L269.316 207.384L266.383 206.484L265.039 202.882L265.65 196.579L268.338 193.128L268.949 189.226L270.415 183.524V179.472L269.316 176.021L269.071 172.719L271.393 170.318L274.081 168.968L275.548 173.62H279.213L280.313 172.419L284.101 172.719L285.689 177.521L282.757 180.072L282.39 187.576L281.413 188.926L281.046 193.578L278.236 194.328L280.679 200.031L278.724 206.334L280.924 209.185L279.946 211.736L277.503 215.337L277.991 218.639V218.639Z" fill="#3EA0FE" fill-opacity="0.35" stroke="#636F97" stroke-width="0.2" stroke-linecap="round" stroke-linejoin="round"/>
<path d="M463.033 57.5668L452.126 57.7231L444.812 56.629L445.68 52.5651L453.489 49.439L459.811 51.1583L462.538 52.5651L462.29 55.2222L463.033 57.5668Z" fill="#3EA0FE" fill-opacity="0.35" stroke="#636F97" stroke-width="0.2" stroke-linecap="round" stroke-linejoin="round"/>
<path d="M315.697 159.05L318.202 162.593L330.103 166.875L332.483 164.808L339.749 169.089L347.139 167.908L347.641 173.371L341.502 179.571L333.235 181.638L332.608 184.738L328.6 189.906L326.094 197.582L328.6 203.045L324.842 207.179L323.339 213.379L318.328 215.299L313.693 222.533L305.175 222.68L298.911 222.533L294.652 225.781L292.021 229.324L288.764 228.586L286.384 225.338L284.631 220.023L278.492 218.547L277.991 215.299L280.497 211.755L281.499 209.246L279.244 206.441L281.248 200.24L278.743 194.63L281.624 193.892L282 189.315L283.002 187.986L283.378 180.605L286.384 178.095L284.756 173.371L280.872 173.075L279.745 174.256H275.987L274.484 169.68L271.728 171.008L269.348 173.371L269.974 166.727L267.469 162.741L276.739 155.95L284.505 157.574H293.149L299.913 159.198L305.3 158.607L315.697 159.05V159.05Z" fill="#3EA0FE" fill-opacity="0.35" stroke="#636F97" stroke-width="0.2" stroke-linecap="round" stroke-linejoin="round"/>
<path d="M388.941 170.496L387.189 177.252L384.386 175.459L382.867 169.668L383.918 166.359L387.656 163.05L388.941 170.496Z" fill="#3EA0FE" fill-opacity="0.35" stroke="#636F97" stroke-width="0.2" stroke-linecap="round" stroke-linejoin="round"/>
<path d="M362.839 101.256L364.218 102.005L365.972 101.855L368.98 104.252L378.004 106.05L374.996 112.342L374.495 119.083L372.865 120.731L369.983 119.832L370.234 122.229L365.722 127.472V131.816L368.73 130.318L370.986 134.363L370.86 137.059L372.74 140.655L370.61 143.501L372.489 150.841L375.999 152.04L375.372 156.085L369.732 161.477L356.949 158.931L347.674 162.077L346.922 167.769L339.528 168.968L332.259 164.623L329.878 166.721L317.971 162.376L315.465 158.781L318.849 153.088L320.102 134.213L313.71 124.326L309.073 119.532L299.548 115.937L299.047 109.046L307.193 107.099L317.596 109.495L315.716 98.8593L321.606 102.904L335.894 95.7135L337.773 88.0734L343.037 86.126L344.04 89.4217L346.797 89.5715L349.805 93.3166L354.191 97.6609L357.325 96.9119L362.839 101.256Z" fill="#3EA0FE" fill-opacity="0.35" stroke="#636F97" stroke-width="0.2" stroke-linecap="round" stroke-linejoin="round"/>
<path d="M140.874 144.336L136.647 145.872L133.39 147.791L130.202 149.864L129.856 150.555L133.806 149.557L135.261 151.169L138.449 150.018L141.845 148.405L145.587 146.793L143.438 149.327L145.171 149.941L146.903 151.784L150.438 150.709L153.972 150.325L154.18 151.707L155.219 151.86L156.051 152.014L157.091 153.933L153.833 154.394H153.764L151.2 153.857L148.082 154.778L145.517 155.239L142.26 158.387L140.181 160.153L140.459 160.69L144.27 157.542H144.755L141.498 161.304L139.488 164.683L137.756 167.447L137.34 169.827L136.786 170.978L136.37 172.284L136.439 174.817L136.647 175.201L137.894 175.125L139.003 174.587L139.973 173.973L142.26 171.593L143.508 168.368L143.438 165.374L144.409 163.3L146.21 160.92L147.666 159.231L149.537 158.079L149.26 159.692L150.784 157.312L151.685 156.851L152.863 155.008L155.497 156.006L157.437 157.849L156.883 160.076L155.774 162.302L153.14 164.222L152.863 165.45H153.556L156.536 163.377L157.645 163.838L157.298 166.679L156.813 168.675L154.249 171.362L152.863 173.051L150.992 174.894L152.863 175.892L154.596 176.199L157.368 175.508L159.932 174.203L162.011 173.512L165.199 172.13L169.218 169.212L169.287 168.752L169.495 167.293L171.366 166.679L174.069 166.909L176.841 167.293L180.029 165.681L180.445 163.761L180.306 163.07L185.018 159.692L186.89 158.847L192.295 158.77H198.74L199.502 157.619L200.68 157.388L202.413 156.621L204.353 154.394L206.571 150.632L210.382 147.023L211.145 148.252L213.709 147.484L214.817 148.866L212.808 155.392L214.332 158.156L214.471 159.769L210.036 162.072L205.878 163.761L201.72 165.22L198.948 168.138L198.047 169.212L197.215 171.823L197.7 174.357L199.156 174.51L199.294 172.744L200.057 173.819L199.364 175.201L196.73 175.969L194.998 175.892L192.087 176.737L190.493 176.967L188.345 177.198L184.88 178.656L190.493 177.735L191.255 178.656L185.781 180.115H183.494L183.771 179.501L182.316 180.883L183.286 181.113L181.553 184.645L177.881 188.407L177.95 187.102L177.188 186.872L176.356 185.643V188.331L177.049 189.175L176.633 191.018L174.97 192.937L171.851 196.853L171.574 196.7L173.584 193.321L172.198 191.479L172.891 187.332L171.574 189.482V192.63L169.357 191.862L171.436 193.398L170.396 198.082L171.366 198.465V200.155L170.673 205.069L167.486 208.677L163.258 210.136L160.209 213.054L158.269 213.361L155.912 215.203L155.012 216.816L150.23 220.04L147.596 222.421L145.171 225.338L143.854 228.793V232.248L144.27 236.471L145.31 239.926L144.963 242.076L145.864 247.758L145.171 251.136L144.755 253.056L143.369 256.05L142.122 256.664L140.32 256.05L140.043 253.9L138.795 252.749L137.409 248.526L136.301 244.763L136.023 242.844L137.409 239.542L136.855 236.855L134.707 232.709L133.39 231.941L129.163 234.245L128.539 233.938L127.153 231.634L125.074 230.406L120.639 231.097L117.451 230.483L114.471 230.866L112.739 231.634L113.154 232.939L112.669 234.936L113.224 235.934L112.392 236.548L111.145 235.857L109.551 236.778L106.848 236.625L104.561 234.014L101.165 234.629L98.6706 233.477L96.2451 233.861L92.7801 235.012L88.5528 238.621L84.3255 240.771L81.7614 243.074L80.4447 245.301L79.7517 248.756L79.4745 251.059L79.8903 252.749L78.3657 252.902L75.8709 251.827L73.1682 250.292L72.5445 247.988L72.4059 244.533L70.7427 241.769L70.119 238.851L69.0102 235.473L66.7926 233.477L63.6741 233.63L60.3477 237.469L57.5757 236.011L55.9818 234.552L55.7046 231.788L55.1502 229.254L53.487 227.104L52.0317 225.492L51.1308 223.726H44.6166L44.0622 225.799H41.0823H33.5979L26.0442 222.344L21.1932 219.964L21.8169 218.966L16.8966 219.503L12.5307 219.887L12.7386 217.43L11.2833 214.589L9.7587 213.975L9.82801 212.593L7.81831 212.286L6.9867 210.981L3.66031 210.52L3.03662 209.675L3.59101 206.988L1.85851 202.074L1.51201 195.241L2.1357 194.089L1.23481 192.477L0.195312 188.331L1.4427 184.338L0.819008 181.651L3.5217 177.581L5.46212 173.435L6.22442 169.673L10.0359 165.066L12.8079 160.69L15.5799 156.314L18.5598 149.787L19.8072 145.718L20.0844 143.491L21.0546 142.493L25.074 144.182L24.381 148.712L25.9056 147.407L27.6381 143.491L28.7469 139.576H38.5182H48.7053H52.0317H62.496H72.6831H82.9395H93.2652H104.908H116.689H123.757L124.658 137.733H125.836L125.213 140.343L125.906 141.111L128.192 141.418L131.38 142.186L134.083 143.645L137.132 143.031L140.874 144.336Z" fill="#4AA7F0" stroke="#636F97" stroke-width="0.2" stroke-linecap="round" stroke-linejoin="round"/>
<path fill-rule="evenodd" clip-rule="evenodd" d="M663.867 253.767C663.873 253.783 663.878 253.801 663.885 253.821C663.925 253.942 663.984 254.119 664.063 254.345C664.221 254.799 664.456 255.449 664.766 256.236C665.387 257.811 666.305 259.933 667.499 262.123C668.694 264.314 670.162 266.571 671.88 268.416C673.599 270.262 675.562 271.69 677.746 272.237C687.075 274.57 696.651 277.098 703.894 279.043C707.515 280.015 710.554 280.841 712.687 281.425C713.754 281.716 714.594 281.947 715.167 282.105C715.354 282.156 715.511 282.2 715.64 282.236L716.047 282.348C716.047 282.348 716.048 282.348 716.021 282.445L716.047 282.348L716.051 282.349L729.046 286.403L729.048 286.404L729.051 286.405L729.054 286.406L729.079 286.412C729.1 286.417 729.131 286.426 729.173 286.437C729.255 286.459 729.376 286.492 729.532 286.535C729.843 286.623 730.292 286.752 730.842 286.923C731.941 287.265 733.445 287.77 735.065 288.424C736.684 289.078 738.421 289.883 739.985 290.824C741.548 291.764 742.943 292.844 743.875 294.05L743.889 294.068L743.894 294.091C744.515 297.102 744.169 300.29 743.751 304.149C743.708 304.551 743.664 304.961 743.62 305.378C743.151 309.805 742.705 315.135 743.468 322.066C744.992 335.911 751.346 356.158 772.035 388.337C774.741 385.331 777.36 379.912 779.312 375.212C780.298 372.839 781.112 370.653 781.68 369.06C781.963 368.264 782.186 367.616 782.337 367.168C782.412 366.943 782.47 366.769 782.509 366.65L782.553 366.515L782.561 366.491L782.559 366.475L782.544 366.362C782.531 366.262 782.513 366.115 782.49 365.925C782.444 365.545 782.38 364.992 782.31 364.304C782.168 362.928 781.999 361.007 781.886 358.83C781.66 354.479 781.659 349.092 782.565 344.979L782.576 344.931L782.62 344.91C795.281 338.919 804.734 329.431 811.023 321.438C814.167 317.442 816.52 313.821 818.086 311.199C818.869 309.888 819.456 308.827 819.846 308.094C820.042 307.727 820.188 307.443 820.286 307.25C820.312 307.199 820.334 307.154 820.353 307.115C820.37 307.082 820.384 307.054 820.395 307.031L820.422 306.975L820.429 306.961L820.431 306.958C820.431 306.958 820.431 306.957 820.521 307L820.431 306.957L820.45 306.917L847.094 298.922L849.923 282.428L849.924 282.42L852.524 272.321V266.157L847.172 261.568L839.509 266.168V272.399L828.536 277.105L756.911 261.525V253.633L764.66 243.554L756.935 232.733L743.741 220.308L722.788 211.767H708.138V227.677L696.437 232.75L690.246 239.332L684.787 253.767H663.867ZM782.663 366.5L782.758 366.531L782.765 366.509L782.762 366.486L782.663 366.5Z" fill="#3EA0FE" fill-opacity="0.35"/>
<path d="M757.087 232.601L743.851 220.137L722.827 211.567H707.938V227.546L696.32 232.583L690.073 239.224L684.649 253.567H663.594L663.635 253.698M757.111 253.701V261.364L828.516 276.896L839.309 272.268V266.055L847.193 261.322L852.724 266.065V272.346M850.12 282.462L850.118 282.47L847.271 299.078L820.592 307.083L820.574 307.119C820.55 307.169 820.513 307.243 820.464 307.34C820.366 307.534 820.219 307.82 820.023 308.188C819.631 308.924 819.043 309.988 818.258 311.302C816.688 313.929 814.331 317.558 811.18 321.562C804.887 329.56 795.426 339.06 782.75 345.07C781.861 349.15 781.861 354.488 782.086 358.82C782.198 360.993 782.368 362.91 782.509 364.284C782.579 364.971 782.643 365.522 782.688 365.901C782.711 366.09 782.73 366.237 782.742 366.336L782.757 366.449L782.761 366.477L782.762 366.484L782.762 366.486M782.762 366.486C782.762 366.486 782.762 366.487 782.663 366.5M782.762 366.486L782.765 366.509L782.758 366.531M782.762 366.486L782.663 366.5M782.663 366.5C782.758 366.531 782.758 366.531 782.758 366.531M782.663 366.5L782.758 366.531M782.758 366.531L782.757 366.534L782.743 366.577L782.699 366.713C782.676 366.783 782.646 366.873 782.61 366.981C782.585 367.056 782.557 367.139 782.526 367.231C782.375 367.681 782.152 368.33 781.868 369.128C781.3 370.722 780.484 372.912 779.497 375.289C777.524 380.038 774.858 385.553 772.095 388.568L772.007 388.663L771.937 388.554C751.182 356.297 744.799 335.99 743.269 322.088C742.504 315.136 742.952 309.789 743.421 305.357C743.465 304.941 743.509 304.533 743.552 304.133C743.969 300.275 744.31 297.126 743.703 294.154C742.793 292.983 741.427 291.925 739.882 290.995C738.33 290.062 736.603 289.261 734.99 288.609C733.376 287.958 731.878 287.454 730.782 287.114C730.235 286.944 729.788 286.815 729.478 286.728C729.323 286.685 729.203 286.652 729.121 286.63C729.08 286.619 729.049 286.611 729.028 286.605L729.004 286.599L728.998 286.598L728.997 286.597L728.992 286.596L715.994 282.541L715.992 282.54L715.77 282.479C715.621 282.438 715.401 282.377 715.114 282.298C714.541 282.14 713.701 281.909 712.634 281.618C710.501 281.034 707.463 280.208 703.842 279.236C696.599 277.291 687.025 274.764 677.698 272.431C675.462 271.871 673.467 270.414 671.734 268.552C670 266.69 668.523 264.418 667.324 262.219C666.125 260.019 665.203 257.889 664.58 256.309C664.269 255.519 664.033 254.867 663.874 254.411C663.795 254.184 663.735 254.005 663.695 253.884C663.675 253.823 663.66 253.776 663.65 253.745L663.638 253.709L663.635 253.698M663.635 253.698C663.635 253.698 663.634 253.697 663.73 253.667L663.635 253.698ZM716.047 282.348C716.047 282.348 716.048 282.348 716.021 282.445L716.047 282.348ZM716.047 282.348L716.051 282.349L729.046 286.403L729.048 286.404L729.051 286.405L729.054 286.406L729.079 286.412C729.1 286.417 729.131 286.426 729.173 286.437C729.255 286.459 729.376 286.492 729.532 286.535C729.843 286.623 730.292 286.752 730.842 286.923C731.941 287.265 733.445 287.77 735.065 288.424C736.684 289.078 738.421 289.883 739.985 290.824C741.548 291.764 742.943 292.844 743.875 294.05L743.889 294.068L743.894 294.091C744.515 297.102 744.169 300.29 743.751 304.149C743.708 304.551 743.664 304.961 743.62 305.378C743.151 309.805 742.705 315.135 743.468 322.066C744.992 335.911 751.346 356.158 772.035 388.337C774.741 385.331 777.36 379.912 779.312 375.212C780.298 372.839 781.112 370.653 781.68 369.06C781.963 368.264 782.186 367.616 782.337 367.168C782.412 366.943 782.47 366.769 782.509 366.65L782.553 366.515L782.561 366.491L782.559 366.475L782.544 366.362C782.531 366.262 782.513 366.115 782.49 365.925C782.444 365.545 782.38 364.992 782.31 364.304C782.168 362.928 781.999 361.007 781.886 358.83C781.66 354.479 781.659 349.092 782.565 344.979L782.576 344.931L782.62 344.91C795.281 338.919 804.734 329.431 811.023 321.438C814.167 317.442 816.52 313.821 818.086 311.199C818.869 309.888 819.456 308.827 819.846 308.094C820.042 307.727 820.188 307.443 820.286 307.25C820.312 307.199 820.334 307.154 820.353 307.115C820.37 307.082 820.384 307.054 820.395 307.031L820.422 306.975L820.429 306.961L820.431 306.958C820.431 306.958 820.431 306.957 820.521 307L820.431 306.957L820.45 306.917L847.094 298.922L849.923 282.428L849.924 282.42L852.524 272.321V266.157L847.172 261.568L839.509 266.168V272.399L828.536 277.105L756.911 261.525V253.633L764.66 243.554L756.935 232.733L743.741 220.308L722.788 211.767H708.138V227.677L696.437 232.75L690.246 239.332L684.787 253.767H663.867C663.873 253.783 663.878 253.801 663.885 253.821C663.925 253.942 663.984 254.119 664.063 254.345C664.221 254.799 664.456 255.449 664.766 256.236C665.387 257.811 666.305 259.933 667.499 262.123C668.694 264.314 670.162 266.571 671.88 268.416C673.599 270.262 675.562 271.69 677.746 272.237C687.075 274.57 696.651 277.098 703.894 279.043C707.515 280.015 710.554 280.841 712.687 281.425C713.754 281.716 714.594 281.947 715.167 282.105C715.354 282.156 715.511 282.2 715.64 282.236L716.047 282.348Z" stroke="#636F97" stroke-width="0.2"/>
<path d="M640.975 246.708L640.967 246.707L623.447 239.309L608.464 227.656H594.692L594.683 227.654L580.311 224.933H562.811L550.362 219.873L533.694 215.995L526.32 219.878H510.648V213.983L503.663 206.217L501.32 198.404V189.795L508.755 181.574L516.111 180.411L516.892 177.678H523.946L536.764 173.014L546.894 171.455L558.173 173.011H571.002L582.648 174.177L596.614 171.46L601.597 169.158V163.831L594.657 159.202L582.597 155.309L577.535 149.855L568.62 144.038L560.398 142.079V139.553L563.606 139.955L570.929 138.798L574.06 133.316L577.592 134.887L582.527 131.849L580.207 126.433L583.689 121.401L580.27 117.98L576.713 117.189L577.109 113.628L574.77 108.558L576.718 103.88L575.96 100.469L566.315 97.7668H562.791L558.143 93.5037L553.89 95.0513L545.642 91.9072L545.246 89.9269L542.562 85.7071L537.49 85.3167L536.693 82.5276L538 80.5L533 75L527 76L525 75.5L523.5 77.5H521.5L519 71.5L517 69L518 68.5H523L525 66.5L523 64L518.5 62.5V60.5L516 59L511.5 53.5V53L512 51L510.5 46.5L505 44.5L504.5 44L501.5 45.5L501 43L494 40.5L495.5 36.5L498.5 34L503.5 33L505 30L508.5 27L505 25.5L503.5 27L501.5 30L497.5 33H492L489.5 30V27L488 18.5L489.5 13.5H501.5L504.5 16H511.5L512.5 17.5H514.5V20.5L508.5 22L505 20.5L503.5 22L504.5 24L508.5 25.5L510.5 28.5L508.5 30L512.5 31.5L517 25.5L516 22H518.5L521.5 18.5L519 16L521.5 13.5H525L527 16L525 18.5H530L533 16L538 17.5L541 22L542.677 25.5L545.246 28.5H549L551 27L558.143 24H571.055L570.929 34L582.527 36.5L589 31.5L596.676 25.5L608.533 18.5L614 30L601.797 36.5L614 40.5L623.447 34L630 31.5L640.967 28.5L652 25.5L661.975 20.5L671.857 16L677.723 8H690.223L703.819 1L716.028 8L735.042 1H751L764.637 13.5L771.914 20.5L782.063 31.5C784.042 31.5 789.4 31.2 795 30C800.6 28.8 808.105 28.5 811.157 28.5L828.493 36.5L839.286 45.5V60.5L847.071 64L852.701 82.4727L860 100.469L876 108.558L895 117.98H905V126.456L895 149.701L905 163.724V169.158V189.795L910 198.404V224.733L915 246.516V255.309L910 275.896L895 280.424L852 285L854 272V264.5L847.5 260.5L839 266V272L828.5 275.896L758 260.5V254L765.5 243.5L756.5 231.5L744.5 219.5L722.5 210.5H706.5V226.5L696.5 231.5L689.5 239L685 252L663 253.5L640.975 246.708Z" fill="#3EA0FE" fill-opacity="0.35"/>
<path d="M536.693 82.5276L536.886 82.4727L537.644 85.128L542.677 85.5154L545.435 89.8511L545.816 91.7597L553.892 94.8378L558.189 93.2743L562.869 97.5668H566.342L576.13 100.309L576.927 103.898L574.988 108.554L577.314 113.595L576.932 117.033L580.371 117.798L583.948 121.377L580.434 126.456L582.778 131.929L577.607 135.113L574.144 133.573L571.055 138.98L563.609 140.157L560.598 139.78V141.921L568.7 143.851L577.665 149.701L582.708 155.135L594.745 159.02L601.797 163.724V169.286L596.676 171.652L582.657 174.379L570.987 173.211H558.152L546.896 171.657L536.814 173.209L523.981 177.878H517.043L516.268 180.589L508.856 181.76L501.52 189.872V198.374L503.842 206.117L510.848 213.906V219.678H526.271L533.666 215.783L550.423 219.682L562.85 224.733H580.33L580.339 224.735L594.711 227.456H608.533L623.549 239.135M536.693 82.5276L537.49 85.3167L542.562 85.7071L545.246 89.9269L545.642 91.9072L553.89 95.0513L558.143 93.5037L562.791 97.7668H566.315L575.96 100.469L576.718 103.88L574.77 108.558L577.109 113.628L576.713 117.189L580.27 117.98L583.689 121.401L580.207 126.433L582.527 131.849L577.592 134.887L574.06 133.316L570.929 138.798L563.606 139.955L560.398 139.553V142.079L568.62 144.038L577.535 149.855L582.597 155.309L594.657 159.202L601.597 163.831V169.158L596.614 171.46L582.648 174.177L571.002 173.011H558.173L546.894 171.455L536.764 173.014L523.946 177.678H516.892L516.111 180.411L508.755 181.574L501.32 189.795V198.404L503.663 206.217L510.648 213.983V219.878H526.32L533.694 215.995L550.362 219.873L562.811 224.933H580.311L594.683 227.654L594.692 227.656H608.464L623.447 239.309L640.967 246.707L640.975 246.708L663 253.5L685 252L689.5 239L696.5 231.5L706.5 226.5V210.5H722.5L744.5 219.5L756.5 231.5L765.5 243.5L758 254V260.5L828.5 275.896L839 272V266L847.5 260.5L854 264.5V272L852 285L895 280.424L910 275.896L915 255.309V246.516L910 224.733V198.404L905 189.795C905 185.823 905 176.134 905 169.158C905 162.183 905 162.629 905 163.724L895 149.701L905 126.456V117.98H895L876 108.558L860 100.469L852.701 82.4727L847.071 64L839.286 60.5V45.5L828.493 36.5L811.157 28.5C808.105 28.5 800.6 28.8 795 30C789.4 31.2 784.042 31.5 782.063 31.5L771.914 20.5L764.637 13.5L751 1H735.042L716.028 8L703.819 1L690.223 8H677.723L671.857 16L661.975 20.5L652 25.5L640.967 28.5L630 31.5L623.447 34L614 40.5L601.797 36.5L614 30L608.533 18.5L596.676 25.5L589 31.5L582.527 36.5L570.929 34L571.055 24H558.143L551 27L549 28.5H545.246L542.677 25.5L541 22L538 17.5L533 16L530 18.5H525L527 16L525 13.5H521.5L519 16L521.5 18.5L518.5 22H516L517 25.5L512.5 31.5L508.5 30L510.5 28.5L508.5 25.5L504.5 24L503.5 22L505 20.5L508.5 22L514.5 20.5V17.5H512.5L511.5 16H504.5L501.5 13.5H489.5L488 18.5L489.5 27V30L492 33H497.5L501.5 30L503.5 27L505 25.5L508.5 27L505 30L503.5 33L498.5 34L495.5 36.5L494 40.5L501 43L501.5 45.5L504.5 44L505 44.5L510.5 46.5L512 51L511.5 53V53.5L516 59L518.5 60.5V62.5L523 64L525 66.5L523 68.5H518L517 69L519 71.5L521.5 77.5H523.5L525 75.5L527 76L533 75L538 80.5L536.693 82.5276Z" stroke="#636F97" stroke-width="0.2"/>
</svg>
