<svg width="701" height="393" viewBox="0 0 701 393" fill="none" xmlns="http://www.w3.org/2000/svg">
<path d="M552.791 182.684L553.4 184.817L555.532 183.75L557.358 186.773L559.338 188.017L560.251 192.106L559.49 196.017L561.012 200.817L564.514 203.484L564.666 206.506L562.078 208.106L561.926 211.84L558.576 217.351L557.206 216.64L556.902 214.151L552.182 210.24L551.116 204.906L551.269 197.084L552.03 193.706L550.66 191.928L549.898 188.195L552.791 182.684Z" fill="#3EA0FE" fill-opacity="0.35" stroke="#636F97" stroke-width="0.2" stroke-linecap="round" stroke-linejoin="round"/>
<path d="M527.129 118.084L526.664 119.437L527.75 122.988L527.44 127.385H523.093L524.801 129.753L522.783 136.517L521.386 138.377L514.555 138.546L510.829 141.083L504.309 140.237L492.977 137.363L490.959 133.811L483.352 135.671L482.575 137.701L477.763 136.179L473.727 135.841L470.156 133.811L471.243 131.275L470.932 129.414L473.106 128.907L477.297 131.782L478.229 128.907L485.059 129.414L490.493 127.554L494.219 127.892L496.858 130.091L497.479 128.231L495.926 121.297L498.565 119.944L501.049 115.04L506.948 118.592L510.984 114.195L513.624 113.349L519.833 116.562L523.404 116.055L527.129 118.084Z" fill="#3EA0FE" fill-opacity="0.35" stroke="#636F97" stroke-width="0.2" stroke-linecap="round" stroke-linejoin="round"/>
<path d="M445.051 94.2219L444.424 101.442L442.386 101.786L441.759 107.802L434.862 102.817L430.943 103.677L425.457 98.6914L421.695 94.3938L418.246 94.2219L416.992 90.44L423.106 88.3772L428.749 89.2367L435.802 87.002L440.662 91.6434L445.051 94.2219Z" fill="#3EA0FE" fill-opacity="0.35" stroke="#636F97" stroke-width="0.2" stroke-linecap="round" stroke-linejoin="round"/>
<path d="M620.788 171.967L617.252 176.498L615.254 184.339L618.482 190.611L611.411 189.217L603.724 192.702L604.185 198.278L597.113 199.324L591.118 195.316L584.968 198.452L579.126 198.104L577.896 190.786L573.592 187.126L574.668 185.733L573.746 184.339L574.668 180.854L577.435 177.369L573.131 172.664L572.055 168.482L573.746 166.043L576.513 170.573L579.434 169.876L585.583 171.445L597.267 172.142L600.803 169.354L609.873 166.74L616.023 170.748L620.788 171.967Z" fill="#3EA0FE" fill-opacity="0.35" stroke="#636F97" stroke-width="0.2" stroke-linecap="round" stroke-linejoin="round"/>
<path d="M545.952 159.008L548.899 158.839L547.193 163.574L551.379 167.802L550.604 172.706L548.899 173.213L547.503 174.228L545.022 176.765L544.402 182.684L536.959 178.625L533.702 174.059L530.446 171.691L526.57 167.633L524.554 164.42L520.367 159.347L521.608 154.95L524.709 157.486L526.26 155.119L529.826 154.95L536.804 156.81L542.231 156.641L545.952 159.008Z" fill="#3EA0FE" fill-opacity="0.35" stroke="#636F97" stroke-width="0.2" stroke-linecap="round" stroke-linejoin="round"/>
<path d="M634.607 68.9749L628.693 68.6283L627.48 69.6683L629.755 73.135L632.788 80.0685L626.571 80.5885L624.599 83.0152L625.054 88.3886L621.87 87.3486L615.35 87.8686L613.075 85.2686L610.497 87.1753L607.616 85.6152L601.703 85.4419L593.06 82.8418L585.63 81.9752L579.867 82.3218L576.228 85.0952L572.741 85.6152L571.983 80.7618L569.102 75.9084L573.347 73.655L572.741 69.495L570.163 65.5082L569.253 60.8281H576.38L583.658 56.8414L584.416 50.948L589.875 47.4812L588.359 42.8012L592.453 41.0678L599.428 37.0811L607.465 39.6811L608.829 42.2811L612.469 41.0678L619.747 43.4945L621.415 48.5212L620.354 51.2946L626.116 58.2281L629.3 60.1348V62.0415L634.456 63.9482L637.033 66.7216L634.607 68.9749Z" fill="#3EA0FE" fill-opacity="0.35" stroke="#636F97" stroke-width="0.2" stroke-linecap="round" stroke-linejoin="round"/>
<path d="M127.971 342.68H126.539L127.634 336.203L128.224 331.614L128.308 330.715L128.898 330.445L129.656 331.165L131.763 327.656L132.689 327.566L132.605 328.466H133.448L133.195 330.085L132.1 332.514L132.437 333.414L131.678 335.483L131.931 336.023L131.089 338.991L129.993 340.521L129.067 340.701L127.971 342.68Z" fill="#3EA0FE" fill-opacity="0.35" stroke="#636F97" stroke-width="0.2" stroke-linecap="round" stroke-linejoin="round"/>
<path d="M278.022 166.169L280.887 166.978L284.847 166.798L282.066 169.138L280.381 169.497L275.748 167.068L275.242 165.179L277.348 163.47L278.022 166.169Z" fill="#3EA0FE" fill-opacity="0.35" stroke="#636F97" stroke-width="0.2" stroke-linecap="round" stroke-linejoin="round"/>
<path d="M290.154 151.774L288.132 151.864L283.246 150.155L280.297 147.456L281.898 147.006L286.868 148.446L290.407 150.785L290.154 151.774Z" fill="#3EA0FE" fill-opacity="0.35" stroke="#636F97" stroke-width="0.2" stroke-linecap="round" stroke-linejoin="round"/>
<path d="M30.7484 155.103L28.1366 155.913L22.8289 153.394V151.414L20.3856 149.435L20.6384 147.816L17.0156 146.826L17.5211 143.767L18.7849 142.508L22.2391 143.677L24.2611 144.577L27.7154 145.117L27.8839 147.096L28.2209 149.705L30.9169 152.044L30.7484 155.103Z" fill="#3EA0FE" fill-opacity="0.35" stroke="#636F97" stroke-width="0.2" stroke-linecap="round" stroke-linejoin="round"/>
<path d="M316.439 142.958L312.226 147.816L315.512 145.927L317.955 147.186L315.933 149.075L319.135 150.605L321.494 149.255L325.116 150.965L322.757 155.103L325.959 154.113L325.706 157.082L326.127 160.591L323.094 165.629L321.072 165.809L318.629 164.729L320.735 160.141L319.724 159.421L313.574 164.279L311.046 164.099L314.754 161.401L311.046 160.051L306.413 160.411L298.325 160.231L298.156 158.612L301.358 156.542L299.926 155.103L304.475 151.684L311.384 142.778L314.922 139.629L319.135 137.74L320.904 137.92L319.64 139.449L316.439 142.958Z" fill="#3EA0FE" fill-opacity="0.35" stroke="#636F97" stroke-width="0.2" stroke-linecap="round" stroke-linejoin="round"/>
<path d="M13.1396 123.705L14.4034 124.425L18.6159 123.975L12.5499 130.183L12.8026 134.681H11.2019L10.6121 132.162L11.0334 129.553L10.3594 127.843L11.4546 125.414L13.1396 123.705Z" fill="#3EA0FE" fill-opacity="0.35" stroke="#636F97" stroke-width="0.2" stroke-linecap="round" stroke-linejoin="round"/>
<path d="M251.901 80.9718L248.868 83.6707L247.436 83.2209L247.352 81.6915L247.689 81.3317L250.048 79.8022L251.48 79.8922L251.901 80.9718Z" fill="#3EA0FE" fill-opacity="0.35" stroke="#636F97" stroke-width="0.2" stroke-linecap="round" stroke-linejoin="round"/>
<path d="M243.734 78.0932L237.668 80.9721L235.141 80.7922V79.4427L239.353 77.0137L244.408 77.1036L243.734 78.0932Z" fill="#3EA0FE" fill-opacity="0.35" stroke="#636F97" stroke-width="0.2" stroke-linecap="round" stroke-linejoin="round"/>
<path d="M241.116 62.979L240.358 65.2281L242.633 64.4184L243.896 65.7679L246.845 67.5672L250.046 69.0966L248.867 71.5257L251.816 71.1658L253.416 72.8752L249.204 74.4945L244.233 73.235L243.559 70.8959L238.251 73.6848L231.343 76.2938L231.933 73.325L226.625 73.7748L231.427 71.2558L234.46 67.2074L238.757 62.6191L241.116 62.979Z" fill="#3EA0FE" fill-opacity="0.35" stroke="#636F97" stroke-width="0.2" stroke-linecap="round" stroke-linejoin="round"/>
<path d="M216.182 45.8857L212.728 47.595L209.189 46.1556L205.904 46.6054L203.039 44.4463L207.252 42.9168L211.38 40.8477L213.907 42.1971L215.255 43.0968L215.592 43.9964L216.182 45.8857Z" fill="#3EA0FE" fill-opacity="0.35" stroke="#636F97" stroke-width="0.2" stroke-linecap="round" stroke-linejoin="round"/>
<path d="M260.83 174.175L258.977 170.937L261.42 163.29L260.072 161.67L256.955 162.57L256.028 161.131L251.394 165.359L248.698 169.767L246.339 172.376L244.233 173.276L242.801 173.546L241.874 174.895H234.039L227.467 174.985L225.193 175.975L219.464 179.933V179.843L218.705 179.483L217.02 180.293L215.42 181.463L213.903 180.473L209.943 181.193L206.658 182.002L205.057 182.722L203.119 184.611L204.636 185.241L206.068 184.881H206.321L206.068 186.591L202.024 187.22L199.665 187.94L198.233 188.84L196.042 188.3L194.694 188.57L192.251 190.189L188.375 191.989L186.101 191.629L187.786 189.649L190.903 186.501L194.357 184.611L195.284 182.992L196.042 180.293L199.244 177.144L200.002 173.546L200.929 177.054L204.13 177.864L206.152 175.975L204.973 171.656L204.214 169.857L200.844 168.778L197.643 168.148H194.357L191.493 167.428L191.156 166.169L189.976 166.978L188.965 166.798L190.566 164.909L189.049 164.189L190.65 162.03L189.639 160.411L191.071 158.791L186.69 157.982L186.606 154.743L185.932 154.023L183.152 153.843L179.698 152.764L178.434 153.484L176.917 154.833L174.137 155.733L171.525 157.982L166.976 156.452L163.269 157.172L159.983 155.463L156.108 154.563L153.327 154.203L152.485 153.304L153.243 150.245H151.811L150.716 152.404H142.122H127.8H113.646H101.092H88.6234H76.2386H63.5169H59.4729H47.0881H35.2089H34.6191L30.0696 146.916L28.7216 144.487L22.8241 142.148L23.9194 137.2L26.9524 133.871L23.4981 131.442L26.1099 127.034L24.3406 123.075L26.4469 120.196L30.7436 117.587L33.4396 114.169L29.5641 110.75L30.7436 104.543L31.6704 100.764L30.3224 98.335L29.6484 96.1758L30.1539 93.3869L24.6776 95.0962L18.2746 98.0651L18.0219 94.6464L17.6006 92.3073L15.2416 90.8679L11.7031 90.6879L41.6961 61.2694L62.4216 42.9165L67.4766 44.0861L70.2569 46.4252L73.3741 46.875L78.6819 44.8958L84.5794 43.3664L89.0446 43.9061L96.5429 41.8369L103.451 40.6674L103.62 42.6466L107.411 41.4771L110.697 39.228L112.466 39.7678L113.646 44.0861L121.649 40.7574L118.364 44.4459L123.419 43.6362L126.115 42.2868L129.99 42.5567L133.276 44.5359L139.595 46.3352L143.554 47.1449L147.261 46.875L149.705 49.394L142.543 51.8231L147.935 52.8127L157.961 52.2729L161.668 51.3732L162.848 54.3421L168.829 51.913L167.06 49.7539L170.851 48.1345L175.232 47.8646L178.518 47.4148L180.287 48.5843L181.551 51.1933L185.764 50.8335L190.229 53.0826L196.295 52.2729L201.35 52.3629L203.372 49.304L207.163 48.4944L211.291 50.1137L207.669 54.7919L212.892 50.8335L215.588 51.0134L220.98 46.0653L219.632 43.0965L217.189 41.1172L221.823 35.8093L228.731 32.3906L232.522 33.2003L234.207 35.2695L234.544 40.6674L229.658 43.0065L235.303 43.9961L231.596 48.9442L239.094 45.1657L240.947 48.3144L237.325 51.913L238.42 55.2417L244.57 51.7331L250.046 47.4148L254.006 42.1068L258.64 42.4667L263.189 43.1864L266.222 45.6155L264.79 48.0445L260.493 50.6535L261.252 53.2625L259.23 55.6916L250.046 59.2002L244.57 60.0099L241.874 58.4805L239.094 60.9995L232.859 65.2278L230.332 67.477L223.845 70.8956L218.368 71.2555L214.072 73.4147L211.628 76.8333L206.826 77.4631L199.496 81.6914L191.577 87.5392L187.364 91.6776L183.236 97.8851L188.291 98.7848L187.027 103.733L186.353 107.871L192.504 106.792L198.401 109.131L201.181 111.2L202.614 113.719L206.742 115.248L209.775 117.498L216.178 117.857L220.222 118.397L217.189 123.075L215.757 128.563L215.841 134.771L219.548 140.079L223.508 138.279L228.226 132.522L230.163 123.885L228.731 121.006L236.314 118.397L242.632 114.619L246.676 110.84L248.109 107.242L247.772 102.653L245.076 98.6049L252.574 93.027L253.416 88.2589L256.702 80.162L259.904 78.9025L265.548 80.342L269.087 80.8818L272.878 79.4423L275.49 81.2416L278.523 84.3004L278.691 86.2797L285.179 86.7295L282.988 91.1378L281.05 97.7952L284.252 98.6948L285.6 101.844L292.508 98.8748L298.827 92.9371L302.366 90.508L303.292 95.2762L305.483 102.024L307.168 108.501L304.303 111.92L308.347 114.978L310.791 118.037L316.604 119.477L318.626 121.186V125.864L321.49 126.584L322.417 128.653L320.732 134.861L317.109 136.93L313.571 138.909L306.157 140.888L299.501 145.387L292.256 146.376L283.746 145.117H277.596L273.131 145.477L268.329 149.525L262.094 152.044L253.585 159.421L246.929 164.639L250.889 163.74L260.072 156.272L270.435 151.594L276.838 151.054L279.618 153.843L274.479 157.622L273.973 163.65L274.058 167.968L278.776 170.757L286.021 169.947L292.087 163.56L291.245 167.698L293.351 169.767L287.116 173.456L276.669 176.874L271.783 179.124L265.717 183.262L262.6 182.812L263.863 178.044L272.625 173.276L265.801 173.456L260.83 174.175Z" fill="#3EA0FE" fill-opacity="0.35" stroke="#636F97" stroke-width="0.2" stroke-linecap="round" stroke-linejoin="round"/>
<path d="M472.25 129.301L472.558 131.311L471.482 134.053L475.017 136.245L479.013 136.611L478.552 141.179L475.324 143.19L469.484 141.728L467.947 146.296L464.258 146.662L462.875 144.834L458.725 148.855L454.883 149.403L451.502 146.844L448.735 141.91L445.047 143.738V138.438L450.58 132.042L450.272 129.118L453.807 130.215L455.805 128.205H462.26L463.797 125.829L472.25 129.301Z" fill="#3EA0FE" fill-opacity="0.35" stroke="#636F97" stroke-width="0.2" stroke-linecap="round" stroke-linejoin="round"/>
<path d="M150.548 371.289L151.559 374.438L153.244 376.777L155.35 379.206L153.497 379.746L153.412 382.085L154.339 382.894L153.581 383.614L153.749 384.604L153.244 385.773L152.991 386.943L150.464 385.683L149.537 384.424L150.127 383.434L150.042 382.175L148.779 380.825L146.925 379.656L145.409 378.936L145.156 377.227L143.976 376.237L144.145 377.856L143.134 379.296L142.123 377.676L140.691 377.047L140.101 375.967L140.185 374.168L140.943 372.368L139.68 371.559L140.859 370.389L141.617 369.669L144.65 371.199L145.746 370.479L147.262 370.929L147.936 372.098L149.368 372.548L150.548 371.289Z" fill="#3EA0FE" fill-opacity="0.35" stroke="#636F97" stroke-width="0.2" stroke-linecap="round" stroke-linejoin="round"/>
<path d="M175.992 303.005L177.593 305.075L181.974 304.445L183.49 305.794L187.029 309.393L189.725 312.002L191.241 311.912L193.937 313.081L193.432 314.701L196.802 314.971L200.088 317.31L199.414 318.659L196.212 319.379L193.011 319.649L189.893 319.199L183.069 319.739L186.608 316.59L184.838 315.061L181.805 314.701L180.373 312.991L179.699 309.753L177.003 309.933L172.791 308.403L171.527 307.144L165.545 306.244L164.029 305.165L165.966 303.725L161.417 303.455L157.71 306.424L155.772 306.514L154.93 307.953L152.571 308.583L150.633 307.953L153.329 306.244L154.593 304.085L156.867 302.825L159.395 301.746L163.018 301.206L164.197 300.486L168.157 300.936L171.864 301.026L175.992 303.005Z" fill="#3EA0FE" fill-opacity="0.35" stroke="#636F97" stroke-width="0.2" stroke-linecap="round" stroke-linejoin="round"/>
<path d="M509.436 91.3354L513.239 94.8022L518.869 95.6688L518.565 98.6156L522.825 100.869L523.738 98.0956L528.911 99.3089L529.976 102.776L535.606 103.296L539.562 108.669H537.28L536.215 110.576L534.541 111.096L534.237 113.522L532.867 114.042L532.715 115.083L530.281 116.123L526.933 115.949L526.02 118.376L522.369 116.296L518.869 116.816L512.783 113.522L510.196 114.389L506.24 118.896L500.459 115.256L495.894 110.749L491.938 108.149L490.873 103.469L489.352 100.349L494.525 98.0956L497.111 95.3222L502.437 93.2421L504.11 91.1621L506.088 92.3755L509.436 91.3354Z" fill="#3EA0FE" fill-opacity="0.35" stroke="#636F97" stroke-width="0.2" stroke-linecap="round" stroke-linejoin="round"/>
<path d="M501.132 62.5503L503.278 67.9917L501.438 70.9757L504.352 74.6619L506.652 80.4544L506.345 84.3161L510.025 91.1618L506.652 92.2149L504.658 90.9862L502.972 93.0926L497.604 95.199L494.998 98.0075L489.784 100.289L491.317 103.449L492.391 108.188L496.378 110.821L500.978 115.385L498.525 120.475L495.918 121.88L497.451 129.076L496.838 131.007L494.231 128.725L490.551 128.374L485.184 130.305L478.436 129.778L477.516 132.762L473.376 129.778L471.229 130.305L462.795 126.97L461.262 129.252H454.821L455.435 121.353L459.115 113.981L448.074 111.874L444.394 109.066L444.701 104.327L443.167 101.869L443.781 94.4968L442.094 83.0874H446.541L448.381 79.0502L449.761 69.2204L448.381 65.5343L449.608 63.2524L455.741 62.7258L457.275 65.0077L462.029 59.7418L460.035 55.7046L459.422 49.7366L465.095 51.1408L469.543 49.561L470.002 53.5982L477.516 56.0557L477.67 59.9173L484.877 57.811L488.864 55.0025L497.451 59.2152L501.132 62.5503Z" fill="#3EA0FE" fill-opacity="0.35" stroke="#636F97" stroke-width="0.2" stroke-linecap="round" stroke-linejoin="round"/>
<path d="M489.353 42.4545L485.601 50.948L477.47 44.8812L476.062 40.5478L486.695 37.0811L489.353 42.4545Z" fill="#3EA0FE" fill-opacity="0.35" stroke="#636F97" stroke-width="0.2" stroke-linecap="round" stroke-linejoin="round"/>
<path d="M469.644 49.3787L465.102 50.9476L459.306 49.553L456.017 43.6259L455.391 32.992L456.331 30.0284L458.367 26.8905L464.632 26.3676L467.138 23.404L472.776 20.4404V25.8446L470.897 29.3311L471.993 32.1203L476.065 33.6893L474.499 37.6988L472.306 36.6528L467.451 44.1489L469.644 49.3787Z" fill="#3EA0FE" fill-opacity="0.35" stroke="#636F97" stroke-width="0.2" stroke-linecap="round" stroke-linejoin="round"/>
<path d="M592.798 2.42446L594.2 4.17147L590.149 10.1113L593.889 19.8946L591.396 23.2139L585.475 23.0392L578.619 19.1958L575.348 17.9729L569.427 19.7199L569.271 13.6053L566.934 15.003L561.792 11.3342L560.234 5.39439L568.804 2.42446L577.529 1.02686L585.475 2.59916L592.798 2.42446Z" fill="#3EA0FE" fill-opacity="0.35" stroke="#636F97" stroke-width="0.2" stroke-linecap="round" stroke-linejoin="round"/>
<path d="M353.59 60.6545L347.972 58.7588L343.156 58.9168L345.082 53.7035L343.638 48.6483L350.059 48.1743L357.924 54.1775L353.59 60.6545Z" fill="#3EA0FE" fill-opacity="0.35" stroke="#636F97" stroke-width="0.2" stroke-linecap="round" stroke-linejoin="round"/>
<path d="M377.69 10.7339L369.913 22.1715L377.08 20.7638H384.857L382.875 29.3859L376.318 38.8879L383.79 39.4158L384.247 40.6475L390.652 53.1409L395.532 54.9005L399.954 67.2179L402.089 71.441L411.086 73.3766L410.171 80.4151L406.511 83.5824L409.409 89.2132L402.699 94.844L392.787 94.6681L379.978 97.8354L376.623 95.5479L371.59 100.651L364.728 99.419L359.239 103.642L355.426 101.531L366.558 90.093L373.268 87.6295L361.678 85.8699L359.696 81.4709L367.473 78.1276L363.661 72.3208L365.186 65.2823L376.013 66.3381L377.233 60.0034L372.505 53.4928L372.353 53.3168L363.661 51.3813L361.983 48.5659L364.728 43.8149L362.441 40.8235L358.476 45.9264L358.324 35.5446L354.969 30.2657L357.866 19.356L363.661 10.9099L369.151 11.6137L377.69 10.7339Z" fill="#3EA0FE" fill-opacity="0.35" stroke="#636F97" stroke-width="0.2" stroke-linecap="round" stroke-linejoin="round"/>
<path d="M604.04 203.42L599.226 203.075L595.165 202.041L585.84 204.798L591.856 211.002L588.096 212.898H583.734L579.071 207.211L577.718 209.624L580.124 216.172L584.486 221.342L581.628 223.755L586.441 228.753L590.653 232.027L591.255 238.231L583.734 235.301L586.441 240.988L581.478 242.022L585.238 251.845L579.974 252.018L573.055 247.192L569.445 238.403L567.489 230.993L564.03 225.995L559.518 219.619L558.766 216.517L562.075 211.175L562.225 207.556L564.782 206.005L564.632 203.075L569.746 202.213L572.453 199.801L576.665 199.973L577.868 198.077L579.372 197.733L585.088 198.077L591.104 194.975L596.97 198.939L603.889 197.905L603.438 192.39L607.499 195.32L605.845 202.213L604.04 203.42Z" fill="#3EA0FE" fill-opacity="0.35" stroke="#636F97" stroke-width="0.2" stroke-linecap="round" stroke-linejoin="round"/>
<path d="M128.221 331.614L127.631 336.203L126.536 342.68H127.968L129.4 343.76L129.906 342.86L131.169 343.58L128.81 345.829L126.367 347.448L125.946 348.528L126.199 349.697L125.103 351.137L123.924 351.497L124.177 352.216L123.166 352.846L121.481 354.286L121.228 355.095L118.869 354.106L115.92 354.016L113.898 352.846L111.539 350.507L111.876 348.798L112.55 347.448L111.96 346.369L114.741 341.69H120.807L121.144 339.711L120.47 339.351L120.048 338.092L118.448 336.742L116.931 334.853L119.037 334.763L119.459 331.524H123.84L128.221 331.614Z" fill="#3EA0FE" fill-opacity="0.35" stroke="#636F97" stroke-width="0.2" stroke-linecap="round" stroke-linejoin="round"/>
<path d="M154.765 347.808L153.165 347.718L152.406 348.528L150.721 349.247H149.542L148.447 349.967L147.52 349.787L146.762 348.888L146.256 349.068L145.498 350.417L145.077 350.327L144.908 351.587L143.139 353.116L142.128 353.836L141.622 354.555L140.359 353.386L139.179 354.915H138.168L137.073 355.005L136.904 357.884H136.23L135.556 359.234L134.04 359.503L133.366 357.704L131.934 357.164L132.523 354.825L131.934 354.196L130.923 353.836L128.816 354.465L128.732 353.746L127.384 352.756L126.457 351.677L125.109 351.137L126.205 349.697L125.952 348.528L126.373 347.448L128.816 345.829L131.175 343.58L131.681 343.85L132.776 342.86L134.124 342.77L134.545 343.22L135.304 342.95L137.494 343.49L139.685 343.31L141.201 342.68L141.875 342.05L143.307 342.32L144.403 342.68L145.666 342.59L146.677 342.05L148.784 342.86L149.458 343.04L150.806 344.119L152.069 345.379L153.67 346.279L154.765 347.808Z" fill="#3EA0FE" fill-opacity="0.35" stroke="#636F97" stroke-width="0.2" stroke-linecap="round" stroke-linejoin="round"/>
<path d="M543.532 147.546L545.823 151.914L548.42 155.059L545.823 159.251L542.157 156.806L536.81 156.98L529.935 155.059L526.422 155.233L524.894 157.679L521.839 155.059L520.616 159.601L524.741 164.842L526.727 168.161L530.546 172.354L533.755 174.8L536.963 179.517L544.296 183.71L543.532 185.457L535.893 181.438L531.005 177.42L523.672 174.101L516.492 166.065L518.019 165.191L514.2 160.474L513.742 156.806L508.7 155.059L506.562 159.776L504.117 156.107V152.263L504.27 152.089L509.77 152.438L510.992 150.691L513.742 152.438L516.797 152.613L516.644 149.643L519.241 148.42L519.7 144.052L525.658 141.083L528.102 142.48L534.213 147.197L540.782 149.293L543.532 147.546Z" fill="#3EA0FE" fill-opacity="0.35" stroke="#636F97" stroke-width="0.2" stroke-linecap="round" stroke-linejoin="round"/>
<path d="M565.23 119.812L569.813 122.824L570.577 125.837L566.147 128.14L563.244 135.582L559.272 143.201L553.314 145.327L548.426 144.796L542.773 147.631L540.023 149.403L533.454 147.276L527.343 142.492L524.899 141.075L523.066 137.354L521.844 137.177L523.83 130.089L522.149 127.609H526.427L526.732 123.002L530.857 126.014L533.76 127.077L540.023 125.837L540.482 123.533L543.384 123.179L546.898 121.584L547.815 122.293L551.328 120.875L552.856 118.218L555.3 117.509L563.703 120.875L565.23 119.812Z" fill="#3EA0FE" fill-opacity="0.35" stroke="#636F97" stroke-width="0.2" stroke-linecap="round" stroke-linejoin="round"/>
<path d="M353.905 61.1606L354.965 68.6789L349.058 78.0769L335.729 84.2283L325.43 82.6904L331.943 71.7546L328.762 61.1606L338.91 52.9587L344.514 48.1743L345.877 53.6422L344.06 59.281L348.604 59.1101L353.905 61.1606Z" fill="#3EA0FE" fill-opacity="0.35" stroke="#636F97" stroke-width="0.2" stroke-linecap="round" stroke-linejoin="round"/>
<path d="M523.316 232.604L520.665 241.53L522.069 244.856L520.665 250.631L514.116 246.431L509.906 245.206L498.211 239.605L498.991 233.83L508.659 234.88L517.079 233.655L523.316 232.604Z" fill="#3EA0FE" fill-opacity="0.35" stroke="#636F97" stroke-width="0.2" stroke-linecap="round" stroke-linejoin="round"/>
<path d="M471.023 199.324L476.064 206.965L475.453 221.398L471.787 220.718L468.579 224.284L465.523 221.398L464.759 208.323L462.773 202.21L467.204 202.72L471.023 199.324Z" fill="#3EA0FE" fill-opacity="0.35" stroke="#636F97" stroke-width="0.2" stroke-linecap="round" stroke-linejoin="round"/>
<path d="M504.592 140.736L503.984 146.11L506.111 150.79L499.881 149.056L493.955 153.043L494.563 158.417L493.803 161.537L496.69 167.083L504.288 172.63L508.694 181.817L517.963 190.657L524.041 190.484L526.169 192.91L524.041 195.164L531.335 199.151L537.413 202.444L544.555 208.337L545.467 210.244L544.251 214.231L539.541 209.031L532.551 207.297L529.664 214.404L535.59 218.564L534.982 224.284L531.791 224.978L527.992 234.511L524.649 235.378L524.497 231.911L525.865 226.018L527.536 223.591L524.041 217.178L521.306 211.631L517.963 210.244L515.228 205.564L510.062 203.484L506.415 198.977L500.641 198.284L494.107 193.43L486.662 186.15L481.039 179.91L478.152 168.99L474.202 167.777L467.82 164.137L464.325 165.523L459.918 170.723L456.727 171.417L457.487 166.737L453.232 165.35L450.953 156.856L453.536 153.563L451.257 149.403L451.409 146.283L454.752 148.71L458.551 148.19L462.653 144.376L464.021 146.11L467.668 145.763L469.187 141.43L474.961 142.816L478.152 140.91L478.608 136.576L483.319 138.136L484.078 136.056L491.524 134.149L493.499 137.789L504.592 140.736Z" fill="#3EA0FE" fill-opacity="0.35" stroke="#636F97" stroke-width="0.2" stroke-linecap="round" stroke-linejoin="round"/>
<path d="M185.854 331.255L184.338 332.244L181.81 331.255L179.367 329.185L180.041 327.836L182.063 327.476L183.158 327.656L186.276 328.196L188.55 329.545L189.224 331.165L185.854 331.255Z" fill="#3EA0FE" fill-opacity="0.35" stroke="#636F97" stroke-width="0.2" stroke-linecap="round" stroke-linejoin="round"/>
<path d="M588.234 43.2327L589.772 47.7558L584.238 51.1061L583.469 56.8018L576.091 60.6548H568.866L566.714 57.4719L562.871 56.2992L561.949 53.7864L562.256 50.9386L558.875 49.431L551.035 47.5882L548.422 39.0447L556.262 36.0294L568.405 36.6994L575.322 35.6943L576.706 37.7046L580.549 38.3746L588.234 43.2327Z" fill="#3EA0FE" fill-opacity="0.35" stroke="#636F97" stroke-width="0.2" stroke-linecap="round" stroke-linejoin="round"/>
<path d="M444.719 108.991L442.422 109.189L440.617 108.198L441.273 101.265L443.407 100.869L445.048 103.642L444.719 108.991Z" fill="#3EA0FE" fill-opacity="0.35" stroke="#636F97" stroke-width="0.2" stroke-linecap="round" stroke-linejoin="round"/>
<path d="M590.289 22.9782L594.014 25.2795L595.503 30.4132L598.632 36.7861L591.779 40.8577L587.756 42.6279L580.306 37.4942L576.581 36.7861L575.24 34.6618L568.536 35.724L556.766 35.0159L549.167 38.2023L548.422 30.2362L550.955 23.5093L557.063 19.9688L563.619 27.9349L569.132 27.5809L569.281 19.4377L574.942 17.6675L578.071 18.9066L584.627 22.8012L590.289 22.9782Z" fill="#3EA0FE" fill-opacity="0.35" stroke="#636F97" stroke-width="0.2" stroke-linecap="round" stroke-linejoin="round"/>
<path d="M615.864 152.176L613.914 147.015L614.214 142.21L613.313 137.404L608.212 130.642L605.211 126.014L602.51 122.811L600.109 121.565L601.76 119.963L606.561 118.896L612.563 122.277L615.564 122.811L619.465 125.836L619.315 129.574L622.316 131.353L623.967 135.981L626.968 138.828L626.668 140.608L628.168 141.676L626.218 142.566L621.716 142.21L620.816 140.608L619.315 141.498L620.216 143.455L618.565 147.193L617.665 150.93L615.864 152.176Z" fill="#3EA0FE" fill-opacity="0.35" stroke="#636F97" stroke-width="0.2" stroke-linecap="round" stroke-linejoin="round"/>
<path d="M95.5375 285.192L97.391 285.012L94.695 290.14L93.1785 294.279L91.662 302.016L90.7353 304.805L91.0723 307.953L92.1675 310.832L92.5045 315.241L95.032 319.559L95.706 322.888L97.1383 325.676L101.941 327.206L103.541 329.635L107.922 328.016L111.545 327.476L115.252 326.396L118.285 325.407L121.571 323.068L123.087 319.739L124.098 314.881L125.109 313.171L128.479 311.642L133.619 310.292L137.747 310.562L140.611 310.023L141.622 311.282L141.117 314.071L138.168 317.49L136.652 320.998L137.41 321.988L136.399 324.507L134.63 329.005L133.619 327.476L132.692 327.566L131.765 327.656L129.659 331.164L128.901 330.445L128.311 330.715L128.227 331.614L123.846 331.524H119.465L119.043 334.763L116.937 334.853L118.454 336.742L120.054 338.092L120.476 339.351L121.15 339.711L120.812 341.69H114.747L111.966 346.368L112.556 347.448L111.882 348.798L111.545 350.507L106.827 344.299L104.637 342.41L100.93 340.881L98.2335 341.33L94.1895 343.49L91.7462 344.029L88.629 342.5L85.1748 341.42L81.1308 338.811L77.6765 338.002L72.7058 335.303L69.083 332.514L68.1562 330.984L65.5445 330.625L60.995 328.825L59.3943 326.216L54.8448 322.888L52.9912 319.289L52.3173 316.41L53.918 315.87L53.6653 314.251L55.0133 312.722L55.3503 310.742L54.0865 308.133V305.884L52.9912 302.915L49.7898 297.158L45.9143 292.659L44.3135 289.061L40.8593 286.722L40.2695 285.282L41.7018 281.774L39.6798 280.424L37.5735 277.545L37.405 273.587L35.046 273.047L33.1083 270.078L31.676 267.199L31.9287 265.4L30.665 261.082L30.4123 256.673L31.0862 254.424L28.4745 252.085L26.8737 252.355L24.8518 250.826L23.3353 253.165L23.251 255.864L22.4085 260.272L23.251 262.611L25.61 266.57L25.947 268.009L26.5368 268.369L26.621 270.348L27.4635 270.258V274.037L28.5587 275.476L28.98 277.545L31.2548 280.424L31.5918 285.822L32.4343 288.341L33.1925 291.04L32.9398 294.099L35.1303 294.279L36.4783 296.888L37.742 299.497L37.4893 300.576L35.1303 302.645H34.2878L33.698 299.137L31.2548 295.808L28.3903 293.019L26.284 291.58L27.295 287.351L27.2108 284.203L25.4415 282.403L22.8298 279.884L22.0715 280.604L21.229 279.075L18.7015 277.725L16.848 274.306L17.2693 273.947L19.0385 274.217L21.3133 272.057L22.1558 269.448L19.7125 265.31L17.522 263.781L16.848 260.182L16.3425 256.313L15.6685 251.725L15.5 246.507L20.8078 246.057L26.7895 245.428L26.0312 246.597L31.9287 249.386L41.112 253.435H50.211H53.8337L54.5078 251.006H62.4273L63.5225 253.075L65.2918 254.964L67.3137 257.483L67.9878 260.452L68.3248 263.691L70.2625 265.4L73.6325 267.109L77.6765 262.611L81.4678 262.431L84.1637 264.77L85.5117 268.729L86.27 272.147L88.292 275.386L88.4605 279.434L89.2188 282.133L92.5045 283.933L95.5375 285.192Z" fill="#3EA0FE" fill-opacity="0.35" stroke="#636F97" stroke-width="0.2" stroke-linecap="round" stroke-linejoin="round"/>
<path d="M579.432 197.996L577.967 198.35L576.794 200.298L572.691 200.121L570.053 202.599L565.07 203.484L561.7 200.829L560.234 196.049L560.967 192.154L561.993 192.331L562.139 190.03L566.389 188.26L568.148 187.729L570.639 187.198L574.157 186.844L578.26 190.561L579.432 197.996Z" fill="#3EA0FE" fill-opacity="0.35" stroke="#636F97" stroke-width="0.2" stroke-linecap="round" stroke-linejoin="round"/>
<path d="M556.662 181.297L555.418 183.885L553.242 184.995L552.62 182.776L549.666 188.508L550.444 192.39L548.734 191.466L546.091 187.583L542.516 185.179L543.293 183.331L543.915 176.859L546.402 174.086L547.801 172.977L549.977 175.01L551.376 176.674L554.019 177.969L557.283 180.372L556.662 181.297Z" fill="#3EA0FE" fill-opacity="0.35" stroke="#636F97" stroke-width="0.2" stroke-linecap="round" stroke-linejoin="round"/>
<path d="M154.762 347.808L154.341 348.438L153.92 349.698L154.257 351.767L152.993 353.746L152.319 356.085L151.898 358.604L152.066 360.133L151.982 362.742L151.224 363.282L150.634 365.801L150.802 367.331L149.791 368.77L149.876 370.299L150.55 371.289L149.37 372.549L147.938 372.099L147.264 370.929L145.747 370.479L144.652 371.199L141.619 369.67L140.861 370.389L139.344 368.59L137.238 366.251L136.311 364.362L134.458 362.473L132.352 359.864L132.941 358.964L133.615 359.864L134.037 359.504L135.553 359.234L136.227 357.884H136.901L137.07 355.005L138.165 354.915H139.176L140.355 353.386L141.619 354.556L142.125 353.836L143.136 353.116L144.905 351.587L145.073 350.327L145.495 350.417L146.253 349.068L146.758 348.888L147.517 349.787L148.443 349.967L149.539 349.248H150.718L152.403 348.528L153.161 347.718L154.762 347.808Z" fill="#3EA0FE" fill-opacity="0.35" stroke="#636F97" stroke-width="0.2" stroke-linecap="round" stroke-linejoin="round"/>
<path d="M179.784 384.424L179.194 385.234L180.121 388.652L179.194 390.362L177.677 389.912L176.919 392.701L175.403 391.081L174.56 387.933L175.74 386.403L174.56 386.043L173.802 384.154L171.443 382.535L169.421 382.894L168.326 384.874L166.304 386.313L165.293 386.493L164.787 387.753L166.893 390.901L165.545 391.621L164.871 392.431L162.597 392.791L161.923 389.282L161.249 390.272L159.732 389.912L158.89 387.663L156.952 387.213L155.688 386.583H153.666L153.498 387.843L152.992 386.943L153.245 385.773L153.75 384.604L153.582 383.614L154.34 382.894L153.413 382.085L153.498 379.746L155.351 379.206L156.952 381.275L156.783 382.535L158.637 382.805L159.142 382.265L160.406 383.704L162.765 383.254L164.871 381.815L167.82 380.645L169.505 378.936L172.117 379.296L171.948 379.836L174.56 380.016L176.582 381.095L178.099 382.805L179.784 384.424Z" fill="#3EA0FE" fill-opacity="0.35" stroke="#636F97" stroke-width="0.2" stroke-linecap="round" stroke-linejoin="round"/>
<path d="M541.016 55.3054L550.06 56.5255L563.548 56.3512L567.38 57.5713L569.526 60.8831L570.446 65.5893L573.052 69.5983L573.664 73.7817L569.373 76.0476L572.285 80.9282L573.052 85.8087L577.956 95.2211L577.496 98.1843L573.971 99.4045L568.147 108.468L570.599 113.349L568.913 112.652L561.249 108.468L555.884 110.037L552.206 108.991L547.914 111.257L543.775 107.422L540.863 108.991L540.403 108.294L536.418 102.891L530.747 102.368L529.674 98.8815L524.462 97.6614L523.543 100.45L519.251 98.1843L519.557 95.2211L513.886 94.3496L510.054 90.8635L506.376 84.0656L506.682 80.2309L504.383 74.4789L501.471 70.8185L503.31 67.8553L501.164 62.4518L505.916 59.3144L516.798 54.4338L525.689 50.9478L533.046 52.6908L533.966 55.3054H541.016Z" fill="#3EA0FE" fill-opacity="0.35" stroke="#636F97" stroke-width="0.2" stroke-linecap="round" stroke-linejoin="round"/>
<path d="M600.763 121.669L603.199 122.891L605.939 126.033L608.984 130.571L614.16 137.204L615.074 141.917L614.769 146.629L616.749 151.691L620.402 153.786L623.904 151.866L627.558 153.786L628.167 156.753L624.665 159.022L622.229 157.975L621.62 171.415L616.901 170.193L610.811 166.179L601.828 168.797L598.327 171.59L586.756 170.892L580.666 169.321L577.774 170.019L575.033 165.481L573.511 163.561L575.033 161.641L573.054 160.419L570.77 162.862L566.051 159.546L564.985 155.008L560.113 152.564L558.895 148.899L554.328 144.709L560.266 142.615L564.224 135.109L567.117 127.778L571.532 125.509L574.577 123.065L579.449 124.287H584.32L588.126 127.08L590.562 125.334L596.043 124.287L597.566 121.669H600.763Z" fill="#3EA0FE" fill-opacity="0.35" stroke="#636F97" stroke-width="0.2" stroke-linecap="round" stroke-linejoin="round"/>
<path d="M131.934 357.164L131.344 358.514L128.564 358.424L126.879 357.884L125.026 356.715L122.498 356.355L121.234 355.095L121.487 354.285L123.172 352.846L124.183 352.216L123.93 351.497L125.11 351.137L126.458 351.676L127.385 352.756L128.733 353.746L128.817 354.465L130.923 353.836L131.934 354.196L132.524 354.825L131.934 357.164Z" fill="#3EA0FE" fill-opacity="0.35" stroke="#636F97" stroke-width="0.2" stroke-linecap="round" stroke-linejoin="round"/>
<path d="M574.244 165.685L572.541 168.19L573.625 172.484L577.958 177.315L575.172 180.894L574.244 184.473L575.172 185.904L574.089 187.335L570.374 187.693L567.743 188.23L567.279 187.335L568.208 186.083L568.827 183.22L567.743 183.399L566.041 181.252L564.648 180.715L563.41 178.926L561.862 178.21L560.624 176.6L559.231 177.315L558.457 181.073L556.6 181.789L557.219 180.894L553.969 178.568L551.337 177.315L549.945 175.705L547.778 173.737L549.48 173.2L550.254 168.011L546.075 163.538L547.778 158.528L544.837 158.707L547.468 154.413L544.837 151.192L542.516 146.719L548.242 143.856L553.195 144.393L557.838 148.687L559.076 152.444L564.029 154.949L565.112 159.602L569.91 163.001L572.232 160.496L574.244 161.749L572.696 163.717L574.244 165.685Z" fill="#3EA0FE" fill-opacity="0.35" stroke="#636F97" stroke-width="0.2" stroke-linecap="round" stroke-linejoin="round"/>
<path d="M569.1 112.956L567.251 115.877L566.173 120.172L564.632 121.203L556.159 117.939L553.695 118.626L552.154 121.203L548.611 122.577L547.687 121.89L544.143 123.436L541.216 123.78L540.754 126.013L534.438 127.216L531.511 126.185L527.352 123.264L526.273 119.657L526.735 118.282L527.66 115.877L531.049 116.049L533.514 115.018L533.668 113.987L535.054 113.472L535.362 111.067L537.057 110.551L538.135 108.661H540.446L540.908 109.348L543.835 107.802L547.995 111.582L552.308 109.348L556.005 110.379L561.397 108.833L569.1 112.956Z" fill="#3EA0FE" fill-opacity="0.35" stroke="#636F97" stroke-width="0.2" stroke-linecap="round" stroke-linejoin="round"/>
<path d="M524.792 140.736L519.153 143.683L518.72 148.016L516.262 149.23L516.406 152.176L513.515 152.003L510.912 150.27L509.756 152.003L504.551 151.656L506.141 150.79L504.117 146.11L504.696 140.736L510.768 141.603L514.238 139.003L520.599 138.83L521.9 136.923L523.057 137.096L524.792 140.736Z" fill="#3EA0FE" fill-opacity="0.35" stroke="#636F97" stroke-width="0.2" stroke-linecap="round" stroke-linejoin="round"/>
<path d="M605.118 203.021L606.856 201.789L608.448 194.745L604.539 191.752L611.778 188.23L618.438 189.639L619.741 194.041L626.691 197.563L625.677 200.38L616.701 200.908L613.805 204.43L608.159 210.417L605.263 205.31L605.118 203.021Z" fill="#3EA0FE" fill-opacity="0.35" stroke="#636F97" stroke-width="0.2" stroke-linecap="round" stroke-linejoin="round"/>
<path d="M658.463 89.5747L661.944 94.3111L662.096 96.4162L672.235 100.276L677.683 98.5213L683.131 103.609L687.52 103.433L699.173 106.942L699.778 110.275L697.811 115.888L700.535 122.028L700.081 125.712L692.817 126.414L689.487 129.571L690.093 134.308L684.191 135.185L679.65 138.869L672.689 139.395L666.636 143.605L668.149 150.447L672.386 153.078L680.105 152.377L679.197 156.411L671.024 158.341L661.49 164.656L656.799 162.376L657.858 157.289L648.929 153.956L649.989 151.85L656.95 148.167L654.377 145.711L642.119 142.904L640.908 138.694L634.098 140.097L632.131 146.237L627.137 154.306L623.505 152.377L620.024 154.306L616.392 152.201L618.208 150.973L619.116 147.289L620.781 143.605L619.873 141.676L621.386 140.799L622.294 142.377L626.834 142.728L628.802 141.851L627.288 140.799L627.591 139.044L624.564 136.238L622.899 131.677L619.873 129.922L620.024 126.238L616.089 123.256L613.063 122.73L607.009 119.397L602.166 120.449L600.502 122.028H597.324L595.81 124.66L590.362 125.712L587.941 127.466L584.157 124.66H579.315L574.472 123.432L571.445 125.888L570.689 122.905L566.148 119.923L567.208 115.537L569.024 112.555L570.689 113.257L568.267 108.345L574.018 99.223L577.499 97.995L577.953 95.0128L573.11 85.5399L576.591 85.0136L580.223 82.2068L585.974 81.8559L593.389 82.7331L602.015 85.3644L607.917 85.5399L610.793 87.1187L613.365 85.189L615.635 87.8204L622.143 87.2941L625.321 88.3467L624.867 82.9085L626.834 80.4525L633.039 79.9263L635.763 80.2771L637.276 77.8212L639.546 78.3475L646.962 77.2949L652.713 83.4348L651.351 85.7153L652.561 89.0484L658.463 89.5747Z" fill="#4AA7F0" stroke="#636F97" stroke-width="0.2" stroke-linecap="round" stroke-linejoin="round"/>
<path d="M568.026 187.636L566.193 188.185L561.763 190.013L561.61 192.39L560.541 192.207L559.624 188.002L557.638 186.722L555.805 183.613L557.027 181.053L558.86 180.322L559.624 176.481L560.999 175.75L562.221 177.396L563.749 178.127L564.971 179.956L566.346 180.504L568.026 182.699L569.096 182.516L568.485 185.442L567.568 186.722L568.026 187.636Z" fill="#3EA0FE" fill-opacity="0.35" stroke="#636F97" stroke-width="0.2" stroke-linecap="round" stroke-linejoin="round"/>
<path d="M444.844 93.9354L440.455 91.3198L435.595 86.6117L428.541 88.8786L422.898 88.0067L426.817 85.0424L433.087 69.3487L443.276 64.8149L449.546 65.1637L450.957 68.8256L449.546 78.5905L447.665 82.6011H443.12L444.844 93.9354Z" fill="#4AA7F0" stroke="#636F97" stroke-width="0.2" stroke-linecap="round" stroke-linejoin="round"/>
<path d="M338.223 245.045L334.955 247.858L330.795 246.276L326.785 247.507L328.121 238.715L327.676 231.857L324.111 230.802L322.477 226.582L323.219 219.197L326.487 215.153L327.23 210.581L329.013 203.9V199.152L327.676 195.108L327.379 191.24L330.201 188.426L333.469 186.844L335.252 192.295H339.709L341.045 190.888L345.651 191.24L347.582 196.866L344.016 199.855L343.571 208.647L342.382 210.23L341.937 215.681L338.52 216.56L341.491 223.241L339.114 230.626L341.788 233.967L340.6 236.956L337.629 241.176L338.223 245.045Z" fill="#3EA0FE" fill-opacity="0.35" stroke="#636F97" stroke-width="0.2" stroke-linecap="round" stroke-linejoin="round"/>
<path d="M563.191 56.3113L549.93 56.4944L541.039 55.2124L542.094 50.4506L551.587 46.7876L559.273 48.8022L562.588 50.4506L562.287 53.5641L563.191 56.3113Z" fill="#3EA0FE" fill-opacity="0.35" stroke="#636F97" stroke-width="0.2" stroke-linecap="round" stroke-linejoin="round"/>
<path d="M384.062 175.223L387.108 179.374L401.576 184.391L404.469 181.969L413.302 186.986L422.288 185.602L422.897 192.002L415.435 199.268L405.383 201.69L404.622 205.322L399.748 211.377L396.703 220.372L399.748 226.773L395.18 231.617L393.352 238.882L387.26 241.131L381.626 249.607L371.27 249.78L363.655 249.607L358.477 253.413L355.279 257.565L351.319 256.7L348.426 252.894L346.294 246.666L338.831 244.937L338.222 241.131L341.268 236.979L342.486 234.038L339.745 230.752L342.182 223.486L339.136 216.913L342.639 216.048L343.096 210.685L344.314 209.128L344.771 200.479L348.426 197.538L346.446 192.002L341.725 191.656L340.354 193.04H335.786L333.958 187.678L330.608 189.235L327.714 192.002L328.476 184.218L325.43 179.547L336.699 171.59L346.142 173.493H356.65L364.873 175.396L371.422 174.704L384.062 175.223Z" fill="#3EA0FE" fill-opacity="0.35" stroke="#636F97" stroke-width="0.2" stroke-linecap="round" stroke-linejoin="round"/>
<path d="M473.11 188.634L470.98 196.55L467.573 194.45L465.727 187.665L467.005 183.787L471.548 179.91L473.11 188.634Z" fill="#3EA0FE" fill-opacity="0.35" stroke="#636F97" stroke-width="0.2" stroke-linecap="round" stroke-linejoin="round"/>
<path d="M441.382 107.504L443.058 108.382L445.191 108.206L448.848 111.015L459.818 113.121L456.162 120.493L455.552 128.392L453.572 130.323L450.067 129.27L450.372 132.078L444.887 138.222V143.312L448.543 141.557L451.286 146.296L451.134 149.456L453.419 153.668L450.829 157.004L453.114 165.605L457.381 167.009L456.619 171.748L449.762 178.067L434.221 175.083L422.946 178.769L422.032 185.439L413.042 186.844L404.205 181.753L401.31 184.211L386.835 179.12L383.788 174.908L387.902 168.238L389.426 146.121L381.655 134.536L376.017 128.919L364.438 124.706L363.828 116.632L373.732 114.35L386.378 117.158L384.093 104.695L391.254 109.435L408.624 101.009L410.909 92.0573L417.308 89.7754L418.527 93.6371L421.879 93.8126L425.536 98.2009L430.869 103.291L434.678 102.414L441.382 107.504Z" fill="#3EA0FE" fill-opacity="0.35" stroke="#636F97" stroke-width="0.2" stroke-linecap="round" stroke-linejoin="round"/>
<path d="M171.528 157.982L166.388 159.781L162.429 162.031L158.553 164.46L158.132 165.269L162.934 164.1L164.703 165.989L168.579 164.64L172.707 162.75L177.257 160.861L174.645 163.83L176.751 164.55L178.857 166.709L183.154 165.449L187.451 164.999L187.704 166.619L188.967 166.799L189.978 166.979L191.242 169.228L187.282 169.768H187.198L184.081 169.138L180.29 170.217L177.172 170.757L173.213 174.446L170.685 176.515L171.022 177.145L175.656 173.456H176.245L172.286 177.864L169.842 181.823L167.736 185.062L167.231 187.85L166.557 189.2L166.051 190.729L166.135 193.698L166.388 194.148L167.905 194.058L169.253 193.428L170.432 192.709L173.213 189.92L174.729 186.141L174.645 182.633L175.824 180.203L178.015 177.415L179.784 175.435L182.059 174.086L181.722 175.975L183.575 173.186L184.67 172.646L186.103 170.487L189.304 171.657L191.663 173.816L190.989 176.425L189.641 179.034L186.44 181.283L186.103 182.722H186.945L190.568 180.293L191.916 180.833L191.495 184.162L190.905 186.501L187.788 189.65L186.103 191.629L183.828 193.788L186.103 194.958L188.209 195.318L191.579 194.508L194.696 192.978L197.224 192.169L201.099 190.549L205.986 187.131L206.07 186.591L206.323 184.882L208.598 184.162L211.883 184.432L215.253 184.882L219.129 182.992L219.634 180.743L219.466 179.934L225.195 175.975L227.47 174.985L234.041 174.896H241.876L242.803 173.546L244.235 173.276L246.341 172.377L248.7 169.768L251.396 165.359L256.03 161.131L256.957 162.57L260.074 161.671L261.422 163.29L258.979 170.937L260.833 174.176L261.001 176.065L255.609 178.764L250.554 180.743L245.499 182.453L242.129 185.871L241.034 187.131L240.023 190.19L240.613 193.158L242.382 193.338L242.55 191.269L243.477 192.529L242.635 194.148L239.433 195.048L237.327 194.958L233.788 195.947L231.85 196.217L229.239 196.487L225.026 198.196L231.85 197.117L232.777 198.196L226.121 199.906H223.341L223.678 199.186L221.909 200.805L223.089 201.075L220.982 205.214L216.517 209.622L216.601 208.093L215.675 207.823L214.664 206.383V209.532L215.506 210.522L215 212.681L212.979 214.93L209.187 219.518L208.85 219.338L211.294 215.38L209.609 213.221L210.451 208.363L208.85 210.882V214.57L206.154 213.67L208.682 215.47L207.418 220.958L208.598 221.407V223.387L207.755 229.144L203.88 233.373L198.74 235.082L195.033 238.501L192.674 238.861L189.81 241.02L188.715 242.909L182.901 246.688L179.7 249.477L176.751 252.895L175.15 256.944V260.992L175.656 265.94L176.92 269.989L176.498 272.508L177.594 279.165L176.751 283.123L176.245 285.373L174.56 288.881L173.044 289.601L170.854 288.881L170.516 286.362L169 285.013L167.315 280.065L165.967 275.656L165.63 273.407L167.315 269.539L166.641 266.39L164.029 261.532L162.429 260.632L157.289 263.331L156.531 262.971L154.846 260.272L152.319 258.833L146.926 259.643L143.051 258.923L139.428 259.373L137.322 260.272L137.827 261.802L137.238 264.141L137.912 265.31L136.901 266.03L135.384 265.22L133.446 266.3L130.161 266.12L127.381 263.061L123.252 263.781L120.219 262.431L117.271 262.881L113.058 264.231L107.919 268.459L102.779 270.978L99.6623 273.677L98.0615 276.286L97.219 280.334L96.882 283.033L97.3875 285.013L95.534 285.193L92.501 283.933L89.2152 282.134L88.457 279.435L88.2885 275.386L86.2665 272.148L85.5082 268.729L84.1602 264.771L81.4643 262.431L77.673 262.611L73.629 267.11L70.259 265.4L68.3213 263.691L67.9843 260.452L67.3102 257.483L65.2882 254.964L63.519 253.075L62.4238 251.006H54.5043L53.8302 253.435H50.2075H41.1085L31.9252 249.387L26.0277 246.598L26.786 245.428L20.8043 246.058L15.4965 246.508L15.7493 243.629L13.98 240.3L12.1265 239.58L12.2107 237.961L9.7675 237.601L8.75649 236.072L4.7125 235.532L3.95426 234.542L4.62824 231.394L2.52199 225.636L2.10074 217.629L2.85899 216.279L1.76375 214.39L0.5 209.532L2.01649 204.854L1.25824 201.705L4.54399 196.937L6.90301 192.079L7.82976 187.671L12.4635 182.273L15.8335 177.145L19.2035 172.017L22.8263 164.37L24.3427 159.601L24.6798 156.992L25.8593 155.823L30.7457 157.802L29.9032 163.11L31.7568 161.581L33.863 156.992L35.211 152.404H47.0902H59.475H63.519H76.2407H88.6255H101.094H113.648H127.802H142.124H150.718L151.813 150.245H153.245L152.487 153.304L153.33 154.204L156.11 154.563L159.985 155.463L163.271 157.172L166.978 156.453L171.528 157.982Z" fill="#4AA7F0" stroke="#636F97" stroke-width="0.2" stroke-linecap="round" stroke-linejoin="round"/>
</svg>
