<svg width="326" height="184" viewBox="0 0 326 184" fill="none" xmlns="http://www.w3.org/2000/svg">
<path fill-rule="evenodd" clip-rule="evenodd" d="M326 177C326 173.136 322.761 170 318.771 170H9.22803C5.23844 170 2 173.136 2 177C2 180.864 5.23844 184 9.22803 184H318.771C322.761 184 326 180.864 326 177Z" fill="url(#paint0_radial_4129_25101)"/>
<path fill-rule="evenodd" clip-rule="evenodd" d="M325.966 134.156C325.966 109.953 306.317 90.3047 282.115 90.3047H44.1796C19.9777 90.3047 0.328125 109.953 0.328125 134.156C0.328125 158.358 19.9777 178.008 44.1796 178.008H282.115C306.317 178.008 325.966 158.358 325.966 134.156Z" fill="url(#paint1_linear_4129_25101)"/>
<path fill-rule="evenodd" clip-rule="evenodd" d="M1.32448 124.844C1.01102 124.035 1.07436 123.154 1.57134 122.236L41.1595 10.6072C42.3492 8.40896 45.4334 0.164062 55.1757 0.164062H266.639C276.179 0.164062 279.578 8.40896 280.908 10.6072L319.652 111.479C311.965 98.7902 298.025 90.3033 282.119 90.3033H44.1836C23.1755 90.3033 5.59837 105.108 1.32448 124.844Z" fill="url(#paint2_linear_4129_25101)"/>
<path fill-rule="evenodd" clip-rule="evenodd" d="M1.32448 124.844C1.01102 124.035 1.07436 123.154 1.57134 122.236L41.1595 10.6072C42.3492 8.40896 45.4334 0.164062 55.1757 0.164062H266.639C276.179 0.164062 279.578 8.40896 280.908 10.6072L319.652 111.479C311.965 98.7902 298.025 90.3033 282.119 90.3033H44.1836C23.1755 90.3033 5.59837 105.108 1.32448 124.844Z" fill="url(#paint3_linear_4129_25101)"/>
<path fill-rule="evenodd" clip-rule="evenodd" d="M1.32448 124.844C1.01102 124.035 1.07436 123.154 1.57134 122.236L41.1595 10.6072C42.3492 8.40896 45.4334 0.164062 55.1757 0.164062H266.639C276.179 0.164062 279.578 8.40896 280.908 10.6072L319.652 111.479C311.965 98.7902 298.025 90.3033 282.119 90.3033H44.1836C23.1755 90.3033 5.59837 105.108 1.32448 124.844Z" fill="url(#paint4_linear_4129_25101)"/>
<path fill-rule="evenodd" clip-rule="evenodd" d="M314.603 133.748C314.603 115.147 299.503 100.047 280.903 100.047H45.4038C26.8043 100.047 11.7031 115.147 11.7031 133.748C11.7031 152.347 26.8043 167.448 45.4038 167.448H280.903C299.503 167.448 314.603 152.347 314.603 133.748Z" fill="url(#paint5_linear_4129_25101)"/>
<path fill-rule="evenodd" clip-rule="evenodd" d="M291.053 138.214C291.053 133.284 287.05 129.281 282.12 129.281C277.19 129.281 273.188 133.284 273.188 138.214C273.188 143.144 277.19 147.147 282.12 147.147C287.05 147.147 291.053 143.144 291.053 138.214Z" fill="#3FB036"/>
<path fill-rule="evenodd" clip-rule="evenodd" d="M287.799 138.622C287.799 135.708 285.434 133.344 282.521 133.344C279.608 133.344 277.242 135.708 277.242 138.622C277.242 141.535 279.608 143.901 282.521 143.901C285.434 143.901 287.799 141.535 287.799 138.622Z" fill="#63FF56" fill-opacity="0.5"/>
<path d="M71.1144 141.72C71.1144 127.117 48.6527 131.281 48.6527 125.065C48.6527 122.719 50.6463 121.135 54.2235 121.135C57.0974 121.135 60.1475 121.839 62.8452 123.364C63.5484 123.775 64.2525 123.95 64.9565 123.95C66.9501 123.95 69.12 122.426 69.12 120.197C69.12 119.493 68.8853 118.789 68.4167 118.203C66.2469 115.329 59.4434 113.863 54.986 113.863C45.7788 113.863 40.1488 119.259 40.1488 125.768C40.1488 140.489 62.6689 135.739 62.6689 142.659C62.6689 144.887 60.4406 146.999 55.8663 146.999C52.0536 146.999 48.7112 145.767 46.072 143.949C45.4264 143.48 44.6054 143.304 43.8428 143.304C41.8492 143.304 39.9141 144.946 39.9141 147.175C39.9141 147.878 40.1487 148.582 40.5588 149.169C42.7287 152.394 49.7668 154.271 55.4554 154.271C66.0122 154.271 71.1144 148.875 71.1144 141.72ZM106.303 141.72C106.303 127.117 83.8411 131.281 83.8411 125.065C83.8411 122.719 85.8347 121.135 89.4119 121.135C92.2858 121.135 95.3359 121.839 98.0335 123.364C98.7368 123.775 99.4409 123.95 100.145 123.95C102.139 123.95 104.308 122.426 104.308 120.197C104.308 119.493 104.074 118.789 103.605 118.203C101.435 115.329 94.6318 113.863 90.1744 113.863C80.9672 113.863 75.3372 119.259 75.3372 125.768C75.3372 140.489 97.8573 135.739 97.8573 142.659C97.8573 144.887 95.629 146.999 91.0547 146.999C87.242 146.999 83.8996 145.767 81.2603 143.949C80.6148 143.48 79.7938 143.304 79.0312 143.304C77.0376 143.304 75.1025 144.946 75.1025 147.175C75.1025 147.878 75.3371 148.582 75.7472 149.169C77.9171 152.394 84.9552 154.271 90.6438 154.271C101.201 154.271 106.303 148.875 106.303 141.72ZM148.118 134.037C148.118 122.249 139.615 114.45 127.357 114.45H116.624C114.044 114.45 111.933 116.561 111.933 119.141V148.875C111.933 151.456 114.044 153.568 116.624 153.568H127.357C139.615 153.568 148.118 145.826 148.118 134.037ZM139.615 134.037C139.615 140.665 135.099 146.236 127.357 146.236H120.261V121.78H127.357C135.392 121.78 139.615 127.117 139.615 134.037Z" fill="white"/>
<defs>
<radialGradient id="paint0_radial_4129_25101" cx="0" cy="0" r="1" gradientUnits="userSpaceOnUse" gradientTransform="translate(158.797 174.419) rotate(180) scale(156.812 14.5074)">
<stop stop-color="#1491F3"/>
<stop offset="1" stop-color="#005BBB" stop-opacity="0"/>
</radialGradient>
<linearGradient id="paint1_linear_4129_25101" x1="10.9865" y1="149.257" x2="10.9865" y2="69.9746" gradientUnits="userSpaceOnUse">
<stop stop-color="#CCE6FF"/>
<stop offset="1" stop-color="#FEFEFF"/>
</linearGradient>
<linearGradient id="paint2_linear_4129_25101" x1="7.85835" y1="144.924" x2="318.018" y2="144.924" gradientUnits="userSpaceOnUse">
<stop stop-color="#D1EBFF"/>
<stop offset="0.11" stop-color="#DEF0FF"/>
<stop offset="0.23" stop-color="#E6F3FF"/>
<stop offset="0.31" stop-color="#CCE6FF"/>
<stop offset="0.51" stop-color="#CCE6FF"/>
<stop offset="0.67" stop-color="#9DD1FF"/>
<stop offset="0.89" stop-color="#7BCAFF"/>
<stop offset="1" stop-color="#4AA7F0"/>
</linearGradient>
<linearGradient id="paint3_linear_4129_25101" x1="-5.57584" y1="127.153" x2="41.6201" y2="144.924" gradientUnits="userSpaceOnUse">
<stop stop-color="#CEEAFF"/>
<stop offset="1" stop-color="#DEF0FF" stop-opacity="0"/>
</linearGradient>
<linearGradient id="paint4_linear_4129_25101" x1="329.489" y1="129.142" x2="291.789" y2="139.883" gradientUnits="userSpaceOnUse">
<stop stop-color="#D0E4FC"/>
<stop offset="1" stop-color="#DEF0FF" stop-opacity="0"/>
</linearGradient>
<linearGradient id="paint5_linear_4129_25101" x1="240.682" y1="105.76" x2="240.682" y2="240.552" gradientUnits="userSpaceOnUse">
<stop stop-color="#AFDCFF"/>
<stop offset="1" stop-color="#4AA7F0"/>
</linearGradient>
</defs>
</svg>
