<svg width="60" height="46" viewBox="0 0 60 46" fill="none" xmlns="http://www.w3.org/2000/svg">
<path d="M56 0.333496H4C1.794 0.333496 0 2.16827 0 4.42441V41.2426C0 43.4987 1.794 45.3335 4 45.3335H56C58.206 45.3335 60 43.4987 60 41.2426V4.42441C60 2.16827 58.206 0.333496 56 0.333496ZM36 28.9699H34.882L33.992 36.2558C33.9618 36.5031 33.8443 36.7306 33.6616 36.8956C33.479 37.0605 33.2437 37.1516 33 37.1517H25.146C24.8602 37.1517 24.5778 37.0891 24.3176 36.9681C24.0575 36.8471 23.8258 36.6704 23.638 36.4501C23.3329 36.0731 23.1722 35.5954 23.186 35.1062H18.18C17.8897 35.1061 17.6029 35.0413 17.3395 34.9164C17.0761 34.7915 16.8425 34.6094 16.6548 34.3829C16.4672 34.1563 16.33 33.8907 16.2529 33.6044C16.1757 33.3182 16.1604 33.0182 16.208 32.7253L19.874 10.2253C19.9509 9.74734 20.1914 9.31291 20.5527 8.99964C20.914 8.68638 21.3724 8.51471 21.846 8.51531H33C35.808 8.51531 38.218 10.2253 39.332 12.6717C43.058 12.9989 46 16.149 46 20.021C46 25.2062 41.794 28.9699 36 28.9699Z" fill="#DBDFEA"/>
<path d="M38.6362 13.0288H27.8762C26.8802 13.0288 26.0302 13.7694 25.8962 14.7509L24.6502 23.8454C24.6305 23.9862 24.6413 24.1295 24.682 24.2657C24.7228 24.4019 24.7924 24.5278 24.8863 24.6348C24.9802 24.7419 25.0961 24.8276 25.2262 24.8862C25.3563 24.9447 25.4975 24.9748 25.6402 24.9743H31.0042C35.9662 24.9743 40.0042 20.9546 40.0042 16.0152C40.0042 15.2546 39.8642 14.4941 39.5802 13.6918C39.5111 13.4976 39.3832 13.3296 39.2141 13.2109C39.0451 13.0921 38.8431 13.0285 38.6362 13.0288V13.0288Z" fill="#DBDFEA"/>
</svg>
