<svg width="60" height="45" viewBox="0 0 60 45" fill="none" xmlns="http://www.w3.org/2000/svg">
<path fill-rule="evenodd" clip-rule="evenodd" d="M5 0C2.23858 0 0 2.23858 0 5V40C0 42.7614 2.23858 45 5 45H55C57.7614 45 60 42.7614 60 40V5C60 2.23858 57.7614 0 55 0H5ZM26.1705 31.4691H22.7855L22.1479 33.3579H20.1309L23.3979 24.1853H25.6073L28.8399 33.3567H26.7588L26.1705 31.4691ZM24.498 26.2561H24.4717L23.2961 29.8825H25.6336L24.498 26.2561ZM18.1574 28.4184C19.2815 28.8385 19.5746 29.7326 19.5746 30.6403C19.5746 31.3649 19.2678 32.0575 18.7836 32.528C18.2605 33.042 17.7625 33.3613 15.884 33.3613H12V24.1876H16.4575C18.7069 24.1876 19.2815 25.5944 19.2815 26.54C19.2815 27.8564 18.541 28.2266 18.1584 28.4179L18.1574 28.4184ZM16.0386 25.7741H13.8407V27.7797H16.0878C16.8444 27.7797 17.4431 27.4866 17.4431 26.7563C17.4431 26.0031 16.9063 25.7741 16.0386 25.7741ZM13.8407 31.7759H16.1897C17.1215 31.7759 17.6583 31.3649 17.6595 30.4343C17.6595 29.633 16.9715 29.3228 16.2801 29.3228H13.8407V31.7759ZM47.548 33.3567L43.5885 27.9434L47.3317 24.1853H44.8545L41.3528 27.9148V24.1853H39.4366V33.3567H41.3528V30.2534L42.2469 29.3331L45.0823 33.3567H47.548ZM19.5357 37.2602C19.9214 37.4296 20.1321 37.5739 20.1321 38.4507C20.1321 39.1364 20.1321 39.3081 20.3416 39.3871V39.5096H19.2552C19.19 39.2898 19.1522 39.0448 19.1522 38.5618C19.1522 37.923 19.1121 37.6735 18.3852 37.6735H17.3722V39.5107H16.4083V34.8128H18.7847C20.0348 34.8128 20.2626 35.7343 20.2626 36.1396C20.2626 36.6604 20.0004 37.1034 19.5357 37.2602ZM17.371 36.8836H18.5192C19.032 36.8836 19.2793 36.7016 19.2804 36.2391C19.2804 35.9885 19.1682 35.6244 18.5936 35.6244H17.371V36.8836ZM21.6926 15.7882C21.6965 15.9229 21.7001 16.0462 21.7038 16.1574C21.7164 16.5729 21.7198 16.811 21.7198 16.811C21.7198 16.811 21.7644 16.5763 21.84 16.1677C21.8694 16.0099 21.9044 15.8271 21.9438 15.6209C21.955 15.5624 21.9666 15.5019 21.9785 15.4396C22.0053 15.2621 22.0734 15.0777 22.1453 14.8829C22.187 14.77 22.23 14.6536 22.267 14.533C22.3746 14.2045 22.4993 13.8542 22.7054 13.5177C22.7415 13.4518 22.777 13.3849 22.8128 13.3175C22.9627 13.0349 23.117 12.7442 23.3407 12.4863C23.4655 12.3226 23.5937 12.1532 23.7208 11.9849C23.8043 11.8827 23.9026 11.7895 24.0006 11.6966C24.0596 11.6406 24.1185 11.5847 24.1741 11.527C24.4643 11.2105 24.8184 10.9544 25.1692 10.7007L25.1711 10.6994C25.3885 10.5265 25.6366 10.3902 25.8806 10.2562C26.0131 10.1834 26.1444 10.1112 26.2689 10.0343C26.4199 9.97379 26.5642 9.90767 26.7064 9.84249C26.9436 9.73376 27.1751 9.62765 27.4228 9.55465C27.8005 9.41728 28.1726 9.30167 28.5366 9.21925C28.772 9.15068 29.0084 9.10747 29.2317 9.06666C29.3439 9.04615 29.4528 9.02625 29.5565 9.00404C29.7557 8.97542 29.9389 8.95138 30.1151 8.92963C30.109 8.94544 30.1027 8.96104 30.0964 8.97659C30.0818 9.01284 30.0673 9.04881 30.0545 9.08646C29.8736 9.58212 29.7328 10.103 29.6344 10.6513C29.5897 10.9295 29.5531 11.2111 29.5245 11.4984C29.5016 11.7903 29.497 12.0925 29.5176 12.4107C29.8164 12.2962 30.0877 12.1669 30.3452 12.0261C30.5936 11.8807 30.8375 11.7296 31.0698 11.5739C31.5312 11.2568 31.9467 10.9123 32.3222 10.5437C33.0823 9.80878 33.7107 8.98801 34.2384 8.10544L34.306 7.99326C34.6299 7.44494 34.5921 6.7272 34.156 6.21322C33.5813 5.5344 32.9483 4.90137 32.2043 4.35306C31.8357 4.07603 31.4419 3.82076 31.0103 3.59182C30.5765 3.36516 30.1312 3.14881 29.5989 3C29.608 3.5529 29.7042 4.0394 29.8175 4.5156C29.9251 4.97807 30.0705 5.41192 30.2399 5.8286C29.8347 5.94765 29.3425 6.11477 28.7884 6.32998C28.6779 6.3794 28.5642 6.42729 28.4481 6.47618C28.1877 6.58583 27.9154 6.70048 27.6414 6.84854C27.2396 7.04085 26.8321 7.27437 26.4189 7.53537C26.1386 7.69344 25.8711 7.89582 25.6021 8.09937C25.4678 8.20095 25.3331 8.30283 25.1963 8.39963C25.0736 8.51635 24.9469 8.62789 24.8204 8.73936C24.5609 8.96788 24.3018 9.19604 24.0779 9.46765C23.7333 9.85456 23.3968 10.2415 23.1369 10.6811C23.0898 10.7577 23.04 10.8323 22.9905 10.9065C22.9017 11.0396 22.8137 11.1714 22.7432 11.3118C22.6457 11.5172 22.5522 11.7217 22.4608 11.9215L22.4387 11.97C22.2514 12.3188 22.1494 12.6892 22.0529 13.0398C22.0338 13.1092 22.0149 13.1777 21.9957 13.2452C21.8572 13.6504 21.8079 14.0477 21.7702 14.414C21.759 14.5454 21.742 14.6714 21.7255 14.7927C21.6963 15.0083 21.6691 15.2091 21.6809 15.3996C21.6852 15.538 21.689 15.6677 21.6926 15.7882ZM15.8222 34.8128H12.0011V35.6473H13.4206V39.513H14.3993V35.6473H15.8222V34.8128ZM20.638 39.5107L22.3128 34.8128H23.4472L25.1013 39.5107H24.0344L23.7322 38.5412H21.9991L21.6729 39.5107H20.638ZM22.8657 35.874L22.2624 37.7307H23.4609L22.8748 35.874H22.8657ZM30.1265 19.3653C30.3881 19.2456 30.6626 19.12 30.9382 18.9608C31.332 18.7582 31.7349 18.5121 32.1344 18.2385C32.4078 18.0729 32.668 17.8641 32.9302 17.6537C33.0633 17.5469 33.1969 17.4397 33.3329 17.3376C33.4506 17.2192 33.5723 17.1053 33.694 16.9914C33.9478 16.7538 34.2019 16.516 34.4193 16.2375C34.7524 15.8403 35.0752 15.4454 35.3225 14.9978C35.3668 14.9208 35.4133 14.8457 35.4595 14.7711C35.5445 14.634 35.6286 14.4983 35.6968 14.3544C35.7229 14.2933 35.749 14.2322 35.775 14.1714C35.8448 14.0081 35.9139 13.8464 35.9807 13.6871C36.1557 13.3352 36.2469 12.9635 36.3332 12.6122C36.3507 12.5406 36.3681 12.4699 36.3859 12.4004C36.5095 11.9929 36.5507 11.5934 36.5759 11.2271C36.584 11.1044 36.5965 10.986 36.6085 10.8718C36.6323 10.646 36.6545 10.436 36.6377 10.2392C36.6189 9.95725 36.6055 9.70949 36.5943 9.50312L36.5931 9.48139C36.5713 9.067 36.553 8.83119 36.553 8.83119C36.553 8.83119 36.5198 9.06586 36.45 9.47681C36.428 9.61101 36.404 9.76429 36.3774 9.93466C36.3638 10.0215 36.3495 10.1128 36.3344 10.2083C36.3126 10.3868 36.2499 10.5731 36.1836 10.7702C36.1453 10.884 36.1058 11.0014 36.0723 11.1229C35.9772 11.4549 35.8639 11.8075 35.667 12.1509C35.6345 12.215 35.6026 12.28 35.5705 12.3455C35.4284 12.6349 35.2822 12.9326 35.0638 13.2006C35.0322 13.2451 35.0005 13.2899 34.9686 13.3349C34.8799 13.4599 34.7901 13.5866 34.7009 13.7145C34.6156 13.8221 34.5164 13.9215 34.4169 14.0211C34.3628 14.0752 34.3087 14.1294 34.2567 14.185C33.9774 14.509 33.6306 14.778 33.286 15.0413C33.0766 15.2204 32.8332 15.3631 32.5932 15.5038C32.462 15.5807 32.3318 15.6571 32.2088 15.7384C32.0619 15.8025 31.9215 15.8721 31.7829 15.9409C31.5478 16.0574 31.318 16.1713 31.071 16.2512C30.6989 16.4012 30.3292 16.5271 29.9675 16.6198C29.7293 16.6979 29.4896 16.7488 29.2632 16.7969C29.1576 16.8194 29.055 16.8412 28.9567 16.8648C28.7587 16.9003 28.5744 16.9301 28.4004 16.9564C28.4099 16.9242 28.4216 16.8933 28.4333 16.8622C28.4412 16.8412 28.4491 16.8201 28.4564 16.7984C28.6213 16.2959 28.7472 15.7716 28.8296 15.221C28.8651 14.9417 28.8914 14.6589 28.912 14.3705C28.9269 14.0786 28.9223 13.7752 28.8937 13.4593C28.5984 13.5806 28.3305 13.7191 28.0775 13.8679C27.8314 14.0202 27.5968 14.1782 27.3667 14.3407C26.9179 14.6715 26.5127 15.0275 26.1487 15.4087C25.4115 16.1654 24.8082 17.0045 24.3069 17.9031L24.2416 18.0153C23.9337 18.5739 23.9932 19.2893 24.4454 19.7907C25.0406 20.4512 25.6931 21.0659 26.4509 21.5913C26.8264 21.8581 27.2282 22.1007 27.6689 22.316C28.1073 22.5289 28.5583 22.7326 29.0975 22.8643C29.0689 22.3137 28.9567 21.8306 28.8342 21.3578C28.7117 20.8988 28.5549 20.4684 28.3717 20.0574C28.7747 19.9258 29.2589 19.7449 29.8072 19.5137C29.9108 19.4639 30.0175 19.4151 30.1265 19.3653ZM38.1762 34.8128H34.8337V39.5142H35.8158V37.5384H37.8832V36.7073H35.8158V35.6473H38.1762V34.8128ZM29.5187 34.8128H28.6018L28.6007 38.0833H28.5892L26.7222 34.8128H25.6897V39.5107H26.6043V36.1602H26.6192L28.5354 39.5107H29.5187V34.8128ZM46.3301 37.2602C46.7135 37.4296 46.9265 37.5739 46.9265 38.4507C46.9265 39.1364 46.9265 39.3081 47.1359 39.3871V39.5096H46.053C45.9866 39.2898 45.9489 39.0448 45.9489 38.5618C45.9489 37.923 45.9065 37.6735 45.1819 37.6735H44.1688V39.5107H43.205V34.8128H45.5791C46.8292 34.8128 47.0592 35.7343 47.0592 36.1396C47.0592 36.6604 46.7925 37.1034 46.3301 37.2602ZM44.1677 36.8836H45.317C45.8287 36.8836 46.0771 36.7016 46.0771 36.2391C46.0771 35.9885 45.9649 35.6244 45.388 35.6244H44.1677V36.8836ZM32.2329 39.6355C32.6427 39.6355 34.0839 39.5073 34.0839 38.0982C34.0839 37.2545 33.4944 36.9901 32.8545 36.8344L31.712 36.5528C31.5151 36.5059 31.2129 36.4269 31.2129 36.0606C31.2129 35.6359 31.6605 35.4997 32.0314 35.4997C32.8899 35.4997 32.9689 35.9953 32.9953 36.2048H33.9339C33.9271 35.629 33.5424 34.688 32.1024 34.688C30.5776 34.688 30.2972 35.6096 30.2972 36.1327C30.2972 37.1675 31.0286 37.3404 31.7887 37.5144L32.2913 37.6334C32.7869 37.7536 33.1418 37.8498 33.1418 38.2184C33.1418 38.7094 32.6232 38.8239 32.1619 38.8239C31.3034 38.8239 31.1717 38.3271 31.1648 38.065H30.2262C30.2262 38.6499 30.5181 39.6355 32.2329 39.6355ZM42.4014 38.6797H39.7972V37.4663H42.0866V36.6352H39.7972V35.6485H42.2915V34.8151H38.8356V39.513H42.4014V38.6797ZM29.9801 33.3613H31.7681L31.7704 26.8227H31.7944L35.5388 33.3625H37.4528V24.1887H35.6647V30.5751H35.6407L31.9982 24.1887H29.9801V33.3613Z" fill="#DBDFEA"/>
</svg>
