<svg width="100" height="74" viewBox="0 0 100 74" fill="none" xmlns="http://www.w3.org/2000/svg">
<path d="M43.3327 30.3335C43.3342 33.1413 43.9289 35.9171 45.0777 38.479C46.2266 41.041 47.9038 43.3314 49.9994 45.2001C54.0794 41.5335 56.666 36.2368 56.666 30.3335C56.666 24.4301 54.0794 19.1335 49.9994 15.4668C47.9038 17.3355 46.2266 19.6259 45.0777 22.1879C43.9289 24.7499 43.3342 27.5257 43.3327 30.3335ZM67.966 58.5335C66.8227 58.5335 66.126 59.4135 66.126 60.4801C66.126 61.5468 66.826 62.4235 67.966 62.4235C69.0594 62.4235 69.796 61.5835 69.796 60.4801C69.796 59.3735 69.0594 58.5368 67.966 58.5368V58.5335ZM50.1594 58.4735C49.2194 58.4735 48.686 59.0701 48.546 59.9468H51.696C51.556 59.0068 51.0127 58.4735 50.1627 58.4735H50.1594ZM30.6994 58.5335C29.5594 58.5335 28.8594 59.4135 28.8594 60.4801C28.8594 61.5468 29.5594 62.4235 30.7027 62.4235C31.7927 62.4235 32.5294 61.5835 32.5294 60.4801C32.5294 59.3735 31.796 58.5368 30.7027 58.5368L30.6994 58.5335Z" fill="#F0F2FA"/>
<path d="M93.3333 0.333496H6.66667C2.99 0.333496 0 3.3235 0 7.00016V67.0002C0 70.6768 2.99 73.6668 6.66667 73.6668H93.3333C97.01 73.6668 100 70.6768 100 67.0002V7.00016C100 3.3235 97.01 0.333496 93.3333 0.333496ZM26.3333 63.5135H25V60.1368C25 59.1068 24.5667 58.5368 23.6667 58.5368C22.79 58.5368 22.18 59.0935 22.18 60.1502V63.5168H20.8467V60.1335C20.8467 59.1035 20.4033 58.5335 19.5267 58.5335C18.6267 58.5335 18.04 59.0902 18.04 60.1468V63.5135H16.7067V57.4402H18.0267V58.1902C18.2192 57.898 18.4847 57.6612 18.7969 57.5033C19.1092 57.3455 19.4573 57.272 19.8067 57.2902C20.7333 57.2902 21.3933 57.6935 21.8133 58.3668C22.37 57.5168 23.17 57.2735 23.9467 57.2868C25.42 57.3002 26.3333 58.2668 26.3333 59.7002V63.5102V63.5135ZM33.7767 60.4802V63.5135H32.4567V62.7802C32.2306 63.0713 31.9378 63.3037 31.6031 63.458C31.2684 63.6124 30.9015 63.684 30.5333 63.6668C28.8333 63.6668 27.5 62.3335 27.5 60.4802C27.5 58.6235 28.8333 57.2902 30.5333 57.2902C31.4 57.2902 32.0333 57.6335 32.4533 58.1802V57.4435H33.7733V60.4768L33.7767 60.4802ZM37.6867 63.6668C36.6967 63.6668 35.7833 63.4135 35.06 62.8802L35.68 61.8502C36.2632 62.282 36.9747 62.505 37.7 62.4835C38.6 62.4835 39.0867 62.2168 39.0867 61.7502C39.0867 61.4068 38.7433 61.2168 38.02 61.1168L37.3967 61.0235C36.0367 60.8335 35.3 60.2235 35.3 59.2335C35.3 58.0268 36.29 57.2902 37.8267 57.2902C38.7933 57.2902 39.67 57.5068 40.3033 57.9235L39.7333 58.9902C39.1564 58.6599 38.5048 58.4821 37.84 58.4735C37.1167 58.4735 36.6833 58.7402 36.6833 59.1835C36.6833 59.5902 37.1433 59.7035 37.7167 59.7802L38.3367 59.8702C39.6567 60.0602 40.4567 60.6168 40.4567 61.6868C40.4567 62.8402 39.44 63.6668 37.69 63.6668H37.6867ZM44.6867 63.6668C43.1233 63.6668 42.5767 62.8268 42.5767 61.4202V58.6502H41.3433V57.4435H42.5767V55.6002H43.91V57.4435H46.07V58.6502H43.9133V61.3935C43.9133 62.0035 44.1267 62.4102 44.7867 62.4102C45.1995 62.3967 45.6021 62.2786 45.9567 62.0668L46.3367 63.1968C45.8418 63.5054 45.2699 63.6683 44.6867 63.6668ZM53.0433 60.9868H48.5333C48.7267 62.0802 49.5 62.4735 50.35 62.4735C50.9929 62.4646 51.6145 62.2417 52.1167 61.8402L52.7633 62.8168C52.0668 63.3957 51.1818 63.6983 50.2767 63.6668C48.46 63.6668 47.1633 62.4102 47.1633 60.4802C47.1633 58.5868 48.4067 57.2902 50.1867 57.2902C51.8867 57.2902 53.0567 58.5868 53.07 60.4802C53.07 60.6568 53.0567 60.8202 53.0433 60.9868ZM57.87 58.7002C57.6072 58.5952 57.3263 58.5431 57.0433 58.5468C56.18 58.5468 55.75 59.1068 55.75 60.1102V63.5135H54.4267V57.4435H55.7367V58.1768C55.899 57.8988 56.1333 57.6697 56.4149 57.5137C56.6964 57.3576 57.0149 57.2804 57.3367 57.2902C57.6033 57.2902 57.9833 57.3402 58.2767 57.4568L57.87 58.7002ZM61.87 62.4235C62.4451 62.4175 63.0028 62.2257 63.46 61.8768L64.0933 62.9435C63.4813 63.4486 62.7025 63.7066 61.91 63.6668C59.9533 63.6668 58.67 62.3202 58.67 60.4802C58.67 58.6368 59.9533 57.2902 61.91 57.2902C62.8233 57.2902 63.4333 57.4935 64.0933 58.0135L63.46 59.0802C63.0024 58.7324 62.4447 58.5419 61.87 58.5368C60.8167 58.5468 60.0433 59.3102 60.0433 60.4802C60.0433 61.6468 60.8167 62.4102 61.87 62.4235ZM71.04 60.4802V63.5135H69.72V62.7802C69.4944 63.0701 69.2027 63.3019 68.8693 63.4561C68.5359 63.6103 68.1704 63.6826 67.8033 63.6668C66.1033 63.6668 64.77 62.3335 64.77 60.4802C64.77 58.6235 66.1033 57.2902 67.8033 57.2902C68.1707 57.2745 68.5364 57.3472 68.8699 57.502C69.2034 57.6569 69.4949 57.8894 69.72 58.1802V57.4435H71.04V60.4768V60.4802ZM76.2233 58.7002C75.9605 58.5952 75.6796 58.5431 75.3967 58.5468C74.5333 58.5468 74.1033 59.1068 74.1033 60.1102V63.5135H72.78V57.4435H74.09V58.1768C74.2523 57.8988 74.4866 57.6697 74.7682 57.5137C75.0498 57.3576 75.3682 57.2804 75.69 57.2902C75.9567 57.2902 76.3367 57.3402 76.63 57.4568L76.2233 58.7002ZM83.2967 60.4802V63.5135H81.9767V62.7802C81.7512 63.0703 81.4596 63.3022 81.1261 63.4565C80.7926 63.6107 80.4271 63.6829 80.06 63.6668C78.36 63.6668 77.0267 62.3335 77.0267 60.4802C77.0267 58.6235 78.36 57.2902 80.06 57.2902C80.4274 57.2745 80.7931 57.3472 81.1266 57.502C81.4601 57.6569 81.7516 57.8894 81.9767 58.1802V55.0002H83.2967V60.4768V60.4802ZM63.3333 50.3335C58.4068 50.3511 53.6515 48.5274 50 45.2202C46.3485 48.5274 41.5932 50.3511 36.6667 50.3335C25.6367 50.3335 16.6667 41.3635 16.6667 30.3335C16.6667 19.3035 25.6367 10.3335 36.6667 10.3335C41.6533 10.3335 46.3267 12.1368 50 15.4468C53.6515 12.1396 58.4068 10.3159 63.3333 10.3335C74.3633 10.3335 83.3333 19.3035 83.3333 30.3335C83.3333 41.3635 74.3633 50.3335 63.3333 50.3335Z" fill="#F0F2FA"/>
<path d="M80.2228 58.5337C79.0795 58.5337 78.3828 59.4137 78.3828 60.4804C78.3828 61.547 79.0828 62.4237 80.2228 62.4237C81.3161 62.4237 82.0528 61.5837 82.0528 60.4804C82.0528 59.3737 81.3161 58.537 80.2228 58.537V58.5337Z" fill="#F0F2FA"/>
</svg>
