<svg width="60" height="46" viewBox="0 0 60 46" fill="none" xmlns="http://www.w3.org/2000/svg">
<path d="M45.0088 20.4609L43.2188 24.8341H46.0188L45.2388 21.4673L45.0088 20.4609Z" fill="#DBDFEA"/>
<path d="M56 0.333496H4C1.794 0.333496 0 2.16827 0 4.4244V41.2426C0 43.4987 1.794 45.3335 4 45.3335H56C58.206 45.3335 60 43.4987 60 41.2426V4.4244C60 2.16827 58.206 0.333496 56 0.333496ZM10.012 17.5767C10.0313 17.4918 10.0787 17.4164 10.1461 17.3631C10.2135 17.3098 10.2968 17.2819 10.382 17.2842L13.918 17.2883H13.932C14.45 17.3087 15.164 17.4274 15.39 18.2271L15.394 18.2455L16.022 21.0437C16.0387 21.1249 16.0266 21.2094 15.9877 21.2822C15.9488 21.3549 15.8858 21.4111 15.81 21.4405C15.7325 21.4737 15.6467 21.4811 15.5649 21.4617C15.483 21.4422 15.4092 21.3969 15.354 21.3321C14.174 19.8655 12.41 18.7037 10.254 17.9715C10.1735 17.9472 10.1045 17.8936 10.0599 17.8209C10.0154 17.7482 9.99832 17.6613 10.012 17.5767ZM18.338 28.9535L15.304 28.9576C15.2256 28.9593 15.1486 28.9357 15.084 28.8902C15.0194 28.8446 14.9704 28.7795 14.944 28.7039L12.308 20.2071C12.262 20.0599 12.322 19.9003 12.456 19.8144C12.59 19.7285 12.768 19.7326 12.896 19.8267C14.796 21.2033 16.156 22.9358 16.66 24.0444C16.6673 24.0595 16.6733 24.0753 16.678 24.0914L17.022 25.2676L20.228 17.5419C20.2585 17.4735 20.3078 17.4158 20.3701 17.3758C20.4323 17.3358 20.5045 17.3153 20.578 17.3169L23.318 17.3149C23.379 17.3137 23.4394 17.3276 23.4941 17.3554C23.5487 17.3832 23.596 17.424 23.632 17.4744C23.702 17.5726 23.714 17.6994 23.664 17.8099L18.684 28.7408C18.6517 28.8059 18.6021 28.8604 18.5409 28.898C18.4797 28.9356 18.4094 28.9549 18.338 28.9535ZM26.568 28.6712C26.5498 28.7574 26.5026 28.8343 26.4346 28.8885C26.3666 28.9427 26.2822 28.9708 26.196 28.9678H23.592C23.538 28.9682 23.4846 28.9571 23.435 28.9353C23.3854 28.9135 23.3408 28.8814 23.304 28.841C23.2691 28.8028 23.2434 28.7569 23.2288 28.7069C23.2143 28.6569 23.2112 28.604 23.22 28.5526L25.2 17.5992C25.2186 17.5137 25.2657 17.4376 25.3332 17.3838C25.4007 17.3301 25.4845 17.3021 25.57 17.3046H28.176C28.286 17.3046 28.392 17.3517 28.464 17.4314C28.534 17.5112 28.564 17.6155 28.546 17.7178L26.566 28.6712H26.568ZM35.358 22.0337C37.224 22.8314 38.09 23.799 38.078 25.0815C38.054 27.4153 35.834 28.9249 32.424 28.9269H32.42C31.23 28.9126 29.99 28.7305 29.102 28.436C29.021 28.4121 28.9513 28.3588 28.9061 28.2862C28.8608 28.2135 28.843 28.1264 28.856 28.0412L29.178 26.2617C29.1886 26.2076 29.2112 26.1568 29.2442 26.1131C29.2772 26.0695 29.3195 26.0342 29.368 26.0101C29.4182 25.9843 29.4732 25.9696 29.5293 25.9667C29.5854 25.9639 29.6415 25.9731 29.694 25.9937C30.702 26.3885 31.414 26.5767 32.738 26.5767C33.666 26.5767 34.67 26.2351 34.678 25.4803C34.684 24.9874 34.26 24.6355 32.998 24.0853C31.766 23.5474 30.13 22.6453 30.152 21.0294C30.17 18.8449 32.426 17.3189 35.64 17.3189C36.774 17.3189 37.68 17.5214 38.24 17.6912C38.42 17.7444 38.528 17.9142 38.496 18.088L38.192 19.7776C38.1816 19.8309 38.1594 19.8811 38.1272 19.9243C38.0949 19.9676 38.0535 20.0027 38.006 20.0271C37.957 20.053 37.9033 20.0684 37.8483 20.0723C37.7932 20.0761 37.738 20.0684 37.686 20.0496C36.9508 19.7789 36.1732 19.6492 35.392 19.6671C34.164 19.6671 33.524 20.1519 33.524 20.6305C33.518 21.1624 34.218 21.5101 35.358 22.0337ZM49.922 28.839C49.8854 28.8811 49.8404 28.9147 49.79 28.9376C49.7397 28.9605 49.6851 28.9722 49.63 28.9719H47.276C47.1928 28.9743 47.1112 28.948 47.0444 28.8972C46.9776 28.8463 46.9296 28.7739 46.908 28.6917C46.828 28.3542 46.64 27.5339 46.562 27.2251L44.196 27.223H44.146L42.248 27.221C42.178 27.3908 41.964 27.9164 41.634 28.7428C41.6038 28.8121 41.5543 28.8708 41.4917 28.9115C41.4291 28.9523 41.3562 28.9733 41.282 28.9719H38.582C38.5205 28.9728 38.4597 28.9586 38.4048 28.9305C38.3498 28.9024 38.3022 28.8612 38.266 28.8103C38.2321 28.7618 38.2116 28.7049 38.2067 28.6455C38.2017 28.5861 38.2126 28.5264 38.238 28.4728L43.004 18.2844C43.322 17.6053 43.85 17.3169 44.77 17.3169H47.07C47.246 17.3169 47.398 17.4314 47.436 17.5951L49.996 28.5383C50.0082 28.5908 50.0079 28.6455 49.995 28.6979C49.9821 28.7502 49.9571 28.7986 49.922 28.839Z" fill="#DBDFEA"/>
</svg>
