<svg width="60" height="46" viewBox="0 0 60 46" fill="none" xmlns="http://www.w3.org/2000/svg">
<path d="M25.9965 18.7428C25.9974 20.4658 26.3542 22.1691 27.0435 23.7413C27.7328 25.3134 28.7391 26.7188 29.9965 27.8656C32.4445 25.6156 33.9965 22.3653 33.9965 18.7428C33.9965 15.1203 32.4445 11.8701 29.9965 9.62012C28.7391 10.7668 27.7328 12.1723 27.0435 13.7444C26.3542 15.3166 25.9974 17.0199 25.9965 18.7428V18.7428ZM40.7765 36.0474C40.0905 36.0474 39.6725 36.5874 39.6725 37.2419C39.6725 37.8965 40.0925 38.4344 40.7765 38.4344C41.4325 38.4344 41.8745 37.919 41.8745 37.2419C41.8745 36.5628 41.4325 36.0494 40.7765 36.0494V36.0474ZM30.0925 36.0106C29.5285 36.0106 29.2085 36.3767 29.1245 36.9147H31.0145C30.9305 36.3378 30.6045 36.0106 30.0945 36.0106H30.0925ZM18.4165 36.0474C17.7325 36.0474 17.3125 36.5874 17.3125 37.2419C17.3125 37.8965 17.7325 38.4344 18.4185 38.4344C19.0725 38.4344 19.5145 37.919 19.5145 37.2419C19.5145 36.5628 19.0745 36.0494 18.4185 36.0494L18.4165 36.0474Z" fill="#DBDFEA"/>
<path d="M56 0.333496H4C1.794 0.333496 0 2.16827 0 4.42441V41.2426C0 43.4987 1.794 45.3335 4 45.3335H56C58.206 45.3335 60 43.4987 60 41.2426V4.42441C60 2.16827 58.206 0.333496 56 0.333496ZM15.8 39.103H15V37.031C15 36.3989 14.74 36.0492 14.2 36.0492C13.674 36.0492 13.308 36.3908 13.308 37.0392V39.1051H12.508V37.029C12.508 36.3969 12.242 36.0471 11.716 36.0471C11.176 36.0471 10.824 36.3887 10.824 37.0371V39.103H10.024V35.3762H10.816V35.8365C10.9315 35.6572 11.0908 35.5119 11.2782 35.415C11.4655 35.3181 11.6744 35.273 11.884 35.2842C12.44 35.2842 12.836 35.5317 13.088 35.9449C13.422 35.4233 13.902 35.274 14.368 35.2821C15.252 35.2903 15.8 35.8835 15.8 36.763V39.101V39.103ZM20.266 37.2417V39.103H19.474V38.653C19.3383 38.8317 19.1627 38.9743 18.9619 39.069C18.761 39.1637 18.5409 39.2076 18.32 39.1971C17.3 39.1971 16.5 38.379 16.5 37.2417C16.5 36.1024 17.3 35.2842 18.32 35.2842C18.84 35.2842 19.22 35.4949 19.472 35.8303V35.3783H20.264V37.2396L20.266 37.2417ZM22.612 39.1971C22.018 39.1971 21.47 39.0417 21.036 38.7144L21.408 38.0824C21.7579 38.3473 22.1848 38.4842 22.62 38.471C23.16 38.471 23.452 38.3074 23.452 38.021C23.452 37.8103 23.246 37.6937 22.812 37.6324L22.438 37.5751C21.622 37.4585 21.18 37.0842 21.18 36.4767C21.18 35.7362 21.774 35.2842 22.696 35.2842C23.276 35.2842 23.802 35.4171 24.182 35.6728L23.84 36.3274C23.4938 36.1247 23.1029 36.0156 22.704 36.0103C22.27 36.0103 22.01 36.174 22.01 36.446C22.01 36.6955 22.286 36.7651 22.63 36.8121L23.002 36.8674C23.794 36.9839 24.274 37.3255 24.274 37.9821C24.274 38.6899 23.664 39.1971 22.614 39.1971H22.612ZM26.812 39.1971C25.874 39.1971 25.546 38.6817 25.546 37.8185V36.1187H24.806V35.3783H25.546V34.2471H26.346V35.3783H27.642V36.1187H26.348V37.8021C26.348 38.1765 26.476 38.426 26.872 38.426C27.1197 38.4177 27.3612 38.3453 27.574 38.2153L27.802 38.9087C27.5051 39.0981 27.1619 39.198 26.812 39.1971V39.1971ZM31.826 37.5526H29.12C29.236 38.2235 29.7 38.4649 30.21 38.4649C30.5957 38.4594 30.9687 38.3226 31.27 38.0762L31.658 38.6755C31.2401 39.0308 30.7091 39.2164 30.166 39.1971C29.076 39.1971 28.298 38.426 28.298 37.2417C28.298 36.0799 29.044 35.2842 30.112 35.2842C31.132 35.2842 31.834 36.0799 31.842 37.2417C31.842 37.3501 31.834 37.4503 31.826 37.5526V37.5526ZM34.722 36.1494C34.5643 36.085 34.3958 36.053 34.226 36.0553C33.708 36.0553 33.45 36.399 33.45 37.0146V39.103H32.656V35.3783H33.442V35.8283C33.5394 35.6577 33.68 35.5171 33.8489 35.4213C34.0179 35.3256 34.2089 35.2782 34.402 35.2842C34.562 35.2842 34.79 35.3149 34.966 35.3864L34.722 36.1494V36.1494ZM37.122 38.4342C37.4671 38.4305 37.8017 38.3128 38.076 38.0987L38.456 38.7533C38.0888 39.0632 37.6215 39.2215 37.146 39.1971C35.972 39.1971 35.202 38.3708 35.202 37.2417C35.202 36.1105 35.972 35.2842 37.146 35.2842C37.694 35.2842 38.06 35.409 38.456 35.728L38.076 36.3826C37.8014 36.1692 37.4668 36.0523 37.122 36.0492C36.49 36.0553 36.026 36.5237 36.026 37.2417C36.026 37.9576 36.49 38.426 37.122 38.4342V38.4342ZM42.624 37.2417V39.103H41.832V38.653C41.6966 38.831 41.5216 38.9732 41.3216 39.0678C41.1215 39.1625 40.9022 39.2068 40.682 39.1971C39.662 39.1971 38.862 38.379 38.862 37.2417C38.862 36.1024 39.662 35.2842 40.682 35.2842C40.9024 35.2746 41.1219 35.3191 41.322 35.4142C41.5221 35.5092 41.697 35.6519 41.832 35.8303V35.3783H42.624V37.2396V37.2417ZM45.734 36.1494C45.5763 36.085 45.4078 36.053 45.238 36.0553C44.72 36.0553 44.462 36.399 44.462 37.0146V39.103H43.668V35.3783H44.454V35.8283C44.5514 35.6577 44.692 35.5171 44.8609 35.4213C45.0299 35.3256 45.2209 35.2782 45.414 35.2842C45.574 35.2842 45.802 35.3149 45.978 35.3864L45.734 36.1494ZM49.978 37.2417V39.103H49.186V38.653C49.0507 38.8311 48.8757 38.9734 48.6757 39.0681C48.4756 39.1627 48.2562 39.207 48.036 39.1971C47.016 39.1971 46.216 38.379 46.216 37.2417C46.216 36.1024 47.016 35.2842 48.036 35.2842C48.2564 35.2746 48.4759 35.3191 48.676 35.4142C48.8761 35.5092 49.051 35.6519 49.186 35.8303V33.8789H49.978V37.2396V37.2417ZM38 31.0153C35.0441 31.0261 32.1909 29.907 30 27.8776C27.8091 29.907 24.9559 31.0261 22 31.0153C15.382 31.0153 10 25.511 10 18.7426C10 11.9742 15.382 6.46986 22 6.46986C24.992 6.46986 27.796 7.57645 30 9.60759C32.1909 7.57814 35.0441 6.45907 38 6.46986C44.618 6.46986 50 11.9742 50 18.7426C50 25.511 44.618 31.0153 38 31.0153Z" fill="#DBDFEA"/>
<path d="M48.1353 36.0474C47.4493 36.0474 47.0312 36.5874 47.0312 37.2419C47.0312 37.8965 47.4513 38.4344 48.1353 38.4344C48.7913 38.4344 49.2332 37.919 49.2332 37.2419C49.2332 36.5628 48.7913 36.0494 48.1353 36.0494V36.0474Z" fill="#DBDFEA"/>
</svg>
