<svg width="60" height="46" viewBox="0 0 60 46" fill="none" xmlns="http://www.w3.org/2000/svg">
<path d="M32.6558 18.2648L33.1958 16.1106L31.8778 15.7841L31.3538 17.8805C31.0026 17.7947 30.6506 17.7124 30.2978 17.6337L30.8258 15.5233L29.5117 15.1968L28.9718 17.349C28.6911 17.2867 28.4111 17.2216 28.1318 17.1538V17.1459L26.3158 16.6939L25.9657 18.0955C25.9657 18.0955 26.9417 18.3185 26.9217 18.3325C27.4557 18.4639 27.5517 18.8162 27.5357 19.093L26.9217 21.5478C26.968 21.5594 27.0134 21.574 27.0578 21.5916L26.9177 21.5557L26.0578 24.994C25.9918 25.1533 25.8278 25.3962 25.4538 25.3046C25.4678 25.3245 24.4977 25.0657 24.4977 25.0657L23.8438 26.5669L25.5578 26.9929L26.4958 27.2318L25.9517 29.4119L27.2657 29.7384L27.8057 27.5842C28.1657 27.6798 28.5137 27.7694 28.8557 27.855L28.3158 29.9992L29.6357 30.3257L30.1798 28.1516C32.4238 28.5757 34.1137 28.4045 34.8237 26.3837C35.3958 24.7551 34.7958 23.8154 33.6138 23.2042C34.4738 23.0051 35.1218 22.4437 35.2938 21.279C35.5338 19.6903 34.3178 18.8342 32.6538 18.2648H32.6558ZM32.2858 25.4778C31.8798 27.1064 29.1257 26.2264 28.2337 26.0054L28.9578 23.1206C29.8498 23.3416 32.7118 23.7816 32.2858 25.4778ZM32.6937 21.2571C32.3217 22.7364 30.0318 21.9838 29.2878 21.7986L29.9438 19.1826C30.6858 19.3677 33.0797 19.7102 32.6937 21.2551V21.2571Z" fill="#DBDFEA"/>
<path d="M56 0.333496H4C1.794 0.333496 0 2.16827 0 4.42441V41.2426C0 43.4987 1.794 45.3335 4 45.3335H56C58.206 45.3335 60 43.4987 60 41.2426V4.42441C60 2.16827 58.206 0.333496 56 0.333496ZM41.64 25.8015C41.2889 27.3971 40.6295 28.905 39.7005 30.2363C38.7715 31.5676 37.5917 32.6956 36.2304 33.554C34.8691 34.4123 33.3537 34.9838 31.7734 35.2346C30.1931 35.4855 28.5797 35.4108 27.028 35.0149C25.4763 34.619 24.0176 33.9098 22.7377 32.9291C21.4578 31.9485 20.3825 30.716 19.575 29.3043C18.7674 27.8925 18.244 26.3299 18.0353 24.7083C17.8267 23.0867 17.9371 21.4388 18.36 19.8614C19.1908 16.7723 21.1699 14.1379 23.8744 12.521C26.579 10.9041 29.7945 10.433 32.8341 11.2083C35.8737 11.9836 38.4964 13.9439 40.1418 16.6702C41.7872 19.3966 42.3249 22.673 41.64 25.7994V25.8015Z" fill="#DBDFEA"/>
</svg>
