<svg width="60" height="45" viewBox="0 0 60 45" fill="none" xmlns="http://www.w3.org/2000/svg">
<path fill-rule="evenodd" clip-rule="evenodd" d="M5 0C2.23858 0 0 2.23858 0 5V40C0 42.7614 2.23858 45 5 45H55C57.7614 45 60 42.7614 60 40V5C60 2.23858 57.7614 0 55 0H5ZM13.8867 16.2666C12.8671 15.7761 11.75 15.5216 10.6185 15.5221C6.5123 15.5221 3.17292 18.8371 3.18755 22.8688C3.18755 26.9277 6.52692 30.2281 10.6434 30.2368C11.927 30.2379 13.1893 29.9092 14.3094 29.2823C14.6589 29.0858 14.9855 28.8601 15.2844 28.6359L13.7731 26.9491L12.0405 28.5223L9.11311 25.3048L9.92236 24.6028L7.87583 22.3408L8.68509 21.6388L6.61077 19.3768L9.8507 16.4971L10.8881 17.6072L12.6499 16.0618L13.6722 17.1148L14.3547 16.5103L13.8867 16.2666ZM11.03 20.8461L9.25351 22.4193L10.8452 24.1753L12.6216 22.6021L11.03 20.8461ZM12.2804 23.8662L10.5186 25.4535L12.1098 27.1943L13.8862 25.6212L12.2804 23.8662ZM9.7649 17.8553L7.98942 19.4285L9.57965 21.1844L11.3561 19.6113L9.7649 17.8553ZM12.5588 17.4053L11.2425 18.5851L12.4369 19.9062L13.7531 18.7118L12.5588 17.4053ZM14.9183 22.8132L13.602 23.9929L14.7959 25.3126L16.1126 24.1333L14.9183 22.8132ZM16.0883 25.4681L14.772 26.6479L15.9649 27.968L17.2812 26.7746L16.0883 25.4681ZM16.1936 19.797L15.3126 20.5838L16.1082 21.4545L16.9892 20.6682L16.1936 19.797ZM15.0567 17.185L14.1758 17.9855L14.9714 18.8566L15.8528 18.0698L15.0567 17.185ZM17.3158 22.3964L16.4349 23.1832L17.23 24.0539L18.125 23.2675L17.3158 22.3964ZM13.7868 20.051L12.4705 21.2308L13.6639 22.5373L14.9802 21.3575L13.7868 20.051ZM22.3716 19.2642H21.6579L20.6152 23.5215H20.5591L19.6611 19.2588H18.7632L20.0672 24.9713H20.9325L21.9914 20.9504H22.0479L23.138 24.9713H24.0038L25.2981 19.2642H24.3602L23.5421 23.5269H23.4861L22.3716 19.2642ZM28.2728 22.5451H26.4413C26.529 21.7402 26.9064 21.3614 27.3953 21.3614C27.8243 21.3614 28.2329 21.6992 28.2728 22.5451ZM28.9178 24.0642V24.0602L28.9236 24.0607C28.9217 24.0619 28.9197 24.063 28.9178 24.0642ZM28.9178 24.6725V24.0642C28.4746 24.3277 28.0803 24.4799 27.6493 24.4799C26.823 24.4799 26.4306 24.0524 26.4306 23.0857H29.0436V22.7873C29.0436 21.4745 28.4259 20.8213 27.4241 20.8213C26.2214 20.8213 25.6043 21.707 25.6043 22.9321C25.6043 24.2045 26.1576 25.043 27.504 25.043C28.0764 25.043 28.557 24.8821 28.9178 24.6725ZM31.6473 24.5316C31.4465 24.5316 31.1657 24.5141 30.9092 24.4019V21.7675C31.23 21.5905 31.4625 21.5018 31.7833 21.5018C32.3205 21.5018 32.6891 21.8318 32.6891 22.8556C32.6891 24.1611 32.2406 24.5316 31.6473 24.5316ZM31.9998 20.8729C31.5659 20.8729 31.1574 21.0426 30.9175 21.1713L30.9126 21.1567V18.8654L30.0839 19.0667V24.7003C30.5698 24.9453 31.1038 25.0802 31.6478 25.0952C32.81 25.0952 33.5315 24.3664 33.5315 22.8551C33.5315 21.5652 32.9943 20.8729 31.9998 20.8729ZM36.8026 24.9738H37.3155L38.9466 20.8276H39.0188V24.9738H39.8943V19.2603H38.8998L37.1838 23.7648H37.1439L35.3484 19.2603H34.3734V24.9738H35.0949V20.929H35.1666L36.8026 24.9738ZM42.4415 21.3853C42.9866 21.3853 43.4273 21.845 43.4273 22.9321C43.4273 24.0363 43.0104 24.479 42.4415 24.479C41.8726 24.479 41.4553 24.0363 41.4553 22.9321C41.4553 21.8445 41.9126 21.3853 42.4415 21.3853ZM42.4415 20.8213C41.3837 20.8213 40.6134 21.5218 40.6134 22.9321C40.6134 24.3093 41.3427 25.043 42.4415 25.043C43.5404 25.043 44.2697 24.3098 44.2697 22.9321C44.2697 21.5218 43.4994 20.8213 42.4415 20.8213ZM46.9377 20.8159C46.0159 20.8159 45.2539 21.1947 44.8932 21.4126L44.9029 24.9421H45.7317V21.7514C45.9798 21.6066 46.3893 21.4613 46.7096 21.4613C47.1191 21.4613 47.4311 21.5744 47.4311 22.2106V24.9421H48.2598V22.0249C48.2598 21.1947 47.8996 20.8159 46.9377 20.8159ZM51.8605 22.5397H50.029C50.1177 21.7348 50.4941 21.356 50.983 21.356C51.412 21.356 51.8215 21.6939 51.8605 22.5397ZM52.5055 24.0585V24.0548L52.5108 24.0553C52.5091 24.0564 52.5073 24.0575 52.5055 24.0585ZM52.5055 24.6671V24.0585C52.0621 24.3223 51.6672 24.4746 51.2365 24.4746C50.4107 24.4746 50.0178 24.047 50.0178 23.0803H52.6317V22.782C52.6317 21.4691 52.0141 20.8159 51.0118 20.8159C49.8091 20.8159 49.1919 21.7017 49.1919 22.9268C49.1919 24.1991 49.7462 25.0376 51.0917 25.0376C51.6641 25.0376 52.1447 24.8768 52.5055 24.6671ZM56.8125 20.8159H55.9623L55.0371 23.7804H54.9883L53.9621 20.8154H53.0846L54.6242 24.8436C54.4272 25.4403 54.0957 25.8757 53.5497 25.8757V26.5357C54.4711 26.5357 54.96 25.9556 55.3613 24.8441L56.8125 20.8159Z" fill="#DBDFEA"/>
</svg>
