<svg width="100" height="74" viewBox="0 0 100 74" fill="none" xmlns="http://www.w3.org/2000/svg">
<path d="M75.0146 33.1333L72.0312 40.26H76.6979L75.3979 34.7733L75.0146 33.1333Z" fill="#F0F2FA"/>
<path d="M93.3333 0.333496H6.66667C2.99 0.333496 0 3.3235 0 7.00016V67.0002C0 70.6768 2.99 73.6668 6.66667 73.6668H93.3333C97.01 73.6668 100 70.6768 100 67.0002V7.00016C100 3.3235 97.01 0.333496 93.3333 0.333496ZM16.6867 28.4335C16.7189 28.2952 16.7978 28.1722 16.9101 28.0854C17.0225 27.9985 17.1614 27.9531 17.3033 27.9568L23.1967 27.9635H23.22C24.0833 27.9968 25.2733 28.1902 25.65 29.4935L25.6567 29.5235L26.7033 34.0835C26.7312 34.2157 26.7109 34.3535 26.6461 34.4721C26.5813 34.5907 26.4763 34.6822 26.35 34.7302C26.2208 34.7843 26.0779 34.7963 25.9415 34.7646C25.805 34.7329 25.6821 34.659 25.59 34.5535C23.6233 32.1635 20.6833 30.2702 17.09 29.0768C16.9559 29.0372 16.8409 28.95 16.7666 28.8315C16.6923 28.713 16.6639 28.5715 16.6867 28.4335ZM30.5633 46.9735L25.5067 46.9802C25.3759 46.9829 25.2477 46.9445 25.14 46.8703C25.0323 46.7961 24.9507 46.69 24.9067 46.5668L20.5133 32.7202C20.4367 32.4802 20.5367 32.2202 20.76 32.0802C20.9833 31.9402 21.28 31.9468 21.4933 32.1002C24.66 34.3435 26.9267 37.1668 27.7667 38.9735C27.7789 38.9981 27.7889 39.0238 27.7967 39.0502L28.37 40.9668L33.7133 28.3768C33.7641 28.2654 33.8464 28.1713 33.9501 28.1061C34.0538 28.041 34.1742 28.0076 34.2967 28.0102L38.8633 28.0068C38.965 28.005 39.0657 28.0276 39.1568 28.0729C39.2479 28.1181 39.3267 28.1847 39.3867 28.2668C39.5033 28.4268 39.5233 28.6335 39.44 28.8135L31.14 46.6268C31.0862 46.733 31.0035 46.8218 30.9015 46.8831C30.7995 46.9444 30.6823 46.9757 30.5633 46.9735ZM44.28 46.5135C44.2496 46.6539 44.1709 46.7792 44.0576 46.8676C43.9443 46.9559 43.8036 47.0016 43.66 46.9968H39.32C39.23 46.9975 39.1409 46.9794 39.0583 46.9439C38.9757 46.9083 38.9014 46.856 38.84 46.7902C38.7819 46.728 38.739 46.6532 38.7147 46.5716C38.6904 46.4901 38.6854 46.404 38.7 46.3202L42 28.4702C42.0309 28.3309 42.1094 28.2068 42.222 28.1192C42.3345 28.0316 42.4741 27.986 42.6167 27.9902H46.96C47.1433 27.9902 47.32 28.0668 47.44 28.1968C47.5567 28.3268 47.6067 28.4968 47.5767 28.6635L44.2767 46.5135H44.28ZM58.93 35.6968C62.04 36.9968 63.4833 38.5735 63.4633 40.6635C63.4233 44.4668 59.7233 46.9268 54.04 46.9302H54.0333C52.05 46.9068 49.9833 46.6102 48.5033 46.1302C48.3684 46.0913 48.2522 46.0044 48.1768 45.886C48.1013 45.7675 48.0716 45.6256 48.0933 45.4868L48.63 42.5868C48.6476 42.4987 48.6854 42.4159 48.7403 42.3448C48.7952 42.2736 48.8659 42.2162 48.9467 42.1768C49.0304 42.1348 49.122 42.1108 49.2155 42.1062C49.3091 42.1016 49.4026 42.1166 49.49 42.1502C51.17 42.7935 52.3567 43.1002 54.5633 43.1002C56.11 43.1002 57.7833 42.5435 57.7967 41.3135C57.8067 40.5102 57.1 39.9368 54.9967 39.0402C52.9433 38.1635 50.2167 36.6935 50.2533 34.0602C50.2833 30.5002 54.0433 28.0135 59.4 28.0135C61.29 28.0135 62.8 28.3435 63.7333 28.6202C64.0333 28.7068 64.2133 28.9835 64.16 29.2668L63.6533 32.0202C63.6359 32.107 63.599 32.1888 63.5453 32.2593C63.4916 32.3297 63.4225 32.387 63.3433 32.4268C63.2616 32.469 63.1722 32.4941 63.0805 32.5004C62.9887 32.5067 62.8967 32.4941 62.81 32.4635C61.5847 32.0223 60.2886 31.811 58.9867 31.8402C56.94 31.8402 55.8733 32.6302 55.8733 33.4102C55.8633 34.2768 57.03 34.8435 58.93 35.6968ZM83.2033 46.7868C83.1423 46.8554 83.0673 46.9102 82.9833 46.9476C82.8994 46.985 82.8085 47.004 82.7167 47.0035H78.7933C78.6546 47.0075 78.5186 46.9646 78.4073 46.8817C78.296 46.7988 78.2159 46.6809 78.18 46.5468C78.0467 45.9968 77.7333 44.6602 77.6033 44.1568L73.66 44.1535H73.5767L70.4133 44.1502C70.2967 44.4268 69.94 45.2835 69.39 46.6302C69.3396 46.7431 69.2572 46.8387 69.1528 46.9051C69.0485 46.9715 68.927 47.0057 68.8033 47.0035H64.3033C64.2009 47.005 64.0996 46.9818 64.0079 46.936C63.9163 46.8902 63.837 46.823 63.7767 46.7402C63.7201 46.6612 63.686 46.5684 63.6777 46.4716C63.6695 46.3748 63.6876 46.2776 63.73 46.1902L71.6733 29.5868C72.2033 28.4802 73.0833 28.0102 74.6167 28.0102H78.45C78.7433 28.0102 78.9967 28.1968 79.06 28.4635L83.3267 46.2968C83.347 46.3824 83.3465 46.4716 83.325 46.5569C83.3035 46.6422 83.2618 46.7211 83.2033 46.7868Z" fill="#F0F2FA"/>
</svg>
