<svg width="100" height="74" viewBox="0 0 100 74" fill="none" xmlns="http://www.w3.org/2000/svg">
<path d="M93.3333 0.333496H6.66667C2.99 0.333496 0 3.3235 0 7.00016V67.0002C0 70.6768 2.99 73.6668 6.66667 73.6668H93.3333C97.01 73.6668 100 70.6768 100 67.0002V7.00016C100 3.3235 97.01 0.333496 93.3333 0.333496ZM60 47.0002H58.1367L56.6533 58.8735C56.603 59.2765 56.4072 59.6473 56.1027 59.9161C55.7983 60.185 55.4062 60.3334 55 60.3335H41.91C41.4337 60.3335 40.9629 60.2315 40.5294 60.0343C40.0958 59.8371 39.7096 59.5492 39.3967 59.1902C38.8882 58.5757 38.6204 57.7974 38.6433 57.0002H30.3C29.8161 56.9999 29.3381 56.8944 28.8992 56.6908C28.4602 56.4872 28.0708 56.1905 27.7581 55.8213C27.4453 55.4521 27.2167 55.0193 27.0881 54.5528C26.9595 54.0863 26.934 53.5975 27.0133 53.1202L33.1233 16.4535C33.2515 15.6746 33.6524 14.9666 34.2545 14.4561C34.8566 13.9456 35.6206 13.6659 36.41 13.6668H55C59.68 13.6668 63.6967 16.4535 65.5533 20.4402C71.7633 20.9735 76.6667 26.1068 76.6667 32.4168C76.6667 40.8668 69.6567 47.0002 60 47.0002Z" fill="#F0F2FA"/>
<path d="M64.3885 20.3335H46.4552C44.7952 20.3335 43.3785 21.5735 43.1552 23.2168L41.0785 38.4435C41.0455 38.6791 41.0636 38.9191 41.1315 39.1472C41.1994 39.3752 41.3155 39.586 41.472 39.7652C41.6285 39.9445 41.8217 40.088 42.0384 40.186C42.2552 40.2841 42.4906 40.3344 42.7285 40.3335H51.6685C59.9385 40.3335 66.6685 33.6035 66.6685 25.3335C66.6685 24.0602 66.4352 22.7868 65.9618 21.4435C65.8467 21.1184 65.6335 20.8371 65.3517 20.6383C65.0699 20.4395 64.7334 20.333 64.3885 20.3335Z" fill="#F0F2FA"/>
</svg>
