<svg aria-hidden="true" style="position:absolute;width:0;height:0;overflow:hidden" xmlns="http://www.w3.org/2000/svg">

<symbol id='quality-badge' width="40" height="40" viewBox="0 0 40 40" >
<path d="M31.3748 18.4562C31.3751 18.0132 31.249 17.5793 31.0112 17.2055C30.7735 16.8317 30.434 16.5335 30.0326 16.346C29.4365 16.0285 28.9801 15.5002 28.7526 14.8642L28.706 14.7401C28.4419 14.1094 28.4117 13.4051 28.6207 12.7541C28.7479 12.3484 28.7615 11.9157 28.6601 11.5028C28.5587 11.09 28.3462 10.7128 28.0456 10.4122C27.745 10.1116 27.3678 9.89907 26.9549 9.79769C26.5421 9.6963 26.1094 9.70992 25.7037 9.83708C25.0527 10.0461 24.3484 10.0158 23.7177 9.75174L23.5935 9.69744C22.9566 9.4758 22.4272 9.02123 22.1118 8.42513C21.9247 8.02315 21.6268 7.68295 21.253 7.44457C20.8791 7.20619 20.445 7.07955 20.0016 7.07955C19.5582 7.07955 19.1241 7.20619 18.7503 7.44457C18.3764 7.68295 18.0785 8.02315 17.8915 8.42513C17.5767 9.01878 17.0507 9.47278 16.4174 9.69744L16.2856 9.75174C15.6548 10.0158 14.9506 10.0461 14.2995 9.83708C13.8939 9.70992 13.4611 9.6963 13.0483 9.79769C12.6354 9.89907 12.2583 10.1116 11.9576 10.4122C11.657 10.7128 11.4445 11.09 11.3431 11.5028C11.2417 11.9157 11.2554 12.3484 11.3825 12.7541C11.594 13.4042 11.5665 14.1085 11.305 14.7401C11.2836 14.78 11.2655 14.8215 11.2506 14.8642C11.0231 15.5002 10.5667 16.0285 9.97058 16.346C9.5686 16.533 9.2284 16.831 8.99002 17.2048C8.75164 17.5787 8.625 18.0128 8.625 18.4562C8.625 18.8995 8.75164 19.3337 8.99002 19.7075C9.2284 20.0813 9.5686 20.3793 9.97058 20.5663C10.5662 20.8808 11.0228 21.4065 11.2506 22.0403C11.2654 22.0856 11.2836 22.1297 11.305 22.1722C11.5495 22.7982 11.5659 23.4903 11.3515 24.1272C11.2243 24.5329 11.2107 24.9656 11.3121 25.3785C11.4135 25.7913 11.626 26.1685 11.9266 26.4691C12.2272 26.7697 12.6044 26.9822 13.0173 27.0836C13.4301 27.185 13.8628 27.1714 14.2685 27.0442C14.918 26.8286 15.6238 26.8561 16.2545 27.1218L16.3864 27.1761C17.0206 27.4033 17.5466 27.8601 17.8604 28.4562C18.0475 28.8582 18.3454 29.1984 18.7192 29.4367C19.0931 29.6751 19.5272 29.8017 19.9706 29.8017C20.4139 29.8017 20.8481 29.6751 21.2219 29.4367C21.5957 29.1984 21.8937 28.8582 22.0807 28.4562C22.3959 27.8581 22.925 27.401 23.5625 27.1761L23.6866 27.1218C24.3174 26.8561 25.0231 26.8286 25.6727 27.0442C26.0783 27.1714 26.5111 27.185 26.9239 27.0836C27.3368 26.9822 27.7139 26.7697 28.0145 26.4691C28.3151 26.1685 28.5277 25.7913 28.6291 25.3785C28.7305 24.9656 28.7168 24.5329 28.5897 24.1272C28.3807 23.4762 28.4109 22.7719 28.675 22.1412L28.7216 22.0093C28.9494 21.3755 29.406 20.8498 30.0016 20.5353C30.404 20.3545 30.7467 20.0631 30.9899 19.695C31.233 19.3269 31.3665 18.8972 31.3748 18.4562V18.4562Z" stroke="currentColor" stroke-width="1.75" stroke-miterlimit="10"/>
<path d="M15.9219 18.495L18.6216 21.187L24.0832 15.7254" stroke="currentColor" stroke-width="1.75" stroke-linecap="round" stroke-linejoin="round"/>
<path d="M12.5692 26.9356L10.3349 31.1094C10.3055 31.1655 10.2928 31.2287 10.298 31.2918C10.3033 31.3548 10.3264 31.4151 10.3646 31.4655C10.4029 31.516 10.4546 31.5545 10.5139 31.5766C10.5732 31.5987 10.6376 31.6035 10.6995 31.5904L13.8492 30.9387C13.9175 30.924 13.9886 30.931 14.0526 30.9589C14.1166 30.9867 14.1703 31.0339 14.2061 31.0939L15.1991 32.7386C15.2281 32.7902 15.2703 32.8332 15.3215 32.8632C15.3726 32.8931 15.4308 32.9089 15.49 32.9089C15.5493 32.9089 15.6075 32.8931 15.6586 32.8632C15.7097 32.8332 15.752 32.7902 15.781 32.7386L17.8989 28.526M27.1619 27.052L29.3341 31.1171C29.3634 31.1732 29.3762 31.2365 29.3709 31.2995C29.3657 31.3626 29.3426 31.4229 29.3043 31.4733C29.2661 31.5237 29.2143 31.5622 29.155 31.5843C29.0957 31.6064 29.0314 31.6112 28.9695 31.5981L25.8197 30.9465C25.7515 30.9317 25.6804 30.9388 25.6163 30.9666C25.5523 30.9945 25.4986 31.0417 25.4629 31.1016L24.4699 32.7463C24.4409 32.798 24.3986 32.841 24.3475 32.8709C24.2964 32.9009 24.2382 32.9167 24.1789 32.9167C24.1197 32.9167 24.0615 32.9009 24.0104 32.8709C23.9592 32.841 23.917 32.798 23.888 32.7463L21.9253 28.8673" stroke="currentColor" stroke-width="1.75" stroke-miterlimit="10"/>
</symbol>




<symbol id='planet-icon'>
<g clip-path="url(#clip0_3500_26556)">
<path d="M20 6.875C17.3423 6.875 14.7443 7.6631 12.5345 9.13963C10.3247 10.6162 8.60243 12.7148 7.58537 15.1702C6.56832 17.6256 6.30221 20.3274 6.8207 22.934C7.33919 25.5406 8.61899 27.935 10.4983 29.8142C12.3775 31.6935 14.7719 32.9733 17.3785 33.4918C19.9851 34.0103 22.6869 33.7442 25.1423 32.7271C27.5977 31.7101 29.6964 29.9878 31.1729 27.778C32.6494 25.5682 33.4375 22.9702 33.4375 20.3125C33.4375 16.7487 32.0218 13.3308 29.5018 10.8108C26.9817 8.29073 23.5639 6.875 20 6.875ZM29.8313 27.5C28.9402 26.9776 27.9977 26.5482 27.0188 26.2188C27.486 24.4957 27.7421 22.7223 27.7813 20.9375H32.1563C32.0404 23.3054 31.2319 25.5873 29.8313 27.5ZM7.82813 20.9375H12.2188C12.2567 22.7232 12.5117 24.4977 12.9781 26.2219C11.9992 26.5514 11.0567 26.9807 10.1656 27.5031C8.75991 25.5909 7.94707 23.3078 7.82813 20.9375ZM10.1688 13.125C11.0598 13.6474 12.0023 14.0768 12.9813 14.4062C12.514 16.1293 12.2579 17.9027 12.2188 19.6875H7.84376C7.95965 17.3196 8.76806 15.0377 10.1688 13.125ZM20.625 15.5062C22.3716 15.4655 24.1074 15.2201 25.7969 14.775C26.2413 16.3764 26.4879 18.0262 26.5313 19.6875H20.625V15.5062ZM20.625 14.2562V8.18438C22.5938 8.55313 24.3406 10.625 25.4156 13.5844C23.85 13.9924 22.2425 14.2179 20.625 14.2562ZM19.375 8.18438V14.2562C17.7576 14.2179 16.15 13.9924 14.5844 13.5844C15.6594 10.625 17.4063 8.55313 19.375 8.18438ZM19.375 15.5062V19.6875H13.4688C13.5121 18.0262 13.7587 16.3764 14.2031 14.775C15.8926 15.2201 17.6284 15.4655 19.375 15.5062ZM13.4688 20.9375H19.375V25.1187C17.6284 25.1595 15.8926 25.4049 14.2031 25.85C13.7587 24.2486 13.5121 22.5988 13.4688 20.9375ZM19.375 26.3687V32.4406C17.4063 32.0719 15.6594 30 14.5844 27.0406C16.15 26.6326 17.7576 26.4071 19.375 26.3687ZM20.625 32.4406V26.3687C22.2425 26.4071 23.85 26.6326 25.4156 27.0406C24.3406 30 22.5938 32.0719 20.625 32.4406ZM20.625 25.1187V20.9375H26.5313C26.4879 22.5988 26.2413 24.2486 25.7969 25.85C24.1074 25.4049 22.3716 25.1595 20.625 25.1187ZM27.7813 19.6875C27.7433 17.9018 27.4883 16.1273 27.0219 14.4031C28.0008 14.0736 28.9433 13.6443 29.8344 13.1219C31.2457 15.0323 32.064 17.3155 32.1875 19.6875H27.7813ZM29.0313 12.1406C28.2712 12.5727 27.4717 12.9316 26.6438 13.2125C26.1099 11.5942 25.2458 10.1045 24.1063 8.8375C25.9956 9.5165 27.6883 10.6511 29.0344 12.1406H29.0313ZM15.8906 8.84063C14.7511 10.1076 13.887 11.5974 13.3531 13.2156C12.5252 12.9347 11.7257 12.5758 10.9656 12.1438C12.3108 10.6546 14.0024 9.52008 15.8906 8.84063ZM10.9656 28.4844C11.7257 28.0523 12.5252 27.6934 13.3531 27.4125C13.887 29.0308 14.7511 30.5205 15.8906 31.7875C14.0024 31.108 12.3108 29.9735 10.9656 28.4844ZM24.1094 31.7844C25.2489 30.5174 26.113 29.0276 26.6469 27.4094C27.4749 27.6903 28.2743 28.0492 29.0344 28.4813C27.6892 29.9704 25.9976 31.1049 24.1094 31.7844Z" />
</g>
<defs>
<clipPath id="clip0_3500_26556">
<rect width="40" height="40" />
</clipPath>
</defs>
</symbol>

<symbol id="big-arrow" width="40" height="40" viewBox="0 0 40 40" >
<path d="M15.6609 30.1848C15.5166 30.3283 15.3363 30.4 15.1379 30.4C14.9395 30.4 14.7591 30.3283 14.6149 30.1848C14.3263 29.8979 14.3263 29.4317 14.6149 29.1448L23.8129 20L14.6149 10.8552C14.3263 10.5683 14.3263 10.1021 14.6149 9.81517C14.9034 9.52827 15.3724 9.52827 15.6609 9.81517L25.382 19.48C25.6706 19.7669 25.6706 20.2331 25.382 20.52L15.6609 30.1848V30.1848Z" />
</symbol>

<symbol id="header-menu-icon" viewBox="0 0 40 40"><path d="M8 14.6667V12H32V14.6667H8ZM8 21.3333H32V18.6667H8V21.3333ZM8 28H32V25.3333H8V28Z"/></symbol>

<symbol id="header-menu-close-icon" viewBox="0 0 40 40">
<path d="M29.6667 12.88L27.7867 11L20.3333 18.4533L12.88 11L11 12.88L18.4533 20.3333L11 27.7867L12.88 29.6667L20.3333 22.2133L27.7867 29.6667L29.6667 27.7867L22.2133 20.3333L29.6667 12.88Z"/></symbol>



<symbol id='github-icon' viewBox="0 0 25 28" >
<path d="M23.1197 5.20291C23.0114 5.05922 22.8958 4.92127 22.7731 4.78963C22.8965 4.46092 22.9902 4.12184 23.0531 3.77642C23.2388 2.51285 23.0775 1.22255 22.5865 0.0435662C22.5865 0.0435662 21.0933 -0.423041 17.6671 1.88333C16.2125 1.4817 14.71 1.27987 13.201 1.28341C11.6876 1.28075 10.1809 1.48255 8.72157 1.88333C5.29534 -0.449704 3.80219 0.0435662 3.80219 0.0435662C3.31703 1.21006 3.15582 2.48592 3.33559 3.73643C3.39884 4.0962 3.49708 4.44894 3.62888 4.78963C3.5089 4.92294 3.38891 5.06959 3.28226 5.20291C2.28743 6.45078 1.75935 8.00674 1.78912 9.60235C1.78595 9.98077 1.80376 10.3591 1.84244 10.7355C2.26906 16.6414 6.20189 18.0146 9.94808 18.4412C9.41785 18.9343 9.05832 19.5833 8.92154 20.2943C8.79763 20.7685 8.73932 21.2574 8.74823 21.7475V23.4939C7.25642 23.6272 5.72595 23.4099 5.25134 22.0794C4.74187 20.8059 3.89694 19.6943 2.80632 18.8625C2.72661 18.8194 2.65078 18.7694 2.57968 18.7132C2.48391 18.4615 2.31424 18.2447 2.09295 18.0912C1.87167 17.9377 1.60913 17.8548 1.33984 17.8533H1.33317C0.980749 17.8533 0.64266 17.9928 0.392834 18.2414C0.143009 18.49 0.00177316 18.8274 1.10388e-05 19.1798C-0.00398845 20.2623 1.07987 20.9622 1.52382 21.1995C2.04249 21.7222 2.45972 22.3365 2.75433 23.0113C3.2396 24.3751 4.65942 26.4482 8.70823 26.1789L8.7109 26.3096L8.71623 26.6668C8.71623 27.0204 8.85669 27.3595 9.10671 27.6095C9.35672 27.8595 9.69582 28 10.0494 28H16.3339C16.6875 28 17.0266 27.8595 17.2766 27.6095C17.5266 27.3595 17.6671 27.0204 17.6671 26.6668C17.6671 26.6668 17.6778 22.454 17.6778 21.7475C17.6866 21.2574 17.6283 20.7685 17.5044 20.2943L17.5018 20.2863L17.5071 20.2943C17.4951 20.2477 17.4778 20.2103 17.4644 20.165C17.3159 19.5045 16.9722 18.9039 16.4779 18.4412L16.4939 18.4692L16.4672 18.4426C20.2134 18.0159 24.1196 16.6161 24.5462 10.7369C24.5849 10.3604 24.6027 9.98211 24.5995 9.60368C24.6232 8.01123 24.101 6.45734 23.1197 5.20291Z"/>
</symbol>

<symbol id='linkedin-icon' viewBox="0 0 28 28" >
<path d="M0.541935 28H5.96129V8.575H0.541935V28ZM3.25161 0C1.44516 0 0 1.4 0 3.15C0 4.9 1.44516 6.3 3.25161 6.3C5.05806 6.3 6.50323 4.9 6.50323 3.15C6.50323 1.4 5.05806 0 3.25161 0ZM15.1742 11.55V8.575H9.75484V28H15.1742V18.025C15.1742 12.425 22.5806 12.075 22.5806 18.025V28H28V16.1C28 6.65 17.7032 7 15.1742 11.55Z" />
</symbol>

<symbol id='facebook-icon' width="16" height="28" viewBox="0 0 16 28"  xmlns="http://www.w3.org/2000/svg">
<path d="M15.0619 0.201923V4.64423H12.4201C11.4553 4.64423 10.8047 4.84615 10.4681 5.25C10.1316 5.65385 9.96334 6.25962 9.96334 7.06731V10.2476H14.8936L14.2374 15.2284H9.96334V28H4.8143V15.2284H0.523438V10.2476H4.8143V6.57933C4.8143 4.49279 5.39764 2.8746 6.5643 1.72476C7.73097 0.57492 9.28466 0 11.2254 0C12.8744 0 14.1532 0.0673077 15.0619 0.201923Z" />
</symbol>


<symbol id='twitter-icon'  width="28" height="23" viewBox="0 0 28 23">
<path d="M28 2.58904C26.9452 3.06849 25.8904 3.35616 24.6438 3.54794C25.7945 2.78082 26.7534 1.72603 27.2329 0.383561C26.0822 1.05479 24.8356 1.53425 23.589 1.82192C22.5342 0.671232 21 0 19.3699 0C16.2055 0 13.5205 2.58904 13.5205 5.84932C13.5205 6.32877 13.6164 6.71233 13.7123 7.19178C8.91781 7 4.60274 4.60274 1.72603 1.15068C1.24658 1.82192 0.958904 2.78082 0.958904 3.83562C0.958904 5.84932 2.0137 7.67123 3.54794 8.63014C2.58904 8.63014 1.72603 8.34246 0.958904 7.86301V7.9589C0.958904 10.7397 2.9726 13.137 5.65753 13.6164C5.17808 13.7123 4.69863 13.8082 4.12329 13.8082C3.73973 13.8082 3.35616 13.8082 3.06849 13.7123C3.83562 16.0137 5.9452 17.7397 8.53425 17.7397C6.52055 19.274 4.0274 20.2329 1.34247 20.2329C0.863013 20.2329 0.383562 20.2329 0 20.137C2.30137 21.9589 5.36986 22.9178 8.63014 22.9178C19.274 22.9178 25.1233 14.0959 25.1233 6.42466V5.65753C26.274 4.79452 27.2329 3.83562 28 2.58904Z"/>
</symbol>

<symbol id='advantages-image_1' width="90" height="90" viewBox="0 0 90 90" >
<path d="M54.3753 16.875V73.8938C54.3853 74.6249 54.1764 75.3423 53.7754 75.9537C53.3745 76.5651 52.7998 77.0427 52.1253 77.325C50.679 77.9027 49.1942 78.3789 47.6816 78.75C41.8805 80.0583 35.9468 80.6876 30.0003 80.625C24.0538 80.6876 18.1202 80.0583 12.3191 78.75C10.8065 78.3789 9.32167 77.9027 7.87534 77.325C7.20086 77.0427 6.62621 76.5651 6.22527 75.9537C5.82432 75.3423 5.61539 74.6249 5.62534 73.8938V16.875C5.62534 12.7313 16.5378 9.375 30.0003 9.375C43.4628 9.375 54.3753 12.7313 54.3753 16.875Z" fill="#4AA7F0"/>
<path d="M30 24.375C43.4619 24.375 54.375 21.0171 54.375 16.875C54.375 12.7329 43.4619 9.375 30 9.375C16.5381 9.375 5.625 12.7329 5.625 16.875C5.625 21.0171 16.5381 24.375 30 24.375Z" fill="#B3D9FF"/>
<path d="M30.0024 21.5625C18.6118 21.5625 11.708 19.2281 9.32866 17.6419C9.20337 17.557 9.10078 17.4427 9.02987 17.309C8.95895 17.1754 8.92188 17.0263 8.92188 16.875C8.92188 16.7237 8.95895 16.5746 9.02987 16.441C9.10078 16.3073 9.20337 16.193 9.32866 16.1081C11.708 14.5219 18.6118 12.1875 30.0024 12.1875C41.393 12.1875 48.2968 14.5219 50.6762 16.1081C50.8015 16.193 50.904 16.3073 50.975 16.441C51.0459 16.5746 51.0829 16.7237 51.0829 16.875C51.0829 17.0263 51.0459 17.1754 50.975 17.309C50.904 17.4427 50.8015 17.557 50.6762 17.6419C48.2968 19.2281 41.393 21.5625 30.0024 21.5625Z" fill="#4AA7F0"/>
<path d="M54.375 28.125V33.1125C52.3094 34.2258 50.1015 35.0522 47.8125 35.5687C41.9714 36.9098 35.9927 37.558 30 37.5C24.0011 37.5568 18.0163 36.9087 12.1687 35.5687C9.88561 35.0525 7.68392 34.2261 5.625 33.1125V28.125C5.625 28.7625 7.44375 30.5063 13.0875 31.9313C18.633 33.2056 24.3103 33.8162 30 33.75C35.6897 33.8162 41.367 33.2056 46.9125 31.9313C52.5563 30.5063 54.375 28.7625 54.375 28.125ZM54.375 39.375V44.3625C52.3094 45.4758 50.1015 46.3022 47.8125 46.8187C41.9714 48.1598 35.9927 48.808 30 48.75C24.0011 48.8068 18.0163 48.1587 12.1687 46.8187C9.88561 46.3025 7.68392 45.4761 5.625 44.3625V39.375C5.625 40.0125 7.44375 41.7563 13.0875 43.1813C18.633 44.4556 24.3103 45.0662 30 45C35.6897 45.0662 41.367 44.4556 46.9125 43.1813C52.5563 41.7563 54.375 40.0125 54.375 39.375ZM54.375 50.625V55.6125C52.3161 56.7261 50.1144 57.5525 47.8313 58.0687C41.9837 59.4087 35.9989 60.0568 30 60C24.0011 60.0568 18.0163 59.4087 12.1687 58.0687C9.88561 57.5525 7.68392 56.7261 5.625 55.6125V50.625C5.625 51.2625 7.44375 53.0062 13.0875 54.4312C18.633 55.7056 24.3103 56.3162 30 56.25C35.6897 56.3162 41.367 55.7056 46.9125 54.4312C52.5563 53.0062 54.375 51.2625 54.375 50.625ZM54.375 61.875V66.8625C52.3161 67.9761 50.1144 68.8025 47.8313 69.3187C41.9837 70.6587 35.9989 71.3068 30 71.25C24.0011 71.3068 18.0163 70.6587 12.1687 69.3187C9.88561 68.8025 7.68392 67.9761 5.625 66.8625V61.875C5.625 62.5125 7.44375 64.2562 13.0875 65.6812C18.633 66.9556 24.3103 67.5662 30 67.5C35.6897 67.5662 41.367 66.9556 46.9125 65.6812C52.5563 64.2562 54.375 62.5125 54.375 61.875Z" fill="#B3D9FF"/>
<path d="M54.3753 71.25V73.8937C54.3853 74.6249 54.1764 75.3422 53.7754 75.9537C53.3745 76.5651 52.7998 77.0427 52.1253 77.325C50.679 77.9027 49.1942 78.3789 47.6816 78.75C41.8805 80.0583 35.9468 80.6876 30.0003 80.625C24.0538 80.6876 18.1202 80.0583 12.3191 78.75C10.8065 78.3789 9.32167 77.9027 7.87534 77.325C7.20086 77.0427 6.62621 76.5651 6.22527 75.9537C5.82432 75.3422 5.61539 74.6249 5.62534 73.8937V71.25C5.62534 72.9375 13.9128 76.875 30.0003 76.875C46.0878 76.875 54.3753 72.9375 54.3753 71.25Z" fill="#B3D9FF"/>
<path d="M28.125 15.4688V17.8125H24.375V15.4688C24.375 15.21 23.5369 15 22.5 15C21.4631 15 20.625 15.21 20.625 15.4688V16.4063H18.75C17.715 16.4063 16.875 16.6163 16.875 16.875C16.875 17.1338 17.715 17.3438 18.75 17.3438H20.625V18.2813C20.625 18.54 21.4631 18.75 22.5 18.75H30C31.0369 18.75 31.875 18.54 31.875 18.2813V15.9375H35.625V18.2813C35.625 18.54 36.4631 18.75 37.5 18.75C38.5369 18.75 39.375 18.54 39.375 18.2813V17.3438H41.25C42.2869 17.3438 43.125 17.1338 43.125 16.875C43.125 16.6163 42.2869 16.4063 41.25 16.4063H39.375V15.4688C39.375 15.21 38.5369 15 37.5 15H30C28.9631 15 28.125 15.21 28.125 15.4688Z" fill="#E9F5FF"/>
<path d="M60 80.625C73.4619 80.625 84.375 69.7119 84.375 56.25C84.375 42.7881 73.4619 31.875 60 31.875C46.5381 31.875 35.625 42.7881 35.625 56.25C35.625 69.7119 46.5381 80.625 60 80.625Z" fill="#B3D9FF"/>
<path d="M60 76.875C71.3909 76.875 80.625 67.6409 80.625 56.25C80.625 44.8591 71.3909 35.625 60 35.625C48.6091 35.625 39.375 44.8591 39.375 56.25C39.375 67.6409 48.6091 76.875 60 76.875Z" fill="#4AA7F0"/>
<path d="M65.625 54.375H56.25V50.625H65.625C66.1223 50.625 66.5992 50.4275 66.9508 50.0758C67.3025 49.7242 67.5 49.2473 67.5 48.75C67.5 48.2527 67.3025 47.7758 66.9508 47.4242C66.5992 47.0725 66.1223 46.875 65.625 46.875H61.875V45C61.875 44.5027 61.6775 44.0258 61.3258 43.6742C60.9742 43.3225 60.4973 43.125 60 43.125C59.5027 43.125 59.0258 43.3225 58.6742 43.6742C58.3225 44.0258 58.125 44.5027 58.125 45V46.875H54.375C53.8777 46.875 53.4008 47.0725 53.0492 47.4242C52.6975 47.7758 52.5 48.2527 52.5 48.75V56.25C52.5 56.7473 52.6975 57.2242 53.0492 57.5758C53.4008 57.9275 53.8777 58.125 54.375 58.125H63.75V61.875H54.375C53.8777 61.875 53.4008 62.0725 53.0492 62.4242C52.6975 62.7758 52.5 63.2527 52.5 63.75C52.5 64.2473 52.6975 64.7242 53.0492 65.0758C53.4008 65.4275 53.8777 65.625 54.375 65.625H58.125V67.5C58.125 67.9973 58.3225 68.4742 58.6742 68.8258C59.0258 69.1775 59.5027 69.375 60 69.375C60.4973 69.375 60.9742 69.1775 61.3258 68.8258C61.6775 68.4742 61.875 67.9973 61.875 67.5V65.625H65.625C66.1223 65.625 66.5992 65.4275 66.9508 65.0758C67.3025 64.7242 67.5 64.2473 67.5 63.75V56.25C67.5 55.7527 67.3025 55.2758 66.9508 54.9242C66.5992 54.5725 66.1223 54.375 65.625 54.375Z" fill="white"/>
</symbol>

<symbol  id='advantages-image_2' width="90" height="90" viewBox="0 0 90 90" >
<path d="M41.25 73.125C38.0278 71.9862 34.5663 71.6975 31.2 72.2869C30.1557 72.4898 29.1278 72.7699 28.125 73.125C25.5688 74.1117 23.2474 75.6224 21.3099 77.5599C19.3724 79.4974 17.8617 81.8188 16.875 84.375V68.0813C16.8748 65.5705 17.5054 63.0999 18.7087 60.8963C19.4304 59.6685 20.287 58.5251 21.2625 57.4875C22.7973 55.702 24.4645 54.0348 26.25 52.5L41.25 73.125ZM48.75 73.125C51.9722 71.9862 55.4337 71.6975 58.8 72.2869C59.8443 72.4898 60.8722 72.7699 61.875 73.125C64.4312 74.1117 66.7526 75.6224 68.6901 77.5599C70.6276 79.4974 72.1383 81.8188 73.125 84.375V68.0813C73.1252 65.5705 72.4946 63.0999 71.2912 60.8963C70.5696 59.6685 69.713 58.5251 68.7375 57.4875C67.2027 55.702 65.5355 54.0348 63.75 52.5L48.75 73.125Z" fill="#144DA4"/>
<path d="M45 5.625L41.9644 7.28062C36.6414 10.1839 32.1989 14.4675 29.1037 19.6812C26.0086 24.8949 24.3751 30.8461 24.375 36.9094V45.5906C24.3758 51.6532 26.0096 57.6037 29.1047 62.8167C32.1998 68.0296 36.642 72.3127 41.9644 75.2156L45 76.875L48.0356 75.2194C53.3586 72.3161 57.8011 68.0325 60.8963 62.8188C63.9914 57.6051 65.6249 51.6539 65.625 45.5906V36.9094C65.6242 30.8468 63.9904 24.8963 60.8953 19.6834C57.8002 14.4704 53.358 10.1873 48.0356 7.28438L45 5.625Z" fill="#4AA7F0"/>
<path d="M45 45C51.2132 45 56.25 39.9632 56.25 33.75C56.25 27.5368 51.2132 22.5 45 22.5C38.7868 22.5 33.75 27.5368 33.75 33.75C33.75 39.9632 38.7868 45 45 45Z" fill="#B3D9FF"/>
<path d="M45 41.25C49.1421 41.25 52.5 37.8921 52.5 33.75C52.5 29.6079 49.1421 26.25 45 26.25C40.8579 26.25 37.5 29.6079 37.5 33.75C37.5 37.8921 40.8579 41.25 45 41.25Z" fill="white"/>
<path d="M45.0016 86.25L44.7109 85.6669C43.6688 83.5841 43.1263 81.2871 43.1266 78.9581V54.375C43.1266 53.8777 43.3241 53.4008 43.6757 53.0492C44.0274 52.6975 44.5043 52.5 45.0016 52.5C45.4988 52.5 45.9758 52.6975 46.3274 53.0492C46.679 53.4008 46.8766 53.8777 46.8766 54.375V78.9581C46.8768 81.2871 46.3343 83.5841 45.2922 85.6669L45.0016 86.25ZM59.0266 16.875H30.9766C33.8948 12.9117 37.645 9.63508 41.9641 7.275L45.0016 5.625L48.0391 7.275C52.3581 9.63508 56.1083 12.9117 59.0266 16.875Z" fill="#B3D9FF"/>
</symbol>

<symbol id='advantages-image_3' width="90" height="90" viewBox="0 0 90 90" >
<path d="M45 84C66.5391 84 84 66.5391 84 45C84 23.4609 66.5391 6 45 6C23.4609 6 6 23.4609 6 45C6 66.5391 23.4609 84 45 84Z" fill="#B3D9FF"/>
<path d="M44.8605 76.4363C62.2969 76.4363 76.4319 62.3013 76.4319 44.8649C76.4319 27.4285 62.2969 13.2935 44.8605 13.2935C27.4241 13.2935 13.2891 27.4285 13.2891 44.8649C13.2891 62.3013 27.4241 76.4363 44.8605 76.4363Z" fill="#4AA7F0"/>
<path d="M37.6256 59.2364V62.8208C37.6256 63.2165 37.9495 63.5377 38.3486 63.5377H41.2403C41.4321 63.5377 41.6159 63.4622 41.7515 63.3277C41.8871 63.1933 41.9633 63.0109 41.9633 62.8208V59.2364H43.4091V62.8208C43.4091 63.2165 43.733 63.5377 44.1321 63.5377H47.0238C47.2155 63.5377 47.3994 63.4622 47.535 63.3277C47.6706 63.1933 47.7467 63.0109 47.7467 62.8208V59.2364H47.9897C53.75 59.2364 57.8679 56.2742 57.8679 51.1499C57.8679 46.8429 54.9559 44.4887 51.5465 44.1532V43.9008C54.3515 43.2069 56.4133 41.1078 56.4133 37.6209C56.4133 33.2279 53.0878 30.5611 48.0128 30.5611H47.7467V26.9766C47.7467 26.7865 47.6706 26.6042 47.535 26.4697C47.3994 26.3353 47.2155 26.2598 47.0238 26.2598H44.1321C43.9403 26.2598 43.7565 26.3353 43.6209 26.4697C43.4853 26.6042 43.4091 26.7865 43.4091 26.9766V30.5611H41.7522V26.9766C41.7522 26.7865 41.676 26.6042 41.5404 26.4697C41.4048 26.3353 41.221 26.2598 41.0292 26.2598H38.3486C38.1568 26.2598 37.973 26.3353 37.8374 26.4697C37.7018 26.6042 37.6256 26.7865 37.6256 26.9766V30.5611L31.8479 30.5926C31.6562 30.5926 31.4723 30.6681 31.3367 30.8026C31.2012 30.937 31.125 31.1194 31.125 31.3095V34.1455C31.125 34.5383 31.4431 34.8624 31.8422 34.8624L34.0254 34.848C34.5981 34.8518 35.1461 35.0801 35.5497 35.483C35.9533 35.8859 36.1798 36.4308 36.1798 36.9987V52.7844C36.1798 53.3548 35.9513 53.9019 35.5445 54.3052C35.1378 54.7085 34.5862 54.9351 34.011 54.9351L31.8479 54.9666C31.6562 54.9666 31.4723 55.0422 31.3367 55.1766C31.2012 55.311 31.125 55.4934 31.125 55.6835V58.551C31.125 58.9468 31.4489 59.2679 31.8479 59.2679L37.6256 59.2364ZM41.7522 34.8251H46.7231C49.343 34.8251 50.8814 36.2531 50.8814 38.5873C50.8814 41.0849 49.2186 42.4929 45.4536 42.4929H41.7522V34.8251ZM41.7522 46.4415H47.073C50.3609 46.4415 52.1509 48.1046 52.1509 50.8116C52.1509 53.5443 50.3406 54.9695 45.9105 54.9695H41.7522V46.4415Z" fill="white"/>
</symbol>

<symbol id='advantages-image_4' width="90" height="90" viewBox="0 0 90 90" >
<path d="M45 69.375C58.4619 69.375 69.375 58.4619 69.375 45C69.375 31.5381 58.4619 20.625 45 20.625C31.5381 20.625 20.625 31.5381 20.625 45C20.625 58.4619 31.5381 69.375 45 69.375Z" fill="#4AA7F0"/>
<path d="M60.0031 45C60.0033 42.4932 59.853 39.9887 59.5531 37.5H68.1781C67.7716 36.2063 67.2508 34.9514 66.6219 33.75H59.0094C58.3811 30.2329 57.4719 26.7718 56.2906 23.4C54.7906 22.6051 53.2056 21.9824 51.5656 21.5437C53.1865 25.4795 54.4052 29.569 55.2031 33.75H46.8781V20.7188C45.6312 20.5938 44.375 20.5938 43.1281 20.7188V33.75H34.8031C35.601 29.569 36.8197 25.4795 38.4406 21.5437C36.8007 21.9824 35.2156 22.6051 33.7156 23.4C32.5343 26.7718 31.6252 30.2329 30.9969 33.75H23.3844C22.7554 34.9514 22.2346 36.2063 21.8281 37.5H30.4531C29.8531 42.482 29.8531 47.518 30.4531 52.5H21.8281C22.2346 53.7937 22.7554 55.0486 23.3844 56.25H30.9969C31.6252 59.7671 32.5343 63.2282 33.7156 66.6C35.2156 67.3949 36.8007 68.0176 38.4406 68.4562C36.8197 64.5205 35.601 60.431 34.8031 56.25H43.1281V69.3C43.7469 69.3562 44.3656 69.375 45.0031 69.375C45.6406 69.375 46.2594 69.3562 46.8781 69.3V56.25H55.2031C54.4052 60.431 53.1865 64.5205 51.5656 68.4562C53.2056 68.0176 54.7906 67.3949 56.2906 66.6C57.4719 63.2282 58.3811 59.7671 59.0094 56.25H66.6219C67.2508 55.0486 67.7716 53.7937 68.1781 52.5H59.5531C59.853 50.0113 60.0033 47.5068 60.0031 45ZM34.2219 52.5C33.5969 47.5195 33.5969 42.4805 34.2219 37.5H43.1281V52.5H34.2219ZM46.8781 52.5V37.5H55.7844C56.0998 39.9875 56.2564 42.4926 56.2531 45C56.2564 47.5074 56.0998 50.0125 55.7844 52.5H46.8781Z" fill="#B3D9FF"/>
<path d="M86.8431 22.5957C86.3715 22.4383 85.8566 22.4748 85.4118 22.697C84.967 22.9192 84.6287 23.309 84.4713 23.7807L82.5194 29.6382C79.4371 21.5614 73.8351 14.6924 66.5433 10.0487C59.2515 5.40505 50.6578 3.23375 42.0353 3.85651C33.4129 4.47926 25.2204 7.86294 18.6716 13.5063C12.1227 19.1496 7.56595 26.7523 5.67627 35.1882C5.56065 35.672 5.64198 36.182 5.90236 36.6059C6.16275 37.0298 6.58085 37.3329 7.06471 37.4485C7.54856 37.5641 8.05853 37.4828 8.48242 37.2224C8.90631 36.962 9.2094 36.5439 9.32502 36.06C11.031 28.3941 15.1651 21.4833 21.1128 16.3548C27.0605 11.2263 34.5044 8.15392 42.3379 7.59431C50.1714 7.0347 57.9763 9.01774 64.5927 13.2487C71.209 17.4796 76.2835 23.7326 79.0619 31.0782L72.2894 26.5632C71.8756 26.2977 71.3741 26.2054 70.893 26.3061C70.4118 26.4068 69.9894 26.6924 69.7168 27.1015C69.4441 27.5106 69.343 28.0104 69.4353 28.4932C69.5276 28.9761 69.8058 29.4034 70.21 29.6832L81.46 37.1832C81.6996 37.3419 81.9725 37.4433 82.2576 37.4798C82.5427 37.5162 82.8324 37.4866 83.1042 37.3933C83.376 37.3 83.6227 37.1454 83.8253 36.9415C84.0279 36.7377 84.1809 36.4899 84.2725 36.2175L88.0225 24.9675C88.1801 24.4966 88.1445 23.9824 87.9233 23.5377C87.7022 23.093 87.3138 22.7542 86.8431 22.5957ZM82.9356 52.5507C82.4531 52.4379 81.9456 52.5208 81.524 52.7812C81.1024 53.0415 80.801 53.4581 80.6856 53.94C78.983 61.6106 74.8495 68.5266 68.9002 73.659C62.9508 78.7915 55.5034 81.8661 47.666 82.4254C39.8287 82.9848 32.0201 80.999 25.4022 76.7635C18.7842 72.5281 13.7104 66.2692 10.9356 58.9182L17.71 63.435C17.9149 63.5717 18.1447 63.6667 18.3862 63.7145C18.6278 63.7624 18.8764 63.7622 19.1179 63.714C19.3594 63.6657 19.589 63.5704 19.7937 63.4334C19.9983 63.2965 20.174 63.1205 20.3106 62.9157C20.4473 62.7108 20.5423 62.481 20.5901 62.2395C20.638 61.9979 20.6378 61.7493 20.5896 61.5078C20.5413 61.2663 20.446 61.0367 20.309 60.832C20.1721 60.6274 19.9961 60.4517 19.7913 60.315L8.54127 52.815C8.30153 52.6564 8.02851 52.555 7.74333 52.5187C7.45814 52.4823 7.16842 52.5121 6.89657 52.6056C6.62472 52.6991 6.37801 52.8539 6.17552 53.058C5.97302 53.2621 5.82017 53.51 5.72877 53.7825L1.97877 65.0325C1.82163 65.5049 1.85859 66.0204 2.08153 66.4656C2.30446 66.9108 2.6951 67.2491 3.16752 67.4063C3.63994 67.5634 4.15543 67.5265 4.60059 67.3035C5.04576 67.0806 5.38413 66.69 5.54127 66.2175L7.47065 60.3938C10.5606 68.4664 16.1677 75.3295 23.4619 79.9674C30.756 84.6052 39.3497 86.7713 47.9707 86.1449C56.5917 85.5185 64.782 82.133 71.3292 76.4896C77.8764 70.8461 82.4325 63.2445 84.3231 54.81C84.4387 54.3264 84.3575 53.8167 84.0973 53.393C83.8371 52.9693 83.4192 52.6663 82.9356 52.5507Z" fill="#B3D9FF"/>
</symbol>

<symbol id='advantages-image_5' width="90" height="90" viewBox="0 0 90 90" >
<path d="M62.3625 71.7375L66.1744 75.5494C66.526 75.9009 67.0028 76.0983 67.5 76.0983C67.9972 76.0983 68.474 75.9009 68.8256 75.5494L75.5494 68.8256C75.9009 68.474 76.0983 67.9972 76.0983 67.5C76.0983 67.0028 75.9009 66.526 75.5494 66.1744L71.7375 62.3625C73.7023 59.3386 75.1414 56.004 75.9937 52.5H82.5C82.9973 52.5 83.4742 52.3025 83.8258 51.9508C84.1775 51.5992 84.375 51.1223 84.375 50.625V39.375C84.375 38.8777 84.1775 38.4008 83.8258 38.0492C83.4742 37.6975 82.9973 37.5 82.5 37.5H75.9937C75.1414 33.996 73.7023 30.6614 71.7375 27.6375L75.5494 23.8256C75.9009 23.474 76.0983 22.9972 76.0983 22.5C76.0983 22.0028 75.9009 21.526 75.5494 21.1744L68.8256 14.4506C68.474 14.0991 67.9972 13.9017 67.5 13.9017C67.0028 13.9017 66.526 14.0991 66.1744 14.4506L62.3625 18.2625C59.3386 16.2977 56.004 14.8586 52.5 14.0062V7.5C52.5 7.00272 52.3025 6.52581 51.9508 6.17417C51.5992 5.82254 51.1223 5.625 50.625 5.625H39.375C38.8777 5.625 38.4008 5.82254 38.0492 6.17417C37.6975 6.52581 37.5 7.00272 37.5 7.5V14.0062C33.996 14.8586 30.6614 16.2977 27.6375 18.2625L23.8256 14.4506C23.474 14.0991 22.9972 13.9017 22.5 13.9017C22.0028 13.9017 21.526 14.0991 21.1744 14.4506L14.4506 21.1744C14.0991 21.526 13.9017 22.0028 13.9017 22.5C13.9017 22.9972 14.0991 23.474 14.4506 23.8256L18.2625 27.6375C16.2977 30.6614 14.8586 33.996 14.0062 37.5H7.5C7.00272 37.5 6.52581 37.6975 6.17417 38.0492C5.82254 38.4008 5.625 38.8777 5.625 39.375V50.625C5.625 51.1223 5.82254 51.5992 6.17417 51.9508C6.52581 52.3025 7.00272 52.5 7.5 52.5H14.0062C14.8586 56.004 16.2977 59.3386 18.2625 62.3625L14.4506 66.1744C14.0991 66.526 13.9017 67.0028 13.9017 67.5C13.9017 67.9972 14.0991 68.474 14.4506 68.8256L21.1744 75.5494C21.526 75.9009 22.0028 76.0983 22.5 76.0983C22.9972 76.0983 23.474 75.9009 23.8256 75.5494L27.6375 71.7375C30.6614 73.7023 33.996 75.1414 37.5 75.9937V82.5C37.5 82.9973 37.6975 83.4742 38.0492 83.8258C38.4008 84.1775 38.8777 84.375 39.375 84.375H50.625C51.1223 84.375 51.5992 84.1775 51.9508 83.8258C52.3025 83.4742 52.5 82.9973 52.5 82.5V75.9937C56.004 75.1414 59.3386 73.7023 62.3625 71.7375Z" fill="#4AA7F0"/>
<path d="M50.5234 31.2188C50.5234 28.8888 48.005 27 44.8984 27C41.7918 27 39.2734 28.8888 39.2734 31.2188V34.0312C39.2734 36.3612 41.7918 38.25 44.8984 38.25C48.005 38.25 50.5234 36.3612 50.5234 34.0312V31.2188Z" fill="white"/>
<path d="M45 43.6023C48.481 43.6023 51.8194 44.9851 54.2808 47.4465C56.7422 49.9079 58.125 53.2463 58.125 56.7273V62.3523H31.875V56.7273C31.875 53.2463 33.2578 49.9079 35.7192 47.4465C38.1806 44.9851 41.519 43.6023 45 43.6023Z" fill="white"/>
</symbol>


<symbol id='advantages-image_6' width="90" height="90" viewBox="0 0 90 90" >
<path d="M44.9996 78.75C44.5023 78.75 44.0254 78.5525 43.6738 78.2008C43.3221 77.8492 43.1246 77.3723 43.1246 76.875V56.25C43.1246 55.7527 43.3221 55.2758 43.6738 54.9242C44.0254 54.5725 44.5023 54.375 44.9996 54.375C45.4969 54.375 45.9738 54.5725 46.3254 54.9242C46.6771 55.2758 46.8746 55.7527 46.8746 56.25V76.875C46.8746 77.3723 46.6771 77.8492 46.3254 78.2008C45.9738 78.5525 45.4969 78.75 44.9996 78.75ZM14.9996 78.75C14.6288 78.7499 14.2664 78.6399 13.9581 78.4339C13.6498 78.2278 13.4096 77.935 13.2677 77.5925C13.1258 77.2499 13.0887 76.873 13.161 76.5093C13.2333 76.1457 13.4118 75.8116 13.674 75.5494L22.4996 66.7237V56.25C22.4996 55.7527 22.6971 55.2758 23.0488 54.9242C23.4004 54.5725 23.8773 54.375 24.3746 54.375C24.8719 54.375 25.3488 54.5725 25.7004 54.9242C26.0521 55.2758 26.2496 55.7527 26.2496 56.25V67.5C26.2495 67.9972 26.0519 68.4741 25.7002 68.8256L16.3252 78.2006C15.9737 78.5523 15.4968 78.7499 14.9996 78.75ZM74.9996 78.75C74.5024 78.7499 74.0255 78.5523 73.674 78.2006L64.299 68.8256C63.9473 68.4741 63.7497 67.9972 63.7496 67.5V56.25C63.7496 55.7527 63.9471 55.2758 64.2988 54.9242C64.6504 54.5725 65.1273 54.375 65.6246 54.375C66.1219 54.375 66.5988 54.5725 66.9504 54.9242C67.3021 55.2758 67.4996 55.7527 67.4996 56.25V66.7237L76.3252 75.5494C76.5874 75.8116 76.7659 76.1457 76.8382 76.5093C76.9105 76.873 76.8734 77.2499 76.7315 77.5925C76.5896 77.935 76.3494 78.2278 76.0411 78.4339C75.7328 78.6399 75.3704 78.7499 74.9996 78.75Z" fill="#B3D9FF"/>
<path d="M65.3649 31.3874C65.5376 30.3085 65.6254 29.2176 65.6274 28.1249C65.594 22.7975 63.5005 17.6897 59.7854 13.8713C56.0702 10.0529 51.0216 7.82019 45.6971 7.64085C40.3726 7.46151 35.1853 9.34944 31.2216 12.9092C27.2579 16.4689 24.8254 21.4243 24.4337 26.7374C22.3722 26.1986 20.2196 26.1052 18.1192 26.4634C16.0188 26.8215 14.0187 27.6231 12.2523 28.8146C10.4859 30.0062 8.99362 31.5604 7.87482 33.3738C6.75602 35.1871 6.03639 37.218 5.76384 39.3313C5.4913 41.4445 5.6721 43.5915 6.2942 45.6294C6.9163 47.6673 7.96543 49.5493 9.37172 51.15C10.778 52.7508 12.5092 54.0335 14.45 54.9129C16.3908 55.7923 18.4967 56.2481 20.6274 56.2499H71.2524C73.232 56.2478 75.1855 55.7979 76.9665 54.9339C78.7476 54.07 80.3102 52.8143 81.5374 51.261C82.7645 49.7076 83.6243 47.8968 84.0525 45.9641C84.4808 44.0314 84.4662 42.0268 84.0101 40.1005C83.5539 38.1742 82.668 36.3761 81.4185 34.8406C80.169 33.3052 78.5884 32.0723 76.795 31.2342C75.0016 30.3961 73.0418 29.9746 71.0624 30.0011C69.083 30.0276 67.1352 30.5016 65.3649 31.3874Z" fill="#4AA7F0"/>
<path d="M45 82.5C47.0711 82.5 48.75 80.8211 48.75 78.75C48.75 76.6789 47.0711 75 45 75C42.9289 75 41.25 76.6789 41.25 78.75C41.25 80.8211 42.9289 82.5 45 82.5Z" fill="#144DA4"/>
<path d="M13.125 82.5C15.1961 82.5 16.875 80.8211 16.875 78.75C16.875 76.6789 15.1961 75 13.125 75C11.0539 75 9.375 76.6789 9.375 78.75C9.375 80.8211 11.0539 82.5 13.125 82.5Z" fill="#144DA4"/>
<path d="M76.875 82.5C78.9461 82.5 80.625 80.8211 80.625 78.75C80.625 76.6789 78.9461 75 76.875 75C74.8039 75 73.125 76.6789 73.125 78.75C73.125 80.8211 74.8039 82.5 76.875 82.5Z" fill="#144DA4"/>
</symbol>

<symbol id='5-stars' width="92" height="19" viewBox="0 0 92 19">
<path d="M10.0005 15.1832L5.68385 18.479C5.46996 18.654 5.23663 18.7365 4.98385 18.7264C4.73108 18.717 4.50747 18.6443 4.31302 18.5082C4.11858 18.3721 3.96808 18.1874 3.86152 17.954C3.75419 17.7207 3.74913 17.4679 3.84635 17.1957L5.50885 11.7999L1.27969 8.7957C1.04635 8.64015 0.900521 8.43598 0.842187 8.1832C0.783854 7.93043 0.793576 7.69709 0.871354 7.4832C0.949132 7.26931 1.08524 7.07954 1.27969 6.91387C1.47413 6.74898 1.70747 6.66654 1.97969 6.66654H7.20052L8.89219 1.06654C8.98941 0.794314 9.1403 0.585092 9.34485 0.43887C9.54863 0.293426 9.76719 0.220703 10.0005 0.220703C10.2339 0.220703 10.4524 0.293426 10.6562 0.43887C10.8607 0.585092 11.0116 0.794314 11.1089 1.06654L12.8005 6.66654H18.0214C18.2936 6.66654 18.5269 6.74898 18.7214 6.91387C18.9158 7.07954 19.0519 7.26931 19.1297 7.4832C19.2075 7.69709 19.2172 7.93043 19.1589 8.1832C19.1005 8.43598 18.9547 8.64015 18.7214 8.7957L14.4922 11.7999L16.1547 17.1957C16.2519 17.4679 16.2472 17.7207 16.1407 17.954C16.0334 18.1874 15.8825 18.3721 15.688 18.5082C15.4936 18.6443 15.27 18.717 15.0172 18.7264C14.7644 18.7365 14.5311 18.654 14.3172 18.479L10.0005 15.1832Z" fill="#FFBB54"/>
<path d="M28.0005 15.1832L23.6839 18.479C23.47 18.654 23.2366 18.7365 22.9839 18.7264C22.7311 18.717 22.5075 18.6443 22.313 18.5082C22.1186 18.3721 21.9681 18.1874 21.8615 17.954C21.7542 17.7207 21.7491 17.4679 21.8464 17.1957L23.5089 11.7999L19.2797 8.7957C19.0464 8.64015 18.9005 8.43598 18.8422 8.1832C18.7839 7.93043 18.7936 7.69709 18.8714 7.4832C18.9491 7.26931 19.0852 7.07954 19.2797 6.91387C19.4741 6.74898 19.7075 6.66654 19.9797 6.66654H25.2005L26.8922 1.06654C26.9894 0.794314 27.1403 0.585092 27.3449 0.43887C27.5486 0.293426 27.7672 0.220703 28.0005 0.220703C28.2339 0.220703 28.4524 0.293426 28.6562 0.43887C28.8607 0.585092 29.0116 0.794314 29.1089 1.06654L30.8005 6.66654H36.0214C36.2936 6.66654 36.5269 6.74898 36.7214 6.91387C36.9158 7.07954 37.0519 7.26931 37.1297 7.4832C37.2075 7.69709 37.2172 7.93043 37.1589 8.1832C37.1005 8.43598 36.9547 8.64015 36.7214 8.7957L32.4922 11.7999L34.1547 17.1957C34.2519 17.4679 34.2472 17.7207 34.1407 17.954C34.0334 18.1874 33.8825 18.3721 33.688 18.5082C33.4936 18.6443 33.27 18.717 33.0172 18.7264C32.7644 18.7365 32.5311 18.654 32.3172 18.479L28.0005 15.1832Z" fill="#FFBB54"/>
<path d="M46.0005 15.1832L41.6839 18.479C41.47 18.654 41.2366 18.7365 40.9839 18.7264C40.7311 18.717 40.5075 18.6443 40.313 18.5082C40.1186 18.3721 39.9681 18.1874 39.8615 17.954C39.7542 17.7207 39.7491 17.4679 39.8464 17.1957L41.5089 11.7999L37.2797 8.7957C37.0464 8.64015 36.9005 8.43598 36.8422 8.1832C36.7839 7.93043 36.7936 7.69709 36.8714 7.4832C36.9491 7.26931 37.0852 7.07954 37.2797 6.91387C37.4741 6.74898 37.7075 6.66654 37.9797 6.66654H43.2005L44.8922 1.06654C44.9894 0.794314 45.1403 0.585092 45.3449 0.43887C45.5486 0.293426 45.7672 0.220703 46.0005 0.220703C46.2339 0.220703 46.4524 0.293426 46.6562 0.43887C46.8607 0.585092 47.0116 0.794314 47.1089 1.06654L48.8005 6.66654H54.0214C54.2936 6.66654 54.5269 6.74898 54.7214 6.91387C54.9158 7.07954 55.0519 7.26931 55.1297 7.4832C55.2075 7.69709 55.2172 7.93043 55.1589 8.1832C55.1005 8.43598 54.9547 8.64015 54.7214 8.7957L50.4922 11.7999L52.1547 17.1957C52.2519 17.4679 52.2472 17.7207 52.1407 17.954C52.0334 18.1874 51.8825 18.3721 51.688 18.5082C51.4936 18.6443 51.27 18.717 51.0172 18.7264C50.7644 18.7365 50.5311 18.654 50.3172 18.479L46.0005 15.1832Z" fill="#FFBB54"/>
<path d="M64.0005 15.1832L59.6839 18.479C59.47 18.654 59.2366 18.7365 58.9839 18.7264C58.7311 18.717 58.5075 18.6443 58.313 18.5082C58.1186 18.3721 57.9681 18.1874 57.8615 17.954C57.7542 17.7207 57.7491 17.4679 57.8464 17.1957L59.5089 11.7999L55.2797 8.7957C55.0464 8.64015 54.9005 8.43598 54.8422 8.1832C54.7839 7.93043 54.7936 7.69709 54.8714 7.4832C54.9491 7.26931 55.0852 7.07954 55.2797 6.91387C55.4741 6.74898 55.7075 6.66654 55.9797 6.66654H61.2005L62.8922 1.06654C62.9894 0.794314 63.1403 0.585092 63.3449 0.43887C63.5486 0.293426 63.7672 0.220703 64.0005 0.220703C64.2339 0.220703 64.4524 0.293426 64.6562 0.43887C64.8607 0.585092 65.0116 0.794314 65.1089 1.06654L66.8005 6.66654H72.0214C72.2936 6.66654 72.5269 6.74898 72.7214 6.91387C72.9158 7.07954 73.0519 7.26931 73.1297 7.4832C73.2075 7.69709 73.2172 7.93043 73.1589 8.1832C73.1005 8.43598 72.9547 8.64015 72.7214 8.7957L68.4922 11.7999L70.1547 17.1957C70.2519 17.4679 70.2472 17.7207 70.1407 17.954C70.0334 18.1874 69.8825 18.3721 69.688 18.5082C69.4936 18.6443 69.27 18.717 69.0172 18.7264C68.7644 18.7365 68.5311 18.654 68.3172 18.479L64.0005 15.1832Z" fill="#FFBB54"/>
<path d="M82.0005 15.1832L77.6839 18.479C77.47 18.654 77.2366 18.7365 76.9839 18.7264C76.7311 18.717 76.5075 18.6443 76.313 18.5082C76.1186 18.3721 75.9681 18.1874 75.8615 17.954C75.7542 17.7207 75.7491 17.4679 75.8464 17.1957L77.5089 11.7999L73.2797 8.7957C73.0464 8.64015 72.9005 8.43598 72.8422 8.1832C72.7839 7.93043 72.7936 7.69709 72.8714 7.4832C72.9491 7.26931 73.0852 7.07954 73.2797 6.91387C73.4741 6.74898 73.7075 6.66654 73.9797 6.66654H79.2005L80.8922 1.06654C80.9894 0.794314 81.1403 0.585092 81.3449 0.43887C81.5486 0.293426 81.7672 0.220703 82.0005 0.220703C82.2339 0.220703 82.4524 0.293426 82.6562 0.43887C82.8607 0.585092 83.0116 0.794314 83.1089 1.06654L84.8005 6.66654H90.0214C90.2936 6.66654 90.5269 6.74898 90.7214 6.91387C90.9158 7.07954 91.0519 7.26931 91.1297 7.4832C91.2075 7.69709 91.2172 7.93043 91.1589 8.1832C91.1005 8.43598 90.9547 8.64015 90.7214 8.7957L86.4922 11.7999L88.1547 17.1957C88.2519 17.4679 88.2472 17.7207 88.1407 17.954C88.0334 18.1874 87.8825 18.3721 87.688 18.5082C87.4936 18.6443 87.27 18.717 87.0172 18.7264C86.7644 18.7365 86.5311 18.654 86.3172 18.479L82.0005 15.1832Z" fill="#FFBB54"/>
</symbol>

<symbol id='4-stars' width="92" height="19" viewBox="0 0 92 19">
<path d="M79.3958 14.2042L82.1958 12.0458L84.9958 14.2042L83.9458 10.6458L86.5708 8.77917H83.3042L82.1958 5.1625L81.0875 8.77917H77.8208L80.4458 10.6458L79.3958 14.2042ZM82.1958 14.9625L77.8792 18.2583C77.6653 18.4333 77.4319 18.5158 77.1792 18.5057C76.9264 18.4963 76.7028 18.4236 76.5083 18.2875C76.3139 18.1514 76.1634 17.9667 76.0568 17.7333C75.9495 17.5 75.9444 17.2472 76.0417 16.975L77.7042 11.5792L73.475 8.575C73.2417 8.41944 73.0958 8.21528 73.0375 7.9625C72.9792 7.70972 72.9889 7.47639 73.0667 7.2625C73.1444 7.04861 73.2806 6.85883 73.475 6.69317C73.6694 6.52828 73.9028 6.44583 74.175 6.44583H79.3958L81.0875 0.845833C81.1847 0.573611 81.3356 0.364389 81.5402 0.218167C81.7439 0.0727225 81.9625 0 82.1958 0C82.4292 0 82.6477 0.0727225 82.8515 0.218167C83.0561 0.364389 83.2069 0.573611 83.3042 0.845833L84.9958 6.44583H90.2167C90.4889 6.44583 90.7222 6.52828 90.9167 6.69317C91.1111 6.85883 91.2472 7.04861 91.325 7.2625C91.4028 7.47639 91.4125 7.70972 91.3542 7.9625C91.2958 8.21528 91.15 8.41944 90.9167 8.575L86.6875 11.5792L88.35 16.975C88.4472 17.2472 88.4426 17.5 88.336 17.7333C88.2287 17.9667 88.0778 18.1514 87.8833 18.2875C87.6889 18.4236 87.4653 18.4963 87.2125 18.5057C86.9597 18.5158 86.7264 18.4333 86.5125 18.2583L82.1958 14.9625Z" fill="#FFBB54"/>
<path d="M10.0005 14.9625L5.68385 18.2583C5.46996 18.4333 5.23663 18.5158 4.98385 18.5057C4.73108 18.4963 4.50747 18.4236 4.31302 18.2875C4.11858 18.1514 3.96808 17.9667 3.86152 17.7333C3.75419 17.5 3.74913 17.2472 3.84635 16.975L5.50885 11.5792L1.27969 8.575C1.04635 8.41944 0.900521 8.21528 0.842187 7.9625C0.783854 7.70972 0.793576 7.47639 0.871354 7.2625C0.949132 7.04861 1.08524 6.85883 1.27969 6.69317C1.47413 6.52828 1.70747 6.44583 1.97969 6.44583H7.20052L8.89219 0.845833C8.98941 0.573611 9.1403 0.364389 9.34485 0.218167C9.54863 0.0727225 9.76719 0 10.0005 0C10.2339 0 10.4524 0.0727225 10.6562 0.218167C10.8607 0.364389 11.0116 0.573611 11.1089 0.845833L12.8005 6.44583H18.0214C18.2936 6.44583 18.5269 6.52828 18.7214 6.69317C18.9158 6.85883 19.0519 7.04861 19.1297 7.2625C19.2075 7.47639 19.2172 7.70972 19.1589 7.9625C19.1005 8.21528 18.9547 8.41944 18.7214 8.575L14.4922 11.5792L16.1547 16.975C16.2519 17.2472 16.2472 17.5 16.1407 17.7333C16.0334 17.9667 15.8825 18.1514 15.688 18.2875C15.4936 18.4236 15.27 18.4963 15.0172 18.5057C14.7644 18.5158 14.5311 18.4333 14.3172 18.2583L10.0005 14.9625Z" fill="#FFBB54"/>
<path d="M28.0005 14.9625L23.6839 18.2583C23.47 18.4333 23.2366 18.5158 22.9839 18.5057C22.7311 18.4963 22.5075 18.4236 22.313 18.2875C22.1186 18.1514 21.9681 17.9667 21.8615 17.7333C21.7542 17.5 21.7491 17.2472 21.8464 16.975L23.5089 11.5792L19.2797 8.575C19.0464 8.41944 18.9005 8.21528 18.8422 7.9625C18.7839 7.70972 18.7936 7.47639 18.8714 7.2625C18.9491 7.04861 19.0852 6.85883 19.2797 6.69317C19.4741 6.52828 19.7075 6.44583 19.9797 6.44583H25.2005L26.8922 0.845833C26.9894 0.573611 27.1403 0.364389 27.3449 0.218167C27.5486 0.0727225 27.7672 0 28.0005 0C28.2339 0 28.4524 0.0727225 28.6562 0.218167C28.8607 0.364389 29.0116 0.573611 29.1089 0.845833L30.8005 6.44583H36.0214C36.2936 6.44583 36.5269 6.52828 36.7214 6.69317C36.9158 6.85883 37.0519 7.04861 37.1297 7.2625C37.2075 7.47639 37.2172 7.70972 37.1589 7.9625C37.1005 8.21528 36.9547 8.41944 36.7214 8.575L32.4922 11.5792L34.1547 16.975C34.2519 17.2472 34.2472 17.5 34.1407 17.7333C34.0334 17.9667 33.8825 18.1514 33.688 18.2875C33.4936 18.4236 33.27 18.4963 33.0172 18.5057C32.7644 18.5158 32.5311 18.4333 32.3172 18.2583L28.0005 14.9625Z" fill="#FFBB54"/>
<path d="M46.0005 14.9625L41.6839 18.2583C41.47 18.4333 41.2366 18.5158 40.9839 18.5057C40.7311 18.4963 40.5075 18.4236 40.313 18.2875C40.1186 18.1514 39.9681 17.9667 39.8615 17.7333C39.7542 17.5 39.7491 17.2472 39.8464 16.975L41.5089 11.5792L37.2797 8.575C37.0464 8.41944 36.9005 8.21528 36.8422 7.9625C36.7839 7.70972 36.7936 7.47639 36.8714 7.2625C36.9491 7.04861 37.0852 6.85883 37.2797 6.69317C37.4741 6.52828 37.7075 6.44583 37.9797 6.44583H43.2005L44.8922 0.845833C44.9894 0.573611 45.1403 0.364389 45.3449 0.218167C45.5486 0.0727225 45.7672 0 46.0005 0C46.2339 0 46.4524 0.0727225 46.6562 0.218167C46.8607 0.364389 47.0116 0.573611 47.1089 0.845833L48.8005 6.44583H54.0214C54.2936 6.44583 54.5269 6.52828 54.7214 6.69317C54.9158 6.85883 55.0519 7.04861 55.1297 7.2625C55.2075 7.47639 55.2172 7.70972 55.1589 7.9625C55.1005 8.21528 54.9547 8.41944 54.7214 8.575L50.4922 11.5792L52.1547 16.975C52.2519 17.2472 52.2472 17.5 52.1407 17.7333C52.0334 17.9667 51.8825 18.1514 51.688 18.2875C51.4936 18.4236 51.27 18.4963 51.0172 18.5057C50.7644 18.5158 50.5311 18.4333 50.3172 18.2583L46.0005 14.9625Z" fill="#FFBB54"/>
<path d="M64.0005 14.9625L59.6839 18.2583C59.47 18.4333 59.2366 18.5158 58.9839 18.5057C58.7311 18.4963 58.5075 18.4236 58.313 18.2875C58.1186 18.1514 57.9681 17.9667 57.8615 17.7333C57.7542 17.5 57.7491 17.2472 57.8464 16.975L59.5089 11.5792L55.2797 8.575C55.0464 8.41944 54.9005 8.21528 54.8422 7.9625C54.7839 7.70972 54.7936 7.47639 54.8714 7.2625C54.9491 7.04861 55.0852 6.85883 55.2797 6.69317C55.4741 6.52828 55.7075 6.44583 55.9797 6.44583H61.2005L62.8922 0.845833C62.9894 0.573611 63.1403 0.364389 63.3449 0.218167C63.5486 0.0727225 63.7672 0 64.0005 0C64.2339 0 64.4524 0.0727225 64.6562 0.218167C64.8607 0.364389 65.0116 0.573611 65.1089 0.845833L66.8005 6.44583H72.0214C72.2936 6.44583 72.5269 6.52828 72.7214 6.69317C72.9158 6.85883 73.0519 7.04861 73.1297 7.2625C73.2075 7.47639 73.2172 7.70972 73.1589 7.9625C73.1005 8.21528 72.9547 8.41944 72.7214 8.575L68.4922 11.5792L70.1547 16.975C70.2519 17.2472 70.2472 17.5 70.1407 17.7333C70.0334 17.9667 69.8825 18.1514 69.688 18.2875C69.4936 18.4236 69.27 18.4963 69.0172 18.5057C68.7644 18.5158 68.5311 18.4333 68.3172 18.2583L64.0005 14.9625Z" fill="#FFBB54"/>
</symbol>

<symbol id='map-marker' width="30" height="40" viewBox="0 0 30 40">
<path d="M13.4584 39.193C2.10703 22.7368 0 21.0479 0 15C0 6.7157 6.7157 0 15 0C23.2843 0 30 6.7157 30 15C30 21.0479 27.893 22.7368 16.5416 39.193C15.7966 40.2691 14.2033 40.269 13.4584 39.193ZM15 21.25C18.4518 21.25 21.25 18.4518 21.25 15C21.25 11.5482 18.4518 8.75 15 8.75C11.5482 8.75 8.75 11.5482 8.75 15C8.75 18.4518 11.5482 21.25 15 21.25Z" fill="black"/>
</symbol>

<symbol id='payment-bitcoin' width="60" height="46" viewBox="0 0 60 46">
<path d="M32.6558 18.2648L33.1958 16.1106L31.8778 15.7841L31.3538 17.8805C31.0026 17.7947 30.6506 17.7124 30.2978 17.6337L30.8258 15.5233L29.5117 15.1968L28.9718 17.349C28.6911 17.2867 28.4111 17.2216 28.1318 17.1538V17.1459L26.3158 16.6939L25.9657 18.0955C25.9657 18.0955 26.9417 18.3185 26.9217 18.3325C27.4557 18.4639 27.5517 18.8162 27.5357 19.093L26.9217 21.5478C26.968 21.5594 27.0134 21.574 27.0578 21.5916L26.9177 21.5557L26.0578 24.994C25.9918 25.1533 25.8278 25.3962 25.4538 25.3046C25.4678 25.3245 24.4977 25.0657 24.4977 25.0657L23.8438 26.5669L25.5578 26.9929L26.4958 27.2318L25.9517 29.4119L27.2657 29.7384L27.8057 27.5842C28.1657 27.6798 28.5137 27.7694 28.8557 27.855L28.3158 29.9992L29.6357 30.3257L30.1798 28.1516C32.4238 28.5757 34.1137 28.4045 34.8237 26.3837C35.3958 24.7551 34.7958 23.8154 33.6138 23.2042C34.4738 23.0051 35.1218 22.4437 35.2938 21.279C35.5338 19.6903 34.3178 18.8342 32.6538 18.2648H32.6558ZM32.2858 25.4778C31.8798 27.1064 29.1257 26.2264 28.2337 26.0054L28.9578 23.1206C29.8498 23.3416 32.7118 23.7816 32.2858 25.4778ZM32.6937 21.2571C32.3217 22.7364 30.0318 21.9838 29.2878 21.7986L29.9438 19.1826C30.6858 19.3677 33.0797 19.7102 32.6937 21.2551V21.2571Z" fill="#DBDFEA"/>
<path d="M56 0.333496H4C1.794 0.333496 0 2.16827 0 4.42441V41.2426C0 43.4987 1.794 45.3335 4 45.3335H56C58.206 45.3335 60 43.4987 60 41.2426V4.42441C60 2.16827 58.206 0.333496 56 0.333496ZM41.64 25.8015C41.2889 27.3971 40.6295 28.905 39.7005 30.2363C38.7715 31.5676 37.5917 32.6956 36.2304 33.554C34.8691 34.4123 33.3537 34.9838 31.7734 35.2346C30.1931 35.4855 28.5797 35.4108 27.028 35.0149C25.4763 34.619 24.0176 33.9098 22.7377 32.9291C21.4578 31.9485 20.3825 30.716 19.575 29.3043C18.7674 27.8925 18.244 26.3299 18.0353 24.7083C17.8267 23.0867 17.9371 21.4388 18.36 19.8614C19.1908 16.7723 21.1699 14.1379 23.8744 12.521C26.579 10.9041 29.7945 10.433 32.8341 11.2083C35.8737 11.9836 38.4964 13.9439 40.1418 16.6702C41.7872 19.3966 42.3249 22.673 41.64 25.7994V25.8015Z" fill="#DBDFEA"/>
</symbol>

<symbol id='payment-paypal' width="60" height="46" viewBox="0 0 60 46" >
<path d="M56 0.333496H4C1.794 0.333496 0 2.16827 0 4.42441V41.2426C0 43.4987 1.794 45.3335 4 45.3335H56C58.206 45.3335 60 43.4987 60 41.2426V4.42441C60 2.16827 58.206 0.333496 56 0.333496ZM36 28.9699H34.882L33.992 36.2558C33.9618 36.5031 33.8443 36.7306 33.6616 36.8956C33.479 37.0605 33.2437 37.1516 33 37.1517H25.146C24.8602 37.1517 24.5778 37.0891 24.3176 36.9681C24.0575 36.8471 23.8258 36.6704 23.638 36.4501C23.3329 36.0731 23.1722 35.5954 23.186 35.1062H18.18C17.8897 35.1061 17.6029 35.0413 17.3395 34.9164C17.0761 34.7915 16.8425 34.6094 16.6548 34.3829C16.4672 34.1563 16.33 33.8907 16.2529 33.6044C16.1757 33.3182 16.1604 33.0182 16.208 32.7253L19.874 10.2253C19.9509 9.74734 20.1914 9.31291 20.5527 8.99964C20.914 8.68638 21.3724 8.51471 21.846 8.51531H33C35.808 8.51531 38.218 10.2253 39.332 12.6717C43.058 12.9989 46 16.149 46 20.021C46 25.2062 41.794 28.9699 36 28.9699Z" fill="#DBDFEA"/>
<path d="M38.6362 13.0288H27.8762C26.8802 13.0288 26.0302 13.7694 25.8962 14.7509L24.6502 23.8454C24.6305 23.9862 24.6413 24.1295 24.682 24.2657C24.7228 24.4019 24.7924 24.5278 24.8863 24.6348C24.9802 24.7419 25.0961 24.8276 25.2262 24.8862C25.3563 24.9447 25.4975 24.9748 25.6402 24.9743H31.0042C35.9662 24.9743 40.0042 20.9546 40.0042 16.0152C40.0042 15.2546 39.8642 14.4941 39.5802 13.6918C39.5111 13.4976 39.3832 13.3296 39.2141 13.2109C39.0451 13.0921 38.8431 13.0285 38.6362 13.0288V13.0288Z" fill="#DBDFEA"/>
</symbol>

<symbol id='payment-bank-transfer'  width="60" height="45" viewBox="0 0 60 45">
<path fill-rule="evenodd" clip-rule="evenodd" d="M5 0C2.23858 0 0 2.23858 0 5V40C0 42.7614 2.23858 45 5 45H55C57.7614 45 60 42.7614 60 40V5C60 2.23858 57.7614 0 55 0H5ZM26.1705 31.4691H22.7855L22.1479 33.3579H20.1309L23.3979 24.1853H25.6073L28.8399 33.3567H26.7588L26.1705 31.4691ZM24.498 26.2561H24.4717L23.2961 29.8825H25.6336L24.498 26.2561ZM18.1574 28.4184C19.2815 28.8385 19.5746 29.7326 19.5746 30.6403C19.5746 31.3649 19.2678 32.0575 18.7836 32.528C18.2605 33.042 17.7625 33.3613 15.884 33.3613H12V24.1876H16.4575C18.7069 24.1876 19.2815 25.5944 19.2815 26.54C19.2815 27.8564 18.541 28.2266 18.1584 28.4179L18.1574 28.4184ZM16.0386 25.7741H13.8407V27.7797H16.0878C16.8444 27.7797 17.4431 27.4866 17.4431 26.7563C17.4431 26.0031 16.9063 25.7741 16.0386 25.7741ZM13.8407 31.7759H16.1897C17.1215 31.7759 17.6583 31.3649 17.6595 30.4343C17.6595 29.633 16.9715 29.3228 16.2801 29.3228H13.8407V31.7759ZM47.548 33.3567L43.5885 27.9434L47.3317 24.1853H44.8545L41.3528 27.9148V24.1853H39.4366V33.3567H41.3528V30.2534L42.2469 29.3331L45.0823 33.3567H47.548ZM19.5357 37.2602C19.9214 37.4296 20.1321 37.5739 20.1321 38.4507C20.1321 39.1364 20.1321 39.3081 20.3416 39.3871V39.5096H19.2552C19.19 39.2898 19.1522 39.0448 19.1522 38.5618C19.1522 37.923 19.1121 37.6735 18.3852 37.6735H17.3722V39.5107H16.4083V34.8128H18.7847C20.0348 34.8128 20.2626 35.7343 20.2626 36.1396C20.2626 36.6604 20.0004 37.1034 19.5357 37.2602ZM17.371 36.8836H18.5192C19.032 36.8836 19.2793 36.7016 19.2804 36.2391C19.2804 35.9885 19.1682 35.6244 18.5936 35.6244H17.371V36.8836ZM21.6926 15.7882C21.6965 15.9229 21.7001 16.0462 21.7038 16.1574C21.7164 16.5729 21.7198 16.811 21.7198 16.811C21.7198 16.811 21.7644 16.5763 21.84 16.1677C21.8694 16.0099 21.9044 15.8271 21.9438 15.6209C21.955 15.5624 21.9666 15.5019 21.9785 15.4396C22.0053 15.2621 22.0734 15.0777 22.1453 14.8829C22.187 14.77 22.23 14.6536 22.267 14.533C22.3746 14.2045 22.4993 13.8542 22.7054 13.5177C22.7415 13.4518 22.777 13.3849 22.8128 13.3175C22.9627 13.0349 23.117 12.7442 23.3407 12.4863C23.4655 12.3226 23.5937 12.1532 23.7208 11.9849C23.8043 11.8827 23.9026 11.7895 24.0006 11.6966C24.0596 11.6406 24.1185 11.5847 24.1741 11.527C24.4643 11.2105 24.8184 10.9544 25.1692 10.7007L25.1711 10.6994C25.3885 10.5265 25.6366 10.3902 25.8806 10.2562C26.0131 10.1834 26.1444 10.1112 26.2689 10.0343C26.4199 9.97379 26.5642 9.90767 26.7064 9.84249C26.9436 9.73376 27.1751 9.62765 27.4228 9.55465C27.8005 9.41728 28.1726 9.30167 28.5366 9.21925C28.772 9.15068 29.0084 9.10747 29.2317 9.06666C29.3439 9.04615 29.4528 9.02625 29.5565 9.00404C29.7557 8.97542 29.9389 8.95138 30.1151 8.92963C30.109 8.94544 30.1027 8.96104 30.0964 8.97659C30.0818 9.01284 30.0673 9.04881 30.0545 9.08646C29.8736 9.58212 29.7328 10.103 29.6344 10.6513C29.5897 10.9295 29.5531 11.2111 29.5245 11.4984C29.5016 11.7903 29.497 12.0925 29.5176 12.4107C29.8164 12.2962 30.0877 12.1669 30.3452 12.0261C30.5936 11.8807 30.8375 11.7296 31.0698 11.5739C31.5312 11.2568 31.9467 10.9123 32.3222 10.5437C33.0823 9.80878 33.7107 8.98801 34.2384 8.10544L34.306 7.99326C34.6299 7.44494 34.5921 6.7272 34.156 6.21322C33.5813 5.5344 32.9483 4.90137 32.2043 4.35306C31.8357 4.07603 31.4419 3.82076 31.0103 3.59182C30.5765 3.36516 30.1312 3.14881 29.5989 3C29.608 3.5529 29.7042 4.0394 29.8175 4.5156C29.9251 4.97807 30.0705 5.41192 30.2399 5.8286C29.8347 5.94765 29.3425 6.11477 28.7884 6.32998C28.6779 6.3794 28.5642 6.42729 28.4481 6.47618C28.1877 6.58583 27.9154 6.70048 27.6414 6.84854C27.2396 7.04085 26.8321 7.27437 26.4189 7.53537C26.1386 7.69344 25.8711 7.89582 25.6021 8.09937C25.4678 8.20095 25.3331 8.30283 25.1963 8.39963C25.0736 8.51635 24.9469 8.62789 24.8204 8.73936C24.5609 8.96788 24.3018 9.19604 24.0779 9.46765C23.7333 9.85456 23.3968 10.2415 23.1369 10.6811C23.0898 10.7577 23.04 10.8323 22.9905 10.9065C22.9017 11.0396 22.8137 11.1714 22.7432 11.3118C22.6457 11.5172 22.5522 11.7217 22.4608 11.9215L22.4387 11.97C22.2514 12.3188 22.1494 12.6892 22.0529 13.0398C22.0338 13.1092 22.0149 13.1777 21.9957 13.2452C21.8572 13.6504 21.8079 14.0477 21.7702 14.414C21.759 14.5454 21.742 14.6714 21.7255 14.7927C21.6963 15.0083 21.6691 15.2091 21.6809 15.3996C21.6852 15.538 21.689 15.6677 21.6926 15.7882ZM15.8222 34.8128H12.0011V35.6473H13.4206V39.513H14.3993V35.6473H15.8222V34.8128ZM20.638 39.5107L22.3128 34.8128H23.4472L25.1013 39.5107H24.0344L23.7322 38.5412H21.9991L21.6729 39.5107H20.638ZM22.8657 35.874L22.2624 37.7307H23.4609L22.8748 35.874H22.8657ZM30.1265 19.3653C30.3881 19.2456 30.6626 19.12 30.9382 18.9608C31.332 18.7582 31.7349 18.5121 32.1344 18.2385C32.4078 18.0729 32.668 17.8641 32.9302 17.6537C33.0633 17.5469 33.1969 17.4397 33.3329 17.3376C33.4506 17.2192 33.5723 17.1053 33.694 16.9914C33.9478 16.7538 34.2019 16.516 34.4193 16.2375C34.7524 15.8403 35.0752 15.4454 35.3225 14.9978C35.3668 14.9208 35.4133 14.8457 35.4595 14.7711C35.5445 14.634 35.6286 14.4983 35.6968 14.3544C35.7229 14.2933 35.749 14.2322 35.775 14.1714C35.8448 14.0081 35.9139 13.8464 35.9807 13.6871C36.1557 13.3352 36.2469 12.9635 36.3332 12.6122C36.3507 12.5406 36.3681 12.4699 36.3859 12.4004C36.5095 11.9929 36.5507 11.5934 36.5759 11.2271C36.584 11.1044 36.5965 10.986 36.6085 10.8718C36.6323 10.646 36.6545 10.436 36.6377 10.2392C36.6189 9.95725 36.6055 9.70949 36.5943 9.50312L36.5931 9.48139C36.5713 9.067 36.553 8.83119 36.553 8.83119C36.553 8.83119 36.5198 9.06586 36.45 9.47681C36.428 9.61101 36.404 9.76429 36.3774 9.93466C36.3638 10.0215 36.3495 10.1128 36.3344 10.2083C36.3126 10.3868 36.2499 10.5731 36.1836 10.7702C36.1453 10.884 36.1058 11.0014 36.0723 11.1229C35.9772 11.4549 35.8639 11.8075 35.667 12.1509C35.6345 12.215 35.6026 12.28 35.5705 12.3455C35.4284 12.6349 35.2822 12.9326 35.0638 13.2006C35.0322 13.2451 35.0005 13.2899 34.9686 13.3349C34.8799 13.4599 34.7901 13.5866 34.7009 13.7145C34.6156 13.8221 34.5164 13.9215 34.4169 14.0211C34.3628 14.0752 34.3087 14.1294 34.2567 14.185C33.9774 14.509 33.6306 14.778 33.286 15.0413C33.0766 15.2204 32.8332 15.3631 32.5932 15.5038C32.462 15.5807 32.3318 15.6571 32.2088 15.7384C32.0619 15.8025 31.9215 15.8721 31.7829 15.9409C31.5478 16.0574 31.318 16.1713 31.071 16.2512C30.6989 16.4012 30.3292 16.5271 29.9675 16.6198C29.7293 16.6979 29.4896 16.7488 29.2632 16.7969C29.1576 16.8194 29.055 16.8412 28.9567 16.8648C28.7587 16.9003 28.5744 16.9301 28.4004 16.9564C28.4099 16.9242 28.4216 16.8933 28.4333 16.8622C28.4412 16.8412 28.4491 16.8201 28.4564 16.7984C28.6213 16.2959 28.7472 15.7716 28.8296 15.221C28.8651 14.9417 28.8914 14.6589 28.912 14.3705C28.9269 14.0786 28.9223 13.7752 28.8937 13.4593C28.5984 13.5806 28.3305 13.7191 28.0775 13.8679C27.8314 14.0202 27.5968 14.1782 27.3667 14.3407C26.9179 14.6715 26.5127 15.0275 26.1487 15.4087C25.4115 16.1654 24.8082 17.0045 24.3069 17.9031L24.2416 18.0153C23.9337 18.5739 23.9932 19.2893 24.4454 19.7907C25.0406 20.4512 25.6931 21.0659 26.4509 21.5913C26.8264 21.8581 27.2282 22.1007 27.6689 22.316C28.1073 22.5289 28.5583 22.7326 29.0975 22.8643C29.0689 22.3137 28.9567 21.8306 28.8342 21.3578C28.7117 20.8988 28.5549 20.4684 28.3717 20.0574C28.7747 19.9258 29.2589 19.7449 29.8072 19.5137C29.9108 19.4639 30.0175 19.4151 30.1265 19.3653ZM38.1762 34.8128H34.8337V39.5142H35.8158V37.5384H37.8832V36.7073H35.8158V35.6473H38.1762V34.8128ZM29.5187 34.8128H28.6018L28.6007 38.0833H28.5892L26.7222 34.8128H25.6897V39.5107H26.6043V36.1602H26.6192L28.5354 39.5107H29.5187V34.8128ZM46.3301 37.2602C46.7135 37.4296 46.9265 37.5739 46.9265 38.4507C46.9265 39.1364 46.9265 39.3081 47.1359 39.3871V39.5096H46.053C45.9866 39.2898 45.9489 39.0448 45.9489 38.5618C45.9489 37.923 45.9065 37.6735 45.1819 37.6735H44.1688V39.5107H43.205V34.8128H45.5791C46.8292 34.8128 47.0592 35.7343 47.0592 36.1396C47.0592 36.6604 46.7925 37.1034 46.3301 37.2602ZM44.1677 36.8836H45.317C45.8287 36.8836 46.0771 36.7016 46.0771 36.2391C46.0771 35.9885 45.9649 35.6244 45.388 35.6244H44.1677V36.8836ZM32.2329 39.6355C32.6427 39.6355 34.0839 39.5073 34.0839 38.0982C34.0839 37.2545 33.4944 36.9901 32.8545 36.8344L31.712 36.5528C31.5151 36.5059 31.2129 36.4269 31.2129 36.0606C31.2129 35.6359 31.6605 35.4997 32.0314 35.4997C32.8899 35.4997 32.9689 35.9953 32.9953 36.2048H33.9339C33.9271 35.629 33.5424 34.688 32.1024 34.688C30.5776 34.688 30.2972 35.6096 30.2972 36.1327C30.2972 37.1675 31.0286 37.3404 31.7887 37.5144L32.2913 37.6334C32.7869 37.7536 33.1418 37.8498 33.1418 38.2184C33.1418 38.7094 32.6232 38.8239 32.1619 38.8239C31.3034 38.8239 31.1717 38.3271 31.1648 38.065H30.2262C30.2262 38.6499 30.5181 39.6355 32.2329 39.6355ZM42.4014 38.6797H39.7972V37.4663H42.0866V36.6352H39.7972V35.6485H42.2915V34.8151H38.8356V39.513H42.4014V38.6797ZM29.9801 33.3613H31.7681L31.7704 26.8227H31.7944L35.5388 33.3625H37.4528V24.1887H35.6647V30.5751H35.6407L31.9982 24.1887H29.9801V33.3613Z" fill="#DBDFEA"/>
</symbol>

<symbol id='payment-webmoney' width="60" height="45" viewBox="0 0 60 45" >
<path fill-rule="evenodd" clip-rule="evenodd" d="M5 0C2.23858 0 0 2.23858 0 5V40C0 42.7614 2.23858 45 5 45H55C57.7614 45 60 42.7614 60 40V5C60 2.23858 57.7614 0 55 0H5ZM13.8867 16.2666C12.8671 15.7761 11.75 15.5216 10.6185 15.5221C6.5123 15.5221 3.17292 18.8371 3.18755 22.8688C3.18755 26.9277 6.52692 30.2281 10.6434 30.2368C11.927 30.2379 13.1893 29.9092 14.3094 29.2823C14.6589 29.0858 14.9855 28.8601 15.2844 28.6359L13.7731 26.9491L12.0405 28.5223L9.11311 25.3048L9.92236 24.6028L7.87583 22.3408L8.68509 21.6388L6.61077 19.3768L9.8507 16.4971L10.8881 17.6072L12.6499 16.0618L13.6722 17.1148L14.3547 16.5103L13.8867 16.2666ZM11.03 20.8461L9.25351 22.4193L10.8452 24.1753L12.6216 22.6021L11.03 20.8461ZM12.2804 23.8662L10.5186 25.4535L12.1098 27.1943L13.8862 25.6212L12.2804 23.8662ZM9.7649 17.8553L7.98942 19.4285L9.57965 21.1844L11.3561 19.6113L9.7649 17.8553ZM12.5588 17.4053L11.2425 18.5851L12.4369 19.9062L13.7531 18.7118L12.5588 17.4053ZM14.9183 22.8132L13.602 23.9929L14.7959 25.3126L16.1126 24.1333L14.9183 22.8132ZM16.0883 25.4681L14.772 26.6479L15.9649 27.968L17.2812 26.7746L16.0883 25.4681ZM16.1936 19.797L15.3126 20.5838L16.1082 21.4545L16.9892 20.6682L16.1936 19.797ZM15.0567 17.185L14.1758 17.9855L14.9714 18.8566L15.8528 18.0698L15.0567 17.185ZM17.3158 22.3964L16.4349 23.1832L17.23 24.0539L18.125 23.2675L17.3158 22.3964ZM13.7868 20.051L12.4705 21.2308L13.6639 22.5373L14.9802 21.3575L13.7868 20.051ZM22.3716 19.2642H21.6579L20.6152 23.5215H20.5591L19.6611 19.2588H18.7632L20.0672 24.9713H20.9325L21.9914 20.9504H22.0479L23.138 24.9713H24.0038L25.2981 19.2642H24.3602L23.5421 23.5269H23.4861L22.3716 19.2642ZM28.2728 22.5451H26.4413C26.529 21.7402 26.9064 21.3614 27.3953 21.3614C27.8243 21.3614 28.2329 21.6992 28.2728 22.5451ZM28.9178 24.0642V24.0602L28.9236 24.0607C28.9217 24.0619 28.9197 24.063 28.9178 24.0642ZM28.9178 24.6725V24.0642C28.4746 24.3277 28.0803 24.4799 27.6493 24.4799C26.823 24.4799 26.4306 24.0524 26.4306 23.0857H29.0436V22.7873C29.0436 21.4745 28.4259 20.8213 27.4241 20.8213C26.2214 20.8213 25.6043 21.707 25.6043 22.9321C25.6043 24.2045 26.1576 25.043 27.504 25.043C28.0764 25.043 28.557 24.8821 28.9178 24.6725ZM31.6473 24.5316C31.4465 24.5316 31.1657 24.5141 30.9092 24.4019V21.7675C31.23 21.5905 31.4625 21.5018 31.7833 21.5018C32.3205 21.5018 32.6891 21.8318 32.6891 22.8556C32.6891 24.1611 32.2406 24.5316 31.6473 24.5316ZM31.9998 20.8729C31.5659 20.8729 31.1574 21.0426 30.9175 21.1713L30.9126 21.1567V18.8654L30.0839 19.0667V24.7003C30.5698 24.9453 31.1038 25.0802 31.6478 25.0952C32.81 25.0952 33.5315 24.3664 33.5315 22.8551C33.5315 21.5652 32.9943 20.8729 31.9998 20.8729ZM36.8026 24.9738H37.3155L38.9466 20.8276H39.0188V24.9738H39.8943V19.2603H38.8998L37.1838 23.7648H37.1439L35.3484 19.2603H34.3734V24.9738H35.0949V20.929H35.1666L36.8026 24.9738ZM42.4415 21.3853C42.9866 21.3853 43.4273 21.845 43.4273 22.9321C43.4273 24.0363 43.0104 24.479 42.4415 24.479C41.8726 24.479 41.4553 24.0363 41.4553 22.9321C41.4553 21.8445 41.9126 21.3853 42.4415 21.3853ZM42.4415 20.8213C41.3837 20.8213 40.6134 21.5218 40.6134 22.9321C40.6134 24.3093 41.3427 25.043 42.4415 25.043C43.5404 25.043 44.2697 24.3098 44.2697 22.9321C44.2697 21.5218 43.4994 20.8213 42.4415 20.8213ZM46.9377 20.8159C46.0159 20.8159 45.2539 21.1947 44.8932 21.4126L44.9029 24.9421H45.7317V21.7514C45.9798 21.6066 46.3893 21.4613 46.7096 21.4613C47.1191 21.4613 47.4311 21.5744 47.4311 22.2106V24.9421H48.2598V22.0249C48.2598 21.1947 47.8996 20.8159 46.9377 20.8159ZM51.8605 22.5397H50.029C50.1177 21.7348 50.4941 21.356 50.983 21.356C51.412 21.356 51.8215 21.6939 51.8605 22.5397ZM52.5055 24.0585V24.0548L52.5108 24.0553C52.5091 24.0564 52.5073 24.0575 52.5055 24.0585ZM52.5055 24.6671V24.0585C52.0621 24.3223 51.6672 24.4746 51.2365 24.4746C50.4107 24.4746 50.0178 24.047 50.0178 23.0803H52.6317V22.782C52.6317 21.4691 52.0141 20.8159 51.0118 20.8159C49.8091 20.8159 49.1919 21.7017 49.1919 22.9268C49.1919 24.1991 49.7462 25.0376 51.0917 25.0376C51.6641 25.0376 52.1447 24.8768 52.5055 24.6671ZM56.8125 20.8159H55.9623L55.0371 23.7804H54.9883L53.9621 20.8154H53.0846L54.6242 24.8436C54.4272 25.4403 54.0957 25.8757 53.5497 25.8757V26.5357C54.4711 26.5357 54.96 25.9556 55.3613 24.8441L56.8125 20.8159Z" fill="#DBDFEA"/>
</symbol>

<symbol id='payment-visa'  width="60" height="46" viewBox="0 0 60 46">
<path d="M45.0088 20.4609L43.2188 24.8341H46.0188L45.2388 21.4673L45.0088 20.4609Z" fill="#DBDFEA"/>
<path d="M56 0.333496H4C1.794 0.333496 0 2.16827 0 4.4244V41.2426C0 43.4987 1.794 45.3335 4 45.3335H56C58.206 45.3335 60 43.4987 60 41.2426V4.4244C60 2.16827 58.206 0.333496 56 0.333496ZM10.012 17.5767C10.0313 17.4918 10.0787 17.4164 10.1461 17.3631C10.2135 17.3098 10.2968 17.2819 10.382 17.2842L13.918 17.2883H13.932C14.45 17.3087 15.164 17.4274 15.39 18.2271L15.394 18.2455L16.022 21.0437C16.0387 21.1249 16.0266 21.2094 15.9877 21.2822C15.9488 21.3549 15.8858 21.4111 15.81 21.4405C15.7325 21.4737 15.6467 21.4811 15.5649 21.4617C15.483 21.4422 15.4092 21.3969 15.354 21.3321C14.174 19.8655 12.41 18.7037 10.254 17.9715C10.1735 17.9472 10.1045 17.8936 10.0599 17.8209C10.0154 17.7482 9.99832 17.6613 10.012 17.5767ZM18.338 28.9535L15.304 28.9576C15.2256 28.9593 15.1486 28.9357 15.084 28.8902C15.0194 28.8446 14.9704 28.7795 14.944 28.7039L12.308 20.2071C12.262 20.0599 12.322 19.9003 12.456 19.8144C12.59 19.7285 12.768 19.7326 12.896 19.8267C14.796 21.2033 16.156 22.9358 16.66 24.0444C16.6673 24.0595 16.6733 24.0753 16.678 24.0914L17.022 25.2676L20.228 17.5419C20.2585 17.4735 20.3078 17.4158 20.3701 17.3758C20.4323 17.3358 20.5045 17.3153 20.578 17.3169L23.318 17.3149C23.379 17.3137 23.4394 17.3276 23.4941 17.3554C23.5487 17.3832 23.596 17.424 23.632 17.4744C23.702 17.5726 23.714 17.6994 23.664 17.8099L18.684 28.7408C18.6517 28.8059 18.6021 28.8604 18.5409 28.898C18.4797 28.9356 18.4094 28.9549 18.338 28.9535ZM26.568 28.6712C26.5498 28.7574 26.5026 28.8343 26.4346 28.8885C26.3666 28.9427 26.2822 28.9708 26.196 28.9678H23.592C23.538 28.9682 23.4846 28.9571 23.435 28.9353C23.3854 28.9135 23.3408 28.8814 23.304 28.841C23.2691 28.8028 23.2434 28.7569 23.2288 28.7069C23.2143 28.6569 23.2112 28.604 23.22 28.5526L25.2 17.5992C25.2186 17.5137 25.2657 17.4376 25.3332 17.3838C25.4007 17.3301 25.4845 17.3021 25.57 17.3046H28.176C28.286 17.3046 28.392 17.3517 28.464 17.4314C28.534 17.5112 28.564 17.6155 28.546 17.7178L26.566 28.6712H26.568ZM35.358 22.0337C37.224 22.8314 38.09 23.799 38.078 25.0815C38.054 27.4153 35.834 28.9249 32.424 28.9269H32.42C31.23 28.9126 29.99 28.7305 29.102 28.436C29.021 28.4121 28.9513 28.3588 28.9061 28.2862C28.8608 28.2135 28.843 28.1264 28.856 28.0412L29.178 26.2617C29.1886 26.2076 29.2112 26.1568 29.2442 26.1131C29.2772 26.0695 29.3195 26.0342 29.368 26.0101C29.4182 25.9843 29.4732 25.9696 29.5293 25.9667C29.5854 25.9639 29.6415 25.9731 29.694 25.9937C30.702 26.3885 31.414 26.5767 32.738 26.5767C33.666 26.5767 34.67 26.2351 34.678 25.4803C34.684 24.9874 34.26 24.6355 32.998 24.0853C31.766 23.5474 30.13 22.6453 30.152 21.0294C30.17 18.8449 32.426 17.3189 35.64 17.3189C36.774 17.3189 37.68 17.5214 38.24 17.6912C38.42 17.7444 38.528 17.9142 38.496 18.088L38.192 19.7776C38.1816 19.8309 38.1594 19.8811 38.1272 19.9243C38.0949 19.9676 38.0535 20.0027 38.006 20.0271C37.957 20.053 37.9033 20.0684 37.8483 20.0723C37.7932 20.0761 37.738 20.0684 37.686 20.0496C36.9508 19.7789 36.1732 19.6492 35.392 19.6671C34.164 19.6671 33.524 20.1519 33.524 20.6305C33.518 21.1624 34.218 21.5101 35.358 22.0337ZM49.922 28.839C49.8854 28.8811 49.8404 28.9147 49.79 28.9376C49.7397 28.9605 49.6851 28.9722 49.63 28.9719H47.276C47.1928 28.9743 47.1112 28.948 47.0444 28.8972C46.9776 28.8463 46.9296 28.7739 46.908 28.6917C46.828 28.3542 46.64 27.5339 46.562 27.2251L44.196 27.223H44.146L42.248 27.221C42.178 27.3908 41.964 27.9164 41.634 28.7428C41.6038 28.8121 41.5543 28.8708 41.4917 28.9115C41.4291 28.9523 41.3562 28.9733 41.282 28.9719H38.582C38.5205 28.9728 38.4597 28.9586 38.4048 28.9305C38.3498 28.9024 38.3022 28.8612 38.266 28.8103C38.2321 28.7618 38.2116 28.7049 38.2067 28.6455C38.2017 28.5861 38.2126 28.5264 38.238 28.4728L43.004 18.2844C43.322 17.6053 43.85 17.3169 44.77 17.3169H47.07C47.246 17.3169 47.398 17.4314 47.436 17.5951L49.996 28.5383C50.0082 28.5908 50.0079 28.6455 49.995 28.6979C49.9821 28.7502 49.9571 28.7986 49.922 28.839Z" fill="#DBDFEA"/>
</symbol>

<symbol id='payment-mastercard' width="60" height="46" viewBox="0 0 60 46">
<path d="M25.9965 18.7428C25.9974 20.4658 26.3542 22.1691 27.0435 23.7413C27.7328 25.3134 28.7391 26.7188 29.9965 27.8656C32.4445 25.6156 33.9965 22.3653 33.9965 18.7428C33.9965 15.1203 32.4445 11.8701 29.9965 9.62012C28.7391 10.7668 27.7328 12.1723 27.0435 13.7444C26.3542 15.3166 25.9974 17.0199 25.9965 18.7428V18.7428ZM40.7765 36.0474C40.0905 36.0474 39.6725 36.5874 39.6725 37.2419C39.6725 37.8965 40.0925 38.4344 40.7765 38.4344C41.4325 38.4344 41.8745 37.919 41.8745 37.2419C41.8745 36.5628 41.4325 36.0494 40.7765 36.0494V36.0474ZM30.0925 36.0106C29.5285 36.0106 29.2085 36.3767 29.1245 36.9147H31.0145C30.9305 36.3378 30.6045 36.0106 30.0945 36.0106H30.0925ZM18.4165 36.0474C17.7325 36.0474 17.3125 36.5874 17.3125 37.2419C17.3125 37.8965 17.7325 38.4344 18.4185 38.4344C19.0725 38.4344 19.5145 37.919 19.5145 37.2419C19.5145 36.5628 19.0745 36.0494 18.4185 36.0494L18.4165 36.0474Z" fill="#DBDFEA"/>
<path d="M56 0.333496H4C1.794 0.333496 0 2.16827 0 4.42441V41.2426C0 43.4987 1.794 45.3335 4 45.3335H56C58.206 45.3335 60 43.4987 60 41.2426V4.42441C60 2.16827 58.206 0.333496 56 0.333496ZM15.8 39.103H15V37.031C15 36.3989 14.74 36.0492 14.2 36.0492C13.674 36.0492 13.308 36.3908 13.308 37.0392V39.1051H12.508V37.029C12.508 36.3969 12.242 36.0471 11.716 36.0471C11.176 36.0471 10.824 36.3887 10.824 37.0371V39.103H10.024V35.3762H10.816V35.8365C10.9315 35.6572 11.0908 35.5119 11.2782 35.415C11.4655 35.3181 11.6744 35.273 11.884 35.2842C12.44 35.2842 12.836 35.5317 13.088 35.9449C13.422 35.4233 13.902 35.274 14.368 35.2821C15.252 35.2903 15.8 35.8835 15.8 36.763V39.101V39.103ZM20.266 37.2417V39.103H19.474V38.653C19.3383 38.8317 19.1627 38.9743 18.9619 39.069C18.761 39.1637 18.5409 39.2076 18.32 39.1971C17.3 39.1971 16.5 38.379 16.5 37.2417C16.5 36.1024 17.3 35.2842 18.32 35.2842C18.84 35.2842 19.22 35.4949 19.472 35.8303V35.3783H20.264V37.2396L20.266 37.2417ZM22.612 39.1971C22.018 39.1971 21.47 39.0417 21.036 38.7144L21.408 38.0824C21.7579 38.3473 22.1848 38.4842 22.62 38.471C23.16 38.471 23.452 38.3074 23.452 38.021C23.452 37.8103 23.246 37.6937 22.812 37.6324L22.438 37.5751C21.622 37.4585 21.18 37.0842 21.18 36.4767C21.18 35.7362 21.774 35.2842 22.696 35.2842C23.276 35.2842 23.802 35.4171 24.182 35.6728L23.84 36.3274C23.4938 36.1247 23.1029 36.0156 22.704 36.0103C22.27 36.0103 22.01 36.174 22.01 36.446C22.01 36.6955 22.286 36.7651 22.63 36.8121L23.002 36.8674C23.794 36.9839 24.274 37.3255 24.274 37.9821C24.274 38.6899 23.664 39.1971 22.614 39.1971H22.612ZM26.812 39.1971C25.874 39.1971 25.546 38.6817 25.546 37.8185V36.1187H24.806V35.3783H25.546V34.2471H26.346V35.3783H27.642V36.1187H26.348V37.8021C26.348 38.1765 26.476 38.426 26.872 38.426C27.1197 38.4177 27.3612 38.3453 27.574 38.2153L27.802 38.9087C27.5051 39.0981 27.1619 39.198 26.812 39.1971V39.1971ZM31.826 37.5526H29.12C29.236 38.2235 29.7 38.4649 30.21 38.4649C30.5957 38.4594 30.9687 38.3226 31.27 38.0762L31.658 38.6755C31.2401 39.0308 30.7091 39.2164 30.166 39.1971C29.076 39.1971 28.298 38.426 28.298 37.2417C28.298 36.0799 29.044 35.2842 30.112 35.2842C31.132 35.2842 31.834 36.0799 31.842 37.2417C31.842 37.3501 31.834 37.4503 31.826 37.5526V37.5526ZM34.722 36.1494C34.5643 36.085 34.3958 36.053 34.226 36.0553C33.708 36.0553 33.45 36.399 33.45 37.0146V39.103H32.656V35.3783H33.442V35.8283C33.5394 35.6577 33.68 35.5171 33.8489 35.4213C34.0179 35.3256 34.2089 35.2782 34.402 35.2842C34.562 35.2842 34.79 35.3149 34.966 35.3864L34.722 36.1494V36.1494ZM37.122 38.4342C37.4671 38.4305 37.8017 38.3128 38.076 38.0987L38.456 38.7533C38.0888 39.0632 37.6215 39.2215 37.146 39.1971C35.972 39.1971 35.202 38.3708 35.202 37.2417C35.202 36.1105 35.972 35.2842 37.146 35.2842C37.694 35.2842 38.06 35.409 38.456 35.728L38.076 36.3826C37.8014 36.1692 37.4668 36.0523 37.122 36.0492C36.49 36.0553 36.026 36.5237 36.026 37.2417C36.026 37.9576 36.49 38.426 37.122 38.4342V38.4342ZM42.624 37.2417V39.103H41.832V38.653C41.6966 38.831 41.5216 38.9732 41.3216 39.0678C41.1215 39.1625 40.9022 39.2068 40.682 39.1971C39.662 39.1971 38.862 38.379 38.862 37.2417C38.862 36.1024 39.662 35.2842 40.682 35.2842C40.9024 35.2746 41.1219 35.3191 41.322 35.4142C41.5221 35.5092 41.697 35.6519 41.832 35.8303V35.3783H42.624V37.2396V37.2417ZM45.734 36.1494C45.5763 36.085 45.4078 36.053 45.238 36.0553C44.72 36.0553 44.462 36.399 44.462 37.0146V39.103H43.668V35.3783H44.454V35.8283C44.5514 35.6577 44.692 35.5171 44.8609 35.4213C45.0299 35.3256 45.2209 35.2782 45.414 35.2842C45.574 35.2842 45.802 35.3149 45.978 35.3864L45.734 36.1494ZM49.978 37.2417V39.103H49.186V38.653C49.0507 38.8311 48.8757 38.9734 48.6757 39.0681C48.4756 39.1627 48.2562 39.207 48.036 39.1971C47.016 39.1971 46.216 38.379 46.216 37.2417C46.216 36.1024 47.016 35.2842 48.036 35.2842C48.2564 35.2746 48.4759 35.3191 48.676 35.4142C48.8761 35.5092 49.051 35.6519 49.186 35.8303V33.8789H49.978V37.2396V37.2417ZM38 31.0153C35.0441 31.0261 32.1909 29.907 30 27.8776C27.8091 29.907 24.9559 31.0261 22 31.0153C15.382 31.0153 10 25.511 10 18.7426C10 11.9742 15.382 6.46986 22 6.46986C24.992 6.46986 27.796 7.57645 30 9.60759C32.1909 7.57814 35.0441 6.45907 38 6.46986C44.618 6.46986 50 11.9742 50 18.7426C50 25.511 44.618 31.0153 38 31.0153Z" fill="#DBDFEA"/>
<path d="M48.1353 36.0474C47.4493 36.0474 47.0312 36.5874 47.0312 37.2419C47.0312 37.8965 47.4513 38.4344 48.1353 38.4344C48.7913 38.4344 49.2332 37.919 49.2332 37.2419C49.2332 36.5628 48.7913 36.0494 48.1353 36.0494V36.0474Z" fill="#DBDFEA"/>
</symbol>


<symbol id='checkmark' width="30" height="30" viewBox="0 0 30 30" >
<path d="M1.02344 14.7011C5.2041 19.2245 9.25762 23.2968 13.1541 28.4471C17.3904 20.0214 21.7264 11.5663 28.8807 2.40986L26.9529 1.52686C20.9119 7.93351 16.2185 13.9979 12.1404 21.205C9.30449 18.6503 4.72129 15.035 1.92285 13.1777L1.02344 14.7011Z"/>
</symbol>


<symbol id='share-option-icon' width="23" height="19" viewBox="0 0 23 19" >
<path d="M22.5 8.75L13.75 0V5C5 6.25 1.25 12.5 0 18.75C3.125 14.375 7.5 12.375 13.75 12.375V17.5L22.5 8.75Z"/>
</symbol>


<symbol id='article-author-icon' width="18" height="18" viewBox="0 0 18 18" >
<path d="M8.60172 4.53986H5.11539C4.74697 4.53975 4.38744 4.65302 4.08562 4.86429C3.7838 5.07557 3.55431 5.37461 3.42831 5.72081L0.0541531 15.0015C-0.0651987 15.3291 0.0164629 15.6961 0.262346 15.9429L0.525279 16.2058L6.28827 10.4428C6.28737 10.4195 6.28109 10.3962 6.28109 10.3728C6.28109 10.1066 6.36003 9.84636 6.50794 9.625C6.65585 9.40364 6.86608 9.23111 7.11204 9.12923C7.358 9.02735 7.62865 9.00069 7.88977 9.05263C8.15088 9.10457 8.39073 9.23277 8.57898 9.42102C8.76723 9.60927 8.89543 9.84912 8.94737 10.1102C8.99931 10.3713 8.97265 10.642 8.87077 10.888C8.76889 11.1339 8.59636 11.3441 8.375 11.4921C8.15364 11.64 7.89339 11.7189 7.62716 11.7189C7.60383 11.7189 7.5805 11.7126 7.55716 11.7117L1.79418 17.4747L2.05711 17.7377C2.17776 17.8586 2.33053 17.9425 2.49735 17.9794C2.66416 18.0163 2.83805 18.0046 2.99846 17.9458L12.2792 14.5708C12.6254 14.4448 12.9244 14.2153 13.1357 13.9135C13.347 13.6117 13.4603 13.2521 13.4601 12.8837V9.39739L15.254 7.60441L10.3956 2.74599L8.60172 4.53986ZM16.0976 6.39026L11.6106 1.90335L13.5131 0L18 4.48691L16.0976 6.39026Z"/>
</symbol>



</svg> 