<svg aria-hidden="true" style="position:absolute;width:0;height:0;overflow:hidden" xmlns="http://www.w3.org/2000/svg">

<symbol id='quality-badge' width="40" height="40" viewBox="0 0 40 40" >
<path d="M31.3748 18.4562C31.3751 18.0132 31.249 17.5793 31.0112 17.2055C30.7735 16.8317 30.434 16.5335 30.0326 16.346C29.4365 16.0285 28.9801 15.5002 28.7526 14.8642L28.706 14.7401C28.4419 14.1094 28.4117 13.4051 28.6207 12.7541C28.7479 12.3484 28.7615 11.9157 28.6601 11.5028C28.5587 11.09 28.3462 10.7128 28.0456 10.4122C27.745 10.1116 27.3678 9.89907 26.9549 9.79769C26.5421 9.6963 26.1094 9.70992 25.7037 9.83708C25.0527 10.0461 24.3484 10.0158 23.7177 9.75174L23.5935 9.69744C22.9566 9.4758 22.4272 9.02123 22.1118 8.42513C21.9247 8.02315 21.6268 7.68295 21.253 7.44457C20.8791 7.20619 20.445 7.07955 20.0016 7.07955C19.5582 7.07955 19.1241 7.20619 18.7503 7.44457C18.3764 7.68295 18.0785 8.02315 17.8915 8.42513C17.5767 9.01878 17.0507 9.47278 16.4174 9.69744L16.2856 9.75174C15.6548 10.0158 14.9506 10.0461 14.2995 9.83708C13.8939 9.70992 13.4611 9.6963 13.0483 9.79769C12.6354 9.89907 12.2583 10.1116 11.9576 10.4122C11.657 10.7128 11.4445 11.09 11.3431 11.5028C11.2417 11.9157 11.2554 12.3484 11.3825 12.7541C11.594 13.4042 11.5665 14.1085 11.305 14.7401C11.2836 14.78 11.2655 14.8215 11.2506 14.8642C11.0231 15.5002 10.5667 16.0285 9.97058 16.346C9.5686 16.533 9.2284 16.831 8.99002 17.2048C8.75164 17.5787 8.625 18.0128 8.625 18.4562C8.625 18.8995 8.75164 19.3337 8.99002 19.7075C9.2284 20.0813 9.5686 20.3793 9.97058 20.5663C10.5662 20.8808 11.0228 21.4065 11.2506 22.0403C11.2654 22.0856 11.2836 22.1297 11.305 22.1722C11.5495 22.7982 11.5659 23.4903 11.3515 24.1272C11.2243 24.5329 11.2107 24.9656 11.3121 25.3785C11.4135 25.7913 11.626 26.1685 11.9266 26.4691C12.2272 26.7697 12.6044 26.9822 13.0173 27.0836C13.4301 27.185 13.8628 27.1714 14.2685 27.0442C14.918 26.8286 15.6238 26.8561 16.2545 27.1218L16.3864 27.1761C17.0206 27.4033 17.5466 27.8601 17.8604 28.4562C18.0475 28.8582 18.3454 29.1984 18.7192 29.4367C19.0931 29.6751 19.5272 29.8017 19.9706 29.8017C20.4139 29.8017 20.8481 29.6751 21.2219 29.4367C21.5957 29.1984 21.8937 28.8582 22.0807 28.4562C22.3959 27.8581 22.925 27.401 23.5625 27.1761L23.6866 27.1218C24.3174 26.8561 25.0231 26.8286 25.6727 27.0442C26.0783 27.1714 26.5111 27.185 26.9239 27.0836C27.3368 26.9822 27.7139 26.7697 28.0145 26.4691C28.3151 26.1685 28.5277 25.7913 28.6291 25.3785C28.7305 24.9656 28.7168 24.5329 28.5897 24.1272C28.3807 23.4762 28.4109 22.7719 28.675 22.1412L28.7216 22.0093C28.9494 21.3755 29.406 20.8498 30.0016 20.5353C30.404 20.3545 30.7467 20.0631 30.9899 19.695C31.233 19.3269 31.3665 18.8972 31.3748 18.4562V18.4562Z" stroke="currentColor" stroke-width="1.75" stroke-miterlimit="10"/>
<path d="M15.9219 18.495L18.6216 21.187L24.0832 15.7254" stroke="currentColor" stroke-width="1.75" stroke-linecap="round" stroke-linejoin="round"/>
<path d="M12.5692 26.9356L10.3349 31.1094C10.3055 31.1655 10.2928 31.2287 10.298 31.2918C10.3033 31.3548 10.3264 31.4151 10.3646 31.4655C10.4029 31.516 10.4546 31.5545 10.5139 31.5766C10.5732 31.5987 10.6376 31.6035 10.6995 31.5904L13.8492 30.9387C13.9175 30.924 13.9886 30.931 14.0526 30.9589C14.1166 30.9867 14.1703 31.0339 14.2061 31.0939L15.1991 32.7386C15.2281 32.7902 15.2703 32.8332 15.3215 32.8632C15.3726 32.8931 15.4308 32.9089 15.49 32.9089C15.5493 32.9089 15.6075 32.8931 15.6586 32.8632C15.7097 32.8332 15.752 32.7902 15.781 32.7386L17.8989 28.526M27.1619 27.052L29.3341 31.1171C29.3634 31.1732 29.3762 31.2365 29.3709 31.2995C29.3657 31.3626 29.3426 31.4229 29.3043 31.4733C29.2661 31.5237 29.2143 31.5622 29.155 31.5843C29.0957 31.6064 29.0314 31.6112 28.9695 31.5981L25.8197 30.9465C25.7515 30.9317 25.6804 30.9388 25.6163 30.9666C25.5523 30.9945 25.4986 31.0417 25.4629 31.1016L24.4699 32.7463C24.4409 32.798 24.3986 32.841 24.3475 32.8709C24.2964 32.9009 24.2382 32.9167 24.1789 32.9167C24.1197 32.9167 24.0615 32.9009 24.0104 32.8709C23.9592 32.841 23.917 32.798 23.888 32.7463L21.9253 28.8673" stroke="currentColor" stroke-width="1.75" stroke-miterlimit="10"/>
</symbol>




<symbol id='planet-icon'>
<g clip-path="url(#clip0_3500_26556)">
<path d="M20 6.875C17.3423 6.875 14.7443 7.6631 12.5345 9.13963C10.3247 10.6162 8.60243 12.7148 7.58537 15.1702C6.56832 17.6256 6.30221 20.3274 6.8207 22.934C7.33919 25.5406 8.61899 27.935 10.4983 29.8142C12.3775 31.6935 14.7719 32.9733 17.3785 33.4918C19.9851 34.0103 22.6869 33.7442 25.1423 32.7271C27.5977 31.7101 29.6964 29.9878 31.1729 27.778C32.6494 25.5682 33.4375 22.9702 33.4375 20.3125C33.4375 16.7487 32.0218 13.3308 29.5018 10.8108C26.9817 8.29073 23.5639 6.875 20 6.875ZM29.8313 27.5C28.9402 26.9776 27.9977 26.5482 27.0188 26.2188C27.486 24.4957 27.7421 22.7223 27.7813 20.9375H32.1563C32.0404 23.3054 31.2319 25.5873 29.8313 27.5ZM7.82813 20.9375H12.2188C12.2567 22.7232 12.5117 24.4977 12.9781 26.2219C11.9992 26.5514 11.0567 26.9807 10.1656 27.5031C8.75991 25.5909 7.94707 23.3078 7.82813 20.9375ZM10.1688 13.125C11.0598 13.6474 12.0023 14.0768 12.9813 14.4062C12.514 16.1293 12.2579 17.9027 12.2188 19.6875H7.84376C7.95965 17.3196 8.76806 15.0377 10.1688 13.125ZM20.625 15.5062C22.3716 15.4655 24.1074 15.2201 25.7969 14.775C26.2413 16.3764 26.4879 18.0262 26.5313 19.6875H20.625V15.5062ZM20.625 14.2562V8.18438C22.5938 8.55313 24.3406 10.625 25.4156 13.5844C23.85 13.9924 22.2425 14.2179 20.625 14.2562ZM19.375 8.18438V14.2562C17.7576 14.2179 16.15 13.9924 14.5844 13.5844C15.6594 10.625 17.4063 8.55313 19.375 8.18438ZM19.375 15.5062V19.6875H13.4688C13.5121 18.0262 13.7587 16.3764 14.2031 14.775C15.8926 15.2201 17.6284 15.4655 19.375 15.5062ZM13.4688 20.9375H19.375V25.1187C17.6284 25.1595 15.8926 25.4049 14.2031 25.85C13.7587 24.2486 13.5121 22.5988 13.4688 20.9375ZM19.375 26.3687V32.4406C17.4063 32.0719 15.6594 30 14.5844 27.0406C16.15 26.6326 17.7576 26.4071 19.375 26.3687ZM20.625 32.4406V26.3687C22.2425 26.4071 23.85 26.6326 25.4156 27.0406C24.3406 30 22.5938 32.0719 20.625 32.4406ZM20.625 25.1187V20.9375H26.5313C26.4879 22.5988 26.2413 24.2486 25.7969 25.85C24.1074 25.4049 22.3716 25.1595 20.625 25.1187ZM27.7813 19.6875C27.7433 17.9018 27.4883 16.1273 27.0219 14.4031C28.0008 14.0736 28.9433 13.6443 29.8344 13.1219C31.2457 15.0323 32.064 17.3155 32.1875 19.6875H27.7813ZM29.0313 12.1406C28.2712 12.5727 27.4717 12.9316 26.6438 13.2125C26.1099 11.5942 25.2458 10.1045 24.1063 8.8375C25.9956 9.5165 27.6883 10.6511 29.0344 12.1406H29.0313ZM15.8906 8.84063C14.7511 10.1076 13.887 11.5974 13.3531 13.2156C12.5252 12.9347 11.7257 12.5758 10.9656 12.1438C12.3108 10.6546 14.0024 9.52008 15.8906 8.84063ZM10.9656 28.4844C11.7257 28.0523 12.5252 27.6934 13.3531 27.4125C13.887 29.0308 14.7511 30.5205 15.8906 31.7875C14.0024 31.108 12.3108 29.9735 10.9656 28.4844ZM24.1094 31.7844C25.2489 30.5174 26.113 29.0276 26.6469 27.4094C27.4749 27.6903 28.2743 28.0492 29.0344 28.4813C27.6892 29.9704 25.9976 31.1049 24.1094 31.7844Z" />
</g>
<defs>
<clipPath id="clip0_3500_26556">
<rect width="40" height="40" />
</clipPath>
</defs>
</symbol>

<symbol id="big-arrow" width="40" height="40" viewBox="0 0 40 40" >
<path d="M15.6609 30.1848C15.5166 30.3283 15.3363 30.4 15.1379 30.4C14.9395 30.4 14.7591 30.3283 14.6149 30.1848C14.3263 29.8979 14.3263 29.4317 14.6149 29.1448L23.8129 20L14.6149 10.8552C14.3263 10.5683 14.3263 10.1021 14.6149 9.81517C14.9034 9.52827 15.3724 9.52827 15.6609 9.81517L25.382 19.48C25.6706 19.7669 25.6706 20.2331 25.382 20.52L15.6609 30.1848V30.1848Z" />
</symbol>

<symbol id="header-menu-icon" viewBox="0 0 40 40"><path d="M8 14.6667V12H32V14.6667H8ZM8 21.3333H32V18.6667H8V21.3333ZM8 28H32V25.3333H8V28Z"/></symbol>

<symbol id="header-menu-close-icon" viewBox="0 0 40 40">
<path d="M29.6667 12.88L27.7867 11L20.3333 18.4533L12.88 11L11 12.88L18.4533 20.3333L11 27.7867L12.88 29.6667L20.3333 22.2133L27.7867 29.6667L29.6667 27.7867L22.2133 20.3333L29.6667 12.88Z"/></symbol>



<symbol id='github-icon' viewBox="0 0 25 28" >
<path d="M23.1197 5.20291C23.0114 5.05922 22.8958 4.92127 22.7731 4.78963C22.8965 4.46092 22.9902 4.12184 23.0531 3.77642C23.2388 2.51285 23.0775 1.22255 22.5865 0.0435662C22.5865 0.0435662 21.0933 -0.423041 17.6671 1.88333C16.2125 1.4817 14.71 1.27987 13.201 1.28341C11.6876 1.28075 10.1809 1.48255 8.72157 1.88333C5.29534 -0.449704 3.80219 0.0435662 3.80219 0.0435662C3.31703 1.21006 3.15582 2.48592 3.33559 3.73643C3.39884 4.0962 3.49708 4.44894 3.62888 4.78963C3.5089 4.92294 3.38891 5.06959 3.28226 5.20291C2.28743 6.45078 1.75935 8.00674 1.78912 9.60235C1.78595 9.98077 1.80376 10.3591 1.84244 10.7355C2.26906 16.6414 6.20189 18.0146 9.94808 18.4412C9.41785 18.9343 9.05832 19.5833 8.92154 20.2943C8.79763 20.7685 8.73932 21.2574 8.74823 21.7475V23.4939C7.25642 23.6272 5.72595 23.4099 5.25134 22.0794C4.74187 20.8059 3.89694 19.6943 2.80632 18.8625C2.72661 18.8194 2.65078 18.7694 2.57968 18.7132C2.48391 18.4615 2.31424 18.2447 2.09295 18.0912C1.87167 17.9377 1.60913 17.8548 1.33984 17.8533H1.33317C0.980749 17.8533 0.64266 17.9928 0.392834 18.2414C0.143009 18.49 0.00177316 18.8274 1.10388e-05 19.1798C-0.00398845 20.2623 1.07987 20.9622 1.52382 21.1995C2.04249 21.7222 2.45972 22.3365 2.75433 23.0113C3.2396 24.3751 4.65942 26.4482 8.70823 26.1789L8.7109 26.3096L8.71623 26.6668C8.71623 27.0204 8.85669 27.3595 9.10671 27.6095C9.35672 27.8595 9.69582 28 10.0494 28H16.3339C16.6875 28 17.0266 27.8595 17.2766 27.6095C17.5266 27.3595 17.6671 27.0204 17.6671 26.6668C17.6671 26.6668 17.6778 22.454 17.6778 21.7475C17.6866 21.2574 17.6283 20.7685 17.5044 20.2943L17.5018 20.2863L17.5071 20.2943C17.4951 20.2477 17.4778 20.2103 17.4644 20.165C17.3159 19.5045 16.9722 18.9039 16.4779 18.4412L16.4939 18.4692L16.4672 18.4426C20.2134 18.0159 24.1196 16.6161 24.5462 10.7369C24.5849 10.3604 24.6027 9.98211 24.5995 9.60368C24.6232 8.01123 24.101 6.45734 23.1197 5.20291Z"/>
</symbol>

<symbol id='linkedin-icon' viewBox="0 0 28 28" >
<path d="M0.541935 28H5.96129V8.575H0.541935V28ZM3.25161 0C1.44516 0 0 1.4 0 3.15C0 4.9 1.44516 6.3 3.25161 6.3C5.05806 6.3 6.50323 4.9 6.50323 3.15C6.50323 1.4 5.05806 0 3.25161 0ZM15.1742 11.55V8.575H9.75484V28H15.1742V18.025C15.1742 12.425 22.5806 12.075 22.5806 18.025V28H28V16.1C28 6.65 17.7032 7 15.1742 11.55Z" />
</symbol>

<symbol id='facebook-icon' width="16" height="28" viewBox="0 0 16 28"  xmlns="http://www.w3.org/2000/svg">
<path d="M15.0619 0.201923V4.64423H12.4201C11.4553 4.64423 10.8047 4.84615 10.4681 5.25C10.1316 5.65385 9.96334 6.25962 9.96334 7.06731V10.2476H14.8936L14.2374 15.2284H9.96334V28H4.8143V15.2284H0.523438V10.2476H4.8143V6.57933C4.8143 4.49279 5.39764 2.8746 6.5643 1.72476C7.73097 0.57492 9.28466 0 11.2254 0C12.8744 0 14.1532 0.0673077 15.0619 0.201923Z" />
</symbol>


<symbol id='twitter-icon'  width="28" height="23" viewBox="0 0 28 23">
<path d="M28 2.58904C26.9452 3.06849 25.8904 3.35616 24.6438 3.54794C25.7945 2.78082 26.7534 1.72603 27.2329 0.383561C26.0822 1.05479 24.8356 1.53425 23.589 1.82192C22.5342 0.671232 21 0 19.3699 0C16.2055 0 13.5205 2.58904 13.5205 5.84932C13.5205 6.32877 13.6164 6.71233 13.7123 7.19178C8.91781 7 4.60274 4.60274 1.72603 1.15068C1.24658 1.82192 0.958904 2.78082 0.958904 3.83562C0.958904 5.84932 2.0137 7.67123 3.54794 8.63014C2.58904 8.63014 1.72603 8.34246 0.958904 7.86301V7.9589C0.958904 10.7397 2.9726 13.137 5.65753 13.6164C5.17808 13.7123 4.69863 13.8082 4.12329 13.8082C3.73973 13.8082 3.35616 13.8082 3.06849 13.7123C3.83562 16.0137 5.9452 17.7397 8.53425 17.7397C6.52055 19.274 4.0274 20.2329 1.34247 20.2329C0.863013 20.2329 0.383562 20.2329 0 20.137C2.30137 21.9589 5.36986 22.9178 8.63014 22.9178C19.274 22.9178 25.1233 14.0959 25.1233 6.42466V5.65753C26.274 4.79452 27.2329 3.83562 28 2.58904Z"/>
</symbol>

<symbol id='advantages-image_1'   width="110" height="110" viewBox="0 0 110 110" fill="none">
<path d="M66.4588 20.6249V90.3145C66.4709 91.2081 66.2156 92.0849 65.7255 92.8322C65.2355 93.5795 64.5331 94.1632 63.7087 94.5083C61.941 95.2143 60.1262 95.7963 58.2775 96.2499C51.1872 97.849 43.935 98.618 36.6671 98.5416C29.3991 98.618 22.1469 97.849 15.0567 96.2499C13.208 95.7963 11.3932 95.2143 9.62541 94.5083C8.80105 94.1632 8.09871 93.5795 7.60866 92.8322C7.11861 92.0849 6.86326 91.2081 6.87541 90.3145V20.6249C6.87541 15.5603 20.2129 11.4583 36.6671 11.4583C53.1213 11.4583 66.4588 15.5603 66.4588 20.6249Z" fill="#4AA7F0"/>
<path d="M36.6667 29.7916C53.1201 29.7916 66.4583 25.6875 66.4583 20.6249C66.4583 15.5623 53.1201 11.4583 36.6667 11.4583C20.2132 11.4583 6.875 15.5623 6.875 20.6249C6.875 25.6875 20.2132 29.7916 36.6667 29.7916Z" fill="#B3D9FF"/>
<path d="M36.6635 26.3541C22.7417 26.3541 14.3037 23.501 11.3956 21.5622C11.2425 21.4585 11.1171 21.3188 11.0304 21.1554C10.9438 20.992 10.8984 20.8099 10.8984 20.6249C10.8984 20.44 10.9438 20.2578 11.0304 20.0944C11.1171 19.931 11.2425 19.7914 11.3956 19.6876C14.3037 17.7489 22.7417 14.8958 36.6635 14.8958C50.5854 14.8958 59.0233 17.7489 61.9314 19.6876C62.0846 19.7914 62.21 19.931 62.2966 20.0944C62.3833 20.2578 62.4286 20.44 62.4286 20.6249C62.4286 20.8099 62.3833 20.992 62.2966 21.1554C62.21 21.3188 62.0846 21.4585 61.9314 21.5622C59.0233 23.501 50.5854 26.3541 36.6635 26.3541Z" fill="#4AA7F0"/>
<path d="M66.4583 34.375V40.4708C63.9336 41.8315 61.2352 42.8416 58.4375 43.4729C51.2984 45.112 43.9911 45.9042 36.6667 45.8333C29.3347 45.9028 22.02 45.1106 14.8729 43.4729C12.0824 42.842 9.39145 41.8319 6.875 40.4708V34.375C6.875 35.1542 9.09792 37.2854 15.9958 39.0271C22.7737 40.5847 29.7126 41.3309 36.6667 41.25C43.6207 41.3309 50.5597 40.5847 57.3375 39.0271C64.2354 37.2854 66.4583 35.1542 66.4583 34.375ZM66.4583 48.125V54.2208C63.9336 55.5815 61.2352 56.5916 58.4375 57.2229C51.2984 58.862 43.9911 59.6542 36.6667 59.5833C29.3347 59.6528 22.02 58.8606 14.8729 57.2229C12.0824 56.592 9.39145 55.5819 6.875 54.2208V48.125C6.875 48.9042 9.09792 51.0354 15.9958 52.7771C22.7737 54.3347 29.7126 55.0809 36.6667 55C43.6207 55.0809 50.5597 54.3347 57.3375 52.7771C64.2354 51.0354 66.4583 48.9042 66.4583 48.125ZM66.4583 61.875V67.9708C63.9419 69.3319 61.2509 70.342 58.4604 70.9729C51.3134 72.6106 43.9986 73.4028 36.6667 73.3333C29.3347 73.4028 22.02 72.6106 14.8729 70.9729C12.0824 70.342 9.39145 69.3319 6.875 67.9708V61.875C6.875 62.6542 9.09792 64.7854 15.9958 66.5271C22.7737 68.0847 29.7126 68.8309 36.6667 68.75C43.6207 68.8309 50.5597 68.0847 57.3375 66.5271C64.2354 64.7854 66.4583 62.6542 66.4583 61.875ZM66.4583 75.625V81.7208C63.9419 83.0819 61.2509 84.092 58.4604 84.7229C51.3134 86.3606 43.9986 87.1528 36.6667 87.0833C29.3347 87.1528 22.02 86.3606 14.8729 84.7229C12.0824 84.092 9.39145 83.0819 6.875 81.7208V75.625C6.875 76.4042 9.09792 78.5354 15.9958 80.2771C22.7737 81.8347 29.7126 82.5809 36.6667 82.5C43.6207 82.5809 50.5597 81.8347 57.3375 80.2771C64.2354 78.5354 66.4583 76.4042 66.4583 75.625Z" fill="#B3D9FF"/>
<path d="M66.4588 87.0833V90.3145C66.4709 91.2081 66.2156 92.0849 65.7255 92.8322C65.2355 93.5795 64.5331 94.1632 63.7087 94.5083C61.941 95.2143 60.1262 95.7963 58.2775 96.2499C51.1872 97.849 43.935 98.618 36.6671 98.5416C29.3991 98.618 22.1469 97.849 15.0567 96.2499C13.208 95.7963 11.3932 95.2143 9.62541 94.5083C8.80105 94.1632 8.09871 93.5795 7.60866 92.8322C7.11861 92.0849 6.86326 91.2081 6.87541 90.3145V87.0833C6.87541 89.1458 17.0046 93.9583 36.6671 93.9583C56.3296 93.9583 66.4588 89.1458 66.4588 87.0833Z" fill="#B3D9FF"/>
<path d="M34.375 18.9062V21.7708H29.7917V18.9062C29.7917 18.5899 28.7673 18.3333 27.5 18.3333C26.2327 18.3333 25.2083 18.5899 25.2083 18.9062V20.052H22.9167C21.6517 20.052 20.625 20.3087 20.625 20.6249C20.625 20.9412 21.6517 21.1978 22.9167 21.1978H25.2083V22.3437C25.2083 22.6599 26.2327 22.9166 27.5 22.9166H36.6667C37.934 22.9166 38.9583 22.6599 38.9583 22.3437V19.4791H43.5417V22.3437C43.5417 22.6599 44.566 22.9166 45.8333 22.9166C47.1006 22.9166 48.125 22.6599 48.125 22.3437V21.1978H50.4167C51.684 21.1978 52.7083 20.9412 52.7083 20.6249C52.7083 20.3087 51.684 20.052 50.4167 20.052H48.125V18.9062C48.125 18.5899 47.1006 18.3333 45.8333 18.3333H36.6667C35.3994 18.3333 34.375 18.5899 34.375 18.9062Z" fill="#E9F5FF"/>
<path d="M73.3307 98.5416C89.7842 98.5416 103.122 85.2034 103.122 68.7499C103.122 52.2964 89.7842 38.9583 73.3307 38.9583C56.8772 38.9583 43.5391 52.2964 43.5391 68.7499C43.5391 85.2034 56.8772 98.5416 73.3307 98.5416Z" fill="#B3D9FF"/>
<path d="M73.3333 93.9584C87.2555 93.9584 98.5417 82.6723 98.5417 68.7501C98.5417 54.8279 87.2555 43.5417 73.3333 43.5417C59.4112 43.5417 48.125 54.8279 48.125 68.7501C48.125 82.6723 59.4112 93.9584 73.3333 93.9584Z" fill="#4AA7F0"/>
<path d="M80.2057 66.4583H68.7474V61.8749H80.2057C80.8135 61.8749 81.3964 61.6335 81.8262 61.2037C82.256 60.7739 82.4974 60.191 82.4974 59.5833C82.4974 58.9755 82.256 58.3926 81.8262 57.9628C81.3964 57.533 80.8135 57.2916 80.2057 57.2916H75.6224V54.9999C75.6224 54.3921 75.381 53.8092 74.9512 53.3795C74.5214 52.9497 73.9385 52.7083 73.3307 52.7083C72.7229 52.7083 72.14 52.9497 71.7103 53.3795C71.2805 53.8092 71.0391 54.3921 71.0391 54.9999V57.2916H66.4557C65.8479 57.2916 65.265 57.533 64.8353 57.9628C64.4055 58.3926 64.1641 58.9755 64.1641 59.5833V68.7499C64.1641 69.3577 64.4055 69.9406 64.8353 70.3704C65.265 70.8001 65.8479 71.0416 66.4557 71.0416H77.9141V75.6249H66.4557C65.8479 75.6249 65.265 75.8664 64.8353 76.2961C64.4055 76.7259 64.1641 77.3088 64.1641 77.9166C64.1641 78.5244 64.4055 79.1073 64.8353 79.537C65.265 79.9668 65.8479 80.2083 66.4557 80.2083H71.0391V82.4999C71.0391 83.1077 71.2805 83.6906 71.7103 84.1204C72.14 84.5501 72.7229 84.7916 73.3307 84.7916C73.9385 84.7916 74.5214 84.5501 74.9512 84.1204C75.381 83.6906 75.6224 83.1077 75.6224 82.4999V80.2083H80.2057C80.8135 80.2083 81.3964 79.9668 81.8262 79.537C82.256 79.1073 82.4974 78.5244 82.4974 77.9166V68.7499C82.4974 68.1421 82.256 67.5592 81.8262 67.1295C81.3964 66.6997 80.8135 66.4583 80.2057 66.4583Z" fill="#E9F5FF"/>
</symbol>


</svg>