<svg aria-hidden="true" style="position:absolute;width:0;height:0;overflow:hidden" xmlns="http://www.w3.org/2000/svg">

<symbol id='quality-badge' width="40" height="40" viewBox="0 0 40 40" >
<path d="M31.3748 18.4562C31.3751 18.0132 31.249 17.5793 31.0112 17.2055C30.7735 16.8317 30.434 16.5335 30.0326 16.346C29.4365 16.0285 28.9801 15.5002 28.7526 14.8642L28.706 14.7401C28.4419 14.1094 28.4117 13.4051 28.6207 12.7541C28.7479 12.3484 28.7615 11.9157 28.6601 11.5028C28.5587 11.09 28.3462 10.7128 28.0456 10.4122C27.745 10.1116 27.3678 9.89907 26.9549 9.79769C26.5421 9.6963 26.1094 9.70992 25.7037 9.83708C25.0527 10.0461 24.3484 10.0158 23.7177 9.75174L23.5935 9.69744C22.9566 9.4758 22.4272 9.02123 22.1118 8.42513C21.9247 8.02315 21.6268 7.68295 21.253 7.44457C20.8791 7.20619 20.445 7.07955 20.0016 7.07955C19.5582 7.07955 19.1241 7.20619 18.7503 7.44457C18.3764 7.68295 18.0785 8.02315 17.8915 8.42513C17.5767 9.01878 17.0507 9.47278 16.4174 9.69744L16.2856 9.75174C15.6548 10.0158 14.9506 10.0461 14.2995 9.83708C13.8939 9.70992 13.4611 9.6963 13.0483 9.79769C12.6354 9.89907 12.2583 10.1116 11.9576 10.4122C11.657 10.7128 11.4445 11.09 11.3431 11.5028C11.2417 11.9157 11.2554 12.3484 11.3825 12.7541C11.594 13.4042 11.5665 14.1085 11.305 14.7401C11.2836 14.78 11.2655 14.8215 11.2506 14.8642C11.0231 15.5002 10.5667 16.0285 9.97058 16.346C9.5686 16.533 9.2284 16.831 8.99002 17.2048C8.75164 17.5787 8.625 18.0128 8.625 18.4562C8.625 18.8995 8.75164 19.3337 8.99002 19.7075C9.2284 20.0813 9.5686 20.3793 9.97058 20.5663C10.5662 20.8808 11.0228 21.4065 11.2506 22.0403C11.2654 22.0856 11.2836 22.1297 11.305 22.1722C11.5495 22.7982 11.5659 23.4903 11.3515 24.1272C11.2243 24.5329 11.2107 24.9656 11.3121 25.3785C11.4135 25.7913 11.626 26.1685 11.9266 26.4691C12.2272 26.7697 12.6044 26.9822 13.0173 27.0836C13.4301 27.185 13.8628 27.1714 14.2685 27.0442C14.918 26.8286 15.6238 26.8561 16.2545 27.1218L16.3864 27.1761C17.0206 27.4033 17.5466 27.8601 17.8604 28.4562C18.0475 28.8582 18.3454 29.1984 18.7192 29.4367C19.0931 29.6751 19.5272 29.8017 19.9706 29.8017C20.4139 29.8017 20.8481 29.6751 21.2219 29.4367C21.5957 29.1984 21.8937 28.8582 22.0807 28.4562C22.3959 27.8581 22.925 27.401 23.5625 27.1761L23.6866 27.1218C24.3174 26.8561 25.0231 26.8286 25.6727 27.0442C26.0783 27.1714 26.5111 27.185 26.9239 27.0836C27.3368 26.9822 27.7139 26.7697 28.0145 26.4691C28.3151 26.1685 28.5277 25.7913 28.6291 25.3785C28.7305 24.9656 28.7168 24.5329 28.5897 24.1272C28.3807 23.4762 28.4109 22.7719 28.675 22.1412L28.7216 22.0093C28.9494 21.3755 29.406 20.8498 30.0016 20.5353C30.404 20.3545 30.7467 20.0631 30.9899 19.695C31.233 19.3269 31.3665 18.8972 31.3748 18.4562V18.4562Z" stroke="currentColor" stroke-width="1.75" stroke-miterlimit="10"/>
<path d="M15.9219 18.495L18.6216 21.187L24.0832 15.7254" stroke="currentColor" stroke-width="1.75" stroke-linecap="round" stroke-linejoin="round"/>
<path d="M12.5692 26.9356L10.3349 31.1094C10.3055 31.1655 10.2928 31.2287 10.298 31.2918C10.3033 31.3548 10.3264 31.4151 10.3646 31.4655C10.4029 31.516 10.4546 31.5545 10.5139 31.5766C10.5732 31.5987 10.6376 31.6035 10.6995 31.5904L13.8492 30.9387C13.9175 30.924 13.9886 30.931 14.0526 30.9589C14.1166 30.9867 14.1703 31.0339 14.2061 31.0939L15.1991 32.7386C15.2281 32.7902 15.2703 32.8332 15.3215 32.8632C15.3726 32.8931 15.4308 32.9089 15.49 32.9089C15.5493 32.9089 15.6075 32.8931 15.6586 32.8632C15.7097 32.8332 15.752 32.7902 15.781 32.7386L17.8989 28.526M27.1619 27.052L29.3341 31.1171C29.3634 31.1732 29.3762 31.2365 29.3709 31.2995C29.3657 31.3626 29.3426 31.4229 29.3043 31.4733C29.2661 31.5237 29.2143 31.5622 29.155 31.5843C29.0957 31.6064 29.0314 31.6112 28.9695 31.5981L25.8197 30.9465C25.7515 30.9317 25.6804 30.9388 25.6163 30.9666C25.5523 30.9945 25.4986 31.0417 25.4629 31.1016L24.4699 32.7463C24.4409 32.798 24.3986 32.841 24.3475 32.8709C24.2964 32.9009 24.2382 32.9167 24.1789 32.9167C24.1197 32.9167 24.0615 32.9009 24.0104 32.8709C23.9592 32.841 23.917 32.798 23.888 32.7463L21.9253 28.8673" stroke="currentColor" stroke-width="1.75" stroke-miterlimit="10"/>
</symbol>




<symbol id='planet-icon'>
<g clip-path="url(#clip0_3500_26556)">
<path d="M20 6.875C17.3423 6.875 14.7443 7.6631 12.5345 9.13963C10.3247 10.6162 8.60243 12.7148 7.58537 15.1702C6.56832 17.6256 6.30221 20.3274 6.8207 22.934C7.33919 25.5406 8.61899 27.935 10.4983 29.8142C12.3775 31.6935 14.7719 32.9733 17.3785 33.4918C19.9851 34.0103 22.6869 33.7442 25.1423 32.7271C27.5977 31.7101 29.6964 29.9878 31.1729 27.778C32.6494 25.5682 33.4375 22.9702 33.4375 20.3125C33.4375 16.7487 32.0218 13.3308 29.5018 10.8108C26.9817 8.29073 23.5639 6.875 20 6.875ZM29.8313 27.5C28.9402 26.9776 27.9977 26.5482 27.0188 26.2188C27.486 24.4957 27.7421 22.7223 27.7813 20.9375H32.1563C32.0404 23.3054 31.2319 25.5873 29.8313 27.5ZM7.82813 20.9375H12.2188C12.2567 22.7232 12.5117 24.4977 12.9781 26.2219C11.9992 26.5514 11.0567 26.9807 10.1656 27.5031C8.75991 25.5909 7.94707 23.3078 7.82813 20.9375ZM10.1688 13.125C11.0598 13.6474 12.0023 14.0768 12.9813 14.4062C12.514 16.1293 12.2579 17.9027 12.2188 19.6875H7.84376C7.95965 17.3196 8.76806 15.0377 10.1688 13.125ZM20.625 15.5062C22.3716 15.4655 24.1074 15.2201 25.7969 14.775C26.2413 16.3764 26.4879 18.0262 26.5313 19.6875H20.625V15.5062ZM20.625 14.2562V8.18438C22.5938 8.55313 24.3406 10.625 25.4156 13.5844C23.85 13.9924 22.2425 14.2179 20.625 14.2562ZM19.375 8.18438V14.2562C17.7576 14.2179 16.15 13.9924 14.5844 13.5844C15.6594 10.625 17.4063 8.55313 19.375 8.18438ZM19.375 15.5062V19.6875H13.4688C13.5121 18.0262 13.7587 16.3764 14.2031 14.775C15.8926 15.2201 17.6284 15.4655 19.375 15.5062ZM13.4688 20.9375H19.375V25.1187C17.6284 25.1595 15.8926 25.4049 14.2031 25.85C13.7587 24.2486 13.5121 22.5988 13.4688 20.9375ZM19.375 26.3687V32.4406C17.4063 32.0719 15.6594 30 14.5844 27.0406C16.15 26.6326 17.7576 26.4071 19.375 26.3687ZM20.625 32.4406V26.3687C22.2425 26.4071 23.85 26.6326 25.4156 27.0406C24.3406 30 22.5938 32.0719 20.625 32.4406ZM20.625 25.1187V20.9375H26.5313C26.4879 22.5988 26.2413 24.2486 25.7969 25.85C24.1074 25.4049 22.3716 25.1595 20.625 25.1187ZM27.7813 19.6875C27.7433 17.9018 27.4883 16.1273 27.0219 14.4031C28.0008 14.0736 28.9433 13.6443 29.8344 13.1219C31.2457 15.0323 32.064 17.3155 32.1875 19.6875H27.7813ZM29.0313 12.1406C28.2712 12.5727 27.4717 12.9316 26.6438 13.2125C26.1099 11.5942 25.2458 10.1045 24.1063 8.8375C25.9956 9.5165 27.6883 10.6511 29.0344 12.1406H29.0313ZM15.8906 8.84063C14.7511 10.1076 13.887 11.5974 13.3531 13.2156C12.5252 12.9347 11.7257 12.5758 10.9656 12.1438C12.3108 10.6546 14.0024 9.52008 15.8906 8.84063ZM10.9656 28.4844C11.7257 28.0523 12.5252 27.6934 13.3531 27.4125C13.887 29.0308 14.7511 30.5205 15.8906 31.7875C14.0024 31.108 12.3108 29.9735 10.9656 28.4844ZM24.1094 31.7844C25.2489 30.5174 26.113 29.0276 26.6469 27.4094C27.4749 27.6903 28.2743 28.0492 29.0344 28.4813C27.6892 29.9704 25.9976 31.1049 24.1094 31.7844Z" />
</g>
<defs>
<clipPath id="clip0_3500_26556">
<rect width="40" height="40" />
</clipPath>
</defs>
</symbol>

<symbol id="big-arrow" width="40" height="40" viewBox="0 0 40 40" >
<path d="M15.6609 30.1848C15.5166 30.3283 15.3363 30.4 15.1379 30.4C14.9395 30.4 14.7591 30.3283 14.6149 30.1848C14.3263 29.8979 14.3263 29.4317 14.6149 29.1448L23.8129 20L14.6149 10.8552C14.3263 10.5683 14.3263 10.1021 14.6149 9.81517C14.9034 9.52827 15.3724 9.52827 15.6609 9.81517L25.382 19.48C25.6706 19.7669 25.6706 20.2331 25.382 20.52L15.6609 30.1848V30.1848Z" />
</symbol>

<symbol id="header-menu-icon" viewBox="0 0 40 40"><path d="M8 14.6667V12H32V14.6667H8ZM8 21.3333H32V18.6667H8V21.3333ZM8 28H32V25.3333H8V28Z"/></symbol>

<symbol id="header-menu-close-icon" viewBox="0 0 40 40">
<path d="M29.6667 12.88L27.7867 11L20.3333 18.4533L12.88 11L11 12.88L18.4533 20.3333L11 27.7867L12.88 29.6667L20.3333 22.2133L27.7867 29.6667L29.6667 27.7867L22.2133 20.3333L29.6667 12.88Z"/></symbol>



<symbol id='github-icon' viewBox="0 0 25 28" >
<path d="M23.1197 5.20291C23.0114 5.05922 22.8958 4.92127 22.7731 4.78963C22.8965 4.46092 22.9902 4.12184 23.0531 3.77642C23.2388 2.51285 23.0775 1.22255 22.5865 0.0435662C22.5865 0.0435662 21.0933 -0.423041 17.6671 1.88333C16.2125 1.4817 14.71 1.27987 13.201 1.28341C11.6876 1.28075 10.1809 1.48255 8.72157 1.88333C5.29534 -0.449704 3.80219 0.0435662 3.80219 0.0435662C3.31703 1.21006 3.15582 2.48592 3.33559 3.73643C3.39884 4.0962 3.49708 4.44894 3.62888 4.78963C3.5089 4.92294 3.38891 5.06959 3.28226 5.20291C2.28743 6.45078 1.75935 8.00674 1.78912 9.60235C1.78595 9.98077 1.80376 10.3591 1.84244 10.7355C2.26906 16.6414 6.20189 18.0146 9.94808 18.4412C9.41785 18.9343 9.05832 19.5833 8.92154 20.2943C8.79763 20.7685 8.73932 21.2574 8.74823 21.7475V23.4939C7.25642 23.6272 5.72595 23.4099 5.25134 22.0794C4.74187 20.8059 3.89694 19.6943 2.80632 18.8625C2.72661 18.8194 2.65078 18.7694 2.57968 18.7132C2.48391 18.4615 2.31424 18.2447 2.09295 18.0912C1.87167 17.9377 1.60913 17.8548 1.33984 17.8533H1.33317C0.980749 17.8533 0.64266 17.9928 0.392834 18.2414C0.143009 18.49 0.00177316 18.8274 1.10388e-05 19.1798C-0.00398845 20.2623 1.07987 20.9622 1.52382 21.1995C2.04249 21.7222 2.45972 22.3365 2.75433 23.0113C3.2396 24.3751 4.65942 26.4482 8.70823 26.1789L8.7109 26.3096L8.71623 26.6668C8.71623 27.0204 8.85669 27.3595 9.10671 27.6095C9.35672 27.8595 9.69582 28 10.0494 28H16.3339C16.6875 28 17.0266 27.8595 17.2766 27.6095C17.5266 27.3595 17.6671 27.0204 17.6671 26.6668C17.6671 26.6668 17.6778 22.454 17.6778 21.7475C17.6866 21.2574 17.6283 20.7685 17.5044 20.2943L17.5018 20.2863L17.5071 20.2943C17.4951 20.2477 17.4778 20.2103 17.4644 20.165C17.3159 19.5045 16.9722 18.9039 16.4779 18.4412L16.4939 18.4692L16.4672 18.4426C20.2134 18.0159 24.1196 16.6161 24.5462 10.7369C24.5849 10.3604 24.6027 9.98211 24.5995 9.60368C24.6232 8.01123 24.101 6.45734 23.1197 5.20291Z"/>
</symbol>

<symbol id='linkedin-icon' viewBox="0 0 28 28" >
<path d="M0.541935 28H5.96129V8.575H0.541935V28ZM3.25161 0C1.44516 0 0 1.4 0 3.15C0 4.9 1.44516 6.3 3.25161 6.3C5.05806 6.3 6.50323 4.9 6.50323 3.15C6.50323 1.4 5.05806 0 3.25161 0ZM15.1742 11.55V8.575H9.75484V28H15.1742V18.025C15.1742 12.425 22.5806 12.075 22.5806 18.025V28H28V16.1C28 6.65 17.7032 7 15.1742 11.55Z" />
</symbol>

<symbol id='facebook-icon' width="16" height="28" viewBox="0 0 16 28"  xmlns="http://www.w3.org/2000/svg">
<path d="M15.0619 0.201923V4.64423H12.4201C11.4553 4.64423 10.8047 4.84615 10.4681 5.25C10.1316 5.65385 9.96334 6.25962 9.96334 7.06731V10.2476H14.8936L14.2374 15.2284H9.96334V28H4.8143V15.2284H0.523438V10.2476H4.8143V6.57933C4.8143 4.49279 5.39764 2.8746 6.5643 1.72476C7.73097 0.57492 9.28466 0 11.2254 0C12.8744 0 14.1532 0.0673077 15.0619 0.201923Z" />
</symbol>


<symbol id='twitter-icon'  width="28" height="23" viewBox="0 0 28 23">
<path d="M28 2.58904C26.9452 3.06849 25.8904 3.35616 24.6438 3.54794C25.7945 2.78082 26.7534 1.72603 27.2329 0.383561C26.0822 1.05479 24.8356 1.53425 23.589 1.82192C22.5342 0.671232 21 0 19.3699 0C16.2055 0 13.5205 2.58904 13.5205 5.84932C13.5205 6.32877 13.6164 6.71233 13.7123 7.19178C8.91781 7 4.60274 4.60274 1.72603 1.15068C1.24658 1.82192 0.958904 2.78082 0.958904 3.83562C0.958904 5.84932 2.0137 7.67123 3.54794 8.63014C2.58904 8.63014 1.72603 8.34246 0.958904 7.86301V7.9589C0.958904 10.7397 2.9726 13.137 5.65753 13.6164C5.17808 13.7123 4.69863 13.8082 4.12329 13.8082C3.73973 13.8082 3.35616 13.8082 3.06849 13.7123C3.83562 16.0137 5.9452 17.7397 8.53425 17.7397C6.52055 19.274 4.0274 20.2329 1.34247 20.2329C0.863013 20.2329 0.383562 20.2329 0 20.137C2.30137 21.9589 5.36986 22.9178 8.63014 22.9178C19.274 22.9178 25.1233 14.0959 25.1233 6.42466V5.65753C26.274 4.79452 27.2329 3.83562 28 2.58904Z"/>
</symbol>

<symbol id='advantages-image_1' width="90" height="90" viewBox="0 0 90 90" >
<path d="M54.3753 16.875V73.8938C54.3853 74.6249 54.1764 75.3423 53.7754 75.9537C53.3745 76.5651 52.7998 77.0427 52.1253 77.325C50.679 77.9027 49.1942 78.3789 47.6816 78.75C41.8805 80.0583 35.9468 80.6876 30.0003 80.625C24.0538 80.6876 18.1202 80.0583 12.3191 78.75C10.8065 78.3789 9.32167 77.9027 7.87534 77.325C7.20086 77.0427 6.62621 76.5651 6.22527 75.9537C5.82432 75.3423 5.61539 74.6249 5.62534 73.8938V16.875C5.62534 12.7313 16.5378 9.375 30.0003 9.375C43.4628 9.375 54.3753 12.7313 54.3753 16.875Z" fill="#4AA7F0"/>
<path d="M30 24.375C43.4619 24.375 54.375 21.0171 54.375 16.875C54.375 12.7329 43.4619 9.375 30 9.375C16.5381 9.375 5.625 12.7329 5.625 16.875C5.625 21.0171 16.5381 24.375 30 24.375Z" fill="#B3D9FF"/>
<path d="M30.0024 21.5625C18.6118 21.5625 11.708 19.2281 9.32866 17.6419C9.20337 17.557 9.10078 17.4427 9.02987 17.309C8.95895 17.1754 8.92188 17.0263 8.92188 16.875C8.92188 16.7237 8.95895 16.5746 9.02987 16.441C9.10078 16.3073 9.20337 16.193 9.32866 16.1081C11.708 14.5219 18.6118 12.1875 30.0024 12.1875C41.393 12.1875 48.2968 14.5219 50.6762 16.1081C50.8015 16.193 50.904 16.3073 50.975 16.441C51.0459 16.5746 51.0829 16.7237 51.0829 16.875C51.0829 17.0263 51.0459 17.1754 50.975 17.309C50.904 17.4427 50.8015 17.557 50.6762 17.6419C48.2968 19.2281 41.393 21.5625 30.0024 21.5625Z" fill="#4AA7F0"/>
<path d="M54.375 28.125V33.1125C52.3094 34.2258 50.1015 35.0522 47.8125 35.5687C41.9714 36.9098 35.9927 37.558 30 37.5C24.0011 37.5568 18.0163 36.9087 12.1687 35.5687C9.88561 35.0525 7.68392 34.2261 5.625 33.1125V28.125C5.625 28.7625 7.44375 30.5063 13.0875 31.9313C18.633 33.2056 24.3103 33.8162 30 33.75C35.6897 33.8162 41.367 33.2056 46.9125 31.9313C52.5563 30.5063 54.375 28.7625 54.375 28.125ZM54.375 39.375V44.3625C52.3094 45.4758 50.1015 46.3022 47.8125 46.8187C41.9714 48.1598 35.9927 48.808 30 48.75C24.0011 48.8068 18.0163 48.1587 12.1687 46.8187C9.88561 46.3025 7.68392 45.4761 5.625 44.3625V39.375C5.625 40.0125 7.44375 41.7563 13.0875 43.1813C18.633 44.4556 24.3103 45.0662 30 45C35.6897 45.0662 41.367 44.4556 46.9125 43.1813C52.5563 41.7563 54.375 40.0125 54.375 39.375ZM54.375 50.625V55.6125C52.3161 56.7261 50.1144 57.5525 47.8313 58.0687C41.9837 59.4087 35.9989 60.0568 30 60C24.0011 60.0568 18.0163 59.4087 12.1687 58.0687C9.88561 57.5525 7.68392 56.7261 5.625 55.6125V50.625C5.625 51.2625 7.44375 53.0062 13.0875 54.4312C18.633 55.7056 24.3103 56.3162 30 56.25C35.6897 56.3162 41.367 55.7056 46.9125 54.4312C52.5563 53.0062 54.375 51.2625 54.375 50.625ZM54.375 61.875V66.8625C52.3161 67.9761 50.1144 68.8025 47.8313 69.3187C41.9837 70.6587 35.9989 71.3068 30 71.25C24.0011 71.3068 18.0163 70.6587 12.1687 69.3187C9.88561 68.8025 7.68392 67.9761 5.625 66.8625V61.875C5.625 62.5125 7.44375 64.2562 13.0875 65.6812C18.633 66.9556 24.3103 67.5662 30 67.5C35.6897 67.5662 41.367 66.9556 46.9125 65.6812C52.5563 64.2562 54.375 62.5125 54.375 61.875Z" fill="#B3D9FF"/>
<path d="M54.3753 71.25V73.8937C54.3853 74.6249 54.1764 75.3422 53.7754 75.9537C53.3745 76.5651 52.7998 77.0427 52.1253 77.325C50.679 77.9027 49.1942 78.3789 47.6816 78.75C41.8805 80.0583 35.9468 80.6876 30.0003 80.625C24.0538 80.6876 18.1202 80.0583 12.3191 78.75C10.8065 78.3789 9.32167 77.9027 7.87534 77.325C7.20086 77.0427 6.62621 76.5651 6.22527 75.9537C5.82432 75.3422 5.61539 74.6249 5.62534 73.8937V71.25C5.62534 72.9375 13.9128 76.875 30.0003 76.875C46.0878 76.875 54.3753 72.9375 54.3753 71.25Z" fill="#B3D9FF"/>
<path d="M28.125 15.4688V17.8125H24.375V15.4688C24.375 15.21 23.5369 15 22.5 15C21.4631 15 20.625 15.21 20.625 15.4688V16.4063H18.75C17.715 16.4063 16.875 16.6163 16.875 16.875C16.875 17.1338 17.715 17.3438 18.75 17.3438H20.625V18.2813C20.625 18.54 21.4631 18.75 22.5 18.75H30C31.0369 18.75 31.875 18.54 31.875 18.2813V15.9375H35.625V18.2813C35.625 18.54 36.4631 18.75 37.5 18.75C38.5369 18.75 39.375 18.54 39.375 18.2813V17.3438H41.25C42.2869 17.3438 43.125 17.1338 43.125 16.875C43.125 16.6163 42.2869 16.4063 41.25 16.4063H39.375V15.4688C39.375 15.21 38.5369 15 37.5 15H30C28.9631 15 28.125 15.21 28.125 15.4688Z" fill="#E9F5FF"/>
<path d="M60 80.625C73.4619 80.625 84.375 69.7119 84.375 56.25C84.375 42.7881 73.4619 31.875 60 31.875C46.5381 31.875 35.625 42.7881 35.625 56.25C35.625 69.7119 46.5381 80.625 60 80.625Z" fill="#B3D9FF"/>
<path d="M60 76.875C71.3909 76.875 80.625 67.6409 80.625 56.25C80.625 44.8591 71.3909 35.625 60 35.625C48.6091 35.625 39.375 44.8591 39.375 56.25C39.375 67.6409 48.6091 76.875 60 76.875Z" fill="#4AA7F0"/>
<path d="M65.625 54.375H56.25V50.625H65.625C66.1223 50.625 66.5992 50.4275 66.9508 50.0758C67.3025 49.7242 67.5 49.2473 67.5 48.75C67.5 48.2527 67.3025 47.7758 66.9508 47.4242C66.5992 47.0725 66.1223 46.875 65.625 46.875H61.875V45C61.875 44.5027 61.6775 44.0258 61.3258 43.6742C60.9742 43.3225 60.4973 43.125 60 43.125C59.5027 43.125 59.0258 43.3225 58.6742 43.6742C58.3225 44.0258 58.125 44.5027 58.125 45V46.875H54.375C53.8777 46.875 53.4008 47.0725 53.0492 47.4242C52.6975 47.7758 52.5 48.2527 52.5 48.75V56.25C52.5 56.7473 52.6975 57.2242 53.0492 57.5758C53.4008 57.9275 53.8777 58.125 54.375 58.125H63.75V61.875H54.375C53.8777 61.875 53.4008 62.0725 53.0492 62.4242C52.6975 62.7758 52.5 63.2527 52.5 63.75C52.5 64.2473 52.6975 64.7242 53.0492 65.0758C53.4008 65.4275 53.8777 65.625 54.375 65.625H58.125V67.5C58.125 67.9973 58.3225 68.4742 58.6742 68.8258C59.0258 69.1775 59.5027 69.375 60 69.375C60.4973 69.375 60.9742 69.1775 61.3258 68.8258C61.6775 68.4742 61.875 67.9973 61.875 67.5V65.625H65.625C66.1223 65.625 66.5992 65.4275 66.9508 65.0758C67.3025 64.7242 67.5 64.2473 67.5 63.75V56.25C67.5 55.7527 67.3025 55.2758 66.9508 54.9242C66.5992 54.5725 66.1223 54.375 65.625 54.375Z" fill="white"/>
</symbol>

<symbol  id='advantages-image_2' width="90" height="90" viewBox="0 0 90 90" >
<path d="M41.25 73.125C38.0278 71.9862 34.5663 71.6975 31.2 72.2869C30.1557 72.4898 29.1278 72.7699 28.125 73.125C25.5688 74.1117 23.2474 75.6224 21.3099 77.5599C19.3724 79.4974 17.8617 81.8188 16.875 84.375V68.0813C16.8748 65.5705 17.5054 63.0999 18.7087 60.8963C19.4304 59.6685 20.287 58.5251 21.2625 57.4875C22.7973 55.702 24.4645 54.0348 26.25 52.5L41.25 73.125ZM48.75 73.125C51.9722 71.9862 55.4337 71.6975 58.8 72.2869C59.8443 72.4898 60.8722 72.7699 61.875 73.125C64.4312 74.1117 66.7526 75.6224 68.6901 77.5599C70.6276 79.4974 72.1383 81.8188 73.125 84.375V68.0813C73.1252 65.5705 72.4946 63.0999 71.2912 60.8963C70.5696 59.6685 69.713 58.5251 68.7375 57.4875C67.2027 55.702 65.5355 54.0348 63.75 52.5L48.75 73.125Z" fill="#144DA4"/>
<path d="M45 5.625L41.9644 7.28062C36.6414 10.1839 32.1989 14.4675 29.1037 19.6812C26.0086 24.8949 24.3751 30.8461 24.375 36.9094V45.5906C24.3758 51.6532 26.0096 57.6037 29.1047 62.8167C32.1998 68.0296 36.642 72.3127 41.9644 75.2156L45 76.875L48.0356 75.2194C53.3586 72.3161 57.8011 68.0325 60.8963 62.8188C63.9914 57.6051 65.6249 51.6539 65.625 45.5906V36.9094C65.6242 30.8468 63.9904 24.8963 60.8953 19.6834C57.8002 14.4704 53.358 10.1873 48.0356 7.28438L45 5.625Z" fill="#4AA7F0"/>
<path d="M45 45C51.2132 45 56.25 39.9632 56.25 33.75C56.25 27.5368 51.2132 22.5 45 22.5C38.7868 22.5 33.75 27.5368 33.75 33.75C33.75 39.9632 38.7868 45 45 45Z" fill="#B3D9FF"/>
<path d="M45 41.25C49.1421 41.25 52.5 37.8921 52.5 33.75C52.5 29.6079 49.1421 26.25 45 26.25C40.8579 26.25 37.5 29.6079 37.5 33.75C37.5 37.8921 40.8579 41.25 45 41.25Z" fill="white"/>
<path d="M45.0016 86.25L44.7109 85.6669C43.6688 83.5841 43.1263 81.2871 43.1266 78.9581V54.375C43.1266 53.8777 43.3241 53.4008 43.6757 53.0492C44.0274 52.6975 44.5043 52.5 45.0016 52.5C45.4988 52.5 45.9758 52.6975 46.3274 53.0492C46.679 53.4008 46.8766 53.8777 46.8766 54.375V78.9581C46.8768 81.2871 46.3343 83.5841 45.2922 85.6669L45.0016 86.25ZM59.0266 16.875H30.9766C33.8948 12.9117 37.645 9.63508 41.9641 7.275L45.0016 5.625L48.0391 7.275C52.3581 9.63508 56.1083 12.9117 59.0266 16.875Z" fill="#B3D9FF"/>
</symbol>

<symbol id='advantages-image_3' width="90" height="90" viewBox="0 0 90 90" >
<path d="M45 84C66.5391 84 84 66.5391 84 45C84 23.4609 66.5391 6 45 6C23.4609 6 6 23.4609 6 45C6 66.5391 23.4609 84 45 84Z" fill="#B3D9FF"/>
<path d="M44.8605 76.4363C62.2969 76.4363 76.4319 62.3013 76.4319 44.8649C76.4319 27.4285 62.2969 13.2935 44.8605 13.2935C27.4241 13.2935 13.2891 27.4285 13.2891 44.8649C13.2891 62.3013 27.4241 76.4363 44.8605 76.4363Z" fill="#4AA7F0"/>
<path d="M37.6256 59.2364V62.8208C37.6256 63.2165 37.9495 63.5377 38.3486 63.5377H41.2403C41.4321 63.5377 41.6159 63.4622 41.7515 63.3277C41.8871 63.1933 41.9633 63.0109 41.9633 62.8208V59.2364H43.4091V62.8208C43.4091 63.2165 43.733 63.5377 44.1321 63.5377H47.0238C47.2155 63.5377 47.3994 63.4622 47.535 63.3277C47.6706 63.1933 47.7467 63.0109 47.7467 62.8208V59.2364H47.9897C53.75 59.2364 57.8679 56.2742 57.8679 51.1499C57.8679 46.8429 54.9559 44.4887 51.5465 44.1532V43.9008C54.3515 43.2069 56.4133 41.1078 56.4133 37.6209C56.4133 33.2279 53.0878 30.5611 48.0128 30.5611H47.7467V26.9766C47.7467 26.7865 47.6706 26.6042 47.535 26.4697C47.3994 26.3353 47.2155 26.2598 47.0238 26.2598H44.1321C43.9403 26.2598 43.7565 26.3353 43.6209 26.4697C43.4853 26.6042 43.4091 26.7865 43.4091 26.9766V30.5611H41.7522V26.9766C41.7522 26.7865 41.676 26.6042 41.5404 26.4697C41.4048 26.3353 41.221 26.2598 41.0292 26.2598H38.3486C38.1568 26.2598 37.973 26.3353 37.8374 26.4697C37.7018 26.6042 37.6256 26.7865 37.6256 26.9766V30.5611L31.8479 30.5926C31.6562 30.5926 31.4723 30.6681 31.3367 30.8026C31.2012 30.937 31.125 31.1194 31.125 31.3095V34.1455C31.125 34.5383 31.4431 34.8624 31.8422 34.8624L34.0254 34.848C34.5981 34.8518 35.1461 35.0801 35.5497 35.483C35.9533 35.8859 36.1798 36.4308 36.1798 36.9987V52.7844C36.1798 53.3548 35.9513 53.9019 35.5445 54.3052C35.1378 54.7085 34.5862 54.9351 34.011 54.9351L31.8479 54.9666C31.6562 54.9666 31.4723 55.0422 31.3367 55.1766C31.2012 55.311 31.125 55.4934 31.125 55.6835V58.551C31.125 58.9468 31.4489 59.2679 31.8479 59.2679L37.6256 59.2364ZM41.7522 34.8251H46.7231C49.343 34.8251 50.8814 36.2531 50.8814 38.5873C50.8814 41.0849 49.2186 42.4929 45.4536 42.4929H41.7522V34.8251ZM41.7522 46.4415H47.073C50.3609 46.4415 52.1509 48.1046 52.1509 50.8116C52.1509 53.5443 50.3406 54.9695 45.9105 54.9695H41.7522V46.4415Z" fill="white"/>
</symbol>

<symbol id='advantages-image_4' width="90" height="90" viewBox="0 0 90 90" >
<path d="M45 69.375C58.4619 69.375 69.375 58.4619 69.375 45C69.375 31.5381 58.4619 20.625 45 20.625C31.5381 20.625 20.625 31.5381 20.625 45C20.625 58.4619 31.5381 69.375 45 69.375Z" fill="#4AA7F0"/>
<path d="M60.0031 45C60.0033 42.4932 59.853 39.9887 59.5531 37.5H68.1781C67.7716 36.2063 67.2508 34.9514 66.6219 33.75H59.0094C58.3811 30.2329 57.4719 26.7718 56.2906 23.4C54.7906 22.6051 53.2056 21.9824 51.5656 21.5437C53.1865 25.4795 54.4052 29.569 55.2031 33.75H46.8781V20.7188C45.6312 20.5938 44.375 20.5938 43.1281 20.7188V33.75H34.8031C35.601 29.569 36.8197 25.4795 38.4406 21.5437C36.8007 21.9824 35.2156 22.6051 33.7156 23.4C32.5343 26.7718 31.6252 30.2329 30.9969 33.75H23.3844C22.7554 34.9514 22.2346 36.2063 21.8281 37.5H30.4531C29.8531 42.482 29.8531 47.518 30.4531 52.5H21.8281C22.2346 53.7937 22.7554 55.0486 23.3844 56.25H30.9969C31.6252 59.7671 32.5343 63.2282 33.7156 66.6C35.2156 67.3949 36.8007 68.0176 38.4406 68.4562C36.8197 64.5205 35.601 60.431 34.8031 56.25H43.1281V69.3C43.7469 69.3562 44.3656 69.375 45.0031 69.375C45.6406 69.375 46.2594 69.3562 46.8781 69.3V56.25H55.2031C54.4052 60.431 53.1865 64.5205 51.5656 68.4562C53.2056 68.0176 54.7906 67.3949 56.2906 66.6C57.4719 63.2282 58.3811 59.7671 59.0094 56.25H66.6219C67.2508 55.0486 67.7716 53.7937 68.1781 52.5H59.5531C59.853 50.0113 60.0033 47.5068 60.0031 45ZM34.2219 52.5C33.5969 47.5195 33.5969 42.4805 34.2219 37.5H43.1281V52.5H34.2219ZM46.8781 52.5V37.5H55.7844C56.0998 39.9875 56.2564 42.4926 56.2531 45C56.2564 47.5074 56.0998 50.0125 55.7844 52.5H46.8781Z" fill="#B3D9FF"/>
<path d="M86.8431 22.5957C86.3715 22.4383 85.8566 22.4748 85.4118 22.697C84.967 22.9192 84.6287 23.309 84.4713 23.7807L82.5194 29.6382C79.4371 21.5614 73.8351 14.6924 66.5433 10.0487C59.2515 5.40505 50.6578 3.23375 42.0353 3.85651C33.4129 4.47926 25.2204 7.86294 18.6716 13.5063C12.1227 19.1496 7.56595 26.7523 5.67627 35.1882C5.56065 35.672 5.64198 36.182 5.90236 36.6059C6.16275 37.0298 6.58085 37.3329 7.06471 37.4485C7.54856 37.5641 8.05853 37.4828 8.48242 37.2224C8.90631 36.962 9.2094 36.5439 9.32502 36.06C11.031 28.3941 15.1651 21.4833 21.1128 16.3548C27.0605 11.2263 34.5044 8.15392 42.3379 7.59431C50.1714 7.0347 57.9763 9.01774 64.5927 13.2487C71.209 17.4796 76.2835 23.7326 79.0619 31.0782L72.2894 26.5632C71.8756 26.2977 71.3741 26.2054 70.893 26.3061C70.4118 26.4068 69.9894 26.6924 69.7168 27.1015C69.4441 27.5106 69.343 28.0104 69.4353 28.4932C69.5276 28.9761 69.8058 29.4034 70.21 29.6832L81.46 37.1832C81.6996 37.3419 81.9725 37.4433 82.2576 37.4798C82.5427 37.5162 82.8324 37.4866 83.1042 37.3933C83.376 37.3 83.6227 37.1454 83.8253 36.9415C84.0279 36.7377 84.1809 36.4899 84.2725 36.2175L88.0225 24.9675C88.1801 24.4966 88.1445 23.9824 87.9233 23.5377C87.7022 23.093 87.3138 22.7542 86.8431 22.5957ZM82.9356 52.5507C82.4531 52.4379 81.9456 52.5208 81.524 52.7812C81.1024 53.0415 80.801 53.4581 80.6856 53.94C78.983 61.6106 74.8495 68.5266 68.9002 73.659C62.9508 78.7915 55.5034 81.8661 47.666 82.4254C39.8287 82.9848 32.0201 80.999 25.4022 76.7635C18.7842 72.5281 13.7104 66.2692 10.9356 58.9182L17.71 63.435C17.9149 63.5717 18.1447 63.6667 18.3862 63.7145C18.6278 63.7624 18.8764 63.7622 19.1179 63.714C19.3594 63.6657 19.589 63.5704 19.7937 63.4334C19.9983 63.2965 20.174 63.1205 20.3106 62.9157C20.4473 62.7108 20.5423 62.481 20.5901 62.2395C20.638 61.9979 20.6378 61.7493 20.5896 61.5078C20.5413 61.2663 20.446 61.0367 20.309 60.832C20.1721 60.6274 19.9961 60.4517 19.7913 60.315L8.54127 52.815C8.30153 52.6564 8.02851 52.555 7.74333 52.5187C7.45814 52.4823 7.16842 52.5121 6.89657 52.6056C6.62472 52.6991 6.37801 52.8539 6.17552 53.058C5.97302 53.2621 5.82017 53.51 5.72877 53.7825L1.97877 65.0325C1.82163 65.5049 1.85859 66.0204 2.08153 66.4656C2.30446 66.9108 2.6951 67.2491 3.16752 67.4063C3.63994 67.5634 4.15543 67.5265 4.60059 67.3035C5.04576 67.0806 5.38413 66.69 5.54127 66.2175L7.47065 60.3938C10.5606 68.4664 16.1677 75.3295 23.4619 79.9674C30.756 84.6052 39.3497 86.7713 47.9707 86.1449C56.5917 85.5185 64.782 82.133 71.3292 76.4896C77.8764 70.8461 82.4325 63.2445 84.3231 54.81C84.4387 54.3264 84.3575 53.8167 84.0973 53.393C83.8371 52.9693 83.4192 52.6663 82.9356 52.5507Z" fill="#B3D9FF"/>
</symbol>

<symbol id='advantages-image_5' width="90" height="90" viewBox="0 0 90 90" >
<path d="M62.3625 71.7375L66.1744 75.5494C66.526 75.9009 67.0028 76.0983 67.5 76.0983C67.9972 76.0983 68.474 75.9009 68.8256 75.5494L75.5494 68.8256C75.9009 68.474 76.0983 67.9972 76.0983 67.5C76.0983 67.0028 75.9009 66.526 75.5494 66.1744L71.7375 62.3625C73.7023 59.3386 75.1414 56.004 75.9937 52.5H82.5C82.9973 52.5 83.4742 52.3025 83.8258 51.9508C84.1775 51.5992 84.375 51.1223 84.375 50.625V39.375C84.375 38.8777 84.1775 38.4008 83.8258 38.0492C83.4742 37.6975 82.9973 37.5 82.5 37.5H75.9937C75.1414 33.996 73.7023 30.6614 71.7375 27.6375L75.5494 23.8256C75.9009 23.474 76.0983 22.9972 76.0983 22.5C76.0983 22.0028 75.9009 21.526 75.5494 21.1744L68.8256 14.4506C68.474 14.0991 67.9972 13.9017 67.5 13.9017C67.0028 13.9017 66.526 14.0991 66.1744 14.4506L62.3625 18.2625C59.3386 16.2977 56.004 14.8586 52.5 14.0062V7.5C52.5 7.00272 52.3025 6.52581 51.9508 6.17417C51.5992 5.82254 51.1223 5.625 50.625 5.625H39.375C38.8777 5.625 38.4008 5.82254 38.0492 6.17417C37.6975 6.52581 37.5 7.00272 37.5 7.5V14.0062C33.996 14.8586 30.6614 16.2977 27.6375 18.2625L23.8256 14.4506C23.474 14.0991 22.9972 13.9017 22.5 13.9017C22.0028 13.9017 21.526 14.0991 21.1744 14.4506L14.4506 21.1744C14.0991 21.526 13.9017 22.0028 13.9017 22.5C13.9017 22.9972 14.0991 23.474 14.4506 23.8256L18.2625 27.6375C16.2977 30.6614 14.8586 33.996 14.0062 37.5H7.5C7.00272 37.5 6.52581 37.6975 6.17417 38.0492C5.82254 38.4008 5.625 38.8777 5.625 39.375V50.625C5.625 51.1223 5.82254 51.5992 6.17417 51.9508C6.52581 52.3025 7.00272 52.5 7.5 52.5H14.0062C14.8586 56.004 16.2977 59.3386 18.2625 62.3625L14.4506 66.1744C14.0991 66.526 13.9017 67.0028 13.9017 67.5C13.9017 67.9972 14.0991 68.474 14.4506 68.8256L21.1744 75.5494C21.526 75.9009 22.0028 76.0983 22.5 76.0983C22.9972 76.0983 23.474 75.9009 23.8256 75.5494L27.6375 71.7375C30.6614 73.7023 33.996 75.1414 37.5 75.9937V82.5C37.5 82.9973 37.6975 83.4742 38.0492 83.8258C38.4008 84.1775 38.8777 84.375 39.375 84.375H50.625C51.1223 84.375 51.5992 84.1775 51.9508 83.8258C52.3025 83.4742 52.5 82.9973 52.5 82.5V75.9937C56.004 75.1414 59.3386 73.7023 62.3625 71.7375Z" fill="#4AA7F0"/>
<path d="M50.5234 31.2188C50.5234 28.8888 48.005 27 44.8984 27C41.7918 27 39.2734 28.8888 39.2734 31.2188V34.0312C39.2734 36.3612 41.7918 38.25 44.8984 38.25C48.005 38.25 50.5234 36.3612 50.5234 34.0312V31.2188Z" fill="white"/>
<path d="M45 43.6023C48.481 43.6023 51.8194 44.9851 54.2808 47.4465C56.7422 49.9079 58.125 53.2463 58.125 56.7273V62.3523H31.875V56.7273C31.875 53.2463 33.2578 49.9079 35.7192 47.4465C38.1806 44.9851 41.519 43.6023 45 43.6023Z" fill="white"/>
</symbol>


<symbol id='advantages-image_6' width="90" height="90" viewBox="0 0 90 90" >
<path d="M44.9996 78.75C44.5023 78.75 44.0254 78.5525 43.6738 78.2008C43.3221 77.8492 43.1246 77.3723 43.1246 76.875V56.25C43.1246 55.7527 43.3221 55.2758 43.6738 54.9242C44.0254 54.5725 44.5023 54.375 44.9996 54.375C45.4969 54.375 45.9738 54.5725 46.3254 54.9242C46.6771 55.2758 46.8746 55.7527 46.8746 56.25V76.875C46.8746 77.3723 46.6771 77.8492 46.3254 78.2008C45.9738 78.5525 45.4969 78.75 44.9996 78.75ZM14.9996 78.75C14.6288 78.7499 14.2664 78.6399 13.9581 78.4339C13.6498 78.2278 13.4096 77.935 13.2677 77.5925C13.1258 77.2499 13.0887 76.873 13.161 76.5093C13.2333 76.1457 13.4118 75.8116 13.674 75.5494L22.4996 66.7237V56.25C22.4996 55.7527 22.6971 55.2758 23.0488 54.9242C23.4004 54.5725 23.8773 54.375 24.3746 54.375C24.8719 54.375 25.3488 54.5725 25.7004 54.9242C26.0521 55.2758 26.2496 55.7527 26.2496 56.25V67.5C26.2495 67.9972 26.0519 68.4741 25.7002 68.8256L16.3252 78.2006C15.9737 78.5523 15.4968 78.7499 14.9996 78.75ZM74.9996 78.75C74.5024 78.7499 74.0255 78.5523 73.674 78.2006L64.299 68.8256C63.9473 68.4741 63.7497 67.9972 63.7496 67.5V56.25C63.7496 55.7527 63.9471 55.2758 64.2988 54.9242C64.6504 54.5725 65.1273 54.375 65.6246 54.375C66.1219 54.375 66.5988 54.5725 66.9504 54.9242C67.3021 55.2758 67.4996 55.7527 67.4996 56.25V66.7237L76.3252 75.5494C76.5874 75.8116 76.7659 76.1457 76.8382 76.5093C76.9105 76.873 76.8734 77.2499 76.7315 77.5925C76.5896 77.935 76.3494 78.2278 76.0411 78.4339C75.7328 78.6399 75.3704 78.7499 74.9996 78.75Z" fill="#B3D9FF"/>
<path d="M65.3649 31.3874C65.5376 30.3085 65.6254 29.2176 65.6274 28.1249C65.594 22.7975 63.5005 17.6897 59.7854 13.8713C56.0702 10.0529 51.0216 7.82019 45.6971 7.64085C40.3726 7.46151 35.1853 9.34944 31.2216 12.9092C27.2579 16.4689 24.8254 21.4243 24.4337 26.7374C22.3722 26.1986 20.2196 26.1052 18.1192 26.4634C16.0188 26.8215 14.0187 27.6231 12.2523 28.8146C10.4859 30.0062 8.99362 31.5604 7.87482 33.3738C6.75602 35.1871 6.03639 37.218 5.76384 39.3313C5.4913 41.4445 5.6721 43.5915 6.2942 45.6294C6.9163 47.6673 7.96543 49.5493 9.37172 51.15C10.778 52.7508 12.5092 54.0335 14.45 54.9129C16.3908 55.7923 18.4967 56.2481 20.6274 56.2499H71.2524C73.232 56.2478 75.1855 55.7979 76.9665 54.9339C78.7476 54.07 80.3102 52.8143 81.5374 51.261C82.7645 49.7076 83.6243 47.8968 84.0525 45.9641C84.4808 44.0314 84.4662 42.0268 84.0101 40.1005C83.5539 38.1742 82.668 36.3761 81.4185 34.8406C80.169 33.3052 78.5884 32.0723 76.795 31.2342C75.0016 30.3961 73.0418 29.9746 71.0624 30.0011C69.083 30.0276 67.1352 30.5016 65.3649 31.3874Z" fill="#4AA7F0"/>
<path d="M45 82.5C47.0711 82.5 48.75 80.8211 48.75 78.75C48.75 76.6789 47.0711 75 45 75C42.9289 75 41.25 76.6789 41.25 78.75C41.25 80.8211 42.9289 82.5 45 82.5Z" fill="#144DA4"/>
<path d="M13.125 82.5C15.1961 82.5 16.875 80.8211 16.875 78.75C16.875 76.6789 15.1961 75 13.125 75C11.0539 75 9.375 76.6789 9.375 78.75C9.375 80.8211 11.0539 82.5 13.125 82.5Z" fill="#144DA4"/>
<path d="M76.875 82.5C78.9461 82.5 80.625 80.8211 80.625 78.75C80.625 76.6789 78.9461 75 76.875 75C74.8039 75 73.125 76.6789 73.125 78.75C73.125 80.8211 74.8039 82.5 76.875 82.5Z" fill="#144DA4"/>
</symbol>

<symbol id='5-stars' width="92" height="19" viewBox="0 0 92 19">
<path d="M10.0005 15.1832L5.68385 18.479C5.46996 18.654 5.23663 18.7365 4.98385 18.7264C4.73108 18.717 4.50747 18.6443 4.31302 18.5082C4.11858 18.3721 3.96808 18.1874 3.86152 17.954C3.75419 17.7207 3.74913 17.4679 3.84635 17.1957L5.50885 11.7999L1.27969 8.7957C1.04635 8.64015 0.900521 8.43598 0.842187 8.1832C0.783854 7.93043 0.793576 7.69709 0.871354 7.4832C0.949132 7.26931 1.08524 7.07954 1.27969 6.91387C1.47413 6.74898 1.70747 6.66654 1.97969 6.66654H7.20052L8.89219 1.06654C8.98941 0.794314 9.1403 0.585092 9.34485 0.43887C9.54863 0.293426 9.76719 0.220703 10.0005 0.220703C10.2339 0.220703 10.4524 0.293426 10.6562 0.43887C10.8607 0.585092 11.0116 0.794314 11.1089 1.06654L12.8005 6.66654H18.0214C18.2936 6.66654 18.5269 6.74898 18.7214 6.91387C18.9158 7.07954 19.0519 7.26931 19.1297 7.4832C19.2075 7.69709 19.2172 7.93043 19.1589 8.1832C19.1005 8.43598 18.9547 8.64015 18.7214 8.7957L14.4922 11.7999L16.1547 17.1957C16.2519 17.4679 16.2472 17.7207 16.1407 17.954C16.0334 18.1874 15.8825 18.3721 15.688 18.5082C15.4936 18.6443 15.27 18.717 15.0172 18.7264C14.7644 18.7365 14.5311 18.654 14.3172 18.479L10.0005 15.1832Z" fill="#FFBB54"/>
<path d="M28.0005 15.1832L23.6839 18.479C23.47 18.654 23.2366 18.7365 22.9839 18.7264C22.7311 18.717 22.5075 18.6443 22.313 18.5082C22.1186 18.3721 21.9681 18.1874 21.8615 17.954C21.7542 17.7207 21.7491 17.4679 21.8464 17.1957L23.5089 11.7999L19.2797 8.7957C19.0464 8.64015 18.9005 8.43598 18.8422 8.1832C18.7839 7.93043 18.7936 7.69709 18.8714 7.4832C18.9491 7.26931 19.0852 7.07954 19.2797 6.91387C19.4741 6.74898 19.7075 6.66654 19.9797 6.66654H25.2005L26.8922 1.06654C26.9894 0.794314 27.1403 0.585092 27.3449 0.43887C27.5486 0.293426 27.7672 0.220703 28.0005 0.220703C28.2339 0.220703 28.4524 0.293426 28.6562 0.43887C28.8607 0.585092 29.0116 0.794314 29.1089 1.06654L30.8005 6.66654H36.0214C36.2936 6.66654 36.5269 6.74898 36.7214 6.91387C36.9158 7.07954 37.0519 7.26931 37.1297 7.4832C37.2075 7.69709 37.2172 7.93043 37.1589 8.1832C37.1005 8.43598 36.9547 8.64015 36.7214 8.7957L32.4922 11.7999L34.1547 17.1957C34.2519 17.4679 34.2472 17.7207 34.1407 17.954C34.0334 18.1874 33.8825 18.3721 33.688 18.5082C33.4936 18.6443 33.27 18.717 33.0172 18.7264C32.7644 18.7365 32.5311 18.654 32.3172 18.479L28.0005 15.1832Z" fill="#FFBB54"/>
<path d="M46.0005 15.1832L41.6839 18.479C41.47 18.654 41.2366 18.7365 40.9839 18.7264C40.7311 18.717 40.5075 18.6443 40.313 18.5082C40.1186 18.3721 39.9681 18.1874 39.8615 17.954C39.7542 17.7207 39.7491 17.4679 39.8464 17.1957L41.5089 11.7999L37.2797 8.7957C37.0464 8.64015 36.9005 8.43598 36.8422 8.1832C36.7839 7.93043 36.7936 7.69709 36.8714 7.4832C36.9491 7.26931 37.0852 7.07954 37.2797 6.91387C37.4741 6.74898 37.7075 6.66654 37.9797 6.66654H43.2005L44.8922 1.06654C44.9894 0.794314 45.1403 0.585092 45.3449 0.43887C45.5486 0.293426 45.7672 0.220703 46.0005 0.220703C46.2339 0.220703 46.4524 0.293426 46.6562 0.43887C46.8607 0.585092 47.0116 0.794314 47.1089 1.06654L48.8005 6.66654H54.0214C54.2936 6.66654 54.5269 6.74898 54.7214 6.91387C54.9158 7.07954 55.0519 7.26931 55.1297 7.4832C55.2075 7.69709 55.2172 7.93043 55.1589 8.1832C55.1005 8.43598 54.9547 8.64015 54.7214 8.7957L50.4922 11.7999L52.1547 17.1957C52.2519 17.4679 52.2472 17.7207 52.1407 17.954C52.0334 18.1874 51.8825 18.3721 51.688 18.5082C51.4936 18.6443 51.27 18.717 51.0172 18.7264C50.7644 18.7365 50.5311 18.654 50.3172 18.479L46.0005 15.1832Z" fill="#FFBB54"/>
<path d="M64.0005 15.1832L59.6839 18.479C59.47 18.654 59.2366 18.7365 58.9839 18.7264C58.7311 18.717 58.5075 18.6443 58.313 18.5082C58.1186 18.3721 57.9681 18.1874 57.8615 17.954C57.7542 17.7207 57.7491 17.4679 57.8464 17.1957L59.5089 11.7999L55.2797 8.7957C55.0464 8.64015 54.9005 8.43598 54.8422 8.1832C54.7839 7.93043 54.7936 7.69709 54.8714 7.4832C54.9491 7.26931 55.0852 7.07954 55.2797 6.91387C55.4741 6.74898 55.7075 6.66654 55.9797 6.66654H61.2005L62.8922 1.06654C62.9894 0.794314 63.1403 0.585092 63.3449 0.43887C63.5486 0.293426 63.7672 0.220703 64.0005 0.220703C64.2339 0.220703 64.4524 0.293426 64.6562 0.43887C64.8607 0.585092 65.0116 0.794314 65.1089 1.06654L66.8005 6.66654H72.0214C72.2936 6.66654 72.5269 6.74898 72.7214 6.91387C72.9158 7.07954 73.0519 7.26931 73.1297 7.4832C73.2075 7.69709 73.2172 7.93043 73.1589 8.1832C73.1005 8.43598 72.9547 8.64015 72.7214 8.7957L68.4922 11.7999L70.1547 17.1957C70.2519 17.4679 70.2472 17.7207 70.1407 17.954C70.0334 18.1874 69.8825 18.3721 69.688 18.5082C69.4936 18.6443 69.27 18.717 69.0172 18.7264C68.7644 18.7365 68.5311 18.654 68.3172 18.479L64.0005 15.1832Z" fill="#FFBB54"/>
<path d="M82.0005 15.1832L77.6839 18.479C77.47 18.654 77.2366 18.7365 76.9839 18.7264C76.7311 18.717 76.5075 18.6443 76.313 18.5082C76.1186 18.3721 75.9681 18.1874 75.8615 17.954C75.7542 17.7207 75.7491 17.4679 75.8464 17.1957L77.5089 11.7999L73.2797 8.7957C73.0464 8.64015 72.9005 8.43598 72.8422 8.1832C72.7839 7.93043 72.7936 7.69709 72.8714 7.4832C72.9491 7.26931 73.0852 7.07954 73.2797 6.91387C73.4741 6.74898 73.7075 6.66654 73.9797 6.66654H79.2005L80.8922 1.06654C80.9894 0.794314 81.1403 0.585092 81.3449 0.43887C81.5486 0.293426 81.7672 0.220703 82.0005 0.220703C82.2339 0.220703 82.4524 0.293426 82.6562 0.43887C82.8607 0.585092 83.0116 0.794314 83.1089 1.06654L84.8005 6.66654H90.0214C90.2936 6.66654 90.5269 6.74898 90.7214 6.91387C90.9158 7.07954 91.0519 7.26931 91.1297 7.4832C91.2075 7.69709 91.2172 7.93043 91.1589 8.1832C91.1005 8.43598 90.9547 8.64015 90.7214 8.7957L86.4922 11.7999L88.1547 17.1957C88.2519 17.4679 88.2472 17.7207 88.1407 17.954C88.0334 18.1874 87.8825 18.3721 87.688 18.5082C87.4936 18.6443 87.27 18.717 87.0172 18.7264C86.7644 18.7365 86.5311 18.654 86.3172 18.479L82.0005 15.1832Z" fill="#FFBB54"/>
</symbol>

<symbol id='4-stars' width="92" height="19" viewBox="0 0 92 19">
<path d="M79.3958 14.2042L82.1958 12.0458L84.9958 14.2042L83.9458 10.6458L86.5708 8.77917H83.3042L82.1958 5.1625L81.0875 8.77917H77.8208L80.4458 10.6458L79.3958 14.2042ZM82.1958 14.9625L77.8792 18.2583C77.6653 18.4333 77.4319 18.5158 77.1792 18.5057C76.9264 18.4963 76.7028 18.4236 76.5083 18.2875C76.3139 18.1514 76.1634 17.9667 76.0568 17.7333C75.9495 17.5 75.9444 17.2472 76.0417 16.975L77.7042 11.5792L73.475 8.575C73.2417 8.41944 73.0958 8.21528 73.0375 7.9625C72.9792 7.70972 72.9889 7.47639 73.0667 7.2625C73.1444 7.04861 73.2806 6.85883 73.475 6.69317C73.6694 6.52828 73.9028 6.44583 74.175 6.44583H79.3958L81.0875 0.845833C81.1847 0.573611 81.3356 0.364389 81.5402 0.218167C81.7439 0.0727225 81.9625 0 82.1958 0C82.4292 0 82.6477 0.0727225 82.8515 0.218167C83.0561 0.364389 83.2069 0.573611 83.3042 0.845833L84.9958 6.44583H90.2167C90.4889 6.44583 90.7222 6.52828 90.9167 6.69317C91.1111 6.85883 91.2472 7.04861 91.325 7.2625C91.4028 7.47639 91.4125 7.70972 91.3542 7.9625C91.2958 8.21528 91.15 8.41944 90.9167 8.575L86.6875 11.5792L88.35 16.975C88.4472 17.2472 88.4426 17.5 88.336 17.7333C88.2287 17.9667 88.0778 18.1514 87.8833 18.2875C87.6889 18.4236 87.4653 18.4963 87.2125 18.5057C86.9597 18.5158 86.7264 18.4333 86.5125 18.2583L82.1958 14.9625Z" fill="#FFBB54"/>
<path d="M10.0005 14.9625L5.68385 18.2583C5.46996 18.4333 5.23663 18.5158 4.98385 18.5057C4.73108 18.4963 4.50747 18.4236 4.31302 18.2875C4.11858 18.1514 3.96808 17.9667 3.86152 17.7333C3.75419 17.5 3.74913 17.2472 3.84635 16.975L5.50885 11.5792L1.27969 8.575C1.04635 8.41944 0.900521 8.21528 0.842187 7.9625C0.783854 7.70972 0.793576 7.47639 0.871354 7.2625C0.949132 7.04861 1.08524 6.85883 1.27969 6.69317C1.47413 6.52828 1.70747 6.44583 1.97969 6.44583H7.20052L8.89219 0.845833C8.98941 0.573611 9.1403 0.364389 9.34485 0.218167C9.54863 0.0727225 9.76719 0 10.0005 0C10.2339 0 10.4524 0.0727225 10.6562 0.218167C10.8607 0.364389 11.0116 0.573611 11.1089 0.845833L12.8005 6.44583H18.0214C18.2936 6.44583 18.5269 6.52828 18.7214 6.69317C18.9158 6.85883 19.0519 7.04861 19.1297 7.2625C19.2075 7.47639 19.2172 7.70972 19.1589 7.9625C19.1005 8.21528 18.9547 8.41944 18.7214 8.575L14.4922 11.5792L16.1547 16.975C16.2519 17.2472 16.2472 17.5 16.1407 17.7333C16.0334 17.9667 15.8825 18.1514 15.688 18.2875C15.4936 18.4236 15.27 18.4963 15.0172 18.5057C14.7644 18.5158 14.5311 18.4333 14.3172 18.2583L10.0005 14.9625Z" fill="#FFBB54"/>
<path d="M28.0005 14.9625L23.6839 18.2583C23.47 18.4333 23.2366 18.5158 22.9839 18.5057C22.7311 18.4963 22.5075 18.4236 22.313 18.2875C22.1186 18.1514 21.9681 17.9667 21.8615 17.7333C21.7542 17.5 21.7491 17.2472 21.8464 16.975L23.5089 11.5792L19.2797 8.575C19.0464 8.41944 18.9005 8.21528 18.8422 7.9625C18.7839 7.70972 18.7936 7.47639 18.8714 7.2625C18.9491 7.04861 19.0852 6.85883 19.2797 6.69317C19.4741 6.52828 19.7075 6.44583 19.9797 6.44583H25.2005L26.8922 0.845833C26.9894 0.573611 27.1403 0.364389 27.3449 0.218167C27.5486 0.0727225 27.7672 0 28.0005 0C28.2339 0 28.4524 0.0727225 28.6562 0.218167C28.8607 0.364389 29.0116 0.573611 29.1089 0.845833L30.8005 6.44583H36.0214C36.2936 6.44583 36.5269 6.52828 36.7214 6.69317C36.9158 6.85883 37.0519 7.04861 37.1297 7.2625C37.2075 7.47639 37.2172 7.70972 37.1589 7.9625C37.1005 8.21528 36.9547 8.41944 36.7214 8.575L32.4922 11.5792L34.1547 16.975C34.2519 17.2472 34.2472 17.5 34.1407 17.7333C34.0334 17.9667 33.8825 18.1514 33.688 18.2875C33.4936 18.4236 33.27 18.4963 33.0172 18.5057C32.7644 18.5158 32.5311 18.4333 32.3172 18.2583L28.0005 14.9625Z" fill="#FFBB54"/>
<path d="M46.0005 14.9625L41.6839 18.2583C41.47 18.4333 41.2366 18.5158 40.9839 18.5057C40.7311 18.4963 40.5075 18.4236 40.313 18.2875C40.1186 18.1514 39.9681 17.9667 39.8615 17.7333C39.7542 17.5 39.7491 17.2472 39.8464 16.975L41.5089 11.5792L37.2797 8.575C37.0464 8.41944 36.9005 8.21528 36.8422 7.9625C36.7839 7.70972 36.7936 7.47639 36.8714 7.2625C36.9491 7.04861 37.0852 6.85883 37.2797 6.69317C37.4741 6.52828 37.7075 6.44583 37.9797 6.44583H43.2005L44.8922 0.845833C44.9894 0.573611 45.1403 0.364389 45.3449 0.218167C45.5486 0.0727225 45.7672 0 46.0005 0C46.2339 0 46.4524 0.0727225 46.6562 0.218167C46.8607 0.364389 47.0116 0.573611 47.1089 0.845833L48.8005 6.44583H54.0214C54.2936 6.44583 54.5269 6.52828 54.7214 6.69317C54.9158 6.85883 55.0519 7.04861 55.1297 7.2625C55.2075 7.47639 55.2172 7.70972 55.1589 7.9625C55.1005 8.21528 54.9547 8.41944 54.7214 8.575L50.4922 11.5792L52.1547 16.975C52.2519 17.2472 52.2472 17.5 52.1407 17.7333C52.0334 17.9667 51.8825 18.1514 51.688 18.2875C51.4936 18.4236 51.27 18.4963 51.0172 18.5057C50.7644 18.5158 50.5311 18.4333 50.3172 18.2583L46.0005 14.9625Z" fill="#FFBB54"/>
<path d="M64.0005 14.9625L59.6839 18.2583C59.47 18.4333 59.2366 18.5158 58.9839 18.5057C58.7311 18.4963 58.5075 18.4236 58.313 18.2875C58.1186 18.1514 57.9681 17.9667 57.8615 17.7333C57.7542 17.5 57.7491 17.2472 57.8464 16.975L59.5089 11.5792L55.2797 8.575C55.0464 8.41944 54.9005 8.21528 54.8422 7.9625C54.7839 7.70972 54.7936 7.47639 54.8714 7.2625C54.9491 7.04861 55.0852 6.85883 55.2797 6.69317C55.4741 6.52828 55.7075 6.44583 55.9797 6.44583H61.2005L62.8922 0.845833C62.9894 0.573611 63.1403 0.364389 63.3449 0.218167C63.5486 0.0727225 63.7672 0 64.0005 0C64.2339 0 64.4524 0.0727225 64.6562 0.218167C64.8607 0.364389 65.0116 0.573611 65.1089 0.845833L66.8005 6.44583H72.0214C72.2936 6.44583 72.5269 6.52828 72.7214 6.69317C72.9158 6.85883 73.0519 7.04861 73.1297 7.2625C73.2075 7.47639 73.2172 7.70972 73.1589 7.9625C73.1005 8.21528 72.9547 8.41944 72.7214 8.575L68.4922 11.5792L70.1547 16.975C70.2519 17.2472 70.2472 17.5 70.1407 17.7333C70.0334 17.9667 69.8825 18.1514 69.688 18.2875C69.4936 18.4236 69.27 18.4963 69.0172 18.5057C68.7644 18.5158 68.5311 18.4333 68.3172 18.2583L64.0005 14.9625Z" fill="#FFBB54"/>
</symbol>

<symbol id='payment-mastercard' width="100" height="74" viewBox="0 0 100 74" >
<path d="M43.3327 30.3335C43.3342 33.1413 43.9289 35.9171 45.0777 38.479C46.2266 41.041 47.9038 43.3314 49.9994 45.2001C54.0794 41.5335 56.666 36.2368 56.666 30.3335C56.666 24.4301 54.0794 19.1335 49.9994 15.4668C47.9038 17.3355 46.2266 19.6259 45.0777 22.1879C43.9289 24.7499 43.3342 27.5257 43.3327 30.3335V30.3335ZM67.966 58.5335C66.8227 58.5335 66.126 59.4135 66.126 60.4801C66.126 61.5468 66.826 62.4235 67.966 62.4235C69.0594 62.4235 69.796 61.5835 69.796 60.4801C69.796 59.3735 69.0594 58.5368 67.966 58.5368V58.5335ZM50.1594 58.4735C49.2194 58.4735 48.686 59.0701 48.546 59.9468H51.696C51.556 59.0068 51.0127 58.4735 50.1627 58.4735H50.1594ZM30.6994 58.5335C29.5594 58.5335 28.8594 59.4135 28.8594 60.4801C28.8594 61.5468 29.5594 62.4235 30.7027 62.4235C31.7927 62.4235 32.5294 61.5835 32.5294 60.4801C32.5294 59.3735 31.796 58.5368 30.7027 58.5368L30.6994 58.5335Z" fill="#F0F2FA"/>
<path d="M93.3333 0.333496H6.66667C2.99 0.333496 0 3.3235 0 7.00016V67.0002C0 70.6768 2.99 73.6668 6.66667 73.6668H93.3333C97.01 73.6668 100 70.6768 100 67.0002V7.00016C100 3.3235 97.01 0.333496 93.3333 0.333496ZM26.3333 63.5135H25V60.1368C25 59.1068 24.5667 58.5368 23.6667 58.5368C22.79 58.5368 22.18 59.0935 22.18 60.1502V63.5168H20.8467V60.1335C20.8467 59.1035 20.4033 58.5335 19.5267 58.5335C18.6267 58.5335 18.04 59.0902 18.04 60.1468V63.5135H16.7067V57.4402H18.0267V58.1902C18.2192 57.898 18.4847 57.6612 18.7969 57.5033C19.1092 57.3455 19.4573 57.272 19.8067 57.2902C20.7333 57.2902 21.3933 57.6935 21.8133 58.3668C22.37 57.5168 23.17 57.2735 23.9467 57.2868C25.42 57.3002 26.3333 58.2668 26.3333 59.7002V63.5102V63.5135ZM33.7767 60.4802V63.5135H32.4567V62.7802C32.2306 63.0712 31.9378 63.3037 31.6031 63.458C31.2684 63.6124 30.9015 63.684 30.5333 63.6668C28.8333 63.6668 27.5 62.3335 27.5 60.4802C27.5 58.6235 28.8333 57.2902 30.5333 57.2902C31.4 57.2902 32.0333 57.6335 32.4533 58.1802V57.4435H33.7733V60.4768L33.7767 60.4802ZM37.6867 63.6668C36.6967 63.6668 35.7833 63.4135 35.06 62.8802L35.68 61.8502C36.2632 62.282 36.9747 62.505 37.7 62.4835C38.6 62.4835 39.0867 62.2168 39.0867 61.7502C39.0867 61.4068 38.7433 61.2168 38.02 61.1168L37.3967 61.0235C36.0367 60.8335 35.3 60.2235 35.3 59.2335C35.3 58.0268 36.29 57.2902 37.8267 57.2902C38.7933 57.2902 39.67 57.5068 40.3033 57.9235L39.7333 58.9902C39.1564 58.6599 38.5048 58.4821 37.84 58.4735C37.1167 58.4735 36.6833 58.7402 36.6833 59.1835C36.6833 59.5902 37.1433 59.7035 37.7167 59.7802L38.3367 59.8702C39.6567 60.0602 40.4567 60.6168 40.4567 61.6868C40.4567 62.8402 39.44 63.6668 37.69 63.6668H37.6867ZM44.6867 63.6668C43.1233 63.6668 42.5767 62.8268 42.5767 61.4202V58.6502H41.3433V57.4435H42.5767V55.6002H43.91V57.4435H46.07V58.6502H43.9133V61.3935C43.9133 62.0035 44.1267 62.4102 44.7867 62.4102C45.1995 62.3967 45.6021 62.2786 45.9567 62.0668L46.3367 63.1968C45.8418 63.5054 45.2699 63.6683 44.6867 63.6668V63.6668ZM53.0433 60.9868H48.5333C48.7267 62.0802 49.5 62.4735 50.35 62.4735C50.9929 62.4645 51.6145 62.2417 52.1167 61.8402L52.7633 62.8168C52.0668 63.3957 51.1818 63.6983 50.2767 63.6668C48.46 63.6668 47.1633 62.4102 47.1633 60.4802C47.1633 58.5868 48.4067 57.2902 50.1867 57.2902C51.8867 57.2902 53.0567 58.5868 53.07 60.4802C53.07 60.6568 53.0567 60.8202 53.0433 60.9868V60.9868ZM57.87 58.7002C57.6072 58.5952 57.3263 58.5431 57.0433 58.5468C56.18 58.5468 55.75 59.1068 55.75 60.1102V63.5135H54.4267V57.4435H55.7367V58.1768C55.899 57.8988 56.1333 57.6697 56.4149 57.5137C56.6964 57.3576 57.0149 57.2804 57.3367 57.2902C57.6033 57.2902 57.9833 57.3402 58.2767 57.4568L57.87 58.7002V58.7002ZM61.87 62.4235C62.4451 62.4175 63.0028 62.2257 63.46 61.8768L64.0933 62.9435C63.4813 63.4486 62.7025 63.7066 61.91 63.6668C59.9533 63.6668 58.67 62.3202 58.67 60.4802C58.67 58.6368 59.9533 57.2902 61.91 57.2902C62.8233 57.2902 63.4333 57.4935 64.0933 58.0135L63.46 59.0802C63.0024 58.7324 62.4447 58.5419 61.87 58.5368C60.8167 58.5468 60.0433 59.3102 60.0433 60.4802C60.0433 61.6468 60.8167 62.4102 61.87 62.4235V62.4235ZM71.04 60.4802V63.5135H69.72V62.7802C69.4944 63.0701 69.2027 63.3019 68.8693 63.4561C68.5358 63.6103 68.1704 63.6826 67.8033 63.6668C66.1033 63.6668 64.77 62.3335 64.77 60.4802C64.77 58.6235 66.1033 57.2902 67.8033 57.2902C68.1707 57.2745 68.5364 57.3472 68.8699 57.502C69.2034 57.6569 69.4949 57.8894 69.72 58.1802V57.4435H71.04V60.4768V60.4802ZM76.2233 58.7002C75.9605 58.5952 75.6796 58.5431 75.3967 58.5468C74.5333 58.5468 74.1033 59.1068 74.1033 60.1102V63.5135H72.78V57.4435H74.09V58.1768C74.2523 57.8988 74.4866 57.6697 74.7682 57.5137C75.0498 57.3576 75.3682 57.2804 75.69 57.2902C75.9567 57.2902 76.3367 57.3402 76.63 57.4568L76.2233 58.7002ZM83.2967 60.4802V63.5135H81.9767V62.7802C81.7512 63.0703 81.4596 63.3022 81.1261 63.4565C80.7926 63.6107 80.4271 63.6829 80.06 63.6668C78.36 63.6668 77.0267 62.3335 77.0267 60.4802C77.0267 58.6235 78.36 57.2902 80.06 57.2902C80.4274 57.2745 80.7931 57.3472 81.1266 57.502C81.4601 57.6569 81.7516 57.8894 81.9767 58.1802V55.0002H83.2967V60.4768V60.4802ZM63.3333 50.3335C58.4068 50.3511 53.6515 48.5274 50 45.2202C46.3485 48.5274 41.5932 50.3511 36.6667 50.3335C25.6367 50.3335 16.6667 41.3635 16.6667 30.3335C16.6667 19.3035 25.6367 10.3335 36.6667 10.3335C41.6533 10.3335 46.3267 12.1368 50 15.4468C53.6515 12.1396 58.4068 10.3159 63.3333 10.3335C74.3633 10.3335 83.3333 19.3035 83.3333 30.3335C83.3333 41.3635 74.3633 50.3335 63.3333 50.3335Z" fill="#F0F2FA"/>
<path d="M80.2228 58.5337C79.0795 58.5337 78.3828 59.4137 78.3828 60.4804C78.3828 61.547 79.0828 62.4237 80.2228 62.4237C81.3161 62.4237 82.0528 61.5837 82.0528 60.4804C82.0528 59.3737 81.3161 58.537 80.2228 58.537V58.5337Z" fill="#F0F2FA"/>
</symbol>


<symbol id='map-marker' width="30" height="40" viewBox="0 0 30 40">
<path d="M13.4584 39.193C2.10703 22.7368 0 21.0479 0 15C0 6.7157 6.7157 0 15 0C23.2843 0 30 6.7157 30 15C30 21.0479 27.893 22.7368 16.5416 39.193C15.7966 40.2691 14.2033 40.269 13.4584 39.193ZM15 21.25C18.4518 21.25 21.25 18.4518 21.25 15C21.25 11.5482 18.4518 8.75 15 8.75C11.5482 8.75 8.75 11.5482 8.75 15C8.75 18.4518 11.5482 21.25 15 21.25Z" fill="black"/>
</symbol>






</svg> 