<svg width="601" height="148" viewBox="0 0 601 148" fill="none" xmlns="http://www.w3.org/2000/svg">
<path d="M158.202 52.7002H218.902V64.0002H195.002V127.7H181.902V64.0002H158.102L158.202 52.7002ZM216.302 73.4002H227.502V83.9002H227.702C228.102 82.4002 228.802 81.0002 229.802 79.6002C230.802 78.2002 232.002 76.9002 233.502 75.8002C234.902 74.6002 236.502 73.7002 238.302 73.0002C240.002 72.3002 241.802 71.9002 243.602 71.9002C245.002 71.9002 246.002 72.0002 246.502 72.0002C247.002 72.1002 247.602 72.2002 248.102 72.2002V83.7002C247.302 83.5002 246.402 83.4002 245.502 83.3002C244.602 83.2002 243.802 83.1002 242.902 83.1002C240.902 83.1002 239.002 83.5002 237.202 84.3002C235.402 85.1002 233.902 86.3002 232.502 87.8002C231.202 89.4002 230.102 91.3002 229.302 93.6002C228.502 95.9002 228.102 98.6002 228.102 101.6V127.4H216.102L216.302 73.4002ZM303.102 127.7H291.302V120.1H291.102C289.602 122.9 287.402 125 284.502 126.7C281.602 128.4 278.602 129.2 275.602 129.2C268.502 129.2 263.302 127.5 260.102 123.9C256.902 120.4 255.302 115 255.302 107.9V73.4002H267.302V106.7C267.302 111.5 268.202 114.9 270.102 116.8C271.902 118.8 274.502 119.8 277.802 119.8C280.302 119.8 282.402 119.4 284.102 118.6C285.802 117.8 287.202 116.8 288.202 115.5C289.302 114.2 290.002 112.6 290.502 110.8C291.002 109 291.202 107 291.202 104.9V73.4002H303.202V127.7H303.102ZM323.502 110.3C323.902 113.8 325.202 116.2 327.502 117.7C329.802 119.1 332.602 119.8 335.802 119.8C336.902 119.8 338.202 119.7 339.602 119.5C341.002 119.3 342.402 119 343.602 118.5C344.902 118 345.902 117.3 346.702 116.3C347.502 115.3 347.902 114.1 347.802 112.6C347.702 111.1 347.202 109.8 346.102 108.8C345.002 107.8 343.702 107.1 342.102 106.4C340.502 105.8 338.602 105.3 336.502 104.9C334.402 104.5 332.302 104 330.102 103.5C327.902 103 325.702 102.4 323.602 101.7C321.502 101 319.702 100.1 318.002 98.8002C316.402 97.6002 315.002 96.1002 314.102 94.2002C313.102 92.3002 312.602 90.1002 312.602 87.3002C312.602 84.3002 313.302 81.9002 314.802 79.9002C316.202 77.9002 318.102 76.3002 320.302 75.1002C322.502 73.9002 325.002 73.0002 327.702 72.5002C330.402 72.0002 333.002 71.8002 335.402 71.8002C338.202 71.8002 340.902 72.1002 343.402 72.7002C345.902 73.3002 348.302 74.2002 350.302 75.6002C352.402 76.9002 354.102 78.7002 355.402 80.8002C356.802 82.9002 357.602 85.5002 358.002 88.5002H345.502C344.902 85.6002 343.602 83.7002 341.602 82.7002C339.502 81.7002 337.202 81.2002 334.502 81.2002C333.702 81.2002 332.602 81.3002 331.502 81.4002C330.302 81.6002 329.302 81.8002 328.202 82.2002C327.202 82.6002 326.302 83.2002 325.602 83.9002C324.902 84.6002 324.502 85.6002 324.502 86.8002C324.502 88.3002 325.002 89.4002 326.002 90.3002C327.002 91.2002 328.302 91.9002 330.002 92.6002C331.602 93.2002 333.502 93.7002 335.602 94.1002C337.702 94.5002 339.902 95.0002 342.102 95.5002C344.302 96.0002 346.402 96.6002 348.502 97.3002C350.602 98.0002 352.502 98.9002 354.102 100.2C355.702 101.4 357.102 102.9 358.102 104.7C359.102 106.5 359.602 108.8 359.602 111.4C359.602 114.6 358.902 117.3 357.402 119.6C355.902 121.8 354.002 123.7 351.702 125.1C349.402 126.5 346.702 127.5 343.902 128.2C341.002 128.8 338.202 129.2 335.402 129.2C332.002 129.2 328.802 128.8 325.902 128C323.002 127.2 320.402 126 318.302 124.5C316.202 122.9 314.502 121 313.302 118.6C312.102 116.3 311.402 113.5 311.302 110.2H323.402V110.3H323.502ZM363.002 73.4002H372.102V57.0002H384.102V73.3002H394.902V82.2002H384.102V111.2C384.102 112.5 384.202 113.5 384.302 114.5C384.402 115.4 384.702 116.2 385.002 116.8C385.402 117.4 386.002 117.9 386.702 118.2C387.502 118.5 388.502 118.7 389.902 118.7C390.702 118.7 391.602 118.7 392.402 118.6C393.202 118.5 394.102 118.4 394.902 118.2V127.5C393.602 127.7 392.302 127.8 391.002 127.9C389.702 128.1 388.502 128.1 387.102 128.1C383.902 128.1 381.402 127.8 379.502 127.2C377.602 126.6 376.102 125.7 375.002 124.6C373.902 123.4 373.202 122 372.802 120.3C372.402 118.6 372.202 116.5 372.102 114.3V82.3002H363.002V73.2002V73.4002ZM403.302 73.4002H414.602V80.8002H414.802C416.502 77.6002 418.802 75.4002 421.802 74.0002C424.802 72.6002 428.002 71.9002 431.602 71.9002C435.902 71.9002 439.602 72.6002 442.802 74.2002C446.002 75.7002 448.602 77.7002 450.702 80.4002C452.802 83.0002 454.402 86.1002 455.402 89.6002C456.402 93.1002 457.002 96.9002 457.002 100.8C457.002 104.5 456.502 108 455.602 111.4C454.602 114.8 453.202 117.9 451.302 120.5C449.402 123.1 447.002 125.2 444.002 126.8C441.002 128.4 437.602 129.2 433.602 129.2C431.902 129.2 430.102 129 428.402 128.7C426.702 128.4 425.002 127.9 423.402 127.2C421.802 126.5 420.302 125.6 419.002 124.5C417.602 123.4 416.502 122.1 415.602 120.7H415.402V147.8H403.402V73.4002H403.302ZM445.202 100.6C445.202 98.2002 444.902 95.8002 444.202 93.5002C443.602 91.2002 442.602 89.2002 441.302 87.4002C440.002 85.6002 438.402 84.2002 436.602 83.1002C434.702 82.0002 432.502 81.5002 430.102 81.5002C425.102 81.5002 421.302 83.2002 418.702 86.7002C416.202 90.2002 414.902 94.9002 414.902 100.7C414.902 103.5 415.202 106 415.902 108.3C416.602 110.6 417.502 112.6 418.902 114.3C420.202 116 421.802 117.3 423.702 118.3C425.602 119.3 427.702 119.8 430.202 119.8C433.002 119.8 435.202 119.2 437.102 118.1C439.002 117 440.502 115.5 441.802 113.8C443.002 112 443.902 110 444.402 107.7C444.902 105.3 445.202 103 445.202 100.6ZM466.302 52.7002H478.302V64.0002H466.302V52.7002ZM466.302 73.4002H478.302V127.7H466.302V73.4002ZM489.002 52.7002H501.002V127.7H489.002V52.7002ZM537.602 129.2C533.302 129.2 529.402 128.5 526.002 127C522.602 125.5 519.802 123.6 517.402 121.1C515.102 118.6 513.302 115.5 512.102 112C510.902 108.5 510.202 104.6 510.202 100.5C510.202 96.4002 510.802 92.6002 512.102 89.1002C513.302 85.6002 515.102 82.6002 517.402 80.0002C519.702 77.5002 522.602 75.5002 526.002 74.1002C529.402 72.7002 533.302 71.9002 537.602 71.9002C541.902 71.9002 545.802 72.6002 549.202 74.1002C552.602 75.5002 555.402 77.5002 557.802 80.0002C560.102 82.5002 561.902 85.6002 563.102 89.1002C564.302 92.6002 565.002 96.4002 565.002 100.5C565.002 104.7 564.402 108.5 563.102 112C561.802 115.5 560.102 118.5 557.802 121.1C555.502 123.6 552.602 125.6 549.202 127C545.802 128.4 542.002 129.2 537.602 129.2ZM537.602 119.7C540.202 119.7 542.602 119.1 544.502 118C546.502 116.9 548.002 115.4 549.302 113.6C550.602 111.8 551.502 109.7 552.102 107.5C552.702 105.2 553.002 102.9 553.002 100.5C553.002 98.2002 552.702 95.9002 552.102 93.6002C551.502 91.3002 550.602 89.3002 549.302 87.5002C548.002 85.7002 546.402 84.3002 544.502 83.2002C542.502 82.1002 540.202 81.5002 537.602 81.5002C535.002 81.5002 532.602 82.1002 530.702 83.2002C528.702 84.3002 527.202 85.8002 525.902 87.5002C524.602 89.3002 523.702 91.3002 523.102 93.6002C522.502 95.9002 522.202 98.2002 522.202 100.5C522.202 102.9 522.502 105.2 523.102 107.5C523.702 109.8 524.602 111.8 525.902 113.6C527.202 115.4 528.802 116.9 530.702 118C532.702 119.2 535.002 119.7 537.602 119.7ZM568.602 73.4002H577.702V57.0002H589.702V73.3002H600.502V82.2002H589.702V111.2C589.702 112.5 589.802 113.5 589.902 114.5C590.002 115.4 590.302 116.2 590.602 116.8C591.002 117.4 591.602 117.9 592.302 118.2C593.102 118.5 594.102 118.7 595.502 118.7C596.302 118.7 597.202 118.7 598.002 118.6C598.802 118.5 599.702 118.4 600.502 118.2V127.5C599.202 127.7 597.902 127.8 596.602 127.9C595.302 128.1 594.102 128.1 592.702 128.1C589.502 128.1 587.002 127.8 585.102 127.2C583.202 126.6 581.702 125.7 580.602 124.6C579.502 123.4 578.802 122 578.402 120.3C578.002 118.6 577.802 116.5 577.702 114.3V82.3002H568.602V73.2002V73.4002Z" fill="black"/>
<path d="M144.2 52.7H89.3L72.4 0.5L55.4 52.7L0.5 52.6L44.9 84.9L27.9 137.1L72.3 104.8L116.7 137.1L99.8 84.9L144.2 52.7Z" fill="#00B67A"/>
<path d="M103.598 96.6999L99.7984 84.8999L72.3984 104.8L103.598 96.6999Z" fill="#005128"/>
</svg>
