<svg width="74" height="55" viewBox="0 0 74 55" fill="none" xmlns="http://www.w3.org/2000/svg">
<path fill-rule="evenodd" clip-rule="evenodd" d="M7.63135 19.9792C7.9302 20.2816 8.26283 20.5525 8.62465 20.7877C6.25141 25.1068 4.90841 30.0301 4.90841 35.2539C4.90841 35.7474 4.92037 36.2385 4.94535 36.724L4.38071 36.6966C4.14536 36.6966 3.91317 36.7105 3.68819 36.7419C3.66145 36.2291 3.64844 35.7096 3.64844 35.1873C3.64844 29.6866 5.09012 24.5075 7.63135 19.9792ZM66.4884 20.4254C68.8777 24.8463 70.2265 29.8662 70.2265 35.1873C70.2265 35.6234 70.2175 36.0574 70.1968 36.4936C69.8393 36.4136 69.4691 36.3685 69.0891 36.3646C69.1051 35.9959 69.112 35.6256 69.112 35.2539C69.112 30.1186 67.814 25.2735 65.5169 21.0092C65.8621 20.8461 66.188 20.6508 66.4884 20.4254ZM43.7574 3.80287C49.7171 4.99912 55.0943 7.73259 59.4213 11.5547C59.1131 11.7823 58.8294 12.0389 58.5787 12.3197C54.4607 8.71124 49.3688 6.12017 43.7312 4.96178C43.7669 4.73825 43.7824 4.50996 43.7824 4.27845L43.7574 3.80287ZM32.9657 3.35547C32.9052 3.65487 32.8765 3.96344 32.8765 4.27845L32.8897 4.53202C26.4977 5.32296 20.6907 7.93185 16.0489 11.8013C15.7409 11.518 15.4014 11.2665 15.0325 11.0555C19.9472 6.91077 26.142 4.13537 32.9657 3.35547Z" fill="#4AA7F0"/>
<path d="M39.036 10.5581H37.8047V17.1775H39.036V10.5581Z" fill="#4AA7F0"/>
<path d="M30.5938 27.5822C30.5938 32.9489 33.9756 38.7072 38.1446 38.7072C42.3154 38.7072 45.6971 32.9489 45.6971 27.5822C45.6971 16.4582 30.5938 16.4362 30.5938 27.5822Z" fill="url(#paint0_linear_3944_24927)"/>
<path d="M34.4929 40.2388C35.5747 41.2028 36.819 41.7831 38.1424 41.7831C39.4657 41.7831 40.7097 41.2035 41.7913 40.2405C42.5151 40.8184 43.1883 41.2962 43.8026 41.2962C48.446 41.7013 52.4685 44.677 53.9907 49.0037L54.8322 51.3969C55.0742 52.0855 54.9574 52.844 54.5203 53.4346C54.0818 54.0256 53.3754 54.3763 52.6222 54.3763H23.6613C22.9095 54.3763 22.2032 54.0256 21.7647 53.4346C21.326 52.844 21.2108 52.0855 21.4514 51.3969L22.293 49.0044C23.8152 44.677 27.8377 41.7013 32.4839 41.2962C33.0983 41.2962 33.7703 40.8175 34.4929 40.2388Z" fill="url(#paint1_linear_3944_24927)"/>
<path d="M38.2379 32.4109C41.834 32.4109 44.7492 29.598 44.7492 26.128C44.7492 22.6581 41.834 19.8452 38.2379 19.8452C34.6418 19.8452 31.7266 22.6581 31.7266 26.128C31.7266 29.598 34.6418 32.4109 38.2379 32.4109Z" fill="url(#paint2_linear_3944_24927)"/>
<path d="M38.2799 8.23458C40.6695 8.23458 42.6067 6.39897 42.6067 4.13462C42.6067 1.87028 40.6695 0.034668 38.2799 0.034668C35.8903 0.034668 33.9531 1.87028 33.9531 4.13462C33.9531 6.39897 35.8903 8.23458 38.2799 8.23458Z" fill="#144DA4"/>
<path d="M38.1051 0.441662C38.5848 0.47408 38.7969 1.32832 37.9843 1.35259C37.0063 1.39129 36.0911 1.96005 35.6288 2.81599C35.6288 2.81599 35.5175 2.99862 35.3299 3.0458C34.9516 3.14136 34.5924 2.72824 34.8673 2.26302C35.5185 1.15995 36.7364 0.413997 38.1051 0.441662ZM34.8656 3.43143C35.1451 3.44738 35.3226 3.69943 35.3115 4.00409C35.2972 4.49953 35.7136 5.05097 35.3285 5.4147C34.941 5.78064 34.3495 5.16435 34.3676 4.03498C34.3723 3.7383 34.5173 3.42243 34.8656 3.43143Z" fill="white" fill-opacity="0.451"/>
<path d="M62.983 19.9299C65.3727 19.9299 67.3098 18.0943 67.3098 15.8299C67.3098 13.5656 65.3727 11.73 62.983 11.73C60.5934 11.73 58.6562 13.5656 58.6562 15.8299C58.6562 18.0943 60.5934 19.9299 62.983 19.9299Z" fill="#144DA4"/>
<path d="M62.8075 12.1359C63.2777 12.1672 63.5199 13.0212 62.6872 13.047C61.7099 13.0845 60.7928 13.6557 60.3319 14.5103C60.3319 14.5103 59.695 15.04 59.4716 14.4581C59.3474 14.1346 59.6728 13.7455 59.9655 13.4104C60.6661 12.6084 61.673 12.1145 62.8075 12.1359ZM59.5684 15.1259C59.8494 15.1418 60.0257 15.3956 60.0144 15.6985C60.0002 16.194 60.4167 16.7454 60.0315 17.1091C59.644 17.4752 59.0524 16.859 59.0707 15.7292C59.0755 15.4242 59.2424 15.1175 59.5684 15.1259Z" fill="white" fill-opacity="0.451"/>
<path d="M11.9049 19.9299C14.2945 19.9299 16.2317 18.0943 16.2317 15.8299C16.2317 13.5656 14.2945 11.73 11.9049 11.73C9.5153 11.73 7.57812 13.5656 7.57812 15.8299C7.57812 18.0943 9.5153 19.9299 11.9049 19.9299Z" fill="#144DA4"/>
<path d="M11.7372 12.1364C12.2261 12.169 12.4335 13.0222 11.6169 13.0475C10.641 13.0848 9.72372 13.6551 9.26163 14.5109C9.26163 14.5109 9.15011 14.6935 8.96277 14.7407C8.58423 14.8363 8.22505 14.424 8.49998 13.9579C9.15116 12.8543 10.376 12.1106 11.7372 12.1364ZM8.4984 15.1263C8.77948 15.1424 8.95521 15.397 8.9443 15.699C8.93005 16.1943 9.34641 16.7459 8.96136 17.1096C8.57368 17.4757 7.98195 16.8594 8.00042 15.7297C8.00535 15.4242 8.17245 15.1178 8.4984 15.1263Z" fill="white" fill-opacity="0.451"/>
<path d="M4.49867 45.8733C6.88829 45.8733 8.82546 44.0376 8.82546 41.7733C8.82546 39.509 6.88829 37.6733 4.49867 37.6733C2.10905 37.6733 0.171875 39.509 0.171875 41.7733C0.171875 44.0376 2.10905 45.8733 4.49867 45.8733Z" fill="#144DA4"/>
<path d="M4.32389 38.0803C4.80357 38.1128 5.0157 38.967 4.20304 38.9913C3.2268 39.0298 2.30983 39.5987 1.84756 40.4547C1.84756 40.4547 1.73622 40.6373 1.54888 40.6845C1.17035 40.78 0.811334 40.3669 1.08609 39.9017C1.73815 38.7973 2.95521 38.0527 4.32389 38.0803ZM1.08451 41.0701C1.36542 41.0862 1.54132 41.3406 1.53024 41.6428C1.5174 42.092 1.85389 42.5574 1.63015 42.9481C1.3575 43.4249 0.565074 42.9989 0.586358 41.6735C0.591283 41.3683 0.758389 41.0618 1.08451 41.0701Z" fill="white" fill-opacity="0.451"/>
<path d="M68.8424 45.8733C71.232 45.8733 73.1692 44.0376 73.1692 41.7733C73.1692 39.509 71.232 37.6733 68.8424 37.6733C66.4528 37.6733 64.5156 39.509 64.5156 41.7733C64.5156 44.0376 66.4528 45.8733 68.8424 45.8733Z" fill="#144DA4"/>
<path d="M68.6753 38.0803C69.1757 38.1141 69.3219 38.9684 68.5544 38.9913C67.5782 39.0298 66.6612 39.5987 66.199 40.4547C66.199 40.4547 66.0876 40.6373 65.9003 40.6845C65.5218 40.78 65.1627 40.3669 65.4375 39.9017C66.0896 38.7973 67.3066 38.0527 68.6753 38.0803ZM65.4359 41.0701C65.7168 41.0862 65.8927 41.3406 65.8816 41.6428C65.8688 42.092 66.2053 42.5574 65.9816 42.9481C65.7089 43.4249 64.9161 42.9992 64.9379 41.6735C64.9429 41.368 65.1098 41.0618 65.4359 41.0701Z" fill="white" fill-opacity="0.451"/>
<defs>
<linearGradient id="paint0_linear_3944_24927" x1="34.5703" y1="20.4146" x2="34.5703" y2="69.5297" gradientUnits="userSpaceOnUse">
<stop stop-color="#ADDBFF"/>
<stop offset="1" stop-color="#4AA7F0"/>
</linearGradient>
<linearGradient id="paint1_linear_3944_24927" x1="33.4885" y1="52.2214" x2="33.4885" y2="38.0715" gradientUnits="userSpaceOnUse">
<stop stop-color="#4AA7F0" stop-opacity="0.5"/>
<stop offset="1" stop-color="#4AA7F0"/>
</linearGradient>
<linearGradient id="paint2_linear_3944_24927" x1="38.6956" y1="19.7684" x2="38.4214" y2="30.2946" gradientUnits="userSpaceOnUse">
<stop stop-color="white" stop-opacity="0.459"/>
<stop offset="1" stop-color="white" stop-opacity="0"/>
</linearGradient>
</defs>
</svg>
