<svg width="51" height="53" viewBox="0 0 51 53" fill="none" xmlns="http://www.w3.org/2000/svg">
<path d="M15.3725 23.2042L15.8389 23.2062C17.0755 23.196 18.1303 22.1933 18.1466 21.0666V13.4532C18.1297 12.2904 17.062 11.3252 15.862 11.3004L14.999 11.2897L15.0238 11.2084C15.3511 10.1741 15.9183 9.21044 16.6377 8.36742C19.5142 4.99755 24.6087 3.56313 28.7396 5.0274C31.9201 6.1549 34.6764 8.50806 35.5878 11.5085L34.9608 11.5009C33.7208 11.5009 32.6762 12.4972 32.6598 13.6259V21.1401C32.6675 21.6702 32.8796 22.1869 33.2563 22.5747C33.7946 23.1289 34.7917 23.2735 34.7917 23.2735C34.0567 24.1053 32.6157 24.2796 31.3206 24.3393C30.9482 24.3565 30.3949 24.3431 30.3949 24.3431C29.9338 23.8904 29.2898 23.6265 28.6237 23.6185L24.5658 23.6107C23.2399 23.6249 22.1457 24.6809 22.126 25.8799V26.6765C22.1463 27.9105 23.2835 28.9339 24.5643 28.9475C25.9276 28.9475 27.2911 28.9545 28.6545 28.9473C29.2836 28.9302 30.071 28.5238 30.071 28.5238C30.7725 28.5258 31.4728 28.4991 32.1683 28.4308C30.2641 30.7028 27.8686 32.1671 25.2664 32.1671C20.988 32.1671 17.2673 28.2062 15.3725 23.2042ZM33.296 26.905C32.0387 27.125 30.6878 27.1506 29.4245 27.1076C29.258 27.3686 28.9521 27.5373 28.6286 27.5449C27.2687 27.5557 25.9084 27.5607 24.5482 27.5447C23.626 27.5125 23.6127 26.6164 23.623 25.8681C23.6424 25.3935 24.0813 25.0179 24.5728 25.013C25.9265 25.0157 27.2802 25.0044 28.6339 25.0211C29.0502 25.0349 29.4265 25.3166 29.5284 25.693C29.5505 25.7819 29.6875 25.7375 29.6875 25.7375C30.1253 25.7557 30.5634 25.7631 31.0014 25.7533C32.0573 25.7299 33.2223 25.6435 34.2442 25.2717C33.9519 25.8396 33.6351 26.3858 33.296 26.905ZM35.6141 21.8788L34.9512 21.8758C34.5332 21.8692 34.1723 21.5376 34.1565 21.1497C34.1225 18.6387 34.1225 16.1273 34.1565 13.6165C34.1721 13.2346 34.5257 12.9127 34.9306 12.9033C35.3437 12.9035 35.7569 12.9085 36.17 12.9147C36.3816 13.8961 36.4956 14.9589 36.4956 16.1028C36.4956 18.0391 36.1817 20.0104 35.6141 21.8788ZM14.4149 12.6853L15.8357 12.7025C16.2618 12.7125 16.6334 13.0475 16.6496 13.4432C16.6847 15.9875 16.6847 18.5323 16.6496 21.0764C16.6336 21.4653 16.2716 21.791 15.8569 21.8038C15.5377 21.806 15.2185 21.8077 14.8996 21.8085C14.3452 19.9611 14.0391 18.0149 14.0391 16.1028C14.0391 14.869 14.1712 13.7297 14.4149 12.6853Z" fill="url(#paint0_linear_3944_24929)"/>
<path d="M35.2897 33.8896C35.0639 33.8622 33.9689 33.7135 33.741 33.6941C32.8275 33.6941 31.8284 33.0029 30.7542 32.1671C29.1456 33.5591 27.2955 34.3973 25.3276 34.3973C23.3601 34.3973 21.5106 33.5601 19.9025 32.1695C18.8261 33.0043 17.8253 33.6941 16.9118 33.6941C10.0077 34.2791 4.02702 38.5759 1.76365 44.8234L0.51256 48.2793C0.152541 49.2733 0.326135 50.3688 0.97605 51.2218C1.6281 52.0749 2.67824 52.5813 3.79848 52.5815H46.859C47.9767 52.5815 49.0268 52.0749 49.6789 51.2218C50.3312 50.3688 50.5026 49.2733 50.1447 48.2793L48.8936 44.8244C45.1436 44.2631 41.8643 42.6261 38.216 43.1017C36.935 43.2686 35.6147 43.2038 34.3829 43.6012L35.2897 33.8896ZM35.2897 33.8896L34.0164 44.9503L35.3857 44.7313C38.1254 43.8692 41.0258 43.8817 43.8536 44.2357C45.506 44.4424 47.2216 44.7443 48.9561 44.9971L48.8936 44.8244C48.7652 44.4699 48.6247 44.1215 48.4727 43.7797C44.4736 43.1322 40.4505 42.3046 36.5523 43.1017L38.5852 43.6012C39.7296 43.3672 38.8858 43.1104 40.0593 43.1017C41.112 45.2352 46.1751 43.7793 46.2593 43.7797C48.7177 43.8007 45.978 43.363 48.4727 43.7797C48.2202 43.3373 47.2214 41.474 46.9296 41.0593C43.4414 40.4803 39.9494 39.9412 36.5523 40.636L34.5635 40.1174C35.708 39.8834 33.4955 43.0437 36.0167 41.0476C33.9982 42.0483 38.9487 40.5495 39.0329 40.5499C40.8444 40.5653 45.0931 40.7658 46.9296 41.0593C46.5084 40.5845 44.9084 38.6775 44.4355 38.252C41.7818 37.8772 39.1396 37.6904 36.5523 38.2197L36.5194 39.0568C37.6638 38.8228 37.0144 40.1668 38.5302 38.2197C37.5171 40.1668 39.6927 38.2516 39.777 38.252C40.5002 38.2582 43.3374 39.1582 44.4355 38.252C42.2203 35.8403 40.904 35.7608 40.0593 35.3673C38.8777 35.397 37.7001 35.5346 36.5523 35.78L40.0593 35.3673C40.2637 35.3236 36.9615 34.3416 37.1669 34.3047C36.5529 34.1354 35.9263 33.9966 35.2897 33.8896ZM19.8215 32.099L19.8251 32.1022L19.8187 32.0966L19.8215 32.099ZM30.8363 32.0954L30.833 32.0982L30.835 32.0966L30.8363 32.0954ZM19.6609 31.955L19.6628 31.9568L19.6577 31.9522L19.6609 31.955ZM30.9977 31.9504L30.9938 31.954L30.9953 31.9526L30.9977 31.9504ZM19.5814 31.8816L19.5846 31.8847L19.5795 31.8799L19.5814 31.8816ZM19.4232 31.7322L19.4268 31.7356L19.4189 31.728L19.4232 31.7322ZM31.236 31.7268L31.2301 31.7324L31.2328 31.7298L31.236 31.7268ZM19.1895 31.5014L19.194 31.5062L19.185 31.497L19.1895 31.5014ZM31.4695 31.496L31.4631 31.5024L31.4665 31.499L31.4695 31.496ZM19.0358 31.3433L19.0373 31.3449L19.0324 31.3397L19.0358 31.3433ZM31.6228 31.3381L31.6189 31.3421L31.6202 31.3407L31.6228 31.3381ZM18.9597 31.2628L18.9648 31.2684L18.9558 31.2588L18.9597 31.2628ZM31.6985 31.258L31.6927 31.264L31.6963 31.2604L31.6985 31.258ZM18.8085 31.0997L18.812 31.1033L18.8032 31.0937L18.8085 31.0997ZM31.8513 31.0927L31.8443 31.1001L31.8473 31.0971L31.8513 31.0927ZM18.7337 31.0168L18.7388 31.0224L18.7311 31.0138L18.7337 31.0168ZM31.9232 31.013L31.9195 31.017L31.9219 31.0142L31.9232 31.013ZM18.5856 30.8485L18.5905 30.8541L18.5798 30.8419L18.5856 30.8485ZM32.0743 30.8411L32.066 30.8507L32.07 30.8461L32.0743 30.8411ZM18.5122 30.7632L18.5157 30.7672L18.5109 30.7618L18.5122 30.7632ZM18.4393 30.6772L18.4402 30.6782L18.4368 30.674L18.4393 30.6772ZM18.3669 30.5903L18.3726 30.5975L18.3613 30.5837L18.3669 30.5903ZM32.2926 30.5831L32.284 30.5935L32.2887 30.5877L32.2926 30.5831ZM18.2232 30.4142L18.226 30.4176L18.2176 30.407L18.2232 30.4142ZM32.4367 30.406L32.4296 30.4148L32.4322 30.4116L32.4367 30.406ZM18.1522 30.325L18.1588 30.3332L18.1479 30.3194L18.1522 30.325ZM32.5059 30.3188L32.4982 30.3286L32.5032 30.3224L32.5059 30.3188ZM18.0118 30.1443L18.0162 30.1501L18.0051 30.1355L18.0118 30.1443ZM32.649 30.1349L32.6396 30.1469L32.6436 30.1419L32.649 30.1349ZM17.9423 30.053L17.9485 30.0612L17.9391 30.0488L17.9423 30.053ZM32.7148 30.0482L32.7093 30.0556L32.7131 30.0504L32.7148 30.0482ZM17.8046 29.8679L17.8104 29.8759L17.7982 29.8588L17.8046 29.8679ZM32.8557 29.8582L32.8454 29.8723L32.8506 29.8655L32.8557 29.8582ZM17.7366 29.7743L17.7413 29.7809L17.7349 29.7721L17.7366 29.7743ZM17.6691 29.6801L17.671 29.6827L17.6639 29.6727L17.6691 29.6801ZM32.9902 29.6715L32.9842 29.6801L32.9861 29.6775L32.9902 29.6715ZM17.6021 29.5852L17.609 29.5948L17.5964 29.5768L17.6021 29.5852ZM33.0573 29.5762L33.0473 29.5908L33.053 29.5826L33.0573 29.5762ZM17.4696 29.3931L17.4732 29.3985L17.4627 29.3826L17.4696 29.3931ZM33.1911 29.382L33.1819 29.3955L33.1854 29.3907L33.1911 29.382ZM17.4042 29.2961L17.4114 29.3069L17.3997 29.2891L17.4042 29.2961ZM33.254 29.2885L33.2448 29.3023L33.2508 29.2935L33.254 29.2885ZM17.275 29.1L17.2802 29.1078L17.2678 29.0887L17.275 29.1ZM33.3859 29.0881L33.3752 29.1048L33.3799 29.0976L33.3859 29.0881ZM17.2111 29.001L17.2182 29.0118L17.2079 28.9958L17.2111 29.001ZM33.4458 28.9954L33.4387 29.0064L33.4436 28.9986L33.4458 28.9954ZM17.1478 28.9014L17.1487 28.9028L17.1444 28.896L17.1478 28.9014ZM33.5099 28.8944L33.506 28.9004L33.5069 28.899L33.5099 28.8944ZM17.085 28.8011L17.0914 28.8113L17.0784 28.7902L17.085 28.8011ZM33.5753 28.7896L33.564 28.8081L33.5697 28.7987L33.5753 28.7896ZM17.0228 28.7003L17.0283 28.7091L17.0211 28.6973L17.0228 28.7003ZM33.6326 28.6967L33.6296 28.7017L33.632 28.6979L33.6326 28.6967ZM16.9612 28.5987L16.9638 28.6031L16.9546 28.5879L16.9612 28.5987ZM33.6991 28.5869L33.691 28.6005L33.6935 28.5963L33.6991 28.5869ZM16.9001 28.4968L16.9073 28.5088L16.8943 28.4869L16.9001 28.4968ZM33.7592 28.4863L33.748 28.505L33.7547 28.4943L33.7592 28.4863ZM16.7795 28.2906L16.7838 28.2978L16.772 28.2776L16.7795 28.2906ZM33.8817 28.277L33.871 28.2952L33.875 28.2884L33.8817 28.277ZM16.72 28.1868L16.7277 28.2L16.7156 28.1788L16.72 28.1868ZM33.9379 28.1782L33.9281 28.1958L33.9345 28.1844L33.9379 28.1782ZM16.6029 27.9773L16.6084 27.9873L16.5956 27.9641L16.6029 27.9773ZM34.0578 27.9635L34.0463 27.9845L34.0516 27.9751L34.0578 27.9635ZM16.5452 27.8717L16.5524 27.8849L16.5422 27.8659L16.5452 27.8717ZM34.1115 27.8653L34.1036 27.8799L34.1091 27.8695L34.1115 27.8653ZM16.4881 27.7657L16.4896 27.7685L16.483 27.7559L16.4881 27.7657ZM34.1709 27.7545L34.1647 27.7663L34.1662 27.7633L34.1709 27.7545ZM16.4314 27.6589L16.4381 27.6714L16.425 27.6465L16.4314 27.6589ZM34.2284 27.6459L34.2167 27.6684L34.2229 27.6567L34.2284 27.6459ZM16.3756 27.5518L16.381 27.5624L16.3739 27.5486L16.3756 27.5518ZM34.2797 27.548L34.2757 27.5556L34.2789 27.5496L34.2797 27.548ZM16.3203 27.4442L16.3233 27.45L16.313 27.4302L16.3203 27.4442ZM34.3405 27.4292L34.331 27.4478L34.334 27.4418L34.3405 27.4292ZM16.2653 27.3358L16.2726 27.35L16.26 27.325L16.2653 27.3358ZM34.3935 27.3244L34.3824 27.3468L34.389 27.3336L34.3935 27.3244ZM16.1576 27.1178L16.1621 27.1268L16.1503 27.1026L16.1576 27.1178ZM34.5034 27.1018L34.4922 27.1244L34.4967 27.1156L34.5034 27.1018ZM16.1046 27.008L16.112 27.0235L16.1005 26.9994L16.1046 27.008ZM34.553 26.9988L34.5429 27.0197L34.5495 27.006L34.553 26.9988ZM34.6043 26.8906L34.6015 26.8969L34.6019 26.8957L34.6043 26.8906ZM16.0004 26.7871L16.0058 26.7989L15.9936 26.7722L16.0004 26.7871ZM34.6599 26.7716L34.6483 26.7965L34.6537 26.7851L34.6599 26.7716ZM15.9491 26.6759L15.9562 26.6909L15.9463 26.6699L15.9491 26.6759ZM34.7071 26.6691L34.699 26.6865L34.705 26.6739L34.7071 26.6691ZM15.8987 26.5643L15.9006 26.5685L15.8927 26.5511L15.8987 26.5643ZM34.761 26.5499L34.7535 26.5667L34.7554 26.5623L34.761 26.5499ZM15.8486 26.4523L15.8551 26.4663L15.8429 26.4387L15.8486 26.4523ZM34.8106 26.4381L34.7992 26.4639L34.8052 26.4501L34.8106 26.4381ZM15.7995 26.3397L15.8046 26.3513L15.798 26.3363L15.7995 26.3397ZM34.8555 26.3357L34.8512 26.3453L34.8546 26.3377L34.8555 26.3357ZM15.7507 26.2267L15.7539 26.2341L15.7439 26.2105L15.7507 26.2267ZM34.9098 26.2095L34.8999 26.2323L34.9034 26.2247L34.9098 26.2095ZM15.7026 26.1133L15.7095 26.1294L15.6979 26.1017L15.7026 26.1133ZM34.9555 26.1011L34.9448 26.1266L34.9512 26.1113L34.9555 26.1011ZM15.6086 25.8852L15.6128 25.8958L15.6017 25.8685L15.6086 25.8852ZM35.0517 25.8677L35.0413 25.8938L35.0455 25.8834L35.0517 25.8677ZM15.5624 25.7706L15.5692 25.7876L15.5588 25.7615L15.5624 25.7706ZM35.0947 25.7607L35.0851 25.7846L35.0915 25.7688L35.0947 25.7607ZM15.5168 25.6556L15.5177 25.6576L15.5132 25.6464L15.5168 25.6556ZM35.1407 25.6441L35.1362 25.6562L35.137 25.6538L35.1407 25.6441ZM15.4719 25.5402L15.4771 25.5534L15.466 25.5241L15.4719 25.5402ZM35.1875 25.5235L35.1768 25.5514L35.1819 25.5384L35.1875 25.5235ZM15.4277 25.4244L15.4339 25.4406L15.4253 25.4182L15.4277 25.4244ZM35.2279 25.4174L35.2206 25.437L35.226 25.4226L35.2279 25.4174ZM15.3843 25.3082L15.3862 25.3136L15.3785 25.2924L15.3843 25.3082ZM35.2751 25.2912L35.2674 25.3122L35.2696 25.3064L35.2751 25.2912ZM15.3413 25.1916L15.3471 25.2074L15.3362 25.1774L15.3413 25.1916ZM35.3173 25.1768L35.3068 25.2052L35.3123 25.1898L35.3173 25.1768ZM15.2992 25.0748L15.3035 25.0868L15.2979 25.0716L15.2992 25.0748ZM35.3553 25.0708L35.3515 25.0816L35.3547 25.073L35.3553 25.0708ZM15.2575 24.9574L15.2607 24.9662L15.2513 24.9396L15.2575 24.9574ZM35.4021 24.9386L35.3929 24.9646L35.3961 24.9558L35.4021 24.9386ZM15.2167 24.8398L15.2227 24.8574L15.2126 24.828L15.2167 24.8398ZM35.4408 24.8274L35.4312 24.8552L35.437 24.8382L35.4408 24.8274ZM15.1369 24.6036L15.1408 24.6154L15.131 24.586L15.1369 24.6036ZM35.5223 24.585L35.5129 24.614L35.5167 24.602L35.5223 24.585ZM15.098 24.4852L15.104 24.5034L15.095 24.476L15.098 24.4852ZM35.5582 24.4754L35.5499 24.501L35.5556 24.4836L35.5582 24.4754ZM15.0598 24.3662L15.0608 24.3694L15.0559 24.3538L15.0598 24.3662ZM35.5977 24.3518L35.5926 24.3682L35.5937 24.3646L35.5977 24.3518ZM15.0224 24.247L15.0268 24.2616L15.0172 24.2306L15.0224 24.247ZM35.636 24.2298L35.6266 24.2602L35.6313 24.2456L35.636 24.2298ZM14.9856 24.1276L14.9907 24.1446L14.9837 24.1216L14.9856 24.1276ZM35.6696 24.121L35.6632 24.1416L35.6681 24.1262L35.6696 24.121ZM14.9495 24.0078L14.9514 24.0144L14.9443 23.9904L14.9495 24.0078ZM35.7093 23.989L35.7021 24.0132L35.7042 24.0064L35.7093 23.989ZM14.914 23.8878L14.9191 23.9048L14.9099 23.8734L14.914 23.8878ZM35.7435 23.8728L35.7346 23.9032L35.7395 23.8864L35.7435 23.8728ZM14.8793 23.7676L14.8825 23.779L14.8785 23.7648L14.8793 23.7676ZM35.7748 23.7642L35.7718 23.775L35.7743 23.7662L35.7748 23.7642ZM14.8453 23.647L14.8481 23.657L14.84 23.6282L14.8453 23.647ZM35.8132 23.6272L35.8053 23.6558L35.8083 23.6456L35.8132 23.6272ZM14.812 23.5262L14.8171 23.5448L14.8088 23.5144L14.812 23.5262ZM35.8445 23.5138L35.8365 23.5432L35.8415 23.5248L35.8445 23.5138ZM14.7474 23.284L14.7508 23.2968L14.7427 23.2655L14.7474 23.284ZM35.9105 23.2647L35.9024 23.2958L35.906 23.2826L35.9105 23.2647ZM14.7164 23.1624L14.7211 23.1814L14.7141 23.1536L14.7164 23.1624ZM35.9392 23.153L35.9323 23.1796L35.937 23.1612L35.9392 23.153ZM14.6859 23.0408L14.6869 23.0448L14.6822 23.0259L14.6859 23.0408ZM35.9712 23.0241L35.9663 23.044L35.9676 23.0394L35.9712 23.0241ZM14.6561 22.9188L14.66 22.9344L14.6523 22.9021L14.6561 22.9188ZM36.0012 22.9013L35.9935 22.9334L35.9973 22.9176L36.0012 22.9013ZM14.6273 22.7966L14.6313 22.8138L14.6258 22.7909L14.6273 22.7966ZM36.0275 22.7903L36.0223 22.8116L36.0262 22.7953L36.0275 22.7903ZM14.5988 22.6743L14.6008 22.6818L14.5948 22.6555L14.5988 22.6743ZM36.0587 22.6545L36.0527 22.681L36.0544 22.6731L36.0587 22.6545ZM14.5715 22.5517L14.5755 22.5698L14.5683 22.5373L14.5715 22.5517ZM36.085 22.5367L36.0779 22.5686L36.082 22.5507L36.085 22.5367ZM14.5445 22.4291L14.5469 22.4391L14.5441 22.4269L14.5445 22.4291ZM36.1091 22.4263L36.107 22.4359L36.1087 22.4279L36.1091 22.4263ZM14.5187 22.3063L14.5208 22.3171L14.5146 22.2867L14.5187 22.3063ZM36.1386 22.2859L36.1324 22.3163L36.1348 22.3051L36.1386 22.2859ZM14.4932 22.1831L14.4973 22.2026L14.4911 22.1717L14.4932 22.1831ZM36.1621 22.1711L36.1562 22.2014L36.16 22.1821L36.1621 22.1711ZM14.4686 22.0601L14.4691 22.0613L14.4674 22.0529L14.4686 22.0601ZM36.1861 22.0505L36.1842 22.0607L36.1846 22.0591L36.1861 22.0505ZM14.4449 21.9367L14.4477 21.9505L14.4415 21.9183L14.4449 21.9367ZM36.2117 21.9175L36.2055 21.9499L36.2083 21.9357L36.2117 21.9175ZM14.4218 21.8133L14.4255 21.8325L14.4203 21.8049L14.4218 21.8133ZM36.2327 21.8043L36.2278 21.8313L36.2314 21.8123L36.2327 21.8043ZM14.3996 21.6897L14.4004 21.6947L14.3968 21.6733L14.3996 21.6897ZM36.2566 21.6719L36.2526 21.6941L36.2536 21.6887L36.2566 21.6719ZM14.3782 21.5659L14.381 21.5825L14.3754 21.5493L14.3782 21.5659ZM36.2778 21.5489L36.2722 21.5817L36.275 21.5651L36.2778 21.5489ZM14.3575 21.4421L14.3603 21.4587L14.3566 21.4371L14.3575 21.4421ZM36.2966 21.4367L36.2932 21.4573L36.2958 21.4413L36.2966 21.4367ZM14.3374 21.3183L14.3389 21.3265L14.3344 21.2988L14.3374 21.3183ZM36.3188 21.2978L36.3144 21.3261L36.3159 21.3173L36.3188 21.2978ZM14.3181 21.1941L14.3211 21.2127L14.3162 21.18L14.3181 21.1941ZM36.337 21.1796L36.3321 21.2121L36.3351 21.1935L36.337 21.1796ZM14.2998 21.07L14.301 21.0777L14.2995 21.0684L14.2998 21.07ZM36.3535 21.068L36.3524 21.0755L36.3535 21.0692V21.068ZM14.2822 20.9458L14.2837 20.9575L14.2794 20.9262L14.2822 20.9458ZM36.3738 20.9256L36.3693 20.9571L36.371 20.945L36.3738 20.9256ZM14.2653 20.8216L14.2679 20.8413L14.2638 20.8104L14.2653 20.8216ZM36.3894 20.81L36.3851 20.8407L36.3879 20.8208L36.3894 20.81ZM14.2493 20.6972L14.2495 20.6994L14.248 20.687L14.2493 20.6972ZM36.4052 20.6856L36.4037 20.699L36.4039 20.6966L36.4052 20.6856ZM14.2339 20.5728L14.2358 20.5874L14.2318 20.5544L14.2339 20.5728ZM36.4213 20.554L36.4174 20.587L36.4193 20.5722L36.4213 20.554ZM14.2196 20.4484L14.2217 20.4676L14.2185 20.4406L14.2196 20.4484ZM36.4345 20.4402L36.4315 20.467L36.4337 20.4478L36.4345 20.4402ZM14.2059 20.3238L14.2063 20.3296L14.204 20.3064L14.2059 20.3238ZM36.4493 20.3056L36.4467 20.3292L36.4473 20.3234L36.4493 20.3056ZM14.1929 20.1994L14.1948 20.2164L14.1914 20.1831L14.1929 20.1994ZM36.4619 20.1827L36.4585 20.2162L36.4602 20.1988L36.4619 20.1827ZM14.1809 20.0748L14.1824 20.0904L14.1805 20.0704L14.1809 20.0748ZM36.4728 20.0702L36.4709 20.0896L36.4723 20.0744L36.4728 20.0702ZM14.1696 19.9502L14.1704 19.9594L14.1678 19.9305L14.1696 19.9502ZM36.4852 19.9301L36.4828 19.9592L36.4837 19.9498L36.4852 19.9301ZM14.1591 19.8257L14.1608 19.8448L14.158 19.8121L14.1591 19.8257ZM36.495 19.8119L36.4924 19.8444L36.4939 19.8253L36.495 19.8119ZM14.1407 19.5765L14.1415 19.5889L14.1394 19.5571L14.1407 19.5765ZM36.5138 19.5567L36.5117 19.5888L36.5125 19.5761L36.5138 19.5567ZM14.1326 19.4519L14.1339 19.472L14.1321 19.4415L14.1326 19.4519ZM36.5211 19.4413L36.5192 19.4716L36.5205 19.4517L36.5211 19.4413ZM14.1255 19.3275L14.1257 19.3303L14.1249 19.3151L14.1255 19.3275ZM36.5284 19.3145L36.5275 19.3303L36.5277 19.3271L36.5284 19.3145ZM14.1191 19.2029L14.12 19.2181L14.1185 19.1851L14.1191 19.2029ZM36.5348 19.1849L36.5333 19.2179L36.5339 19.2027L36.5348 19.1849ZM14.1138 19.0785L14.1144 19.0975L14.1133 19.0715L14.1138 19.0785ZM36.5397 19.0713L36.5386 19.0971L36.5395 19.0783L36.5397 19.0713ZM14.109 18.9541L14.1093 18.9605L14.1084 18.9359L14.109 18.9541ZM36.5446 18.9356L36.544 18.9605L36.5442 18.9539L36.5446 18.9356ZM14.1052 18.8299L14.1056 18.8473L14.1048 18.814L14.1052 18.8299ZM36.5482 18.814L36.5474 18.8473L36.548 18.8297L36.5482 18.814ZM14.1022 18.7055L14.1024 18.7197L14.1022 18.7019V18.7055ZM36.551 18.7019L36.5506 18.7195L36.551 18.7055V18.7019ZM14.1001 18.5813L14.1003 18.5911L14.0999 18.5616L14.1001 18.5813ZM36.5534 18.5614L36.5529 18.5911L36.5532 18.5813L36.5534 18.5614ZM14.0988 18.4572L14.099 18.4765L14.0988 18.4442V18.4572ZM36.5544 18.4442L36.5542 18.4765L36.5544 18.457V18.4442ZM36.5493 17.9021L36.5502 17.9434L36.5521 18.0319L36.5527 18.0798L36.5538 18.1639L36.5542 18.2122L36.5549 18.333L36.5544 18.2391L36.5542 18.2122V18.192L36.5538 18.1639L36.5536 18.1219L36.5527 18.0798L36.5525 18.0518L36.5521 18.0319L36.5517 18.0053L36.5502 17.9434L36.5495 17.9125L36.5493 17.9021C36.5482 17.8592 36.547 17.8166 36.5457 17.7739L36.5493 17.9021ZM14.2089 16.434C14.2157 16.3775 14.2228 16.3214 14.2303 16.2654L14.2192 16.3513L14.2089 16.434ZM14.2538 16.0949C14.2581 16.0652 14.2623 16.0356 14.2668 16.0059C14.2581 16.0636 14.2497 16.1217 14.2418 16.18L14.2538 16.0949ZM36.3783 15.9498L36.3826 15.9775L36.3994 16.0909L36.4114 16.176C36.4022 16.1095 36.3926 16.0434 36.3826 15.9775L36.3806 15.9636L36.3783 15.9498C36.3727 15.9122 36.3667 15.8747 36.3605 15.8372L36.3783 15.9498ZM36.1837 14.9359C36.2233 15.1068 36.2601 15.2801 36.2934 15.4562C36.2547 15.2526 36.2117 15.0527 36.1649 14.8562L36.1837 14.9359ZM14.4881 14.862C14.4755 14.9149 14.4631 14.9682 14.4511 15.0217L14.4693 14.9415L14.4881 14.862ZM14.5606 14.5731L14.5882 14.4693C14.579 14.5038 14.5695 14.5384 14.5606 14.5731L14.5572 14.5861L14.5537 14.5993L14.5469 14.6254L14.5268 14.7037L14.5073 14.7827C14.5138 14.7562 14.5202 14.73 14.5268 14.7037L14.5537 14.5993L14.5606 14.5731ZM14.6534 14.2381C14.6386 14.2892 14.6239 14.3405 14.6095 14.392L14.6313 14.3149L14.6534 14.2381ZM14.6989 14.0859C14.6912 14.1111 14.6835 14.1364 14.676 14.1618L14.6989 14.0859C14.7066 14.0606 14.7145 14.0354 14.7224 14.0104L14.6989 14.0859ZM35.9563 14.0859C35.9477 14.0584 35.9394 14.0308 35.9308 14.0035L35.9541 14.0791L35.9563 14.0859ZM15.2432 12.6429L15.274 12.5757C15.2637 12.5982 15.2535 12.6204 15.2432 12.6429L15.2137 12.7086L15.2024 12.7342L15.1983 12.743L15.1947 12.7514C15.1812 12.7819 15.1679 12.8123 15.1547 12.843L15.1947 12.7514L15.2024 12.7342L15.2413 12.6477L15.2432 12.6429ZM35.4214 12.6605L35.4398 12.7014L35.4449 12.713L35.4752 12.7817C35.4652 12.7586 35.4551 12.7358 35.4449 12.713L35.443 12.7086L35.4398 12.7014L35.4276 12.6741L35.4214 12.6605L35.4102 12.6358L35.379 12.5675L35.4214 12.6605ZM15.3388 12.4383C15.3276 12.4613 15.3165 12.4846 15.3056 12.5078L15.3377 12.4403L15.3388 12.4383ZM35.1933 12.1841L35.2003 12.1979L35.2317 12.2608L35.2399 12.277L35.2713 12.3407L35.2779 12.3544L35.3153 12.4321L35.283 12.3648L35.2779 12.3544L35.276 12.3504L35.2713 12.3407L35.2514 12.3003L35.2399 12.277L35.236 12.269L35.2317 12.2608L35.2195 12.236L35.2003 12.1979L35.1954 12.1885L35.1933 12.1841C35.1804 12.1588 35.1674 12.1336 35.1543 12.1084L35.1933 12.1841ZM15.5921 11.9403C15.6086 11.9098 15.6252 11.8796 15.6419 11.8493L15.6066 11.9136L15.5921 11.9403ZM15.8232 11.5338C15.8108 11.5546 15.7984 11.5755 15.7862 11.5963L15.8232 11.5338ZM34.755 11.4014C34.7424 11.3807 34.7298 11.3603 34.7171 11.3401L34.755 11.4014ZM34.6141 11.1784L34.6271 11.1984L34.6787 11.2792L34.6402 11.2185L34.6271 11.1984L34.6207 11.1884L34.6141 11.1784C34.5968 11.1515 34.5795 11.1251 34.5619 11.0985L34.6141 11.1784ZM33.1443 9.37936L33.0951 9.33148C33.1116 9.3475 33.1278 9.36333 33.1443 9.37936L33.2089 9.44326L33.2251 9.45949L33.2895 9.5244C33.2681 9.50256 33.2467 9.48093 33.2251 9.45949L33.217 9.45128L33.2089 9.44326L33.1928 9.42724L33.1443 9.37936ZM17.7982 9.11511L17.857 9.06222L17.8065 9.1077L17.7982 9.11511L17.7591 9.15097L17.7405 9.1682L17.737 9.1712L17.7334 9.17461L17.712 9.19444L17.6815 9.22289L17.6776 9.2267L17.6757 9.2285C17.6564 9.24633 17.6374 9.26436 17.6184 9.28239L17.6757 9.2285L17.6815 9.22289L17.7334 9.17461L17.7405 9.1682L17.7933 9.11972L17.7982 9.11511ZM32.4358 8.74569L32.5226 8.81741C32.494 8.79317 32.4651 8.76953 32.4358 8.74569ZM19.0296 8.15289L19.0822 8.11803C19.0647 8.12965 19.0471 8.14127 19.0296 8.15289L19.0264 8.15509L19.0206 8.1589L18.9849 8.18294L18.9492 8.20738L18.9434 8.21119L18.9411 8.21279C18.9167 8.22942 18.8923 8.24625 18.8682 8.26308L18.8607 8.26828L18.8545 8.27249C18.8306 8.28932 18.8068 8.30615 18.7831 8.32298L18.7786 8.32618L18.7711 8.33139C18.7463 8.34902 18.7215 8.36685 18.6969 8.38488L18.7711 8.33139L18.7831 8.32298L18.8545 8.27249L18.8682 8.26308L18.9411 8.21279L18.9492 8.20738L19.0206 8.1589L19.0296 8.15289ZM31.459 8.0373C31.4216 8.01325 31.384 7.98941 31.3464 7.96598L31.4028 8.00144L31.459 8.0373ZM19.5324 7.83616C19.5523 7.82454 19.572 7.81292 19.5916 7.8015L19.5344 7.83515L19.5324 7.83616L19.4777 7.86881L19.4593 7.88003L19.449 7.88604L19.4392 7.89225C19.4142 7.90728 19.3892 7.9225 19.3644 7.93773L19.4392 7.89225L19.4593 7.88003L19.5324 7.83616ZM30.4777 7.47775C30.4974 7.48777 30.5171 7.49779 30.5367 7.5078L30.4777 7.47775C30.4581 7.46794 30.4382 7.45812 30.4185 7.4483L30.4777 7.47775ZM20.3326 7.40703L20.4134 7.36817L20.3536 7.39682L20.3326 7.40703L20.3284 7.40904C20.3016 7.42186 20.2749 7.43508 20.2482 7.4483L20.3284 7.40904L20.3326 7.40703ZM29.5689 7.07127L29.5815 7.07628L29.6393 7.09932L29.6572 7.10653L29.7256 7.13437L29.7938 7.16282L29.8118 7.17044L29.8689 7.19468L29.8813 7.19989L29.9386 7.22473C29.9195 7.21651 29.9005 7.2081 29.8813 7.19989L29.8778 7.19848L29.8689 7.19468L29.8323 7.17905L29.8118 7.17044L29.802 7.16623L29.7938 7.16282C29.7485 7.14379 29.703 7.12496 29.6572 7.10653L29.6491 7.10332L29.6393 7.09932L29.6185 7.0909L29.5815 7.07628L29.5726 7.07267L29.5689 7.07127C29.5497 7.06366 29.5304 7.05604 29.511 7.04863L29.5689 7.07127ZM21.1876 7.03661L21.2801 7.00155C21.2494 7.01317 21.2184 7.02479 21.1876 7.03661C21.1568 7.04843 21.126 7.06045 21.0952 7.07267L21.1876 7.03661ZM29.3876 7.00155C29.4082 7.00916 29.4289 7.01698 29.4494 7.02479L29.3876 7.00155C29.3671 6.99374 29.3464 6.98613 29.3258 6.97851L29.3876 7.00155ZM21.6192 6.88075L21.7011 6.8535L21.6385 6.87434L21.6192 6.88075L21.6109 6.88355L21.5989 6.88776L21.5641 6.89958L21.5313 6.911L21.5211 6.9146L21.5134 6.91721L21.4899 6.92542L21.4411 6.94265L21.4315 6.94626L21.4279 6.94746C21.3992 6.95768 21.3706 6.96809 21.3421 6.97851L21.4279 6.94746L21.4411 6.94265L21.5134 6.91721L21.5313 6.911L21.5989 6.88776L21.6192 6.88075ZM28.4036 6.68382L28.4418 6.69423L28.4927 6.70846L28.5361 6.72088L28.5861 6.7353L28.6268 6.74712L28.7157 6.77377C28.6862 6.76475 28.6565 6.75594 28.6268 6.74712L28.6173 6.74432L28.5861 6.7353L28.5502 6.72489L28.5361 6.72088L28.5186 6.71567L28.4927 6.70846L28.4671 6.70125L28.4418 6.69423L28.4196 6.68802L28.4036 6.68382L28.3839 6.67841L28.3204 6.66118L28.4036 6.68382ZM22.326 6.66739L22.4171 6.64335C22.3867 6.65116 22.3564 6.65917 22.326 6.66739L22.3112 6.67119L22.2954 6.6756L22.2691 6.68261L22.2056 6.70004L22.2954 6.6756L22.326 6.66739ZM28.0649 6.59667C28.0863 6.60188 28.1077 6.60689 28.1288 6.6123C28.0863 6.60168 28.0435 6.59146 28.0008 6.58144L28.0649 6.59667ZM22.9092 6.52755L22.8609 6.53797C22.8985 6.52976 22.9359 6.52194 22.9736 6.51413L22.9092 6.52755ZM27.6795 6.51072C27.5933 6.49309 27.5071 6.47647 27.4208 6.46084L27.4856 6.47286C27.5719 6.48889 27.6579 6.50612 27.7438 6.52415L27.6795 6.51072ZM27.0644 6.40214L27.0779 6.40415L27.1773 6.41957C27.1441 6.41416 27.111 6.40915 27.0779 6.40415L27.0717 6.40314L27.0644 6.40214L27.0313 6.39713L26.9661 6.38772L27.0644 6.40214ZM23.5897 6.40435C23.6222 6.39954 23.6547 6.39473 23.687 6.39012L23.6218 6.39954L23.5897 6.40435ZM24.0025 6.34965C23.9625 6.35426 23.9226 6.35907 23.8826 6.36408L23.948 6.35606L24.0025 6.34965ZM26.5943 6.34164L26.6114 6.34364L26.7042 6.35406C26.6734 6.35045 26.6424 6.34685 26.6114 6.34364L26.6028 6.34264L26.5943 6.34164C26.5631 6.33823 26.5318 6.33503 26.5006 6.33202L26.5943 6.34164ZM26.3123 6.31459L26.3777 6.3204C26.3559 6.3184 26.3341 6.3164 26.3123 6.31459ZM24.5376 6.30097C24.5812 6.29797 24.6251 6.29536 24.6689 6.29276L24.6033 6.29676L24.5376 6.30097ZM24.8983 6.28214C24.9314 6.28094 24.9646 6.27974 24.9977 6.27873L24.9319 6.28094L24.8983 6.28214ZM25.4033 6.27413H25.4082L25.4789 6.27493H25.4871L25.5565 6.27613H25.5634L25.6391 6.27793C25.6138 6.27733 25.5886 6.27673 25.5634 6.27613H25.561H25.5565L25.5157 6.27533L25.4871 6.27493H25.4828H25.4789L25.4539 6.27453L25.4082 6.27413H25.4048H25.4033H25.3924L25.3265 6.27393L25.4033 6.27413Z" fill="url(#paint1_linear_3944_24929)"/>
<path d="M39.4197 21.8949L38.1565 21.8893C38.3963 26.3666 33.3646 27.2505 29.4239 27.1075C29.2605 27.3681 28.9599 27.545 28.6117 27.545H24.5722C24.0475 27.545 23.6219 27.1512 23.6219 26.6656V25.8906C23.6219 25.4048 24.0475 25.012 24.5722 25.013L28.6117 25.0208C29.0707 25.0216 29.4523 25.3269 29.5365 25.7306C32.7271 25.8886 36.8305 25.4519 36.6681 21.8833L34.9505 21.8757C34.5116 21.8739 34.1556 21.5401 34.1556 21.1304V13.6354C34.1556 13.2257 34.5118 12.898 34.9505 12.9032L37.353 12.9324C37.0401 7.59263 31.0191 3.09386 25.3867 2.98347C19.7059 2.87209 13.5668 7.25306 13.2437 12.671L15.8351 12.7024C16.2851 12.7078 16.6494 13.0482 16.6494 13.4625V21.0571C16.6494 21.4714 16.2851 21.8058 15.8351 21.8038L11.2196 21.7837C10.7662 21.7819 10.3984 21.4428 10.3984 21.0265V13.3904C10.3984 13.2033 10.4754 13.0356 10.5981 12.9052C10.7775 6.04182 18.1968 0.430774 25.3867 0.584634C32.4622 0.736289 39.6694 6.43428 39.9003 13.1199C40.0865 13.257 40.2086 13.4675 40.2086 13.7053V21.1601C40.2086 21.5678 39.8556 21.8967 39.4197 21.8949Z" fill="url(#paint2_linear_3944_24929)"/>
<defs>
<linearGradient id="paint0_linear_3944_24929" x1="24.6199" y1="21.2265" x2="24.6199" y2="67.375" gradientUnits="userSpaceOnUse">
<stop stop-color="#CCE6FF"/>
<stop offset="1" stop-color="#1D98FF"/>
</linearGradient>
<linearGradient id="paint1_linear_3944_24929" x1="25.5043" y1="53.9521" x2="25.5043" y2="25.9164" gradientUnits="userSpaceOnUse">
<stop stop-color="#CCE6FF"/>
<stop offset="1" stop-color="#4AA7F0"/>
</linearGradient>
<linearGradient id="paint2_linear_3944_24929" x1="37.9523" y1="27.5246" x2="37.9523" y2="1.17863" gradientUnits="userSpaceOnUse">
<stop stop-color="#144DA4"/>
<stop offset="1" stop-color="#144DA4"/>
</linearGradient>
</defs>
</svg>
