<svg width="50" height="45" viewBox="0 0 50 45" fill="none" xmlns="http://www.w3.org/2000/svg">
<path fill-rule="evenodd" clip-rule="evenodd" d="M42.2677 31.4519C42.2677 30.6433 41.6464 29.9868 40.8812 29.9868H1.3865C0.621239 29.9868 0 30.6433 0 31.4519V43.5348C0 44.3435 0.621239 44.9999 1.3865 44.9999H40.8812C41.6464 44.9999 42.2677 44.3435 42.2677 43.5348V31.4519Z" fill="url(#paint0_linear_3944_24922)"/>
<path fill-rule="evenodd" clip-rule="evenodd" d="M39.8383 44.9999V32.6469H1.23632C0.700572 32.6469 0.265625 32.1874 0.265625 31.6213V31.0124C0.265625 30.4463 0.700572 29.9868 1.23632 29.9868H40.8739C41.5793 29.9868 42.1625 30.5447 42.2492 31.2654L42.2513 31.2837L42.2532 31.3023L42.255 31.3206L42.2564 31.3392L42.2577 31.3579L42.2586 31.3766L42.2594 31.3953L42.2599 31.4142L42.2602 31.433L42.2604 31.4519V43.5348C42.2604 44.3435 41.6392 44.9999 40.8739 44.9999H39.8383Z" fill="url(#paint1_linear_3944_24922)"/>
<path d="M5.49022 39.3001C6.13634 39.3001 6.66012 38.7466 6.66012 38.0639C6.66012 37.3811 6.13634 36.8276 5.49022 36.8276C4.8441 36.8276 4.32031 37.3811 4.32031 38.0639C4.32031 38.7466 4.8441 39.3001 5.49022 39.3001Z" fill="#333D5E"/>
<path fill-rule="evenodd" clip-rule="evenodd" d="M36.158 37.7935C36.158 37.4701 35.9095 37.2075 35.6035 37.2075H10.6329C10.3268 37.2075 10.0781 37.4701 10.0781 37.7935V38.1416C10.0781 38.465 10.3268 38.7276 10.6329 38.7276H35.6035C35.9095 38.7276 36.158 38.465 36.158 38.1416V37.7935Z" fill="white"/>
<path fill-rule="evenodd" clip-rule="evenodd" d="M1.3865 29.9868H2.51749V42.5275H41.1152C41.6509 42.5276 42.0857 42.9871 42.0857 43.553V44.1667C42.0857 44.2012 42.0841 44.2354 42.0809 44.2691C41.8409 44.706 41.3932 44.9999 40.8812 44.9999H1.3865C0.621239 44.9999 0 44.3435 0 43.5348V31.4519C0 30.6433 0.621239 29.9868 1.3865 29.9868Z" fill="url(#paint2_radial_3944_24922)"/>
<path fill-rule="evenodd" clip-rule="evenodd" d="M42.2677 16.3782C42.2677 15.5695 41.6464 14.9131 40.8812 14.9131H1.3865C0.621239 14.9131 0 15.5695 0 16.3782V28.4611C0 29.2697 0.621239 29.9262 1.3865 29.9262H40.8812C41.6464 29.9262 42.2677 29.2697 42.2677 28.4611V16.3782Z" fill="url(#paint3_linear_3944_24922)"/>
<path fill-rule="evenodd" clip-rule="evenodd" d="M39.8383 29.9262V17.5731H1.23632C0.700572 17.5731 0.265625 17.1135 0.265625 16.5476V15.9386C0.265625 15.3725 0.700572 14.9131 1.23632 14.9131H40.8739C41.5793 14.9131 42.1625 15.4709 42.2492 16.1916L42.2513 16.21L42.2532 16.2284L42.255 16.2469L42.2564 16.2654L42.2577 16.2841L42.2586 16.3029L42.2594 16.3216L42.2599 16.3404L42.2602 16.3591L42.2604 16.3782V28.4611C42.2604 29.2697 41.6392 29.9262 40.8739 29.9262H39.8383Z" fill="url(#paint4_linear_3944_24922)"/>
<path d="M5.49022 24.2254C6.13634 24.2254 6.66012 23.6719 6.66012 22.9892C6.66012 22.3064 6.13634 21.7529 5.49022 21.7529C4.8441 21.7529 4.32031 22.3064 4.32031 22.9892C4.32031 23.6719 4.8441 24.2254 5.49022 24.2254Z" fill="#333D5E"/>
<path fill-rule="evenodd" clip-rule="evenodd" d="M36.158 22.7193C36.158 22.3959 35.9095 22.1333 35.6035 22.1333H10.6329C10.3268 22.1333 10.0781 22.3959 10.0781 22.7193V23.0673C10.0781 23.3908 10.3268 23.6534 10.6329 23.6534H35.6035C35.9095 23.6534 36.158 23.3908 36.158 23.0673V22.7193Z" fill="white"/>
<path fill-rule="evenodd" clip-rule="evenodd" d="M1.3865 14.9131H2.51749V27.4537H41.1152C41.6509 27.4539 42.0857 27.9133 42.0857 28.4793V29.0929C42.0857 29.1275 42.0841 29.1617 42.0809 29.1954C41.8409 29.6323 41.3932 29.9262 40.8812 29.9262H1.3865C0.621239 29.9262 0 29.2697 0 28.4611V16.3782C0 15.5695 0.621239 14.9131 1.3865 14.9131Z" fill="url(#paint5_radial_3944_24922)"/>
<path fill-rule="evenodd" clip-rule="evenodd" d="M42.2677 1.46511C42.2677 0.656458 41.6464 0 40.8812 0H1.3865C0.621239 0 0 0.656458 0 1.46511V13.548C0 14.3566 0.621239 15.0131 1.3865 15.0131H40.8812C41.6464 15.0131 42.2677 14.3566 42.2677 13.548V1.46511Z" fill="url(#paint6_linear_3944_24922)"/>
<path fill-rule="evenodd" clip-rule="evenodd" d="M39.8383 15.0131V2.66005H1.23632C0.700572 2.66005 0.265625 2.20061 0.265625 1.63449V1.02556C0.265625 0.459605 0.700572 0 1.23632 0H40.8739C41.5793 0 42.1625 0.557863 42.2492 1.27854L42.2513 1.29691L42.2532 1.31545L42.255 1.33382L42.2564 1.35252L42.2577 1.37106L42.2586 1.38977L42.2594 1.40848L42.2599 1.42736L42.2602 1.44623L42.2604 1.46511V13.548C42.2604 14.3566 41.6392 15.0131 40.8739 15.0131H39.8383Z" fill="url(#paint7_linear_3944_24922)"/>
<path d="M5.49022 9.3128C6.13634 9.3128 6.66012 8.75932 6.66012 8.07656C6.66012 7.39381 6.13634 6.84033 5.49022 6.84033C4.8441 6.84033 4.32031 7.39381 4.32031 8.07656C4.32031 8.75932 4.8441 9.3128 5.49022 9.3128Z" fill="#333D5E"/>
<path fill-rule="evenodd" clip-rule="evenodd" d="M36.158 7.80671C36.158 7.48329 35.9095 7.2207 35.6035 7.2207H10.6329C10.3268 7.2207 10.0781 7.48329 10.0781 7.80671V8.15475C10.0781 8.47817 10.3268 8.74075 10.6329 8.74075H35.6035C35.9095 8.74075 36.158 8.47817 36.158 8.15475V7.80671Z" fill="white"/>
<path fill-rule="evenodd" clip-rule="evenodd" d="M1.3865 0H2.51749V12.5406H41.1152C41.6509 12.5408 42.0857 13.0002 42.0857 13.5664V14.1798C42.0857 14.2144 42.0841 14.2486 42.0809 14.2823C41.8409 14.7192 41.3932 15.0131 40.8812 15.0131H1.3865C0.621239 15.0131 0 14.3566 0 13.548V1.46511C0 0.656458 0.621239 0 1.3865 0Z" fill="url(#paint8_radial_3944_24922)"/>
<path fill-rule="evenodd" clip-rule="evenodd" d="M49.9983 29.2413V30.7587L47.9282 31.6972C47.8466 32.1351 47.7338 32.5615 47.5929 32.9748L48.9254 34.843L48.1817 36.1571L45.9267 35.9137C45.6443 36.2469 45.3384 36.5587 45.0117 36.8468L45.2503 39.147L43.9622 39.9057L42.1307 38.5464C41.7257 38.6902 41.3073 38.8052 40.8779 38.8885L39.9578 41H38.4704L37.5503 38.8882C37.1207 38.8052 36.7025 38.6902 36.2976 38.5464L34.466 39.9057L33.1779 39.147L33.4163 36.847C33.0896 36.5589 32.7837 36.2471 32.5013 35.9137L30.2466 36.1571L29.5028 34.843L30.8352 32.975C30.6942 32.5618 30.5814 32.1351 30.4998 31.6969L28.4297 30.7587V29.2413L30.4998 28.3028C30.5814 27.8649 30.694 27.438 30.8349 27.0248L29.5028 25.157L30.2466 23.8429L32.5022 24.0863C32.7845 23.7534 33.0899 23.441 33.4163 23.153L33.1779 20.853L34.466 20.0943L36.2976 21.4536C36.7027 21.3098 37.121 21.1948 37.5503 21.1115L38.4704 19H39.9578L40.8779 21.1115C41.3073 21.1948 41.7255 21.3098 42.1304 21.4536L43.9622 20.0943L45.2503 20.853L45.0117 23.153C45.3384 23.441 45.6437 23.7534 45.9261 24.0863L48.1817 23.8429L48.9254 25.157L47.5931 27.0248C47.7343 27.438 47.8468 27.8649 47.9284 28.3028L49.9983 29.2413ZM39.214 26.5836C37.3644 26.5836 35.8649 28.1132 35.8649 30C35.8649 31.8868 37.3644 33.4161 39.214 33.4161C41.0638 33.4161 42.5634 31.8868 42.5634 30C42.5634 28.1132 41.0638 26.5836 39.214 26.5836Z" fill="url(#paint9_linear_3944_24922)"/>
<defs>
<linearGradient id="paint0_linear_3944_24922" x1="26.4774" y1="38.2857" x2="24.1705" y2="55.8856" gradientUnits="userSpaceOnUse">
<stop stop-color="#CCE6FF"/>
<stop offset="0.47" stop-color="#9CD1FF"/>
<stop offset="1" stop-color="#4AA7F0"/>
</linearGradient>
<linearGradient id="paint1_linear_3944_24922" x1="21.6801" y1="38.638" x2="28.5782" y2="16.9696" gradientUnits="userSpaceOnUse">
<stop stop-color="#CCE6FF" stop-opacity="0.62"/>
<stop offset="0.18" stop-color="#E2F1FF" stop-opacity="0.62"/>
<stop offset="0.39" stop-color="#F6FBFF" stop-opacity="0.62"/>
<stop offset="1" stop-color="white" stop-opacity="0.62"/>
</linearGradient>
<radialGradient id="paint2_radial_3944_24922" cx="0" cy="0" r="1" gradientUnits="userSpaceOnUse" gradientTransform="translate(13.2025 61.5224) scale(36.6339 38.7108)">
<stop stop-color="#4AA7F0" stop-opacity="0.639"/>
<stop offset="0.52" stop-color="#4AA7F0" stop-opacity="0.489"/>
<stop offset="1" stop-color="#D0E4FC" stop-opacity="0"/>
</radialGradient>
<linearGradient id="paint3_linear_3944_24922" x1="26.4751" y1="23.218" x2="24.1682" y2="40.8179" gradientUnits="userSpaceOnUse">
<stop stop-color="#CCE6FF"/>
<stop offset="0.47" stop-color="#9CD1FF"/>
<stop offset="1" stop-color="#4AA7F0"/>
</linearGradient>
<linearGradient id="paint4_linear_3944_24922" x1="21.6812" y1="23.5593" x2="28.5793" y2="1.89083" gradientUnits="userSpaceOnUse">
<stop stop-color="#CCE6FF" stop-opacity="0.62"/>
<stop offset="0.18" stop-color="#E2F1FF" stop-opacity="0.62"/>
<stop offset="0.39" stop-color="#F6FBFF" stop-opacity="0.62"/>
<stop offset="1" stop-color="white" stop-opacity="0.62"/>
</linearGradient>
<radialGradient id="paint5_radial_3944_24922" cx="0" cy="0" r="1" gradientUnits="userSpaceOnUse" gradientTransform="translate(13.2025 46.4487) scale(36.6339 38.7108)">
<stop stop-color="#4AA7F0" stop-opacity="0.639"/>
<stop offset="0.52" stop-color="#4AA7F0" stop-opacity="0.489"/>
<stop offset="1" stop-color="#D0E4FC" stop-opacity="0"/>
</radialGradient>
<linearGradient id="paint6_linear_3944_24922" x1="26.463" y1="8.31534" x2="24.1561" y2="25.9153" gradientUnits="userSpaceOnUse">
<stop stop-color="#CCE6FF"/>
<stop offset="0.47" stop-color="#9CD1FF"/>
<stop offset="1" stop-color="#4AA7F0"/>
</linearGradient>
<linearGradient id="paint7_linear_3944_24922" x1="21.6764" y1="8.65395" x2="28.5745" y2="-13.0145" gradientUnits="userSpaceOnUse">
<stop stop-color="#CCE6FF" stop-opacity="0.62"/>
<stop offset="0.18" stop-color="#E2F1FF" stop-opacity="0.62"/>
<stop offset="0.39" stop-color="#F6FBFF" stop-opacity="0.62"/>
<stop offset="1" stop-color="white" stop-opacity="0.62"/>
</linearGradient>
<radialGradient id="paint8_radial_3944_24922" cx="0" cy="0" r="1" gradientUnits="userSpaceOnUse" gradientTransform="translate(13.2025 31.5356) scale(36.6339 38.7108)">
<stop stop-color="#4AA7F0" stop-opacity="0.639"/>
<stop offset="0.52" stop-color="#4AA7F0" stop-opacity="0.489"/>
<stop offset="1" stop-color="#D0E4FC" stop-opacity="0"/>
</radialGradient>
<linearGradient id="paint9_linear_3944_24922" x1="34.2541" y1="24.1942" x2="49.2461" y2="55.8599" gradientUnits="userSpaceOnUse">
<stop stop-color="#144DA4"/>
<stop offset="1" stop-color="#144DA4"/>
</linearGradient>
</defs>
</svg>
