<svg width="51" height="51" viewBox="0 0 51 51" fill="none" xmlns="http://www.w3.org/2000/svg">
<path fill-rule="evenodd" clip-rule="evenodd" d="M45.3329 32.7451C45.3329 31.9272 44.6761 31.2632 43.8671 31.2632H2.11422C1.3052 31.2632 0.648438 31.9272 0.648438 32.7451V44.9671C0.648438 45.785 1.3052 46.449 2.11422 46.449H43.8671C44.6761 46.449 45.3329 45.785 45.3329 44.9671V32.7451Z" fill="url(#paint0_linear_3907_25918)"/>
<path fill-rule="evenodd" clip-rule="evenodd" d="M42.7728 46.449V33.9538H1.9637C1.39732 33.9538 0.9375 33.4891 0.9375 32.9165V32.3005C0.9375 31.7279 1.39732 31.2632 1.9637 31.2632H43.8677C44.6135 31.2632 45.2299 31.8275 45.3216 32.5564L45.3238 32.575L45.3259 32.5938L45.3277 32.6123L45.3292 32.6311L45.3306 32.65L45.3316 32.6689L45.3324 32.6879L45.3329 32.707L45.3333 32.7261L45.3334 32.7451V44.9671C45.3334 45.785 44.6767 46.449 43.8677 46.449H42.7728Z" fill="url(#paint1_linear_3907_25918)"/>
<path d="M6.44774 40.683C7.1308 40.683 7.68454 40.1232 7.68454 39.4326C7.68454 38.742 7.1308 38.1821 6.44774 38.1821C5.76467 38.1821 5.21094 38.742 5.21094 39.4326C5.21094 40.1232 5.76467 40.683 6.44774 40.683Z" fill="#333D5E"/>
<path fill-rule="evenodd" clip-rule="evenodd" d="M38.868 39.1592C38.868 38.832 38.6053 38.5664 38.2817 38.5664H11.8833C11.5597 38.5664 11.2969 38.832 11.2969 39.1592V39.5112C11.2969 39.8383 11.5597 40.1039 11.8833 40.1039H38.2817C38.6053 40.1039 38.868 39.8383 38.868 39.5112V39.1592Z" fill="white"/>
<path fill-rule="evenodd" clip-rule="evenodd" d="M2.11422 31.2632H3.30987V43.9481H44.1145C44.6808 43.9483 45.1405 44.413 45.1405 44.9855V45.6062C45.1405 45.6411 45.1388 45.6757 45.1354 45.7098C44.8817 46.1517 44.4084 46.449 43.8671 46.449H2.11422C1.3052 46.449 0.648438 45.785 0.648438 44.9671V32.7451C0.648438 31.9272 1.3052 31.2632 2.11422 31.2632Z" fill="url(#paint2_radial_3907_25918)"/>
<path fill-rule="evenodd" clip-rule="evenodd" d="M45.3329 17.4976C45.3329 16.6796 44.6761 16.0156 43.8671 16.0156H2.11422C1.3052 16.0156 0.648438 16.6796 0.648438 17.4976V29.7195C0.648438 30.5375 1.3052 31.2015 2.11422 31.2015H43.8671C44.6761 31.2015 45.3329 30.5375 45.3329 29.7195V17.4976Z" fill="url(#paint3_linear_3907_25918)"/>
<path fill-rule="evenodd" clip-rule="evenodd" d="M42.7728 31.2015V18.7063H1.9637C1.39732 18.7063 0.9375 18.2414 0.9375 17.6689V17.053C0.9375 16.4803 1.39732 16.0156 1.9637 16.0156H43.8677C44.6135 16.0156 45.2299 16.5799 45.3216 17.3089L45.3238 17.3275L45.3259 17.346L45.3277 17.3648L45.3292 17.3835L45.3306 17.4025L45.3316 17.4214L45.3324 17.4403L45.3329 17.4594L45.3333 17.4783L45.3334 17.4976V29.7195C45.3334 30.5375 44.6767 31.2015 43.8677 31.2015H42.7728Z" fill="url(#paint4_linear_3907_25918)"/>
<path d="M6.44774 25.4355C7.1308 25.4355 7.68454 24.8756 7.68454 24.185C7.68454 23.4944 7.1308 22.9346 6.44774 22.9346C5.76467 22.9346 5.21094 23.4944 5.21094 24.185C5.21094 24.8756 5.76467 25.4355 6.44774 25.4355Z" fill="#333D5E"/>
<path fill-rule="evenodd" clip-rule="evenodd" d="M38.868 23.9121C38.868 23.5849 38.6053 23.3193 38.2817 23.3193H11.8833C11.5597 23.3193 11.2969 23.5849 11.2969 23.9121V24.2641C11.2969 24.5913 11.5597 24.8569 11.8833 24.8569H38.2817C38.6053 24.8569 38.868 24.5913 38.868 24.2641V23.9121Z" fill="white"/>
<path fill-rule="evenodd" clip-rule="evenodd" d="M2.11422 16.0156H3.30987V28.7006H44.1145C44.6808 28.7007 45.1405 29.1654 45.1405 29.7379V30.3586C45.1405 30.3936 45.1388 30.4282 45.1354 30.4623C44.8817 30.9042 44.4084 31.2015 43.8671 31.2015H2.11422C1.3052 31.2015 0.648438 30.5375 0.648438 29.7195V17.4976C0.648438 16.6796 1.3052 16.0156 2.11422 16.0156Z" fill="url(#paint5_radial_3907_25918)"/>
<path fill-rule="evenodd" clip-rule="evenodd" d="M45.3329 2.41312C45.3329 1.59516 44.6761 0.931152 43.8671 0.931152H2.11422C1.3052 0.931152 0.648438 1.59516 0.648438 2.41312V14.635C0.648438 15.453 1.3052 16.117 2.11422 16.117H43.8671C44.6761 16.117 45.3329 15.453 45.3329 14.635V2.41312Z" fill="url(#paint6_linear_3907_25918)"/>
<path fill-rule="evenodd" clip-rule="evenodd" d="M42.7728 16.117V3.62181H1.9637C1.39732 3.62181 0.9375 3.15708 0.9375 2.58445V1.96851C0.9375 1.39605 1.39732 0.931152 1.9637 0.931152H43.8677C44.6135 0.931152 45.2299 1.49543 45.3216 2.2244L45.3238 2.24298L45.3259 2.26173L45.3277 2.28031L45.3292 2.29924L45.3306 2.31799L45.3316 2.33691L45.3324 2.35584L45.3329 2.37493L45.3333 2.39402L45.3334 2.41312V14.635C45.3334 15.453 44.6767 16.117 43.8677 16.117H42.7728Z" fill="url(#paint7_linear_3907_25918)"/>
<path d="M6.44774 10.351C7.1308 10.351 7.68454 9.79116 7.68454 9.10055C7.68454 8.40995 7.1308 7.8501 6.44774 7.8501C5.76467 7.8501 5.21094 8.40995 5.21094 9.10055C5.21094 9.79116 5.76467 10.351 6.44774 10.351Z" fill="#333D5E"/>
<path fill-rule="evenodd" clip-rule="evenodd" d="M38.868 8.82713C38.868 8.49998 38.6053 8.23438 38.2817 8.23438H11.8833C11.5597 8.23438 11.2969 8.49998 11.2969 8.82713V9.17916C11.2969 9.50631 11.5597 9.77192 11.8833 9.77192H38.2817C38.6053 9.77192 38.868 9.50631 38.868 9.17916V8.82713Z" fill="white"/>
<path fill-rule="evenodd" clip-rule="evenodd" d="M2.11422 0.931152H3.30987V13.6161H44.1145C44.6808 13.6163 45.1405 14.081 45.1405 14.6536V15.2742C45.1405 15.3091 45.1388 15.3437 45.1354 15.3778C44.8817 15.8197 44.4084 16.117 43.8671 16.117H2.11422C1.3052 16.117 0.648438 15.453 0.648438 14.635V2.41312C0.648438 1.59516 1.3052 0.931152 2.11422 0.931152Z" fill="url(#paint8_radial_3907_25918)"/>
<path fill-rule="evenodd" clip-rule="evenodd" d="M41.5468 46.2744L41.4963 46.2756C37.5832 46.2756 34.4062 42.9099 34.4062 38.7644V32.5578C34.4062 28.4121 37.5832 25.0464 41.4963 25.0464C45.4094 25.0464 48.5863 28.4121 48.5863 32.5578V38.7644C48.5863 42.8557 45.4921 46.1873 41.648 46.2718C43.7365 46.2322 45.4201 44.4223 45.4201 42.1989V32.7911C45.4201 30.5409 43.6958 28.7141 41.5721 28.7141C39.4482 28.7141 37.7239 30.5409 37.7239 32.7911V42.1989C37.7239 44.4404 39.4352 46.2619 41.5468 46.2744Z" fill="url(#paint9_linear_3907_25918)"/>
<path fill-rule="evenodd" clip-rule="evenodd" d="M50.643 38.6253C50.643 36.9926 49.3322 35.667 47.7171 35.667H35.1604C33.5455 35.667 32.2344 36.9926 32.2344 38.6253V47.973C32.2344 49.6058 33.5455 50.9313 35.1604 50.9313H47.7171C49.3322 50.9313 50.643 49.6058 50.643 47.973V38.6253Z" fill="url(#paint10_linear_3907_25918)"/>
<path fill-rule="evenodd" clip-rule="evenodd" d="M40.975 43.8295C40.1973 43.4816 39.6562 42.7093 39.6562 41.8133C39.6562 40.5911 40.663 39.5991 41.9032 39.5991C43.1432 39.5991 44.1499 40.5911 44.1499 41.8133C44.1499 42.762 43.5435 43.572 42.6927 43.8866V45.3768C42.6927 45.8559 42.3076 46.245 41.8337 46.245C41.3598 46.245 40.975 45.8559 40.975 45.3768V43.8295Z" fill="white"/>
<defs>
<linearGradient id="paint0_linear_3907_25918" x1="28.6397" y1="39.6576" x2="26.4039" y2="57.4854" gradientUnits="userSpaceOnUse">
<stop stop-color="#CCE6FF"/>
<stop offset="0.47" stop-color="#9CD1FF"/>
<stop offset="1" stop-color="#1D98FF"/>
</linearGradient>
<linearGradient id="paint1_linear_3907_25918" x1="23.5764" y1="40.0139" x2="30.3048" y2="17.9243" gradientUnits="userSpaceOnUse">
<stop stop-color="#CCE6FF" stop-opacity="0.62"/>
<stop offset="0.18" stop-color="#E2F1FF" stop-opacity="0.62"/>
<stop offset="0.39" stop-color="#F6FBFF" stop-opacity="0.62"/>
<stop offset="1" stop-color="white" stop-opacity="0.62"/>
</linearGradient>
<radialGradient id="paint2_radial_3907_25918" cx="0" cy="0" r="1" gradientUnits="userSpaceOnUse" gradientTransform="translate(14.6058 63.1617) scale(38.7286 39.1562)">
<stop stop-color="#2884FB" stop-opacity="0.639"/>
<stop offset="0.52" stop-color="#4F9AFB" stop-opacity="0.489"/>
<stop offset="1" stop-color="#D0E4FC" stop-opacity="0"/>
</radialGradient>
<linearGradient id="paint3_linear_3907_25918" x1="28.6373" y1="24.4161" x2="26.4015" y2="42.244" gradientUnits="userSpaceOnUse">
<stop stop-color="#CCE6FF"/>
<stop offset="0.47" stop-color="#9CD1FF"/>
<stop offset="1" stop-color="#1D98FF"/>
</linearGradient>
<linearGradient id="paint4_linear_3907_25918" x1="23.5775" y1="24.7613" x2="30.306" y2="2.6717" gradientUnits="userSpaceOnUse">
<stop stop-color="#CCE6FF" stop-opacity="0.62"/>
<stop offset="0.18" stop-color="#E2F1FF" stop-opacity="0.62"/>
<stop offset="0.39" stop-color="#F6FBFF" stop-opacity="0.62"/>
<stop offset="1" stop-color="white" stop-opacity="0.62"/>
</linearGradient>
<radialGradient id="paint5_radial_3907_25918" cx="0" cy="0" r="1" gradientUnits="userSpaceOnUse" gradientTransform="translate(14.6058 47.9141) scale(38.7286 39.1562)">
<stop stop-color="#2884FB" stop-opacity="0.639"/>
<stop offset="0.52" stop-color="#4F9AFB" stop-opacity="0.489"/>
<stop offset="1" stop-color="#D0E4FC" stop-opacity="0"/>
</radialGradient>
<linearGradient id="paint6_linear_3907_25918" x1="28.6246" y1="9.34216" x2="26.3887" y2="27.17" gradientUnits="userSpaceOnUse">
<stop stop-color="#CCE6FF"/>
<stop offset="0.47" stop-color="#9CD1FF"/>
<stop offset="1" stop-color="#1D98FF"/>
</linearGradient>
<linearGradient id="paint7_linear_3907_25918" x1="23.5725" y1="9.68468" x2="30.3009" y2="-12.4049" gradientUnits="userSpaceOnUse">
<stop stop-color="#CCE6FF" stop-opacity="0.62"/>
<stop offset="0.18" stop-color="#E2F1FF" stop-opacity="0.62"/>
<stop offset="0.39" stop-color="#F6FBFF" stop-opacity="0.62"/>
<stop offset="1" stop-color="white" stop-opacity="0.62"/>
</linearGradient>
<radialGradient id="paint8_radial_3907_25918" cx="0" cy="0" r="1" gradientUnits="userSpaceOnUse" gradientTransform="translate(14.6058 32.8296) scale(38.7286 39.1562)">
<stop stop-color="#2884FB" stop-opacity="0.639"/>
<stop offset="0.52" stop-color="#4F9AFB" stop-opacity="0.489"/>
<stop offset="1" stop-color="#D0E4FC" stop-opacity="0"/>
</radialGradient>
<linearGradient id="paint9_linear_3907_25918" x1="42.4498" y1="33.4282" x2="40.3288" y2="22.0953" gradientUnits="userSpaceOnUse">
<stop stop-color="#144DA4"/>
<stop offset="1" stop-color="#144DA4"/>
</linearGradient>
<linearGradient id="paint10_linear_3907_25918" x1="47.3569" y1="48.9903" x2="43.3753" y2="31.8396" gradientUnits="userSpaceOnUse">
<stop stop-color="#144DA4"/>
<stop offset="1" stop-color="#144DA4"/>
</linearGradient>
</defs>
</svg>
