<svg width="84" height="57" viewBox="0 0 84 57" fill="none" xmlns="http://www.w3.org/2000/svg">
<path fill-rule="evenodd" clip-rule="evenodd" d="M66.7454 37.4082C66.7454 36.6277 66.0824 35.9941 65.2659 35.9941H23.1279C22.3114 35.9941 21.6484 36.6277 21.6484 37.4082V49.0701C21.6484 49.8506 22.3114 50.4842 23.1279 50.4842H65.2659C66.0824 50.4842 66.7454 49.8506 66.7454 49.0701V37.4082Z" fill="url(#paint0_linear_3944_24928)"/>
<path fill-rule="evenodd" clip-rule="evenodd" d="M64.1589 50.4842V38.5615H22.973C22.4016 38.5615 21.9375 38.1181 21.9375 37.5717V36.984C21.9375 36.4377 22.4014 35.9941 22.973 35.9941H65.2637C66.0165 35.9941 66.6385 36.5327 66.7312 37.2283L66.7334 37.2459L66.7355 37.2638L66.7372 37.2816L66.7387 37.2995L66.7401 37.3174L66.7411 37.3355L66.7419 37.3535L66.7426 37.3718L66.743 37.39L66.7431 37.4082V49.0701C66.7431 49.8506 66.0801 50.4842 65.2637 50.4842H64.1589Z" fill="url(#paint1_linear_3944_24928)"/>
<path d="M27.4982 44.9825C28.1876 44.9825 28.7464 44.4483 28.7464 43.7894C28.7464 43.1304 28.1876 42.5962 27.4982 42.5962C26.8088 42.5962 26.25 43.1304 26.25 43.7894C26.25 44.4483 26.8088 44.9825 27.4982 44.9825Z" fill="#333D5E"/>
<path fill-rule="evenodd" clip-rule="evenodd" d="M60.2161 43.5285C60.2161 43.2163 59.951 42.9629 59.6243 42.9629H32.9823C32.6558 42.9629 32.3906 43.2163 32.3906 43.5285V43.8644C32.3906 44.1765 32.6558 44.43 32.9823 44.43H59.6243C59.951 44.43 60.2161 44.1765 60.2161 43.8644V43.5285Z" fill="white"/>
<path fill-rule="evenodd" clip-rule="evenodd" d="M23.1279 35.9941H24.3344V48.0978H65.5156C66.0872 48.098 66.5512 48.5414 66.5512 49.0878V49.6799C66.5512 49.7133 66.5494 49.7463 66.546 49.7788C66.2898 50.2005 65.8124 50.4842 65.2659 50.4842H23.1279C22.3114 50.4842 21.6484 49.8506 21.6484 49.0701V37.4082C21.6484 36.6277 22.3113 35.9941 23.1279 35.9941Z" fill="url(#paint2_radial_3944_24928)"/>
<path fill-rule="evenodd" clip-rule="evenodd" d="M66.7454 22.8589C66.7454 22.0784 66.0824 21.4448 65.2659 21.4448H23.1279C22.3114 21.4448 21.6484 22.0784 21.6484 22.8589V34.5208C21.6484 35.3013 22.3114 35.9348 23.1279 35.9348H65.2659C66.0824 35.9348 66.7454 35.3013 66.7454 34.5208V22.8589Z" fill="url(#paint3_linear_3944_24928)"/>
<path fill-rule="evenodd" clip-rule="evenodd" d="M64.1589 35.9348V24.0122H22.973C22.4016 24.0122 21.9375 23.5688 21.9375 23.0224V22.4346C21.9375 21.8883 22.4014 21.4448 22.973 21.4448H65.2637C66.0165 21.4448 66.6385 21.9833 66.7312 22.6788L66.7334 22.6965L66.7355 22.7144L66.7372 22.7322L66.7387 22.7502L66.7401 22.7681L66.7411 22.7862L66.7419 22.8042L66.7426 22.8224L66.743 22.8407L66.7431 22.8589V34.5208C66.7431 35.3013 66.0801 35.9348 65.2637 35.9348H64.1589Z" fill="url(#paint4_linear_3944_24928)"/>
<path d="M27.4982 30.4332C28.1876 30.4332 28.7464 29.899 28.7464 29.24C28.7464 28.5811 28.1876 28.0469 27.4982 28.0469C26.8088 28.0469 26.25 28.5811 26.25 29.24C26.25 29.899 26.8088 30.4332 27.4982 30.4332Z" fill="#333D5E"/>
<path fill-rule="evenodd" clip-rule="evenodd" d="M60.2161 28.9792C60.2161 28.667 59.951 28.4136 59.6243 28.4136H32.9823C32.6558 28.4136 32.3906 28.667 32.3906 28.9792V29.3151C32.3906 29.6272 32.6558 29.8807 32.9823 29.8807H59.6243C59.951 29.8807 60.2161 29.6272 60.2161 29.3151V28.9792Z" fill="white"/>
<path fill-rule="evenodd" clip-rule="evenodd" d="M23.1279 21.4448H24.3344V33.5485H65.5156C66.0872 33.5487 66.5512 33.9921 66.5512 34.5384V35.1306C66.5512 35.164 66.5494 35.197 66.546 35.2295C66.2898 35.6512 65.8124 35.9348 65.2659 35.9348H23.1279C22.3114 35.9348 21.6484 35.3013 21.6484 34.5208V22.8589C21.6484 22.0784 22.3113 21.4448 23.1279 21.4448Z" fill="url(#paint5_radial_3944_24928)"/>
<path fill-rule="evenodd" clip-rule="evenodd" d="M66.7454 8.46582C66.7454 7.68535 66.0824 7.05176 65.2659 7.05176H23.1279C22.3114 7.05176 21.6484 7.68535 21.6484 8.46582V20.1277C21.6484 20.9082 22.3114 21.5418 23.1279 21.5418H65.2659C66.0824 21.5418 66.7454 20.9082 66.7454 20.1277V8.46582Z" fill="url(#paint6_linear_3944_24928)"/>
<path fill-rule="evenodd" clip-rule="evenodd" d="M64.1589 21.5418V9.61929H22.973C22.4016 9.61929 21.9375 9.1757 21.9375 8.6293V8.04159C21.9375 7.49535 22.4014 7.05176 22.973 7.05176H65.2637C66.0165 7.05176 66.6385 7.59035 66.7312 8.28591L66.7334 8.30364L66.7355 8.32137L66.7372 8.33926L66.7387 8.35716L66.7401 8.37505L66.7411 8.39311L66.7419 8.41116L66.7426 8.42938L66.743 8.4476L66.7431 8.46582V20.1277C66.7431 20.9082 66.0801 21.5418 65.2637 21.5418H64.1589Z" fill="url(#paint7_linear_3944_24928)"/>
<path d="M27.4982 16.0401C28.1876 16.0401 28.7464 15.5059 28.7464 14.847C28.7464 14.188 28.1876 13.6538 27.4982 13.6538C26.8088 13.6538 26.25 14.188 26.25 14.847C26.25 15.5059 26.8088 16.0401 27.4982 16.0401Z" fill="#333D5E"/>
<path fill-rule="evenodd" clip-rule="evenodd" d="M60.2161 14.5863C60.2161 14.2739 59.951 14.0205 59.6243 14.0205H32.9823C32.6558 14.0205 32.3906 14.2739 32.3906 14.5863V14.922C32.3906 15.2342 32.6558 15.4876 32.9823 15.4876H59.6243C59.951 15.4876 60.2161 15.2342 60.2161 14.922V14.5863Z" fill="white"/>
<path fill-rule="evenodd" clip-rule="evenodd" d="M23.1279 7.05176H24.3344V19.1555H65.5156C66.0872 19.1556 66.5512 19.5991 66.5512 20.1454V20.7376C66.5512 20.7709 66.5494 20.8039 66.546 20.8366C66.2898 21.2581 65.8124 21.5418 65.2659 21.5418H23.1279C22.3114 21.5418 21.6484 20.9082 21.6484 20.1277V8.46582C21.6484 7.68551 22.3113 7.05176 23.1279 7.05176Z" fill="url(#paint8_radial_3944_24928)"/>
<path fill-rule="evenodd" clip-rule="evenodd" d="M21.5556 44.8249C21.5198 44.8646 21.4727 44.8907 21.4259 44.8973C21.3959 44.9013 21.3675 44.8973 21.3435 44.8859C21.3299 44.8794 21.3177 44.8706 21.3074 44.8595L17.5466 40.8309C17.5143 40.7964 17.508 40.7434 17.5291 40.6897C17.5502 40.6362 17.5965 40.5892 17.6518 40.5648L26.1126 36.8202L16.6759 39.7227C16.6167 39.741 16.5602 39.7301 16.5271 39.694L13.516 36.3631C13.4814 36.3249 13.4848 36.2642 13.5243 36.2092C13.5641 36.1546 13.6318 36.1167 13.6965 36.1128L29.9444 35.1961C29.9988 35.1924 30.0475 35.2199 30.0688 35.2656C30.0899 35.311 30.0797 35.3665 30.0424 35.4078L21.5556 44.8249ZM17.1134 41.5914L18.1246 42.697C18.1554 42.7307 18.1639 42.7811 18.1472 42.834C18.1312 42.8867 18.0917 42.9358 18.0408 42.9664L14.9103 44.8636C14.8498 44.9003 14.7851 44.907 14.7385 44.8842C14.7254 44.8779 14.714 44.8693 14.7044 44.859C14.6597 44.8089 14.6653 44.7239 14.7179 44.6497L16.8384 41.6551C16.8724 41.607 16.9247 41.571 16.9791 41.5584C17.0332 41.5455 17.0838 41.5575 17.1134 41.5914Z" fill="#144DA4"/>
<path d="M30.0422 33.2678C32.484 33.4137 32.4399 35.665 31.5828 36.6531L23.0699 46.099C22.4357 46.7742 22.1078 46.7854 21.5552 46.823C20.9703 46.8627 20.3708 46.6639 19.9404 46.2813C19.8743 46.2226 19.8683 46.2146 19.8128 46.1572L18.6317 44.892L15.9475 46.518C14.9937 47.0567 13.5901 46.837 12.9614 45.8379C12.5318 45.1553 12.5597 44.2791 13.0357 43.5817L14.941 40.8912L11.9696 37.6045C11.9696 37.6045 11.6037 37.1051 11.5183 36.7203C11.2635 35.571 12.2061 34.311 13.5003 34.1923C13.5197 34.1905 13.5391 34.1893 13.5583 34.1879L29.8324 33.2698C29.9818 33.2625 29.9925 33.2668 30.0422 33.2678ZM29.9483 35.1957C24.5271 35.4775 19.102 35.7108 13.6892 36.1132C13.5619 36.1269 13.4412 36.268 13.5115 36.3593C14.4866 37.4968 15.4933 38.61 16.5292 39.6972C16.5676 39.7341 16.6257 39.7371 16.6747 39.7226L26.1114 36.8201C23.2876 38.0697 20.4132 39.22 17.6404 40.5696C17.6181 40.5812 17.598 40.5953 17.5805 40.6122C17.5255 40.6656 17.4867 40.7601 17.5426 40.8274C18.7719 42.1951 20.0318 43.5378 21.3102 44.8635C21.375 44.9242 21.479 44.8995 21.5476 44.8321C24.4435 41.7406 27.385 38.6773 30.048 35.3999C30.1048 35.3249 30.0676 35.1938 29.9483 35.1957ZM17.0126 41.5534C16.9429 41.5572 16.8808 41.5975 16.8404 41.6505C16.1191 42.6449 15.4055 43.6445 14.7119 44.6566C14.6348 44.7768 14.7728 44.9398 14.9035 44.8669C15.9591 44.2421 17.0227 43.6281 18.0492 42.9605C18.0645 42.9499 18.0788 42.9382 18.0915 42.9249C18.1455 42.8686 18.1814 42.7733 18.129 42.7035C17.8106 42.3129 17.4633 41.944 17.1064 41.5851C17.081 41.5619 17.0477 41.5526 17.0126 41.5534Z" fill="white"/>
<path fill-rule="evenodd" clip-rule="evenodd" d="M75.2492 18.1904C75.2478 18.1716 73.2302 31.3474 59.4198 39.566C26.194 59.3388 6.88134 56.3494 2.53906 49.8101C3.44914 52.7191 7.37859 58.2595 23.8114 56.4529C38.6669 54.8197 57.516 44.8956 66.4708 36.5589C71.56 31.8209 75.5946 22.8357 75.2492 18.1904Z" fill="#144DA4"/>
<path fill-rule="evenodd" clip-rule="evenodd" d="M26.8939 51.2853C26.8939 51.2853 23.7251 52.1899 16.0476 52.0126C5.49388 51.7689 -0.938282 44.4229 0.793559 40.2568C-0.420108 42.065 -0.35306 44.6035 1.7763 47.6492C3.90822 50.6989 9.06528 53.4067 16.4281 53.467C19.531 53.4925 23.3876 53.1791 26.8939 51.2853Z" fill="#CCE6FF"/>
<path fill-rule="evenodd" clip-rule="evenodd" d="M35.8968 34.8374C36.0952 34.9036 36.1999 35.111 36.1306 35.3005C36.0612 35.4902 35.8442 35.5902 35.6458 35.524C35.4474 35.4578 35.3427 35.2504 35.412 35.0607C35.4813 34.8712 35.6984 34.7712 35.8968 34.8374ZM43.0699 32.0314C43.6155 32.2134 43.9034 32.7837 43.7128 33.3051C43.5222 33.8264 42.9254 34.1015 42.3797 33.9193C41.8341 33.7373 41.5462 33.167 41.7368 32.6456C41.9274 32.1243 42.5242 31.8492 43.0699 32.0314ZM46.2651 29.6311C46.9595 29.8629 47.3259 30.5887 47.0834 31.2522C46.8409 31.9157 46.0813 32.2658 45.3866 32.0342C44.6922 31.8024 44.3258 31.0765 44.5684 30.413C44.8109 29.7495 45.5706 29.3993 46.2651 29.6311ZM36.0551 30.2684C36.3032 30.3512 36.434 30.6103 36.3474 30.8474C36.2608 31.0844 35.9896 31.2094 35.7414 31.1266C35.4933 31.0439 35.3625 30.7847 35.4491 30.5477C35.5359 30.3107 35.8071 30.1856 36.0551 30.2684Z" fill="#144DA4"/>
<path fill-rule="evenodd" clip-rule="evenodd" d="M39.6629 34.173C38.987 34.4506 38.2037 34.1521 37.9132 33.5063C37.6229 32.8605 37.9353 32.1121 38.6112 31.8346C39.287 31.557 40.0704 31.8555 40.3608 32.5013C40.6512 33.1471 40.3388 33.8955 39.6629 34.173ZM40.3211 30.3409C39.7902 30.5589 39.1747 30.3244 38.9465 29.817C38.7183 29.3096 38.9638 28.7216 39.4947 28.5035C40.0259 28.2855 40.6414 28.5201 40.8696 29.0274C41.0978 29.5348 40.8522 30.123 40.3211 30.3409ZM46.7393 27.1123C46.4978 27.2114 46.2181 27.1049 46.1144 26.8742C46.0106 26.6435 46.1223 26.3763 46.3637 26.277C46.605 26.178 46.8848 26.2847 46.9886 26.5154C47.0922 26.7459 46.9806 27.0133 46.7393 27.1123ZM43.6252 23.6417C43.432 23.7209 43.2082 23.6357 43.1252 23.4512C43.0423 23.2666 43.1315 23.0528 43.3246 22.9734C43.5178 22.8942 43.7416 22.9795 43.8246 23.1641C43.9075 23.3486 43.8183 23.5625 43.6252 23.6417Z" fill="#005BBB"/>
<path d="M71.699 18.9297L74.383 16.3769C80.3681 10.6842 81.4274 4.81377 81.6083 2.60671C81.6284 2.36824 81.5365 2.13367 81.3594 1.96255C81.1814 1.79142 80.9346 1.70342 80.6829 1.71969C78.3485 1.87211 72.1229 2.83168 66.1312 8.5307L63.4479 11.0829L62.6136 10.9247C61.0049 10.6206 59.3486 11.0948 58.1955 12.1917L54.9932 15.2374C54.804 15.4174 54.7341 15.6854 54.8135 15.9304C54.893 16.1777 55.109 16.3629 55.3731 16.4145L58.0708 16.9399C58.8279 17.0879 59.5248 17.4439 60.073 17.9654L61.2682 19.1021L63.2668 21.0032L64.4613 22.1391C65.0096 22.6606 65.3851 23.3234 65.5402 24.0455L66.0922 26.6098C66.1467 26.8613 66.3413 27.0666 66.601 27.1419C66.8602 27.2167 67.1408 27.1513 67.33 26.9714L70.5323 23.9255C71.6847 22.8294 72.1832 21.2538 71.8644 19.7235L71.699 18.9297Z" fill="#144DA4"/>
<path d="M80.7836 0.000145399C82.2116 0.0294254 83.4873 1.2652 83.4087 2.67683C83.3059 4.52521 82.7966 6.38254 82.1144 8.15495C80.7443 11.7136 78.4423 14.9351 75.6559 17.5937L73.6533 19.4984C73.6701 19.5883 73.6699 19.5883 73.6853 19.6823C73.986 21.6361 73.3037 23.6834 71.8413 25.1077C70.7637 26.141 69.6777 27.1658 68.5959 28.1948C67.4097 29.3021 65.0715 28.9203 64.4442 27.3142C64.4042 27.2117 64.3726 27.1064 64.3462 26.9999C64.1488 26.1195 63.9783 25.234 63.7761 24.3548C63.5723 23.5073 62.7173 22.8994 62.0038 22.2207C60.9292 21.1987 59.8685 20.1637 58.7818 19.1567C58.4955 18.897 58.1382 18.7146 57.7536 18.6307C56.1351 18.2915 54.2999 18.2536 53.4605 17.1314C52.7835 16.2263 52.8678 14.8791 53.7003 14.0487C54.7795 13.0023 55.8756 11.9718 56.9693 10.9392C58.4955 9.52054 60.734 8.85881 62.8625 9.22058C65.5321 6.68152 68.2908 4.20833 71.5938 2.55206C74.3399 1.17509 77.3702 0.237964 80.4387 0.0146227C80.5493 0.00648936 80.5837 -0.00115593 80.7836 0.000145399ZM80.7345 1.71774C79.1194 1.74946 77.5196 2.15076 75.9649 2.63876C72.2584 3.80264 68.9077 5.90316 66.1356 8.53071L63.4523 11.083C61.6008 10.7316 59.6439 10.8499 58.227 12.166C57.1435 13.1887 56.0588 14.2104 54.9888 15.2459C54.6353 15.6004 54.8309 16.294 55.365 16.4121C57.0453 16.7548 58.8389 16.8189 60.0518 17.941C61.5394 19.3432 63.0192 20.7506 64.4912 22.1636C65.6254 23.2724 65.7357 25.017 66.0992 26.6217C66.2176 27.1045 66.9316 27.3351 67.3254 26.9797C68.4142 25.9622 69.4885 24.9304 70.5636 23.8998C71.6713 22.8211 72.1763 21.2309 71.8688 19.7235L71.7034 18.9297C73.671 17.0583 75.6992 15.248 77.3111 13.1155C79.6503 10.0206 81.2964 6.37017 81.6127 2.60672C81.6483 2.14621 81.2235 1.71449 80.7345 1.71774Z" fill="white"/>
<path fill-rule="evenodd" clip-rule="evenodd" d="M58.9688 15.9L63.3452 11.5366C63.3452 11.5366 65.2981 11.9841 66.9607 13.5366C68.6231 15.0891 71.0117 18.3891 71.1469 19.3544C71.2822 20.3198 67.2435 23.0824 66.58 23.1723" fill="url(#paint9_linear_3944_24928)"/>
<path fill-rule="evenodd" clip-rule="evenodd" d="M61.6333 18.4455C61.6333 18.4455 58.4584 16.2202 59.7304 15.7183C61.0025 15.2165 67.4702 20.6195 67.1516 21.8998C66.8329 23.18 63.9985 21.5173 61.6333 18.4455Z" fill="#333D5E"/>
<path fill-rule="evenodd" clip-rule="evenodd" d="M51.9667 23.5287C53.3323 23.5287 54.441 24.5875 54.441 25.8916C54.441 27.1957 53.3323 28.2545 51.9667 28.2545C50.6009 28.2545 49.4922 27.1957 49.4922 25.8916C49.4922 24.5875 50.6009 23.5287 51.9667 23.5287ZM56.6141 20.0899C56.4429 19.8187 56.3459 19.5019 56.3459 19.1635C56.3459 18.1605 57.1984 17.3462 58.2484 17.3462C58.8937 17.3462 59.4644 17.6538 59.807 18.1239C60.0102 18.0896 60.2202 18.0722 60.4344 18.0722C62.4824 18.0722 64.145 19.6604 64.145 21.6167C64.145 23.5729 62.4824 25.161 60.4344 25.161C59.7685 25.161 59.1433 24.993 58.603 24.6981C58.4752 25.3769 57.8534 25.8916 57.1069 25.8916C56.2669 25.8916 55.5849 25.2399 55.5849 24.4373C55.5849 24.31 55.602 24.1863 55.6362 24.0687C54.4484 24.0474 53.4909 23.1196 53.4909 21.9796C53.4909 20.8261 54.4716 19.8895 55.6795 19.8895C56.0139 19.8895 56.3307 19.9614 56.6141 20.0899Z" fill="#144DA4"/>
<path fill-rule="evenodd" clip-rule="evenodd" d="M65.8069 12.0792C65.8069 12.0792 69.6684 13.9761 70.9259 17.7874C79.1443 12.6333 80.556 4.84483 81.2399 3.24738" fill="url(#paint10_linear_3944_24928)"/>
<path fill-rule="evenodd" clip-rule="evenodd" d="M62.9701 11.7184L58.7839 16.0818C58.7839 16.0818 55.0797 16.2669 55.5489 15.7182C58.4345 12.3443 59.865 10.5461 62.9701 11.7184Z" fill="url(#paint11_linear_3944_24928)"/>
<path fill-rule="evenodd" clip-rule="evenodd" d="M70.3883 16.9909C70.3883 16.9909 68.6246 13.0184 64.6797 11.5365C70.6277 3.62411 78.9352 2.67202 80.6636 2.08252" fill="url(#paint12_linear_3944_24928)"/>
<path fill-rule="evenodd" clip-rule="evenodd" d="M67.5374 13.9001C67.5374 13.9001 71.5645 12.8845 71.3431 14.809C71.0715 17.1706 63.1847 22.794 62.9706 22.6268C62.0993 21.947 61.2783 21.6658 61.258 21.1724C61.2378 20.679 62.8358 19.3548 64.3026 17.718C64.8328 17.1264 67.5374 13.9001 67.5374 13.9001Z" fill="#144DA4"/>
<path fill-rule="evenodd" clip-rule="evenodd" d="M69.8189 14.2635C69.8189 14.2635 62.6615 21.1846 62.0174 21.3541C61.3731 21.5236 67.3453 14.6272 67.3453 14.6272C67.3453 14.6272 69.2888 13.7797 69.8189 14.2635Z" fill="#CCE6FF" fill-opacity="0.529"/>
<path fill-rule="evenodd" clip-rule="evenodd" d="M70.7722 19.354L66.5859 23.5357L66.7762 26.4446C66.7762 26.4446 70.8802 23.4599 71.3431 21.7176C71.806 19.9752 70.7722 19.354 70.7722 19.354Z" fill="url(#paint13_linear_3944_24928)"/>
<defs>
<linearGradient id="paint0_linear_3944_24928" x1="49.8963" y1="44.0163" x2="47.8759" y2="61.0553" gradientUnits="userSpaceOnUse">
<stop stop-color="#CCE6FF"/>
<stop offset="0.47" stop-color="#9CD1FF"/>
<stop offset="1" stop-color="#4AA7F0"/>
</linearGradient>
<linearGradient id="paint1_linear_3944_24928" x1="44.7953" y1="44.3398" x2="50.9205" y2="23.0707" gradientUnits="userSpaceOnUse">
<stop stop-color="#CCE6FF" stop-opacity="0.62"/>
<stop offset="0.18" stop-color="#E2F1FF" stop-opacity="0.62"/>
<stop offset="0.39" stop-color="#F6FBFF" stop-opacity="0.62"/>
<stop offset="1" stop-color="white" stop-opacity="0.62"/>
</linearGradient>
<radialGradient id="paint2_radial_3944_24928" cx="0" cy="0" r="1" gradientUnits="userSpaceOnUse" gradientTransform="translate(35.7346 66.431) scale(39.086 37.3621)">
<stop stop-color="#4AA7F0" stop-opacity="0.639"/>
<stop offset="0.52" stop-color="#8EBFE6" stop-opacity="0.489"/>
<stop offset="1" stop-color="#D0E4FC" stop-opacity="0"/>
</radialGradient>
<linearGradient id="paint3_linear_3944_24928" x1="49.8938" y1="29.4728" x2="47.8735" y2="46.5118" gradientUnits="userSpaceOnUse">
<stop stop-color="#CCE6FF"/>
<stop offset="0.47" stop-color="#98CCF4"/>
<stop offset="1" stop-color="#4AA7F0"/>
</linearGradient>
<linearGradient id="paint4_linear_3944_24928" x1="44.7744" y1="29.8013" x2="50.8995" y2="8.53226" gradientUnits="userSpaceOnUse">
<stop stop-color="#CCE6FF" stop-opacity="0.62"/>
<stop offset="0.18" stop-color="#E2F1FF" stop-opacity="0.62"/>
<stop offset="0.39" stop-color="#F6FBFF" stop-opacity="0.62"/>
<stop offset="1" stop-color="white" stop-opacity="0.62"/>
</linearGradient>
<radialGradient id="paint5_radial_3944_24928" cx="0" cy="0" r="1" gradientUnits="userSpaceOnUse" gradientTransform="translate(35.7346 51.8817) scale(39.086 37.3621)">
<stop stop-color="#4AA7F0" stop-opacity="0.639"/>
<stop offset="0.52" stop-color="#8EBFE6" stop-opacity="0.489"/>
<stop offset="1" stop-color="#D0E4FC" stop-opacity="0"/>
</radialGradient>
<linearGradient id="paint6_linear_3944_24928" x1="49.8988" y1="15.0748" x2="47.8784" y2="32.1138" gradientUnits="userSpaceOnUse">
<stop stop-color="#CCE6FF"/>
<stop offset="0.47" stop-color="#9CD1FF"/>
<stop offset="1" stop-color="#4AA7F0"/>
</linearGradient>
<linearGradient id="paint7_linear_3944_24928" x1="44.7914" y1="15.4001" x2="50.9165" y2="-5.86899" gradientUnits="userSpaceOnUse">
<stop stop-color="#CCE6FF" stop-opacity="0.62"/>
<stop offset="0.18" stop-color="#E2F1FF" stop-opacity="0.62"/>
<stop offset="0.39" stop-color="#F6FBFF" stop-opacity="0.62"/>
<stop offset="1" stop-color="white" stop-opacity="0.62"/>
</linearGradient>
<radialGradient id="paint8_radial_3944_24928" cx="0" cy="0" r="1" gradientUnits="userSpaceOnUse" gradientTransform="translate(35.7346 37.4886) scale(39.086 37.3621)">
<stop stop-color="#4AA7F0" stop-opacity="0.639"/>
<stop offset="0.52" stop-color="#8EBFE6" stop-opacity="0.489"/>
<stop offset="1" stop-color="#D0E4FC" stop-opacity="0"/>
</radialGradient>
<linearGradient id="paint9_linear_3944_24928" x1="58.5784" y1="10.9266" x2="64.169" y2="18.1217" gradientUnits="userSpaceOnUse">
<stop stop-color="white"/>
<stop offset="1" stop-color="white" stop-opacity="0"/>
</linearGradient>
<linearGradient id="paint10_linear_3944_24928" x1="76.0803" y1="15.6189" x2="71.7625" y2="8.67277" gradientUnits="userSpaceOnUse">
<stop stop-color="white" stop-opacity="0.3"/>
<stop offset="1" stop-color="white"/>
</linearGradient>
<linearGradient id="paint11_linear_3944_24928" x1="56.6272" y1="11.2234" x2="59.9536" y2="15.3797" gradientUnits="userSpaceOnUse">
<stop stop-color="white"/>
<stop offset="1" stop-color="white" stop-opacity="0"/>
</linearGradient>
<linearGradient id="paint12_linear_3944_24928" x1="65.987" y1="3.90262" x2="72.5598" y2="10.2664" gradientUnits="userSpaceOnUse">
<stop stop-color="white"/>
<stop offset="1" stop-color="white" stop-opacity="0"/>
</linearGradient>
<linearGradient id="paint13_linear_3944_24928" x1="71.6505" y1="24.5726" x2="68.1727" y2="18.995" gradientUnits="userSpaceOnUse">
<stop stop-color="#144DA4" stop-opacity="0.329"/>
<stop offset="1" stop-color="#144DA4" stop-opacity="0"/>
</linearGradient>
</defs>
</svg>
