<svg width="199" height="162" viewBox="0 0 199 162" fill="none" xmlns="http://www.w3.org/2000/svg">
<path fill-rule="evenodd" clip-rule="evenodd" d="M191.343 58.7854C191.343 54.9207 187.973 51.7825 183.824 51.7825H58.0501C53.9002 51.7825 50.5312 54.9207 50.5312 58.7854V149.194C50.5312 153.058 53.9002 156.196 58.0501 156.196H183.824C187.973 156.196 191.343 153.058 191.343 149.194V58.7854Z" fill="#CCE6FF" fill-opacity="0.161"/>
<path fill-rule="evenodd" clip-rule="evenodd" d="M180.525 46.4907C180.525 42.6256 177.156 39.4878 173.006 39.4878H48.722C44.5721 39.4878 41.2031 42.6256 41.2031 46.4907V135.763C41.2031 139.629 44.5721 142.766 48.722 142.766H173.006C177.156 142.766 180.525 139.629 180.525 135.763V46.4907Z" fill="url(#paint0_linear_3918_24499)"/>
<path fill-rule="evenodd" clip-rule="evenodd" d="M47.8047 59.3093H172.395V132.305C172.395 134.534 170.455 136.341 168.062 136.341H53.7622C50.4719 136.341 47.8047 133.856 47.8047 130.792V59.3093Z" fill="white"/>
<mask id="mask0_3918_24499" style="mask-type:luminance" maskUnits="userSpaceOnUse" x="47" y="59" width="126" height="78">
<path d="M47.8047 59.3093H172.395V132.305C172.395 134.534 170.455 136.341 168.062 136.341H53.7622C50.4719 136.341 47.8047 133.856 47.8047 130.792V59.3093Z" fill="white"/>
</mask>
<g mask="url(#mask0_3918_24499)">
<path d="M158.234 64.8977H58.1094V84.2387H158.234V64.8977Z" fill="#E5F1FF"/>
<path d="M90.9102 88.2424H58.9062V104.336H90.9102V88.2424Z" fill="#E5F1FF"/>
<path d="M126.418 110.862H58.9062V130.471H126.418V110.862Z" fill="#E5F1FF"/>
<path d="M157.979 110.862H130.477V130.471H157.979V110.862Z" fill="#E5F1FF"/>
<path d="M123.287 88.3528H95.5312V94.1222H123.287V88.3528Z" fill="#E5F1FF"/>
<path d="M158.299 98.2361H95.2891V104.415H158.299V98.2361Z" fill="#E5F1FF"/>
</g>
<path d="M64.2647 52.2872C66.223 52.2872 67.8106 50.8086 67.8106 48.9847C67.8106 47.1607 66.223 45.6821 64.2647 45.6821C62.3063 45.6821 60.7188 47.1607 60.7188 48.9847C60.7188 50.8086 62.3063 52.2872 64.2647 52.2872Z" fill="#0084FF"/>
<path d="M54.0537 52.2872C56.0121 52.2872 57.5996 50.8086 57.5996 48.9847C57.5996 47.1607 56.0121 45.6821 54.0537 45.6821C52.0954 45.6821 50.5078 47.1607 50.5078 48.9847C50.5078 50.8086 52.0954 52.2872 54.0537 52.2872Z" fill="#55D7FF"/>
<path d="M74.4522 52.2872C76.4105 52.2872 77.9981 50.8086 77.9981 48.9847C77.9981 47.1607 76.4105 45.6821 74.4522 45.6821C72.4938 45.6821 70.9062 47.1607 70.9062 48.9847C70.9062 50.8086 72.4938 52.2872 74.4522 52.2872Z" fill="#0BBC00"/>
<path fill-rule="evenodd" clip-rule="evenodd" d="M150.72 48.7643C150.72 47.0897 149.26 45.7297 147.462 45.7297H113.36C111.561 45.7297 110.102 47.0897 110.102 48.7643V49.2527C110.102 50.9273 111.561 52.2872 113.36 52.2872H147.462C149.26 52.2872 150.72 50.9273 150.72 49.2527V48.7643Z" fill="#E5F1FF"/>
<path fill-rule="evenodd" clip-rule="evenodd" d="M173.281 48.7391C173.281 47.0519 171.81 45.6826 169.999 45.6826H165.477C163.666 45.6826 162.195 47.0519 162.195 48.7391V49.2307C162.195 50.9175 163.666 52.2873 165.477 52.2873H169.999C171.81 52.2873 173.281 50.9175 173.281 49.2307V48.7391Z" fill="#E5F1FF"/>
<path fill-rule="evenodd" clip-rule="evenodd" d="M172.928 36.0869C172.928 32.2222 169.559 29.084 165.41 29.084H39.6361C35.4862 29.084 32.1172 32.2222 32.1172 36.0869V126.495C32.1172 130.36 35.4862 133.498 39.6361 133.498H165.41C169.559 133.498 172.928 130.36 172.928 126.495V36.0869Z" fill="#CCE6FF" fill-opacity="0.161"/>
<path fill-rule="evenodd" clip-rule="evenodd" d="M165.908 29.8449C165.908 25.9798 162.539 22.842 158.389 22.842H34.1048C29.9549 22.842 26.5859 25.9798 26.5859 29.8449V119.118C26.5859 122.983 29.9549 126.121 34.1048 126.121H158.389C162.539 126.121 165.908 122.983 165.908 119.118V29.8449Z" fill="url(#paint1_linear_3918_24499)"/>
<path fill-rule="evenodd" clip-rule="evenodd" d="M33.1875 42.6636H157.778V115.66C157.778 117.888 155.838 119.695 153.445 119.695H39.1445C35.8547 119.695 33.1875 117.211 33.1875 114.146V42.6636Z" fill="white"/>
<mask id="mask1_3918_24499" style="mask-type:luminance" maskUnits="userSpaceOnUse" x="33" y="42" width="125" height="78">
<path d="M33.1875 42.6636H157.778V115.66C157.778 117.888 155.838 119.695 153.445 119.695H39.1445C35.8547 119.695 33.1875 117.211 33.1875 114.146V42.6636Z" fill="white"/>
</mask>
<g mask="url(#mask1_3918_24499)">
<path d="M143.617 48.252H43.4922V67.593H143.617V48.252Z" fill="#E5F1FF"/>
<path d="M76.293 71.5967H44.2891V87.6907H76.293V71.5967Z" fill="#E5F1FF"/>
<path d="M111.801 94.2166H44.2891V113.826H111.801V94.2166Z" fill="#E5F1FF"/>
<path d="M143.361 94.2166H115.859V113.826H143.361V94.2166Z" fill="#E5F1FF"/>
<path d="M108.67 71.7075H80.9141V77.477H108.67V71.7075Z" fill="#E5F1FF"/>
<path d="M143.682 81.5908H80.6719V87.7697H143.682V81.5908Z" fill="#E5F1FF"/>
</g>
<path d="M49.6475 35.642C51.6058 35.642 53.1934 34.1634 53.1934 32.3394C53.1934 30.5155 51.6058 29.0369 49.6475 29.0369C47.6891 29.0369 46.1016 30.5155 46.1016 32.3394C46.1016 34.1634 47.6891 35.642 49.6475 35.642Z" fill="#0084FF"/>
<path d="M39.4365 35.642C41.3949 35.642 42.9824 34.1634 42.9824 32.3394C42.9824 30.5155 41.3949 29.0369 39.4365 29.0369C37.4782 29.0369 35.8906 30.5155 35.8906 32.3394C35.8906 34.1634 37.4782 35.642 39.4365 35.642Z" fill="#55D7FF"/>
<path d="M59.835 35.642C61.7933 35.642 63.3809 34.1634 63.3809 32.3394C63.3809 30.5155 61.7933 29.0369 59.835 29.0369C57.8766 29.0369 56.2891 30.5155 56.2891 32.3394C56.2891 34.1634 57.8766 35.642 59.835 35.642Z" fill="#0BBC00"/>
<path fill-rule="evenodd" clip-rule="evenodd" d="M136.103 32.1186C136.103 30.4439 134.643 29.084 132.845 29.084H98.7426C96.944 29.084 95.4844 30.4439 95.4844 32.1186V32.6069C95.4844 34.282 96.944 35.6415 98.7426 35.6415H132.845C134.643 35.6415 136.103 34.282 136.103 32.6069V32.1186Z" fill="#E5F1FF"/>
<path fill-rule="evenodd" clip-rule="evenodd" d="M158.663 32.0934C158.663 30.4066 157.193 29.0369 155.382 29.0369H150.859C149.048 29.0369 147.578 30.4066 147.578 32.0934V32.585C147.578 34.2722 149.048 35.6415 150.859 35.6415H155.382C157.193 35.6415 158.663 34.2722 158.663 32.585V32.0934Z" fill="#E5F1FF"/>
<path fill-rule="evenodd" clip-rule="evenodd" d="M154.514 21.9633C154.514 18.0982 151.145 14.9604 146.996 14.9604H21.222C17.0721 14.9604 13.7031 18.0982 13.7031 21.9633V112.371C13.7031 116.236 17.0721 119.374 21.222 119.374H146.996C151.145 119.374 154.514 116.236 154.514 112.371V21.9633Z" fill="#CCE6FF" fill-opacity="0.161"/>
<path fill-rule="evenodd" clip-rule="evenodd" d="M147.494 15.7214C147.494 11.8563 144.124 8.71851 139.975 8.71851H15.6908C11.5408 8.71851 8.17188 11.8563 8.17188 15.7214V104.994C8.17188 108.859 11.5408 111.997 15.6908 111.997H139.975C144.124 111.997 147.494 108.859 147.494 104.994V15.7214Z" fill="url(#paint2_linear_3918_24499)"/>
<path fill-rule="evenodd" clip-rule="evenodd" d="M14.7734 28.54H139.363V101.536C139.363 103.765 137.424 105.571 135.031 105.571H20.7304C17.4406 105.571 14.7734 103.087 14.7734 100.023V28.54Z" fill="white"/>
<mask id="mask2_3918_24499" style="mask-type:luminance" maskUnits="userSpaceOnUse" x="14" y="28" width="126" height="78">
<path d="M14.7734 28.54H139.363V101.536C139.363 103.765 137.424 105.571 135.031 105.571H20.7304C17.4406 105.571 14.7734 103.087 14.7734 100.023V28.54Z" fill="white"/>
</mask>
<g mask="url(#mask2_3918_24499)">
<path d="M135.774 34.1284H20.3828V53.4694H135.774V34.1284Z" fill="#E5F1FF"/>
<path d="M58.181 57.4731H21.2969V73.5672H58.181V57.4731Z" fill="#E5F1FF"/>
<path d="M99.1024 80.093H21.2969V99.702H99.1024V80.093Z" fill="#E5F1FF"/>
<path d="M135.485 80.093H103.789V99.702H135.485V80.093Z" fill="#E5F1FF"/>
<path d="M95.4962 57.5835H63.5078V63.3529H95.4962V57.5835Z" fill="#E5F1FF"/>
<path d="M135.851 67.4668H63.2344V73.6457H135.851V67.4668Z" fill="#E5F1FF"/>
</g>
<path d="M31.2256 21.518C33.1839 21.518 34.7715 20.0394 34.7715 18.2154C34.7715 16.3914 33.1839 14.9128 31.2256 14.9128C29.2672 14.9128 27.6797 16.3914 27.6797 18.2154C27.6797 20.0394 29.2672 21.518 31.2256 21.518Z" fill="#4AA7F0"/>
<path d="M21.0225 21.518C22.9808 21.518 24.5684 20.0394 24.5684 18.2154C24.5684 16.3914 22.9808 14.9128 21.0225 14.9128C19.0641 14.9128 17.4766 16.3914 17.4766 18.2154C17.4766 20.0394 19.0641 21.518 21.0225 21.518Z" fill="#55D7FF"/>
<path d="M41.4209 21.518C43.3793 21.518 44.9668 20.0394 44.9668 18.2154C44.9668 16.3914 43.3793 14.9128 41.4209 14.9128C39.4626 14.9128 37.875 16.3914 37.875 18.2154C37.875 20.0394 39.4626 21.518 41.4209 21.518Z" fill="#0084FF"/>
<path fill-rule="evenodd" clip-rule="evenodd" d="M117.689 17.995C117.689 16.3204 116.229 14.9604 114.431 14.9604H80.3285C78.53 14.9604 77.0703 16.3204 77.0703 17.995V18.4834C77.0703 20.158 78.53 21.5179 80.3285 21.5179H114.431C116.229 21.5179 117.689 20.158 117.689 18.4834V17.995Z" fill="#E5F1FF"/>
<path fill-rule="evenodd" clip-rule="evenodd" d="M140.249 17.9703C140.249 16.2831 138.779 14.9133 136.967 14.9133H132.446C130.635 14.9133 129.164 16.2831 129.164 17.9703V18.4605C129.164 20.1478 130.635 21.518 132.446 21.518H136.967C138.779 21.518 140.249 20.1478 140.249 18.4605V17.9703Z" fill="#E5F1FF"/>
<path fill-rule="evenodd" clip-rule="evenodd" d="M91.842 102.772C90.5287 102.772 89.265 103.346 88.7692 104.165C88.4359 104.717 88.4905 105.338 88.9362 106.061C90.5993 108.754 91.9477 111.759 93.3763 114.94C94.9834 118.519 96.644 122.221 98.9664 126.012C101.893 130.793 103.366 133.461 104.065 134.804L125.269 134.8C125.911 133.707 127.124 131.723 129.455 127.959C134.166 120.352 133.973 112.583 133.971 112.506L133.952 105.043C133.952 104.986 133.955 104.933 133.96 104.878C133.972 104.73 134.238 101.081 131.49 100.5C131.265 100.453 131.053 100.429 130.865 100.429C130.549 100.429 129.598 100.429 129.088 102.311C128.995 102.927 128.896 103.314 128.896 103.314C128.653 104.246 127.692 104.844 126.699 104.696C125.698 104.542 124.99 103.693 125.069 102.738C125.075 102.653 125.117 102.222 125.262 101.629C125.498 99.8457 125.246 98.3266 124.583 97.5567C124.324 97.2532 123.843 96.8457 122.675 96.7672C121.114 96.6669 120.047 96.925 119.836 98.8027L119.912 100.582C119.954 101.543 119.208 102.374 118.197 102.484C117.191 102.616 116.259 101.957 116.064 101.011C116.04 100.901 115.849 99.9302 115.941 98.7159L115.892 97.5642C115.884 97.3863 115.905 97.2089 115.95 97.0376C115.95 97.0376 116.27 95.6323 115.585 94.8013C115.01 94.1085 113.774 93.9521 112.837 93.9423H112.836C111.596 93.9423 110.453 94.2313 110.071 96.2789L110.178 99.9325C110.206 100.886 109.464 101.701 108.465 101.814C107.462 101.942 106.542 101.299 106.333 100.366C106.314 100.277 105.865 98.2252 106.175 96.0487L105.796 83.0547C105.793 82.9958 105.794 82.938 105.798 82.8805C105.824 82.4263 105.732 81.0546 105 80.31C104.62 79.9258 104.065 79.7325 103.3 79.7236C100.535 79.7236 100.374 82.7106 100.364 83.0519L100.083 105.462C100.071 106.345 99.4005 107.096 98.4837 107.255C97.5719 107.405 96.6611 106.93 96.3252 106.107C95.0981 103.098 92.7813 102.772 91.842 102.772Z" fill="#70D1FF" fill-opacity="0.529"/>
<path fill-rule="evenodd" clip-rule="evenodd" d="M91.1009 99.0343C89.9866 99.0343 88.9154 99.5193 88.4943 100.211C88.2121 100.678 88.2578 101.202 88.6357 101.813C90.0467 104.088 91.1906 106.626 92.4022 109.314C93.7651 112.338 95.1741 115.465 97.1441 118.667C99.6268 122.706 100.875 124.961 101.468 126.095L119.454 126.092C119.999 125.169 121.027 123.492 123.005 120.312C127 113.886 126.837 107.322 126.835 107.257L126.82 100.953C126.82 100.905 126.822 100.86 126.826 100.813C126.836 100.689 127.062 97.6052 124.73 97.115C124.54 97.0749 124.36 97.0553 124.2 97.0553C123.933 97.0553 123.126 97.0553 122.694 98.6444C122.615 99.1659 122.53 99.4913 122.53 99.4913C122.324 100.279 121.509 100.785 120.667 100.66C119.818 100.53 119.218 99.8121 119.284 99.0053C119.29 98.9344 119.325 98.5702 119.449 98.0688C119.648 96.5618 119.435 95.2784 118.872 94.6285C118.652 94.3718 118.245 94.0272 117.254 93.9614C115.93 93.8764 115.025 94.0949 114.846 95.6808L114.911 97.1846C114.946 97.9964 114.313 98.6981 113.456 98.7915C112.602 98.9021 111.811 98.3457 111.646 97.5464C111.626 97.4535 111.464 96.6332 111.542 95.6075L111.5 94.6346C111.494 94.4847 111.511 94.3344 111.55 94.1897C111.55 94.1897 111.821 93.0029 111.24 92.3008C110.752 91.7153 109.704 91.5832 108.909 91.5748H108.908C107.856 91.5748 106.887 91.819 106.563 93.5487L106.653 96.6355C106.678 97.4409 106.048 98.1295 105.201 98.2247C104.35 98.3335 103.569 97.7896 103.392 97.0016C103.377 96.9259 102.995 95.193 103.258 93.3545L102.936 82.3767C102.934 82.3268 102.935 82.2782 102.939 82.2297C102.96 81.8459 102.883 80.6872 102.261 80.0583C101.939 79.7334 101.468 79.57 100.82 79.563C98.4739 79.563 98.3381 82.0864 98.3296 82.3744L98.0905 101.307C98.0809 102.053 97.512 102.688 96.7341 102.821C95.9606 102.948 95.1882 102.547 94.9035 101.851C93.8628 99.3097 91.8974 99.0343 91.1009 99.0343Z" fill="white"/>
<path fill-rule="evenodd" clip-rule="evenodd" d="M100.426 129.206C99.7573 129.206 99.1548 128.825 98.9016 128.241C98.8831 128.2 98.0304 126.305 94.2971 120.23C92.2254 116.861 90.709 113.498 89.3722 110.532C88.2032 107.938 87.1 105.488 85.7942 103.385C84.8233 101.819 84.7676 100.099 85.6388 98.6631C86.6498 96.9982 88.7947 95.9226 91.1055 95.9226C92.4805 95.9226 93.7547 96.2826 94.8525 96.9478L95.0384 82.3155C95.0956 80.2721 96.3663 76.4495 100.772 76.4495C102.433 76.4719 103.755 76.9933 104.696 77.9569C106.263 79.5606 106.262 81.8263 106.239 82.3515L106.431 88.9057C107.143 88.613 107.958 88.4622 108.864 88.4622C111.174 88.486 112.828 89.1405 113.864 90.4123C114.098 90.6989 114.283 90.9968 114.428 91.2965C115.286 90.9323 116.276 90.7732 117.489 90.8572C119.143 90.9664 120.506 91.5902 121.432 92.6602C121.861 93.1597 122.168 93.7181 122.382 94.2965C123.275 93.9221 124.326 93.8404 125.451 94.0771C129.525 94.9333 130.286 98.9413 130.121 101.009L130.135 107.207C130.144 107.466 130.325 114.695 125.853 121.886C122.804 126.793 122.133 127.947 121.987 128.21C121.925 128.364 121.834 128.51 121.718 128.643C121.385 129.02 120.865 129.239 120.35 129.204L100.426 129.206ZM91.1055 99.0342C89.9912 99.0342 88.92 99.5193 88.499 100.211C88.2168 100.678 88.2624 101.202 88.6403 101.813C90.0514 104.088 91.1953 106.626 92.4068 109.314C93.7697 112.338 95.1788 115.465 97.1487 118.667C99.6315 122.706 100.88 124.961 101.473 126.095L119.459 126.092C120.003 125.169 121.032 123.492 123.01 120.312C127.005 113.885 126.842 107.322 126.839 107.257L126.824 100.953C126.824 100.905 126.826 100.86 126.831 100.813C126.841 100.689 127.066 97.6052 124.735 97.115C124.545 97.0748 124.365 97.0552 124.205 97.0552C123.938 97.0552 123.131 97.0552 122.698 98.6444C122.62 99.1659 122.535 99.4913 122.535 99.4913C122.329 100.279 121.514 100.785 120.671 100.66C119.822 100.53 119.222 99.812 119.289 99.0053C119.294 98.9343 119.329 98.5702 119.453 98.0688C119.653 96.5617 119.439 95.2783 118.877 94.6285C118.657 94.3717 118.249 94.0272 117.259 93.9613C115.934 93.8764 115.029 94.0949 114.851 95.6808L114.915 97.1845C114.95 97.9964 114.317 98.6981 113.461 98.7914C112.607 98.9021 111.816 98.3456 111.651 97.5463C111.631 97.4534 111.469 96.6332 111.546 95.6075L111.505 94.6345C111.498 94.4847 111.516 94.3344 111.554 94.1896C111.554 94.1896 111.826 93.0029 111.244 92.3007C110.757 91.7153 109.708 91.5832 108.914 91.5747H108.913C107.861 91.5747 106.892 91.8189 106.567 93.5486L106.658 96.6355C106.682 97.4408 106.053 98.1294 105.205 98.2247C104.354 98.3335 103.574 97.7896 103.397 97.0015C103.381 96.9259 103 95.1929 103.263 93.3544L102.941 82.3767C102.939 82.3267 102.94 82.2782 102.943 82.2296C102.965 81.8459 102.887 80.6871 102.266 80.0583C101.944 79.7333 101.473 79.5699 100.824 79.5629C98.4786 79.5629 98.3427 82.0863 98.3342 82.3744L98.0951 101.307C98.0856 102.053 97.5167 102.688 96.7387 102.821C95.9653 102.948 95.1928 102.547 94.9081 101.851C93.8675 99.3097 91.902 99.0342 91.1055 99.0342Z" fill="#4AA7F0"/>
<defs>
<linearGradient id="paint0_linear_3918_24499" x1="177.462" y1="79.9981" x2="177.462" y2="193.585" gradientUnits="userSpaceOnUse">
<stop stop-color="#EFF6FF"/>
<stop offset="1" stop-color="#C3DAF6"/>
</linearGradient>
<linearGradient id="paint1_linear_3918_24499" x1="162.923" y1="47.5384" x2="162.923" y2="168.366" gradientUnits="userSpaceOnUse">
<stop stop-color="#DFEFFF"/>
<stop offset="1" stop-color="#8CC3FC"/>
</linearGradient>
<linearGradient id="paint2_linear_3918_24499" x1="125.898" y1="66.9405" x2="125.898" y2="157.43" gradientUnits="userSpaceOnUse">
<stop stop-color="#CCE6FF"/>
<stop offset="1" stop-color="#1D98FF"/>
</linearGradient>
</defs>
</svg>
