<svg width="100" height="74" viewBox="0 0 100 74" fill="none" xmlns="http://www.w3.org/2000/svg">
<path d="M61.9103 40.5334C61.9103 41.5567 63.217 41.8567 64.0203 41.8567C65.027 41.8567 66.5936 41.3367 66.5936 39.89V38.1767C65.8936 38.6434 64.787 38.62 63.7803 38.8C62.797 38.9634 61.9136 39.3234 61.9136 40.5334H61.9103ZM43.5536 34.52C41.967 34.52 40.8803 35.7267 40.8203 37.2734H46.167C46.087 35.8267 45.1003 34.52 43.5536 34.52Z" fill="#F0F2FA"/>
<path d="M93.3333 0.333496H6.66667C2.99 0.333496 0 3.3235 0 7.00016V67.0002C0 70.6768 2.99 73.6668 6.66667 73.6668H93.3333C97.01 73.6668 100 70.6768 100 67.0002V7.00016C100 3.3235 97.01 0.333496 93.3333 0.333496ZM25.1967 43.3835H22.8433L20.91 35.6635H20.8733L18.9633 43.3835H16.55L13.3333 32.9902H15.7667L17.8 40.7502H17.8367L19.7867 32.9902H22.1L23.9667 40.7502H24.01L26.12 32.9902H28.4533L25.1967 43.3835ZM31.6567 43.3835H29.3667V33.0468H31.6533V43.3835H31.6567ZM31.6567 31.3035H29.3667V29.0168H31.6533V31.3035H31.6567ZM35.21 38.4368V43.3835H32.92V32.9902H35.07V35.0035H35.11C35.37 33.8968 36.7367 32.7102 38.1433 32.7102C38.6667 32.7102 38.81 32.7502 39.01 32.7702V34.9802C38.69 34.9402 38.3467 34.8802 38.0267 34.8802C36.4567 34.8802 35.21 36.1468 35.21 38.4402V38.4368ZM48.4633 38.7802H40.8233C40.8233 40.4102 41.7067 41.8568 43.6167 41.8568C44.9433 41.8568 45.75 41.2735 46.15 40.1268H48.3233C47.82 42.4002 45.89 43.6668 43.6167 43.6668C40.36 43.6668 38.53 41.3935 38.53 38.2002C38.53 35.2435 40.4633 32.7102 43.5567 32.7102C46.8333 32.7102 48.8433 35.6635 48.4633 38.7802ZM54.1533 41.8568C55.48 41.8568 56.4033 40.9735 56.6267 39.4835H58.9167C58.4967 42.1802 56.8267 43.6668 54.15 43.6668C50.8967 43.6668 49.1067 41.3535 49.1067 38.3002C49.1067 35.1635 50.8167 32.7102 54.2333 32.7102C56.6467 32.7102 58.6967 33.9168 58.9167 36.4702H56.6267C56.4467 35.2035 55.52 34.5202 54.2533 34.5202C53.0667 34.5202 51.3967 35.1435 51.3967 38.3002C51.3967 40.0268 52.1633 41.8568 54.1533 41.8568ZM69.9967 43.4068C69.5264 43.5548 69.0391 43.6421 68.5467 43.6668C67.6233 43.6668 66.96 43.3468 66.78 42.4002C65.8733 43.2835 64.4067 43.6668 63.18 43.6668C61.3133 43.6668 59.6233 42.6602 59.6233 40.6335C59.6233 38.0368 61.69 37.6168 63.6233 37.3935C65.27 37.0935 66.74 37.2735 66.74 35.9268C66.74 34.7402 65.5133 34.5202 64.5867 34.5202C63.3 34.5202 62.3967 35.0435 62.2967 36.1668H60C60.16 33.4935 62.4333 32.7102 64.7267 32.7102C66.7567 32.7102 68.8867 33.5335 68.8867 35.7268V41.0735C68.8867 41.6368 69.0067 41.8568 69.43 41.8568C69.57 41.8568 69.75 41.8568 69.9933 41.8168V43.4068H69.9967ZM73.0533 38.4402V43.3835H70.76V32.9902H72.91V35.0035H72.95C73.2133 33.8968 74.58 32.7102 75.9867 32.7102C76.51 32.7102 76.6533 32.7502 76.8533 32.7702V34.9802C76.53 34.9402 76.1867 34.8802 75.8667 34.8802C74.3 34.8802 73.0533 36.1468 73.0533 38.4402ZM86.6667 43.3835H84.4967V41.9768H84.4533C83.8533 43.1635 82.5433 43.6668 81.2367 43.6668C77.96 43.6668 76.37 41.2335 76.37 38.1168C76.37 34.3602 78.6033 32.7102 80.8767 32.7102C82.1833 32.7102 83.63 33.1935 84.3333 34.3368H84.3733V29.0335H86.6667V43.3868V43.3835Z" fill="#F0F2FA"/>
<path d="M81.5807 34.52C79.4307 34.52 78.6641 36.43 78.6641 38.3C78.6641 40.0867 79.5507 41.8567 81.5407 41.8567C83.5907 41.8567 84.4541 39.99 84.4541 38.1767C84.4541 35.8867 83.3507 34.52 81.5807 34.52Z" fill="#F0F2FA"/>
</svg>
